<svg width="352" height="331" viewBox="0 0 352 331" fill="none" xmlns="http://www.w3.org/2000/svg">
<path d="M77.1014 318.306C75.424 315.599 60.3843 301.172 60.3843 301.172C60.3843 301.172 57.3094 303.584 57.4578 306.237C57.6 308.763 57.4938 322.065 57.5306 323.466H59.3564L60.3843 317.398C60.3843 317.398 64.5423 324.05 67.6636 326.327C70.7858 328.606 81.334 328.196 83.8646 327.858C86.3953 327.521 78.7788 321.011 77.1014 318.306Z" fill="#14130F"/>
<path d="M60.3446 294.016L60.5851 300.526C60.5851 300.526 59.7416 302.466 60.5851 305.335C61.4296 308.203 64.6238 312.756 67.6723 316.134C70.3021 319.048 75.9391 321.956 77.6271 321.197C79.3142 320.438 74.4215 314.616 72.9872 311.579C71.5529 308.543 70.5619 305.545 69.8799 303.03C69.0934 300.132 68.9845 293.316 68.9845 293.316L60.3446 294.016Z" fill="#C9614E"/>
<path d="M58.1034 209.149C58.1034 209.149 54.6318 220.213 56.4356 239.864C57.79 254.619 57.9261 275.069 57.9111 284.345C57.9111 284.626 57.9112 284.893 57.9094 285.152C57.9076 285.845 57.9067 286.778 57.9076 287.773C57.9067 288.037 57.9067 288.31 57.9067 288.581C57.9067 291.099 57.9076 293.709 57.9076 293.709L71.7316 295.092C71.7316 295.092 71.9643 292.86 72.2258 290.52C72.2566 290.256 72.2864 289.989 72.3171 289.724C72.4216 288.798 72.5287 287.899 72.6252 287.146C72.6586 286.89 72.6928 286.626 72.727 286.35C74.8205 269.908 81.2309 222.621 81.2616 208.712C81.2625 208.275 81.2564 207.871 81.2458 207.502C81.2441 207.462 81.2423 207.421 81.2406 207.383C80.8965 198.107 77.546 156.116 74.1192 142.585C71.6755 132.946 49.3169 138.567 49.3169 138.567C49.3169 138.567 54.0788 180.016 56.6656 191.268C60.0538 206.019 58.1034 209.149 58.1034 209.149Z" fill="#1E51A4"/>
<path d="M70.8442 208.501C71.0461 208.533 73.9437 209.006 77.2555 209.006C78.573 209.006 79.9573 208.931 81.2616 208.722C81.2625 208.285 81.2564 207.88 81.2458 207.511C76.8105 208.257 71.1076 207.328 71.0391 207.317C70.7126 207.261 70.4062 207.483 70.3527 207.811C70.2983 208.139 70.5186 208.446 70.8442 208.501Z" fill="#273372"/>
<path d="M57.9012 288.583L72.2221 290.522C72.2511 290.258 72.2809 289.991 72.3125 289.727L57.9021 287.775C57.9012 288.039 57.9012 288.312 57.9012 288.583Z" fill="#14130F"/>
<path d="M52.7534 151.434C52.993 151.394 53.2186 151.557 53.259 151.797C53.3266 152.21 60.0608 193.218 62.7319 203.344C62.7477 203.406 62.7503 203.468 62.7398 203.531C62.7152 203.68 60.2416 218.536 60.5971 228.83C60.9403 238.75 61.1238 284.538 61.1405 288.375C60.8473 288.37 60.5954 288.392 60.3022 288.375C60.2838 284.308 60.0582 238.736 59.7167 228.859C59.3744 218.907 61.6452 204.769 61.8567 203.478C59.1585 193.159 52.4575 152.353 52.39 151.939C52.3505 151.699 52.5137 151.473 52.7534 151.434Z" fill="#14130F"/>
<path d="M53.4723 165.085C52.8315 165.249 52.1872 165.402 51.5412 165.55C43.2708 167.44 34.5905 168.207 28.5163 166.755C25.5179 166.039 23.5999 162.362 22.3798 158.256C22.0463 157.135 21.6039 156.006 21.5284 154.846C20.7849 143.437 23.5912 138.596 23.5912 138.596L68.3101 133.6C68.3101 133.6 69.7962 136.342 71.4455 139.916C72.6402 142.504 73.9208 145.527 74.7863 148.262C74.789 148.264 74.7889 148.268 74.7916 148.27C75.3068 149.905 75.6746 151.438 75.7843 152.709C76.139 156.775 65.5056 162.058 53.4723 165.085Z" fill="#1E51A4"/>
<path d="M3.62901 298.82C3.62901 298.82 0.211857 300.211 0.0854568 305.02C-0.0409431 309.829 0.00996971 324.096 0.00996971 324.096L1.41527 324.146L2.77495 317.857C2.77495 317.857 3.37709 322.61 5.7813 325.648C8.18552 328.686 13.3732 328.812 16.7903 328.305C20.2084 327.799 17.6769 321.473 16.2847 317.928C14.8926 314.384 11.981 305.907 11.981 305.907L3.62901 298.82Z" fill="#14130F"/>
<path d="M6.30029 288.381C6.30029 288.381 4.4947 296.698 3.63097 298.823C3.09202 300.148 1.22676 303.124 2.23883 307.174C3.2509 311.224 3.92591 317.13 6.288 319.662C8.65008 322.191 14.8094 322.277 15.315 320.252C15.8206 318.227 12.1928 310.718 12.0251 306.837C11.8566 302.955 14.1142 290.555 14.1142 290.555L6.30029 288.381Z" fill="#C9614E"/>
<path d="M3.31071 291.33L16.2157 294.598C16.2157 294.598 16.9548 292.35 17.6201 290.39C17.7106 290.128 17.7975 289.874 17.8826 289.628C18.0055 289.271 18.1205 288.939 18.224 288.647C18.3092 288.406 18.3987 288.153 18.4926 287.89C23.2844 274.347 39.0755 229.367 41.6254 217.57C41.7641 216.924 41.909 216.22 42.0599 215.459C42.1328 215.073 42.2118 214.672 42.2882 214.26C44.7547 201.193 48.1455 175.297 48.4677 160.923C48.5467 157.477 48.4843 154.698 48.2421 152.926C48.1473 152.214 47.9235 151.572 47.5943 150.989C43.3441 143.48 21.3077 146.015 21.3077 146.015C21.3077 146.015 21.2717 147.228 21.2085 149.293C20.9127 159.53 20.1683 189.984 19.5679 199.573C18.8385 211.147 16.989 215.357 16.989 215.357C16.989 215.357 12.8293 226.216 10.3856 245.801C8.56857 260.365 5.21898 276.914 4.31926 284.497C4.28415 284.776 4.2552 285.044 4.22272 285.301C4.18497 285.612 4.14108 285.959 4.08841 286.33C4.05505 286.587 4.01556 286.855 3.97606 287.125C3.68201 289.121 3.31071 291.33 3.31071 291.33Z" fill="#1E51A4"/>
<path d="M31.8944 213.582C32.0901 213.646 34.8744 214.575 38.1441 215.101C39.4196 215.306 40.7678 215.45 42.0669 215.461C42.1415 215.074 42.2188 214.673 42.2969 214.261C37.8062 214.285 32.3429 212.466 32.278 212.446C31.9646 212.34 31.624 212.509 31.5213 212.823C31.4134 213.137 31.5819 213.476 31.8944 213.582Z" fill="#273372"/>
<path d="M3.98145 287.127L4.75301 287.312L5.48506 287.487L17.6282 290.393C17.7186 290.131 17.8055 289.877 17.8906 289.631L5.75716 286.73L4.87588 286.517L4.0938 286.332C4.06044 286.588 4.02095 286.856 3.98145 287.127Z" fill="#273372"/>
<path d="M26.0835 165.381C25.8878 165.381 25.7114 165.244 25.6649 165.045C25.6104 164.813 25.7561 164.582 25.9861 164.528C26.0256 164.52 28.4755 163.925 30.9771 161.87C34.3311 159.113 36.1893 155.17 36.4983 150.15C36.5132 149.912 36.7178 149.73 36.9548 149.745C37.1917 149.761 37.3734 149.964 37.3585 150.201C36.953 156.786 33.944 160.557 31.4915 162.562C28.8301 164.738 26.2881 165.343 26.181 165.367C26.1485 165.375 26.116 165.381 26.0835 165.381Z" fill="#14130F"/>
<path d="M6.72443 284.593C6.66738 284.922 6.63489 285.107 6.63226 285.131C6.6147 285.223 6.27062 287.14 6.30748 287.219L7.08432 287.423C7.13962 287.365 7.48194 285.367 7.49862 285.28C7.503 285.258 7.53549 285.062 7.5943 284.724C8.38254 280.143 13.7852 248.717 15.2248 238.713C16.5563 229.49 21.7361 211.921 21.7896 211.744C21.7984 211.713 21.8037 211.684 21.8072 211.652C23.0299 194.224 25.8028 149.524 25.8309 149.074C25.8484 148.831 25.6624 148.622 25.4192 148.608C25.1769 148.593 24.968 148.776 24.954 149.02C24.9259 149.469 22.1557 194.087 20.9329 211.541C20.6336 212.558 15.6619 229.537 14.3567 238.588C12.9118 248.595 7.50126 280.078 6.72443 284.593Z" fill="#14130F"/>
<path d="M52.3249 165.361C52.1661 165.361 52.0133 165.275 51.9352 165.124C51.822 164.91 51.9054 164.644 52.1204 164.529C52.1862 164.494 56.8446 161.971 57.775 156.48C57.8154 156.242 58.0427 156.078 58.2824 156.12C58.5211 156.161 58.6826 156.389 58.6423 156.627C57.6346 162.572 52.7357 165.201 52.5286 165.311C52.4627 165.345 52.3934 165.361 52.3249 165.361Z" fill="#14130F"/>
<path d="M23.9963 98.3579C25.3875 107.659 24.9732 106.522 20.8468 124.975C20.8468 124.975 20.0305 130.675 19.1317 137.976C18.1363 146.06 15.0272 156.545 21.1699 158.09C25.4446 159.164 32.465 159.86 40.3606 159.688L41.162 149.302L66.0029 145.155C66.0029 145.155 66.8526 150.635 66.9728 155.29C67.0044 155.28 67.0361 155.268 67.0685 155.258C72.4932 153.317 76.3273 150.939 76.8522 148.635C77.8168 144.39 75.9551 134.11 73.1515 122.16C73.0997 122.04 72.7065 120.514 72.5862 120.181C72.5098 119.974 72.4212 119.728 72.3246 119.445C71.7593 117.813 70.8491 114.972 69.8906 111.535C69.6887 110.809 69.4833 110.056 69.2814 109.282C68.7477 107.256 68.2193 105.086 67.7488 102.876C67.5697 102.043 67.4003 101.206 67.2406 100.368C67.0887 99.571 66.9474 98.774 66.8184 97.9787C66.6797 97.1422 66.5726 96.4049 66.4971 95.7834C66.4892 95.7325 66.4839 95.6833 66.4778 95.6359C66.4664 95.5271 66.4532 95.42 66.4444 95.3182C66.4409 95.2989 66.4383 95.2795 66.4374 95.2611C66.4374 95.2611 66.5726 95.1277 66.8061 94.8793C66.8377 94.8451 66.8719 94.8073 66.9053 94.7687C67.9893 93.5951 70.6358 90.4623 71.5952 87.0065C72.5555 83.5543 69.7054 77.6671 67.6136 70.9179C67.5302 70.6484 67.4477 70.3745 67.3661 70.1015C66.8991 68.5286 66.4839 66.9135 66.1741 65.2764C64.4686 56.2573 64.8943 52.6945 50.7323 50.163L50.1188 50.1077L34.584 48.7129C34.584 48.7129 33.7255 49.0131 32.3728 49.4809C29.5754 50.4518 24.6634 52.1467 20.9083 53.3984C12.3851 56.2407 12.9565 65.5442 16.5001 73.8005C17.3147 75.6921 18.0897 77.6557 18.813 79.6263C18.9105 79.8913 19.0097 80.1555 19.1018 80.4224C21.5201 87.1329 23.3265 93.869 23.9963 98.3579Z" fill="#14130F"/>
<path d="M65.0123 66.9923C66.5018 71.4769 67.9923 75.9605 69.4827 80.4451C69.5802 80.74 69.1158 80.8664 69.0184 80.5732C67.5297 76.0887 66.0384 71.605 64.5479 67.1196C64.4496 66.8256 64.9157 66.7 65.0123 66.9923Z" fill="#5C554C"/>
<path d="M28.6468 119.53C30.1338 124.225 33.3315 128.237 37.5825 130.725C37.9846 130.961 38.3479 130.337 37.9468 130.102C33.8581 127.708 30.7746 123.856 29.3429 119.339C29.2033 118.898 28.5064 119.086 28.6468 119.53Z" fill="#5C554C"/>
<path d="M71.8995 120.613C71.8503 123.829 70.6373 126.986 68.3173 129.245C67.9838 129.57 68.4955 130.08 68.8282 129.756C71.2824 127.366 72.5693 124.014 72.621 120.613C72.6281 120.147 71.9065 120.147 71.8995 120.613Z" fill="#5C554C"/>
<path d="M54.0235 51.3718C56.5506 53.6689 59.2068 55.816 61.7102 58.1386C61.7269 58.0139 61.7427 57.8893 61.7585 57.7638C59.5895 58.9707 57.4697 60.2645 55.4051 61.6426C55.2752 61.7295 55.248 61.8989 55.3569 62.0174C58.1043 64.9861 60.8535 67.9538 63.6018 70.9224C63.6018 70.8101 63.6018 70.6977 63.6018 70.5854C61.9086 72.0249 60.1337 73.3679 58.5168 74.8952C58.293 75.1068 58.6309 75.4438 58.8548 75.2332C60.4716 73.7058 62.2456 72.362 63.9388 70.9233C64.0398 70.8373 64.0214 70.674 63.9388 70.5862C61.1905 67.6176 58.4431 64.6499 55.6948 61.6813C55.6773 61.8059 55.6623 61.9314 55.6457 62.0561C57.7111 60.678 59.8309 59.3841 61.9989 58.1781C62.1297 58.1052 62.1596 57.9059 62.0481 57.8032C59.5447 55.4807 56.8877 53.3336 54.3615 51.0365C54.1341 50.8276 53.7962 51.1647 54.0235 51.3718Z" fill="#5C554C"/>
<path d="M69.017 153.282C68.8529 153.282 68.7142 153.156 68.701 152.991C66.6058 128.012 58.4531 75.6379 58.3714 75.1121C58.3433 74.9383 58.4627 74.775 58.6365 74.7478C58.8094 74.7215 58.9727 74.84 58.9999 75.0129C59.0815 75.5396 67.2378 127.935 69.3348 152.939C69.3497 153.112 69.2189 153.266 69.0451 153.28C69.0355 153.282 69.0258 153.282 69.017 153.282Z" fill="#5C554C"/>
<path d="M39.1908 77.3873C39.161 77.3873 39.1302 77.383 39.0995 77.3742L30.9143 74.9322C30.8283 74.9068 30.7572 74.8462 30.7186 74.7654C30.6791 74.6847 30.6773 74.5908 30.7107 74.5074L34.723 64.6693L26.9547 59.7871C26.8774 59.7389 26.8248 59.6599 26.8098 59.5703C26.7949 59.4808 26.8186 59.3886 26.8757 59.3184L32.9086 51.8161C33.0183 51.6792 33.2193 51.6572 33.3554 51.7678C33.4932 51.8775 33.5151 52.0785 33.4045 52.2146L27.5963 59.4387L35.2874 64.2725C35.4182 64.3551 35.4717 64.5192 35.4138 64.6623L31.4331 74.4231L39.2812 76.7641C39.4489 76.8141 39.5446 76.9915 39.4945 77.16C39.4542 77.2987 39.3277 77.3873 39.1908 77.3873Z" fill="#5C554C"/>
<path d="M38.2306 156.685C38.1218 156.685 38.0173 156.632 37.9444 156.536C37.84 156.396 37.8689 156.196 38.0094 156.09C38.0155 156.087 38.0217 156.081 38.0278 156.078C38.4851 154.393 39.0566 138.078 39.3427 118.319C39.5885 101.462 39.6122 80.5623 38.8757 77.1355C38.8398 76.9634 38.9486 76.794 39.1207 76.7571C39.2918 76.7203 39.4612 76.83 39.4981 77.0012C40.2565 80.5316 40.2258 101.855 39.9686 119.043C39.8272 128.522 39.6043 137.881 39.3568 144.719C38.9363 156.397 38.6493 156.526 38.3737 156.651C38.3263 156.675 38.278 156.685 38.2306 156.685Z" fill="#5C554C"/>
<path d="M67.3447 153.887C67.1867 153.887 67.0516 153.77 67.0296 153.611C67.0068 153.437 67.1288 153.277 67.3026 153.253C71.7634 152.653 76.2164 146.844 76.2602 146.786C76.3673 146.646 76.5666 146.619 76.707 146.724C76.8466 146.83 76.8729 147.031 76.7676 147.17C76.5798 147.418 72.1101 153.249 67.3868 153.884C67.3719 153.886 67.3588 153.887 67.3447 153.887Z" fill="#5C554C"/>
<path d="M32.802 156.98C28.4974 156.98 22.9042 156.368 18.0747 153.853C17.9185 153.77 17.8588 153.578 17.9404 153.422C18.0212 153.266 18.2134 153.207 18.3688 153.289C27.5389 158.063 39.5792 155.825 39.6995 155.8C39.8724 155.768 40.0392 155.881 40.0725 156.054C40.105 156.225 39.9927 156.392 39.8206 156.426C39.7601 156.438 36.8511 156.98 32.802 156.98Z" fill="#5C554C"/>
<path d="M32.373 49.4794C33.4684 50.7873 35.1423 54.0289 36.9418 59.6502C37.0093 59.8538 37.0734 60.0636 37.1401 60.2743C37.8731 62.6197 38.6227 65.3592 39.3618 68.5218C39.4074 68.7167 39.4531 68.9124 39.497 69.1108C39.8823 70.7908 40.2632 72.5868 40.6381 74.5047C40.7337 75.0015 40.8259 75.5642 40.911 76.1839C40.9339 76.3489 40.9576 76.5183 40.9777 76.6938C41.3543 79.6704 41.6098 83.8503 41.7704 88.7773C41.7757 88.9388 41.7809 89.1029 41.7853 89.2662C41.8511 91.3438 41.9021 93.5488 41.9363 95.8486C41.9389 96.0382 41.9416 96.2295 41.9451 96.4209C42.0162 101.53 42.0197 107.088 41.9767 112.737C41.9758 112.917 41.974 113.099 41.9723 113.278C41.9539 115.462 41.9293 117.658 41.8985 119.844C41.8968 119.993 41.895 120.142 41.8915 120.289C41.8626 122.401 41.8266 124.502 41.7853 126.576C41.7818 126.746 41.7791 126.915 41.7756 127.084C41.7502 128.464 41.7204 129.828 41.6905 131.177C41.6852 131.359 41.6817 131.538 41.6773 131.72C41.5878 135.602 41.4869 139.325 41.3824 142.753C41.3763 142.928 41.371 143.103 41.3657 143.276C41.299 145.415 41.2305 147.433 41.1638 149.301C47.1818 149.202 53.1972 148.407 59.0318 147.063C61.3816 146.523 63.7068 145.883 66.0039 145.153C65.8512 143.735 65.6897 142.225 65.5159 140.64V140.64C65.4922 140.405 65.465 140.172 65.4413 139.935C65.0629 136.471 64.6451 132.668 64.1966 128.69C64.1729 128.47 64.1456 128.249 64.1211 128.027C63.7217 124.467 63.2977 120.776 62.8615 117.07V117.069C62.8237 116.745 62.7851 116.419 62.7465 116.096C62.7465 116.096 62.7465 116.096 62.7465 116.094C62.3331 112.582 61.9082 109.066 61.4825 105.642C61.4641 105.48 61.443 105.318 61.4228 105.156C60.9936 101.702 60.5617 98.3502 60.1369 95.2008C60.1106 95.0006 60.0842 94.8032 60.0561 94.6057C59.5084 90.56 58.9765 86.8663 58.4753 83.7441C58.441 83.5317 58.4077 83.321 58.3743 83.1139C58.3524 82.9813 58.3304 82.8505 58.3094 82.7215C57.7423 79.2789 57.163 76.1373 56.5872 73.274C56.5556 73.1169 56.5249 72.9607 56.4924 72.8044C55.4864 67.8652 54.4884 63.7722 53.5545 60.4112C53.5132 60.2628 53.472 60.1136 53.4298 59.9688C52.1333 55.3578 50.9721 52.1733 50.1171 50.1088L34.5832 48.7149C34.5849 48.7114 33.7274 49.0107 32.373 49.4794Z" fill="white"/>
<path d="M36.948 59.6523C37.0156 59.856 37.0797 60.0658 37.1464 60.2764C40.7049 61.7959 44.6636 62.5025 48.4872 62.0364C50.2507 61.8222 52.0115 61.2762 53.5625 60.4099C53.5212 60.2615 53.48 60.1123 53.4379 59.9675C49.3009 62.3489 43.921 62.0074 39.5111 60.6249C38.636 60.3502 37.7819 60.0245 36.948 59.6523Z" fill="#E2CEC3"/>
<path d="M39.3666 68.5215C39.4122 68.7163 39.4579 68.9121 39.5018 69.1105C44.3611 71.096 49.5523 72.6128 54.7557 73.1658C55.3535 73.2281 55.9705 73.265 56.5938 73.2702C56.5622 73.1131 56.5314 72.9569 56.4989 72.8006C55.026 72.7532 53.5505 72.5426 52.118 72.2792C49.3723 71.7763 46.6583 71.0828 44.0021 70.2226C42.4344 69.7161 40.8878 69.1473 39.3666 68.5215Z" fill="#E2CEC3"/>
<path d="M40.9136 76.1816C40.9364 76.3467 40.9601 76.5161 40.9803 76.6916C47.1247 78.1628 53.0365 80.5529 58.4805 83.7401C58.4462 83.5277 58.4129 83.3171 58.3795 83.1099C52.9295 79.971 47.0282 77.6247 40.9136 76.1816Z" fill="#E2CEC3"/>
<path d="M41.7685 88.7754C41.7737 88.9369 41.779 89.101 41.7834 89.2643C48.1569 90.3045 54.3627 92.3163 60.1367 95.198C60.1104 94.9979 60.084 94.8004 60.056 94.6029C54.2916 91.7695 48.106 89.798 41.7685 88.7754Z" fill="#E2CEC3"/>
<path d="M52.0231 107.037C52.7472 108.429 53.8234 110.315 53.4337 111.934C52.9921 113.781 50.8293 114.089 49.2397 114.164C46.7292 114.285 44.2381 113.777 41.9752 112.734C41.9743 112.914 41.9726 113.096 41.9708 113.276C44.7253 114.512 47.8581 115.032 50.8047 114.49C58.4826 113.075 49.9682 102.506 47.2743 99.8992C45.661 98.3386 43.8633 96.9754 41.9348 95.8457C41.9375 96.0353 41.9401 96.2266 41.9436 96.418C46.1762 98.9697 49.7391 102.646 52.0231 107.037Z" fill="#E2CEC3"/>
<path d="M58.6482 110.75C59.5005 112.465 60.7364 114.037 61.8301 115.603C62.1716 116.093 62.5157 116.581 62.8633 117.067C62.8255 116.744 62.7869 116.418 62.7483 116.095C62.7483 116.095 62.7483 116.095 62.7483 116.093C61.7678 114.701 60.811 113.293 59.8788 111.869C58.9642 110.474 57.8249 108.471 58.9861 106.881C59.5611 106.093 60.5231 105.734 61.4834 105.64C61.465 105.477 61.4439 105.316 61.4237 105.154C61.3228 105.166 61.2201 105.179 61.1165 105.195C60.0667 105.361 59.0318 105.858 58.4604 106.787C57.6923 108.034 58.039 109.522 58.6482 110.75Z" fill="#E2CEC3"/>
<path d="M41.8924 120.286C48.6293 121.223 55.2521 123.185 61.1226 126.671C62.1768 127.297 63.2056 127.968 64.1992 128.688C64.1755 128.468 64.1483 128.246 64.1237 128.024C57.5624 123.408 49.8608 120.955 41.8994 119.842C41.8977 119.989 41.8959 120.138 41.8924 120.286Z" fill="#E2CEC3"/>
<path d="M41.7776 127.082C42.1058 127.2 42.435 127.321 42.7615 127.444C51.0161 130.547 58.7291 135.032 65.5195 140.639C65.4958 140.404 65.4686 140.171 65.4449 139.934C58.385 134.185 50.3534 129.648 41.7872 126.574C41.7837 126.745 41.7811 126.913 41.7776 127.082Z" fill="#E2CEC3"/>
<path d="M41.3684 143.274C42.9036 143.882 44.4793 144.393 46.0777 144.804C47.4821 145.164 48.9708 145.573 50.434 145.546C51.461 145.526 52.6329 145.278 53.2482 144.371C54.061 143.175 53.4264 141.75 52.7048 140.684C49.9715 136.653 46.0619 133.394 41.6923 131.176C41.6871 131.357 41.6835 131.537 41.6792 131.719C43.1793 132.497 44.6136 133.401 45.9645 134.424C48.302 136.195 50.42 138.318 52.1238 140.709C53.0454 142.002 53.8301 144.07 51.8674 144.82C50.6789 145.274 49.3193 145.017 48.1185 144.772C45.8152 144.302 43.5611 143.623 41.3851 142.752C41.3781 142.926 41.3728 143.1 41.3684 143.274Z" fill="#E2CEC3"/>
<path d="M28.5944 107.946C25.1219 120.853 22.8854 133.863 21.7583 147.724C21.7381 147.971 21.5336 148.158 21.2896 148.158C21.2773 148.158 21.2641 148.158 21.2509 148.156C20.9902 148.135 20.798 147.908 20.82 147.647C21.9514 133.729 24.1967 120.663 27.6824 107.701C28.0563 106.316 28.1098 104.352 27.9352 102.023C27.8772 101.233 27.7903 100.4 27.6806 99.5356C27.5867 98.7869 27.4761 98.0135 27.3488 97.2183C27.3093 96.9611 27.2681 96.7022 27.2224 96.4397C25.0614 83.5382 19.2935 65.9863 19.2154 65.7458C19.1329 65.4974 19.2672 65.2305 19.5138 65.1489C19.7605 65.0673 20.0291 65.2016 20.1107 65.4491C20.4364 66.4366 26.098 83.6672 28.195 96.4985C28.2389 96.761 28.2793 97.0199 28.3196 97.2771C28.5005 98.4436 28.647 99.5672 28.7568 100.635C28.8691 101.742 28.9402 102.789 28.9613 103.755C28.9999 105.419 28.8902 106.847 28.5944 107.946Z" fill="#5C554C"/>
<path d="M38.0464 11.9447C38.0464 11.9447 39.2489 0.998022 28.3926 0.0359843C19.6992 -0.734699 15.4069 11.0231 21.0202 20.991C26.6327 30.959 20.2496 36.431 13.9779 33.1999C13.9779 33.1999 16.3145 39.103 25.1598 36.7918C34.0051 34.4797 38.0464 11.9447 38.0464 11.9447Z" fill="#14130F"/>
<path d="M26.6421 31.0551C27.9087 33.6033 29.8793 35.7556 32.1133 37.5085C38.7536 42.7163 44.4222 46.4143 52.1229 42.5873C54.449 41.3794 56.1107 38.4846 56.1546 38.4047C57.3387 36.2524 58.1383 31.9706 58.2357 28.2638C58.3323 24.6052 57.8469 25.8684 59.3022 20.4964C61.5151 12.3357 50.8906 8.28394 50.8906 8.28394C47.0248 5.88148 36.0746 4.09698 28.7373 12.104C24.2221 17.0318 23.2135 22.5609 26.3165 29.8543C26.4367 30.1369 26.5447 30.5451 26.6421 31.0551Z" fill="#14130F"/>
<path d="M36.9823 7.38881C31.4242 8.9767 26.9783 13.4735 25.4501 19.0474C25.3501 19.4152 24.7769 19.2589 24.8787 18.8903C26.4604 13.1189 31.0722 8.46057 36.8251 6.81738C37.1929 6.71293 37.3492 7.28436 36.9823 7.38881Z" fill="#F9A137"/>
<path d="M30.3897 10.1894C29.5479 7.95367 27.371 6.22621 24.8922 6.44302C24.3918 6.48691 23.8292 6.6765 24.0258 7.32781C24.1048 7.58939 24.5665 7.96946 24.7763 8.15643C25.2652 8.58829 25.8182 8.94731 26.4037 9.23434C27.6378 9.83825 28.9861 10.0647 30.3528 9.96727C30.7338 9.93919 30.732 10.5326 30.3528 10.5598C28.52 10.6914 26.6828 10.2341 25.1581 9.1966C24.3717 8.66116 22.4555 7.15314 23.7546 6.16916C24.8307 5.35371 26.8935 5.96552 27.9556 6.51149C29.3943 7.25321 30.3967 8.53387 30.9602 10.0313C31.0945 10.3895 30.5222 10.544 30.3897 10.1894Z" fill="#F9A137"/>
<path d="M30.6955 10.1801C30.268 8.50271 29.8125 6.66729 30.3558 4.95914C30.7122 3.83999 31.6883 2.69098 32.9935 3.02015C34.2259 3.33 34.426 4.74409 34.0556 5.77986C33.5158 7.29577 32.3747 8.65193 31.2037 9.72632C30.9237 9.98351 30.5024 9.56569 30.7842 9.30675C31.7014 8.46584 35.3415 4.34734 32.7864 3.72763C32.1824 3.58104 31.8533 3.69164 31.4381 4.16301C31.2423 4.38333 31.1344 4.60189 31.0247 4.87225C30.7964 5.43665 30.7087 6.04232 30.7043 6.64886C30.6973 7.79523 30.9843 8.91877 31.2661 10.023C31.3609 10.3925 30.7894 10.5497 30.6955 10.1801Z" fill="#F9A137"/>
<path d="M55.4932 27.3379C55.4932 27.3379 57.0477 27.4643 57.3576 29.4428C57.6674 31.4213 56.6922 34.734 54.6848 34.3416C52.6782 33.9475 55.4932 27.3379 55.4932 27.3379Z" fill="#732426"/>
<path d="M55.3026 37.7081C56.808 37.7696 58.0816 36.5951 58.1422 35.0897C58.2045 33.5844 57.0292 32.3098 55.5247 32.2484C54.0202 32.187 52.7448 33.3623 52.6842 34.8668C52.6219 36.3722 53.7972 37.6467 55.3026 37.7081ZM55.4922 33.0463C56.5578 33.0893 57.389 33.9916 57.3443 35.0573C57.3013 36.122 56.3998 36.9541 55.3351 36.9102C54.2694 36.8672 53.4382 35.9658 53.4821 34.9001C53.526 33.8345 54.4274 33.0033 55.4922 33.0463Z" fill="#F9A137"/>
<path d="M33.3229 49.4537C33.3229 49.4537 36.4548 53.4221 42.2595 54.2297C49.6328 55.2558 50.457 52.0765 50.457 52.0765C50.141 51.0785 49.9488 50.0884 49.8557 49.0263C49.8206 48.6242 49.7996 48.2108 49.7917 47.7833C49.7688 46.6159 49.8435 45.3405 49.9865 43.8667C50.0208 43.5209 50.0576 43.1628 50.1007 42.7932L50.1042 42.7493C44.9964 41.5661 40.8094 39.3234 37.9338 35.5727L37.1658 35.1197L36.6488 34.8125L36.5558 35.1101L36.6576 36.0581C37.15 40.5154 35.6753 45.5775 33.3229 49.4537Z" fill="#C9614E"/>
<path d="M33.6853 48.9636C35.2591 51.6689 36.9585 54.3014 38.7878 56.8407C40.5293 59.2599 42.427 62.0863 44.8479 63.8831C46.1926 64.8811 47.9956 65.6246 49.6449 64.9329C51.3776 64.207 51.5874 62.2548 51.6041 60.6116C51.6427 57.0935 51.3101 53.5017 49.8661 50.2548C49.7116 49.909 50.2234 49.607 50.3787 49.9555C51.5778 52.6538 52.0518 55.5636 52.1676 58.4989C52.2563 60.7196 52.5521 63.956 50.298 65.277C48.1948 66.5103 45.6344 65.3683 43.9613 63.9349C41.96 62.2189 40.3282 59.9384 38.7746 57.8256C36.7531 55.0782 34.8887 52.2123 33.1735 49.2638C32.9804 48.9329 33.493 48.6336 33.6853 48.9636Z" fill="#1C1A0F"/>
<path d="M41.481 39.4824C42.5704 41.913 45.0931 46.207 49.7848 47.7888C49.7619 46.6213 49.8366 45.3459 49.9796 43.8722C50.0139 43.5263 50.0507 43.1682 50.0938 42.7986C49.9928 42.8109 49.8901 42.8197 49.7865 42.8267C47.0066 43.0251 43.9792 41.6066 41.481 39.4824Z" fill="#14130F"/>
<path d="M30.3985 27.5014C30.2379 30.2681 32.3823 33.7923 35.9943 34.1022L36.0127 34.1031H36.0136L36.0908 34.1101C36.14 34.2725 36.1979 34.4322 36.2594 34.5964C36.2848 34.6675 36.3138 34.7386 36.341 34.8097C36.3445 34.8158 36.3463 34.8229 36.3507 34.829C38.3309 39.6585 44.8651 42.8132 48.4806 43.1222C49.7718 43.2319 50.6583 42.9914 50.9419 42.9475C54.8295 42.3375 55.8477 37.192 55.4773 33.1928C55.422 32.6117 55.3386 32.0579 55.2307 31.5426C55.2228 31.5066 55.2149 31.4715 55.2079 31.4364C55.2079 31.4364 56.8177 25.9653 57.2592 23.5637C58.1141 18.908 55.702 13.9872 45.4725 12.452C35.2429 10.9159 32.4068 17.1559 31.4869 20.4994C31.3324 21.0568 31.2499 24.4248 31.7819 24.9988C30.7777 25.4412 30.4521 26.5727 30.3985 27.5014Z" fill="#C9614E"/>
<path d="M50.0732 36.638C49.9512 36.6178 49.8257 36.5889 49.6931 36.5485C48.4168 36.1631 47.7339 34.764 47.7049 34.7043C47.6066 34.4989 47.6918 34.2522 47.8989 34.1539C48.1026 34.0556 48.3501 34.1416 48.4484 34.347C48.4572 34.3637 49.0102 35.4802 49.9319 35.7585C50.886 36.0473 51.3898 35.5461 51.4109 35.525C51.5689 35.3644 51.8287 35.3574 51.9911 35.5127C52.1552 35.6681 52.1658 35.9235 52.0122 36.0894C51.9823 36.1237 51.2994 36.8425 50.0732 36.638Z" fill="#732426"/>
<path d="M48.8598 38.3296C48.3138 38.162 48.0522 37.7415 48.0364 37.7169C47.9618 37.5941 48.0004 37.4343 48.1233 37.3597C48.2462 37.286 48.4042 37.3246 48.4788 37.4457C48.4964 37.472 48.8378 37.9943 49.5822 37.8548C49.7235 37.8275 49.8587 37.9215 49.8859 38.0619C49.9131 38.2023 49.82 38.3384 49.6787 38.3647C49.3566 38.4253 49.0836 38.399 48.8598 38.3296Z" fill="#732426"/>
<path d="M52.8252 27.892C53.177 27.9419 53.3842 28.5318 53.288 29.2095C53.1919 29.8872 52.8287 30.3962 52.4769 30.3463C52.1251 30.2963 51.9178 29.7064 52.014 29.0287C52.1102 28.351 52.4733 27.842 52.8252 27.892Z" fill="#14130F"/>
<path d="M51.6927 28.5368C51.6594 28.5227 51.6304 28.4981 51.6084 28.4639C51.5566 28.3779 51.5847 28.2673 51.6699 28.2155C51.7419 28.1725 53.4421 27.1701 54.8228 28.2752C54.9009 28.3375 54.9132 28.4516 54.8509 28.5297C54.7877 28.6079 54.6745 28.6201 54.5964 28.5578C53.4105 27.6089 51.8718 28.5166 51.8568 28.5254C51.805 28.5561 51.7454 28.5596 51.6927 28.5368Z" fill="#14130F"/>
<path d="M46.8969 27.1309C47.2487 27.181 47.4556 27.771 47.359 28.4487C47.2624 29.1264 46.8989 29.6351 46.5471 29.5849C46.1953 29.5348 45.9885 28.9448 46.085 28.2671C46.1816 27.5895 46.5451 27.0807 46.8969 27.1309Z" fill="#14130F"/>
<path d="M45.4474 28.0018C45.4114 27.9913 45.3798 27.9711 45.3552 27.9404C45.2929 27.8614 45.306 27.7473 45.3842 27.685C45.45 27.6332 47.0098 26.4236 48.5187 27.3452C48.6047 27.3979 48.631 27.5094 48.5784 27.5945C48.5266 27.6797 48.4151 27.7069 48.33 27.6542C47.0317 26.8616 45.622 27.9571 45.608 27.9685C45.5615 28.0062 45.5009 28.0167 45.4474 28.0018Z" fill="#14130F"/>
<path d="M33.9861 31.3887C34.2196 31.6617 34.1986 31.9302 33.9537 32.1953C33.0276 32.3051 32.2894 33.0731 32.2508 34.0334C32.2078 35.099 33.039 36.0005 34.1037 36.0444C35.1694 36.0874 36.0708 35.257 36.1139 34.1914C36.1402 33.5603 35.8567 32.9871 35.4011 32.6158L35.4388 31.6906C36.3491 32.1646 36.9565 33.1328 36.9117 34.2239C36.8512 35.7292 35.5767 36.9037 34.0713 36.8423C32.5659 36.7808 31.3914 35.5072 31.4529 34.0018C31.5099 32.6 32.6194 31.4861 33.9861 31.3887Z" fill="#F9A137"/>
<path d="M31.7832 24.9992C32.0763 25.0308 32.3511 25.08 32.61 25.1458C34.3322 25.575 35.3539 26.6942 36.1422 27.7967C36.2774 26.8557 37.2385 22.5362 43.5225 21.7629C43.6138 21.7523 43.7094 21.7418 43.8104 21.733C44.567 20.3821 44.4749 19.026 44.4749 19.026C43.8218 16.4752 56.1492 17.6452 56.6039 21.5662C56.7944 23.2103 56.898 24.2803 56.9541 24.9746V24.9755C57.0481 26.1289 57.0095 26.2527 57.0095 26.2527C57.0095 26.2527 58.1093 27.3736 58.1444 21.9665C58.1549 20.2101 57.4668 18.5862 56.2669 17.1625C53.7784 14.2009 49.0893 12.1074 43.9227 11.5008C36.273 10.6029 30.7895 18.688 30.4534 21.6207C30.1189 24.5507 31.7832 24.9992 31.7832 24.9992Z" fill="#14130F"/>
<g opacity="0.5">
<path d="M53.4221 32.2787C53.4054 32.6904 54.2893 33.0687 55.4805 33.1951C55.4252 32.6141 55.3418 32.0602 55.2338 31.5449C54.1963 31.616 53.437 31.9039 53.4221 32.2787Z" fill="#732426"/>
</g>
<path d="M48.1155 25.058C48.7931 25.5486 49.6657 24.7376 49.2092 24.0362C48.9705 23.6702 48.5799 23.3288 47.9461 23.1356C45.196 22.2956 43.1043 24.0134 43.1043 24.0134C43.1043 24.0134 46.0413 24.0169 47.3764 24.6287C47.6863 24.7701 47.9233 24.9193 48.1155 25.058Z" fill="#14130F"/>
<path d="M52.9705 25.7559C52.1963 26.0746 51.5371 25.0836 52.1446 24.5078C52.4623 24.2067 52.9214 23.9662 53.5832 23.9258C56.4527 23.7485 57.1602 25.6392 57.1602 25.6392C57.1602 25.6392 55.2308 25.2258 53.7895 25.5102C53.4559 25.5751 53.1909 25.6647 52.9705 25.7559Z" fill="#14130F"/>
<g opacity="0.5">
<path d="M44.4551 31.0029C45.8962 31.0611 47.049 31.4883 47.0301 31.9572C47.0112 32.4261 45.8277 32.7591 44.3866 32.7009C42.9455 32.6428 41.7927 32.2156 41.8116 31.7467C41.8305 31.2778 43.014 30.9448 44.4551 31.0029Z" fill="#732426"/>
</g>
<path d="M35.9811 34.1033L35.9995 34.1051C36.0013 34.1051 36.0013 34.1051 36.0013 34.1051L36.0776 34.113C36.1268 34.2754 36.1847 34.4351 36.247 34.5984C36.2725 34.6695 36.3015 34.7406 36.3287 34.8117C36.3313 34.8178 36.3331 34.8249 36.3383 34.831C36.7535 34.7898 37.2802 34.666 37.7674 34.3597C38.0526 34.1788 38.3256 33.9366 38.5512 33.603C38.6688 33.4336 38.6249 33.201 38.4538 33.0842C38.2843 32.9657 38.0517 33.0096 37.9341 33.1808C37.6813 33.5486 37.339 33.7724 36.9993 33.9085C36.7676 33.9998 36.5376 34.0498 36.3348 34.0744C36.2005 34.0928 36.0812 34.0998 35.9811 34.1033Z" fill="#732426"/>
<path d="M36.4509 31.9599C36.3026 31.9257 36.1823 31.8028 36.1621 31.643C35.8145 29.0123 32.7766 27.7045 32.745 27.6913C32.5545 27.6114 32.4649 27.392 32.5448 27.2024C32.6247 27.0119 32.8433 26.9224 33.0337 27.0014C33.1751 27.0602 36.5001 28.4839 36.903 31.5456C36.9302 31.7501 36.7853 31.938 36.5817 31.9652C36.536 31.9713 36.4922 31.9687 36.4509 31.9599Z" fill="#732426"/>
<path d="M33.2983 30.3139C33.2526 30.3034 33.2078 30.285 33.1675 30.256C32.998 30.1384 32.9559 29.9058 33.0735 29.7355C33.106 29.6889 33.8802 28.6031 35.3935 28.7524C35.598 28.7734 35.7481 28.9551 35.7288 29.1614C35.7095 29.3668 35.5252 29.5169 35.3198 29.4967C34.2392 29.3896 33.6933 30.1542 33.6889 30.1621C33.5985 30.2911 33.4431 30.3464 33.2983 30.3139Z" fill="#732426"/>
<path d="M33.4309 38.8478C35.4832 40.3312 37.5714 41.1037 39.8 39.1067C40.0019 35.8555 39.226 32.1574 38.1112 30.0306C36.2819 26.5361 39.3655 22.1719 39.3655 22.1719C37.38 23.0172 35.1733 23.0172 34.0129 25.3617C36.0133 27.6228 34.8433 33.8304 33.4309 38.8478Z" fill="#14130F"/>
<path d="M46.2678 31.982C44.1997 32.0548 42.4609 30.4266 42.3863 28.3576C42.3134 26.2896 43.9417 24.5437 46.0106 24.477C48.0786 24.4033 49.8254 26.0324 49.8921 28.1005C49.9658 30.1694 48.3428 31.9153 46.2678 31.982ZM49.3698 28.1127C49.3672 27.996 49.3584 27.8784 49.3356 27.7616C49.2987 27.486 49.2268 27.2288 49.1276 26.9848C48.9713 26.6074 48.7449 26.2624 48.4613 25.9763C48.0268 25.526 47.4633 25.2082 46.8375 25.066C46.5785 25.0142 46.3055 24.9896 46.0299 24.9984C44.2436 25.0555 42.8436 26.5565 42.9085 28.3375C42.9112 28.4472 42.92 28.5578 42.9358 28.6614C43.02 29.31 43.2983 29.8902 43.7038 30.3607C43.9742 30.6671 44.2928 30.9128 44.6562 31.0989C44.8905 31.2253 45.1477 31.3184 45.4128 31.3842C45.6779 31.443 45.9588 31.4685 46.2537 31.4597C48.0339 31.4018 49.4348 29.9008 49.3698 28.1127Z" fill="white"/>
<path d="M54.806 32.853C52.738 32.9267 50.9991 31.2976 50.9254 29.2296C50.8517 27.1607 52.4808 25.4148 54.5497 25.3481C56.6178 25.2752 58.3645 26.9035 58.4312 28.9724C58.5041 31.0404 56.882 32.7863 54.806 32.853ZM57.909 28.9847C57.9063 28.8679 57.8975 28.7512 57.8747 28.6336C57.8379 28.3579 57.7668 28.1007 57.6667 27.8558C57.5104 27.4793 57.284 27.1334 57.0005 26.8482C56.566 26.3979 56.0024 26.0801 55.3766 25.937C55.1176 25.8853 54.8446 25.8607 54.5699 25.8703C52.7819 25.9274 51.3827 27.4284 51.4477 29.2094C51.4494 29.3191 51.4591 29.4297 51.4749 29.5333C51.5591 30.1819 51.8365 30.763 52.2429 31.2326C52.5124 31.539 52.8319 31.7848 53.1953 31.9717C53.4306 32.0981 53.6869 32.1903 53.9511 32.2561C54.217 32.3149 54.497 32.3404 54.7929 32.3316C56.5739 32.2728 57.973 30.7718 57.909 28.9847Z" fill="white"/>
<path d="M42.7323 27.3439C42.6779 27.3421 42.6253 27.3254 42.577 27.2947C40.2087 25.7621 37.823 26.0667 37.801 26.0693C37.6298 26.0913 37.4754 25.9737 37.4534 25.8051C37.4306 25.6357 37.5482 25.4803 37.7168 25.4566C37.8239 25.4417 40.3527 25.1196 42.9132 26.7751C43.0571 26.8681 43.0975 27.0586 43.0053 27.2017C42.943 27.2982 42.8377 27.3483 42.7323 27.3439Z" fill="white"/>
<path d="M58.0752 29.9401C58.0322 29.9383 57.9866 29.9269 57.9462 29.905C57.9348 29.8997 56.8849 29.359 55.7675 29.4933C55.5911 29.5161 55.4436 29.3915 55.4234 29.223C55.4041 29.0535 55.5244 28.8991 55.6938 28.8789C57.0052 28.7235 58.184 29.3318 58.2341 29.3573C58.3842 29.4363 58.4421 29.6232 58.3631 29.7742C58.3043 29.8839 58.1911 29.9454 58.0752 29.9401Z" fill="white"/>
<path d="M50.7702 32.9351C50.8273 32.9403 50.8879 32.9307 50.9423 32.9026L52.3994 32.16C52.4986 32.1091 52.5644 32.0108 52.5697 31.8993C52.5767 31.7887 52.524 31.6816 52.4328 31.6202C51.3592 30.9004 50.7483 29.8514 50.5069 28.3215C50.4806 28.1503 50.32 28.0327 50.1479 28.0608C49.9776 28.088 49.86 28.2486 49.8872 28.4198C50.1251 29.9296 50.6948 31.0268 51.6656 31.8308L50.6579 32.3443C50.5034 32.4233 50.442 32.612 50.5201 32.7656C50.5719 32.864 50.6675 32.9245 50.7702 32.9351Z" fill="#732426"/>
<path d="M51.0923 28.9187C51.0186 28.9161 50.9458 28.8863 50.8905 28.8318C50.4393 28.3929 49.9144 28.6607 49.8556 28.6923C49.7063 28.7739 49.5176 28.7195 49.436 28.5702C49.3543 28.4219 49.4061 28.2358 49.5536 28.1524C49.888 27.9646 50.6859 27.7724 51.3197 28.3886C51.4434 28.507 51.4452 28.7037 51.3267 28.8257C51.2617 28.8915 51.1766 28.9222 51.0923 28.9187Z" fill="white"/>
<path d="M30.2556 89.8213C30.6725 89.9767 40.5843 93.6835 51.0877 96.7988C57.4042 98.6702 62.6383 99.9394 66.6462 100.569C68.7494 100.898 70.5506 101.061 72.1095 101.061C72.5747 101.061 73.0189 101.046 73.4428 101.018C75.1132 100.904 76.4738 100.549 77.5798 100.057C77.8264 99.9473 78.0608 99.8323 78.282 99.7103C79.7804 98.8905 80.7283 97.8214 81.3182 96.8716C82.3434 95.2258 82.6515 93.4272 82.4637 91.4391C82.4496 91.2644 82.4286 91.0862 82.4049 90.908C82.1319 88.9067 81.3928 86.7158 80.3957 84.2984C79.1325 81.242 77.2243 77.3342 74.72 72.689C70.5523 64.9514 66.1714 57.809 65.987 57.5097C65.3603 56.4871 63.3344 54.9624 62.3478 54.4375C63.5802 58.2997 65.2199 62.9721 66.3303 66.879C67.2247 70.0179 68.4825 72.9593 69.0285 76.1781C69.4428 78.6306 70.2907 81.3877 69.8343 83.8621C69.5578 85.3745 68.7854 86.678 67.3967 86.9897C67.488 87.1889 67.5785 87.3838 67.6618 87.5725C64.5089 87.0063 59.5565 85.8363 51.9076 83.468C42.9254 80.6873 34.8973 77.6844 34.8174 77.6537C31.4573 76.3949 27.7136 78.0978 26.4548 81.4571C25.1926 84.818 26.8937 88.5626 30.2556 89.8213Z" fill="#14130F"/>
<path d="M78.2742 99.7107C79.7725 98.8908 80.7205 97.8217 81.3104 96.872C82.3356 95.2262 82.6437 93.4276 82.4559 91.4395C80.1526 93.2354 77.6149 96.1013 78.2742 99.7107Z" fill="#5C554C"/>
<path d="M10.6002 88.7682C10.6133 87.8703 10.6449 87.0136 10.6888 86.17C10.7757 84.4891 10.9039 82.8679 11.0496 81.2624C11.3445 78.0559 11.7132 74.9223 12.1178 71.8009C12.3197 70.242 12.5339 68.6866 12.7551 67.1338L13.0948 64.8033L13.4564 62.4421C13.4731 62.3403 13.4951 62.206 13.5153 62.1024C14.3781 57.7302 18.6221 54.8845 22.9943 55.7482C27.3682 56.6093 30.214 60.8534 29.3511 65.2273L29.3327 65.3151L28.9026 67.4981L28.483 69.7145C28.2065 71.1935 27.9388 72.6752 27.6825 74.1542C27.169 77.1114 26.6924 80.0678 26.3017 82.9706C26.1183 84.3293 25.9541 85.6776 25.8251 86.9793C26.831 86.91 27.8712 86.8126 28.9184 86.702C30.3579 86.5484 31.8186 86.3649 33.2879 86.1648C36.2285 85.7619 39.198 85.2887 42.1736 84.7814C45.1475 84.2732 48.1302 83.7263 51.1111 83.154C52.6007 82.867 54.0911 82.5738 55.5772 82.2754L57.8076 81.8189L60.0117 81.359L60.0995 81.3396C63.4833 80.6374 66.8522 82.7204 67.7124 86.1033C68.5963 89.5802 66.4923 93.1158 63.0163 93.9989L60.7271 94.58L58.4589 95.1435C56.9483 95.5157 55.4367 95.8808 53.9199 96.239C50.889 96.9561 47.8493 97.6487 44.7894 98.3061C41.7277 98.9644 38.6476 99.5912 35.5175 100.156C33.9524 100.438 32.3724 100.706 30.7635 100.946C29.1519 101.187 27.5192 101.405 25.7944 101.567C24.9289 101.645 24.0432 101.714 23.0909 101.747C22.6142 101.765 22.1218 101.772 21.5942 101.766C21.0641 101.758 20.5085 101.739 19.8633 101.678C19.5394 101.647 19.1979 101.607 18.81 101.543C18.6555 101.518 18.4975 101.489 18.3263 101.455C18.0682 101.404 17.7891 101.338 17.4766 101.251C16.9596 101.104 16.3531 100.912 15.5271 100.491C15.1128 100.272 14.6467 99.9985 14.1033 99.5666C13.5626 99.1338 12.9526 98.5536 12.3794 97.7066C12.0968 97.2905 11.8308 96.8051 11.6158 96.2899C11.5438 96.1152 11.4744 95.937 11.4112 95.757L11.3182 95.4876L11.2524 95.276C11.2111 95.1365 11.1707 94.9951 11.133 94.8547L11.1066 94.7502L11.0865 94.6633L11.0461 94.4922L11.0022 94.2947L10.9706 94.1455C10.9284 93.9383 10.8969 93.7505 10.8626 93.5521C10.7485 92.8192 10.7002 92.2389 10.6616 91.6851C10.5923 90.6001 10.5879 89.668 10.6002 88.7682Z" fill="#14130F"/>
<path d="M11.0001 94.293L11.044 94.4905L11.0843 94.6616L11.1045 94.7485L11.1309 94.853C11.1686 94.9943 11.209 95.1347 11.2502 95.2743L11.3161 95.4859L11.4091 95.7553C11.4723 95.9353 11.5417 96.1135 11.6136 96.2881C11.8287 96.8025 12.0947 97.2888 12.3773 97.7049C12.9505 98.5519 13.5605 99.1321 14.1013 99.5649C14.6446 99.9967 15.1107 100.271 15.525 100.489C16.3501 100.91 16.9575 101.102 17.4745 101.249C17.7861 101.336 18.0662 101.402 18.3242 101.453C17.8915 97.3555 13.8177 95.2603 11.0001 94.293Z" fill="#5C554C"/>
<path d="M63.1532 84.5121C62.5046 83.2323 62.6125 81.9639 62.7038 80.6236C63.4692 79.9284 64.1627 79.3473 64.4954 79.0155C65.4205 78.0929 67.112 76.972 68.922 75.8669C70.7319 74.7609 71.9459 74.7091 73.5847 74.4458C75.2235 74.1834 77.8761 74.8944 77.1704 75.7897C76.4804 76.6657 74.2079 75.9477 72.5296 76.757C70.8504 77.5663 69.9577 78.2685 69.9577 78.2685C71.3007 77.8753 72.5226 77.389 75.3332 77.9604C78.1447 78.5318 78.789 80.075 77.992 80.3172C77.1967 80.5586 76.4172 80.6631 74.415 80.2022C72.4128 79.7414 70.1526 80.692 70.1526 80.692C71.3701 80.4392 75.694 80.6982 76.8544 81.8428C78.0157 82.9874 76.9123 83.7932 75.4464 83.4043C73.9814 83.0155 70.1728 83.5738 70.1728 83.5738C70.1728 83.5738 72.2847 83.7879 73.7462 84.1952C73.9744 84.2584 75.7098 85.0115 74.1026 85.7164C73.0141 86.1939 70.2772 85.9376 68.0328 86.2483C67.2832 86.3519 66.444 86.6819 65.6584 87.0734C64.613 86.452 63.7264 85.6453 63.1532 84.5121Z" fill="#C9614E"/>
<path d="M62.734 80.3206C63.3256 79.1936 64.3078 77.4722 65.0337 76.971C66.1423 76.2047 67.4055 74.4606 67.9813 75.1602C68.5571 75.8598 66.9438 77.9638 66.9438 77.9638L62.6875 81.007C62.7033 80.7806 62.7208 80.5515 62.734 80.3206Z" fill="#C9614E"/>
<path d="M68.2616 87.3941C69.7064 88.6967 70.8703 90.0484 71.6743 91.8356C71.8288 92.1805 71.3188 92.4825 71.1617 92.134C70.3805 90.3969 69.2464 89.0803 67.8428 87.8136C67.5584 87.5573 67.978 87.1386 68.2616 87.3941Z" fill="#5C554C"/>
<path d="M46.1713 96.4194C40.4877 93.5693 34.5777 91.2142 28.493 89.3709C28.1287 89.2612 28.2841 88.688 28.651 88.7995C34.7831 90.6577 40.7423 93.0356 46.4706 95.9077C46.8121 96.0788 46.5119 96.5897 46.1713 96.4194Z" fill="#5C554C"/>
<path d="M24.725 90.932C23.4224 91.6474 22.3708 92.6674 21.6203 93.9498C21.4272 94.279 20.9146 93.9814 21.1077 93.6505C21.9082 92.2855 23.0379 91.1822 24.4248 90.4203C24.7601 90.2359 25.0594 90.7477 24.725 90.932Z" fill="#5C554C"/>
<path d="M61.437 86.5407C58.3376 85.4206 55.1785 84.4876 51.9676 83.7423C51.5963 83.6563 51.7543 83.0849 52.1256 83.1709C55.3365 83.9161 58.4956 84.8492 61.595 85.9692C61.9505 86.0983 61.7978 86.6706 61.437 86.5407Z" fill="#5C554C"/>
<path d="M36.482 82.9589C36.3292 85.3429 34.1831 87.0677 31.7947 86.9957C30.5351 86.9571 29.1491 87.0309 28.0992 87.396C25.5783 88.272 22.8449 90.0065 21.4466 90.089C19.383 90.2101 20.8014 88.4906 21.0068 88.3019C22.3209 87.0923 24.4231 85.7361 24.4231 85.7361C24.4231 85.7361 20.1291 87.1906 18.8001 88.3844C17.4712 89.5781 15.8824 89.3236 16.4863 87.5013C17.0902 85.6791 21.4879 83.0914 22.9002 82.7043C22.9002 82.7043 20.0211 82.9176 18.1664 84.4748C16.3134 86.0311 15.4409 86.3392 14.4762 86.5121C13.5107 86.6841 13.3597 84.7214 16.0027 82.6157C18.6456 80.5099 20.1879 80.3659 21.8065 80.0596C21.8065 80.0596 20.4951 79.8015 18.2998 79.8516C16.1045 79.9016 14.1067 81.8713 12.9129 81.3227C11.6919 80.7618 14.0962 78.5946 15.9544 77.9924C17.8135 77.3903 19.1152 76.7943 21.6055 76.9856C24.0966 77.1761 26.4718 77.4447 27.9351 77.9178C29.3992 78.3901 34.8273 79.3855 36.1063 81.1972C36.4337 81.6571 36.5258 82.283 36.482 82.9589Z" fill="#C9614E"/>
<path d="M31.5781 79.122C31.5781 79.122 27.8564 76.2535 26.2843 76.0437C24.7122 75.8339 22.4511 74.6805 22.222 75.7233C21.992 76.7661 24.8114 78.1091 24.8114 78.1091L31.5781 79.122Z" fill="#C9614E"/>
<path d="M92.4954 305.161V310.584H96.4252V308.134C96.4252 307.444 96.9852 306.883 97.6761 306.883H114.505C115.086 306.883 115.557 307.354 115.557 307.935V310.584H120.126V307.935C120.126 307.354 120.597 306.883 121.178 306.883H137.878C138.569 306.883 139.13 307.444 139.13 308.134V310.584H143.059V305.161C143.059 303.942 142.07 302.955 140.851 302.955H120.126V233.059H115.557V302.955H94.7039C93.4838 302.956 92.4954 303.943 92.4954 305.161Z" fill="#1E51A4"/>
<path d="M114.391 270.499H121.271C121.729 270.499 122.102 270.127 122.102 269.67V240.143H113.561V269.67C113.56 270.127 113.931 270.499 114.391 270.499Z" fill="#273372"/>
<path d="M141.055 319.941C137.823 319.941 135.204 317.321 135.204 314.09C135.204 310.858 137.823 308.238 141.055 308.238C144.287 308.238 146.906 310.858 146.906 314.09C146.906 317.321 144.287 319.941 141.055 319.941Z" fill="#14130F"/>
<path d="M141.061 317.435C142.907 317.435 144.41 315.932 144.41 314.086C144.41 312.238 142.907 310.734 141.061 310.734C139.213 310.734 137.71 312.238 137.71 314.086C137.71 315.932 139.213 317.435 141.061 317.435Z" fill="#5C554C"/>
<path d="M117.767 319.939C114.536 319.939 111.916 317.32 111.916 314.089C111.916 310.858 114.536 308.238 117.767 308.238C120.998 308.238 123.617 310.858 123.617 314.089C123.617 317.32 120.998 319.939 117.767 319.939Z" fill="#14130F"/>
<path d="M117.771 317.435C119.617 317.435 121.121 315.932 121.121 314.086C121.121 312.238 119.617 310.734 117.771 310.734C115.923 310.734 114.42 312.238 114.42 314.086C114.42 315.932 115.923 317.435 117.771 317.435Z" fill="#5C554C"/>
<path d="M94.427 319.939C91.1959 319.939 88.5767 317.32 88.5767 314.089C88.5767 310.858 91.1959 308.238 94.427 308.238C97.658 308.238 100.277 310.858 100.277 314.089C100.277 317.32 97.658 319.939 94.427 319.939Z" fill="#14130F"/>
<path d="M94.4308 317.435C96.2776 317.435 97.7812 315.932 97.7812 314.086C97.7812 312.238 96.2776 310.734 94.4308 310.734C92.584 310.734 91.0803 312.238 91.0803 314.086C91.0795 315.932 92.5831 317.435 94.4308 317.435Z" fill="#5C554C"/>
<path d="M45.5535 132.921L70.3848 236.363C71.1862 239.701 74.1706 242.055 77.6044 242.055H135.885C140.701 242.055 144.243 237.539 143.095 232.86L117.703 129.417C116.888 126.098 113.912 123.764 110.493 123.764H52.7714C47.9709 123.765 44.4326 128.253 45.5535 132.921Z" fill="#273372"/>
<path d="M51.9793 132.923L76.8106 236.365C77.612 239.703 80.5964 242.057 84.0302 242.057H142.311C147.127 242.057 150.669 237.541 149.521 232.862L124.129 129.419C123.314 126.1 120.337 123.766 116.919 123.766H59.1972C54.3967 123.767 50.8584 128.255 51.9793 132.923Z" fill="#1E51A4"/>
<path d="M84.0218 237.021H142.302C143.31 237.021 143.909 236.449 144.176 236.109C144.444 235.767 144.855 235.051 144.615 234.071L119.223 130.628C118.961 129.56 118.01 128.814 116.91 128.814H59.1888C58.1837 128.814 57.5859 129.383 57.3191 129.721C57.0514 130.061 56.6388 130.775 56.8732 131.751L81.7045 235.195C81.9643 236.27 82.9158 237.021 84.0218 237.021ZM116.91 129.48C117.702 129.48 118.387 130.016 118.575 130.786L143.967 234.229C144.139 234.934 143.843 235.451 143.651 235.696C143.46 235.941 143.028 236.353 142.302 236.353H84.0218C83.2256 236.353 82.5401 235.813 82.3549 235.038L57.5236 131.595C57.3542 130.89 57.6518 130.376 57.8431 130.133C58.0362 129.89 58.4664 129.48 59.1896 129.48H116.91Z" fill="#273372"/>
<path d="M177.086 245.125H79.2012C75.3013 245.125 71.914 242.435 71.0301 238.635L69.7187 233H174.265L177.086 245.125Z" fill="#273372"/>
<path d="M175.737 245.125H85.4866C81.5858 245.125 78.1993 242.435 77.3145 238.635L76.004 233H175.736C178.555 233 181.001 234.942 181.64 237.689C182.525 241.49 179.639 245.125 175.737 245.125Z" fill="#1E51A4"/>
<path d="M131.133 132.388L131.81 135.084C132.037 135.966 132.263 136.845 132.503 137.72C132.979 139.471 133.463 141.22 133.97 142.961C134.994 146.447 136.058 149.927 137.242 153.401C138.42 156.878 139.67 160.355 141.137 163.86C141.87 165.614 142.651 167.38 143.539 169.182C144.439 170.993 145.406 172.812 146.809 174.832C147.166 175.339 147.556 175.864 148.015 176.416C148.48 176.972 148.992 177.547 149.691 178.186C150.028 178.497 150.438 178.837 150.896 179.171C151.362 179.509 151.922 179.866 152.597 180.2C153.272 180.533 154.093 180.857 155.089 181.06C155.586 181.161 156.114 181.23 156.671 181.251L156.877 181.258H157.023L157.311 181.253C157.509 181.249 157.68 181.237 157.861 181.224C159.285 181.102 160.349 180.772 161.227 180.441C162.111 180.1 162.813 179.737 163.45 179.371C164.708 178.643 165.68 177.913 166.575 177.189C168.34 175.741 169.757 174.297 171.107 172.849C172.446 171.402 173.683 169.948 174.872 168.487C176.059 167.025 177.195 165.555 178.301 164.076C179.41 162.6 180.468 161.101 181.466 159.567C182.467 158.035 183.415 156.473 184.303 154.873C184.748 154.074 185.174 153.263 185.585 152.441C185.792 152.031 185.987 151.611 186.184 151.192C186.283 150.983 186.381 150.772 186.473 150.556L186.76 149.894C187.894 147.277 186.693 144.235 184.075 143.102C182.169 142.276 180.037 142.688 178.582 143.985L178.361 144.184C178.062 144.454 177.732 144.767 177.427 145.071C177.116 145.376 176.801 145.681 176.496 145.993C175.883 146.616 175.276 147.241 174.68 147.874C173.485 149.137 172.317 150.416 171.168 151.694C170.017 152.973 168.888 154.259 167.767 155.533C166.642 156.803 165.504 158.048 164.354 159.246C163.204 160.442 162.042 161.597 160.883 162.656C159.73 163.71 158.554 164.689 157.514 165.403C157.004 165.755 156.518 166.039 156.224 166.162C156.084 166.22 155.986 166.243 156.037 166.203C156.086 166.176 156.282 166.07 156.823 166.011C156.895 166.004 156.956 166.002 157.042 165.995L157.164 165.992L157.351 165.993C157.687 166.006 157.995 166.043 158.276 166.1C158.838 166.213 159.243 166.375 159.524 166.508C159.806 166.639 159.988 166.76 160.102 166.832C160.209 166.898 160.276 166.955 160.296 166.959C160.348 166.991 160.279 166.897 160.193 166.76C160.102 166.619 159.979 166.422 159.846 166.193C159.578 165.73 159.277 165.144 158.981 164.516C158.682 163.883 158.378 163.206 158.085 162.498C157.497 161.082 156.935 159.568 156.403 158.017C155.342 154.909 154.357 151.664 153.432 148.379C152.518 145.089 151.632 141.762 150.805 138.41C150.387 136.736 149.973 135.059 149.576 133.379L148.979 130.864L148.413 128.397L148.381 128.253C147.285 123.478 142.527 120.495 137.753 121.589C132.979 122.684 129.996 127.443 131.09 132.217C131.102 132.257 131.124 132.345 131.133 132.388Z" fill="#F9AE90"/>
<path d="M142.453 114.535C142.453 114.535 147.188 118.518 148.991 125.612C151.039 133.671 156.191 149.033 156.191 149.033C156.191 149.033 142.122 157.84 136.062 157.621L142.453 114.535Z" fill="#047C6D"/>
<path d="M157.3 165.493C156.461 165.831 155.622 166.169 154.784 166.507C154.343 166.686 154.646 167.36 155.085 167.181C155.924 166.842 156.762 166.505 157.601 166.165C158.041 165.988 157.739 165.314 157.3 165.493Z" fill="#DF6A5D"/>
<path d="M158.84 164.978C157.734 166.061 157.075 167.468 156.92 169.006C156.868 169.515 156.079 169.429 156.131 168.92C156.307 167.167 157.079 165.595 158.334 164.366C158.699 164.008 159.202 164.624 158.84 164.978Z" fill="#DF6A5D"/>
<path d="M205.423 288.641L210.625 297.138L220.535 292.75L216.037 283.621L205.423 288.641Z" fill="#F8A48F"/>
<path d="M251.914 297.584L214.43 314.175C213.927 313.792 213.458 313.141 213.016 312.312C211.379 309.245 210.149 303.738 209.232 300.328C209.128 299.929 209.025 299.559 208.925 299.226C208.759 298.661 208.604 298.199 208.46 297.873C207.308 295.269 209.81 294.695 209.81 294.695C215.249 296.736 217.075 289.257 220.393 289.977C220.393 289.977 221.816 290.272 225.977 291.633C230.136 292.995 235.98 292.52 241.087 292.417C247.679 292.28 250.285 293.903 251.301 295.367C252.105 296.526 251.914 297.584 251.914 297.584Z" fill="#DD4D36"/>
<path d="M251.914 297.579L214.43 314.17C213.927 313.787 213.458 313.136 213.016 312.307L251.301 295.361C252.105 296.521 251.914 297.579 251.914 297.579Z" fill="#93211E"/>
<path d="M218.265 312.488L217.151 312.981C217.7 311.22 217.877 308.811 216.51 306.087C214.689 302.462 211.363 300.95 209.243 300.333C209.138 299.934 209.036 299.563 208.936 299.23C211.163 299.765 215.201 301.308 217.382 305.648C218.689 308.25 218.695 310.62 218.265 312.488Z" fill="#93211E"/>
<path d="M226.325 294.121C226.049 294.243 225.713 294.167 225.519 293.917C225.29 293.622 225.344 293.197 225.639 292.969L227.723 291.35C228.017 291.122 228.442 291.176 228.671 291.471C228.9 291.766 228.845 292.19 228.55 292.419L226.467 294.036C226.422 294.071 226.374 294.099 226.325 294.121Z" fill="white"/>
<path d="M223.13 293.206C222.854 293.329 222.519 293.252 222.324 293.002C222.095 292.709 222.149 292.284 222.443 292.056L224.528 290.437C224.822 290.207 225.247 290.262 225.476 290.557C225.704 290.852 225.65 291.275 225.355 291.505L223.272 293.122C223.227 293.156 223.179 293.185 223.13 293.206Z" fill="white"/>
<path d="M229.271 294.445C228.994 294.568 228.658 294.491 228.464 294.241C228.235 293.946 228.289 293.523 228.584 293.293L230.669 291.676C230.963 291.446 231.387 291.5 231.616 291.795C231.845 292.089 231.791 292.514 231.496 292.743L229.412 294.361C229.367 294.395 229.32 294.423 229.271 294.445Z" fill="white"/>
<path d="M232.189 294.722C231.912 294.844 231.576 294.769 231.382 294.519C231.153 294.224 231.207 293.799 231.502 293.571L233.587 291.952C233.881 291.724 234.305 291.777 234.534 292.072C234.763 292.367 234.709 292.79 234.414 293.02L232.33 294.637C232.287 294.672 232.238 294.699 232.189 294.722Z" fill="white"/>
<path d="M235.275 294.804C234.998 294.926 234.663 294.849 234.468 294.599C234.239 294.306 234.294 293.881 234.588 293.653L236.672 292.034C236.967 291.806 237.391 291.859 237.62 292.154C237.848 292.449 237.795 292.872 237.5 293.101L235.416 294.719C235.371 294.752 235.324 294.781 235.275 294.804Z" fill="white"/>
<path d="M238.502 294.61C238.225 294.732 237.89 294.656 237.695 294.406C237.466 294.111 237.519 293.686 237.814 293.458L239.899 291.839C240.193 291.609 240.618 291.665 240.846 291.96C241.075 292.255 241.022 292.678 240.727 292.908L238.643 294.525C238.598 294.558 238.55 294.587 238.502 294.61Z" fill="white"/>
<path d="M134.785 224.29C158.738 228.204 172.105 236.262 172.105 236.262C172.105 236.262 180.599 255.888 185.646 263.092C190.692 270.297 202.267 293.171 202.267 293.171L219.703 285.72C219.703 285.72 217.907 281.26 215.069 274.441C214.996 274.268 214.924 274.094 214.851 273.918C214.063 272.027 213.197 269.963 212.271 267.77C212.186 267.569 212.102 267.367 212.016 267.165C210.305 263.118 208.397 258.653 206.381 254.036C206.25 253.734 206.119 253.432 205.985 253.128C204.242 249.137 202.426 245.043 200.596 241.014C200.503 240.808 200.409 240.604 200.317 240.398C199.262 238.08 198.204 235.788 197.154 233.551C197.066 233.366 196.98 233.182 196.895 232.999C195.534 230.108 194.187 227.315 192.885 224.693C192.777 224.478 192.671 224.266 192.568 224.056C190.447 219.816 188.439 216.038 186.651 213.024C186.54 212.837 186.43 212.652 186.322 212.472C184.897 210.11 183.621 208.262 182.551 207.085C182.414 206.933 182.278 206.79 182.146 206.662C182.101 206.617 182.053 206.573 182 206.527C179.809 204.638 170.872 201.598 160.282 200.012C159.942 199.96 159.603 199.913 159.26 199.865H159.257C150.579 198.656 140.919 198.459 133 200.671C130.91 204.691 128.255 214.871 134.785 224.29Z" fill="#14130F"/>
<path d="M200.397 288.858C200.462 288.858 200.526 288.844 200.59 288.819L217.655 281.724C217.911 281.618 218.033 281.325 217.926 281.07C217.82 280.812 217.527 280.692 217.271 280.798L200.205 287.893C199.95 287.999 199.828 288.292 199.935 288.547C200.015 288.741 200.202 288.858 200.397 288.858Z" fill="#5C554C"/>
<path d="M203.268 287.422C203.329 287.422 203.391 287.41 203.452 287.386C203.71 287.285 203.837 286.993 203.734 286.735C203.699 286.647 200.128 277.737 191.799 265.099C183.526 252.544 174.876 231.325 174.789 231.111C174.685 230.856 174.392 230.732 174.135 230.835C173.878 230.94 173.754 231.233 173.86 231.49C173.947 231.703 182.633 253.014 190.96 265.651C199.233 278.206 202.766 287.018 202.8 287.105C202.879 287.302 203.068 287.422 203.268 287.422Z" fill="#5C554C"/>
<path d="M84.2528 201.816C84.2686 201.828 84.2818 201.838 84.2994 201.845C84.3038 201.848 84.3081 201.852 84.3134 201.854C84.3415 201.869 84.3661 201.886 84.388 201.9C84.4205 201.918 84.4468 201.933 84.4732 201.952C84.4872 201.957 84.4995 201.966 84.5065 201.97C84.5346 201.988 84.5574 202.001 84.5785 202.013C84.5925 202.02 84.6075 202.032 84.6206 202.037C84.6162 202.034 84.6118 202.028 84.6075 202.027C84.6575 202.052 84.6909 202.075 84.6987 202.077C84.7146 202.087 84.7339 202.095 84.7541 202.106C84.9542 202.222 85.2632 202.395 85.4405 202.496C85.4598 202.505 85.4756 202.514 85.4914 202.522C87.2188 203.478 88.9937 204.324 90.8089 205.059C92.8892 205.908 95.0205 206.617 97.1754 207.198C97.5748 207.307 97.9759 207.408 98.3797 207.511C98.4104 207.518 98.4412 207.523 98.4763 207.533C99.8105 207.862 101.149 208.139 102.496 208.368C102.999 208.454 103.503 208.533 104.013 208.607C105.825 208.873 107.645 209.055 109.45 209.158C109.67 209.173 109.889 209.183 110.108 209.19C112.139 209.289 114.151 209.284 116.13 209.192C116.342 209.181 116.556 209.172 116.766 209.159C116.804 209.158 116.839 209.156 116.874 209.152H116.876C117.204 209.134 117.528 209.113 117.853 209.086C118.928 209.01 119.988 208.899 121.037 208.765C121.404 208.726 121.765 208.674 122.125 208.618C126.075 208.044 129.799 207.104 133.132 205.856C133.376 205.764 133.618 205.671 133.858 205.577C134.034 205.509 134.206 205.442 134.379 205.368C134.421 205.351 134.46 205.336 134.504 205.318C135.606 204.862 136.661 204.369 137.66 203.845C137.706 203.822 137.754 203.797 137.798 203.775C139.12 203.074 140.341 202.318 141.449 201.51C141.354 199.786 141.23 197.956 141.099 196.167V196.165C141.068 195.774 141.042 195.386 141.013 195.003C140.931 193.916 140.85 192.86 140.767 191.871C140.77 191.867 140.767 191.86 140.767 191.857C140.567 189.779 140.387 187.624 140.221 185.479C140.217 185.436 140.214 185.41 140.214 185.41C140.157 184.706 140.107 184.006 140.054 183.308C140.021 182.873 139.99 182.446 139.962 182.017V182.015C139.67 177.909 139.439 174.009 139.288 170.93L139.29 170.928C139.272 170.575 139.255 170.237 139.239 169.908C139.204 169.156 139.174 168.464 139.149 167.842C139.093 166.501 139.058 165.198 139.035 163.928C139.009 162.685 139.002 161.476 139.006 160.3C139.011 158.958 139.033 157.649 139.072 156.388C139.084 155.709 139.112 155.042 139.136 154.386C139.136 154.384 139.136 154.384 139.136 154.384C139.149 154.082 139.162 153.78 139.178 153.482C139.191 153.205 139.203 152.925 139.222 152.651C139.222 152.651 139.222 152.651 139.219 152.649C139.223 152.583 139.226 152.518 139.23 152.452C139.246 152.141 139.265 151.833 139.286 151.531C139.347 150.504 139.422 149.508 139.498 148.536C139.681 146.364 139.904 144.332 140.156 142.436C140.198 142.104 140.245 141.775 140.288 141.451C140.749 138.17 141.289 135.306 141.829 132.809C141.89 132.511 141.951 132.219 142.017 131.93C143.218 126.515 144.357 122.89 144.529 120.395C144.558 119.954 144.56 119.543 144.521 119.168C144.46 118.497 144.339 117.887 144.163 117.331C143.988 116.785 143.764 116.291 143.492 115.842C142.541 114.271 141.04 113.287 139.301 112.471C139.1 112.377 138.901 112.287 138.695 112.196C138.146 111.955 137.578 111.728 137.001 111.499C136.797 111.417 136.59 111.333 136.38 111.253C135.741 111 135.093 110.741 134.449 110.461C134.442 110.458 134.438 110.457 134.431 110.457C133.944 110.242 133.459 110.012 132.983 109.769C132.78 109.665 132.579 109.557 132.379 109.447C132.188 109.337 131.995 109.233 131.811 109.116C131.573 108.967 131.329 108.808 131.094 108.647C129.85 107.786 128.72 106.697 127.816 105.24C127.807 105.231 127.8 105.222 127.792 105.206C127.684 105.035 127.581 104.853 127.479 104.666L112.253 103.104C112.253 103.104 111.284 103.738 109.57 104.477C109.376 104.565 109.172 104.648 108.959 104.738C108.837 104.787 108.714 104.832 108.586 104.885C108.448 104.941 108.306 104.991 108.158 105.046C108.079 105.074 107.99 105.105 107.906 105.136C107.369 105.325 106.776 105.512 106.135 105.687C105.889 105.753 105.634 105.818 105.371 105.883C105.163 105.933 104.951 105.982 104.732 106.025C104.612 106.054 104.489 106.078 104.366 106.102C104.168 106.144 103.974 106.181 103.764 106.22C103.354 106.293 102.928 106.361 102.487 106.416C102.257 106.449 102.024 106.476 101.789 106.502C101.259 106.561 100.708 106.605 100.137 106.636C99.0328 106.695 97.9865 106.921 96.9963 107.308C96.7866 107.389 96.5794 107.477 96.3731 107.574C95.6779 107.896 95.0108 108.304 94.3771 108.791C94.0295 109.057 93.695 109.347 93.3676 109.662H93.3659C93.3167 109.709 93.2711 109.754 93.2254 109.801C93.0824 109.939 92.9445 110.082 92.8058 110.231C92.6075 110.443 92.4152 110.665 92.2239 110.896C91.7569 111.463 91.311 112.085 90.8879 112.763C90.7457 112.992 90.6079 113.224 90.471 113.463C90.3499 113.674 90.2322 113.889 90.1181 114.111C90.0216 114.288 89.9294 114.471 89.8399 114.654C88.7233 116.908 87.8157 119.607 87.1293 122.713C87.1267 122.716 87.1267 122.717 87.1267 122.719C86.9257 123.635 86.7413 124.583 86.5763 125.568C86.1304 128.254 85.6854 130.869 85.257 133.424C85.2061 133.715 85.1587 134.01 85.1078 134.3C84.9472 135.267 84.7874 136.228 84.6294 137.18C84.3442 138.945 84.0633 140.687 83.7999 142.41C83.7499 142.765 83.6928 143.118 83.6402 143.478C83.5208 144.275 83.4251 144.996 83.3435 145.68C83.1328 147.427 83.0073 148.937 82.7861 150.921C82.7852 150.919 79.5462 190.614 84.2528 201.816Z" fill="#047C6D"/>
<path d="M85.7788 179.59C85.7859 179.815 85.7929 180.04 85.7982 180.266C85.9632 185.464 86.3626 190.81 87.0709 196.193C87.099 196.415 87.128 196.634 87.1596 196.857C87.3457 198.229 87.5537 199.604 87.7828 200.976C87.8065 201.122 87.925 201.227 88.0654 201.242C88.0935 201.246 88.1216 201.246 88.1515 201.239C88.327 201.21 88.4429 201.045 88.4148 200.872C88.1866 199.496 87.9777 198.12 87.7916 196.747C87.7608 196.524 87.7328 196.303 87.7029 196.082C87.0007 190.745 86.6039 185.448 86.4398 180.294C86.4328 180.07 86.4267 179.845 86.4205 179.62C85.591 150.131 92.2533 125.471 92.3367 125.168C92.3823 124.997 92.2814 124.821 92.1128 124.775C91.9347 124.723 91.7652 124.829 91.7178 124.997C91.6336 125.299 84.9537 150.015 85.7788 179.59Z" fill="#083D3B"/>
<path d="M136.66 88.286C136.66 88.286 139.823 89.0848 140.864 86.7359C141.907 84.3861 139.303 82.2592 142.777 80.0613C146.251 77.8633 149.699 72.6248 146.131 69.2805C142.562 65.9344 140.677 70.6489 137.856 66.5199C135.034 62.3926 133.646 61.8976 129.446 61.3068C125.342 60.7275 123.847 64.501 119.539 63.8409C115.231 63.1809 111.843 68.0288 112.73 70.907C113.976 74.9491 114.152 74.3198 113.622 77.6492C113.091 80.9785 115.33 83.6663 117.911 83.5768C120.491 83.4863 136.66 88.286 136.66 88.286Z" fill="#14130F"/>
<path d="M112.197 102.067C112.485 104.821 116.19 108.497 118.372 109.481C121.767 111.011 125.421 111.047 128.434 109.855L129.453 104.583L129.661 103.508L130.055 101.468L118.824 90.6459L118.177 90.0209L117.74 89.5996L117.484 90.0297L117.193 90.5257L117.216 90.7618C115.319 95.7063 114.784 98.739 112.197 102.067Z" fill="#F8A48F"/>
<path d="M128.806 108.191C123.896 105.991 121.777 101.516 121.051 98.7891C123.195 101.313 125.984 103.221 128.785 103.476C129.087 103.504 129.38 103.514 129.664 103.506L128.806 108.191Z" fill="#14130F"/>
<path d="M138.814 87.1738C138.814 87.1738 140.347 87.6118 140.262 89.6597C140.178 91.7084 138.536 94.8359 136.6 94.0398C134.665 93.2427 138.814 87.1738 138.814 87.1738Z" fill="#DF6A5D"/>
<path d="M116.85 91.1944C116.852 91.1961 116.852 91.1961 116.852 91.1961C116.878 91.2031 116.902 91.2119 116.926 91.2172C116.941 91.3962 116.961 91.5771 116.985 91.7579C116.995 91.8386 117.005 91.9168 117.019 91.9958C117.071 92.3249 117.143 92.6585 117.229 92.9955C118.584 98.2209 123.981 104.154 129.207 104.436C129.515 104.451 129.811 104.45 130.099 104.434C135.228 104.134 137.467 98.7458 137.646 94.4079C137.653 94.2446 137.658 94.0831 137.658 93.9225C137.658 93.9225 137.718 93.6328 137.833 93.1307C137.924 92.7296 138.051 92.1854 138.206 91.5428C138.672 89.6223 139.406 86.795 140.299 84.0353C141.864 79.197 139.833 71.3128 130.027 67.8316C122.213 65.0587 117.418 68.8033 115.494 73.1044C115.003 74.2007 114.701 75.3321 114.58 76.4013C114.43 77.7197 114.501 79.2795 114.694 80.8797C113.725 80.7857 112.612 81.1333 111.774 82.7256C110.227 85.6688 113.322 90.2174 116.85 91.1944Z" fill="#F8A48F"/>
<path d="M114.687 80.8818C116.377 82.3293 117.511 82.6769 117.511 82.6769L119.256 85.5481L121.774 84.4307C121.774 84.4307 121.158 81.2628 122.852 80.5149C124.547 79.7662 124.077 77.6973 124.077 77.6973C124.077 77.6973 118.027 73.2698 115.487 73.1074C114.996 74.2038 114.694 75.3352 114.573 76.4043C114.423 77.7219 114.494 79.2817 114.687 80.8818Z" fill="#14130F"/>
<path d="M141.164 78.2858C141.164 78.2858 134.852 72.345 130.468 73.4625C126.087 74.579 124.076 77.6986 124.076 77.6986C124.076 77.6986 116.039 77.9005 114.539 75.6235C113.038 73.3457 116.672 65.7969 122.901 65.2404C129.131 64.6839 137.743 68.0115 141.164 78.2858Z" fill="#14130F"/>
<path d="M136.335 86.9613C136.695 87.0677 136.821 87.7158 136.617 88.4091C136.412 89.1023 135.954 89.5781 135.594 89.4718C135.234 89.3655 135.107 88.7173 135.312 88.0241C135.516 87.3308 135.974 86.855 136.335 86.9613Z" fill="#14130F"/>
<path d="M134.58 87.31C134.547 87.2898 134.519 87.2583 134.502 87.2205C134.462 87.1231 134.507 87.0107 134.605 86.9695C134.686 86.9361 136.617 86.147 137.89 87.5146C137.962 87.5927 137.958 87.7129 137.88 87.7849C137.803 87.8569 137.682 87.8525 137.61 87.7761C136.516 86.6017 134.77 87.3153 134.752 87.3223C134.694 87.3478 134.631 87.3408 134.58 87.31Z" fill="#14130F"/>
<g opacity="0.5">
<path d="M126.088 88.5303C127.523 88.8771 128.595 89.5363 128.482 90.0028C128.369 90.4693 127.115 90.5664 125.68 90.2196C124.245 89.8729 123.173 89.2136 123.286 88.7471C123.399 88.2806 124.653 88.1836 126.088 88.5303Z" fill="#DF6A5D"/>
</g>
<g opacity="0.5">
<path d="M137.821 93.129C136.851 92.7709 136.212 92.2872 136.3 91.9203C136.391 91.5561 137.172 91.4174 138.195 91.5394C138.04 92.1837 137.914 92.727 137.821 93.129Z" fill="#DF6A5D"/>
</g>
<path d="M119.565 91.2242C119.272 91.5121 118.949 91.7026 118.626 91.8272C118.036 92.0528 117.438 92.0563 117.002 92.0045C116.989 91.9255 116.979 91.8448 116.969 91.7675C116.944 91.5841 116.923 91.4042 116.911 91.2242C116.887 91.2172 116.86 91.2102 116.836 91.204C116.947 91.2242 117.087 91.2444 117.246 91.2541C117.454 91.2699 117.696 91.2663 117.946 91.2198C118.315 91.1531 118.702 90.9969 119.03 90.6774C119.182 90.529 119.425 90.5325 119.571 90.6852C119.718 90.8362 119.716 91.0776 119.565 91.2242Z" fill="#DF6A5D"/>
<path d="M130.087 104.433C129.8 104.45 129.503 104.45 129.196 104.434C123.971 104.151 118.572 98.2184 117.218 92.9939C117.435 92.4128 117.852 91.9142 118.631 91.8177L119.251 85.5451L121.77 84.4277C121.77 84.4277 122.557 90.3009 124.434 90.9513C126.311 91.6018 130.841 91.7914 132.51 93.2643C132.51 93.2643 135.866 92.7885 137.633 94.4089C137.456 98.7416 135.218 104.134 130.087 104.433Z" fill="#14130F"/>
<path d="M128.783 92.8262C128.783 92.8262 128.116 96.1573 130.833 97.0351C133.549 97.9129 134.543 95.2813 134.543 95.2813L128.783 92.8262Z" fill="white"/>
<path d="M129.942 98.128C129.435 97.8805 129.244 97.4293 129.232 97.403C129.179 97.2722 129.242 97.1221 129.373 97.0685C129.503 97.0141 129.652 97.0764 129.706 97.2063C129.719 97.2353 129.973 97.7971 130.721 97.7751C130.862 97.7699 130.981 97.8813 130.984 98.0235C130.989 98.1649 130.877 98.2825 130.736 98.2878C130.412 98.2974 130.15 98.2298 129.942 98.128Z" fill="#605F77"/>
<path d="M116.578 88.4807C116.435 88.4175 116.34 88.2709 116.351 88.1059C116.53 85.3953 113.742 83.4748 113.713 83.4546C113.539 83.3361 113.492 83.0991 113.611 82.9244C113.729 82.7497 113.966 82.7032 114.141 82.8208C114.271 82.9086 117.323 85.003 117.115 88.1559C117.1 88.3666 116.918 88.5263 116.708 88.5123C116.662 88.5088 116.618 88.4991 116.578 88.4807Z" fill="#DF6A5D"/>
<path d="M113.71 86.2013C113.666 86.182 113.624 86.153 113.589 86.1171C113.443 85.9643 113.447 85.7221 113.6 85.5755C113.641 85.536 114.636 84.6003 116.123 85.0532C116.324 85.1155 116.439 85.3279 116.378 85.5307C116.317 85.7335 116.103 85.8467 115.9 85.7852C114.837 85.4622 114.137 86.1206 114.13 86.1267C114.014 86.2382 113.847 86.2636 113.71 86.2013Z" fill="#DF6A5D"/>
<path d="M132.957 92.4632C132.872 92.4255 132.801 92.3579 132.761 92.2657C132.676 92.0709 132.766 91.8462 132.96 91.7628L135.307 90.7428L133.648 89.7843C133.551 89.7281 133.483 89.6315 133.463 89.5218L132.572 84.7248C132.533 84.5168 132.67 84.3166 132.879 84.278C133.086 84.2394 133.286 84.3763 133.325 84.5843L134.183 89.2093L136.348 90.4601C136.473 90.5321 136.547 90.6682 136.538 90.813C136.53 90.957 136.442 91.0843 136.308 91.1422L133.265 92.4641C133.163 92.5089 133.052 92.5054 132.957 92.4632Z" fill="#DF6A5D"/>
<path d="M127.709 83.2382C127.557 83.1715 127.42 83.0671 127.31 82.9275C126.951 82.4702 127.029 81.8092 127.485 81.4493C127.594 81.3633 130.178 79.3717 132.835 80.9876C133.331 81.2905 133.489 81.9374 133.187 82.4333C132.884 82.9302 132.238 83.0864 131.741 82.7853C130.317 81.9198 128.803 83.0899 128.788 83.1013C128.47 83.3532 128.053 83.391 127.709 83.2382Z" fill="#14130F"/>
<path d="M138.368 85.7145C138.088 85.5899 137.864 85.345 137.778 85.0264C137.546 84.1661 136.115 83.8194 135.745 83.7729C135.17 83.7009 134.759 83.176 134.83 82.5984C134.901 82.0226 135.427 81.6127 136.004 81.6838C137.177 81.8286 139.3 82.5809 139.811 84.4795C139.962 85.0404 139.63 85.618 139.069 85.769C138.826 85.833 138.581 85.8085 138.368 85.7145Z" fill="#14130F"/>
<path d="M130.279 85.2341C130.639 85.3402 130.766 85.9887 130.562 86.6826C130.357 87.3764 129.9 87.8529 129.539 87.7468C129.179 87.6407 129.052 86.9922 129.257 86.2984C129.461 85.6045 129.919 85.128 130.279 85.2341Z" fill="#14130F"/>
<path d="M127.996 85.7521C127.961 85.7354 127.929 85.7091 127.908 85.6722C127.855 85.5809 127.887 85.4642 127.978 85.4106C128.055 85.3659 129.869 84.3406 131.306 85.5362C131.388 85.6046 131.398 85.7249 131.331 85.8065C131.263 85.8882 131.143 85.8987 131.061 85.8311C129.827 84.8041 128.186 85.7337 128.169 85.7424C128.115 85.774 128.051 85.7758 127.996 85.7521Z" fill="#14130F"/>
<path d="M137.863 124.822C138.667 127.741 140.058 130.398 141.822 132.808C141.884 132.508 141.949 132.215 142.012 131.927C140.562 129.853 139.396 127.598 138.652 125.144C137.409 121.036 137.542 116.379 139.296 112.468C139.097 112.374 138.896 112.283 138.692 112.195C136.943 116.088 136.726 120.688 137.863 124.822Z" fill="#11A88E"/>
<path d="M90.4633 113.457C92.3145 117.407 95.263 120.838 98.8908 123.257L98.8899 123.259C99.4315 123.617 99.9836 123.954 100.55 124.265C106.011 127.283 112.319 127.956 118.345 129.119C124.395 130.287 130.02 132.247 134.747 136.313C136.823 138.094 138.642 140.161 140.15 142.433C140.193 142.1 140.238 141.771 140.281 141.447C138.883 139.446 137.243 137.609 135.396 135.986C131.187 132.292 126.168 130.145 120.74 128.93C114.521 127.537 107.972 127.105 102.144 124.334C100.91 123.747 99.7343 123.047 98.631 122.255C95.2744 119.843 92.5691 116.541 90.882 112.758C90.7398 112.986 90.6003 113.219 90.4633 113.457Z" fill="#11A88E"/>
<path d="M142.311 127.345C142.265 127.563 141.908 129.302 141.45 131.769C141.383 132.132 141.315 132.509 141.244 132.9C140.535 136.824 139.681 142.07 139.364 146.099C139.336 146.464 139.797 146.649 140.028 146.365L140.036 146.356C140.338 142.334 141.217 136.945 141.934 132.955C141.941 132.933 141.946 132.909 141.946 132.885C142.509 129.787 142.967 127.546 142.981 127.487C143.02 127.3 142.902 127.118 142.716 127.082C142.53 127.042 142.349 127.162 142.311 127.345Z" fill="#083D3B"/>
<path d="M118.691 123.009C118.691 123.009 119.945 118.033 120.066 114.158C120.187 110.285 119.58 107.675 119.58 107.675C119.58 107.675 114.523 104.774 113.104 100.916C113.104 100.916 107.217 101.687 106.124 105.688C106.124 105.688 111.998 119.531 118.691 123.009Z" fill="#083D3B"/>
<path d="M129.241 105.613C129.241 105.613 132.846 105.543 132.385 110.394C131.469 120.033 124.91 122.07 124.91 122.07L124.077 116.98C123.632 113.483 123.787 111.5 123.958 109.372C123.958 109.372 128.761 109.564 129.241 105.613Z" fill="#083D3B"/>
<path d="M122.088 117.132C121.519 117.132 121.058 116.671 121.058 116.102C121.058 115.533 121.519 115.072 122.088 115.072C122.656 115.072 123.117 115.533 123.117 116.102C123.117 116.671 122.656 117.132 122.088 117.132Z" fill="#083D3B"/>
<path d="M122.017 121.241C121.449 121.241 120.988 120.78 120.988 120.211C120.988 119.643 121.449 119.182 122.017 119.182C122.586 119.182 123.047 119.643 123.047 120.211C123.047 120.78 122.586 121.241 122.017 121.241Z" fill="#083D3B"/>
<path d="M121.783 124.926C121.214 124.926 120.753 124.465 120.753 123.897C120.753 123.328 121.214 122.867 121.783 122.867C122.352 122.867 122.812 123.328 122.812 123.897C122.812 124.465 122.352 124.926 121.783 124.926Z" fill="#083D3B"/>
<path d="M118.249 147.265C118.38 149.801 121.013 151.844 122.615 153.517C128.169 159.32 133.722 165.124 139.277 170.925C139.26 170.572 139.243 170.233 139.227 169.905C138.233 168.866 137.238 167.827 136.246 166.79C132.285 162.653 128.327 158.518 124.37 154.381C123.341 153.307 122.31 152.236 121.284 151.158C120.477 150.311 119.653 149.42 119.198 148.323C118.557 146.772 119.226 145.25 120.949 145.02C122.01 144.88 123.094 145.164 124.098 145.475C129.581 147.169 134.698 149.914 139.167 153.481C139.18 153.202 139.192 152.924 139.21 152.648C139.21 152.648 139.21 152.648 139.207 152.646C137.765 151.52 136.257 150.477 134.689 149.526C132.587 148.252 130.388 147.138 128.114 146.204C126.019 145.344 123.538 144.203 121.219 144.328C119.575 144.417 118.156 145.5 118.249 147.265Z" fill="#11A88E"/>
<path d="M96.8442 125.651C101.318 127.849 105.734 130.654 108.425 134.973C110.822 138.819 111.722 143.801 109.488 147.927C108.57 149.625 107.211 151.08 105.527 152.033C103.743 153.045 101.847 153.161 99.8426 153.145C97.5429 153.126 94.411 153.172 94.023 156.107C93.7096 158.473 95.2027 160.741 95.2282 163.102C95.273 167.27 90.418 170.299 86.6629 168.658C86.2679 168.485 86.5084 167.858 86.906 168.031C88.8968 168.902 91.1597 168.348 92.7564 166.93C94.4794 165.399 94.7875 163.41 94.2925 161.245C93.8685 159.393 92.9486 157.383 93.4683 155.458C93.8422 154.077 94.9341 153.127 96.2903 152.75C98.1275 152.237 100.077 152.597 101.95 152.439C104.073 152.261 105.995 151.232 107.43 149.672C110.673 146.145 110.717 141.095 108.734 136.927C106.326 131.867 101.473 128.671 96.5992 126.276C96.2157 126.088 96.4544 125.46 96.8442 125.651Z" fill="#11A88E"/>
<path d="M85.7637 179.593C85.7707 179.818 85.7778 180.042 85.783 180.269C85.9981 180.281 86.2114 180.293 86.4238 180.296C87.6659 180.33 88.9123 180.222 90.1324 179.972C92.505 179.487 94.7802 178.454 96.6297 176.88C98.9408 174.91 100.554 172.29 102.184 169.764C103.861 167.166 105.669 164.531 108.289 162.792C111.353 160.761 114.802 160.813 118.06 162.394C121.115 163.878 123.856 166.155 126.433 168.337C128.917 170.442 131.265 172.702 133.468 175.099C135.845 177.686 138.041 180.432 140.047 183.309C140.014 182.874 139.984 182.448 139.956 182.018V182.017C137.754 178.953 135.336 176.045 132.716 173.321C130.549 171.071 128.248 168.947 125.83 166.965C123.346 164.928 120.727 162.824 117.763 161.52C115.055 160.331 112.095 160.114 109.38 161.399C106.872 162.591 104.889 164.698 103.287 166.921C101.452 169.465 99.9792 172.271 97.9147 174.65C95.9748 176.888 93.4864 178.475 90.6011 179.181C89.2292 179.519 87.8133 179.667 86.4054 179.624C86.1895 179.617 85.977 179.608 85.7637 179.593Z" fill="#11A88E"/>
<path d="M84.7497 202.103C84.9499 202.218 85.2597 202.39 85.4379 202.493C90.7072 199.649 96.805 198.104 102.598 200.347C105.612 201.514 108.977 204.011 109.476 207.439C109.566 208.053 109.55 208.624 109.448 209.155C109.667 209.171 109.886 209.183 110.107 209.19C110.583 206.656 109.155 204.204 107.35 202.514C105.251 200.548 102.536 199.358 99.7236 198.861C94.4658 197.935 89.3141 199.555 84.7497 202.103Z" fill="#11A88E"/>
<path d="M116.126 209.192C116.338 209.183 116.551 209.172 116.762 209.16C116.799 209.156 116.835 209.156 116.871 209.153C115.263 206.003 113.791 201.971 114.854 198.607C115.578 196.315 117.714 195.114 120.057 195.26C122.345 195.402 124.431 196.656 126.273 197.924C129.257 199.987 131.822 202.599 133.856 205.574C134.03 205.507 134.203 205.439 134.374 205.368C134.417 205.351 134.457 205.334 134.5 205.317C134.25 204.948 133.992 204.586 133.727 204.228C131.105 200.699 127.609 197.47 123.607 195.571C119.963 193.844 115.13 194.396 114.083 198.911C113.309 202.252 114.531 206.024 116.126 209.192Z" fill="#11A88E"/>
<path d="M87.0573 196.194C87.0853 196.415 87.1143 196.634 87.1459 196.857C87.3557 196.823 87.5663 196.787 87.7779 196.748C88.495 196.614 89.2086 196.442 89.9109 196.233C95.5181 194.584 99.4874 190.517 103.648 186.646C105.724 184.714 107.899 182.808 110.442 181.515C113.476 179.972 116.83 179.603 120.137 180.426C123.797 181.335 127.079 183.367 130.088 185.587C132.78 187.572 135.304 189.789 137.622 192.204C138.838 193.475 139.997 194.796 141.094 196.163C141.065 195.772 141.037 195.385 141.008 195.001C139.672 193.382 138.246 191.837 136.742 190.369C132.101 185.836 126.345 181.109 119.868 179.674C113.748 178.318 108.666 181.219 104.257 185.18C99.7481 189.231 95.6691 193.881 89.6361 195.62C88.9936 195.803 88.3432 195.959 87.6892 196.082C87.4795 196.124 87.2714 196.16 87.0573 196.194Z" fill="#11A88E"/>
<path d="M162.136 290.295L163.925 303.706H174.762L174.248 291.214L162.136 290.295Z" fill="#F8A48F"/>
<path d="M201.472 320.897L160.481 320.742C160.178 320.188 160.015 319.402 159.95 318.463C159.708 314.997 160.834 309.466 161.388 305.979C161.456 305.572 161.514 305.192 161.559 304.847C161.636 304.265 161.685 303.779 161.686 303.423C161.697 300.575 164.216 301.072 164.216 301.072C168.348 305.155 173.068 299.073 175.803 301.084C175.803 301.084 176.981 301.937 180.224 304.876C183.466 307.817 188.995 309.769 193.699 311.758C199.773 314.323 201.488 316.87 201.818 318.62C202.077 320.008 201.472 320.897 201.472 320.897Z" fill="#DD4D36"/>
<path d="M201.509 320.822H160.518C160.213 320.268 160.048 319.483 159.979 318.545H201.846C202.112 319.932 201.509 320.822 201.509 320.822Z" fill="#93211E"/>
<path d="M164.704 320.826H163.487C164.702 319.437 165.839 317.308 165.69 314.263C165.492 310.212 163.062 307.482 161.373 306.059C161.439 305.651 161.496 305.271 161.539 304.926C163.36 306.318 166.427 309.363 166.665 314.213C166.809 317.122 165.853 319.291 164.704 320.826Z" fill="#93211E"/>
<path d="M179.513 307.294C179.209 307.294 178.933 307.089 178.857 306.782C178.767 306.418 178.988 306.053 179.35 305.962L181.912 305.327C182.273 305.236 182.639 305.457 182.73 305.82C182.82 306.182 182.6 306.548 182.236 306.638L179.676 307.274C179.621 307.287 179.565 307.294 179.513 307.294Z" fill="white"/>
<path d="M176.961 305.163C176.657 305.163 176.383 304.958 176.306 304.651C176.216 304.289 176.436 303.922 176.8 303.833L179.36 303.196C179.722 303.105 180.089 303.326 180.179 303.689C180.269 304.052 180.048 304.417 179.686 304.509L177.125 305.143C177.07 305.158 177.015 305.163 176.961 305.163Z" fill="white"/>
<path d="M182.067 308.792C181.763 308.792 181.489 308.587 181.412 308.28C181.322 307.918 181.542 307.551 181.906 307.462L184.466 306.825C184.828 306.734 185.195 306.955 185.284 307.318C185.375 307.679 185.154 308.046 184.791 308.136L182.23 308.772C182.176 308.785 182.121 308.792 182.067 308.792Z" fill="white"/>
<path d="M184.625 310.223C184.321 310.223 184.047 310.018 183.97 309.709C183.88 309.347 184.1 308.98 184.464 308.891L187.024 308.254C187.387 308.165 187.753 308.386 187.843 308.748C187.933 309.111 187.712 309.477 187.35 309.567L184.788 310.203C184.734 310.216 184.679 310.223 184.625 310.223Z" fill="white"/>
<path d="M187.426 311.542C187.123 311.542 186.847 311.338 186.771 311.029C186.681 310.668 186.901 310.301 187.264 310.211L189.825 309.575C190.187 309.485 190.553 309.705 190.644 310.069C190.734 310.43 190.513 310.797 190.151 310.887L187.59 311.523C187.535 311.536 187.48 311.542 187.426 311.542Z" fill="white"/>
<path d="M190.453 312.668C190.15 312.668 189.875 312.463 189.798 312.154C189.708 311.792 189.929 311.427 190.292 311.336L192.852 310.7C193.215 310.61 193.581 310.831 193.671 311.194C193.762 311.556 193.541 311.922 193.178 312.012L190.617 312.648C190.563 312.661 190.508 312.668 190.453 312.668Z" fill="white"/>
<path d="M119.116 234.867C142.343 234.867 153.382 232.624 153.382 232.624C153.382 232.624 153.94 253.135 155.021 261.786C156.1 270.439 160.743 295.372 160.743 295.372L178.24 296.262C178.24 296.262 178.403 291.884 178.502 285.108V285.104C178.507 284.871 178.509 284.638 178.514 284.398C178.541 282.441 178.563 280.299 178.57 278.016V278.014C178.573 277.702 178.574 277.39 178.574 277.073C178.595 270.813 178.532 263.581 178.286 256.24V256.238C178.273 255.869 178.261 255.497 178.246 255.129V255.127C178.127 251.84 177.97 248.544 177.769 245.312C177.752 245.049 177.735 244.785 177.718 244.523C177.582 242.442 177.425 240.395 177.247 238.395C177.23 238.188 177.211 237.976 177.192 237.771C176.274 227.754 174.788 219.093 172.422 214.479C172.321 214.281 172.219 214.094 172.112 213.912C171.455 212.759 170.73 211.91 169.934 211.417C164.892 208.309 158.856 206.557 151.222 205.326C150.918 205.278 150.614 205.231 150.306 205.181C145.504 204.447 140.082 203.9 133.894 203.344C133.673 203.323 133.454 203.303 133.234 203.283H133.232C129.395 202.942 125.266 202.592 120.815 202.191C120.601 202.173 120.385 202.153 120.169 202.131C118.47 201.979 116.722 201.816 114.926 201.644C114.926 201.644 108.547 200.565 101.466 200.063C101.218 200.045 100.968 200.027 100.717 200.012C94.03 199.581 86.8964 199.713 84.0147 201.779C84.0129 201.778 75.6275 234.867 119.116 234.867Z" fill="#14130F"/>
<path d="M88.0768 201.437C88.1136 201.164 88.3621 200.973 88.6368 201.011C88.9089 201.047 89.0994 201.299 89.0625 201.57C89.0467 201.683 87.6212 212.891 93.8358 220.875C97.2995 225.326 102.487 227.977 109.254 228.753C122.878 230.315 135.514 228.971 143.876 228.083C150.624 227.365 154.696 226.932 156.068 228.144C157.316 229.247 157.789 235.552 158.585 247.536C159.385 259.593 161.316 278.985 163.797 289.534C163.486 289.659 162.958 289.241 162.641 289.35C160.117 278.714 158.399 259.749 157.593 247.603C157.251 242.468 156.957 238.035 156.599 234.676C156.114 230.127 155.646 229.098 155.411 228.89C154.368 227.967 149.785 228.454 143.982 229.071C135.577 229.965 122.875 231.316 109.142 229.74C102.097 228.933 96.6807 226.153 93.0459 221.48C86.5758 213.161 88.0127 201.91 88.0768 201.437Z" fill="#5C554C"/>
<path d="M177.881 291.043C178.131 291.043 178.339 290.84 178.355 290.576C178.37 290.301 178.171 290.065 177.91 290.049L160.079 288.921C159.814 288.903 159.593 289.113 159.578 289.387C159.562 289.662 159.762 289.896 160.023 289.914L177.853 291.042C177.862 291.042 177.872 291.043 177.881 291.043Z" fill="#5C554C"/>
<path d="M139.442 143.139C139.442 143.139 138.266 136.994 138.96 134.998C139.655 133.004 139.641 129.623 141.019 129.977C142.396 130.331 142.299 134.488 142.299 134.488L139.442 143.139Z" fill="#F9AE90"/>
<path d="M88.1124 129.735L88.8216 132.562C89.0595 133.487 89.2974 134.409 89.5484 135.327C90.0479 137.164 90.5552 138.996 91.0881 140.825C92.1616 144.478 93.2772 148.128 94.5184 151.771C95.7534 155.418 97.0648 159.065 98.6044 162.742C99.3725 164.582 100.191 166.433 101.123 168.322C102.066 170.221 103.081 172.13 104.552 174.247C104.926 174.78 105.336 175.328 105.817 175.91C106.304 176.491 106.842 177.097 107.574 177.765C107.928 178.091 108.358 178.447 108.838 178.799C109.328 179.152 109.914 179.527 110.623 179.878C111.33 180.227 112.191 180.565 113.236 180.779C113.758 180.885 114.311 180.957 114.896 180.98L115.112 180.987H115.265L115.567 180.982C115.774 180.978 115.954 180.964 116.145 180.951C117.638 180.824 118.754 180.478 119.674 180.13C120.601 179.773 121.338 179.391 122.007 179.01C123.325 178.246 124.345 177.48 125.283 176.722C127.134 175.202 128.621 173.688 130.036 172.168C131.441 170.651 132.737 169.127 133.984 167.592C135.229 166.06 136.421 164.518 137.582 162.967C138.743 161.42 139.854 159.846 140.901 158.238C141.951 156.632 142.945 154.993 143.876 153.315C144.343 152.476 144.791 151.626 145.221 150.764C145.439 150.334 145.643 149.895 145.85 149.454C145.953 149.235 146.055 149.014 146.153 148.789L146.454 148.093C147.644 145.348 146.383 142.159 143.638 140.97C141.64 140.103 139.405 140.536 137.878 141.897L137.646 142.106C137.332 142.387 136.985 142.716 136.665 143.034C136.339 143.355 136.009 143.675 135.689 144.003C135.047 144.654 134.41 145.311 133.785 145.975C132.531 147.298 131.308 148.639 130.101 149.981C128.895 151.321 127.71 152.67 126.535 154.006C125.354 155.339 124.162 156.645 122.956 157.9C121.751 159.157 120.532 160.366 119.316 161.478C118.108 162.584 116.873 163.609 115.783 164.358C115.249 164.728 114.74 165.025 114.43 165.155C114.283 165.215 114.181 165.239 114.235 165.198C114.285 165.169 114.492 165.057 115.058 164.996C115.133 164.987 115.197 164.985 115.288 164.98L115.416 164.977L115.612 164.978C115.964 164.991 116.288 165.03 116.581 165.09C117.171 165.208 117.595 165.38 117.89 165.516C118.186 165.655 118.378 165.781 118.496 165.858C118.608 165.926 118.678 165.986 118.698 165.99C118.754 166.024 118.681 165.925 118.59 165.782C118.496 165.633 118.366 165.426 118.227 165.186C117.947 164.7 117.63 164.087 117.319 163.427C117.007 162.763 116.687 162.054 116.382 161.311C115.765 159.827 115.176 158.239 114.617 156.612C113.504 153.351 112.471 149.946 111.501 146.503C110.542 143.052 109.613 139.561 108.745 136.047C108.307 134.291 107.873 132.532 107.457 130.77L106.83 128.131L106.237 125.545L106.202 125.392C105.053 120.385 100.063 117.257 95.0565 118.406C90.0488 119.554 86.9195 124.543 88.0685 129.551C88.0791 129.598 88.1019 129.688 88.1124 129.735Z" fill="#F9AE90"/>
<path d="M115.559 164.455C114.68 164.81 113.8 165.165 112.921 165.522C112.46 165.708 112.776 166.413 113.236 166.228C114.116 165.872 114.996 165.516 115.875 165.162C116.338 164.975 116.021 164.268 115.559 164.455Z" fill="#DF6A5D"/>
<path d="M117.177 163.918C116.018 165.055 115.327 166.53 115.164 168.143C115.111 168.676 114.282 168.587 114.337 168.052C114.522 166.215 115.331 164.566 116.647 163.276C117.03 162.9 117.557 163.546 117.177 163.918Z" fill="#DF6A5D"/>
<path d="M139.805 149.153C142.448 150.878 145.972 149.973 147.785 147.389C148.741 146.026 149.915 144.619 151.132 143.797C154.053 141.824 158.053 140.304 159.246 138.89C161.007 136.804 158.066 136.943 157.704 137.011C155.384 137.444 152.286 138.594 152.286 138.594C152.286 138.594 157.224 135.203 159.538 134.74C161.851 134.28 162.84 132.398 160.434 131.594C158.028 130.791 151.811 133.396 150.284 134.582C150.284 134.582 152.789 131.705 155.902 130.976C159.015 130.247 160.032 129.568 160.978 128.685C161.924 127.802 159.968 126.087 155.648 127.216C151.329 128.346 149.957 129.863 148.351 131.332C148.351 131.332 149.115 129.741 150.906 127.459C152.696 125.178 156.361 124.621 156.725 122.925C157.098 121.19 152.903 122.017 150.796 123.507C148.687 124.997 147.027 125.902 145.256 128.688C143.487 131.474 141.892 134.198 141.233 136.121C140.573 138.044 137.332 144.571 138.235 147.359C138.467 148.071 139.056 148.664 139.805 149.153Z" fill="#F9AE90"/>
<path d="M86.9553 126.551C86.9483 130.557 87.3828 135.028 87.8857 138.853C87.9147 139.088 87.9472 139.321 87.9779 139.549C88.638 144.42 89.3779 148.084 89.3779 148.084C91.0659 148.123 94.1513 147.474 97.6158 146.556C97.8335 146.498 98.053 146.44 98.2724 146.38C101.033 145.63 103.989 144.732 106.638 143.891C107.043 143.761 107.442 143.633 107.83 143.508C109.747 142.889 111.447 142.318 112.715 141.887H112.717C113.07 141.767 113.389 141.658 113.669 141.56C114.557 141.256 115.07 141.073 115.07 141.073C115.07 141.073 114.433 138.334 113.473 134.527C113.416 134.303 113.356 134.074 113.3 133.843C113.043 132.833 112.764 131.758 112.473 130.648C112.413 130.423 112.354 130.196 112.297 129.971C110.338 122.584 107.78 113.893 106.131 111.955C105.798 111.565 105.414 111.22 104.999 110.921C104.819 110.792 104.633 110.669 104.439 110.555C104.09 110.349 103.722 110.167 103.347 110.006C100.19 108.672 96.6248 108.764 93.7764 110.325C93.5921 110.42 93.4122 110.528 93.2375 110.64C92.3597 111.195 91.5627 111.9 90.8842 112.755C90.5901 113.124 90.2899 113.567 89.9906 114.067C89.8853 114.24 89.7826 114.418 89.6808 114.605C88.544 116.66 87.5004 119.465 87.1905 122.074C87.0501 123.266 86.9772 124.566 86.9623 125.926C86.957 126.135 86.9553 126.343 86.9553 126.551Z" fill="#047C6D"/>
<path d="M87.8789 138.854C87.9079 139.089 87.9404 139.321 87.9711 139.55C88.6953 139.706 89.4107 139.918 90.1111 140.189C93.2553 141.4 95.8719 143.711 97.609 146.557C97.8267 146.499 98.0462 146.44 98.2656 146.38C96.5013 143.416 93.8258 140.995 90.5825 139.671C89.7047 139.31 88.7989 139.04 87.8789 138.854Z" fill="#11A88E"/>
<path d="M89.6804 114.608C89.9885 114.686 90.2905 114.773 90.5933 114.872C94.6644 116.188 96.9756 119.303 99.0024 122.886C100.714 125.917 102.563 129.373 105.874 130.911C107.96 131.879 110.565 131.918 112.473 130.651C112.413 130.426 112.353 130.199 112.297 129.974C109.63 132.015 105.76 130.645 103.539 128.407C100.804 125.648 99.5273 121.854 97.1959 118.801C95.2806 116.286 92.7632 114.822 89.9894 114.07C89.8841 114.244 89.7814 114.421 89.6804 114.608Z" fill="#11A88E"/>
<path d="M86.9491 126.55C90.2249 126.245 93.2163 128.847 95.0096 131.486C96.8328 134.165 98.0775 137.217 100.188 139.701C101.873 141.684 104.136 143.16 106.631 143.889C107.037 143.759 107.436 143.632 107.824 143.506C103.839 142.693 100.91 140.052 98.8297 136.652C96.9925 133.652 95.5539 130.242 92.7731 127.959C91.1229 126.603 89.0338 125.78 86.9561 125.927C86.9508 126.134 86.9491 126.342 86.9491 126.55Z" fill="#11A88E"/>
<path d="M112.71 141.89H112.712C113.065 141.769 113.384 141.66 113.664 141.562C111.384 140.669 109.254 139.101 110.932 136.766C111.586 135.856 112.469 135.111 113.467 134.53C113.41 134.306 113.351 134.077 113.295 133.846C111.784 134.659 110.505 135.801 109.877 137.294C108.959 139.472 110.677 140.963 112.71 141.89Z" fill="#11A88E"/>
<path d="M92.7991 110.227C92.9439 110.367 93.0887 110.506 93.2335 110.643C95.2989 112.601 97.5408 114.22 100.525 113.998C102.516 113.851 104.162 112.726 104.996 110.924C105.019 110.873 105.042 110.825 105.064 110.775C105.744 109.19 105.72 107.512 105.364 105.879C105.156 105.93 104.944 105.978 104.725 106.021C105.057 107.536 105.083 109.092 104.436 110.557C103.411 112.881 101.009 113.72 98.6257 113.191C96.7253 112.769 95.191 111.648 93.7734 110.327C93.5873 110.154 93.403 109.976 93.2186 109.796C93.0755 109.934 92.9377 110.077 92.7991 110.227Z" fill="#11A88E"/>
<path d="M87.6146 129.752C87.482 135.869 88.2001 141.951 89.7572 147.868C89.8652 148.278 89.2297 148.452 89.1226 148.042C87.5505 142.071 86.8211 135.924 86.9554 129.752C86.9659 129.328 87.6242 129.327 87.6146 129.752Z" fill="#083D3B"/>
<path d="M142.692 88.9587L139.066 88.3398C139.046 88.4935 139.009 88.6444 138.974 88.7954C138.968 88.8217 138.958 88.8463 138.948 88.8683L142.602 89.4906C142.748 89.516 142.888 89.4169 142.914 89.2703C142.939 89.1228 142.848 88.9806 142.692 88.9587Z" fill="#F8F0E1"/>
<path d="M132.926 86.739C132.926 86.7425 132.924 86.7478 132.924 86.7513C132.719 87.745 132.204 88.5981 131.499 89.2275C130.455 90.1597 128.999 90.6056 127.525 90.301C126.65 90.1202 125.885 89.698 125.284 89.1169C125.008 88.8527 124.764 88.5507 124.563 88.2251C123.97 87.2674 123.729 86.0895 123.975 84.901C124.008 84.7403 124.05 84.5823 124.101 84.4296C124.156 84.2541 124.221 84.0864 124.297 83.9223C125.162 82.0298 127.252 80.9133 129.376 81.3504C129.392 81.3521 129.406 81.3574 129.421 81.3609C130.352 81.5619 131.154 82.0368 131.764 82.6837C132.433 83.3877 132.867 84.2979 132.986 85.2802C133.011 85.4627 133.021 85.6462 133.019 85.8314C133.02 86.1342 132.989 86.4362 132.926 86.739ZM132.395 86.6434C132.686 85.2328 132.198 83.8397 131.227 82.9128C130.699 82.4063 130.031 82.0403 129.265 81.8814C128.91 81.8077 128.555 81.784 128.21 81.806C126.652 81.8981 125.262 82.8997 124.693 84.3787C124.689 84.3901 124.684 84.4024 124.679 84.4147C124.606 84.6069 124.549 84.8062 124.505 85.0125C124.3 86.0114 124.484 86.9997 124.953 87.8213C125.497 88.7728 126.424 89.5005 127.568 89.7559C127.591 89.7621 127.612 89.7673 127.635 89.7717C129.809 90.2229 131.945 88.8176 132.395 86.6434Z" fill="#F8F0E1"/>
<path d="M143.51 88.942C143.224 90.3324 142.327 91.4445 141.158 92.0624C140.849 92.224 140.522 92.3521 140.18 92.4399C139.999 92.4882 139.812 92.5233 139.625 92.5487C139.558 92.5584 139.489 92.5654 139.42 92.5689C138.992 92.6075 138.551 92.5821 138.111 92.4917C138.068 92.4829 138.024 92.4741 137.982 92.4609C137.896 92.4434 137.813 92.4197 137.729 92.3951C137.177 92.231 136.677 91.9685 136.244 91.6323C134.908 90.5966 134.197 88.8551 134.562 87.0916C134.616 86.8283 134.693 86.5729 134.791 86.3315C134.793 86.3209 134.797 86.313 134.8 86.3025C134.875 86.1182 134.962 85.9382 135.062 85.7688C135.439 85.0973 135.979 84.5426 136.617 84.1432C137.199 83.7807 137.861 83.5472 138.558 83.4726C138.808 83.4454 139.064 83.4401 139.322 83.4568C139.533 83.4699 139.748 83.4972 139.962 83.5428C140.079 83.5674 140.192 83.5955 140.305 83.6288C140.468 83.6745 140.627 83.7298 140.782 83.7938C140.912 83.8491 141.039 83.9071 141.163 83.9729C142.918 84.8972 143.933 86.9047 143.51 88.942ZM141.068 84.5399C140.952 84.4706 140.83 84.4074 140.705 84.353C140.549 84.2801 140.388 84.2187 140.22 84.1669C140.1 84.13 139.977 84.0993 139.85 84.073C139.677 84.037 139.504 84.0133 139.331 84.0001C139.232 83.994 139.135 83.9887 139.038 83.9887C138.435 83.9887 137.854 84.1248 137.329 84.3723C136.481 84.7699 135.777 85.459 135.373 86.3403C135.249 86.6106 135.153 86.9003 135.091 87.2031C134.812 88.554 135.246 89.8882 136.136 90.8125C136.2 90.8801 136.268 90.945 136.337 91.0056C136.805 91.4322 137.379 91.75 138.025 91.9194C138.049 91.9238 138.074 91.9299 138.097 91.9369C138.138 91.9457 138.178 91.9554 138.219 91.9633C138.66 92.0537 139.098 92.0686 139.522 92.0159C139.581 92.0098 139.639 92.001 139.696 91.9922C139.897 91.9589 140.092 91.9097 140.284 91.8483C140.589 91.7456 140.881 91.6113 141.152 91.4427C141.89 90.9854 142.483 90.292 142.8 89.4449C142.846 89.3291 142.885 89.2114 142.917 89.0894C142.941 89.006 142.961 88.9209 142.98 88.834C143.339 87.0978 142.518 85.3888 141.068 84.5399Z" fill="#F8F0E1"/>
<path d="M118.551 84.7446C118.52 84.7384 118.487 84.7261 118.459 84.7077C118.332 84.6269 118.295 84.4601 118.376 84.3346C120.193 81.4959 124.558 84.0441 124.603 84.0695C124.731 84.1459 124.772 84.3118 124.697 84.4408C124.62 84.569 124.455 84.6111 124.325 84.5356C124.287 84.5119 120.367 82.228 118.831 84.626C118.77 84.7226 118.658 84.7665 118.551 84.7446Z" fill="#F8F0E1"/>
<path d="M277.039 188.42V191.852C277.039 193.827 275.58 195.427 273.78 195.427H47.1077C45.3074 195.427 43.8503 193.827 43.8503 191.852V188.42C43.8503 186.447 45.3074 184.848 47.1077 184.848H273.78C275.58 184.848 277.039 186.447 277.039 188.42Z" fill="#856027"/>
<path d="M43.8503 189.506H277.039V191.076H43.8503V189.506Z" fill="#593D15"/>
<path d="M270.23 204.246H57.1584C56.2052 204.246 55.4318 203.613 55.4318 202.834V195.385H271.957V202.834C271.957 203.614 271.184 204.246 270.23 204.246Z" fill="#593D15"/>
<path d="M59.9211 247.994H241.383V254.07H59.9211V247.994Z" fill="#593D15"/>
<path d="M45.6381 329.388L75.8203 204.248H65.2204L35.0391 329.388H45.6381Z" fill="#856027"/>
<path d="M252.412 329.388L222.23 204.248H232.83L263.012 329.388H252.412Z" fill="#856027"/>
<path d="M84.714 180.757L81.4414 181.26L77.6548 156.588L80.9273 156.086L84.714 180.757Z" fill="#DA7C2F"/>
<path d="M80.9297 156.079L77.6565 156.579L78.3771 154.081L78.7502 152.787L79.4945 153.91L80.9297 156.079Z" fill="#F89E72"/>
<path d="M84.71 180.763L81.4375 181.266L81.1623 179.472L84.4348 178.97L84.71 180.763Z" fill="#162318"/>
<path d="M84.7187 182.216L81.8817 182.652C81.7606 182.67 81.6482 182.587 81.6307 182.466L81.4455 181.256L84.7187 180.754L84.9039 181.966C84.9215 182.086 84.8389 182.199 84.7187 182.216Z" fill="#C24B2B"/>
<path d="M79.4961 153.91L78.3787 154.081L78.7517 152.787L79.4961 153.91Z" fill="#162318"/>
<path d="M80.9693 178.171L84.2422 177.67L84.4389 178.956L81.166 179.456L80.9693 178.171Z" fill="#B45126"/>
<path d="M78.6639 157.668L81.4623 175.938C81.4824 176.077 81.6124 176.172 81.7502 176.151C81.888 176.129 81.9837 176 81.9617 175.863L79.1634 157.591C79.1423 157.454 79.0133 157.357 78.8746 157.38C78.7368 157.4 78.6429 157.53 78.6639 157.668Z" fill="#B45126"/>
<path d="M79.9491 157.472L82.7474 175.742C82.7685 175.881 82.8975 175.976 83.0353 175.955C83.1731 175.933 83.2688 175.804 83.2469 175.667L80.4485 157.395C80.4275 157.256 80.2984 157.162 80.1606 157.183C80.0228 157.205 79.928 157.334 79.9491 157.472Z" fill="#B45126"/>
<path d="M86.9242 181.158L83.6133 181.168L83.5359 156.206L86.8469 156.196L86.9242 181.158Z" fill="#856027"/>
<path d="M86.8438 156.195L83.5328 156.207L84.616 153.842L85.1769 152.617L85.7457 153.838L86.8438 156.195Z" fill="#F89E72"/>
<path d="M86.9281 181.154L83.6172 181.164L83.6116 179.351L86.9225 179.34L86.9281 181.154Z" fill="#162318"/>
<path d="M86.7111 182.595L83.8399 182.606C83.7179 182.606 83.6196 182.508 83.6187 182.386L83.6152 181.161L86.9253 181.15L86.9297 182.375C86.9306 182.496 86.8314 182.595 86.7111 182.595Z" fill="#C24B2B"/>
<path d="M85.75 153.838L84.6203 153.842L85.1812 152.617L85.75 153.838Z" fill="#162318"/>
<path d="M83.607 178.045L86.918 178.033L86.9227 179.334L83.6117 179.346L83.607 178.045Z" fill="#593D15"/>
<path d="M84.3674 157.431L84.428 175.916C84.428 176.057 84.5421 176.168 84.6817 176.168C84.8213 176.168 84.9336 176.055 84.9336 175.915L84.8739 157.43C84.873 157.291 84.7589 157.178 84.6194 157.178C84.4807 157.179 84.3674 157.292 84.3674 157.431Z" fill="#593D15"/>
<path d="M85.6604 157.429L85.721 175.914C85.721 176.055 85.8351 176.166 85.9746 176.166C86.1142 176.166 86.2274 176.053 86.2266 175.913L86.166 157.428C86.166 157.289 86.0519 157.176 85.9123 157.176C85.7727 157.176 85.6604 157.291 85.6604 157.429Z" fill="#593D15"/>
<path d="M89.0278 181.245L85.75 180.779L89.2643 156.069L92.5421 156.536L89.0278 181.245Z" fill="#344B86"/>
<path d="M92.5664 156.54L89.2888 156.076L90.7003 153.891L91.4314 152.76L91.8185 154.049L92.5664 156.54Z" fill="#F89E72"/>
<path d="M89.0318 181.249L85.7539 180.783L86.0091 178.989L89.287 179.455L89.0318 181.249Z" fill="#162318"/>
<path d="M88.6373 182.652L85.7959 182.248C85.6748 182.23 85.5914 182.119 85.6081 181.999L85.781 180.785L89.0586 181.251L88.8857 182.465C88.869 182.585 88.7575 182.669 88.6373 182.652Z" fill="#C24B2B"/>
<path d="M91.8125 154.049L90.6942 153.891L91.4254 152.76L91.8125 154.049Z" fill="#162318"/>
<path d="M86.2339 177.712L89.5117 178.178L89.3287 179.465L86.0508 178.999L86.2339 177.712Z" fill="#132549"/>
<path d="M89.9308 157.408L87.3308 175.71C87.3115 175.848 87.4072 175.977 87.545 175.996C87.6837 176.014 87.8118 175.918 87.8312 175.782L90.4311 157.48C90.4504 157.341 90.3548 157.214 90.2161 157.194C90.0783 157.175 89.9501 157.271 89.9308 157.408Z" fill="#132549"/>
<path d="M91.2198 157.59L88.6199 175.891C88.6006 176.03 88.6963 176.157 88.8341 176.178C88.9728 176.196 89.1009 176.1 89.1202 175.962L91.7202 157.662C91.7395 157.523 91.6438 157.394 91.5051 157.376C91.3673 157.356 91.2392 157.451 91.2198 157.59Z" fill="#132549"/>
<path d="M93.6328 166.068L93.4608 167.408L93.3036 168.624L93.0649 170.471L92.9104 171.673L92.6708 173.535L92.5163 174.721L92.2749 176.599L92.123 177.77L91.8781 179.661L91.7307 180.818L91.4831 182.726L91.3348 183.866L91.2084 184.854H78.1972L78.0699 183.866L77.9216 182.726L77.6758 180.818L77.5274 179.661L77.2834 177.77L77.1316 176.599L76.8893 174.721L76.7357 173.535L76.4943 171.673L76.3407 170.471L76.1019 168.624L75.9448 167.408L75.7728 166.068H93.6328Z" fill="#C24B2B"/>
<path d="M93.4648 167.404L93.3077 168.62H76.106L75.9489 167.404H93.4648Z" fill="#8B2E1C"/>
<path d="M93.0703 170.471L92.9158 171.672H76.4997L76.3461 170.471H93.0703Z" fill="#8B2E1C"/>
<path d="M92.6797 173.531L92.5252 174.718H76.8982L76.7446 173.531H92.6797Z" fill="#8B2E1C"/>
<path d="M92.2812 176.592L92.1294 177.763H77.2898L77.1379 176.592H92.2812Z" fill="#8B2E1C"/>
<path d="M91.8867 179.66L91.7393 180.817H77.6844L77.536 179.66H91.8867Z" fill="#8B2E1C"/>
<path d="M91.4805 182.721L91.3321 183.861H78.0672L77.9189 182.721H91.4805Z" fill="#8B2E1C"/>
<path d="M134.746 184.818H227.888L228.898 182.531C229.534 181.093 227.875 179.66 225.576 179.66H139.63C138.087 179.66 136.733 180.324 136.306 181.288L134.746 184.818Z" fill="white"/>
<path d="M246.462 123.776L235.239 171.248C234.939 172.513 233.81 173.406 232.51 173.406H163.367C161.556 173.406 160.221 171.717 160.638 169.957L171.862 122.486C172.162 121.221 173.29 120.328 174.59 120.328H243.733C245.543 120.327 246.879 122.016 246.462 123.776Z" fill="white"/>
<path d="M212.869 148.728C212.54 151.715 209.851 154.138 206.863 154.138C203.875 154.138 201.721 151.715 202.05 148.728C202.379 145.74 205.068 143.318 208.055 143.318C211.043 143.318 213.198 145.74 212.869 148.728Z" fill="#272737"/>
<path d="M177.332 120.328L165.382 173.406H163.369C161.558 173.406 160.223 171.717 160.64 169.957L171.864 122.486C172.164 121.221 173.293 120.328 174.593 120.328H177.332Z" fill="#272737"/>
<path d="M197.365 173.406L195.008 184.683H201.936L204.293 173.406H197.365Z" fill="#272737"/>
<path d="M184.91 182.774L186.329 180.781C186.835 180.069 187.655 179.646 188.529 179.646H207.523C208.528 179.646 209.449 180.205 209.915 181.095L210.871 182.924C211.319 183.78 210.698 184.804 209.733 184.804H185.958C184.914 184.804 184.305 183.625 184.91 182.774Z" fill="white"/>
<path d="M321.259 287.109C321.259 287.109 344.701 235.386 321.593 231.366C303.933 228.292 305.888 263.917 321.259 287.109Z" fill="#07A36D"/>
<path d="M321.65 320.396C321.65 320.396 321.652 320.396 321.654 320.396C321.867 320.394 322.038 320.219 322.035 320.006C321.85 302.33 320.553 252.726 320.539 252.228C320.534 252.013 320.359 251.844 320.144 251.852C319.931 251.857 319.763 252.034 319.769 252.247C319.782 252.745 321.079 302.344 321.264 320.014C321.266 320.225 321.439 320.396 321.65 320.396Z" fill="#3E3F1A"/>
<path d="M326.611 300.873C326.611 300.873 361.89 267.394 349.173 254.207C335.148 239.662 324.434 277.065 326.611 300.873Z" fill="#07A36D"/>
<path d="M322.842 317.369C323.042 317.369 323.21 317.215 323.227 317.014C324.342 302.839 338.463 271.788 338.605 271.475C338.695 271.282 338.608 271.055 338.415 270.964C338.221 270.876 337.993 270.962 337.904 271.156C337.761 271.468 323.583 302.642 322.457 316.953C322.44 317.165 322.599 317.352 322.812 317.369C322.822 317.369 322.832 317.369 322.842 317.369Z" fill="#3E3F1A"/>
<path d="M315.723 299.988C315.723 299.988 278.861 268.262 290.924 254.472C304.226 239.264 316.742 276.104 315.723 299.988Z" fill="#07A36D" stroke="#2E3192" stroke-miterlimit="10"/>
<path d="M320.274 316.286C320.29 316.286 320.307 316.285 320.323 316.282C320.535 316.257 320.684 316.063 320.657 315.852C318.838 301.611 303.164 271.163 303.006 270.856C302.908 270.668 302.676 270.594 302.486 270.691C302.297 270.788 302.224 271.021 302.321 271.21C302.478 271.515 318.092 301.844 319.893 315.948C319.918 316.143 320.083 316.286 320.274 316.286Z" fill="#07A36D" stroke="#2E3192" stroke-miterlimit="10"/>
<path d="M307.916 330.346L302.451 315.625L302.061 314.585L300.908 311.526L300.516 310.487L299.393 307.508L299.003 306.467L298.384 304.825C297.961 303.701 298.792 302.5 299.993 302.5H341.798C343 302.5 343.831 303.701 343.407 304.825L342.789 306.467L342.398 307.508L341.276 310.487L340.885 311.526L339.732 314.585L339.342 315.625L333.68 330.346H307.916Z" fill="#162318"/>
<path d="M299.011 306.475L299.402 307.515H342.406L342.797 306.475H299.011Z" fill="#554830"/>
<path d="M300.521 310.484L300.913 311.523H340.89L341.281 310.484H300.521Z" fill="#554830"/>
<path d="M302.067 314.578L302.458 315.617H339.348L339.738 314.578H302.067Z" fill="#554830"/>
</svg>
