<svg width="39" height="32" viewBox="0 0 39 32" fill="none" xmlns="http://www.w3.org/2000/svg">
<path d="M20.1941 14.7899L23.086 17.7479C23.4826 17.2437 23.9453 16.7899 24.4907 16.437L21.3178 13.1933C21.0203 13.7983 20.6403 14.3361 20.1941 14.7899ZM31.7123 8.4874L28.589 15.6134C29.2335 15.7311 29.8284 15.9496 30.3903 16.2689L33.3814 9.41177C32.7699 9.19328 32.2081 8.89076 31.7123 8.4874ZM27.5809 25.2101C29.6797 25.2101 31.3818 23.479 31.3818 21.3277C31.3818 19.1933 29.6797 17.4454 27.5809 17.4454C25.4822 17.4454 23.7801 19.1765 23.7801 21.3277C23.7801 23.479 25.4822 25.2101 27.5809 25.2101ZM27.5809 19.395C28.6386 19.395 29.4814 20.2689 29.4814 21.3277C29.4814 22.4034 28.622 23.2605 27.5809 23.2605C26.5398 23.2605 25.6805 22.3866 25.6805 21.3277C25.6805 20.2521 26.5398 19.395 27.5809 19.395ZM35.1992 7.76471C37.2979 7.76471 39 6.03361 39 3.88235C39 1.73109 37.2979 0 35.1992 0C33.1004 0 31.3983 1.73109 31.3983 3.88235C31.3983 6.03361 33.1004 7.76471 35.1992 7.76471ZM35.1992 1.94958C36.2568 1.94958 37.0996 2.82353 37.0996 3.88235C37.0996 4.95798 36.2403 5.81513 35.1992 5.81513C34.1415 5.81513 33.2987 4.94118 33.2987 3.88235C33.2987 2.82353 34.1415 1.94958 35.1992 1.94958ZM11.353 13.7983L7.32076 18.6891C7.83305 19.0924 8.26271 19.5798 8.60975 20.1345L12.6419 15.2437C12.1462 14.8403 11.7 14.3529 11.353 13.7983ZM7.6017 23.2773C7.6017 21.1429 5.89958 19.395 3.80085 19.395C1.70212 19.395 0 21.1261 0 23.2773C0 25.4118 1.70212 27.1597 3.80085 27.1597C5.89958 27.1429 7.6017 25.4118 7.6017 23.2773ZM1.90042 23.2773C1.90042 22.2017 2.75975 21.3445 3.80085 21.3445C4.84195 21.3445 5.70127 22.2185 5.70127 23.2773C5.70127 24.3529 4.84195 25.2101 3.80085 25.2101C2.75975 25.2101 1.90042 24.3361 1.90042 23.2773ZM36.1411 28.1176C36.1411 29.1933 35.2818 30.0504 34.2407 30.0504H7.6017C6.7589 30.0504 6.04831 29.4958 5.80042 28.7227C5.17246 28.958 4.51144 29.0924 3.80085 29.0924C3.80085 30.7059 5.07331 32 6.65975 32H35.1992C36.7691 32 38.0581 30.6891 38.0581 29.0924V8.92437C37.4797 9.2605 36.8352 9.4958 36.1576 9.61345V28.1176H36.1411ZM5.70127 4.85714C5.70127 3.78151 6.56059 2.92437 7.6017 2.92437H29.564C29.6797 2.23529 29.911 1.57983 30.2415 0.991597H6.65975C5.08983 0.991597 3.80085 2.30252 3.80085 3.89916V17.4622C4.46186 17.4622 5.10636 17.5798 5.70127 17.7983V4.85714ZM16.1619 14.5546C18.2606 14.5546 19.9627 12.8235 19.9627 10.6723C19.9627 8.52101 18.2606 6.78992 16.1619 6.78992C14.0631 6.78992 12.361 8.52101 12.361 10.6723C12.361 12.8235 14.0631 14.5546 16.1619 14.5546ZM16.1619 8.7395C17.2195 8.7395 18.0623 9.61345 18.0623 10.6723C18.0623 11.7479 17.203 12.605 16.1619 12.605C15.1208 12.605 14.2614 11.7311 14.2614 10.6723C14.2614 9.59664 15.1208 8.7395 16.1619 8.7395Z" fill="#005FE5"/>
</svg>
