<svg width="21" height="19" viewBox="0 0 21 19" fill="none" xmlns="http://www.w3.org/2000/svg">
<path d="M19.0321 19C16.761 19 14.5172 18.5206 12.3007 17.5618C10.0841 16.603 8.06738 15.244 6.25052 13.4847C4.43367 11.7255 3.03015 9.77269 2.03997 7.62639C1.04978 5.48009 0.554688 3.30741 0.554688 1.10833C0.554688 0.791667 0.663699 0.527778 0.881721 0.316667C1.09974 0.105556 1.37227 0 1.69931 0H6.11426C6.36862 0 6.59573 0.0835648 6.79558 0.250694C6.99544 0.417824 7.11353 0.615741 7.14987 0.844444L7.85844 4.53889C7.89478 4.82037 7.88569 5.05787 7.83119 5.25139C7.77668 5.44491 7.67676 5.61204 7.53141 5.75278L4.88788 8.33889C5.25126 8.98981 5.68276 9.61875 6.18239 10.2257C6.68203 10.8326 7.23163 11.4176 7.83119 11.9806C8.39441 12.5259 8.98489 13.0317 9.60262 13.4979C10.2204 13.9641 10.8744 14.3907 11.5648 14.7778L14.1266 12.2972C14.2901 12.1389 14.5036 12.0201 14.767 11.941C15.0305 11.8618 15.2894 11.8398 15.5437 11.875L19.3046 12.6139C19.559 12.6843 19.7679 12.8118 19.9314 12.9965C20.095 13.1812 20.1767 13.388 20.1767 13.6167V17.8917C20.1767 18.2083 20.0677 18.4722 19.8497 18.6833C19.6317 18.8944 19.3591 19 19.0321 19ZM3.85228 6.33333L5.65096 4.59167L5.18767 2.11111H2.76217C2.85301 2.83241 2.98019 3.54491 3.1437 4.24861C3.30722 4.95232 3.54341 5.64722 3.85228 6.33333ZM13.6088 15.7806C14.3174 16.0796 15.0396 16.3171 15.7754 16.4931C16.5112 16.669 17.2516 16.7833 17.9965 16.8361V14.5139L15.4347 14.0125L13.6088 15.7806Z" fill="white"/>
</svg>
