<svg width="42" height="42" viewBox="0 0 42 42" fill="none" xmlns="http://www.w3.org/2000/svg">
<path d="M14.1043 1.86857L14.1044 1.86895L15.621 10.0353C15.6986 10.6563 15.679 11.1794 15.5629 11.605C15.4468 12.0307 15.2341 12.3983 14.9245 12.7078L14.9244 12.7079L9.26612 18.4245L9.2596 18.4311L9.264 18.4393C10.0422 19.8788 10.9662 21.2697 12.0361 22.612C13.1058 23.954 14.2826 25.2475 15.5663 26.4923C16.7721 27.6981 18.0364 28.8165 19.359 29.8474C20.6817 30.8783 22.0821 31.8216 23.5604 32.6775L23.5687 32.6823L23.5755 32.6755L29.0588 27.1922C29.4072 26.8439 29.8622 26.5823 30.4245 26.4078C30.9867 26.2333 31.5388 26.1849 32.0812 26.2623C32.0813 26.2623 32.0814 26.2624 32.0816 26.2624L40.1299 27.8954C40.1301 27.8954 40.1302 27.8954 40.1304 27.8955C40.6724 28.0504 41.1173 28.3311 41.4655 28.7373C41.8137 29.1435 41.9875 29.5976 41.9875 30.1V39.55C41.9875 40.2469 41.7553 40.827 41.2912 41.2912C40.827 41.7553 40.2469 41.9875 39.55 41.9875C34.6908 41.9875 29.8897 40.9282 25.1468 38.8094C20.4038 36.6906 16.0884 33.6874 12.2005 29.7995C8.31263 25.9116 5.30937 21.5962 3.19058 16.8532C1.0718 12.1103 0.0125 7.30924 0.0125 2.45C0.0125 1.75309 0.24467 1.17301 0.708839 0.708839C1.17301 0.24467 1.75309 0.0125 2.45 0.0125H11.9C12.4413 0.0125 12.9246 0.196062 13.3502 0.563627C13.7759 0.931348 14.027 1.36626 14.1043 1.86857ZM7.04687 14.005L7.0542 14.0218L7.06717 14.0088L10.9172 10.1588L10.9238 10.1655L10.9206 10.1478L9.92897 4.66444L9.92711 4.65417H9.91667H4.725H4.71088L4.71259 4.66818C4.90709 6.26303 5.17938 7.83845 5.52947 9.39441C5.87965 10.9508 6.38546 12.4876 7.04687 14.005ZM27.9328 34.8745L27.9199 34.8875L27.9367 34.8948C29.454 35.5562 31.0005 36.0814 32.5762 36.4705C34.1518 36.8595 35.7373 37.1124 37.3324 37.2291L37.3458 37.2301V37.2167V32.0833V32.0731L37.3358 32.0711L31.8525 30.9627L31.8545 30.9528L31.8412 30.9662L27.9328 34.8745Z" fill="#005FE5" stroke="#EAEAEA" stroke-width="0.025"/>
</svg>
