<svg width="33" height="34" viewBox="0 0 33 34" fill="none" xmlns="http://www.w3.org/2000/svg">
<path d="M15.2933 0.0355496C14.6501 0.0774936 13.1681 0.329158 12.3991 0.524896C10.2879 1.05619 8.12084 2.11877 6.30327 3.53088C5.59022 4.07616 4.05227 5.6141 3.507 6.32715C2.09489 8.14472 1.03231 10.3258 0.501015 12.451C-0.295921 15.6667 -0.142127 19.0362 0.962399 22.0841C1.54961 23.7479 2.71007 25.7472 3.84255 27.0894C7.28196 31.1999 12.6088 33.423 17.8519 32.9616C25.3319 32.2905 31.3578 26.8238 32.728 19.4836C33.8046 13.6673 31.6374 7.68334 27.0795 3.85245C25.7653 2.74793 23.766 1.58748 22.1441 1.00026C20.0609 0.231288 17.5862 -0.118245 15.2933 0.0355496ZM18.6907 1.67137C21.1794 2.0209 23.5143 3.01357 25.6814 4.64939C26.8838 5.55818 28.3938 7.24992 29.2746 8.67601C32.2107 13.4157 32.1967 19.5815 29.2746 24.3211C26.6881 28.5015 22.3119 31.144 17.4184 31.4516C13.1122 31.7172 8.98768 30.1513 5.91179 27.0754C4.63949 25.7892 3.78663 24.6147 3.04562 23.1047C1.98304 20.9516 1.52165 18.9243 1.52165 16.4916C1.52165 14.6041 1.80128 12.9962 2.43044 11.2626C2.9058 9.97628 3.84255 8.32648 4.75134 7.16603C5.21272 6.57881 6.59688 5.18068 7.18409 4.73328C10.4557 2.16071 14.5103 1.08415 18.6907 1.67137Z" fill="#008AFF"/>
<path d="M25.2765 10.0042C25.1367 10.0601 23.1793 11.9336 19.5581 15.4849C16.5242 18.4629 14.0215 20.8956 13.9796 20.8956C13.9516 20.8956 13.3364 20.2805 12.6234 19.5255C11.8964 18.7705 10.9736 17.8197 10.5681 17.4003L9.82712 16.6453H9.50555C9.19796 16.6453 9.17 16.6593 8.73658 17.0787C8.35908 17.4423 8.28917 17.5541 8.24723 17.7778C8.23325 17.9456 8.24723 18.1134 8.30316 18.1972C8.45695 18.4629 13.5881 23.7898 13.7699 23.8737C13.8537 23.9016 14.0215 23.9156 14.1194 23.8876C14.385 23.8317 26.6467 11.7518 26.7445 11.4443C26.8005 11.2765 26.8005 11.1646 26.7445 11.0108C26.6606 10.7732 25.9057 10.0042 25.7519 10.0042C25.6959 10.0042 25.612 9.9902 25.5701 9.97622C25.5282 9.94826 25.3883 9.96224 25.2765 10.0042Z" fill="#008AFF"/>
</svg>
