<svg width="27" height="21" viewBox="0 0 27 21" fill="none" xmlns="http://www.w3.org/2000/svg">
<path d="M8.96267 0.362663L11.5013 2.60266C10.6053 3.44888 9.784 4.36977 9.03733 5.36533C8.29067 6.36089 7.69333 7.30666 7.24533 8.20266C6.84711 9.04888 6.648 9.79555 6.648 10.4427C6.648 10.9404 6.82222 11.4133 7.17067 11.8613C7.56889 12.3093 8.01689 12.7324 8.51467 13.1307C9.06222 13.5289 9.51022 13.9769 9.85867 14.4747C10.2569 14.9724 10.456 15.5449 10.456 16.192C10.456 17.4364 10.0329 18.4818 9.18667 19.328C8.39022 20.1742 7.34489 20.5973 6.05067 20.5973C4.75645 20.5973 3.58667 20.0249 2.54133 18.88C1.496 17.7351 0.973334 16.2418 0.973334 14.4C0.973334 13.056 1.272 11.6622 1.86933 10.2187C2.46667 8.72533 3.36267 7.15733 4.55733 5.51466C5.752 3.87199 7.22045 2.15466 8.96267 0.362663ZM24.2693 0.362663L26.808 2.60266C25.912 3.44888 25.0907 4.36977 24.344 5.36533C23.5973 6.36089 23 7.30666 22.552 8.20266C22.1538 9.04888 21.9547 9.79555 21.9547 10.4427C21.9547 10.9404 22.1289 11.4133 22.4773 11.8613C22.8756 12.3093 23.3236 12.7324 23.8213 13.1307C24.3689 13.5289 24.8169 13.9769 25.1653 14.4747C25.5636 14.9724 25.7627 15.5449 25.7627 16.192C25.7627 17.4364 25.3396 18.4818 24.4933 19.328C23.6969 20.1742 22.6516 20.5973 21.3573 20.5973C20.0631 20.5973 18.8933 20.0249 17.848 18.88C16.8027 17.7351 16.28 16.2418 16.28 14.4C16.28 13.056 16.5787 11.6622 17.176 10.2187C17.7733 8.72533 18.6693 7.15733 19.864 5.51466C21.0587 3.87199 22.5271 2.15466 24.2693 0.362663Z" fill="#576A76"/>
</svg>
