<svg width="47" height="43" viewBox="0 0 47 43" fill="none" xmlns="http://www.w3.org/2000/svg">
<path d="M28.0552 42.1249L28.1302 37.9614C30.885 36.8331 32.9943 35.3356 34.4583 33.4689C35.9214 31.6442 36.6739 29.5754 36.7155 27.2623C36.7534 25.1596 35.9295 23.0203 34.2438 20.8445C32.5575 18.7107 30.8925 16.5562 29.2489 14.3812C27.5633 12.2053 26.7394 10.066 26.7772 7.96329C26.8136 5.94466 27.6215 4.2975 29.201 3.02182C30.7805 1.74613 32.5796 1.12646 34.5982 1.16281C36.4907 1.19688 38.3706 1.92486 40.2381 3.34674C42.1056 4.76863 43.626 6.77322 44.7995 9.36052C45.9721 11.9899 46.53 14.8816 46.4732 18.0357C46.374 23.5449 44.6675 28.3731 41.3535 32.5203C37.9968 36.7088 33.564 39.9103 28.0552 42.1249ZM37.4209 33.6484C41.9673 28.8083 44.2923 23.5074 44.3961 17.7459C44.4619 14.0871 43.491 10.7673 41.4834 7.78635C39.4329 4.84671 37.0829 3.35304 34.4334 3.30533C32.2045 3.2652 30.5669 4.26639 29.5204 6.30891C29.8599 6.14675 30.3661 6.07172 31.039 6.08384C34.0669 6.13836 36.5006 7.65457 38.3401 10.6325C40.1788 13.6524 41.0607 17.2441 40.9857 21.4076C40.9183 25.1505 39.73 29.2307 37.4209 33.6484ZM2.50693 41.6649L2.58189 37.5014C5.33666 36.3731 7.44601 34.8756 8.90995 33.0089C10.3731 31.1842 11.1255 29.1154 11.1672 26.8024C11.2066 24.6155 10.4041 22.4556 8.75975 20.3225C7.0726 18.2308 5.40686 16.1184 3.76253 13.9854C2.07614 11.8516 1.25263 9.69129 1.29201 7.50443C1.32911 5.44375 2.13741 3.77556 3.71691 2.49988C5.29566 1.26625 7.07332 0.667229 9.04989 0.702817C10.9424 0.73689 12.8227 1.44384 14.691 2.82367C16.5164 4.24479 18.0162 6.22798 19.1903 8.77323C20.3637 11.3605 20.9209 14.2943 20.8618 17.5746C20.8134 20.2661 20.3459 22.8659 19.4594 25.3741C18.5308 27.8815 17.2489 30.1511 15.6137 32.183C13.9785 34.215 12.0103 36.0516 9.70905 37.6929C7.36499 39.3755 4.96429 40.6995 2.50693 41.6649ZM11.8095 33.1873C16.3979 28.3479 18.744 23.0474 18.8478 17.2859C18.9136 13.6272 17.9427 10.3073 15.935 7.32636C13.8845 4.38672 11.5346 2.89304 8.88511 2.84534C6.61415 2.80445 4.95546 3.80527 3.90904 5.84778C4.24851 5.68562 4.77571 5.61097 5.49064 5.62385C8.51859 5.67836 10.9523 7.19458 12.7918 10.1725C14.5892 13.1496 15.45 16.741 15.3743 20.9464C15.3092 24.5632 14.1209 28.6434 11.8095 33.1873Z" fill="white"/>
</svg>
