<svg width="370" height="301" viewBox="0 0 370 301" fill="none" xmlns="http://www.w3.org/2000/svg">
<g opacity="0.8">
<g opacity="0.5">
<path d="M198.245 93.3469C182.26 90.9865 167.111 84.479 154.038 74.6114C134.512 59.8734 93.6497 34.7945 54.6698 47.2864C0.90463 64.5171 0.664674 114.362 14.6695 141.439C28.6736 168.516 127.985 247.806 256.734 235.189C371.945 223.899 394.397 94.671 332.951 71.2865C279.656 51.0042 261.475 102.682 198.245 93.3469Z" fill="#CED4E7"/>
</g>
<g opacity="0.5">
<path d="M364.113 79.5896C366.872 79.5896 369.109 77.1823 369.109 74.2128C369.109 71.2432 366.872 68.8359 364.113 68.8359C361.354 68.8359 359.117 71.2432 359.117 74.2128C359.117 77.1823 361.354 79.5896 364.113 79.5896Z" fill="#CED4E7"/>
</g>
<path d="M37.9658 38.792C39.4993 38.5102 41.0501 39.3584 41.5898 40.8207C42.5098 43.3161 40.0995 46.1098 36.8551 44.8569C34.056 42.785 35.2744 39.2873 37.9658 38.792Z" fill="#CED4E7"/>
<path d="M350.48 32.6635C354.074 32.6635 356.988 29.75 356.988 26.156C356.988 22.5619 354.074 19.6484 350.48 19.6484C346.886 19.6484 343.973 22.5619 343.973 26.156C343.973 29.75 346.886 32.6635 350.48 32.6635Z" fill="#CED4E7"/>
<g opacity="0.8">
<path d="M51.3513 42.0113C54.982 42.0113 57.9253 39.068 57.9253 35.4373C57.9253 31.8066 54.982 28.8633 51.3513 28.8633C47.7206 28.8633 44.7773 31.8066 44.7773 35.4373C44.7773 39.068 47.7206 42.0113 51.3513 42.0113Z" fill="#CED4E7"/>
</g>
<path d="M317.806 229.52C319.261 228.958 320.942 229.503 321.744 230.839C323.113 233.12 321.264 236.313 317.843 235.686C314.708 234.17 315.254 230.508 317.806 229.52Z" fill="#CED4E7"/>
<path d="M330.34 230.304C333.97 230.304 336.914 227.361 336.914 223.73C336.914 220.1 333.97 217.156 330.34 217.156C326.709 217.156 323.766 220.1 323.766 223.73C323.766 227.361 326.709 230.304 330.34 230.304Z" fill="#CED4E7"/>
<path d="M338.202 20.2011C340.413 20.2011 342.205 18.4089 342.205 16.1982C342.205 13.9875 340.413 12.1953 338.202 12.1953C335.991 12.1953 334.199 13.9875 334.199 16.1982C334.199 18.4089 335.991 20.2011 338.202 20.2011Z" fill="#CED4E7"/>
</g>
<g opacity="0.8">
<path d="M352.885 88.7252C352.88 52.9611 323.102 13.7718 286.041 11.4047C285.39 11.3628 284.732 11.3269 284.068 11.2957C230.937 8.81966 226.889 73.6216 178.818 80.9301C130.748 88.2386 94.0379 51.3425 36.5178 75.415C-15.1415 97.0347 -29.1343 218.521 122.652 223.394C244.094 227.291 352.902 195.429 352.885 88.7252Z" fill="#CED4E7"/>
</g>
<path d="M206.289 267.227C273.745 267.227 328.43 264.406 328.43 260.926C328.43 257.446 273.745 254.625 206.289 254.625C138.833 254.625 84.1484 257.446 84.1484 260.926C84.1484 264.406 138.833 267.227 206.289 267.227Z" fill="#CED4E7"/>
<path d="M285.745 260.9H123.66V253.881C123.66 248.036 128.399 243.297 134.244 243.297H275.161C281.006 243.297 285.745 248.036 285.745 253.881V260.9Z" fill="white"/>
<path d="M233.592 205.57H174.84V243.289H233.592V205.57Z" fill="white"/>
<path d="M174.848 217.16L233.6 212.457L233.609 205.578L174.856 205.648L174.848 217.16Z" fill="#CED4E7"/>
<path d="M329.939 49.819V197.735C329.939 202.07 326.424 205.585 322.089 205.585H81.2096C76.8744 205.585 73.3594 202.07 73.3594 197.735V49.819C73.3594 45.4844 76.8744 41.9688 81.2096 41.9688H322.089C322.207 41.9688 322.322 41.9707 322.437 41.9767C322.524 41.9807 322.607 41.9847 322.692 41.992H322.702C322.762 41.996 322.823 42.002 322.883 42.01C322.985 42.0179 323.085 42.0312 323.187 42.0452C323.253 42.0532 323.318 42.0625 323.384 42.0764C323.416 42.0804 323.448 42.0864 323.479 42.0917C323.543 42.1017 323.606 42.113 323.67 42.129C327.248 42.8615 329.939 46.0262 329.939 49.819Z" fill="white"/>
<path d="M204.196 200.385C207.193 200.385 209.623 197.955 209.623 194.958C209.623 191.961 207.193 189.531 204.196 189.531C201.199 189.531 198.77 191.961 198.77 194.958C198.77 197.955 201.199 200.385 204.196 200.385Z" fill="#CED4E7"/>
<path d="M323.67 42.1289C323.606 42.1137 323.543 42.1017 323.479 42.0917C323.448 42.0857 323.416 42.0798 323.384 42.0764C323.318 42.0625 323.253 42.0525 323.187 42.0452C323.085 42.0312 322.985 42.0179 322.883 42.01C322.823 42.002 322.762 41.996 322.702 41.992H322.692C322.607 41.984 322.524 41.98 322.437 41.9767C322.322 41.9707 322.206 41.9688 322.089 41.9688H81.2096C76.8744 41.9688 73.3594 45.4837 73.3594 49.819V186.797H329.939V49.8183C329.939 46.0255 327.248 42.8608 323.67 42.1289ZM319.762 173.114C319.762 174.293 318.807 175.249 317.627 175.249H85.6718C84.492 175.249 83.5368 174.293 83.5368 173.114V54.2812C83.5368 53.1013 84.492 52.1461 85.6718 52.1461H317.627C318.807 52.1461 319.762 53.1013 319.762 54.2812V173.114Z" fill="#373739"/>
<path d="M319.752 54.2757V173.108C319.752 174.288 318.797 175.244 317.617 175.244H85.6624C84.4825 175.244 83.5273 174.288 83.5273 173.108V54.2757C83.5273 53.0958 84.4825 52.1406 85.6624 52.1406H317.617C318.798 52.14 319.752 53.0951 319.752 54.2757Z" fill="#CED4E7"/>
<path d="M319.752 54.2757V65.49H83.5273V54.2757C83.5273 53.0958 84.4825 52.1406 85.6624 52.1406H317.617C318.798 52.14 319.752 53.0951 319.752 54.2757Z" fill="white"/>
<path d="M299.65 60.4444C300.652 60.4444 301.464 59.6322 301.464 58.6304C301.464 57.6286 300.652 56.8164 299.65 56.8164C298.648 56.8164 297.836 57.6286 297.836 58.6304C297.836 59.6322 298.648 60.4444 299.65 60.4444Z" fill="#F1625E"/>
<path d="M305.537 60.4444C306.538 60.4444 307.351 59.6322 307.351 58.6304C307.351 57.6286 306.538 56.8164 305.537 56.8164C304.535 56.8164 303.723 57.6286 303.723 58.6304C303.723 59.6322 304.535 60.4444 305.537 60.4444Z" fill="#00A86E"/>
<path d="M290.469 60.5496H105.779C104.889 60.5496 104.16 59.8211 104.16 58.9311V58.3295C104.16 57.4395 104.889 56.7109 105.779 56.7109H290.469C291.359 56.7109 292.087 57.4388 292.087 58.3295V58.9311C292.086 59.8218 291.359 60.5496 290.469 60.5496Z" fill="#D0DDED"/>
<path d="M92.0716 58.6338V60.4099C92.0716 60.6605 91.7998 60.8174 91.5831 60.6918L90.0449 59.8037L88.5068 58.9157C88.2894 58.79 88.2894 58.4763 88.5068 58.3513L90.0449 57.4633L91.5831 56.5752C91.8004 56.4503 92.0716 56.6065 92.0716 56.8571V58.6338Z" fill="#010101"/>
<path d="M94.7695 58.6338V60.4099C94.7695 60.6605 95.0414 60.8174 95.2581 60.6918L96.7962 59.8037L98.3344 58.9157C98.5517 58.79 98.5517 58.4763 98.3344 58.3513L96.7962 57.4633L95.2581 56.5752C95.0407 56.4503 94.7695 56.6065 94.7695 56.8571V58.6338Z" fill="#010101"/>
<path d="M309.807 60.1719L309.698 60.0622C309.528 59.8927 309.528 59.6168 309.698 59.4473L312.162 56.9826C312.332 56.8131 312.607 56.8131 312.778 56.9826L312.887 57.0923C313.057 57.2618 313.057 57.5376 312.887 57.7078L310.422 60.1719C310.252 60.342 309.977 60.342 309.807 60.1719Z" fill="#373739"/>
<path d="M312.778 60.1719L312.887 60.0622C313.057 59.8927 313.057 59.6168 312.887 59.4473L310.422 56.9826C310.252 56.8131 309.977 56.8131 309.807 56.9826L309.698 57.0923C309.528 57.2618 309.528 57.5376 309.698 57.7078L312.162 60.1719C312.333 60.342 312.608 60.342 312.778 60.1719Z" fill="#373739"/>
<path d="M288.144 170.464H114.495C112.138 170.464 110.227 168.553 110.227 166.195V72.468C110.227 70.1103 112.138 68.1992 114.495 68.1992H288.145C290.503 68.1992 292.414 70.1103 292.414 72.468V166.196C292.414 168.553 290.502 170.464 288.144 170.464Z" fill="white"/>
<path d="M160.502 143.499H118.328C117.221 143.499 116.324 142.601 116.324 141.495V119.578C116.324 118.471 117.222 117.574 118.328 117.574H160.502C161.608 117.574 162.505 118.472 162.505 119.578V141.495C162.505 142.601 161.608 143.499 160.502 143.499Z" fill="#CED4E7"/>
<path d="M283.455 100.213H241.281C240.175 100.213 239.277 99.3161 239.277 98.21V76.2925C239.277 75.1858 240.175 74.2891 241.281 74.2891H283.455C284.561 74.2891 285.458 75.1864 285.458 76.2925V98.21C285.458 99.3167 284.561 100.213 283.455 100.213Z" fill="#CED4E7"/>
<path d="M161.442 98.5235H117.315C116.729 98.5235 116.254 98.0489 116.254 97.4626V97.3656C116.254 96.7793 116.729 96.3047 117.315 96.3047H161.442C162.029 96.3047 162.503 96.7793 162.503 97.3656V97.4626C162.503 98.0489 162.028 98.5235 161.442 98.5235Z" fill="#CED4E7"/>
<path d="M161.442 89.1407H117.315C116.729 89.1407 116.254 88.6654 116.254 88.0798V87.9827C116.254 87.3965 116.729 86.9219 117.315 86.9219H161.442C162.029 86.9219 162.503 87.3965 162.503 87.9827V88.0798C162.503 88.6654 162.028 89.1407 161.442 89.1407Z" fill="#CED4E7"/>
<path d="M161.442 107.918H117.315C116.729 107.918 116.254 107.443 116.254 106.857V106.76C116.254 106.174 116.729 105.699 117.315 105.699H161.442C162.029 105.699 162.503 106.174 162.503 106.76V106.857C162.503 107.443 162.028 107.918 161.442 107.918Z" fill="#CED4E7"/>
<path d="M284.397 120.523H240.338C239.753 120.523 239.277 120.049 239.277 119.463V119.366C239.277 118.78 239.753 118.305 240.338 118.305H284.397C284.984 118.305 285.458 118.78 285.458 119.366V119.463C285.458 120.049 284.984 120.523 284.397 120.523Z" fill="#CED4E7"/>
<path d="M284.397 111.148H240.338C239.753 111.148 239.277 110.674 239.277 110.088V109.991C239.277 109.404 239.753 108.93 240.338 108.93H284.397C284.984 108.93 285.458 109.404 285.458 109.991V110.088C285.458 110.673 284.984 111.148 284.397 111.148Z" fill="#CED4E7"/>
<path d="M284.397 129.922H240.338C239.753 129.922 239.277 129.447 239.277 128.861V128.764C239.277 128.178 239.753 127.703 240.338 127.703H284.397C284.984 127.703 285.458 128.178 285.458 128.764V128.861C285.458 129.447 284.984 129.922 284.397 129.922Z" fill="#CED4E7"/>
<path d="M110.23 154.586H292.418V169.523C292.418 170.043 291.994 170.467 291.472 170.467H111.177C110.655 170.467 110.23 170.043 110.23 169.523V154.586Z" fill="#373739"/>
<path d="M279.347 160.466V159.12H281.031V157.922H278.747C278.416 157.922 278.148 158.19 278.148 158.521V160.466H279.347Z" fill="white"/>
<path d="M279.347 162.859H278.148V164.907C278.148 165.238 278.416 165.506 278.747 165.506H281.031V164.308H279.347V162.859Z" fill="white"/>
<path d="M284.55 160.466H285.748V158.521C285.748 158.19 285.48 157.922 285.149 157.922H282.953V159.12H284.55V160.466Z" fill="white"/>
<path d="M284.55 162.859V164.308H282.953V165.507H285.149C285.48 165.507 285.748 165.239 285.748 164.908V162.86H284.55V162.859Z" fill="white"/>
<path d="M292.414 151.598H110.227V154.584H292.414V151.598Z" fill="#CED4E7"/>
<path d="M123.457 71.3125H125.512V75.8153H128.264V77.4086H123.457V71.3125Z" fill="#373739"/>
<path d="M128.82 71.3125H130.876V77.4086H128.82V71.3125Z" fill="#373739"/>
<path d="M138.399 71.3125L135.821 77.4086H133.8L131.223 71.3125H133.435L134.889 74.8747L136.379 71.3125H138.399Z" fill="#373739"/>
<path d="M143.662 75.8585V77.4086H138.594V71.3125H143.549V72.8626H140.614V73.5772H143.192V75.0575H140.614V75.8591L143.662 75.8585Z" fill="#373739"/>
<path d="M117.569 76.8179C118.954 76.8179 120.076 75.6957 120.076 74.3113C120.076 72.9269 118.954 71.8047 117.569 71.8047C116.185 71.8047 115.062 72.9269 115.062 74.3113C115.062 75.6957 116.185 76.8179 117.569 76.8179Z" fill="#F1625E"/>
<path d="M266.507 143.67C267.723 143.67 268.709 142.684 268.709 141.468C268.709 140.252 267.723 139.266 266.507 139.266C265.291 139.266 264.305 140.252 264.305 141.468C264.305 142.684 265.291 143.67 266.507 143.67Z" fill="#F1625E"/>
<path d="M270.615 147.045H262.383C262.383 147.045 263.318 144.43 266.437 144.43C266.459 144.43 266.479 144.432 266.499 144.432C266.52 144.432 266.539 144.43 266.562 144.43C269.68 144.43 270.615 147.045 270.615 147.045Z" fill="#F1625E"/>
<path d="M278.212 140.137V141.518L275.994 146.803H273.537L275.651 141.88H274.365V142.851H272.508V140.137H278.212Z" fill="#373739"/>
<path d="M284.054 145.06V146.803H278.711V145.422L281.121 143.194C281.578 142.765 281.645 142.508 281.645 142.28C281.645 141.956 281.426 141.756 280.997 141.756C280.596 141.756 280.216 141.975 280.015 142.375L278.32 141.527C278.806 140.613 279.768 139.984 281.206 139.984C282.787 139.984 283.901 140.803 283.901 142.07C283.901 142.727 283.73 143.317 282.759 144.193L281.806 145.06H284.054Z" fill="#373739"/>
<path d="M181.74 76.8103C181.74 76.8103 183.381 82.0907 187.495 82.5035C190.818 82.8359 193.417 79.3255 194.295 77.9642C194.505 77.6378 194.615 77.4358 194.615 77.4358C194.615 77.4358 194.858 77.4271 195.213 77.3719C196.051 77.2443 197.516 76.8648 197.955 75.7527C198.582 74.1687 195.417 73.5877 195.417 73.5877C195.417 73.5877 196.775 71.9858 196.246 71.0333C195.725 70.096 193.615 70.1798 193.615 70.1798C193.615 70.1798 195.652 68.413 194.725 67.2484C193.332 65.4982 191.307 67.9204 191.139 68.062C191.262 67.8739 196.485 59.9366 194.82 59.6182C193.367 59.3397 188.567 65.7468 187.283 67.5017C187.079 67.7788 186.964 67.9404 186.964 67.9404C186.964 67.9404 186.865 67.8845 186.692 67.8021C185.873 67.4053 183.383 66.3829 182.088 67.8121C180.523 69.5383 181.74 76.8103 181.74 76.8103Z" fill="#F79B7B"/>
<path d="M191.893 74.5543C191.269 75.0528 190.751 75.681 190.63 76.2579C190.554 76.6302 190.642 76.9572 190.888 77.2038C191.058 77.374 191.322 77.5069 191.642 77.61C192.438 77.8685 193.559 77.943 194.306 77.9616C194.516 77.6352 194.625 77.4331 194.625 77.4331C194.625 77.4331 194.869 77.4258 195.226 77.37C195.176 77.3394 195.116 77.3241 195.053 77.3261C193.866 77.3527 191.805 77.2224 191.339 76.7531C191.279 76.6913 191.213 76.593 191.255 76.3862C191.387 75.7528 192.411 74.7942 193.359 74.416C193.512 74.3562 193.594 74.194 193.55 74.0371C193.508 73.8776 193.352 73.7792 193.193 73.8052C192.414 73.9281 190.248 74.095 189.568 73.4123C189.47 73.3126 189.483 73.2495 189.491 73.2169C189.522 73.0673 189.681 72.8925 189.909 72.713C190.373 72.3481 191.126 71.9659 191.682 71.7492C191.746 71.7233 191.796 71.6821 191.83 71.6282C191.887 71.5445 191.903 71.4361 191.863 71.3364C191.799 71.1716 191.615 71.0905 191.449 71.155C191.201 71.252 190.329 71.6096 189.663 72.0982C189.421 72.277 189.204 72.4731 189.057 72.6805C188.962 72.8114 188.896 72.947 188.865 73.0859C188.824 73.2827 188.835 73.5778 189.117 73.8623C189.717 74.4645 190.925 74.5769 191.893 74.5543Z" fill="#F06B3F"/>
<path d="M188.758 69.9233C188.854 70.0137 188.884 70.152 188.834 70.2723C188.671 70.6558 188.588 71.0174 188.626 71.2787C188.658 71.4854 188.753 71.5558 188.832 71.5931C188.961 71.6529 189.153 71.6742 189.387 71.6642C189.967 71.6409 190.804 71.4329 191.554 71.1942C191.52 71.2481 191.469 71.2893 191.405 71.3152C190.85 71.5319 190.097 71.9135 189.633 72.279C189.557 72.2864 189.481 72.291 189.409 72.2943C189.177 72.3023 188.962 72.2897 188.782 72.2465C188.701 72.2265 188.629 72.2033 188.562 72.1714C188.247 72.0238 188.051 71.7466 187.996 71.3717C187.939 70.9769 188.043 70.499 188.245 70.0197C188.331 69.8163 188.591 69.7638 188.751 69.916C188.753 69.9187 188.756 69.9213 188.758 69.9233Z" fill="#F06B3F"/>
<path d="M183.111 70.9897C183.179 71.0349 184.22 71.7168 185.379 72.0924C186.021 72.3005 186.699 72.4155 187.268 72.2745C187.737 72.1582 188.091 71.8877 188.321 71.4696C189.135 69.9846 188.033 68.3474 187.302 67.5039C187.098 67.7811 186.984 67.9426 186.984 67.9426C186.984 67.9426 186.884 67.8868 186.711 67.8044C187.335 68.4963 188.422 69.9607 187.761 71.1631C187.621 71.4224 187.41 71.5839 187.115 71.6564C186.018 71.9289 184.107 70.8846 183.463 70.4592C183.316 70.3615 183.117 70.4014 183.021 70.549C182.924 70.6945 182.966 70.8919 183.111 70.9897Z" fill="#F06B3F"/>
<path d="M186.352 79.5694C186.455 79.6033 186.575 79.582 186.663 79.5036C186.794 79.386 186.805 79.1845 186.688 79.0529C186.054 78.3463 185.782 77.5726 185.876 76.7544C186.119 74.6572 188.63 72.8791 188.656 72.8618C188.8 72.7608 188.836 72.562 188.734 72.4178C188.632 72.2735 188.434 72.2377 188.29 72.3387C188.177 72.4178 185.518 74.3022 185.241 76.6812C185.126 77.6889 185.452 78.6302 186.213 79.4783C186.252 79.5215 186.3 79.5521 186.352 79.5694Z" fill="#F06B3F"/>
<path d="M146.595 53.3906L149.832 61.5825C150.317 62.9538 150.809 64.3205 151.308 65.6811C151.801 67.0438 152.296 68.4031 152.801 69.7511C153.311 71.0972 153.812 72.4406 154.326 73.7653C154.839 75.0888 155.367 76.3969 155.901 77.6672C156.427 78.9361 156.97 80.1811 157.509 81.2879C157.775 81.8369 158.045 82.3521 158.271 82.7542L158.423 83.0188L158.485 83.1251C158.499 83.1491 158.499 83.155 158.504 83.1717C158.523 83.2235 158.533 83.2594 158.538 83.2873C158.547 83.3431 158.527 83.3717 158.55 83.4236C158.569 83.4748 158.647 83.5452 158.818 83.6203C159.157 83.7706 159.886 83.8816 160.806 83.8377C161.727 83.7971 162.817 83.6124 163.954 83.3225C165.092 83.0281 166.292 82.6512 167.5 82.1939C169.922 81.2752 172.4 80.1133 174.846 78.8132C177.298 77.5203 179.1 76.474 181.484 74.9811C182.245 78.518 184.749 81.3756 188.372 82.7376C186.051 84.8514 183.621 86.8149 181.058 88.6828C178.486 90.536 175.79 92.2942 172.818 93.8423C171.33 94.6147 169.779 95.3518 168.098 95.9806C166.42 96.6101 164.625 97.1632 162.606 97.5121C161.596 97.683 160.528 97.8066 159.385 97.8232C158.243 97.8398 157.026 97.7614 155.749 97.5154C154.474 97.2682 153.138 96.8514 151.847 96.21C150.555 95.5758 149.326 94.7203 148.279 93.7366C147.754 93.246 147.272 92.7255 146.837 92.1911L146.523 91.7923L146.265 91.4446C146.176 91.325 146.106 91.222 146.027 91.1103C145.952 91.002 145.869 90.887 145.801 90.7846C145.228 89.9384 144.76 89.166 144.321 88.4122C143.452 86.91 142.71 85.4822 141.996 84.059C141.291 82.6359 140.636 81.2254 139.994 79.8195C139.355 78.4137 138.734 77.0131 138.144 75.6066C137.55 74.2021 136.966 72.7995 136.398 71.3943C135.836 69.9871 135.284 68.5799 134.741 67.1714C134.205 65.7589 133.675 64.3471 133.16 62.9286L132.399 60.7955L132.028 59.7213C131.902 59.3584 131.785 59.0107 131.656 58.6232L146.595 53.3906Z" fill="#00A86E"/>
<path d="M155.416 87.4469C155.54 87.4469 155.662 87.3904 155.743 87.2834C155.758 87.2628 157.316 85.1975 158.676 84.2251C158.86 84.0941 158.903 83.8389 158.772 83.6554C158.641 83.472 158.385 83.4294 158.202 83.5604C156.738 84.6066 155.157 86.7044 155.09 86.7935C154.954 86.9736 154.991 87.2302 155.171 87.3652C155.245 87.4203 155.33 87.4469 155.416 87.4469Z" fill="#007F57"/>
<path d="M158.195 87.8585C158.224 87.8585 158.254 87.8552 158.284 87.8486C158.504 87.8001 158.643 87.582 158.595 87.362C158.591 87.3447 158.214 85.6045 158.589 84.2944C158.651 84.0777 158.525 83.851 158.308 83.7892C158.092 83.7274 157.865 83.853 157.803 84.0697C157.371 85.5819 157.78 87.4597 157.797 87.5388C157.84 87.7289 158.008 87.8585 158.195 87.8585Z" fill="#007F57"/>
<path d="M154.386 131.505C146.824 135.859 128.537 138.102 116.61 133.364C112.233 131.626 111.467 130.558 111.798 122.701C111.81 122.409 111.823 122.116 111.839 121.826C111.872 121.207 111.911 120.59 111.956 119.979C111.978 119.683 112.001 119.387 112.025 119.095C112.114 117.998 112.221 116.922 112.336 115.89C112.368 115.604 112.401 115.324 112.433 115.045C112.706 112.743 113.14 110.676 113.543 109.078C113.616 108.789 113.689 108.516 113.758 108.258C114.18 106.69 114.523 105.749 114.523 105.749C116.447 106.058 118.428 106.24 120.419 106.32C120.701 106.331 120.982 106.341 121.264 106.348C131.58 106.621 142.077 104.284 146.941 103.02C147.235 102.943 147.507 102.871 147.757 102.803C149.022 102.464 149.735 102.242 149.735 102.242C149.735 102.242 150.182 103.023 150.808 104.311C150.923 104.549 151.045 104.805 151.171 105.075C152.161 107.2 153.425 110.286 154.144 113.503C154.154 113.542 154.162 113.582 154.171 113.621C154.232 113.899 154.293 114.177 154.351 114.458C154.363 114.514 154.375 114.57 154.387 114.627C154.88 116.962 155.33 119.41 155.636 121.751V121.753C155.677 122.054 155.712 122.353 155.748 122.649C156.343 127.786 156.433 130.326 154.386 131.505Z" fill="#373739"/>
<path d="M154.383 114.636C154.364 114.627 154.346 114.617 154.327 114.607C152.789 113.77 151.435 112.503 150.27 110.821C150.113 110.593 149.959 110.356 149.807 110.111H149.805C148.632 108.211 147.674 105.846 146.938 103.029C147.231 102.953 147.504 102.88 147.754 102.812C148.479 105.588 149.421 107.902 150.571 109.737C150.722 109.983 150.881 110.219 151.041 110.447C151.954 111.748 152.989 112.772 154.14 113.512C154.15 113.551 154.158 113.591 154.167 113.63C154.227 113.907 154.289 114.186 154.347 114.467C154.359 114.523 154.371 114.579 154.383 114.636Z" fill="#585859"/>
<path d="M121.285 106.353C120.949 109.317 120.29 111.825 119.315 113.865C119.187 114.133 119.052 114.394 118.911 114.646C118.116 116.089 117.138 117.265 115.985 118.168C114.574 119.273 113.14 119.773 111.977 119.983C111.998 119.688 112.022 119.392 112.046 119.099C113.065 118.887 114.288 118.429 115.48 117.49C116.474 116.709 117.326 115.703 118.038 114.478C118.184 114.228 118.324 113.969 118.455 113.703C119.438 111.73 120.1 109.266 120.44 106.324C120.721 106.337 121.002 106.347 121.285 106.353Z" fill="#585859"/>
<path d="M151.221 105.084C150.637 105.341 150.011 105.608 149.341 105.878C149.083 105.983 148.817 106.09 148.546 106.195C144.653 107.714 139.553 109.278 134.049 109.844C133.838 109.864 133.627 109.886 133.415 109.905C128.422 110.361 123.34 110.151 119.153 109.76C118.854 109.731 118.557 109.704 118.267 109.672C116.499 109.491 114.913 109.283 113.594 109.087C113.666 108.798 113.739 108.525 113.808 108.267C115.162 108.467 116.793 108.68 118.612 108.862C118.899 108.89 119.19 108.918 119.485 108.945C123.755 109.333 128.929 109.525 133.964 109.005C139.333 108.45 144.315 106.934 148.135 105.451H148.137C148.407 105.347 148.669 105.242 148.926 105.137C149.616 104.859 150.262 104.584 150.859 104.32C150.974 104.558 151.096 104.813 151.221 105.084Z" fill="#585859"/>
<path d="M162.914 167.451C161.81 150.395 159.302 134.582 155.632 121.766L135.352 131.21C135.98 146.733 139.103 157.487 142.69 167.451H162.914Z" fill="#373739"/>
<path d="M145.988 167.453C140.102 150.667 139.072 136.935 139.06 136.759C139.044 136.527 138.84 136.352 138.609 136.368C138.375 136.384 138.199 136.586 138.216 136.818C138.229 136.994 139.256 150.678 145.094 167.453H145.988Z" fill="#585859"/>
<path d="M131.311 167.439C132.562 155.324 134.007 140.442 134.188 134.679L111.786 122.703C111.786 122.703 107.839 136.332 110.426 167.439H131.311Z" fill="#373739"/>
<path d="M129.288 167.441L133.046 136.413C133.078 136.15 132.89 135.911 132.626 135.879C132.363 135.846 132.124 136.034 132.092 136.298L128.32 167.441H129.288Z" fill="#585859"/>
<path d="M136.191 131.925C136.219 132.156 136.427 132.321 136.657 132.295C136.659 132.295 136.659 132.295 136.661 132.295C136.893 132.267 137.058 132.057 137.03 131.824C136.842 130.251 136.662 128.636 136.491 127.022C136.46 126.738 136.43 126.454 136.402 126.17C135.853 120.894 135.409 115.698 135.115 112.027C135.092 111.73 135.069 111.442 135.047 111.165C134.984 110.36 134.929 109.645 134.883 109.039C134.599 109.042 134.316 109.043 134.035 109.042C134.081 109.648 134.136 110.37 134.201 111.184C134.221 111.461 134.245 111.749 134.269 112.046C134.56 115.685 135 120.836 135.543 126.08C135.572 126.369 135.603 126.66 135.632 126.949C135.81 128.621 135.996 130.296 136.191 131.925Z" fill="#585859"/>
<path d="M134.036 126.619C134.176 126.661 134.807 126.842 135.588 126.947C135.861 126.984 136.151 127.011 136.446 127.02C136.716 127.028 136.987 127.02 137.253 126.991C137.762 126.934 138.239 126.795 138.612 126.524C139.076 126.186 139.328 125.673 139.339 125.042C139.372 123.38 138.891 116.622 138.53 111.846C138.509 111.552 138.487 111.265 138.466 110.987C138.407 110.223 138.353 109.528 138.307 108.938C138.026 108.951 137.743 108.963 137.461 108.973C137.507 109.567 137.562 110.27 137.62 111.044C137.641 111.32 137.663 111.608 137.686 111.903C138.044 116.667 138.526 123.416 138.494 125.027C138.488 125.398 138.367 125.656 138.114 125.842C137.711 126.136 137.041 126.204 136.358 126.169C136.067 126.154 135.774 126.12 135.499 126.078C134.995 126 134.549 125.89 134.278 125.81C134.055 125.743 133.819 125.87 133.752 126.094C133.685 126.318 133.812 126.552 134.036 126.619Z" fill="#585859"/>
<path d="M108.555 60.2558L140.885 59.4229C139.883 58.0191 139.975 44.6212 139.527 41.854C139.065 38.999 139.421 33.337 139.849 28.7126C140.67 19.8308 133.463 12.2218 124.553 12.6585C124.419 12.6652 124.284 12.6725 124.149 12.6811C110.559 13.5466 109.558 25.191 110.823 32.2422C111.977 38.664 112.786 56.1632 108.555 60.2558Z" fill="#373739"/>
<path d="M115.566 102.242L118.173 113.174C124.686 112.654 132.392 111.712 138.194 108.712C138.194 108.712 145.926 111.313 149.846 110.099L146.977 102.243H115.566V102.242Z" fill="white"/>
<path d="M153.832 110.336C146.322 110.287 141.813 109.313 137.716 105.959C130.035 113.942 111.057 114.247 111.057 114.247C112.957 108.116 113.576 97.2789 113.576 97.2789C113.424 96.1522 113.345 94.9823 113.226 93.7958C113.107 92.6106 112.949 91.4102 112.64 90.225C110.768 84.8196 108.577 80.9436 106.628 75.3587C106.503 74.9951 106.373 74.6369 106.244 74.2733C106.16 74.0373 106.074 73.8027 105.986 73.5667C105.345 71.8198 104.658 70.0783 103.936 68.4005C100.794 61.0794 100.287 52.8277 107.844 50.3098C108.394 50.127 108.934 49.9515 109.461 49.784C113.036 48.654 116.014 47.9115 116.844 47.7114C116.995 47.6749 117.072 47.6562 117.072 47.6562L132.938 48.9711L134.447 49.0967C136.664 49.3446 139.013 49.2808 140.498 49.6085C141.804 49.8963 142.595 49.8259 143.924 50.218C147.051 51.1433 146.962 55.3463 147.934 60.5709C147.95 60.6607 147.967 60.7504 147.982 60.8434C147.989 60.8714 147.996 60.9039 148.001 60.9312C148.172 61.8199 148.376 62.6987 148.604 63.5668C148.861 64.5386 149.146 65.4978 149.446 66.4337C151.276 72.1715 153.481 74.8057 153.106 78.4164C152.763 81.6855 149.428 86.1457 148.542 87.0969C148.337 87.3156 148.217 87.4325 148.217 87.4325C148.219 87.4478 148.221 87.4651 148.224 87.4824C148.237 87.6114 148.251 87.7496 148.271 87.8945C148.338 88.4456 148.434 89.1003 148.556 89.8408C148.83 92.602 149.22 95.1033 149.662 97.3327C149.902 98.5339 150.157 99.6566 150.421 100.698C152.004 106.993 153.832 110.336 153.832 110.336Z" fill="#00A86E"/>
<path d="M150.421 100.696C148.276 101.835 146.539 102.591 146.539 102.591L144.938 99.5768C146.472 99.027 148.115 98.2075 149.662 97.332C150.013 98.2666 150.34 99.2145 150.421 100.696Z" fill="#007F57"/>
<path d="M115.8 97.875C115.8 97.875 123.02 100.939 128.361 101.456L127.545 104.772C127.545 104.772 118.793 103.327 115.285 100.833L115.8 97.875Z" fill="#007F57"/>
<path d="M149.519 86.6124C149.626 86.6124 149.734 86.5699 149.814 86.4855C150.011 86.2794 154.593 81.3892 152.996 76.9263C152.552 75.6866 152.036 74.4336 151.488 73.1075C149.829 69.082 147.947 64.5201 147.465 58.6022C147.446 58.3775 147.248 58.2094 147.024 58.228C146.799 58.2459 146.632 58.4433 146.65 58.6687C147.143 64.7135 149.05 69.3386 150.733 73.4186C151.275 74.7354 151.789 75.9797 152.226 77.2008C153.653 81.1891 149.266 85.8753 149.221 85.9225C149.066 86.086 149.073 86.3446 149.235 86.5001C149.316 86.5752 149.418 86.6124 149.519 86.6124Z" fill="#007F57"/>
<path d="M135.289 70.0705C135.781 70.0705 136.18 69.6717 136.18 69.1798C136.18 68.6878 135.781 68.2891 135.289 68.2891C134.797 68.2891 134.398 68.6878 134.398 69.1798C134.398 69.6717 134.797 70.0705 135.289 70.0705Z" fill="#007F57"/>
<path d="M136.609 77.9481C137.1 77.9481 137.499 77.5496 137.499 77.058C137.499 76.5665 137.1 76.168 136.609 76.168C136.117 76.168 135.719 76.5665 135.719 77.058C135.719 77.5496 136.117 77.9481 136.609 77.9481Z" fill="#007F57"/>
<path d="M137.43 85.9767C137.922 85.9767 138.32 85.5779 138.32 85.086C138.32 84.5941 137.922 84.1953 137.43 84.1953C136.938 84.1953 136.539 84.5941 136.539 85.086C136.539 85.5779 136.938 85.9767 137.43 85.9767Z" fill="#007F57"/>
<path d="M137.749 94.2176C138.241 94.2176 138.639 93.8191 138.639 93.3276C138.639 92.836 138.241 92.4375 137.749 92.4375C137.258 92.4375 136.859 92.836 136.859 93.3276C136.859 93.8191 137.258 94.2176 137.749 94.2176Z" fill="#007F57"/>
<path d="M137.707 102.797C138.199 102.797 138.598 102.398 138.598 101.906C138.598 101.414 138.199 101.016 137.707 101.016C137.215 101.016 136.816 101.414 136.816 101.906C136.816 102.398 137.215 102.797 137.707 102.797Z" fill="#007F57"/>
<path d="M131.121 48.9661C131.121 48.9661 134.568 48.655 136.982 49.2958L136.72 58.3465L134.66 58.7892L136.394 60.4962L134.314 66.5683C134.316 66.5683 131.473 56.4641 131.121 48.9661Z" fill="#007F57"/>
<path d="M117.082 47.6562L110.777 49.3805L118.18 59.2189L123.731 58.7762L121.784 63.0204L134.319 66.5553C134.319 66.5553 119.801 52.7685 118.64 47.7845L117.082 47.6562Z" fill="#007F57"/>
<path d="M118.176 48.3945C118.176 48.3945 121.796 56.1045 134.315 66.5571C134.315 66.5571 133.645 58.3353 131.126 49.5212C131.126 49.5212 123.758 52.087 118.176 48.3945Z" fill="white"/>
<path d="M136.071 73.0221C131.948 73.0221 123.535 67.1168 123.179 66.8655C123.026 66.7579 122.989 66.5465 123.097 66.3936C123.205 66.2407 123.416 66.2041 123.569 66.3118C123.654 66.3723 132.162 72.3447 136.071 72.3447C139.811 72.3447 140.64 68.2594 140.648 68.2182C140.684 68.0348 140.86 67.9138 141.045 67.9497C141.228 67.9849 141.349 68.1624 141.313 68.3465C141.304 68.3924 140.364 73.0221 136.071 73.0221Z" fill="#007F57"/>
<path d="M131.12 48.9549L131.29 51.0919C131.606 55.0742 128.774 56.2042 124.65 54.0938C121.394 52.4267 118.628 49.936 118.176 48.3945L131.12 48.9549Z" fill="#F79B7B"/>
<path d="M125.213 89.6282C125.281 89.7452 125.403 89.811 125.531 89.811C125.594 89.811 125.656 89.7964 125.712 89.7638C125.773 89.7293 131.729 86.3732 139 87.793C142.695 88.5142 145.835 88.4411 148.274 87.8953C148.256 87.7511 148.239 87.6135 148.227 87.4839C148.225 87.4653 148.223 87.4486 148.221 87.4327C148.221 87.4327 148.342 87.3157 148.544 87.0977C146.16 87.7032 142.969 87.8202 139.141 87.0738C131.594 85.6008 125.599 88.9841 125.349 89.1284C125.172 89.2294 125.112 89.4521 125.213 89.6282Z" fill="#007F57"/>
<path d="M137.908 22.3672C137.908 22.3672 139.738 29.552 138.565 30.805C137.392 32.058 135.66 29.3679 135.66 29.3679C135.66 29.3679 136.514 22.6557 137.908 22.3672Z" fill="#373739"/>
<path d="M135.879 31.876C135.879 31.876 137.771 29.6413 138.84 31.876C139.909 34.1115 139.087 38.6355 136.208 37.895L135.879 31.876Z" fill="#F06B3F"/>
<path d="M134.197 37.4329C133.144 37.9235 132.413 38.991 132.413 40.2267C132.413 41.9257 133.795 43.3083 135.495 43.3083C137.195 43.3083 138.577 41.9257 138.577 40.2267C138.577 39.0063 137.864 37.9494 136.832 37.4509C136.479 37.2794 136.089 37.1744 135.678 37.1504C135.604 36.9603 135.54 36.7662 135.459 36.5795C135.472 36.5795 135.482 36.5781 135.496 36.5781C136.001 36.5781 136.482 36.6812 136.92 36.8686C138.226 37.4236 139.144 38.7205 139.144 40.2267C139.144 42.2381 137.508 43.8747 135.496 43.8747C133.485 43.8747 131.848 42.2381 131.848 40.2267C131.848 38.872 132.59 37.6875 133.69 37.0587L134.197 37.4329Z" fill="white"/>
<path d="M131.106 43.35V49.5145C131.106 49.5145 127.856 54.8368 118.156 48.3878C119.994 46.3365 120.049 42.3722 119.306 40.0078C119.306 40.0078 120.016 40.4871 121.193 41.0102C121.433 41.1179 121.691 41.2302 121.965 41.3459C124.391 42.3642 128.037 43.5879 131.106 43.35Z" fill="#F79B7B"/>
<path d="M131.089 43.3469V46.2324C128.452 45.6455 123.828 44.2071 121.176 41.0078C121.416 41.1155 121.674 41.2278 121.948 41.3435C124.374 42.3612 128.02 43.5849 131.089 43.3469Z" fill="#373739"/>
<path d="M136.367 41.3525C131.188 46.71 119.693 40.3155 119.323 40.1081C119.318 40.1048 119.314 40.1022 119.314 40.1022C119.208 39.6229 119.113 39.1463 119.026 38.6764C118.294 34.6914 118.248 30.9903 118.653 27.4733C118.459 23.7649 120.667 20.3117 124.155 19.0395C127.77 17.7227 131.012 19.3113 132.96 19.9122C135.9 20.8189 137.75 24.619 137.766 30.0331C137.789 36.6782 137.653 40.0217 136.367 41.3525Z" fill="#F79B7B"/>
<path d="M137.167 23.8387C135.97 24.0036 134.741 24.1339 133.479 24.2322L132.786 20.9226L132.563 24.2994C130.237 24.4562 127.821 24.5181 125.345 24.5207L125.037 21.0343L124.358 24.5194C122.525 24.5108 120.663 24.4742 118.787 24.4223C117.287 17.4781 124.815 14.4517 131.147 15.8948C137.48 17.3392 137.167 23.8387 137.167 23.8387Z" fill="#373739"/>
<path d="M123.59 22.3684C123.59 22.3684 121.257 25.4793 122.535 28.3674C123.812 31.2556 122.924 34.0886 122.313 36.1997C122.313 36.1997 120.99 31.5487 117.874 30.68C114.758 29.8112 116.368 21.2849 123.59 22.3684Z" fill="#373739"/>
<path d="M131.914 38.4142C132.597 38.5179 133.15 38.3345 133.185 38.3232C133.301 38.284 133.363 38.1577 133.323 38.0427C133.283 37.927 133.158 37.8659 133.042 37.9051C133.032 37.9084 131.96 38.2567 131.067 37.6053C130.968 37.5328 130.83 37.5548 130.758 37.6531C130.686 37.7515 130.706 37.8898 130.805 37.9622C131.174 38.2314 131.562 38.3611 131.914 38.4142Z" fill="#F06B3F"/>
<path d="M135.233 34.9458C135.233 34.9458 131.632 36.2034 128.926 34.418C128.926 34.418 129.876 36.8541 132.208 37.0848C134.541 37.3148 135.233 34.9458 135.233 34.9458Z" fill="white"/>
<path d="M129.493 25.0781C129.493 25.0781 130.568 25.1845 130.19 26.1696C129.814 27.1547 127.657 26.0692 126.114 27.8839C126.114 27.8839 125.457 25.5208 129.493 25.0781Z" fill="#373739"/>
<path d="M134.36 25.0781C134.36 25.0781 133.285 25.1845 133.662 26.1696C134.04 27.1547 136.196 26.0692 137.739 27.8839C137.739 27.8839 138.395 25.5208 134.36 25.0781Z" fill="#373739"/>
<g opacity="0.8">
<path d="M126.607 33.3082C127.881 33.3082 128.914 32.9017 128.914 32.4002C128.914 31.8987 127.881 31.4922 126.607 31.4922C125.333 31.4922 124.301 31.8987 124.301 32.4002C124.301 32.9017 125.333 33.3082 126.607 33.3082Z" fill="#F06B3F"/>
</g>
<path d="M138.315 33.2822C138.137 33.2995 137.95 33.3088 137.759 33.3088C136.486 33.3088 135.453 32.902 135.453 32.4002C135.453 31.899 136.486 31.4922 137.759 31.4922C137.931 31.4922 138.099 31.5002 138.26 31.5141L138.315 33.2822Z" fill="#F06B3F"/>
<path d="M128.436 31.2518C128.822 31.2518 129.134 30.6935 129.134 30.0048C129.134 29.3161 128.822 28.7578 128.436 28.7578C128.051 28.7578 127.738 29.3161 127.738 30.0048C127.738 30.6935 128.051 31.2518 128.436 31.2518Z" fill="#373739"/>
<path d="M135.268 31.2518C135.653 31.2518 135.965 30.6935 135.965 30.0048C135.965 29.3161 135.653 28.7578 135.268 28.7578C134.882 28.7578 134.57 29.3161 134.57 30.0048C134.57 30.6935 134.882 31.2518 135.268 31.2518Z" fill="#373739"/>
<path d="M133.307 32.6566C133.637 32.6566 133.86 32.6014 133.878 32.5968C133.956 32.5768 134.021 32.5263 134.058 32.4565C134.096 32.3867 134.102 32.3043 134.076 32.2292L133.028 29.2254C132.976 29.0771 132.815 28.9994 132.667 29.0512C132.518 29.1031 132.441 29.2646 132.493 29.4122L133.426 32.0863C133.141 32.1002 132.7 32.0703 132.265 31.8364C132.128 31.7626 131.955 31.8138 131.882 31.9514C131.807 32.0896 131.859 32.2611 131.997 32.3349C132.476 32.5935 132.953 32.6566 133.307 32.6566Z" fill="#373739"/>
<path d="M121.573 37.3047C121.54 37.3818 120.634 39.4816 119.332 40.0985C119.331 40.0985 119.33 40.0991 119.33 40.0991C119.326 40.0945 119.323 40.0925 119.323 40.0925C119.217 39.6132 119.122 39.1366 119.035 38.6667C119.084 38.6587 120.399 38.43 121.573 37.3047Z" fill="#373739"/>
<path d="M120.297 32.5118C120.297 32.5118 117.543 28.8133 115.526 31.7194C113.864 34.115 116.994 40.4916 120.36 38.1618L120.297 32.5118Z" fill="#F79B7B"/>
<path d="M117.467 38.2041C116.414 38.6947 115.682 39.7762 115.682 41.0119C115.682 42.7109 117.065 44.0935 118.764 44.0935C120.465 44.0935 121.846 42.7109 121.846 41.0119C121.846 39.7915 121.133 38.7352 120.102 38.236C119.748 38.0652 119.359 37.9595 118.947 37.9356C118.873 37.7448 118.81 37.5514 118.728 37.3646C118.741 37.3646 118.752 37.3633 118.764 37.3633C119.27 37.3633 119.752 37.4663 120.19 37.6538C121.495 38.2095 122.414 39.5056 122.414 41.0119C122.414 43.0233 120.777 44.6605 118.765 44.6605C116.754 44.6605 115.117 43.024 115.117 41.0119C115.117 39.6572 115.882 38.4501 116.982 37.8206C117.137 37.9615 117.297 38.0958 117.467 38.2041Z" fill="white"/>
<path d="M119.944 37.1188C119.955 37.1188 119.965 37.1181 119.976 37.1168C120.131 37.1002 120.244 36.9599 120.227 36.8044C119.883 33.659 117.236 32.5688 117.123 32.5243C116.978 32.4658 116.813 32.5376 116.754 32.6825C116.697 32.8274 116.768 32.9923 116.913 33.0501C117.016 33.092 119.358 34.0684 119.663 36.8655C119.679 37.0111 119.802 37.1188 119.944 37.1188Z" fill="#373739"/>
<path d="M117.289 35.3879C117.351 35.3879 117.414 35.3673 117.467 35.3241C117.713 35.1247 118.46 34.6334 118.948 34.7591C119.101 34.7976 119.254 34.7059 119.293 34.5543C119.333 34.4028 119.241 34.2486 119.089 34.2094C118.238 33.9913 117.222 34.7916 117.109 34.884C116.987 34.9831 116.969 35.1612 117.067 35.2829C117.124 35.352 117.206 35.3879 117.289 35.3879Z" fill="#373739"/>
<path d="M98.4821 91.0742C98.4821 91.0742 99.3868 93.0251 98.3425 97.2919C97.2983 101.559 95.5487 104.231 95.5487 104.231C95.5487 104.231 91.1743 97.5904 98.4821 91.0742Z" fill="#007F57"/>
<path d="M79.1442 86.9683C79.1548 87.1836 79.1701 87.3977 79.1893 87.6097C79.2166 87.8204 79.2465 88.0298 79.2817 88.2385C79.2997 88.3409 79.3163 88.4472 79.3389 88.5476L79.4094 88.8487C79.5981 89.6603 79.886 90.3822 80.205 91.0476C80.3679 91.3653 80.5414 91.691 80.7202 91.9702C80.8112 92.1111 80.901 92.2587 80.9947 92.395L81.2752 92.7871C82.035 93.8174 82.8353 94.5858 83.6177 95.2472C84.4013 95.9053 85.1784 96.4424 85.9382 96.9296C86.3184 97.1749 86.6973 97.3969 87.0728 97.6143C87.4484 97.8323 87.82 98.0357 88.1915 98.2338C88.9373 98.6213 89.6685 98.9822 90.3997 99.3153C91.8614 99.9833 93.3125 100.549 94.7595 101.063C96.2046 101.576 97.6484 102.032 99.0881 102.45C100.529 102.875 101.968 103.26 103.409 103.614C104.851 103.969 106.296 104.289 107.747 104.594C108.274 104.703 108.993 104.774 109.752 104.831C110.911 104.92 112.165 104.983 112.989 105.122C113.186 103.926 112.176 102.961 112.376 101.765C112.608 100.368 112.84 98.9676 113.095 97.5724L112.516 96.3241C111.639 96.1147 110.758 95.888 109.879 95.6494C109.852 95.6414 109.826 95.6354 109.799 95.6274C108.519 95.2791 107.245 94.8956 105.985 94.4861C104.699 94.0714 103.426 93.63 102.172 93.16C100.923 92.6861 99.697 92.1803 98.5078 91.6452C97.3213 91.1081 96.1687 90.5411 95.0972 89.9375C94.5634 89.6364 94.041 89.33 93.5611 89.0043C93.3224 88.8434 93.0858 88.6832 92.8638 88.5184C92.6424 88.3535 92.4297 88.1853 92.2323 88.0178C91.9239 87.7626 91.6494 87.4994 91.4247 87.2521C91.3575 87.1803 91.2964 87.1098 91.2406 87.042L91.2306 87.0301L91.4366 86.7476L91.8056 86.2424C91.997 85.9792 92.1858 85.7146 92.3952 85.4454C92.8053 84.9097 93.2054 84.3759 93.6235 83.8388L94.8931 82.2282C95.7566 81.156 96.6121 80.0752 97.4961 79.0017L98.1549 78.1947L98.8229 77.3904L99.7575 76.2604L100.156 75.7792L100.64 75.1962L101.496 74.1679L102.849 72.5613C103.748 71.4891 104.65 70.4176 105.561 69.3488L110.988 62.9436L111.024 62.9031C113.311 60.2024 112.977 56.1583 110.278 53.8703C107.601 51.601 103.602 51.9141 101.302 54.5463L99.8771 56.1829L98.4793 57.816C98.014 58.3611 97.5533 58.9102 97.0947 59.4592C96.6347 60.0069 96.172 60.556 95.7167 61.1097C94.8041 62.2138 93.8961 63.3252 92.9914 64.4386L91.644 66.1183L91.4659 66.3436L90.304 67.81C89.8566 68.3723 89.4126 68.944 88.9719 69.5136L88.3098 70.3698L88.0134 70.7606L87.6518 71.2346C86.7737 72.3819 85.9016 73.5484 85.0368 74.7236L83.7493 76.5124C83.3212 77.1139 82.8971 77.7334 82.4724 78.3436C82.2597 78.6434 82.0483 78.9645 81.8362 79.2849L81.2048 80.2394L81.0459 80.4794L81.006 80.5385L80.9861 80.5684L80.9548 80.6183L80.8239 80.8316C80.7368 80.9752 80.6524 81.1201 80.566 81.263C80.5241 81.3328 80.4822 81.4139 80.4417 81.493L80.3194 81.729C80.2389 81.8892 80.1585 82.0428 80.0834 82.2103C80.0096 82.3824 79.9378 82.5572 79.868 82.7321L79.7657 82.9946C79.7337 83.0844 79.7018 83.1801 79.6706 83.2738C79.6101 83.4606 79.5516 83.65 79.4958 83.8395C79.4419 84.0336 79.3994 84.2376 79.3555 84.437C79.313 84.6398 79.2704 84.8379 79.2439 85.0512C79.2159 85.2606 79.1887 85.47 79.1681 85.6807C79.1495 85.8928 79.1428 86.1088 79.1362 86.3228L79.1329 86.6432C79.1322 86.7536 79.1402 86.8612 79.1442 86.9683Z" fill="#F79B7B"/>
<path d="M107.228 94.8705C107.228 94.8705 106.189 93.8581 104.913 94.122C104.913 94.122 101.898 99.2356 103.461 103.621C103.461 103.621 104.162 104.253 105.628 104.131C105.628 104.131 104.168 98.8568 107.228 94.8705Z" fill="#010101"/>
<path d="M104.403 102.228C106.086 102.228 107.451 100.864 107.451 99.1805C107.451 97.4973 106.086 96.1328 104.403 96.1328C102.72 96.1328 101.355 97.4973 101.355 99.1805C101.355 100.864 102.72 102.228 104.403 102.228Z" fill="#010101"/>
<path d="M104.528 101.449C105.783 101.379 106.746 100.3 106.676 99.0458C106.606 97.7915 105.527 96.8277 104.273 96.8982C103.018 96.968 102.055 98.0461 102.125 99.3011C102.194 100.556 103.273 101.519 104.528 101.449Z" fill="white"/>
<path d="M109.791 104.692C110.95 104.781 112.205 104.843 113.027 104.982C113.224 103.787 112.214 102.821 112.414 101.626C112.647 100.229 112.879 98.8291 113.134 97.4332L112.554 96.1849C111.677 95.9755 110.796 95.7489 109.918 95.5102C109.891 95.5022 109.865 95.4963 109.838 95.4883C109.481 97.4751 108.92 101.639 109.791 104.692Z" fill="#F06B3F"/>
<path d="M112.615 57.0541C113.232 59.0502 112.76 61.2252 111.392 62.8052C108.822 65.7704 103.918 71.4989 101.199 75.0963C97.4001 80.1229 92.5949 86.429 92.5949 86.429C92.5949 86.429 96.0514 89.4667 98.4743 91.0713C98.4743 91.0713 92.5444 96.0826 95.5409 104.229C95.5409 104.229 84.8882 98.3745 79.4954 92.7484C75.5577 88.6398 76.6498 83.5136 80.2472 78.6107C82.0626 76.1366 96.0653 60.1789 101.037 54.598C102.873 52.5374 105.769 51.7112 108.378 52.6112C110.045 53.1868 111.805 54.4345 112.615 57.0541Z" fill="#00A86E"/>
<path d="M110.037 97.0096C110.037 97.0096 110.456 94.5735 111.086 92.2303C111.612 90.2761 112.676 89.6719 112.676 89.6719C112.907 91.0013 113.233 91.8029 113.277 94.2251C113.277 94.2251 113.867 93.6768 114.944 93.8935C116.02 94.1108 119.732 94.8985 119.779 95.7553C119.888 97.7149 115.237 96.7836 115.237 96.7836C115.237 96.7836 120.215 97.7215 120.09 99.0948C119.988 100.206 115.479 100.417 115.479 100.417C115.479 100.417 119.824 100.457 119.303 102.016C118.748 103.673 114.719 102.63 114.719 102.63C114.719 102.63 117.622 104.023 117.341 104.608C116.937 105.45 115.217 105.687 112.436 105.009C109.589 104.315 110.037 97.0096 110.037 97.0096Z" fill="#F79B7B"/>
<path d="M104.915 71.5025C104.809 71.5185 104.697 71.4912 104.609 71.4168C104.447 71.2798 104.426 71.0372 104.563 70.875L110.996 63.2382C111.133 63.076 111.375 63.0554 111.538 63.1916C111.7 63.3286 111.72 63.5705 111.583 63.7334L105.15 71.3702C105.088 71.4447 105.003 71.4892 104.915 71.5025Z" fill="#007F57"/>
<path d="M111.886 65.8423L109.454 66.2152C109.245 66.2471 109.049 66.1036 109.016 65.8935C108.984 65.6835 109.128 65.4874 109.337 65.4555L111.769 65.0826C111.979 65.0507 112.175 65.1942 112.207 65.4043C112.239 65.6137 112.095 65.8098 111.886 65.8423Z" fill="#007F57"/>
<path d="M85.7529 88.0817C85.7922 88.1342 85.848 88.1668 85.9071 88.1781C85.9743 88.1907 86.0447 88.1767 86.1032 88.1322C87.9372 86.7689 91.2016 86.624 92.8181 86.6446C92.7523 86.5728 92.6912 86.5023 92.6347 86.4345L92.6247 86.4232L92.8308 86.14C92.6845 86.1381 92.525 86.1367 92.3535 86.1381C91.3405 85.1656 88.6152 84.2224 88.4969 84.1818C88.3659 84.1366 88.223 84.2057 88.1791 84.3367C88.1339 84.4676 88.2031 84.6092 88.334 84.6544C88.3593 84.6637 90.4338 85.3816 91.5751 86.1573C89.7964 86.2351 87.3635 86.5721 85.8048 87.7307C85.6931 87.8138 85.6699 87.97 85.7529 88.0817Z" fill="#007F57"/>
<path d="M283.568 300.995C330.324 300.995 368.227 298.682 368.227 295.83C368.227 292.977 330.324 290.664 283.568 290.664C236.813 290.664 198.91 292.977 198.91 295.83C198.91 298.682 236.813 300.995 283.568 300.995Z" fill="#CED4E7"/>
<path d="M295.913 134.383L296.018 134.887L296.097 135.29L296.237 136.055C296.323 136.551 296.402 137.04 296.475 137.524C296.618 138.492 296.735 139.444 296.84 140.394C297.046 142.294 297.197 144.179 297.288 146.064C297.371 147.948 297.401 149.829 297.38 151.708C297.353 153.588 297.274 155.466 297.147 157.342C297.015 159.217 296.822 161.089 296.585 162.956C296.453 163.888 296.336 164.822 296.179 165.751C296.103 166.216 296.032 166.682 295.95 167.146L295.693 168.538C295.61 169.001 295.509 169.463 295.413 169.925C295.314 170.386 295.226 170.849 295.117 171.309C294.903 172.229 294.698 173.151 294.454 174.065C294.334 174.523 294.222 174.981 294.096 175.437L293.71 176.803L293.613 177.145L293.565 177.316L293.462 177.664C293.365 177.988 293.262 178.269 293.152 178.557C293.045 178.825 292.93 179.098 292.816 179.336C292.701 179.588 292.586 179.805 292.467 180.032L292.292 180.348C292.232 180.454 292.172 180.556 292.114 180.65L291.937 180.94L291.76 181.21C291.64 181.394 291.527 181.553 291.408 181.722C290.942 182.373 290.488 182.919 290.042 183.416C289.596 183.912 289.161 184.354 288.732 184.766C287.875 185.586 287.045 186.289 286.224 186.943C284.586 188.242 282.985 189.342 281.385 190.367C278.191 192.409 275.023 194.17 271.832 195.823C268.646 197.478 265.444 199.008 262.224 200.47C260.612 201.196 258.996 201.905 257.373 202.599C256.56 202.946 255.749 203.292 254.93 203.63L253.697 204.13L252.426 204.639L246.855 192.05L247.936 191.497L249.047 190.92L251.276 189.759C252.76 188.978 254.238 188.183 255.705 187.376C258.644 185.771 261.545 184.121 264.371 182.429C265.782 181.583 267.168 180.715 268.525 179.843C269.88 178.97 271.202 178.08 272.453 177.174C273.7 176.27 274.889 175.351 275.904 174.461C276.408 174.018 276.867 173.58 277.232 173.19C277.593 172.806 277.862 172.447 277.917 172.327C277.918 172.318 277.93 172.302 277.924 172.303C277.923 172.303 277.921 172.302 277.921 172.302C277.916 172.305 277.912 172.31 277.908 172.315L277.891 172.336C277.884 172.347 277.878 172.355 277.871 172.368C277.848 172.403 277.834 172.43 277.804 172.485C277.783 172.529 277.746 172.602 277.72 172.669C277.682 172.755 277.655 172.835 277.615 172.952L277.59 173.035C277.584 173.06 277.59 173.036 277.592 173.026L277.601 172.991L277.633 172.848L277.698 172.565L277.959 171.434C278.044 171.056 278.115 170.674 278.195 170.295C278.359 169.538 278.486 168.771 278.627 168.009C278.696 167.628 278.75 167.242 278.812 166.859C278.872 166.476 278.938 166.093 278.986 165.707C279.21 164.169 279.382 162.62 279.527 161.07C279.66 159.517 279.749 157.959 279.813 156.401C279.867 154.84 279.88 153.279 279.854 151.718C279.833 150.158 279.77 148.599 279.662 147.048C279.562 145.497 279.42 143.954 279.233 142.436C279.139 141.679 279.036 140.925 278.918 140.193C278.861 139.826 278.803 139.467 278.743 139.115L278.651 138.611L278.581 138.253L295.913 134.383Z" fill="#F79B7B"/>
<path d="M277.397 138.68L274.23 162.677C278.955 165.324 283.439 167.219 287.555 167.968L277.397 138.68Z" fill="#179FCA"/>
<path d="M284.104 175.766C284.037 175.766 283.968 175.75 283.904 175.715C281.445 174.376 278.062 173.254 278.027 173.243C277.806 173.171 277.687 172.932 277.76 172.711C277.833 172.491 278.07 172.37 278.292 172.444C278.433 172.49 281.782 173.6 284.306 174.976C284.511 175.087 284.586 175.343 284.475 175.547C284.398 175.687 284.254 175.766 284.104 175.766Z" fill="#F06B3F"/>
<path d="M278.397 173.347C278.186 173.347 278.003 173.187 277.979 172.973C277.953 172.741 278.119 172.533 278.351 172.508C280.097 172.313 282.39 172.301 282.487 172.301H282.489C282.721 172.301 282.909 172.488 282.911 172.72C282.911 172.953 282.724 173.142 282.491 173.143C282.468 173.144 280.146 173.156 278.445 173.345C278.429 173.346 278.413 173.347 278.397 173.347Z" fill="#F06B3F"/>
<path d="M232.893 271.859L228.529 278.988L220.215 275.309L223.989 267.648L232.893 271.859Z" fill="#F79B7B"/>
<path d="M193.884 279.362L225.33 293.281C225.753 292.96 226.147 292.413 226.517 291.717C227.891 289.144 228.923 284.524 229.691 281.663C229.779 281.328 229.865 281.017 229.948 280.738C230.088 280.265 230.218 279.877 230.339 279.604C231.306 277.419 229.207 276.938 229.207 276.938C224.644 278.649 223.112 272.375 220.328 272.979C220.328 272.979 219.135 273.227 215.644 274.368C212.155 275.51 207.251 275.112 202.967 275.025C197.438 274.91 195.252 276.272 194.399 277.501C193.724 278.474 193.884 279.362 193.884 279.362Z" fill="#FBAC38"/>
<path d="M193.884 279.361L225.33 293.28C225.753 292.959 226.147 292.412 226.517 291.717L194.399 277.5C193.724 278.474 193.884 279.361 193.884 279.361Z" fill="#DD8027"/>
<path d="M222.093 291.857L223.026 292.27C222.566 290.793 222.417 288.773 223.565 286.487C225.092 283.448 227.883 282.178 229.662 281.66C229.75 281.325 229.836 281.014 229.919 280.734C228.05 281.184 224.664 282.478 222.833 286.119C221.737 288.302 221.732 290.29 222.093 291.857Z" fill="#DD8027"/>
<path d="M215.348 276.455C215.581 276.558 215.861 276.494 216.025 276.283C216.217 276.036 216.172 275.68 215.924 275.489L214.176 274.131C213.929 273.939 213.572 273.984 213.381 274.231C213.189 274.478 213.233 274.834 213.481 275.026L215.23 276.383C215.266 276.413 215.306 276.437 215.348 276.455Z" fill="white"/>
<path d="M218.023 275.677C218.256 275.78 218.537 275.716 218.7 275.506C218.892 275.259 218.848 274.903 218.6 274.711L216.851 273.353C216.605 273.161 216.249 273.207 216.057 273.454C215.865 273.7 215.909 274.057 216.157 274.249L217.905 275.605C217.942 275.635 217.982 275.659 218.023 275.677Z" fill="white"/>
<path d="M212.867 276.72C213.099 276.823 213.38 276.759 213.544 276.549C213.735 276.302 213.691 275.946 213.444 275.754L211.695 274.397C211.448 274.205 211.092 274.249 210.9 274.497C210.708 274.744 210.753 275.1 211 275.291L212.749 276.649C212.786 276.678 212.825 276.701 212.867 276.72Z" fill="white"/>
<path d="M210.418 276.951C210.65 277.054 210.931 276.99 211.094 276.779C211.287 276.532 211.242 276.176 210.995 275.985L209.246 274.627C208.999 274.435 208.642 274.48 208.452 274.727C208.259 274.974 208.303 275.33 208.551 275.522L210.3 276.879C210.337 276.909 210.377 276.933 210.418 276.951Z" fill="white"/>
<path d="M207.851 277.02C208.084 277.123 208.365 277.06 208.528 276.85C208.72 276.602 208.675 276.246 208.428 276.055L206.679 274.697C206.433 274.506 206.076 274.55 205.885 274.797C205.693 275.044 205.737 275.4 205.985 275.592L207.734 276.949C207.77 276.978 207.809 277.002 207.851 277.02Z" fill="white"/>
<path d="M205.14 276.864C205.374 276.967 205.654 276.904 205.818 276.694C206.01 276.446 205.965 276.09 205.717 275.899L203.969 274.541C203.722 274.349 203.366 274.394 203.173 274.641C202.982 274.888 203.027 275.244 203.274 275.436L205.023 276.793C205.059 276.822 205.099 276.846 205.14 276.864Z" fill="white"/>
<path d="M252.408 203.074C255.326 200.202 278.351 193.78 293.638 198.048C295.39 201.419 297.617 209.961 292.14 217.862C272.045 221.146 260.83 227.905 260.83 227.905C260.83 227.905 253.705 244.371 249.471 250.415C245.237 256.459 235.527 275.65 235.527 275.65L220.898 269.399C220.898 269.399 244.462 210.893 252.408 203.074Z" fill="#373739"/>
<path d="M237.101 272.04C237.048 272.04 236.993 272.029 236.94 272.007L222.623 266.056C222.409 265.966 222.306 265.72 222.396 265.506C222.485 265.291 222.731 265.189 222.946 265.278L237.263 271.229C237.477 271.319 237.58 271.565 237.491 271.78C237.423 271.942 237.266 272.04 237.101 272.04Z" fill="#585859"/>
<path d="M234.698 270.832C234.647 270.832 234.594 270.822 234.543 270.802C234.328 270.717 234.221 270.472 234.307 270.256C234.337 270.182 237.333 262.708 244.32 252.104C251.26 241.572 258.517 223.769 258.59 223.591C258.679 223.375 258.924 223.272 259.139 223.359C259.354 223.446 259.458 223.692 259.371 223.907C259.298 224.087 252.01 241.965 245.024 252.567C238.084 263.099 235.121 270.492 235.091 270.565C235.025 270.732 234.866 270.832 234.698 270.832Z" fill="#585859"/>
<path d="M269.825 273.137L268.721 281.423H259.629L259.979 272.891L269.825 273.137Z" fill="#F79B7B"/>
<path d="M237.191 295.776H271.58C271.836 295.311 271.976 294.652 272.033 293.865C272.248 290.957 271.321 286.314 270.866 283.387C270.811 283.045 270.764 282.725 270.727 282.437C270.663 281.948 270.625 281.54 270.625 281.241C270.625 278.852 268.51 279.262 268.51 279.262C265.03 282.674 261.09 277.557 258.789 279.235C258.789 279.235 257.798 279.945 255.067 282.402C252.338 284.858 247.694 286.48 243.741 288.134C238.637 290.267 237.191 292.397 236.908 293.865C236.685 295.029 237.191 295.776 237.191 295.776Z" fill="#FBAC38"/>
<path d="M237.191 295.77H271.58C271.836 295.305 271.976 294.646 272.033 293.859H236.908C236.685 295.023 237.191 295.77 237.191 295.77Z" fill="#DD8027"/>
<path d="M268.072 295.776H269.094C268.074 294.611 267.12 292.824 267.245 290.27C267.411 286.872 269.449 284.581 270.866 283.387C270.811 283.045 270.764 282.726 270.727 282.438C269.2 283.604 266.627 286.159 266.426 290.229C266.307 292.669 267.108 294.489 268.072 295.776Z" fill="#DD8027"/>
<path d="M255.629 284.425C255.883 284.425 256.114 284.252 256.179 283.995C256.254 283.691 256.069 283.384 255.765 283.309L253.617 282.775C253.314 282.699 253.006 282.884 252.931 283.188C252.856 283.492 253.04 283.8 253.344 283.875L255.493 284.408C255.538 284.419 255.584 284.425 255.629 284.425Z" fill="white"/>
<path d="M257.797 282.643C258.051 282.643 258.282 282.471 258.347 282.213C258.422 281.91 258.236 281.602 257.932 281.527L255.785 280.994C255.482 280.918 255.174 281.103 255.099 281.407C255.024 281.711 255.208 282.018 255.512 282.094L257.66 282.627C257.705 282.639 257.752 282.643 257.797 282.643Z" fill="white"/>
<path d="M253.485 285.675C253.738 285.675 253.97 285.502 254.034 285.245C254.109 284.941 253.924 284.634 253.62 284.559L251.472 284.025C251.169 283.949 250.862 284.134 250.787 284.438C250.711 284.742 250.896 285.05 251.199 285.124L253.348 285.658C253.393 285.669 253.439 285.675 253.485 285.675Z" fill="white"/>
<path d="M251.352 286.893C251.607 286.893 251.837 286.721 251.901 286.464C251.976 286.16 251.792 285.852 251.488 285.777L249.34 285.244C249.036 285.168 248.729 285.353 248.653 285.657C248.578 285.961 248.763 286.268 249.067 286.344L251.215 286.877C251.261 286.889 251.307 286.893 251.352 286.893Z" fill="white"/>
<path d="M249 287.991C249.255 287.991 249.485 287.818 249.55 287.561C249.625 287.257 249.44 286.949 249.136 286.874L246.989 286.341C246.685 286.265 246.377 286.451 246.302 286.754C246.227 287.058 246.412 287.365 246.715 287.441L248.863 287.974C248.909 287.986 248.955 287.991 249 287.991Z" fill="white"/>
<path d="M246.477 288.936C246.732 288.936 246.962 288.763 247.026 288.506C247.102 288.202 246.917 287.895 246.613 287.82L244.465 287.286C244.161 287.211 243.854 287.396 243.778 287.7C243.703 288.004 243.889 288.311 244.193 288.387L246.34 288.92C246.386 288.931 246.431 288.936 246.477 288.936Z" fill="white"/>
<path d="M338.694 204.601C338.68 204.739 338.66 204.872 338.646 205.001C338.576 205.056 338.507 205.108 338.44 205.157C333.103 209.253 326.875 211.977 320.512 213.525C320.289 213.58 320.067 213.633 319.842 213.683C318.748 213.935 317.652 214.153 316.56 214.336C315.078 214.583 313.593 214.773 312.124 214.899C310.822 215.014 309.527 215.083 308.25 215.107C302.748 215.207 297.527 214.49 293.114 213.083C292.946 213.03 292.777 212.975 292.611 212.919C291.442 212.528 290.336 212.088 289.3 211.603C289.139 211.529 288.981 211.456 288.828 211.377C288.182 211.062 287.565 210.724 286.978 210.37C287.068 208.249 287.097 205.711 287.075 202.996C287.073 202.771 287.075 202.546 287.069 202.319C287.033 198.542 286.915 194.472 286.768 190.745C286.758 190.568 286.752 190.396 286.748 190.219C286.666 188.271 286.578 186.424 286.493 184.779C286.481 184.604 286.475 184.428 286.465 184.261C286.391 182.869 286.318 181.631 286.249 180.613C286.233 180.354 286.218 180.099 286.196 179.845C286.184 179.645 286.171 179.446 286.158 179.252V179.25C286.104 178.532 286.043 177.831 285.983 177.14C285.89 176.039 285.784 174.968 285.671 173.927C285.541 172.742 285.401 171.588 285.253 170.474C285.089 169.278 284.919 168.124 284.739 167.009C284.544 165.821 284.344 164.676 284.137 163.578C283.397 159.707 282.565 156.386 281.735 153.517C281.675 153.321 281.62 153.129 281.562 152.936C281.225 151.794 280.89 150.734 280.561 149.739C280.489 149.519 280.416 149.306 280.347 149.09C278.503 143.606 276.971 140.296 276.946 138.075C276.893 133.455 280.268 131.972 283.79 130.111C283.957 130.023 284.123 129.937 284.286 129.848C284.88 129.528 285.475 129.191 286.051 128.824C286.294 128.673 286.536 128.512 286.771 128.342C286.935 128.227 287.093 128.11 287.246 127.997C288.645 126.922 289.867 125.569 290.661 123.658L303.978 120.852C303.978 120.852 305.255 121.506 307.386 122.082C307.588 122.137 307.793 122.19 308.011 122.24C308.26 122.299 308.522 122.358 308.794 122.41C308.962 122.446 309.138 122.477 309.315 122.507C309.449 122.533 309.589 122.557 309.731 122.577C311.006 122.777 312.483 122.904 314.15 122.87C314.317 122.867 314.486 122.864 314.658 122.856C314.777 122.85 314.896 122.846 315.02 122.841C316.149 122.785 317.228 122.927 318.262 123.261C318.263 123.261 318.263 123.261 318.263 123.261C318.462 123.322 318.658 123.393 318.851 123.473C323.178 125.202 326.579 130.372 328.784 138.313C329.396 140.521 329.999 142.671 330.583 144.774C330.647 145.004 330.71 145.234 330.773 145.46C330.901 145.922 331.027 146.378 331.153 146.837L331.154 146.838C331.203 147.005 331.247 147.17 331.291 147.337C331.745 148.967 332.181 150.573 332.605 152.163C332.605 152.165 332.605 152.165 332.605 152.166C332.65 152.335 332.695 152.505 332.74 152.675C332.741 152.677 332.741 152.677 332.741 152.679C332.766 152.77 332.79 152.857 332.813 152.945L333.054 153.873C334.527 159.559 335.76 165.034 336.549 170.558C336.712 171.707 336.859 172.858 336.984 174.014C337.016 174.296 337.049 174.609 337.082 174.958C337.088 175.021 337.096 175.085 337.104 175.151C337.116 175.271 337.128 175.392 337.141 175.519C337.149 175.581 337.155 175.644 337.16 175.707C337.373 177.799 337.648 180.701 337.917 183.895C337.932 184.063 337.948 184.235 337.96 184.405C338.582 191.851 339.132 200.707 338.694 204.601Z" fill="#31BCE8"/>
<path d="M298.188 131.481C303.508 130.36 306.378 123.708 306.5 123.419C306.582 123.226 306.491 123.003 306.298 122.921C306.104 122.839 305.881 122.929 305.799 123.123C305.769 123.191 302.851 129.962 297.726 130.794C292.681 131.614 290.672 127.9 290.589 127.742C290.492 127.556 290.264 127.483 290.076 127.581C289.89 127.678 289.817 127.907 289.914 128.094C289.937 128.137 292.247 132.457 297.849 131.545C297.962 131.525 298.076 131.504 298.188 131.481Z" fill="#C52D4C"/>
<path d="M303.572 202.228C308.572 201.174 313.737 198.608 318.899 194.572C325.982 189.035 330.637 182.613 330.683 182.548C330.806 182.378 330.767 182.14 330.597 182.017C330.425 181.894 330.188 181.934 330.066 182.104C330.02 182.168 325.419 188.514 318.417 193.983C311.993 199.001 302.171 204.29 291.853 200.993C291.652 200.93 291.439 201.04 291.374 201.241C291.31 201.441 291.42 201.655 291.62 201.719C295.429 202.936 299.444 203.097 303.572 202.228Z" fill="#C52D4C"/>
<path d="M300.564 198.407C300.566 198.406 300.568 198.406 300.57 198.406C308.355 196.634 312.538 184.881 312.713 184.381C312.782 184.183 312.677 183.965 312.479 183.896C312.281 183.827 312.064 183.932 311.994 184.13C311.952 184.249 307.774 195.985 300.402 197.662C300.196 197.709 300.069 197.913 300.115 198.118C300.161 198.321 300.361 198.45 300.564 198.407Z" fill="#C52D4C"/>
<path d="M286.221 179.838C287.186 179.176 288.095 178.346 288.811 177.413C290.545 175.15 290.779 172.837 289.465 170.899C289.202 170.514 288.96 170.158 288.732 169.828C286.055 165.92 285.774 165.513 286.009 159.086C286.083 157.063 285.512 155.472 284.317 154.363C283.511 153.616 282.527 153.18 281.586 152.93C281.644 153.122 281.7 153.315 281.76 153.513C282.543 153.755 283.328 154.136 283.974 154.737C285.056 155.743 285.57 157.2 285.503 159.068C285.262 165.661 285.609 166.168 288.315 170.116C288.541 170.447 288.783 170.8 289.045 171.187C290.637 173.534 289.33 175.902 288.407 177.105C287.79 177.909 287.013 178.64 286.182 179.243V179.246C286.195 179.442 286.211 179.638 286.221 179.838Z" fill="#C52D4C"/>
<path d="M337.167 175.705C336.132 176.306 335.126 176.689 334.168 176.891C331.581 177.436 329.344 176.655 327.901 175.205C326.18 173.47 325.51 170.489 327.563 168.149C329.546 165.884 328.692 164.677 327.615 163.15C326.553 161.645 325.23 159.774 326.605 156.486C327.394 154.589 328.613 153.296 330.22 152.646C331.025 152.318 331.843 152.185 332.61 152.164C332.655 152.333 332.7 152.503 332.745 152.673C331.993 152.681 331.188 152.8 330.407 153.118C328.93 153.716 327.807 154.918 327.07 156.682C325.804 159.711 326.935 161.31 328.028 162.859C329.14 164.431 330.189 165.922 327.943 168.485C326.288 170.373 326.416 172.989 328.26 174.847C330.124 176.724 333.438 177.371 337.11 175.149C337.122 175.269 337.134 175.39 337.148 175.517C337.156 175.578 337.163 175.642 337.167 175.705Z" fill="#C52D4C"/>
<path d="M302.434 177.605C303.717 179.809 306.492 180.87 309.037 180.129C309.424 180.015 309.826 179.871 310.234 179.696C313.496 178.299 317.263 175.011 318.703 171.182C319.814 168.228 319.472 165.207 317.714 162.446C315.11 158.362 313.599 154.571 313.346 151.484C313.195 149.658 311.94 148.24 310.148 147.872C308.35 147.505 306.633 148.316 305.774 149.941C305.729 150.027 305.682 150.113 305.638 150.201C303.444 154.482 304.754 157.578 305.909 160.309C307.12 163.165 308.165 165.635 304.856 168.84C301.846 171.76 300.939 175.036 302.434 177.605ZM305.209 169.206C308.769 165.757 307.605 163.014 306.375 160.11C305.209 157.352 304.002 154.502 306.089 150.432C306.133 150.346 306.177 150.262 306.22 150.178C306.619 149.426 307.225 148.875 307.941 148.568C308.579 148.294 309.303 148.217 310.044 148.369C311.611 148.691 312.707 149.93 312.839 151.526C312.989 153.319 313.518 155.284 314.426 157.404C315.145 159.083 316.099 160.854 317.286 162.717C318.979 165.376 319.295 168.162 318.227 171.004C316.662 175.162 312.253 178.662 308.895 179.642C306.571 180.32 304.04 179.356 302.874 177.35C301.504 174.995 302.378 171.952 305.209 169.206Z" fill="#C52D4C"/>
<path d="M280.348 149.073C280.418 149.286 280.49 149.5 280.562 149.72C282.334 150.43 283.969 150.402 285.278 150.126C285.941 149.987 286.52 149.781 286.99 149.579C290.239 148.176 292.446 145.168 292.392 143.346C292.372 142.661 292.028 142.163 291.424 141.943C287.931 140.67 286.504 138.36 285.974 133.116C285.83 131.691 285.263 130.587 284.288 129.828C284.123 129.917 283.957 130.004 283.792 130.091C283.834 130.121 283.874 130.152 283.917 130.182C284.812 130.851 285.335 131.856 285.468 133.166C286.022 138.646 287.535 141.068 291.25 142.421C291.663 142.573 291.87 142.878 291.883 143.361C291.932 145.018 289.763 147.829 286.788 149.114C285.403 149.711 283.021 150.303 280.348 149.073Z" fill="#C52D4C"/>
<path d="M298.381 149.913C299.007 150.593 300.02 150.846 301.021 150.635C301.353 150.565 301.684 150.441 302.001 150.268C303.61 149.376 304.208 147.518 303.6 145.296C302.97 142.981 304.173 141.874 305.334 140.803C306.354 139.864 307.41 138.892 306.577 137.23C305.937 135.952 304.759 135.355 303.172 135.502C301.306 135.681 299.67 136.824 298.791 138.569C297.304 141.515 295.878 147.2 298.381 149.913ZM299.245 138.799C299.95 137.398 301.245 136.394 302.702 136.087C302.873 136.05 303.046 136.024 303.219 136.008C304.599 135.878 305.579 136.367 306.124 137.455C306.786 138.777 306.033 139.47 304.99 140.429C303.836 141.494 302.398 142.816 303.112 145.429C303.652 147.41 303.144 149.055 301.756 149.821C300.712 150.402 299.421 150.292 298.755 149.57C296.426 147.043 297.819 141.621 299.245 138.799Z" fill="#C52D4C"/>
<path d="M290.916 167.915C291.2 169.259 291.741 170.347 292.673 170.894C294.07 171.715 295.44 172.032 296.449 171.82C296.885 171.729 297.254 171.537 297.53 171.243C298.352 170.359 298.082 168.769 296.782 166.884C295.277 164.699 296.6 163.308 298 161.833C299.192 160.579 300.425 159.282 299.732 157.507C299.233 156.232 298.089 155.639 296.422 155.788C293.623 156.038 291.315 158.285 290.938 161.136C290.647 163.347 290.496 165.916 290.916 167.915ZM291.442 161.204C291.601 160.003 292.13 158.92 292.906 158.074C293.682 157.229 294.701 156.625 295.84 156.385C296.046 156.342 296.255 156.311 296.468 156.292C297.926 156.164 298.839 156.619 299.257 157.69C299.835 159.168 298.765 160.293 297.633 161.486C296.223 162.967 294.625 164.65 296.366 167.174C297.516 168.845 297.805 170.203 297.155 170.896C296.429 171.677 294.694 171.495 292.93 170.457C291.309 169.502 290.779 166.217 291.442 161.204Z" fill="#C52D4C"/>
<path d="M286.788 190.732C288.827 189.994 289.513 191.016 290.507 192.497C291.395 193.821 292.499 195.468 294.981 196.052C295.824 196.251 296.637 196.245 297.399 196.084C299.4 195.663 301.033 194.171 301.817 192.494C302.875 190.241 302.408 187.991 300.596 186.623C299.807 186.029 299.39 185.466 299.315 184.904C299.21 184.104 299.809 183.333 300.445 182.516C301.329 181.381 302.33 180.094 301.565 178.452C300.962 177.153 299.824 176.381 298.363 176.275C295.931 176.097 293.205 177.742 291.417 180.463C289.89 182.789 287.954 183.806 286.484 184.248C286.494 184.417 286.502 184.592 286.513 184.765C288.09 184.314 290.195 183.246 291.839 180.742C293.195 178.68 295.1 177.273 296.964 176.88C297.424 176.783 297.88 176.747 298.328 176.779C299.597 176.872 300.583 177.541 301.107 178.664C301.742 180.026 300.918 181.085 300.046 182.204C299.372 183.067 298.679 183.959 298.812 184.969C298.906 185.674 299.39 186.348 300.291 187.029C302.215 188.48 302.105 190.692 301.361 192.279C300.362 194.405 297.891 196.214 295.098 195.559C292.81 195.022 291.811 193.529 290.928 192.217C289.938 190.738 289.07 189.443 286.768 190.206C286.773 190.379 286.779 190.555 286.788 190.732Z" fill="#C52D4C"/>
<path d="M312.639 184.561C312.812 185.445 313.342 186.049 314.125 186.262C314.545 186.376 315.012 186.377 315.503 186.273C316.601 186.042 317.802 185.296 318.79 184.178C319.799 183.034 320.808 183.179 322.205 183.381C323.56 183.575 325.247 183.818 327.403 182.84C329.798 181.752 330.198 179.49 329.556 177.849C328.973 176.365 327.398 175.079 325.309 175.771C323.816 176.264 322.84 177.024 321.975 177.694C320.661 178.718 319.528 179.599 316.934 179.444C315.642 179.366 314.61 179.71 313.87 180.471C312.433 181.942 312.625 184.43 312.634 184.534C312.638 184.543 312.637 184.551 312.639 184.561ZM313.139 184.476C313.128 184.287 313.01 182.077 314.236 180.82C314.869 180.174 315.767 179.881 316.904 179.95C319.69 180.117 320.953 179.135 322.289 178.094C323.161 177.418 324.06 176.718 325.471 176.249C327.246 175.666 328.587 176.764 329.082 178.035C329.642 179.46 329.287 181.427 327.194 182.376C325.174 183.294 323.635 183.074 322.278 182.878C321.494 182.765 320.773 182.663 320.083 182.808C319.508 182.93 318.953 183.226 318.408 183.841C317.127 185.293 315.42 186.086 314.258 185.773C313.666 185.612 313.279 185.165 313.139 184.476Z" fill="#C52D4C"/>
<path d="M334.888 196.796C333.143 199.679 333.88 202.892 335.604 204.333C336.435 205.026 337.419 205.293 338.463 205.138C338.532 205.087 338.599 205.035 338.668 204.981C338.685 204.853 338.704 204.719 338.718 204.579C337.697 204.828 336.738 204.619 335.93 203.943C334.372 202.64 333.718 199.709 335.322 197.061C336.95 194.374 335.668 193.545 334.311 192.664C333.064 191.856 331.774 191.021 331.969 188.61C332.065 187.421 332.545 186.464 333.402 185.768C334.147 185.16 335.095 184.81 336.028 184.613C336.721 184.467 337.403 184.406 337.987 184.384C337.974 184.213 337.959 184.043 337.945 183.875C336.501 183.925 334.49 184.224 333.08 185.374C332.114 186.162 331.571 187.235 331.462 188.57C331.243 191.283 332.792 192.285 334.035 193.091C335.373 193.959 336.259 194.532 334.888 196.796Z" fill="#C52D4C"/>
<path d="M292.645 212.897C292.812 212.955 292.98 213.01 293.148 213.063C293.168 212.278 293.357 210.595 294.518 209.469C295.486 208.528 296.935 208.158 298.822 208.365C301.328 208.643 302.465 209.682 303.465 210.602C305.148 212.144 306.314 212.876 310.703 210.007C312.372 208.913 313.919 208.279 315.269 207.995C317.451 207.535 319.127 207.985 320.005 208.889C321.085 210.003 321.03 211.759 319.876 213.664C320.101 213.614 320.323 213.56 320.548 213.505C321.59 211.551 321.54 209.738 320.371 208.535C318.809 206.928 315.031 206.57 310.426 209.581C306.151 212.376 305.271 211.567 303.809 210.229C302.803 209.305 301.55 208.156 298.88 207.86C296.831 207.636 295.244 208.056 294.161 209.109C292.935 210.302 292.683 211.986 292.645 212.897Z" fill="#C52D4C"/>
<path d="M321.155 204.728C321.793 206.093 323.893 207.215 325.855 206.803C325.939 206.785 326.025 206.763 326.108 206.738C329.1 205.893 330.822 203.468 330.954 199.912C331.057 197.163 330.801 194.461 328.253 193.294C328.239 193.29 328.224 193.282 328.209 193.28C328.091 193.251 325.274 192.567 323.519 193.761C322.782 194.261 322.342 195.017 322.213 196.004C321.981 197.748 322.51 198.816 322.894 199.593C323.371 200.55 323.587 200.987 322.124 201.988C321.04 202.728 320.688 203.728 321.155 204.728ZM322.409 202.408C324.149 201.22 323.9 200.479 323.349 199.369C322.974 198.607 322.505 197.662 322.714 196.073C322.825 195.233 323.192 194.598 323.805 194.181C325.299 193.166 327.804 193.707 328.065 193.768C329.887 194.613 330.578 196.391 330.447 199.893C330.359 202.242 329.512 205.249 325.972 206.252C324.213 206.747 322.183 205.725 321.616 204.515C321.253 203.738 321.527 203.01 322.409 202.408Z" fill="#C52D4C"/>
<path d="M288.871 211.361C289.024 211.44 289.183 211.513 289.341 211.586C290.406 210.34 290.845 208.988 290.636 207.57C290.304 205.267 288.379 203.345 287.113 202.305C287.117 202.532 287.117 202.758 287.119 202.983C288.305 204.024 289.857 205.714 290.135 207.642C290.321 208.93 289.91 210.163 288.915 211.311C288.9 211.326 288.886 211.345 288.871 211.361Z" fill="#C52D4C"/>
<path d="M279.039 100.748C279.039 100.748 271.492 99.1544 271.319 96.2756C271.157 93.6154 274.296 93.8979 274.296 93.8979C274.296 93.8979 270.631 87.8916 272.734 86.7104C274.836 85.5285 277.484 88.8959 277.484 88.8959C277.484 88.8959 275.561 81.7729 278.129 82.2841C280.697 82.7952 281.027 86.7104 281.027 86.7104C281.027 86.7104 289.555 83.6726 294.404 85.1304C297.704 86.1228 298.484 89.3014 298.484 89.3014C298.484 89.3014 300.446 88.1302 301.841 88.8527C303.231 89.5726 301.961 92.0188 301.961 92.0188C301.961 92.0188 304.112 93.6759 303.453 96.3055C302.795 98.9351 300.914 104.135 300.914 104.135L279.039 100.748Z" fill="#373739"/>
<path d="M289.711 121.687L290.442 125.154C290.917 125.396 291.387 125.594 291.851 125.755C298.631 128.102 304.183 122.258 304.183 122.258L301.65 110.238L291.135 120.321L289.711 121.687Z" fill="#F79B7B"/>
<path d="M289.711 121.677L290.442 125.144C290.917 125.386 291.387 125.585 291.851 125.745C296.547 122.637 299.146 116.473 299.146 116.473L291.135 120.312L289.711 121.677Z" fill="#373739"/>
<path d="M283.02 93.6055C283.02 93.6055 274.81 96.1593 279.681 104.285C279.681 104.285 283.696 95.8548 283.02 93.6055Z" fill="#373739"/>
<path d="M282.125 107.24C282.125 107.24 279.666 105.329 279.043 107.889C278.419 110.45 280.269 114.978 283.102 113.576L282.125 107.24Z" fill="#F06B3F"/>
<path d="M281.727 115.84C281.727 115.84 283.226 123.01 290.678 121.422C298.085 119.847 301.908 112.965 302.113 112.64C302.117 112.634 302.12 112.631 302.12 112.631L301.884 111.108L300.657 103.2L300.003 98.9742C300.003 98.9742 299.363 91.2496 291.924 91.3846C286.487 91.4823 281.771 93.3827 279.873 96.6291C279.173 97.8263 278.858 99.2075 279.031 100.75L280.381 108.305L280.712 110.157L281.727 115.84Z" fill="#F79B7B"/>
<path d="M296.953 104.133C296.953 104.133 295.854 108.537 293.428 108.332C291.002 108.128 288.307 108.402 286.437 109.805C286.437 109.805 282.679 109.244 280.904 111.114C279.715 112.368 282.512 121.713 287.704 122.05C292.898 122.387 299.138 119.274 299.758 114.314C300.377 109.355 299.446 105.44 299.446 105.44L296.953 104.133Z" fill="#373739"/>
<path d="M284.891 111.902C284.891 111.902 289.084 111.472 291.142 110.297C291.142 110.297 292.062 114.392 288.515 114.744C285.668 115.027 284.891 111.902 284.891 111.902Z" fill="white"/>
<path d="M292.494 105.742C291.168 106.021 290.183 106.671 290.293 107.192C290.402 107.714 291.566 107.91 292.892 107.631C294.218 107.352 295.204 106.702 295.094 106.181C294.984 105.659 293.82 105.463 292.494 105.742Z" fill="#F06B3F"/>
<path d="M280.713 110.159C280.902 110.138 281.099 110.106 281.297 110.064C282.622 109.785 283.608 109.136 283.498 108.613C283.388 108.091 282.224 107.895 280.899 108.174C280.72 108.212 280.548 108.256 280.383 108.307L280.713 110.159Z" fill="#F06B3F"/>
<path d="M290.235 102.827C289.834 102.912 289.631 103.561 289.783 104.278C289.934 104.995 290.381 105.507 290.782 105.423C291.183 105.338 291.385 104.689 291.234 103.972C291.083 103.255 290.636 102.743 290.235 102.827Z" fill="#373739"/>
<path d="M283.149 104.312C282.748 104.396 282.546 105.046 282.697 105.762C282.848 106.479 283.295 106.991 283.696 106.907C284.097 106.822 284.299 106.173 284.148 105.456C283.997 104.74 283.55 104.227 283.149 104.312Z" fill="#373739"/>
<path d="M287.092 108.621C287.254 108.586 287.359 108.427 287.325 108.264C287.291 108.101 287.131 107.997 286.968 108.031C285.882 108.26 285.257 107.796 285.035 107.582C285.7 104.909 286.354 102.22 286.36 102.192C286.401 102.031 286.301 101.868 286.139 101.829C285.978 101.79 285.815 101.889 285.775 102.05C285.768 102.078 285.089 104.871 284.411 107.593C284.39 107.68 284.407 107.773 284.462 107.847C284.497 107.893 285.345 108.989 287.092 108.621Z" fill="#373739"/>
<path d="M292.656 100.239C292.333 99.5168 291.402 98.2286 288.96 98.6308C288.662 98.68 288.438 98.9306 288.419 99.2323C288.397 99.6112 288.702 99.9323 289.081 99.9203C289.747 99.8997 290.752 100.054 291.504 100.989C291.739 101.281 292.179 101.298 292.451 101.038L292.514 100.978C292.714 100.787 292.769 100.492 292.656 100.239Z" fill="#373739"/>
<path d="M280.285 102.85C280.29 102.059 280.621 100.505 283.018 99.8877C283.31 99.812 283.616 99.9509 283.755 100.22C283.929 100.557 283.78 100.975 283.428 101.116C282.81 101.366 281.953 101.912 281.641 103.072C281.544 103.434 281.147 103.627 280.795 103.5L280.713 103.47C280.453 103.375 280.284 103.128 280.285 102.85Z" fill="#373739"/>
<path d="M299.156 110.211C299.207 110.283 300.611 112.273 302.103 112.627C302.106 112.622 302.109 112.619 302.109 112.619L301.873 111.095C301.873 111.095 300.653 111.142 299.156 110.211Z" fill="#373739"/>
<path d="M299.422 104.965C299.422 104.965 301.477 100.512 304.214 103.095C306.469 105.223 304.567 112.408 300.674 110.904L299.422 104.965Z" fill="#F79B7B"/>
<path d="M300.853 109.661C301.002 109.63 301.106 109.491 301.09 109.336C300.795 106.357 303.022 104.826 303.117 104.763C303.254 104.67 303.292 104.483 303.2 104.345C303.107 104.207 302.921 104.169 302.782 104.262C302.675 104.333 300.159 106.047 300.491 109.397C300.507 109.562 300.655 109.683 300.82 109.667C300.831 109.665 300.842 109.663 300.853 109.661Z" fill="#373739"/>
<path d="M303.226 107.301C303.312 107.283 303.388 107.228 303.432 107.144C303.508 106.996 303.45 106.814 303.302 106.739C303.164 106.667 301.932 106.057 301.093 106.471C300.944 106.544 300.883 106.725 300.957 106.874C301.03 107.024 301.212 107.085 301.36 107.011C301.841 106.774 302.747 107.131 303.026 107.274C303.09 107.307 303.16 107.315 303.226 107.301Z" fill="#373739"/>
<path d="M279.914 96.6291C280.019 96.8691 280.173 97.0638 280.375 97.2027C282.144 98.4172 285.454 97.1562 288.42 95.5077C291.386 93.8599 294.099 95.6919 294.099 95.6919C293.858 98.9157 296.897 98.5308 296.745 100.967C296.593 103.405 297.478 106.39 297.478 106.39L299.289 105.753C299.463 104.587 300.187 103.699 300.699 103.201L300.043 98.9742C300.043 98.9742 299.404 91.2503 291.964 91.3845C286.527 91.4829 281.811 93.382 279.914 96.6291Z" fill="#373739"/>
<path d="M335.439 198.289C335.439 198.289 342.536 226.294 305.733 226.294C286.076 226.294 276.733 224.397 276.733 224.397C276.733 224.397 276.26 241.755 275.346 249.077C274.432 256.4 271.192 274.645 271.192 274.645L255.708 275.844C255.708 275.844 253.235 212.299 262.724 206.448C272.214 200.596 285.856 200.423 309.28 198.175C309.28 198.174 330.31 194.613 335.439 198.289Z" fill="#373739"/>
<path d="M269.066 269.572C269.033 269.572 269 269.568 268.968 269.56C268.741 269.506 268.602 269.278 268.656 269.052C270.794 260.114 271.645 247.308 272.327 237.019C273.001 226.876 273.401 221.54 274.457 220.608C275.618 219.581 279.065 219.948 284.775 220.555C291.852 221.308 302.546 222.445 314.076 221.123C319.802 220.466 324.193 218.223 327.125 214.456C332.384 207.699 331.177 198.213 331.164 198.118C331.133 197.888 331.294 197.676 331.524 197.644C331.757 197.613 331.967 197.775 331.998 198.005C332.053 198.407 333.269 207.927 327.793 214.968C324.718 218.924 320.135 221.276 314.172 221.96C302.549 223.293 291.8 222.15 284.687 221.393C279.776 220.871 275.898 220.459 275.015 221.24C274.815 221.416 274.419 222.287 274.008 226.137C273.705 228.978 273.456 232.731 273.168 237.076C272.482 247.397 271.629 260.242 269.474 269.25C269.429 269.442 269.257 269.572 269.066 269.572Z" fill="#585859"/>
<path d="M255.862 270.836C255.642 270.836 255.456 270.664 255.442 270.441C255.428 270.208 255.605 270.009 255.838 269.995L271.67 269.04C271.905 269.025 272.101 269.203 272.115 269.435C272.129 269.667 271.953 269.866 271.72 269.881L255.888 270.835C255.879 270.836 255.871 270.836 255.862 270.836Z" fill="#585859"/>
<path d="M298.467 206.312H252.089C251.984 206.312 251.898 206.226 251.898 206.121V200.41C251.898 200.305 251.984 200.219 252.089 200.219H298.467C298.572 200.219 298.658 200.305 298.658 200.41V206.121C298.658 206.226 298.572 206.312 298.467 206.312Z" fill="#CED4E7"/>
<path d="M247.037 206.308C245.276 206.308 243.736 205.125 243.282 203.425L234.538 170.677C234.004 168.675 235.513 166.711 237.583 166.711H258.519C259.931 166.711 261.172 167.651 261.554 169.011L272.03 206.307H247.037V206.308Z" fill="white"/>
<path d="M261.529 169.013L271.917 206.001H274.31L263.921 169.013C263.536 167.652 262.298 166.711 260.885 166.711H258.492C259.906 166.711 261.144 167.652 261.529 169.013Z" fill="#CED4E7"/>
<path d="M255.617 187.036C256.093 189.093 254.812 190.761 252.755 190.761C250.698 190.761 248.644 189.093 248.17 187.036C247.693 184.98 248.975 183.312 251.031 183.312C253.088 183.312 255.141 184.98 255.617 187.036Z" fill="#CED4E7"/>
<path d="M284.189 192.973C284.189 192.973 274.699 193.626 271.664 196.528L273.509 203.096C273.509 203.096 279.184 200.776 280.756 201C282.328 201.225 283.267 203.808 288.524 202.235L284.189 192.973Z" fill="#F79B7B"/>
<path d="M284.23 192.533L285.3 192.097L286.411 191.63C287.154 191.314 287.896 190.992 288.637 190.663C290.119 190.005 291.591 189.324 293.051 188.623C295.967 187.22 298.832 185.735 301.595 184.154C304.354 182.573 307.023 180.896 309.461 179.101C310.068 178.652 310.663 178.198 311.236 177.736C311.807 177.273 312.361 176.806 312.89 176.333C313.935 175.386 314.893 174.416 315.639 173.474C316.011 173.008 316.344 172.538 316.589 172.123C316.811 171.745 317.018 171.324 317.206 170.855C317.58 169.917 317.872 168.805 318.071 167.589C318.464 165.142 318.479 162.319 318.224 159.427C317.97 156.528 317.462 153.54 316.786 150.563C316.447 149.074 316.065 147.586 315.644 146.114C315.434 145.378 315.214 144.646 314.986 143.924C314.871 143.564 314.756 143.206 314.638 142.857L314.463 142.343L314.376 142.099L314.334 141.987L314.316 141.936L314.306 141.918C312.305 137.742 314.068 132.734 318.244 130.732C322.419 128.73 327.428 130.493 329.429 134.669C329.623 135.073 329.782 135.485 329.907 135.901L330.159 136.773L330.226 137.005L330.279 137.192L330.376 137.55L330.556 138.241C330.672 138.697 330.782 139.146 330.888 139.595C331.1 140.492 331.296 141.383 331.481 142.276C331.851 144.062 332.172 145.853 332.444 147.661C332.985 151.276 333.344 154.954 333.393 158.755C333.416 160.654 333.356 162.587 333.178 164.56C332.997 166.532 332.696 168.548 332.196 170.608C331.688 172.667 330.982 174.778 329.926 176.876C329.398 177.923 328.775 178.964 328.051 179.968C327.348 180.936 326.629 181.777 325.89 182.565C324.414 184.136 322.89 185.435 321.356 186.626C319.818 187.805 318.266 188.86 316.704 189.84C313.581 191.793 310.421 193.453 307.237 194.975C304.054 196.494 300.846 197.862 297.614 199.131C295.996 199.764 294.374 200.372 292.741 200.956C291.925 201.248 291.106 201.534 290.281 201.814L289.038 202.229L287.743 202.647C284.93 203.554 281.913 202.009 281.006 199.196C280.142 196.518 281.501 193.655 284.061 192.604L284.23 192.533Z" fill="#F79B7B"/>
<path d="M323.062 174.505C323.031 174.505 322.998 174.501 322.966 174.491C319.729 173.52 316.114 173.671 316.078 173.672C315.894 173.679 315.739 173.538 315.731 173.355C315.723 173.171 315.864 173.016 316.048 173.008C316.2 173.001 319.809 172.85 323.158 173.855C323.334 173.907 323.433 174.093 323.38 174.268C323.337 174.412 323.205 174.505 323.062 174.505Z" fill="#F06B3F"/>
<path d="M316.899 173.665C316.805 173.665 316.714 173.626 316.647 173.55C316.528 173.411 316.542 173.202 316.681 173.081C317.888 172.036 319.408 171.579 319.471 171.561C319.648 171.509 319.832 171.609 319.884 171.785C319.936 171.961 319.836 172.145 319.659 172.198C319.645 172.202 318.211 172.635 317.116 173.584C317.053 173.638 316.976 173.665 316.899 173.665Z" fill="#F06B3F"/>
<path d="M334.901 153.344L328.022 155.232L327.516 155.372L322.764 156.674L322.186 156.834L316.07 158.509L315.599 156.342L315.493 155.824L314.389 150.733L314.276 150.22L312.195 140.615C311.63 138.395 311.258 135.616 311.571 133.35C312.029 129.993 314.974 125.639 320.405 125.347C321.375 125.293 322.286 125.44 323.137 125.752C323.31 125.805 323.482 125.878 323.649 125.952C325.291 126.696 326.713 128.065 327.936 129.827C328.035 129.966 328.129 130.106 328.215 130.252C330.542 133.788 332.13 138.734 333.194 143.36C333.24 143.54 333.28 143.719 333.32 143.899C333.811 146.099 334.184 148.219 334.463 150.054C334.509 150.34 334.55 150.62 334.583 150.892C334.715 151.801 334.822 152.626 334.901 153.344Z" fill="#31BCE8"/>
<path d="M334.462 150.034C333.645 149.289 332.541 148.771 330.84 149.077C328.819 149.436 327.23 148.784 326.591 147.328C326.107 146.238 326.332 144.962 327.111 144.364C328.666 143.167 331.052 143.267 333.319 143.879C333.278 143.699 333.238 143.52 333.193 143.34C330.866 142.749 328.433 142.709 326.798 143.958C326.067 144.523 325.729 145.507 325.848 146.524C325.887 146.863 325.98 147.202 326.12 147.535C326.864 149.216 328.666 149.981 330.933 149.575C332.761 149.243 333.771 149.954 334.581 150.872C334.548 150.599 334.508 150.32 334.462 150.034Z" fill="#C52D4C"/>
<path d="M327.261 135.017C325.851 132.977 326.908 131.627 328.197 130.258C328.111 130.112 328.017 129.972 327.918 129.832C326.556 131.262 325.18 132.903 326.841 135.31C327.991 136.978 328.277 138.334 327.632 139.032C326.907 139.81 325.166 139.63 323.405 138.593C321.784 137.636 321.258 134.353 321.916 129.341C322.075 128.137 322.608 127.054 323.378 126.21C323.458 126.123 323.544 126.037 323.631 125.957C323.465 125.884 323.292 125.811 323.119 125.758C322.208 126.695 321.597 127.911 321.411 129.267C321.125 131.481 320.972 134.053 321.391 136.048C321.677 137.39 322.215 138.48 323.146 139.032C324.542 139.85 325.918 140.169 326.922 139.956C327.361 139.863 327.733 139.67 328.005 139.378C328.829 138.493 328.556 136.904 327.261 135.017Z" fill="#C52D4C"/>
<path d="M314.386 150.279C313.258 143.562 311.829 137.27 311.813 137.202C311.783 137.068 311.649 136.983 311.515 137.014C311.38 137.045 311.296 137.179 311.327 137.313C311.342 137.381 312.762 143.634 313.887 150.319C313.96 150.584 314.386 150.598 314.386 150.279Z" fill="#C52D4C"/>
<path d="M312.573 142.174C312.528 142.174 312.481 142.161 312.44 142.134L309.846 140.473C309.729 140.398 309.695 140.243 309.77 140.127C309.845 140.011 310 139.977 310.116 140.051L312.709 141.713C312.826 141.787 312.86 141.942 312.786 142.059C312.737 142.133 312.657 142.174 312.573 142.174Z" fill="#C52D4C"/>
<path d="M333.885 265.453H284.18C283.017 265.453 282.074 264.51 282.074 263.347C282.074 262.185 283.017 261.242 284.18 261.242H333.885C335.048 261.242 335.991 262.185 335.991 263.347C335.991 264.51 335.048 265.453 333.885 265.453Z" fill="#1C59A9"/>
<path d="M279.617 297.608C279.523 297.608 279.429 297.602 279.334 297.589C278.181 297.435 277.372 296.375 277.527 295.223L286.581 227.619C286.721 226.574 287.613 225.793 288.668 225.793H329.221C330.277 225.793 331.17 226.576 331.308 227.624L340.222 295.227C340.374 296.379 339.562 297.437 338.409 297.59C337.257 297.743 336.199 296.93 336.046 295.777L327.375 230.004H290.51L281.7 295.782C281.559 296.839 280.655 297.608 279.617 297.608Z" fill="#1C73BB"/>
<path d="M300.406 227.895H326.744C335.089 227.895 344.024 223.328 345.305 215.083C347.018 204.058 347.442 193.381 346.963 183.582C346.423 172.501 342.118 162.214 333.406 155.344C333.406 155.344 337.167 198.084 333.774 209.893C329.241 225.669 300.406 227.895 300.406 227.895Z" fill="#1C73BB"/>
<path d="M219.793 139.872V152.515C219.793 154.186 221.149 155.543 222.821 155.543H245.777L252.708 158.029C253.42 158.285 254.101 157.585 253.828 156.881L251.207 150.11V139.871C251.207 138.2 249.851 136.844 248.178 136.844H222.821C221.15 136.844 219.793 138.2 219.793 139.872Z" fill="#1C73BB"/>
<path d="M241.932 148.754C243.141 148.754 244.121 147.774 244.121 146.565C244.121 145.355 243.141 144.375 241.932 144.375C240.722 144.375 239.742 145.355 239.742 146.565C239.742 147.774 240.722 148.754 241.932 148.754Z" fill="#1C59A9"/>
<path d="M234.998 148.754C236.207 148.754 237.188 147.774 237.188 146.565C237.188 145.355 236.207 144.375 234.998 144.375C233.789 144.375 232.809 145.355 232.809 146.565C232.809 147.774 233.789 148.754 234.998 148.754Z" fill="#1C59A9"/>
<path d="M228.065 148.755C229.275 148.755 230.255 147.775 230.255 146.565C230.255 145.356 229.275 144.375 228.065 144.375C226.856 144.375 225.875 145.356 225.875 146.565C225.875 147.775 226.856 148.755 228.065 148.755Z" fill="#1C59A9"/>
<g opacity="0.3">
<path d="M172.452 146.864C170.792 146.802 169.41 147.716 169.366 148.907C169.321 150.097 170.631 151.111 172.291 151.173C173.951 151.235 175.333 150.32 175.377 149.13C175.421 147.94 174.112 146.925 172.452 146.864Z" fill="white"/>
</g>
<g opacity="0.3">
<path d="M179.618 146.796C177.818 146.729 176.321 147.721 176.273 149.011C176.224 150.301 177.645 151.402 179.444 151.469C181.244 151.536 182.742 150.544 182.79 149.254C182.838 147.963 181.418 146.863 179.618 146.796Z" fill="white"/>
</g>
<path d="M175.088 149.163C175.132 149.165 175.177 149.151 175.214 149.121C175.863 148.595 176.335 149.127 176.354 149.15C176.423 149.229 176.541 149.238 176.62 149.17C176.698 149.102 176.707 148.983 176.639 148.905C176.39 148.615 175.721 148.227 174.976 148.829C174.896 148.894 174.882 149.012 174.949 149.094C174.984 149.138 175.036 149.161 175.088 149.163Z" fill="white"/>
<path d="M182.404 148.951C182.438 148.953 182.473 148.945 182.503 148.927C184.517 147.782 186.982 147.858 187.008 147.858C187.112 147.862 187.199 147.781 187.203 147.678C187.207 147.574 187.125 147.486 187.021 147.483C186.916 147.479 184.426 147.4 182.318 148.6C182.227 148.651 182.196 148.766 182.248 148.857C182.28 148.915 182.341 148.949 182.404 148.951Z" fill="#A41E22"/>
<path d="M169.349 149.085C169.405 149.087 169.461 149.064 169.5 149.018C169.895 148.548 171.124 148.382 171.565 148.357C171.669 148.351 171.748 148.262 171.742 148.158C171.737 148.055 171.647 147.975 171.545 147.981C171.474 147.985 169.789 148.086 169.212 148.776C169.145 148.856 169.156 148.974 169.235 149.041C169.269 149.069 169.309 149.084 169.349 149.085Z" fill="#A41E22"/>
<g opacity="0.3">
<path d="M172.452 113.629C170.792 113.567 169.41 114.482 169.366 115.672C169.321 116.862 170.631 117.877 172.291 117.939C173.951 118.001 175.333 117.086 175.377 115.896C175.421 114.706 174.112 113.691 172.452 113.629Z" fill="white"/>
</g>
<g opacity="0.3">
<path d="M179.618 113.566C177.818 113.499 176.321 114.49 176.273 115.781C176.224 117.071 177.645 118.171 179.444 118.238C181.244 118.305 182.742 117.313 182.79 116.023C182.838 114.733 181.418 113.633 179.618 113.566Z" fill="white"/>
</g>
<path d="M175.088 115.929C175.132 115.93 175.177 115.917 175.214 115.887C175.863 115.361 176.335 115.892 176.354 115.916C176.423 115.994 176.541 116.003 176.62 115.936C176.698 115.868 176.707 115.749 176.639 115.67C176.39 115.381 175.721 114.992 174.976 115.595C174.896 115.66 174.882 115.778 174.949 115.859C174.984 115.904 175.036 115.927 175.088 115.929Z" fill="white"/>
<path d="M182.404 115.725C182.438 115.726 182.473 115.718 182.503 115.7C184.517 114.555 186.982 114.631 187.008 114.632C187.112 114.636 187.199 114.555 187.203 114.451C187.207 114.347 187.125 114.26 187.021 114.256C186.916 114.252 184.426 114.174 182.318 115.374C182.227 115.425 182.196 115.54 182.248 115.63C182.28 115.689 182.341 115.723 182.404 115.725Z" fill="#A41E22"/>
<path d="M169.349 115.85C169.405 115.852 169.461 115.83 169.5 115.783C169.895 115.313 171.124 115.147 171.565 115.123C171.669 115.117 171.748 115.028 171.742 114.924C171.737 114.82 171.647 114.74 171.545 114.746C171.474 114.75 169.789 114.852 169.212 115.541C169.145 115.621 169.156 115.739 169.235 115.807C169.269 115.835 169.309 115.849 169.349 115.85Z" fill="#A41E22"/>
<path d="M128.497 34.8635C126.26 35.1281 124.223 33.5235 123.958 31.2861C123.693 29.0486 125.298 27.0126 127.536 26.7474C129.774 26.4822 131.81 28.0875 132.074 30.3242C132.34 32.5623 130.735 34.5983 128.497 34.8635ZM127.607 27.3457C125.699 27.5717 124.331 29.3072 124.557 31.2143C124.783 33.122 126.519 34.4893 128.426 34.264C130.334 34.038 131.702 32.3017 131.476 30.3947C131.25 28.4883 129.514 27.1197 127.607 27.3457Z" fill="white"/>
<path d="M137.891 34.9644C135.654 35.2297 133.618 33.6244 133.353 31.387C133.088 29.1495 134.693 27.1135 136.93 26.849C139.168 26.5838 141.204 28.1884 141.47 30.4251C141.734 32.6639 140.129 34.6992 137.891 34.9644ZM137.001 27.4472C135.094 27.6732 133.726 29.4095 133.952 31.3158C134.178 33.2229 135.913 34.5915 137.82 34.3649C139.728 34.1389 141.096 32.404 140.87 30.4963C140.645 28.5892 138.908 27.2219 137.001 27.4472Z" fill="white"/>
<path d="M133.441 31.2814C132.823 30.6194 132.116 31.1518 132.036 31.215L131.656 30.747C132.07 30.408 133.069 29.9966 133.883 30.87L133.441 31.2814Z" fill="white"/>
<path d="M124.177 29.9848C124.059 29.9987 123.936 29.9595 123.845 29.8698C123.801 29.8352 123.098 29.3221 120.195 29.1978C119.972 29.1885 119.799 28.9997 119.809 28.7777C119.818 28.5537 120.011 28.3768 120.23 28.3915C123.571 28.5337 124.316 29.1845 124.431 29.3141C124.58 29.4809 124.566 29.7362 124.399 29.8844C124.335 29.9422 124.257 29.9755 124.177 29.9848Z" fill="white"/>
<path d="M141.238 30.7548C141.177 30.7615 141.113 30.7515 141.056 30.7189C140.586 30.4584 139.713 30.4418 139.416 30.4584C139.25 30.467 139.107 30.3394 139.098 30.1732C139.089 30.007 139.216 29.8628 139.383 29.8562C139.434 29.8535 140.632 29.7943 141.349 30.1912C141.495 30.2723 141.548 30.4557 141.466 30.6013C141.417 30.6904 141.332 30.7442 141.238 30.7548Z" fill="white"/>
<path d="M84.4717 267.217C84.4717 267.217 84.7924 265.908 84.4717 267.501C84.425 267.739 84.3097 268.453 84.2488 268.716C83.6178 271.514 81.9631 275.565 79.2583 279.072C79.257 279.073 79.257 279.074 79.257 279.074C79.108 279.264 78.9603 279.449 78.8035 279.637C77.822 280.819 76.6727 281.92 75.3258 282.87C75.1917 282.965 75.0543 283.059 74.9144 283.151C72.7609 284.576 70.1267 285.611 66.9068 285.973H66.9055C66.7027 285.995 66.4986 286.016 66.2919 286.032H66.2907C65.6551 286.087 64.9975 286.115 64.3179 286.115C61.5781 286.115 59.1752 285.666 57.0696 284.899C56.9193 284.845 56.7696 284.788 56.6226 284.731C53.7052 283.584 51.3736 281.825 49.5187 279.822C49.3768 279.67 49.2382 279.516 49.1041 279.361C47.3561 277.367 46.0559 275.168 45.0983 273.113C45.0349 272.977 44.974 272.841 44.9131 272.707C43.1081 268.687 42.7148 267.463 42.7148 267.463L84.4717 267.217Z" fill="#E69F3E"/>
<path d="M51.129 265.328C49.613 268.324 47.7219 271.247 45.0994 273.117C45.0359 272.981 44.975 272.845 44.9141 272.711C47.3844 270.927 49.1835 268.163 50.6282 265.328H51.129Z" fill="#FFEEDA"/>
<path d="M57.3165 265.329C54.7807 267.318 52.7296 269.896 51.3555 272.821C50.5016 274.638 49.4754 277.393 49.5123 279.826C49.3704 279.674 49.2318 279.52 49.0977 279.365C49.1728 277.286 49.901 275.084 50.5864 273.445C51.9048 270.293 53.9813 267.502 56.6006 265.328L57.3165 265.329Z" fill="#FFEEDA"/>
<path d="M75.3086 282.874C75.1745 282.968 75.0372 283.062 74.8972 283.154C73.6429 276.788 74.9277 271.484 79.3681 266.715C74.8577 271.361 74.1314 276.56 75.3086 282.874Z" fill="#FFEEDA"/>
<path d="M69.441 282.471C68.6338 283.665 67.7883 284.832 66.9053 285.971H66.904C66.7012 285.993 66.4971 286.014 66.2905 286.029C67.5434 284.431 68.7245 282.777 69.8272 281.07C70.4614 280.088 71.5887 278.656 71.1728 277.393C70.648 275.802 68.4576 276.471 67.3394 276.86C63.1399 278.317 59.9388 281.575 57.0681 284.896C56.9178 284.843 56.7682 284.786 56.6211 284.729C57.9168 283.23 59.2579 281.768 60.7363 280.445C62.4 278.954 64.2445 277.642 66.3106 276.773C67.6957 276.191 70.2256 275.187 71.3497 276.762C72.6039 278.518 70.3662 281.105 69.441 282.471Z" fill="#FFEEDA"/>
<path d="M84.0864 267.945C84.0397 268.183 83.9873 268.432 83.9264 268.694C81.0699 271.384 79.3894 275.183 79.2676 279.075C79.2663 279.076 79.2663 279.078 79.2663 279.078C79.1173 279.267 78.9696 279.453 78.8128 279.64C78.7856 275.22 80.7007 270.852 84.0864 267.945Z" fill="#FFEEDA"/>
<path d="M75.4086 265.329C74.5509 266.131 73.6724 266.912 72.7744 267.67C70.5989 269.504 68.3139 271.207 65.9349 272.766C64.7817 273.521 63.6013 274.352 62.3328 274.902C61.3474 275.328 60.1702 275.53 59.2509 274.843C57.306 273.392 58.353 270.461 59.2179 268.703C59.8327 267.452 60.6464 266.316 61.6137 265.328H62.257C61.0124 266.514 60.0082 267.944 59.3306 269.54C58.8531 270.664 58.3679 272.029 58.7158 273.251C59.2133 274.999 60.925 275.066 62.3386 274.404C64.4915 273.399 66.5135 271.886 68.4305 270.497C70.6345 268.9 72.7414 267.171 74.7413 265.328L75.4086 265.329Z" fill="#FFEEDA"/>
<path d="M63.5425 269.723C75.1015 269.723 84.4718 268.601 84.4718 267.217C84.4718 265.833 75.1015 264.711 63.5425 264.711C51.9836 264.711 42.6133 265.833 42.6133 267.217C42.6133 268.601 51.9836 269.723 63.5425 269.723Z" fill="#14130F"/>
<path d="M74.2044 221.525C72.9495 223.03 72.0444 228.591 69.6453 229.486C67.9946 230.103 67.1206 227.718 70.3185 224.706C72.3793 222.766 73.2974 220.447 73.688 219.041C73.1237 216.585 72.3865 214.065 71.4341 211.771C69.5877 213.477 66.6282 215.897 65.7834 214.741C64.8634 213.481 67.6169 209.509 69.1575 207.473C68.4423 206.432 67.6473 205.526 66.7643 204.806C65.3215 203.627 63.6461 202.951 61.7025 203.003C60.3005 203.04 59.0152 203.549 57.8568 204.407C59.5043 207.666 61.9312 213.173 60.2299 214.44C58.6511 215.616 56.3628 211.056 54.931 207.653C52.9162 210.765 51.5621 215.03 50.9758 219.143C51.3691 219.881 52.0526 220.737 53.2297 221.583C56.3499 223.825 60.0556 228.358 58.2028 229.364C56.3505 230.373 54.416 227.71 53.0347 225.337C52.326 224.117 51.531 223.134 50.6681 222.483C50.6383 223.203 50.637 223.906 50.6629 224.584C51.1533 237.524 63.7867 237.52 63.7867 237.52C63.7867 237.52 76.4369 234.605 74.2044 221.525ZM58.3025 221.784C57.0496 221.771 55.0593 219.434 54.1283 218.136C53.1941 216.832 53.9424 215.946 54.8391 216.197C54.8514 216.201 54.8637 216.204 54.8773 216.208C56.1335 216.585 59.9248 221.799 58.3025 221.784ZM69.324 218.683C69.337 218.679 69.3499 218.675 69.3622 218.671C70.2582 218.421 70.9955 219.02 70.5731 220.164C70.0205 221.663 69.2864 222.257 68.1676 221.695C67.4633 221.342 68.0665 219.061 69.324 218.683Z" fill="#047C6D"/>
<path d="M62.4162 218.29C63.5234 223.949 63.1664 229.79 62.7447 235.503C62.2918 241.645 61.6789 247.797 61.9225 253.962C62.0592 257.409 62.4758 260.842 63.3025 264.194C63.3776 264.499 63.8473 264.37 63.7722 264.065C60.7687 251.891 63.55 239.504 63.6271 227.202C63.6458 224.172 63.4683 221.138 62.8852 218.16C62.825 217.852 62.3559 217.983 62.4162 218.29Z" fill="#14130F"/>
<path d="M56.7455 237.574C56.6199 239.529 59.1679 244.554 57.7582 246.692C56.789 248.163 54.6756 246.753 55.4829 242.435C56.0031 239.652 55.376 237.238 54.8628 235.872C52.9594 234.222 50.8778 232.621 48.7548 231.331C48.2702 233.798 47.3075 237.497 45.9424 237.062C44.4569 236.587 44.3383 231.756 44.3817 229.202C43.1903 228.784 42.0144 228.52 40.8761 228.459C39.0161 228.358 37.2649 228.8 35.7249 229.988C34.6145 230.845 33.8766 232.014 33.4477 233.39C36.7 235.051 41.9082 238.067 41.2817 240.094C40.7005 241.974 36.1629 239.641 33 237.737C33.2073 241.439 34.6294 245.681 36.5814 249.35C37.3342 249.713 38.3909 250.001 39.8408 249.99C43.6833 249.961 49.3482 251.436 48.4451 253.342C47.5439 255.248 44.4115 254.239 41.8965 253.136C40.6053 252.57 39.3834 252.244 38.3028 252.229C38.7032 252.828 39.1171 253.396 39.5376 253.929C47.564 264.089 57.7646 256.636 57.7646 256.636C57.7646 256.636 66.262 246.821 56.7455 237.574ZM44.0558 247.161C43.0374 247.889 40.0507 247.175 38.5341 246.677C37.0103 246.175 37.0919 245.018 37.964 244.692C37.9763 244.688 37.9879 244.683 38.0015 244.679C39.2389 244.242 45.3749 246.216 44.0558 247.161ZM51.1286 238.157C51.1363 238.147 51.1448 238.136 51.1525 238.126C51.7285 237.396 52.677 237.444 53.0106 238.618C53.4486 240.153 53.2056 241.066 51.9708 241.272C51.1933 241.402 50.3356 239.203 51.1286 238.157Z" fill="#047C6D"/>
<path d="M45.2954 241.887C48.2516 244.608 51.1818 247.43 53.5744 250.674C55.4195 253.176 56.8416 255.926 58.1283 258.748C59.0366 260.741 59.9021 262.754 60.7897 264.755C60.9167 265.04 61.3371 264.794 61.2102 264.509C59.7473 261.211 58.3842 257.849 56.6699 254.669C55.1461 251.843 53.246 249.276 51.0788 246.911C49.3575 245.032 47.513 243.268 45.6387 241.543C45.4087 241.331 45.0641 241.675 45.2954 241.887Z" fill="#14130F"/>
<path d="M67.7462 258.966C67.7462 258.966 77.8944 266.49 85.992 256.386C86.4164 255.857 86.8343 255.292 87.2392 254.696C86.1579 254.704 84.9334 255.021 83.6384 255.579C81.1156 256.663 77.9767 257.651 77.0884 255.738C76.1989 253.826 81.8748 252.39 85.716 252.447C87.166 252.468 88.2246 252.187 88.98 251.829C90.9579 248.174 92.4092 243.942 92.6424 240.242C89.4666 242.123 84.9121 244.425 84.3445 242.54C83.7317 240.509 88.9606 237.53 92.2245 235.891C91.8053 234.512 91.0758 233.338 89.9706 232.474C88.4397 231.275 86.6904 230.82 84.8298 230.909C83.6915 230.962 82.5137 231.217 81.319 231.628C81.3443 234.18 81.1927 239.011 79.7032 239.475C78.3362 239.902 77.3981 236.195 76.9317 233.725C74.8002 235.001 72.7069 236.587 70.7918 238.224C70.269 239.587 69.6257 241.995 70.1265 244.782C70.9033 249.106 68.7809 250.501 67.8214 249.023C66.4272 246.876 69.0102 241.868 68.8981 239.912C59.3194 249.093 67.7462 258.966 67.7462 258.966ZM87.5942 247.147C87.6078 247.152 87.6195 247.157 87.6318 247.161C88.5012 247.494 88.5751 248.65 87.0481 249.142C85.5275 249.631 82.5363 250.323 81.5231 249.588C80.2105 248.633 86.3594 246.702 87.5942 247.147ZM73.6489 243.644C72.416 243.429 72.1789 242.515 72.6279 240.982C72.97 239.811 73.9191 239.769 74.4892 240.503C74.497 240.514 74.5054 240.525 74.5132 240.535C75.2984 241.587 74.4251 243.779 73.6489 243.644Z" fill="#047C6D"/>
<path d="M79.9796 243.964C77.0713 246.6 74.1164 249.254 71.604 252.282C69.755 254.511 68.2824 256.976 67.0016 259.568C66.0401 261.515 65.1525 263.496 64.2585 265.474C64.1302 265.758 64.5494 266.006 64.679 265.721C66.0861 262.609 67.446 259.445 69.201 256.509C70.7767 253.877 72.7617 251.562 74.9217 249.394C76.6671 247.642 78.4921 245.969 80.3236 244.309C80.5568 244.097 80.2115 243.754 79.9796 243.964Z" fill="#14130F"/>
</svg>
