<svg width="461" height="336" viewBox="0 0 461 336" fill="none" xmlns="http://www.w3.org/2000/svg">
<g opacity="0.4">
<path d="M203.408 302.637C176.712 303.527 150.225 297.118 127.068 283.8C97.1618 266.603 67.373 235.038 75.3173 178.478C90.3701 71.3113 240.307 26.2535 314.289 36.6565C431.866 53.1907 510.313 193.607 367.102 270.289C331.498 289.352 245.773 301.228 203.408 302.637Z" fill="#A9C7E9"/>
</g>
<g opacity="0.4">
<path d="M34.3392 104.718C27.9244 104.932 21.5599 103.392 15.9955 100.192C8.80949 96.0594 1.65159 88.4748 3.56051 74.884C7.17752 49.1332 43.2056 38.3063 60.9826 40.806C89.2349 44.779 108.085 78.5192 73.6728 96.945C65.1176 101.526 44.519 104.379 34.3392 104.718Z" fill="#A9C7E9"/>
</g>
<path d="M108.492 139.727L119.255 179.081L115.418 174.658C116.84 175.413 118.485 175.994 120.305 176.402C122.124 176.811 124.109 177.048 126.184 177.156C128.259 177.264 130.422 177.245 132.633 177.153C134.845 177.061 137.106 176.895 139.4 176.699L139.412 176.698C142.797 176.409 145.774 178.919 146.064 182.305C146.338 185.532 144.049 188.391 140.903 188.901C138.538 189.278 136.131 189.635 133.662 189.921C131.193 190.205 128.662 190.42 126.041 190.48C123.422 190.537 120.706 190.439 117.9 190.033C115.099 189.625 112.193 188.895 109.353 187.67C107.536 186.886 106.241 185.394 105.653 183.656L105.516 183.248L92.6048 144.547C91.1536 140.196 93.5032 135.493 97.8538 134.042C102.204 132.591 106.907 134.941 108.359 139.291C108.405 139.426 108.454 139.589 108.492 139.727Z" fill="#F89E72"/>
<path d="M111.089 278.617C110.929 278.617 110.766 278.59 110.607 278.533L54.2252 258.205C53.4865 257.939 53.1032 257.124 53.37 256.385C53.6361 255.647 54.4511 255.263 55.1898 255.53L111.572 275.857C112.311 276.124 112.693 276.939 112.427 277.677C112.218 278.256 111.671 278.617 111.089 278.617Z" fill="#B45126"/>
<path d="M52.4069 278.617C51.8248 278.617 51.2788 278.256 51.0698 277.678C50.8023 276.939 51.184 276.124 51.9227 275.857L108.973 255.195C109.712 254.927 110.528 255.309 110.795 256.047C111.062 256.786 110.681 257.601 109.942 257.868L52.8912 278.531C52.7316 278.589 52.5673 278.617 52.4069 278.617Z" fill="#B45126"/>
<path d="M116.123 314.943C114.922 314.943 113.878 314.055 113.714 312.832L103.53 236.793H60.915L50.8898 312.828C50.714 314.16 49.4917 315.098 48.1585 314.922C46.826 314.746 45.8883 313.524 46.0642 312.191L56.367 234.042C56.5266 232.831 57.5591 231.926 58.7806 231.926H105.659C106.879 231.926 107.91 232.828 108.071 234.036L118.538 312.186C118.716 313.519 117.781 314.742 116.449 314.921C116.339 314.935 116.231 314.943 116.123 314.943Z" fill="#DA7C2F"/>
<path d="M110.396 231.87L63.7835 235.029C52.0094 234.36 41.6796 229.081 40.1998 219.55C38.2196 206.805 37.7292 194.462 38.2828 183.135C38.9082 170.326 45.0247 158.407 55.0954 150.465C55.0954 150.465 80.1881 178.317 72.541 214.897C75.4604 228.796 110.396 231.87 110.396 231.87Z" fill="#DA7C2F"/>
<path d="M85.8677 84.0707C85.8677 84.0707 82.2465 75.3486 72.6655 76.9911C65.9692 78.1385 63.1161 86.4835 63.5109 99.3664C64.0846 118.117 57.7422 129.417 57.7422 129.417L66.1612 131.33C66.1612 131.33 87.5896 99.1852 85.8677 84.0707Z" fill="#C24B2B"/>
<path d="M53.3498 186.056C53.3498 186.056 52.9196 188.987 56.8491 189.812L97.8059 191.177C97.8059 191.177 100.573 189.786 100.075 186.356C100.075 186.356 82.7816 176.644 53.3498 186.056Z" fill="#132549"/>
<path d="M98.3832 199.595C77.1237 211.289 53.9102 201.873 53.9102 201.873C55.046 198.774 55.8865 195.28 56.4965 192.102C57.2051 188.405 57.603 185.138 57.7834 183.422C66.8278 182.924 88.9949 181.983 97.6807 184.042L97.7494 187.523L98.3832 199.595Z" fill="#F89E72"/>
<path d="M81.5289 195.876C81.9825 195.941 82.4778 195.106 82.6351 194.01C82.7925 192.913 82.5523 191.972 82.0987 191.907C81.6451 191.842 81.1498 192.678 80.9924 193.774C80.8351 194.87 81.0753 195.811 81.5289 195.876Z" fill="#E07B53"/>
<path d="M97.7099 187.523C88.6571 186.973 70.8429 186.782 56.457 192.102C57.1657 188.405 57.5636 185.138 57.744 183.422C66.7884 182.924 88.9555 181.983 97.6413 184.042L97.7099 187.523Z" fill="#E07B53"/>
<path d="M107.853 170.706C107.769 170.968 107.666 171.214 107.548 171.445C107.504 171.532 107.459 171.619 107.412 171.703C106.273 173.815 104.511 175.645 103.035 176.948C102.728 177.218 102.433 177.465 102.16 177.687C101.615 178.129 101.152 178.473 100.834 178.7C100.542 178.909 100.37 179.018 100.37 179.018C100.367 179.037 100.366 179.057 100.364 179.081C100.348 179.238 100.335 179.404 100.32 179.579C100.27 180.247 100.225 181.046 100.192 181.954C100.163 182.686 100.144 183.488 100.123 184.35C100.112 184.99 100.1 185.657 100.093 186.354C88.0782 180.987 63.3348 184.374 53.3682 186.051C53.5502 185.19 53.7168 184.348 53.8702 183.524C54.5742 179.724 54.9698 176.301 55.1271 173.236C55.3639 168.673 54.9644 161.815 53.9967 154.733C53.935 154.272 53.8702 153.815 53.8031 153.354C53.7592 153.054 53.7145 152.756 53.6651 152.456C53.3258 150.233 52.9302 148.006 52.4784 145.845C50.5128 136.417 51.8931 126.521 61.4518 125.35C62.145 125.265 62.8298 125.188 63.4929 125.117C67.9977 124.637 71.7045 124.473 72.7339 124.433C72.9221 124.426 73.0192 124.422 73.0192 124.422L91.4981 129.789L93.2555 130.299C94.2656 130.624 95.1994 130.939 96.0631 131.245C96.4325 131.38 96.7895 131.509 97.1326 131.638C98.0287 131.974 98.8422 132.303 99.5786 132.628C101.058 133.282 102.23 133.92 103.158 134.579C107.212 137.457 106.583 140.709 106.48 147.13C106.48 147.159 106.478 147.188 106.478 147.217C106.476 147.298 106.476 147.379 106.475 147.464C106.473 147.5 106.475 147.538 106.475 147.574C106.471 147.837 106.471 148.099 106.473 148.36C106.478 149.189 106.507 150.015 106.557 150.84C106.627 152.052 106.735 153.258 106.866 154.439C106.918 154.912 106.973 155.384 107.031 155.85C107.085 156.289 107.141 156.726 107.199 157.158C107.943 162.779 108.858 167.706 107.853 170.706Z" fill="#344B86"/>
<path d="M106.464 147.214C106.462 147.295 106.462 147.377 106.461 147.462C106.459 147.498 106.461 147.536 106.461 147.572C106.457 147.834 106.457 148.096 106.459 148.358L102.577 150.795C102.459 150.869 102.324 150.892 102.196 150.871C102.05 150.845 101.914 150.761 101.829 150.626C101.67 150.37 101.748 150.037 102 149.878L106.117 147.294C106.225 147.227 106.347 147.201 106.464 147.214Z" fill="#132549"/>
<path d="M80.866 168.015C80.718 168.015 80.5692 167.955 80.4627 167.836C80.263 167.613 80.2815 167.271 80.5036 167.071L84.117 163.819C84.3391 163.618 84.6815 163.637 84.882 163.86C85.0825 164.082 85.064 164.424 84.8419 164.625L81.2285 167.876C81.1244 167.97 80.9948 168.015 80.866 168.015Z" fill="#132549"/>
<path d="M107.185 157.163L104.71 159.391C104.605 159.485 104.477 159.53 104.346 159.53C104.199 159.53 104.05 159.47 103.944 159.351C103.743 159.129 103.762 158.786 103.984 158.585L107.018 155.855C107.071 156.294 107.127 156.731 107.185 157.163Z" fill="#132549"/>
<path d="M73.5347 154.945C73.4499 154.823 73.4152 154.667 73.4522 154.511C73.5209 154.22 73.8131 154.04 74.1046 154.108L78.8361 155.223C79.1268 155.291 79.3073 155.583 79.2386 155.875C79.17 156.166 78.8778 156.347 78.5863 156.277L73.8555 155.163C73.7198 155.132 73.608 155.051 73.5347 154.945Z" fill="#132549"/>
<path d="M56.655 164.222C56.5069 164.222 56.3589 164.161 56.2525 164.043C56.052 163.821 56.0705 163.477 56.2926 163.278L59.906 160.026C60.1288 159.825 60.4712 159.844 60.6717 160.066C60.8714 160.289 60.8529 160.631 60.6308 160.832L57.0174 164.083C56.9141 164.176 56.7845 164.222 56.655 164.222Z" fill="#132549"/>
<path d="M98.708 163.449C98.755 163.308 98.8583 163.187 99.0056 163.123C99.2794 163.004 99.5994 163.129 99.7189 163.404L101.66 167.86C101.779 168.134 101.654 168.454 101.38 168.573C101.105 168.693 100.785 168.567 100.667 168.293L98.7257 163.836C98.6694 163.709 98.6663 163.572 98.708 163.449Z" fill="#132549"/>
<path d="M107.832 170.702C107.747 170.964 107.644 171.209 107.526 171.441C107.482 171.528 107.438 171.615 107.391 171.699L104.751 170.867C104.617 170.825 104.512 170.737 104.447 170.625C104.371 170.499 104.348 170.34 104.397 170.189C104.487 169.903 104.791 169.744 105.076 169.834L107.832 170.702Z" fill="#132549"/>
<path d="M92.9329 171.093C93.0801 171.077 93.2336 171.123 93.3524 171.231C93.5737 171.432 93.5906 171.774 93.3894 171.996L90.1229 175.595C89.9217 175.817 89.5793 175.834 89.358 175.633C89.1359 175.432 89.119 175.089 89.3202 174.867L92.5866 171.268C92.6807 171.164 92.8049 171.106 92.9329 171.093Z" fill="#132549"/>
<path d="M90.9882 162.797C90.8424 162.772 90.7075 162.686 90.6219 162.551C90.4631 162.298 90.5394 161.964 90.7931 161.804L94.91 159.22C95.1637 159.06 95.4984 159.137 95.6573 159.39C95.8169 159.644 95.7398 159.979 95.4861 160.138L91.3691 162.722C91.2504 162.796 91.1154 162.819 90.9882 162.797Z" fill="#132549"/>
<path d="M93.6017 147.145C93.7004 147.256 93.7536 147.406 93.7366 147.565C93.7042 147.863 93.4366 148.078 93.1398 148.045L88.3072 147.519C88.0096 147.486 87.7944 147.219 87.8276 146.921C87.86 146.623 88.1276 146.408 88.4244 146.441L93.257 146.967C93.395 146.983 93.5161 147.048 93.6017 147.145Z" fill="#132549"/>
<path d="M86.5979 136.663C86.6326 136.519 86.7266 136.39 86.8677 136.315C87.1315 136.173 87.4607 136.272 87.6018 136.536L89.9013 140.818C90.0432 141.082 89.9445 141.41 89.6808 141.552C89.4163 141.694 89.0878 141.594 88.9467 141.331L86.6472 137.049C86.5801 136.926 86.567 136.789 86.5979 136.663Z" fill="#132549"/>
<path d="M103.036 176.949C102.73 177.218 102.435 177.466 102.162 177.688L101.527 176.069C101.474 175.939 101.478 175.801 101.523 175.68C101.574 175.541 101.683 175.424 101.831 175.366C102.109 175.256 102.424 175.393 102.534 175.672L103.036 176.949Z" fill="#132549"/>
<path d="M58.5841 168.716C58.5139 168.586 58.4977 168.427 58.5517 168.277C58.6534 167.995 58.9634 167.849 59.2449 167.95L63.8191 169.596C64.0998 169.697 64.2471 170.007 64.1453 170.289C64.0435 170.57 63.7335 170.717 63.4521 170.616L58.8786 168.97C58.7468 168.922 58.645 168.83 58.5841 168.716Z" fill="#132549"/>
<path d="M60.8395 174.895C60.9875 174.896 61.1348 174.958 61.2412 175.077C61.4394 175.302 61.4178 175.644 61.1942 175.842L57.553 179.063C57.3286 179.261 56.9862 179.24 56.788 179.016C56.5899 178.792 56.6115 178.449 56.8351 178.251L60.4763 175.03C60.5811 174.938 60.7107 174.894 60.8395 174.895Z" fill="#132549"/>
<path d="M67.4347 180.003C67.5264 180.12 67.5712 180.273 67.5442 180.431C67.4941 180.726 67.2141 180.925 66.9188 180.874L62.1271 180.057C61.8318 180.007 61.6328 179.727 61.6837 179.432C61.7346 179.136 62.0145 178.938 62.3091 178.988L67.1016 179.806C67.238 179.828 67.3552 179.902 67.4347 180.003Z" fill="#132549"/>
<path d="M71.4371 134.5C71.3977 134.357 71.4186 134.199 71.5049 134.064C71.6669 133.813 72.0031 133.741 72.2537 133.903L76.339 136.538C76.5896 136.7 76.6629 137.036 76.5002 137.288C76.3382 137.539 76.002 137.612 75.7507 137.449L71.6661 134.814C71.5496 134.738 71.471 134.625 71.4371 134.5Z" fill="#132549"/>
<path d="M99.3067 137.608C99.4378 137.538 99.5959 137.521 99.7462 137.575C100.028 137.675 100.177 137.984 100.076 138.266L98.4515 142.847C98.3513 143.129 98.0413 143.277 97.7598 143.176C97.4776 143.076 97.3296 142.766 97.4298 142.484L99.0553 137.903C99.1016 137.772 99.1941 137.67 99.3067 137.608Z" fill="#132549"/>
<path d="M97.1126 131.639L94.6019 134.857C94.4176 135.094 94.0775 135.136 93.8416 134.951C93.6056 134.767 93.5632 134.427 93.7475 134.191L96.0439 131.246C96.4125 131.38 96.7703 131.51 97.1126 131.639Z" fill="#132549"/>
<path d="M72.5735 176.087C72.6259 176.242 72.7547 176.35 72.9074 176.38C72.9814 176.396 73.0577 176.394 73.1333 176.367C73.2135 176.341 81.075 173.795 89.3482 177.222C93.5515 178.963 97.2891 179.63 100.31 179.57C100.323 179.394 100.336 179.228 100.352 179.071C100.354 179.049 100.357 179.028 100.358 179.009C100.358 179.009 100.529 178.899 100.822 178.69C97.852 178.835 94.0443 178.208 89.689 176.404C81.1004 172.848 73.1873 175.417 72.8557 175.528C72.622 175.605 72.4964 175.855 72.5735 176.087Z" fill="#132549"/>
<path d="M91.4806 129.788C90.4466 131.393 88.3091 133.212 83.9831 132.898C78.0163 132.465 74.0898 126.772 72.7188 124.432C72.9046 124.425 73.0025 124.422 73.0025 124.422L91.4806 129.788Z" fill="#132549"/>
<path d="M85.1333 140.356C85.3099 140.392 85.485 140.417 85.6615 140.431C87.3117 140.563 88.648 140.085 89.6328 139.009C92.5028 135.874 91.3238 128.728 91.2721 128.425C91.2313 128.184 91.0015 128.023 90.7624 128.063C90.5211 128.104 90.3599 128.333 90.4 128.573C90.4123 128.644 91.5582 135.598 88.9796 138.413C88.1769 139.289 87.1143 139.661 85.7317 139.549C79.9484 139.084 73.471 124.399 73.4063 124.25C73.3091 124.025 73.0477 123.924 72.8241 124.022C72.5997 124.12 72.4979 124.38 72.5958 124.604C72.8619 125.212 79.0045 139.115 85.1333 140.356Z" fill="#F8F0E1"/>
<path d="M103.162 134.582C102.781 138.822 103.823 145.817 106.559 150.844C106.495 149.759 106.465 148.669 106.477 147.578C106.478 147.541 106.476 147.503 106.477 147.467C106.479 147.354 106.481 147.244 106.484 147.133C106.586 140.712 107.214 137.459 103.162 134.582Z" fill="#F89E72"/>
<path d="M69.1296 142.033C67.0098 150.213 59.2594 156.777 53.958 154.729C53.8947 154.269 53.83 153.812 53.7629 153.351C53.7197 153.051 53.6742 152.753 53.6264 152.452C53.2879 150.228 52.89 148.001 52.4389 145.841C50.4741 136.413 51.8544 126.517 61.4115 125.347C62.1055 125.262 62.7895 125.184 63.4534 125.113C68.2405 127.153 71.5701 132.614 69.1296 142.033Z" fill="#F89E72"/>
<path d="M70.2473 135.804L82.6684 181.221L78.2407 176.117C79.8824 176.988 81.7793 177.659 83.8806 178.13C85.9803 178.602 88.2705 178.875 90.6648 178.999C93.0599 179.124 95.5575 179.103 98.1083 178.996C100.661 178.889 103.27 178.698 105.918 178.472L105.932 178.471C109.838 178.137 113.275 181.034 113.608 184.941C113.926 188.665 111.282 191.966 107.653 192.554C104.922 192.989 102.144 193.401 99.2951 193.731C96.4466 194.059 93.5248 194.308 90.5005 194.376C87.477 194.441 84.3448 194.328 81.1046 193.859C77.8728 193.39 74.5185 192.547 71.2413 191.133C69.1439 190.228 67.6502 188.507 66.9709 186.501L66.8143 186.03L51.9134 141.365C50.2378 136.344 52.9505 130.916 57.9705 129.241C62.9912 127.566 68.419 130.278 70.0939 135.298C70.1478 135.457 70.2041 135.646 70.2473 135.804Z" fill="#F89E72"/>
<path d="M75.8061 179.761C75.6781 179.761 75.5539 179.694 75.4861 179.575C75.3851 179.399 75.4467 179.174 75.6233 179.074C75.7375 179.009 78.4556 177.474 81.2956 177.255C81.5007 177.239 81.675 177.391 81.6912 177.593C81.7074 177.795 81.5555 177.972 81.3535 177.988C78.6808 178.195 76.0151 179.698 75.9881 179.713C75.931 179.745 75.8678 179.761 75.8061 179.761Z" fill="#E07B53"/>
<path d="M80.3158 178.119C80.251 178.119 80.1847 178.102 80.1253 178.066C78.4119 177.026 76.3392 176.869 76.3184 176.868C76.1156 176.853 75.9629 176.677 75.9775 176.474C75.9922 176.272 76.1618 176.121 76.3708 176.134C76.4626 176.14 78.6433 176.306 80.507 177.437C80.6805 177.542 80.7361 177.768 80.6304 177.942C80.561 178.056 80.4399 178.119 80.3158 178.119Z" fill="#E07B53"/>
<path d="M91.4065 154.189C96.903 155.302 99.3081 149.618 99.3312 149.561C99.4245 149.335 99.3158 149.077 99.0899 148.984C98.8624 148.89 98.6056 148.999 98.5123 149.225C98.4236 149.439 96.3524 154.289 91.5816 153.322C86.5748 152.307 77.2327 142.453 77.1394 142.354C76.9713 142.176 76.6914 142.168 76.5133 142.336C76.3359 142.503 76.3282 142.784 76.4956 142.961C76.8865 143.375 86.1267 153.118 91.4065 154.189Z" fill="#132549"/>
<path d="M82.7946 118.562C82.7946 118.562 74.0756 116.92 71.6173 108.122C69.277 99.7442 71.0783 95.3982 73.5127 90.8726C75.3464 87.4642 81.1606 82.8584 89.3151 84.5109C97.5498 86.1796 103.702 90.4045 104.612 97.1741C106.315 109.843 96.0939 125.296 82.7946 118.562Z" fill="#C24B2B"/>
<path d="M72.0347 109.479C71.8767 109.479 71.7232 109.397 71.6391 109.25C71.4818 108.974 67.8113 102.376 70.8572 93.6949C72.7596 88.274 76.5087 85.8465 79.3186 84.7646C82.3553 83.5964 84.913 83.7067 85.0218 83.7121C85.2724 83.7244 85.4659 83.9372 85.4536 84.1886C85.4413 84.4392 85.2323 84.6336 84.9778 84.6205C84.9539 84.6197 82.4756 84.5171 79.6132 85.6268C75.8039 87.1042 73.1467 89.9195 71.7163 93.9964C68.8122 102.272 72.3933 108.737 72.4303 108.801C72.5537 109.019 72.4781 109.297 72.2599 109.421C72.1874 109.459 72.1111 109.479 72.0347 109.479Z" fill="#F8F0E1"/>
<path d="M99.6835 109.631C99.6835 109.631 102.521 107.391 103.267 110.358C104.013 113.325 101.908 118.598 98.6055 116.996L99.6835 109.631Z" fill="#E07B53"/>
<path d="M96.9091 115.076C95.5018 115.541 94.2526 116.788 93.9372 118.343C93.4692 120.651 94.9666 122.911 97.2754 123.378C99.5848 123.846 101.843 122.349 102.311 120.039C102.662 118.31 101.91 116.608 100.54 115.668C100.081 115.351 99.5524 115.121 98.9726 115.003C98.9579 115 98.9448 114.999 98.9302 114.996C98.8492 115.287 98.8831 115.521 99.0481 115.703C99.5147 115.826 99.938 116.038 100.304 116.316C101.372 117.128 101.944 118.507 101.661 119.907C101.265 121.857 99.3589 123.123 97.4064 122.728C95.4571 122.333 94.1917 120.424 94.5865 118.475C94.8741 117.057 95.9213 116.05 97.2437 115.733L96.9091 115.076Z" fill="#F8F0E1"/>
<path d="M91.098 122.325L89.909 129.752C89.909 129.752 84.3485 135.428 74.1914 125.246C76.9181 123.214 77.9591 118.508 77.6406 115.465C77.6406 115.465 78.4418 115.947 79.6748 117.063C79.9161 117.282 80.2246 117.451 80.5276 117.659C83.2126 119.485 87.3257 121.86 91.098 122.325Z" fill="#F89E72"/>
<path d="M91.1225 122.332L90.5588 125.853C87.5121 124.496 82.1251 121.593 79.6992 117.07C79.9645 117.259 80.249 117.458 80.5521 117.666C83.2371 119.492 87.3502 121.868 91.1225 122.332Z" fill="#162318"/>
<path d="M102.442 107.835C102.284 108.621 102.134 109.369 101.986 110.08C101.828 110.852 101.675 111.579 101.522 112.264C100.398 117.405 99.4702 120.158 97.9712 121.189C90.3888 126.403 78.048 115.845 77.6501 115.505C77.6439 115.498 77.6401 115.495 77.6401 115.495C77.63 114.889 77.63 114.289 77.6424 113.7C77.7334 108.699 78.5862 104.207 79.938 100.051C80.6119 95.5151 84.1313 91.8785 88.6646 91.1938C93.3622 90.4866 96.8955 93.2048 99.1055 94.4085C102.442 96.2276 103.749 101.279 102.442 107.835Z" fill="#F89E72"/>
<path d="M80.2113 95.3877C80.2113 95.3877 85.5173 85.1812 96.1047 88.029C106.692 90.8767 107.254 95.7948 107.441 98.2531C107.627 100.711 101.958 96.3562 101.958 96.3562C101.958 96.3562 101.764 101.273 99.8746 99.7583C97.5575 97.8999 94.9642 93.8902 94.9642 93.8902C94.9642 93.8902 88.6588 100.088 82.6665 98.4158C79.2629 97.4674 80.2113 95.3877 80.2113 95.3877Z" fill="#C24B2B"/>
<path d="M93.2191 117.841C91.8434 117.841 90.9004 116.89 90.8533 116.841C90.7076 116.691 90.7107 116.451 90.861 116.306C91.0114 116.161 91.2497 116.164 91.3946 116.313C91.4448 116.364 92.5367 117.446 93.9779 116.955C94.1753 116.888 94.3904 116.993 94.4575 117.191C94.5253 117.388 94.4197 117.604 94.2215 117.671C93.8691 117.791 93.5322 117.841 93.2191 117.841Z" fill="#E07B53"/>
<path d="M90.0512 111.664C90.0512 111.664 95.1575 113.177 97.8055 113.177C97.8055 113.177 96.4815 116.959 92.6992 115.635C89.7559 114.605 90.0512 111.664 90.0512 111.664Z" fill="#F8F0E1"/>
<path d="M99.4787 101.035C99.4787 101.035 98.1516 100.9 98.3675 102.185C98.5826 103.47 101.458 102.685 102.881 105.259C102.881 105.259 104.254 102.561 99.4787 101.035Z" fill="#C24B2B"/>
<path d="M93.6299 99.8434C93.6299 99.8434 94.9046 100.236 94.206 101.336C93.5081 102.435 91.1647 100.593 88.8529 102.41C88.8529 102.41 88.6378 99.3892 93.6299 99.8434Z" fill="#C24B2B"/>
<path d="M88.2879 109.607C89.8297 109.92 91.1794 109.681 91.3023 109.074C91.4253 108.467 90.2751 107.722 88.7332 107.409C87.1913 107.097 85.8417 107.336 85.7187 107.943C85.5958 108.55 86.746 109.295 88.2879 109.607Z" fill="#E07B53"/>
<path d="M106.456 109.504L102.332 108.801C102.31 108.976 102.268 109.147 102.229 109.318C102.222 109.348 102.212 109.376 102.199 109.401L106.352 110.109C106.52 110.138 106.679 110.025 106.707 109.858C106.736 109.692 106.631 109.529 106.456 109.504Z" fill="#F8F0E1"/>
<path d="M95.2488 105.891C95.2503 105.68 95.238 105.471 95.211 105.263C95.076 104.147 94.5818 103.112 93.8214 102.311C93.1274 101.576 92.2152 101.036 91.1573 100.808C91.1403 100.803 91.1241 100.798 91.1064 100.795C88.6928 100.297 86.3162 101.567 85.3331 103.719C85.2467 103.905 85.1719 104.096 85.1102 104.295C85.0531 104.468 85.0061 104.648 84.9676 104.831C84.6884 106.182 84.9629 107.521 85.6361 108.609C85.8651 108.979 86.1412 109.322 86.4558 109.622C87.1382 110.283 88.0088 110.763 89.0035 110.969C90.6799 111.315 92.3347 110.808 93.5215 109.748C94.3219 109.032 94.9087 108.062 95.1424 106.933C95.1424 106.93 95.1447 106.923 95.1447 106.92C95.2141 106.575 95.2495 106.231 95.2488 105.891ZM89.1285 110.366C89.103 110.362 89.0799 110.356 89.0529 110.349C87.7505 110.058 86.6971 109.232 86.0795 108.149C85.5459 107.215 85.3369 106.091 85.5706 104.956C85.6191 104.722 85.6855 104.494 85.768 104.276C85.7749 104.262 85.7795 104.248 85.7842 104.235C86.4311 102.554 88.0111 101.416 89.7824 101.311C90.1756 101.287 90.5781 101.314 90.9822 101.398C91.8528 101.577 92.6139 101.994 93.2138 102.57C94.318 103.624 94.8717 105.208 94.5417 106.811C94.0281 109.281 91.6014 110.879 89.1285 110.366Z" fill="#F8F0E1"/>
<path d="M104.58 103.794C104.44 103.72 104.296 103.653 104.146 103.591C103.971 103.519 103.791 103.457 103.605 103.404C103.477 103.367 103.348 103.335 103.216 103.307C102.972 103.256 102.727 103.225 102.488 103.21C102.195 103.191 101.905 103.198 101.62 103.228C100.828 103.313 100.075 103.579 99.4142 103.99C98.6878 104.444 98.0732 105.075 97.6445 105.838C97.5319 106.031 97.434 106.234 97.3484 106.445C97.3437 106.456 97.3391 106.466 97.3368 106.478C97.2258 106.752 97.1386 107.042 97.0769 107.342C96.6621 109.348 97.4702 111.327 98.9885 112.504C99.482 112.887 100.05 113.184 100.677 113.372C100.772 113.4 100.868 113.426 100.966 113.446C101.013 113.461 101.063 113.471 101.111 113.481C101.613 113.584 102.114 113.612 102.6 113.569C102.679 113.564 102.757 113.556 102.833 113.546C103.047 113.517 103.259 113.477 103.465 113.423C103.853 113.322 104.226 113.177 104.577 112.993C105.905 112.291 106.924 111.027 107.25 109.446C107.731 107.128 106.576 104.846 104.58 103.794ZM106.648 109.319C106.628 109.418 106.605 109.515 106.577 109.61C106.54 109.749 106.497 109.882 106.444 110.014C106.082 110.978 105.41 111.765 104.571 112.285C104.262 112.477 103.931 112.63 103.584 112.746C103.366 112.816 103.144 112.872 102.916 112.91C102.849 112.921 102.785 112.93 102.718 112.937C102.236 112.997 101.737 112.98 101.235 112.877C101.189 112.867 101.145 112.857 101.098 112.847C101.071 112.84 101.043 112.832 101.016 112.827C100.28 112.635 99.6285 112.274 99.0965 111.789C99.0178 111.72 98.9415 111.646 98.8682 111.569C97.8558 110.519 97.3615 109.002 97.6792 107.466C97.7509 107.121 97.8596 106.792 98 106.485C98.4595 105.483 99.2592 104.7 100.224 104.248C100.821 103.967 101.482 103.813 102.167 103.812C102.277 103.813 102.387 103.818 102.5 103.825C102.696 103.841 102.893 103.867 103.091 103.908C103.234 103.939 103.374 103.973 103.51 104.015C103.702 104.074 103.884 104.144 104.063 104.226C104.204 104.289 104.342 104.361 104.475 104.439C106.123 105.405 107.057 107.348 106.648 109.319Z" fill="#F8F0E1"/>
<path d="M78.8906 104.698C78.8544 104.69 78.8189 104.677 78.7865 104.656C78.6431 104.564 78.6015 104.374 78.6932 104.231C80.7583 101.004 85.7211 103.901 85.7713 103.93C85.917 104.017 85.9648 104.205 85.8785 104.351C85.7921 104.496 85.6039 104.545 85.4574 104.459C85.4119 104.432 80.9565 101.835 79.2114 104.562C79.1405 104.673 79.0117 104.723 78.8906 104.698Z" fill="#F8F0E1"/>
<path d="M97.5946 106.686C97.5167 106.67 97.4458 106.624 97.3987 106.552C96.7387 105.533 95.3252 105.99 95.3113 105.995C95.1502 106.048 94.9759 105.962 94.9219 105.801C94.8687 105.64 94.9551 105.466 95.1163 105.412C95.764 105.197 97.1813 105.087 97.9146 106.218C98.0072 106.361 97.9663 106.551 97.8236 106.643C97.7535 106.689 97.6702 106.702 97.5946 106.686Z" fill="#F8F0E1"/>
<path d="M101.981 110.071C101.823 110.843 101.67 111.57 101.517 112.255C100.115 111.916 99.1043 111.221 99.2199 110.65C99.3379 110.076 100.549 109.833 101.981 110.071Z" fill="#E07B53"/>
<path d="M91.2159 107.346C91.6821 107.44 92.1971 106.841 92.3663 106.008C92.5354 105.175 92.2947 104.422 91.8285 104.328C91.3623 104.233 90.8472 104.832 90.6781 105.665C90.5089 106.499 90.7497 107.251 91.2159 107.346Z" fill="#162318"/>
<path d="M99.4747 109.029C99.941 109.124 100.456 108.525 100.625 107.691C100.794 106.858 100.553 106.105 100.086 106.011C99.6201 105.916 99.1053 106.516 98.9364 107.349C98.7675 108.183 99.0085 108.935 99.4747 109.029Z" fill="#162318"/>
<path d="M96.4174 109.914C96.8176 109.995 97.1014 109.983 97.1245 109.981C97.2225 109.977 97.3135 109.93 97.3759 109.855C97.4384 109.779 97.4662 109.681 97.4538 109.584L96.9217 105.693C96.8955 105.501 96.7189 105.368 96.5277 105.394C96.3357 105.42 96.2023 105.597 96.2285 105.788L96.702 109.253C96.3542 109.2 95.8275 109.056 95.3587 108.666C95.2106 108.542 94.9893 108.562 94.866 108.711C94.7426 108.86 94.7626 109.081 94.9115 109.204C95.4273 109.633 95.9887 109.827 96.4174 109.914Z" fill="#162318"/>
<path d="M81.0507 112.672C80.9921 112.757 79.3813 115.076 77.6548 115.503C77.6532 115.503 77.6517 115.504 77.6517 115.504C77.647 115.498 77.6447 115.494 77.6447 115.494C77.6332 114.888 77.6347 114.289 77.6455 113.698C77.7072 113.701 79.3543 113.746 81.0507 112.672Z" fill="#162318"/>
<path d="M80.722 106.571C80.722 106.571 78.2961 101.42 75.143 104.443C72.5444 106.934 74.8169 115.258 79.3232 113.477L80.722 106.571Z" fill="#F89E72"/>
<path d="M74.7255 111.004C73.3182 111.47 72.069 112.717 71.7536 114.272C71.2856 116.58 72.7831 118.84 75.0918 119.307C77.4012 119.775 79.6606 118.278 80.1279 115.968C80.478 114.239 79.7261 112.537 78.3566 111.597C77.8978 111.28 77.3689 111.05 76.789 110.933C76.7743 110.93 76.7612 110.929 76.7466 110.926C76.6656 111.216 76.6995 111.451 76.8645 111.633C77.3311 111.755 77.7544 111.968 78.1207 112.246C79.1887 113.059 79.7608 114.437 79.4771 115.838C79.0815 117.787 77.1753 119.053 75.2228 118.658C73.2735 118.263 72.0081 116.354 72.4029 114.404C72.6905 112.986 73.7377 111.98 75.0601 111.662L74.7255 111.004Z" fill="#F8F0E1"/>
<path d="M79.1543 112.04C79.1667 112.042 79.179 112.044 79.1921 112.045C79.3849 112.062 79.5553 111.921 79.5723 111.728C79.9278 107.837 76.9906 105.869 76.8657 105.788C76.7037 105.682 76.4871 105.727 76.3814 105.889C76.2758 106.05 76.3205 106.267 76.4824 106.372C76.5935 106.445 79.1913 108.201 78.876 111.664C78.8598 111.845 78.9816 112.005 79.1543 112.04Z" fill="#162318"/>
<path d="M76.3395 109.315C76.4159 109.331 76.4968 109.321 76.5708 109.282C76.9178 109.101 77.9427 108.69 78.5033 108.961C78.6783 109.045 78.8865 108.973 78.9705 108.799C79.0538 108.624 78.9813 108.415 78.8078 108.331C77.8301 107.859 76.4058 108.579 76.2462 108.662C76.075 108.752 76.0087 108.964 76.0989 109.135C76.1498 109.231 76.24 109.295 76.3395 109.315Z" fill="#162318"/>
<path d="M83.8306 97.828C83.8306 97.828 80.5681 106.691 80.3892 108.477C80.1455 110.911 76.9277 102.569 80.1663 95.4414L83.8306 97.828Z" fill="#C24B2B"/>
<path d="M90.885 278.734L87.4297 292.648L97.5544 293.319L104.054 278.734H90.885Z" fill="#C1725C"/>
<path d="M123.173 310.009L85.1298 309.563C84.8522 309.046 84.7073 308.314 84.6533 307.444C84.4528 304.224 85.5393 299.1 86.0806 295.867C86.1461 295.489 86.2024 295.138 86.2472 294.819C86.3235 294.279 86.3721 293.828 86.3759 293.498C86.4076 290.854 88.7402 291.334 88.7402 291.334C92.5464 295.155 96.9718 289.544 99.4956 291.432C99.4956 291.432 100.582 292.229 103.571 294.983C106.557 297.736 111.675 299.589 116.026 301.47C121.644 303.896 123.217 306.272 123.511 307.899C123.742 309.19 123.173 310.009 123.173 310.009Z" fill="#191814"/>
<path d="M123.239 310.026L85.1953 309.58C84.9177 309.063 84.7727 308.332 84.7188 307.461L123.577 307.917C123.808 309.207 123.239 310.026 123.239 310.026Z" fill="#5B564E"/>
<path d="M88.9537 309.63L87.8232 309.615C88.9668 308.341 90.0448 306.376 89.9399 303.549C89.8011 299.787 87.5749 297.227 86.0234 295.888C86.089 295.51 86.1453 295.158 86.19 294.84C87.8641 296.15 90.6779 299.009 90.8467 303.514C90.9462 306.215 90.0363 308.217 88.9537 309.63Z" fill="#5B564E"/>
<path d="M102.939 297.247C102.658 297.244 102.404 297.05 102.337 296.763C102.258 296.425 102.466 296.088 102.803 296.009L105.186 295.447C105.523 295.367 105.861 295.575 105.941 295.913C106.021 296.251 105.813 296.588 105.475 296.667L103.091 297.229C103.04 297.241 102.989 297.247 102.939 297.247Z" fill="white"/>
<path d="M100.741 295.41C100.46 295.407 100.206 295.212 100.138 294.927C100.059 294.589 100.267 294.252 100.605 294.173L102.988 293.611C103.325 293.531 103.663 293.74 103.742 294.077C103.822 294.414 103.613 294.752 103.276 294.831L100.893 295.394C100.84 295.405 100.79 295.411 100.741 295.41Z" fill="white"/>
<path d="M105.229 298.64C104.947 298.637 104.694 298.443 104.627 298.158C104.546 297.82 104.755 297.483 105.093 297.403L107.477 296.841C107.814 296.761 108.151 296.971 108.231 297.308C108.31 297.646 108.101 297.983 107.765 298.062L105.381 298.624C105.33 298.636 105.279 298.642 105.229 298.64Z" fill="white"/>
<path d="M107.521 300.008C107.24 300.004 106.986 299.81 106.919 299.525C106.84 299.187 107.049 298.85 107.385 298.77L109.768 298.209C110.106 298.128 110.443 298.337 110.523 298.675C110.603 299.011 110.395 299.35 110.057 299.429L107.673 299.991C107.622 300.003 107.572 300.009 107.521 300.008Z" fill="white"/>
<path d="M110.19 301.246C109.908 301.242 109.655 301.048 109.587 300.763C109.507 300.425 109.716 300.088 110.053 300.009L112.437 299.447C112.774 299.367 113.111 299.576 113.192 299.913C113.271 300.249 113.062 300.588 112.725 300.667L110.342 301.229C110.291 301.241 110.239 301.247 110.19 301.246Z" fill="white"/>
<path d="M112.99 302.348C112.709 302.344 112.456 302.15 112.388 301.865C112.309 301.527 112.517 301.19 112.854 301.111L115.238 300.548C115.575 300.469 115.912 300.677 115.993 301.014C116.072 301.352 115.864 301.689 115.526 301.769L113.143 302.331C113.092 302.342 113.041 302.349 112.99 302.348Z" fill="white"/>
<path d="M105.058 199.402C105.058 199.402 138.014 210.728 136.191 225.447C134.369 240.169 102.317 283.927 102.317 283.927L89.402 281.634L95.7752 257.674C99.492 244.335 101.072 236.891 105.996 231.018L78.918 226.869C78.918 226.869 85.1609 199.76 105.058 199.402Z" fill="#477B6D"/>
<path d="M93.2615 278.394C93.2152 278.391 93.1705 278.381 93.1257 278.365C92.8674 278.273 92.7332 277.987 92.8265 277.727C92.8898 277.555 99.1157 260.261 102.222 247.751C104.776 237.462 111.249 230.657 113.661 228.405C110.612 228.12 105.581 227.06 105.338 227.008C105.068 226.951 104.897 226.685 104.953 226.415C105.011 226.146 105.275 225.973 105.544 226.031C105.612 226.045 112.365 227.469 114.899 227.477C115.107 227.477 115.298 227.613 115.368 227.812C115.437 228.012 115.373 228.235 115.207 228.367C115.118 228.438 106.257 235.635 103.189 247.992C100.07 260.553 93.8267 277.892 93.7642 278.065C93.6871 278.28 93.4774 278.409 93.2615 278.394Z" fill="#263F3D"/>
<path d="M104.401 281.093C104.378 281.092 104.356 281.089 104.333 281.084L90.5884 278.209C90.3185 278.154 90.1458 277.888 90.202 277.619C90.2583 277.349 90.5228 277.176 90.792 277.234L104.537 280.108C104.807 280.164 104.98 280.428 104.923 280.698C104.871 280.944 104.646 281.109 104.401 281.093Z" fill="#263F3D"/>
<path d="M157.492 264.464L166.126 275.072L174.844 268.931L166.828 255.676L157.492 264.464Z" fill="#C1725C"/>
<path d="M204.214 265.579L174.683 289.569C174.14 289.348 173.56 288.879 172.962 288.244C170.749 285.896 168.306 281.262 166.654 278.432C166.463 278.099 166.281 277.791 166.112 277.518C165.825 277.053 165.574 276.676 165.365 276.42C163.699 274.369 165.8 273.245 165.8 273.245C171.169 273.748 170.983 266.605 174.129 266.441C174.129 266.441 175.476 266.36 179.534 266.564C183.59 266.771 188.709 264.922 193.258 263.585C199.127 261.857 201.857 262.678 203.124 263.741C204.127 264.585 204.214 265.579 204.214 265.579Z" fill="#191814"/>
<path d="M204.154 265.607L174.623 289.596C174.08 289.376 173.5 288.907 172.902 288.272L203.065 263.77C204.067 264.612 204.154 265.607 204.154 265.607Z" fill="#5B564E"/>
<path d="M177.694 287.128L176.815 287.841C176.879 286.128 176.451 283.929 174.562 281.821C172.049 279.019 168.701 278.475 166.652 278.439C166.461 278.106 166.279 277.798 166.109 277.525C168.234 277.462 172.227 277.86 175.236 281.215C177.041 283.229 177.623 285.35 177.694 287.128Z" fill="#5B564E"/>
<path d="M180.457 268.707C180.238 268.885 179.919 268.897 179.684 268.721C179.408 268.512 179.351 268.121 179.56 267.842L181.033 265.888C181.242 265.61 181.634 265.554 181.912 265.763C182.188 265.972 182.243 266.363 182.035 266.642L180.562 268.597C180.531 268.639 180.495 268.675 180.457 268.707Z" fill="white"/>
<path d="M177.585 268.688C177.367 268.865 177.048 268.878 176.812 268.702C176.536 268.493 176.48 268.101 176.688 267.823L178.161 265.868C178.37 265.591 178.763 265.535 179.039 265.744C179.316 265.952 179.373 266.346 179.164 266.622L177.692 268.579C177.659 268.619 177.623 268.657 177.585 268.688Z" fill="white"/>
<path d="M183.159 268.314C182.941 268.49 182.622 268.504 182.387 268.328C182.111 268.12 182.054 267.726 182.263 267.449L183.736 265.492C183.944 265.216 184.337 265.159 184.614 265.37C184.891 265.578 184.946 265.97 184.738 266.247L183.265 268.204C183.233 268.246 183.197 268.282 183.159 268.314Z" fill="white"/>
<path d="M185.749 267.844C185.53 268.021 185.212 268.034 184.976 267.857C184.701 267.649 184.643 267.258 184.853 266.979L186.326 265.024C186.533 264.747 186.927 264.691 187.203 264.899C187.481 265.108 187.536 265.5 187.328 265.778L185.855 267.733C185.823 267.776 185.787 267.812 185.749 267.844Z" fill="white"/>
<path d="M188.518 267.146C188.301 267.322 187.982 267.336 187.747 267.159C187.47 266.95 187.414 266.558 187.622 266.281L189.095 264.325C189.304 264.048 189.697 263.992 189.974 264.2C190.25 264.409 190.306 264.802 190.096 265.079L188.624 267.036C188.593 267.076 188.557 267.114 188.518 267.146Z" fill="white"/>
<path d="M191.406 266.203C191.188 266.38 190.869 266.393 190.633 266.218C190.357 266.009 190.3 265.617 190.509 265.338L191.981 263.384C192.19 263.106 192.584 263.051 192.861 263.259C193.136 263.468 193.193 263.861 192.985 264.138L191.512 266.094C191.48 266.135 191.444 266.173 191.406 266.203Z" fill="white"/>
<path d="M172.605 262.848L161.297 270.078C161.297 270.078 152.417 261.852 141.453 252.136C130.487 242.421 120.265 230.968 115.987 222.301C115.987 222.301 83.6385 236.264 66.1011 232.778C58.801 231.329 55.5122 226.326 54.1589 220.983C53.9576 220.188 53.7988 219.381 53.68 218.578C52.6522 211.849 54.1782 205.334 54.1782 205.334C54.1782 205.334 95.3046 197.766 116.554 198.499C118.037 198.551 119.421 198.641 120.689 198.78C122.694 198.996 124.408 199.331 125.745 199.795C128.446 200.742 131.804 203.586 135.469 207.575C135.601 207.718 135.732 207.861 135.864 208.008C151.544 225.309 172.605 262.848 172.605 262.848Z" fill="#477B6D"/>
<path d="M135.478 207.573C123.9 209.619 118.637 202.683 116.562 198.496C118.045 198.548 119.429 198.638 120.697 198.777C122.703 198.993 124.416 199.327 125.753 199.792C128.455 200.741 131.813 203.583 135.478 207.573Z" fill="#5FA68D"/>
<path d="M129.131 240.601C129.036 240.595 128.942 240.56 128.861 240.499C120.889 234.319 116.601 225.313 115.594 223.008C111.421 225.427 98.6424 229.188 98.0764 229.355C97.8119 229.433 97.5351 229.281 97.458 229.016C97.3801 228.752 97.5312 228.476 97.7957 228.398C97.9391 228.355 112.173 224.166 115.546 221.865C115.672 221.779 115.829 221.754 115.975 221.8C116.12 221.844 116.236 221.953 116.292 222.095C116.333 222.201 120.537 232.785 129.472 239.709C129.69 239.878 129.729 240.192 129.561 240.409C129.454 240.546 129.292 240.612 129.131 240.601Z" fill="#263F3D"/>
<path d="M158.843 267.621C158.693 267.609 158.55 267.533 158.461 267.397C158.309 267.167 158.374 266.858 158.603 266.706L170.111 259.14C170.342 258.989 170.651 259.054 170.802 259.284C170.953 259.513 170.889 259.822 170.66 259.974L159.152 267.541C159.057 267.602 158.948 267.629 158.843 267.621Z" fill="#263F3D"/>
<path d="M161.646 265.718C161.539 265.825 161.395 265.874 161.257 265.863C161.141 265.857 161.031 265.808 160.941 265.721C160.751 265.532 141.93 246.89 132.85 238.858C124.652 231.604 119.693 220.344 118.691 217.921C115.326 219.249 94.3529 227.228 74.8561 228.298C66.0339 228.785 60.4934 226.208 57.4013 223.962C55.9662 222.923 54.9183 221.862 54.1773 220.98C53.9745 220.183 53.8156 219.377 53.6953 218.575C53.8333 218.82 54.1333 219.311 54.6245 219.944C55.3324 220.848 56.4389 222.037 58.0382 223.193C60.9954 225.325 66.3061 227.771 74.8037 227.306C95.7926 226.15 118.55 216.907 118.776 216.816C118.902 216.764 119.039 216.764 119.163 216.819C119.288 216.87 119.382 216.971 119.432 217.096C119.481 217.225 124.513 230.151 133.511 238.11C142.609 246.16 161.453 264.824 161.642 265.01C161.84 265.207 161.84 265.522 161.646 265.718Z" fill="#263F3D"/>
<path d="M96.4049 207.461C95.6099 207.679 94.8187 207.881 94.0353 208.073C93.706 208.153 93.3798 208.23 93.0544 208.305C80.237 211.275 69.1091 210.863 62.0689 210.005C61.725 209.964 61.3911 209.922 61.0688 209.878C56.9495 209.322 54.4518 208.652 54.148 208.568C54.138 208.565 54.1272 208.562 54.1172 208.56C54.8004 205.492 55.1073 204.111 55.2839 201.035C55.3325 200.178 55.3656 199.346 55.3926 198.555V198.552C55.4396 197.073 55.4481 195.734 55.4404 194.625V194.566V194.564C55.435 193.818 55.4235 193.181 55.4088 192.68C60.3185 191.75 69.3698 190.124 77.761 189.087C83.8474 188.335 89.5875 187.893 93.1431 188.252L93.3451 189.574L93.6459 191.527L93.8996 192.989L94.4525 196.187L96.3648 207.218L96.4049 207.461Z" fill="#F89D71"/>
<path d="M55.1988 202.298C55.1988 202.298 83.0814 205.61 94.9395 198.453C94.9395 198.453 97.5158 210.273 97.2899 213.41C96.7493 220.923 54.6582 219.26 53.5964 211.913C53.1276 208.67 55.1988 202.298 55.1988 202.298Z" fill="#477B6D"/>
<path d="M55.5306 197.743C55.5306 197.743 54.2436 199.846 54.6021 202.227C54.6021 202.227 82.4423 206.058 96.1527 198.636C96.1527 198.636 96.8745 196.355 95.1294 193.973C95.1294 193.973 84.3616 201.297 55.5306 197.743Z" fill="#263F3D"/>
<path d="M67.9571 201.512L136.716 199.132C136.848 199.128 136.951 199.017 136.948 198.886L136.651 190.342C136.647 190.209 136.537 190.105 136.404 190.11L67.6455 192.489C67.5129 192.495 67.4096 192.605 67.4142 192.737L67.7088 201.281C67.7142 201.413 67.8244 201.518 67.9571 201.512Z" fill="#191814"/>
<path d="M144.158 198.876C146.763 198.787 148.983 196.955 149.569 194.415L160.839 145.476C161.528 142.485 159.193 139.655 156.126 139.761L125.125 140.834C123.034 140.907 121.246 142.361 120.75 144.395L107.148 200.158L144.158 198.876Z" fill="#191814"/>
<path d="M156.549 153.378C155.637 156.563 152.539 159.211 149.629 159.292C146.719 159.373 145.1 156.856 146.012 153.67C146.925 150.484 150.023 147.837 152.934 147.756C155.842 147.676 157.462 150.193 156.549 153.378Z" fill="#E69F3E"/>
<path d="M150.737 152.465C150.555 153.103 150.202 153.624 149.949 153.631C149.696 153.638 149.639 153.128 149.822 152.491C150.004 151.853 150.356 151.331 150.61 151.324C150.863 151.317 150.92 151.828 150.737 152.465Z" fill="#191814"/>
<path d="M153.484 152.383C153.301 153.02 152.948 153.542 152.696 153.549C152.442 153.556 152.385 153.045 152.567 152.408C152.751 151.771 153.104 151.249 153.355 151.242C153.609 151.235 153.667 151.746 153.484 152.383Z" fill="#191814"/>
<path d="M150.506 156.344C148.241 156.407 148.432 153.942 148.435 153.917C148.446 153.783 148.563 153.647 148.695 153.613C148.827 153.581 148.925 153.664 148.913 153.797C148.905 153.888 148.759 155.896 150.65 155.842C152.543 155.79 153.553 153.754 153.596 153.668C153.662 153.532 153.81 153.443 153.924 153.47C154.039 153.496 154.079 153.628 154.014 153.763C154.001 153.787 152.772 156.281 150.506 156.344Z" fill="#191814"/>
<path d="M120.73 144.396L107.242 199.699L103.699 199.822L117.187 144.518C117.688 142.483 119.472 141.026 121.565 140.955L125.108 140.832C123.015 140.905 121.23 142.362 120.73 144.396Z" fill="#191814"/>
<path d="M107.627 199.358C107.596 199.355 107.565 199.35 107.535 199.344C107.255 199.276 107.084 198.995 107.151 198.715L120.522 143.527C120.589 143.248 120.869 143.075 121.149 143.144C121.429 143.211 121.6 143.493 121.532 143.772L108.163 198.96C108.102 199.21 107.873 199.371 107.627 199.358Z" fill="#5B564E"/>
<path d="M130.435 170.791C129.836 173.861 131.818 176.264 134.863 176.159C137.909 176.053 140.863 173.479 141.462 170.409C142.062 167.34 140.078 164.937 137.034 165.042C133.988 165.147 131.034 167.722 130.435 170.791Z" fill="#5B564E"/>
<path d="M318.668 304.753V309.669H315.106V307.448C315.106 306.82 314.598 306.313 313.972 306.313H298.717C298.189 306.313 297.762 306.739 297.762 307.265V309.668H293.62V307.265C293.62 306.739 293.193 306.313 292.667 306.313H277.527C276.901 306.313 276.393 306.82 276.393 307.448V309.669H272.832V304.753C272.832 303.648 273.727 302.751 274.833 302.751H293.62V239.391H297.762V302.751H316.667C317.772 302.752 318.668 303.649 318.668 304.753Z" fill="#1E51A4"/>
<path d="M298.721 273.325H292.484C292.068 273.325 291.73 272.987 291.73 272.571V245.805H299.473V272.571C299.473 272.988 299.138 273.325 298.721 273.325Z" fill="#273372"/>
<path d="M274.644 318.162C277.573 318.162 279.947 315.788 279.947 312.858C279.947 309.929 277.573 307.555 274.644 307.555C271.714 307.555 269.34 309.929 269.34 312.858C269.34 315.788 271.714 318.162 274.644 318.162Z" fill="#14130F"/>
<path d="M274.669 315.915C272.995 315.915 271.633 314.551 271.633 312.876C271.633 311.202 272.995 309.84 274.669 309.84C276.344 309.84 277.706 311.202 277.706 312.876C277.707 314.551 276.344 315.915 274.669 315.915Z" fill="#5C554C"/>
<path d="M295.722 318.162C298.651 318.162 301.025 315.788 301.025 312.858C301.025 309.929 298.651 307.555 295.722 307.555C292.793 307.555 290.418 309.929 290.418 312.858C290.418 315.788 292.793 318.162 295.722 318.162Z" fill="#14130F"/>
<path d="M295.733 315.915C294.058 315.915 292.695 314.551 292.695 312.876C292.695 311.202 294.059 309.84 295.733 309.84C297.408 309.84 298.769 311.202 298.769 312.876C298.77 314.551 297.408 315.915 295.733 315.915Z" fill="#5C554C"/>
<path d="M316.882 318.162C319.811 318.162 322.186 315.788 322.186 312.858C322.186 309.929 319.811 307.555 316.882 307.555C313.953 307.555 311.578 309.929 311.578 312.858C311.578 315.788 313.953 318.162 316.882 318.162Z" fill="#14130F"/>
<path d="M316.908 315.911C315.234 315.911 313.871 314.547 313.871 312.873C313.871 311.198 315.234 309.836 316.908 309.836C318.583 309.836 319.946 311.198 319.946 312.873C319.947 314.547 318.583 315.911 316.908 315.911Z" fill="#5C554C"/>
<path d="M361.171 148.614L338.661 242.388C337.935 245.413 335.229 247.547 332.117 247.547H279.284C274.918 247.547 271.707 243.452 272.748 239.212L295.766 145.438C296.504 142.428 299.203 140.312 302.302 140.312H354.628C358.98 140.313 362.188 144.382 361.171 148.614Z" fill="#273372"/>
<path d="M355.378 148.614L332.869 242.388C332.142 245.413 329.437 247.547 326.324 247.547H273.491C269.125 247.547 265.914 243.452 266.955 239.212L289.973 145.438C290.711 142.428 293.41 140.312 296.509 140.312H348.835C353.187 140.313 356.395 144.382 355.378 148.614Z" fill="#1E51A4"/>
<path d="M326.328 242.989H273.494C272.58 242.989 272.038 242.472 271.795 242.163C271.553 241.855 271.18 241.204 271.398 240.316L294.416 146.543C294.654 145.575 295.516 144.898 296.513 144.898H348.838C349.749 144.898 350.291 145.414 350.533 145.72C350.775 146.027 351.15 146.675 350.936 147.561L328.427 241.334C328.192 242.308 327.33 242.989 326.328 242.989ZM296.513 145.503C295.795 145.503 295.174 145.99 295.003 146.687L271.984 240.461C271.829 241.099 272.097 241.568 272.271 241.79C272.446 242.012 272.836 242.385 273.494 242.385H326.328C327.049 242.385 327.671 241.895 327.839 241.194L350.349 147.421C350.503 146.782 350.234 146.317 350.059 146.095C349.884 145.874 349.494 145.503 348.838 145.503H296.513Z" fill="#273372"/>
<path d="M241.984 250.329H330.718C334.255 250.329 337.325 247.892 338.126 244.446L339.314 239.34H244.541L241.984 250.329Z" fill="#273372"/>
<path d="M243.208 250.329H325.022C328.558 250.329 331.627 247.892 332.429 244.446L333.617 239.34H243.208C240.653 239.34 238.435 241.1 237.856 243.589C237.055 247.035 239.671 250.329 243.208 250.329Z" fill="#1E51A4"/>
<path d="M283.593 148.137L282.979 150.581C282.774 151.381 282.57 152.177 282.353 152.971C281.92 154.558 281.482 156.143 281.022 157.723C280.094 160.881 279.129 164.037 278.056 167.185C276.988 170.337 275.855 173.488 274.524 176.667C273.86 178.258 273.153 179.857 272.347 181.492C271.531 183.133 270.655 184.782 269.382 186.611C269.059 187.073 268.705 187.546 268.29 188.048C267.868 188.552 267.404 189.074 266.77 189.652C266.465 189.934 266.093 190.241 265.677 190.546C265.255 190.851 264.748 191.175 264.135 191.478C263.523 191.78 262.779 192.072 261.876 192.257C261.425 192.349 260.947 192.411 260.442 192.43L260.255 192.436H260.123L259.862 192.433C259.683 192.43 259.527 192.418 259.363 192.407C258.073 192.296 257.108 191.998 256.312 191.697C255.511 191.389 254.875 191.058 254.297 190.728C253.157 190.066 252.276 189.404 251.464 188.75C249.865 187.435 248.58 186.128 247.356 184.815C246.142 183.504 245.022 182.186 243.943 180.86C242.866 179.536 241.837 178.203 240.834 176.863C239.829 175.525 238.87 174.165 237.965 172.774C237.057 171.385 236.198 169.97 235.393 168.519C234.99 167.794 234.603 167.059 234.23 166.313C234.042 165.942 233.865 165.561 233.687 165.182C233.597 164.992 233.51 164.801 233.425 164.606L233.165 164.005C232.136 161.632 233.226 158.876 235.599 157.848C237.327 157.098 239.258 157.473 240.578 158.649L240.778 158.829C241.05 159.072 241.349 159.358 241.626 159.631C241.908 159.909 242.192 160.186 242.47 160.468C243.026 161.031 243.576 161.599 244.116 162.172C245.2 163.317 246.258 164.476 247.299 165.636C248.343 166.795 249.367 167.961 250.383 169.115C251.403 170.267 252.434 171.396 253.477 172.481C254.519 173.566 255.573 174.612 256.624 175.573C257.668 176.529 258.735 177.416 259.677 178.063C260.14 178.384 260.58 178.64 260.848 178.752C260.974 178.804 261.062 178.824 261.016 178.789C260.973 178.764 260.794 178.667 260.304 178.615C260.239 178.608 260.184 178.606 260.105 178.6L259.995 178.597L259.826 178.598C259.521 178.608 259.242 178.643 258.987 178.694C258.477 178.797 258.11 178.945 257.856 179.063C257.6 179.183 257.434 179.292 257.332 179.358C257.234 179.418 257.173 179.47 257.156 179.473C257.108 179.501 257.171 179.417 257.249 179.292C257.331 179.164 257.443 178.986 257.563 178.777C257.805 178.358 258.079 177.827 258.348 177.258C258.619 176.684 258.893 176.07 259.159 175.428C259.692 174.145 260.202 172.773 260.685 171.366C261.646 168.548 262.54 165.606 263.377 162.629C264.205 159.646 265.009 156.629 265.759 153.591C266.138 152.074 266.514 150.554 266.873 149.03L267.414 146.749L267.927 144.513L267.957 144.382C268.949 140.054 273.263 137.349 277.59 138.342C281.918 139.335 284.623 143.648 283.63 147.976C283.622 148.019 283.603 148.099 283.593 148.137Z" fill="#F9AE90"/>
<path d="M273.338 131.957C273.338 131.957 269.046 135.567 267.41 141.998C265.554 149.304 260.883 163.231 260.883 163.231C260.883 163.231 273.638 171.214 279.13 171.015L273.338 131.957Z" fill="#096AAB"/>
<path d="M259.91 178.148C260.67 178.455 261.431 178.762 262.19 179.069C262.591 179.23 262.315 179.84 261.917 179.679C261.157 179.372 260.397 179.065 259.636 178.758C259.238 178.597 259.511 177.987 259.91 178.148Z" fill="#DF6A5D"/>
<path d="M258.488 177.681C259.491 178.664 260.088 179.938 260.228 181.333C260.275 181.793 260.991 181.717 260.944 181.253C260.785 179.666 260.085 178.24 258.947 177.125C258.615 176.801 258.161 177.36 258.488 177.681Z" fill="#DF6A5D"/>
<path d="M216.289 289.8L211.573 297.504L202.59 293.527L206.667 285.25L216.289 289.8Z" fill="#F8A48F"/>
<path d="M174.116 297.89L208.095 312.932C208.551 312.583 208.978 311.992 209.377 311.242C210.861 308.462 211.976 303.469 212.807 300.377C212.902 300.015 212.995 299.679 213.085 299.378C213.236 298.867 213.376 298.447 213.506 298.152C214.551 295.792 212.283 295.272 212.283 295.272C207.351 297.121 205.697 290.342 202.69 290.994C202.69 290.994 201.4 291.263 197.628 292.494C193.857 293.729 188.559 293.299 183.93 293.205C177.954 293.08 175.592 294.554 174.671 295.879C173.942 296.932 174.116 297.89 174.116 297.89Z" fill="#DD4D36"/>
<path d="M174.108 297.894L208.088 312.935C208.543 312.587 208.97 311.996 209.369 311.246L174.663 295.883C173.934 296.935 174.108 297.894 174.108 297.894Z" fill="#93211E"/>
<path d="M204.637 311.401L205.647 311.849C205.149 310.251 204.988 308.069 206.229 305.6C207.879 302.314 210.895 300.942 212.817 300.382C212.912 300.02 213.005 299.684 213.095 299.383C211.076 299.868 207.415 301.266 205.437 305.2C204.253 307.559 204.247 309.706 204.637 311.401Z" fill="#93211E"/>
<path d="M197.329 294.763C197.58 294.876 197.884 294.805 198.06 294.579C198.268 294.311 198.219 293.927 197.951 293.72L196.062 292.254C195.795 292.046 195.41 292.096 195.203 292.362C194.995 292.629 195.044 293.014 195.312 293.221L197.201 294.687C197.24 294.717 197.284 294.744 197.329 294.763Z" fill="white"/>
<path d="M200.22 293.92C200.47 294.033 200.775 293.963 200.951 293.735C201.158 293.468 201.109 293.084 200.842 292.876L198.953 291.411C198.686 291.202 198.3 291.251 198.093 291.518C197.886 291.786 197.935 292.171 198.202 292.378L200.091 293.845C200.131 293.875 200.174 293.899 200.22 293.92Z" fill="white"/>
<path d="M194.644 295.05C194.897 295.161 195.2 295.092 195.375 294.865C195.584 294.598 195.535 294.212 195.267 294.005L193.378 292.539C193.111 292.331 192.727 292.381 192.519 292.648C192.312 292.916 192.36 293.299 192.628 293.507L194.517 294.972C194.557 295.003 194.6 295.03 194.644 295.05Z" fill="white"/>
<path d="M191.962 295.302C192.213 295.415 192.517 295.344 192.693 295.118C192.9 294.85 192.851 294.466 192.584 294.26L190.695 292.793C190.428 292.585 190.042 292.635 189.836 292.902C189.628 293.168 189.677 293.554 189.944 293.76L191.833 295.226C191.874 295.257 191.917 295.283 191.962 295.302Z" fill="white"/>
<path d="M189.22 295.369C189.47 295.48 189.774 295.411 189.951 295.185C190.158 294.917 190.109 294.533 189.841 294.326L187.953 292.86C187.685 292.652 187.3 292.7 187.093 292.968C186.886 293.235 186.935 293.621 187.202 293.827L189.091 295.293C189.132 295.325 189.175 295.35 189.22 295.369Z" fill="white"/>
<path d="M186.289 295.189C186.54 295.302 186.844 295.232 187.02 295.005C187.228 294.737 187.179 294.353 186.912 294.145L185.022 292.68C184.756 292.472 184.37 292.52 184.163 292.788C183.957 293.056 184.005 293.44 184.272 293.647L186.161 295.114C186.202 295.144 186.245 295.169 186.289 295.189Z" fill="white"/>
<path d="M280.281 231.44C258.566 234.99 246.449 242.292 246.449 242.292C246.449 242.292 238.75 260.086 234.174 266.616C229.6 273.147 219.107 293.882 219.107 293.882L203.301 287.129C203.301 287.129 204.929 283.083 207.502 276.903C207.569 276.747 207.634 276.591 207.7 276.43C208.415 274.715 209.199 272.845 210.039 270.857C210.116 270.674 210.192 270.491 210.27 270.307C211.822 266.639 213.551 262.592 215.378 258.406C215.497 258.132 215.616 257.856 215.737 257.581C217.318 253.963 218.964 250.253 220.623 246.6C220.707 246.413 220.793 246.23 220.876 246.043C221.831 243.942 222.791 241.863 223.743 239.834C223.822 239.668 223.9 239.5 223.978 239.336C225.212 236.716 226.433 234.183 227.613 231.804C227.711 231.612 227.807 231.419 227.902 231.228C229.824 227.386 231.644 223.958 233.265 221.226C233.366 221.058 233.465 220.89 233.563 220.728C234.855 218.587 236.013 216.91 236.982 215.845C237.107 215.706 237.23 215.577 237.35 215.459C237.39 215.419 237.434 215.379 237.482 215.337C239.468 213.624 247.569 210.869 257.171 209.431C257.477 209.384 257.786 209.341 258.097 209.299H258.099C265.965 208.203 274.723 208.025 281.901 210.029C283.793 213.673 286.201 222.904 280.281 231.44Z" fill="#14130F"/>
<path d="M220.817 289.965C220.758 289.965 220.699 289.955 220.642 289.931L205.172 283.5C204.939 283.404 204.829 283.136 204.926 282.905C205.022 282.674 205.288 282.564 205.52 282.66L220.991 289.091C221.223 289.187 221.333 289.453 221.235 289.686C221.164 289.86 220.995 289.965 220.817 289.965Z" fill="#5C554C"/>
<path d="M218.22 288.678C218.165 288.678 218.109 288.668 218.053 288.646C217.819 288.554 217.705 288.289 217.798 288.056C217.829 287.976 221.066 279.9 228.616 268.441C236.116 257.061 243.958 237.824 244.036 237.631C244.13 237.398 244.396 237.287 244.629 237.381C244.862 237.476 244.974 237.741 244.879 237.974C244.801 238.168 236.926 257.487 229.377 268.943C221.877 280.323 218.675 288.311 218.644 288.39C218.573 288.569 218.402 288.678 218.22 288.678Z" fill="#5C554C"/>
<path d="M326.07 211.055C326.056 211.064 326.044 211.072 326.028 211.079C326.024 211.084 326.02 211.085 326.016 211.087C325.99 211.102 325.968 211.118 325.948 211.129C325.918 211.145 325.895 211.159 325.871 211.178C325.857 211.183 325.847 211.19 325.841 211.193C325.815 211.21 325.794 211.221 325.775 211.234C325.763 211.24 325.749 211.25 325.737 211.256C325.741 211.251 325.745 211.248 325.749 211.244C325.703 211.269 325.673 211.29 325.666 211.291C325.652 211.3 325.634 211.308 325.617 211.318C325.436 211.422 325.155 211.581 324.994 211.671C324.976 211.68 324.962 211.688 324.948 211.695C323.382 212.563 321.773 213.329 320.127 213.993C318.242 214.764 316.31 215.406 314.356 215.932C313.994 216.031 313.631 216.123 313.264 216.216C313.237 216.223 313.209 216.229 313.177 216.236C311.968 216.535 310.754 216.788 309.532 216.994C309.077 217.072 308.619 217.143 308.158 217.21C306.515 217.451 304.866 217.615 303.228 217.709C303.03 217.723 302.831 217.733 302.632 217.739C300.792 217.828 298.967 217.825 297.173 217.741C296.981 217.732 296.787 217.722 296.597 217.712C296.562 217.709 296.531 217.707 296.499 217.705H296.497C296.201 217.687 295.905 217.669 295.611 217.643C294.637 217.577 293.677 217.473 292.726 217.352C292.393 217.317 292.066 217.272 291.739 217.22C288.158 216.698 284.783 215.846 281.761 214.715C281.54 214.632 281.321 214.549 281.102 214.464C280.943 214.401 280.788 214.34 280.631 214.274C280.593 214.258 280.557 214.245 280.518 214.227C279.519 213.814 278.563 213.366 277.658 212.894C277.615 212.872 277.572 212.848 277.533 212.83C276.334 212.193 275.227 211.509 274.222 210.777C274.309 209.214 274.421 207.554 274.54 205.933V205.931C274.568 205.577 274.592 205.224 274.618 204.876C274.692 203.893 274.765 202.935 274.841 202.038C274.838 202.033 274.841 202.027 274.841 202.026C275.022 200.143 275.185 198.188 275.337 196.242C275.34 196.205 275.343 196.181 275.343 196.181C275.394 195.542 275.44 194.908 275.488 194.275C275.517 193.881 275.545 193.493 275.57 193.105V193.102C275.836 189.381 276.045 185.847 276.181 183.056L276.179 183.054C276.196 182.733 276.212 182.426 276.226 182.128C276.257 181.445 276.285 180.819 276.307 180.256C276.358 179.04 276.388 177.86 276.411 176.707C276.434 175.581 276.44 174.485 276.436 173.419C276.432 172.201 276.412 171.015 276.376 169.872C276.366 169.257 276.341 168.653 276.319 168.057C276.319 168.056 276.319 168.056 276.319 168.056C276.307 167.781 276.295 167.509 276.28 167.239C276.269 166.986 276.257 166.733 276.241 166.484C276.241 166.484 276.241 166.484 276.243 166.482C276.24 166.422 276.237 166.363 276.233 166.303C276.219 166.022 276.201 165.742 276.183 165.469C276.128 164.538 276.06 163.635 275.991 162.753C275.826 160.784 275.622 158.942 275.394 157.223C275.356 156.923 275.314 156.624 275.275 156.33C274.857 153.356 274.368 150.759 273.878 148.496C273.822 148.225 273.767 147.961 273.707 147.699C272.618 142.791 271.587 139.505 271.429 137.242C271.403 136.842 271.402 136.471 271.438 136.13C271.493 135.521 271.602 134.968 271.762 134.466C271.921 133.97 272.124 133.522 272.37 133.115C273.232 131.69 274.592 130.799 276.17 130.059C276.351 129.974 276.533 129.892 276.719 129.811C277.217 129.592 277.732 129.387 278.255 129.179C278.44 129.105 278.627 129.029 278.817 128.955C279.396 128.727 279.983 128.492 280.568 128.237C280.575 128.236 280.579 128.233 280.584 128.233C281.025 128.038 281.465 127.832 281.896 127.61C282.082 127.515 282.263 127.418 282.444 127.318C282.617 127.219 282.792 127.124 282.959 127.017C283.176 126.882 283.396 126.739 283.609 126.592C284.738 125.812 285.762 124.825 286.581 123.504C286.589 123.496 286.596 123.486 286.603 123.472C286.7 123.317 286.794 123.152 286.887 122.983L300.689 121.566C300.689 121.566 301.568 122.142 303.121 122.812C303.297 122.891 303.482 122.967 303.674 123.048C303.786 123.092 303.898 123.134 304.012 123.182C304.138 123.231 304.267 123.277 304.401 123.327C304.472 123.352 304.554 123.381 304.63 123.409C305.117 123.58 305.654 123.749 306.235 123.907C306.458 123.967 306.688 124.027 306.927 124.084C307.116 124.13 307.308 124.174 307.506 124.214C307.615 124.24 307.726 124.261 307.837 124.283C308.017 124.321 308.194 124.355 308.383 124.391C308.754 124.457 309.141 124.518 309.541 124.568C309.75 124.598 309.961 124.622 310.173 124.645C310.654 124.699 311.154 124.739 311.671 124.767C312.672 124.82 313.62 125.026 314.518 125.376C314.708 125.45 314.895 125.529 315.082 125.616C315.712 125.909 316.317 126.279 316.892 126.721C317.206 126.962 317.511 127.224 317.808 127.51H317.809C317.854 127.552 317.895 127.592 317.937 127.636C318.067 127.761 318.192 127.89 318.317 128.025C318.496 128.218 318.671 128.419 318.844 128.628C319.268 129.143 319.672 129.706 320.056 130.322C320.184 130.528 320.31 130.74 320.434 130.956C320.543 131.147 320.65 131.342 320.754 131.543C320.841 131.704 320.925 131.869 321.006 132.037C322.018 134.079 322.841 136.526 323.463 139.341C323.466 139.343 323.466 139.345 323.466 139.347C323.648 140.176 323.816 141.035 323.964 141.929C324.368 144.364 324.772 146.735 325.16 149.05C325.207 149.315 325.249 149.582 325.295 149.844C325.44 150.721 325.586 151.593 325.73 152.456C325.989 154.056 326.242 155.636 326.482 157.196C326.528 157.519 326.579 157.839 326.627 158.166C326.735 158.887 326.822 159.541 326.896 160.161C327.087 161.745 327.202 163.113 327.401 164.911C327.401 164.914 330.337 200.898 326.07 211.055Z" fill="#1C75BC"/>
<path d="M324.677 190.918C324.67 191.123 324.664 191.325 324.66 191.53C324.511 196.244 324.148 201.089 323.506 205.97C323.48 206.171 323.453 206.37 323.426 206.57C323.257 207.813 323.069 209.06 322.861 210.306C322.84 210.437 322.733 210.533 322.605 210.547C322.58 210.549 322.554 210.549 322.527 210.542C322.368 210.518 322.263 210.368 322.288 210.21C322.495 208.963 322.685 207.715 322.853 206.47C322.881 206.27 322.906 206.069 322.933 205.867C323.569 201.03 323.929 196.227 324.078 191.557C324.084 191.351 324.09 191.15 324.096 190.945C324.848 164.213 318.809 141.858 318.733 141.583C318.691 141.428 318.782 141.269 318.936 141.227C319.097 141.179 319.25 141.275 319.294 141.428C319.37 141.703 325.424 164.108 324.677 190.918Z" fill="#1C75BC"/>
<path d="M305.777 102.72C305.777 102.72 309.613 99.9773 310.523 95.6643C311.322 91.8661 308.123 91.8661 308.123 91.8661C308.123 91.8661 310.74 87.7411 309.174 84.6569C307.212 80.7979 303.29 81.5381 303.29 81.5381C303.29 81.5381 304.344 75.4007 294.578 75.9C284.813 76.4002 279.001 76.7683 277.415 80.9897C275.831 85.2102 279.819 86.4467 279.819 86.4467C279.819 86.4467 275.873 88.8446 277.801 91.3379C279.728 93.8312 282.138 93.0959 282.138 93.0959L305.777 102.72Z" fill="#00312E"/>
<path d="M286.041 101.039C286.041 101.039 284.83 96.4814 281.127 97.3325C277.422 98.1835 276.711 110.34 283.685 110.287L286.041 101.039Z" fill="#F9AD8F"/>
<path d="M303.601 123.476C303.601 123.476 304.47 125.011 297.675 126.89C294.088 127.882 289.746 126.941 287.586 125.666C286.708 125.15 286.205 124.754 286.205 124.754C287.311 119.597 286.419 116.251 286.161 115.452C286.122 115.331 286.098 115.268 286.098 115.268L303.804 106.465L303.601 123.476Z" fill="#F9AD8F"/>
<path d="M301.268 113.395C301.268 113.395 297.009 125.091 287.561 125.648C286.683 125.132 286.18 124.735 286.18 124.735C287.286 119.579 286.394 116.233 286.137 115.434L301.268 113.395Z" fill="#E0815B"/>
<path d="M294.403 119.513C287.103 120.86 281.329 117.67 280.693 111.415C280.538 109.906 280.479 107.725 280.474 105.452C280.474 105.428 280.473 105.406 280.473 105.382C280.473 104.9 280.475 104.411 280.476 103.924C280.477 103.57 280.48 103.219 280.486 102.869C280.53 98.815 280.684 95.1429 280.684 95.1429C281.834 85.0868 291.839 81.4389 299.783 85.3422C307.724 89.2465 304.53 101.466 304.443 107.45C304.361 113.434 300.666 118.36 294.403 119.513Z" fill="#F9AD8F"/>
<path d="M292.976 107.578C292.976 107.578 291.945 110.915 289.215 111.456C286.109 112.073 285.41 108.186 285.41 108.186L292.976 107.578Z" fill="white"/>
<path d="M294.936 97.6652C296.999 98.1037 297.585 95.8947 295.722 94.744C294.872 94.2187 293.94 93.7686 292.983 93.7619C290.261 93.7426 290.178 95.6615 291.54 96.4393C292.193 96.8122 293.75 97.4127 294.936 97.6652Z" fill="#00312E"/>
<path d="M283.208 96.5716C281.107 96.7557 280.794 94.4928 282.782 93.5762C283.691 93.1579 284.671 92.8254 285.622 92.9353C288.326 93.2475 288.174 95.1626 286.726 95.7678C286.035 96.0589 284.416 96.4656 283.208 96.5716Z" fill="#00312E"/>
<path d="M278.394 99.6748C278.876 97.22 281.265 95.6153 283.72 96.0972C286.175 96.5791 287.78 98.9683 287.298 101.423C286.817 103.878 284.426 105.483 281.972 105.001C279.517 104.52 277.912 102.13 278.394 99.6748ZM279.048 99.8039C278.636 101.898 280.006 103.938 282.102 104.349C284.196 104.761 286.234 103.391 286.646 101.296C287.058 99.2016 285.688 97.1622 283.593 96.7506C281.497 96.3391 279.458 97.7086 279.048 99.8039Z" fill="white"/>
<path d="M287.485 106.195C287.429 106.191 287.374 106.173 287.324 106.138C285.679 105.005 285.366 104.408 285.319 104.3C285.276 104.199 285.287 104.082 285.347 103.991L287.731 100.404C287.738 100.394 287.746 100.384 287.754 100.374C288.265 99.7721 288.361 98.5269 288.426 97.0822C288.434 96.901 288.587 96.7612 288.767 96.7699C288.95 96.7815 289.088 96.9309 289.078 97.1111C289.009 98.6676 288.898 100.019 288.265 100.78L286.01 104.171C286.181 104.385 286.629 104.865 287.695 105.599C287.844 105.701 287.881 105.905 287.779 106.053C287.71 106.153 287.598 106.203 287.485 106.195Z" fill="#00312E"/>
<path d="M289.234 99.9599C289.716 97.5052 292.105 95.9005 294.56 96.3824C297.015 96.8642 298.62 99.2535 298.139 101.708C297.657 104.163 295.267 105.768 292.813 105.286C290.357 104.805 288.751 102.416 289.234 99.9599ZM289.888 100.088C289.475 102.182 290.846 104.222 292.94 104.633C295.035 105.044 297.073 103.675 297.485 101.58C297.897 99.4858 296.526 97.4464 294.432 97.0348C292.337 96.6243 290.297 97.9938 289.888 100.088Z" fill="white"/>
<path d="M287.065 100.883C287.067 100.883 287.07 100.884 287.072 100.885C287.253 100.915 287.426 100.794 287.456 100.613C287.463 100.58 287.619 99.757 288.245 99.7869C288.939 99.8216 289.2 100.593 289.202 100.6C289.26 100.776 289.447 100.87 289.622 100.814C289.797 100.756 289.893 100.569 289.835 100.394C289.819 100.345 289.425 99.1787 288.277 99.1228C287.307 99.0756 286.888 100.003 286.802 100.5C286.77 100.677 286.889 100.847 287.065 100.883Z" fill="white"/>
<path d="M297.777 100.298C297.915 100.325 298.061 100.262 298.131 100.133C299.93 96.8997 303.278 98.49 303.419 98.5594C303.584 98.6394 303.784 98.5719 303.864 98.4071C303.945 98.2433 303.879 98.0438 303.714 97.9628C303.673 97.9426 299.658 96.0188 297.55 99.8104C297.46 99.9713 297.518 100.174 297.679 100.263C297.711 100.28 297.744 100.291 297.777 100.298Z" fill="white"/>
<path d="M280.688 95.8352C280.465 93.7438 280.277 89.8665 283.648 85.9882C288.687 80.1949 298.966 80.5178 303.066 86.4094C307.165 92.301 305.15 97.4255 305.15 97.4255C305.15 97.4255 303.498 98.024 302.693 101.257L300.507 101.167C300.507 101.167 299.682 98.4615 300.547 94.0541C301.412 89.6458 293.631 85.2355 288.348 86.233C283.065 87.2305 281.385 92.034 281.385 92.034C281.385 92.034 280.8 93.7949 280.688 95.8352Z" fill="#00312E"/>
<path d="M297.749 88.7703C297.749 88.7703 294.072 87.3285 292.295 88.0292C290.519 88.7289 287.942 89.6454 286.004 88.247C284.065 86.8485 281.84 90.9899 281.84 90.9899C281.84 90.9899 284.305 83.6179 290.39 85.1513C296.475 86.6856 296.451 86.1093 297.749 88.7703Z" fill="#00312E"/>
<path d="M288.264 112.84C288.125 112.801 288.04 112.767 288.026 112.76C287.86 112.691 287.78 112.5 287.849 112.334C287.919 112.168 288.108 112.087 288.275 112.157C288.325 112.176 289.42 112.605 290.329 111.828C290.465 111.711 290.671 111.727 290.79 111.865C290.907 112.002 290.89 112.208 290.753 112.326C289.811 113.131 288.733 112.967 288.264 112.84Z" fill="#ED7463"/>
<path d="M303.113 99.2262C303.113 99.2262 305.227 95.8809 308.643 97.5473C312.058 99.2127 310.006 111.215 303.223 109.589L303.113 99.2262Z" fill="#F9AD8F"/>
<path d="M304.606 105.343C304.584 105.341 304.56 105.337 304.537 105.33C304.365 105.278 304.267 105.096 304.318 104.923C304.363 104.777 305.437 101.311 308.611 100.828C308.789 100.801 308.955 100.923 308.984 101.102C309.01 101.28 308.887 101.447 308.709 101.474C305.939 101.896 304.954 105.079 304.944 105.111C304.9 105.261 304.758 105.355 304.606 105.343Z" fill="#00312E"/>
<path d="M307.557 104.285C307.476 104.28 307.397 104.243 307.337 104.176C307.331 104.17 306.718 103.478 305.986 102.787C305.854 102.662 305.848 102.456 305.971 102.325C306.096 102.194 306.304 102.188 306.433 102.311C307.187 103.024 307.8 103.715 307.825 103.744C307.945 103.88 307.932 104.085 307.797 104.205C307.731 104.264 307.643 104.292 307.557 104.285Z" fill="#00312E"/>
<path d="M293.331 102.089C293.746 102.093 294.09 101.508 294.098 100.782C294.106 100.055 293.776 99.4624 293.361 99.4577C292.946 99.453 292.603 100.038 292.595 100.765C292.586 101.491 292.916 102.084 293.331 102.089Z" fill="#00312E"/>
<path d="M284.866 102.11C285.282 102.115 285.625 101.53 285.633 100.804C285.641 100.078 285.311 99.4858 284.896 99.4812C284.481 99.4765 284.138 100.061 284.13 100.787C284.121 101.513 284.451 102.105 284.866 102.11Z" fill="#00312E"/>
<path d="M303.836 119.258C303.836 119.258 306.363 120.024 307.722 125.731C305.963 130.918 301.008 135.274 294.059 136.548L294.078 126.344C294.078 126.344 300.213 124.824 303.836 119.258Z" fill="white"/>
<path d="M286.556 120.699C286.556 120.699 282.377 121.646 280.637 127.339C285.114 132.808 287.507 134.867 294.079 136.55L294.098 126.345C294.098 126.345 290.158 126.279 286.556 120.699Z" fill="white"/>
<path d="M298.799 135.052L294.069 142.056L289.562 135.035L294.094 129.188L298.799 135.052Z" fill="#1C75BC"/>
<path d="M255.5 291.305L253.879 303.46H244.055L244.52 292.137L255.5 291.305Z" fill="#F8A48F"/>
<path d="M219.817 319.033L256.976 318.893C257.25 318.39 257.398 317.678 257.458 316.827C257.677 313.683 256.657 308.669 256.154 305.51C256.093 305.14 256.042 304.795 256 304.485C255.93 303.954 255.886 303.515 255.885 303.193C255.875 300.611 253.592 301.062 253.592 301.062C249.846 304.762 245.568 299.25 243.088 301.072C243.088 301.072 242.02 301.844 239.08 304.509C236.14 307.174 231.129 308.945 226.865 310.749C221.358 313.074 219.804 315.382 219.504 316.968C219.268 318.227 219.817 319.033 219.817 319.033Z" fill="#DD4D36"/>
<path d="M219.785 318.971H256.944C257.22 318.469 257.371 317.755 257.433 316.906H219.479C219.239 318.162 219.785 318.971 219.785 318.971Z" fill="#93211E"/>
<path d="M253.197 318.976H254.3C253.199 317.717 252.168 315.785 252.303 313.025C252.482 309.354 254.686 306.878 256.216 305.588C256.157 305.219 256.104 304.875 256.066 304.562C254.415 305.823 251.635 308.583 251.419 312.981C251.29 315.618 252.155 317.584 253.197 318.976Z" fill="#93211E"/>
<path d="M239.762 306.708C240.036 306.708 240.287 306.521 240.356 306.243C240.438 305.914 240.238 305.582 239.91 305.501L237.588 304.925C237.259 304.842 236.928 305.042 236.846 305.371C236.765 305.7 236.964 306.031 237.293 306.113L239.614 306.69C239.664 306.701 239.713 306.708 239.762 306.708Z" fill="white"/>
<path d="M242.063 304.775C242.338 304.775 242.588 304.589 242.657 304.31C242.738 303.98 242.539 303.65 242.211 303.567L239.889 302.99C239.561 302.91 239.229 303.11 239.147 303.438C239.065 303.766 239.266 304.098 239.594 304.179L241.915 304.756C241.965 304.769 242.014 304.775 242.063 304.775Z" fill="white"/>
<path d="M237.407 308.055C237.681 308.055 237.931 307.87 238.001 307.59C238.081 307.262 237.883 306.93 237.554 306.849L235.232 306.272C234.905 306.19 234.572 306.39 234.491 306.719C234.409 307.048 234.609 307.38 234.938 307.461L237.259 308.037C237.307 308.05 237.357 308.055 237.407 308.055Z" fill="white"/>
<path d="M235.145 309.336C235.42 309.336 235.67 309.15 235.74 308.871C235.821 308.544 235.622 308.211 235.293 308.13L232.972 307.553C232.642 307.472 232.311 307.671 232.229 307.999C232.148 308.328 232.348 308.66 232.676 308.741L234.998 309.318C235.047 309.331 235.097 309.336 235.145 309.336Z" fill="white"/>
<path d="M232.598 310.56C232.872 310.56 233.124 310.373 233.193 310.095C233.274 309.766 233.075 309.434 232.746 309.353L230.425 308.776C230.095 308.694 229.765 308.894 229.682 309.223C229.601 309.55 229.801 309.883 230.129 309.964L232.45 310.54C232.5 310.553 232.549 310.56 232.598 310.56Z" fill="white"/>
<path d="M229.833 311.579C230.107 311.579 230.357 311.393 230.427 311.114C230.508 310.786 230.308 310.453 229.98 310.372L227.659 309.796C227.33 309.714 226.998 309.914 226.917 310.242C226.835 310.57 227.035 310.902 227.363 310.985L229.684 311.56C229.734 311.573 229.784 311.579 229.833 311.579Z" fill="white"/>
<path d="M294.459 241.043C273.402 241.043 263.395 239.011 263.395 239.011C263.395 239.011 262.89 257.603 261.909 265.447C260.931 273.291 256.722 295.891 256.722 295.891L240.862 296.699C240.862 296.699 240.714 292.729 240.623 286.587V286.584C240.62 286.374 240.617 286.162 240.613 285.944C240.589 284.169 240.569 282.229 240.562 280.159V280.155C240.559 279.873 240.558 279.591 240.558 279.302C240.539 273.63 240.596 267.071 240.819 260.418V260.417C240.832 260.081 240.842 259.745 240.856 259.411V259.407C240.964 256.429 241.106 253.441 241.289 250.512C241.304 250.272 241.32 250.035 241.335 249.797C241.458 247.91 241.6 246.053 241.762 244.24C241.778 244.051 241.795 243.862 241.813 243.675C242.645 234.593 243.992 226.742 246.135 222.561C246.227 222.382 246.32 222.211 246.416 222.045C247.011 220.999 247.669 220.231 248.391 219.785C252.963 216.965 258.433 215.377 265.355 214.263C265.629 214.218 265.906 214.175 266.185 214.131C270.537 213.466 275.453 212.968 281.063 212.465C281.263 212.447 281.462 212.429 281.66 212.409H281.662C285.14 212.1 288.883 211.783 292.919 211.42C293.114 211.403 293.31 211.385 293.506 211.367C295.045 211.228 296.63 211.08 298.258 210.924C298.258 210.924 304.04 209.946 310.46 209.493C310.684 209.476 310.911 209.46 311.139 209.446C317.2 209.056 323.667 209.176 326.28 211.046C326.28 211.046 333.882 241.043 294.459 241.043Z" fill="#14130F"/>
<path d="M322.637 210.735C322.603 210.488 322.378 210.315 322.13 210.348C321.884 210.382 321.71 210.609 321.744 210.856C321.757 210.957 323.049 221.118 317.417 228.355C314.277 232.391 309.574 234.794 303.44 235.497C291.089 236.913 279.634 235.696 272.054 234.889C265.937 234.239 262.245 233.846 261.002 234.945C259.87 235.944 259.442 241.66 258.721 252.525C257.995 263.454 256.244 281.035 253.996 290.597C254.278 290.709 254.756 290.329 255.044 290.429C257.332 280.787 258.889 263.595 259.621 252.584C259.929 247.931 260.196 243.91 260.521 240.866C260.961 236.743 261.385 235.811 261.598 235.621C262.545 234.784 266.698 235.228 271.958 235.785C279.578 236.597 291.092 237.82 303.542 236.393C309.929 235.661 314.838 233.14 318.134 228.904C323.998 221.362 322.695 211.164 322.637 210.735Z" fill="#5C554C"/>
<path d="M241.215 291.972C240.989 291.972 240.8 291.787 240.786 291.548C240.771 291.299 240.952 291.086 241.189 291.07L257.353 290.048C257.593 290.032 257.793 290.224 257.807 290.471C257.822 290.719 257.641 290.935 257.404 290.95L241.24 291.97C241.232 291.972 241.223 291.972 241.215 291.972Z" fill="#5C554C"/>
<path d="M276.08 157.884C276.08 157.884 277.146 152.313 276.516 150.505C275.888 148.697 275.899 145.633 274.651 145.953C273.402 146.274 273.49 150.042 273.49 150.042L276.08 157.884Z" fill="#F9AE90"/>
<path d="M322.604 145.726L321.962 148.289C321.746 149.128 321.53 149.964 321.303 150.796C320.85 152.46 320.39 154.121 319.908 155.779C318.935 159.092 317.923 162.401 316.798 165.703C315.678 169.009 314.489 172.315 313.093 175.648C312.397 177.316 311.655 178.994 310.81 180.708C309.955 182.43 309.034 184.159 307.701 186.079C307.363 186.561 306.991 187.059 306.554 187.585C306.113 188.113 305.625 188.66 304.962 189.266C304.641 189.563 304.252 189.885 303.816 190.203C303.373 190.525 302.842 190.863 302.198 191.183C301.557 191.498 300.776 191.806 299.83 192.001C299.357 192.096 298.855 192.162 298.325 192.18L298.129 192.187H297.99L297.717 192.183C297.53 192.18 297.367 192.168 297.193 192.156C295.839 192.041 294.829 191.727 293.994 191.412C293.154 191.088 292.487 190.741 291.88 190.395C290.684 189.702 289.76 189.007 288.91 188.321C287.231 186.942 285.883 185.57 284.601 184.195C283.327 182.818 282.151 181.436 281.021 180.047C279.892 178.657 278.812 177.259 277.76 175.854C276.708 174.451 275.701 173.025 274.752 171.566C273.8 170.11 272.899 168.624 272.054 167.103C271.631 166.344 271.225 165.573 270.835 164.791C270.638 164.4 270.453 164.002 270.266 163.604C270.172 163.405 270.079 163.204 269.991 163L269.718 162.37C268.64 159.882 269.783 156.99 272.272 155.913C274.085 155.127 276.11 155.519 277.494 156.752L277.703 156.942C277.988 157.197 278.302 157.497 278.592 157.783C278.888 158.074 279.187 158.364 279.476 158.661C280.059 159.252 280.637 159.847 281.203 160.448C282.339 161.649 283.448 162.863 284.542 164.08C285.636 165.296 286.709 166.519 287.775 167.73C288.845 168.938 289.926 170.121 291.019 171.259C292.112 172.398 293.217 173.494 294.319 174.502C295.415 175.504 296.535 176.434 297.522 177.113C298.007 177.449 298.469 177.718 298.749 177.835C298.882 177.891 298.974 177.912 298.926 177.875C298.88 177.848 298.692 177.747 298.179 177.691C298.112 177.683 298.053 177.682 297.97 177.677L297.855 177.673L297.678 177.675C297.359 177.686 297.066 177.722 296.799 177.776C296.265 177.884 295.88 178.039 295.612 178.163C295.344 178.289 295.171 178.404 295.063 178.472C294.961 178.536 294.898 178.59 294.879 178.593C294.83 178.623 294.894 178.533 294.977 178.404C295.063 178.27 295.181 178.081 295.306 177.862C295.561 177.423 295.847 176.866 296.129 176.269C296.413 175.668 296.702 175.023 296.98 174.351C297.539 173.004 298.073 171.565 298.58 170.092C299.588 167.135 300.525 164.049 301.404 160.928C302.272 157.8 303.115 154.635 303.901 151.45C304.299 149.857 304.692 148.262 305.069 146.666L305.638 144.274L306.175 141.929L306.207 141.791C307.248 137.252 311.772 134.416 316.311 135.457C320.85 136.498 323.686 141.022 322.645 145.561C322.635 145.601 322.614 145.685 322.604 145.726Z" fill="#F9AE90"/>
<path d="M297.742 177.204C298.539 177.526 299.336 177.847 300.133 178.17C300.552 178.339 300.265 178.979 299.847 178.81C299.049 178.488 298.253 178.166 297.455 177.844C297.036 177.675 297.324 177.034 297.742 177.204Z" fill="#DF6A5D"/>
<path d="M296.272 176.725C297.323 177.755 297.949 179.092 298.095 180.553C298.144 181.037 298.895 180.956 298.846 180.472C298.678 178.807 297.945 177.311 296.752 176.142C296.404 175.802 295.927 176.388 296.272 176.725Z" fill="#DF6A5D"/>
<path d="M275.753 163.346C273.358 164.909 270.163 164.089 268.519 161.748C267.653 160.512 266.588 159.236 265.485 158.491C262.836 156.702 259.21 155.325 258.129 154.043C256.533 152.151 259.2 152.277 259.527 152.34C261.63 152.732 264.439 153.774 264.439 153.774C264.439 153.774 259.962 150.699 257.866 150.281C255.769 149.864 254.872 148.158 257.053 147.429C259.234 146.701 264.87 149.062 266.255 150.138C266.255 150.138 263.984 147.529 261.162 146.869C258.34 146.208 257.418 145.592 256.56 144.791C255.702 143.99 257.476 142.437 261.393 143.46C265.308 144.484 266.551 145.858 268.007 147.192C268.007 147.192 267.315 145.749 265.691 143.68C264.068 141.611 260.746 141.108 260.415 139.57C260.077 137.998 263.88 138.747 265.79 140.097C267.702 141.448 269.208 142.269 270.812 144.794C272.416 147.32 273.862 149.79 274.459 151.533C275.057 153.276 277.996 159.193 277.177 161.72C276.966 162.366 276.432 162.904 275.753 163.346Z" fill="#F9AE90"/>
<path d="M323.642 142.85C323.649 146.481 323.254 150.534 322.799 154.001C322.773 154.214 322.744 154.425 322.715 154.632C322.118 159.048 321.446 162.369 321.446 162.369C319.916 162.404 317.12 161.816 313.979 160.984C313.781 160.932 313.582 160.878 313.383 160.824C310.881 160.144 308.201 159.331 305.8 158.567C305.432 158.449 305.071 158.334 304.718 158.22C302.982 157.659 301.44 157.143 300.29 156.753H300.288C299.968 156.643 299.679 156.544 299.425 156.456C298.621 156.181 298.156 156.015 298.156 156.015C298.156 156.015 298.733 153.532 299.604 150.081C299.656 149.878 299.711 149.671 299.762 149.46C299.995 148.545 300.248 147.57 300.511 146.564C300.566 146.361 300.62 146.156 300.671 145.951C302.447 139.255 304.767 131.375 306.261 129.619C306.564 129.265 306.911 128.953 307.288 128.682C307.45 128.565 307.619 128.453 307.795 128.35C308.111 128.162 308.445 127.997 308.784 127.852C311.646 126.643 314.878 126.726 317.461 128.141C317.628 128.229 317.791 128.326 317.95 128.427C318.745 128.931 319.468 129.569 320.083 130.345C320.35 130.679 320.621 131.081 320.892 131.534C320.988 131.692 321.081 131.854 321.173 132.022C322.203 133.885 323.15 136.428 323.431 138.794C323.558 139.873 323.625 141.051 323.638 142.284C323.641 142.471 323.642 142.66 323.642 142.85Z" fill="#1C75BC"/>
<path d="M72.4284 284.31H40.6178C39.7888 284.31 39.1172 283.58 39.1172 282.678V282.429C39.1172 281.527 39.7896 280.797 40.6178 280.797H72.4284C73.2574 280.797 73.929 281.527 73.929 282.429V282.678C73.929 283.579 73.2574 284.31 72.4284 284.31Z" fill="#14130F"/>
<path d="M387.413 323.222C386.45 323.222 385.554 322.56 385.233 321.511L349.431 204.623C349.03 203.313 349.681 201.897 350.886 201.461C352.09 201.024 353.393 201.733 353.794 203.042L389.596 319.93C389.997 321.241 389.345 322.656 388.141 323.094C387.899 323.181 387.653 323.222 387.413 323.222Z" fill="#14130F"/>
<path d="M375.664 284.31H343.853C343.024 284.31 342.352 283.58 342.352 282.678V282.429C342.352 281.527 343.024 280.797 343.853 280.797H375.664C376.492 280.797 377.165 281.527 377.165 282.429V282.678C377.165 283.579 376.492 284.31 375.664 284.31Z" fill="#14130F"/>
<path d="M331.464 323.222C331.223 323.222 330.978 323.18 330.738 323.093C329.533 322.657 328.881 321.241 329.283 319.93L365.084 203.042C365.486 201.733 366.787 201.025 367.992 201.461C369.197 201.896 369.848 203.312 369.447 204.623L333.645 321.512C333.323 322.559 332.427 323.222 331.464 323.222Z" fill="#14130F"/>
<path d="M85.8278 323.238C84.8647 323.238 83.9671 322.576 83.6464 321.527L47.8452 204.639C47.4435 203.329 48.0951 201.913 49.2995 201.476C50.504 201.04 51.8056 201.749 52.2074 203.058L88.0085 319.946C88.4095 321.256 87.7579 322.672 86.5534 323.109C86.3136 323.197 86.0684 323.238 85.8278 323.238Z" fill="#14130F"/>
<path d="M29.8701 323.238C29.6296 323.238 29.3843 323.196 29.1437 323.109C27.9385 322.672 27.2877 321.257 27.6887 319.946L63.4906 203.058C63.8915 201.748 65.1932 201.04 66.3984 201.476C67.6029 201.912 68.2545 203.328 67.8527 204.638L32.0508 321.527C31.7301 322.575 30.8333 323.238 29.8701 323.238Z" fill="#14130F"/>
<path d="M380.288 197.191H38.2891V207.88H380.288V197.191Z" fill="#14130F"/>
<path d="M380.281 204.035H38.2812V205.158H380.281V204.035Z" fill="#5C554C"/>
<path d="M204.432 186.145H187.912C187.465 186.145 187.102 185.75 187.102 185.263V184.19C187.102 183.703 187.465 183.309 187.912 183.309H204.432C204.88 183.309 205.243 183.703 205.243 184.19V185.263C205.243 185.751 204.88 186.145 204.432 186.145Z" fill="#DD4D36"/>
<path d="M206.119 192.479C206.079 193.179 205.882 193.844 205.45 194.409C203.865 196.48 199.706 196.79 197.519 196.802C197.179 196.804 196.885 196.797 196.658 196.79H196.656C196.49 196.787 196.361 196.779 196.272 196.774C196.183 196.771 196.134 196.767 196.134 196.767C196.134 196.767 194.49 196.882 192.54 196.686C192.347 196.668 192.154 196.645 191.957 196.618C189.989 196.362 187.854 195.761 186.818 194.409C186.556 194.068 186.383 193.691 186.276 193.293C186.228 193.116 186.194 192.934 186.172 192.748C186.064 191.848 186.245 190.872 186.544 189.954C186.608 189.755 186.679 189.557 186.753 189.365C186.864 189.077 186.983 188.799 187.105 188.533C187.303 188.102 187.51 187.71 187.7 187.369C187.746 187.29 187.788 187.215 187.83 187.142C187.934 186.965 188.031 186.806 188.115 186.672C188.323 186.338 188.459 186.145 188.459 186.145H203.803C203.803 186.145 204.364 186.933 204.933 188.067C205.01 188.216 205.084 188.372 205.16 188.533C205.168 188.55 205.175 188.568 205.184 188.586C205.367 188.985 205.542 189.414 205.692 189.86C205.756 190.056 205.818 190.256 205.87 190.457C206 190.939 206.09 191.427 206.114 191.909C206.127 192.101 206.129 192.292 206.119 192.479Z" fill="#DD4D36"/>
<path d="M205.903 190.472C203.449 191.768 200.307 192.09 197.95 192.022C195.213 191.945 192.684 191.027 190.037 190.382C188.909 190.107 187.729 189.927 186.574 189.968C186.638 189.769 186.709 189.572 186.783 189.379C189.673 189.387 192.735 190.739 195.488 191.213C198.213 191.685 201.043 191.499 203.7 190.687C204.378 190.481 205.069 190.216 205.723 189.874C205.789 190.07 205.851 190.27 205.903 190.472Z" fill="#F37669"/>
<path d="M199.075 186.148C196.066 189.286 191.362 189.74 187.891 187.145C187.995 186.969 188.092 186.81 188.176 186.676C191.291 189.006 195.465 188.741 198.304 186.148H199.075Z" fill="#F37669"/>
<path d="M206.157 192.488C203.059 193.31 200.134 194.789 197.557 196.81C197.217 196.811 196.923 196.805 196.695 196.798C199.493 194.481 202.722 192.811 206.155 191.918C206.165 192.109 206.167 192.3 206.157 192.488Z" fill="#F37669"/>
<path d="M192.563 196.698C192.37 196.68 192.178 196.657 191.98 196.63C191.994 195.805 191.691 195.012 190.987 194.499C189.685 193.548 187.953 193.236 186.299 193.304C186.251 193.127 186.217 192.945 186.195 192.759C186.966 192.735 187.734 192.797 188.501 192.953C189.689 193.195 191.194 193.619 191.972 194.717C192.44 195.374 192.605 196.044 192.563 196.698Z" fill="#F37669"/>
<path d="M205.209 188.594C204.81 188.726 204.383 188.785 203.925 188.755C202.45 188.662 201.543 187.523 201.227 186.152H201.772C202.167 187.526 203.285 188.498 204.855 188.103C204.89 188.093 204.925 188.086 204.958 188.075C205.034 188.224 205.109 188.38 205.185 188.541C205.192 188.557 205.199 188.575 205.209 188.594Z" fill="#F37669"/>
<path d="M203.826 186.432H188.483C188.339 186.432 188.223 186.305 188.223 186.149C188.223 185.994 188.339 185.867 188.483 185.867H203.826C203.97 185.867 204.086 185.994 204.086 186.149C204.086 186.305 203.97 186.432 203.826 186.432Z" fill="#93211E"/>
<path d="M202.549 180.783C202.338 181.125 202.13 181.443 201.933 181.732C201.306 182.657 200.807 183.273 200.767 183.323C200.766 183.325 200.764 183.325 200.764 183.325H191.544C191.544 183.325 191.543 183.325 191.541 183.323C191.502 183.273 191.002 182.657 190.375 181.732C190.179 181.443 189.971 181.125 189.76 180.783C188.629 178.948 187.435 176.471 187.762 174.585C187.861 174.005 188.019 173.603 188.214 173.333C188.314 173.195 188.423 173.091 188.541 173.016C189.535 172.385 191.062 173.861 191.544 173.813C192.195 173.749 191.136 170.215 189.626 167.707C188.215 165.362 187.295 162.229 189.024 161.099C189.087 161.058 189.15 161.02 189.219 160.986C189.283 160.953 189.347 160.924 189.418 160.896C191.662 159.996 192.431 163.275 193.378 162.824C194.308 162.38 191.459 151.913 195.938 151.891C196.007 151.89 196.082 151.893 196.155 151.896C196.229 151.893 196.302 151.889 196.373 151.891C200.85 151.912 198.001 162.38 198.931 162.824C199.878 163.275 200.647 159.996 202.891 160.896C202.962 160.924 203.027 160.953 203.09 160.986C203.159 161.021 203.223 161.059 203.285 161.099C205.015 162.229 204.096 165.362 202.684 167.707C201.175 170.215 200.115 173.749 200.765 173.813C201.249 173.861 202.773 172.384 203.769 173.016C203.887 173.091 203.995 173.195 204.096 173.333C204.291 173.603 204.447 174.005 204.548 174.585C204.875 176.471 203.68 178.948 202.549 180.783Z" fill="#047C6D"/>
<path d="M196.397 151.891V183.326H195.961V151.891C196.031 151.889 196.106 151.893 196.179 151.897C196.252 151.893 196.326 151.889 196.397 151.891Z" fill="#083D3B"/>
<path d="M196.302 169.901L196.138 170.056L195.972 170.211L195.92 170.144L188.824 161.232L189.006 161.097C189.069 161.058 189.133 161.02 189.203 160.984L195.92 169.42L196.138 169.693L196.302 169.901Z" fill="#083D3B"/>
<path d="M196.304 182.788L196.14 182.943L195.974 183.097L195.922 183.031L188.199 173.336C188.299 173.198 188.408 173.094 188.526 173.02L195.922 182.308L196.14 182.581L196.304 182.788Z" fill="#083D3B"/>
<path d="M203.502 161.227L196.407 170.138L196.353 170.206L196.189 170.051L196.023 169.897L196.189 169.689L196.407 169.415L203.123 160.98C203.193 161.016 203.257 161.054 203.32 161.093L203.502 161.227Z" fill="#083D3B"/>
<path d="M204.129 173.336L196.407 183.029L196.353 183.097L196.189 182.943L196.023 182.788L196.189 182.581L196.407 182.307L203.802 173.02C203.92 173.094 204.028 173.198 204.129 173.336Z" fill="#083D3B"/>
<path d="M238.819 150.69C238.819 150.69 238.619 150.709 239.073 149.709C239.819 148.069 238.28 145.551 239.296 144.577C240.658 143.271 241.795 145.597 243.573 150.272C244.04 151.502 243.903 156.097 243.491 157.566C243.179 158.68 243.413 160.125 242.704 160.794C240.452 162.91 234.229 164.171 233.061 163.219C231.342 161.818 230.125 158.009 229.068 156.753C228.01 155.497 222.484 146.686 223.887 146.595C225.29 146.505 228.317 150.483 228.317 150.483C228.317 150.483 224.624 143.425 226.056 142.798C227.41 142.206 230.835 148.804 230.835 148.804C230.835 148.804 227.207 139.773 229.334 139.785C230.394 139.791 233.952 147.821 233.952 147.821C233.952 147.821 232.062 142.456 234.935 141.972C237.962 141.461 239.601 143.924 239.601 143.924C239.601 143.924 239.636 145.653 236.992 144.481C234.659 143.445 238.819 150.69 238.819 150.69Z" fill="#F9AE90"/>
<path d="M353.778 105.817C363.909 105.817 372.122 97.5454 372.122 87.342C372.122 77.1386 363.909 68.8672 353.778 68.8672C343.646 68.8672 335.434 77.1386 335.434 87.342C335.434 97.5454 343.646 105.817 353.778 105.817Z" fill="#E67524"/>
<path d="M370.065 86.8279C370.065 97.0319 361.851 105.303 351.719 105.303C341.59 105.303 333.375 97.0319 333.375 86.8279C333.375 76.6271 341.589 68.3555 351.719 68.3555C361.85 68.3555 370.065 76.6271 370.065 86.8279Z" fill="#FFC538"/>
<path d="M352.111 102.992C360.897 102.992 368.019 95.8698 368.019 87.0839C368.019 78.2981 360.897 71.1758 352.111 71.1758C343.325 71.1758 336.203 78.2981 336.203 87.0839C336.203 95.8698 343.325 102.992 352.111 102.992Z" fill="#F5B11A"/>
<path d="M345.288 91.4731C346.229 93.5886 347.868 95.5439 351.914 95.6145C355.442 95.6787 357.051 93.8201 356.973 92.0805C356.887 90.2068 355.382 89.1221 351.805 88.0192C346.422 86.4666 342.635 84.7936 342.532 81.4475C342.366 77.7668 346.586 75.4626 351.571 75.507C354.813 75.5023 357.667 76.2318 359.473 76.6821C359.743 77.4544 360.455 79.6682 360.906 81.3103L359.459 81.5657C358.261 78.9792 355.901 76.6488 351.479 76.61C348.283 76.6147 346.041 77.9326 346.146 80.3081C346.231 82.2159 347.759 83.7359 351.668 84.9419C357.34 86.6982 360.139 88.2951 360.277 91.3399C360.407 94.2855 357.322 96.7317 351.443 96.6785C348.34 96.6508 346.722 96.2353 345.02 96.0196C344.683 94.7787 344.388 93.4387 343.933 91.6959L345.288 91.4731ZM351.836 99.0922L350.235 99.0763L351.766 72.5312L353.46 72.5463L351.836 99.0922Z" fill="#CC7829"/>
<path d="M174.236 92.1904C174.188 92.8973 173.571 93.4361 172.864 93.3883L147.774 91.6754C147.068 91.6266 146.529 91.01 146.577 90.3022L148.625 60.3016C148.673 59.595 149.291 59.0558 149.996 59.104L175.087 60.8165C175.794 60.8644 176.333 61.4819 176.284 62.1878L174.236 92.1904Z" fill="#93AFDB"/>
<path d="M174.344 63.3145L150.562 61.6914L150.102 68.4413L173.884 70.0644L174.344 63.3145Z" fill="#374665"/>
<path d="M154.836 74.3151C154.812 74.6688 154.501 74.9389 154.148 74.9149L150.282 74.6514C149.929 74.6273 149.66 74.3185 149.683 73.9637L149.837 71.7099C149.862 71.3581 150.171 71.0873 150.524 71.1114L154.39 71.3749C154.744 71.3997 155.013 71.7084 154.99 72.0622L154.836 74.3151Z" fill="#E9EEF8"/>
<path d="M161.031 74.7371C161.007 75.0899 160.697 75.3598 160.344 75.3357L156.478 75.0722C156.124 75.0474 155.855 74.7386 155.879 74.3858L156.034 72.1317C156.056 71.7782 156.366 71.5094 156.719 71.5334L160.586 71.7967C160.938 71.821 161.21 72.1293 161.186 72.4821L161.031 74.7371Z" fill="#E9EEF8"/>
<path d="M167.23 75.1627C167.207 75.5165 166.898 75.7851 166.544 75.7623L162.678 75.4978C162.324 75.473 162.054 75.1654 162.078 74.8114L162.232 72.5576C162.256 72.2048 162.566 71.9349 162.919 71.959L166.786 72.2223C167.139 72.2473 167.408 72.5561 167.383 72.9082L167.23 75.1627Z" fill="#E9EEF8"/>
<path d="M173.469 75.584C173.445 75.9388 173.134 76.2079 172.781 76.185L168.915 75.9203C168.562 75.8962 168.292 75.5867 168.317 75.2337L168.47 72.9789C168.493 72.6275 168.805 72.356 169.156 72.3815L173.023 72.6448C173.378 72.6706 173.647 72.9784 173.622 73.3324L173.469 75.584Z" fill="#E9EEF8"/>
<path d="M154.499 79.2982C154.475 79.6532 154.165 79.922 153.812 79.898L149.947 79.6352C149.593 79.6114 149.323 79.3006 149.347 78.9478L149.502 76.6947C149.526 76.3409 149.836 76.0721 150.19 76.0949L154.055 76.3587C154.408 76.3837 154.678 76.6923 154.655 77.046L154.499 79.2982Z" fill="#E9EEF8"/>
<path d="M160.695 79.7218C160.671 80.0758 160.362 80.3444 160.008 80.3216L156.142 80.0581C155.789 80.033 155.518 79.7245 155.543 79.3695L155.696 77.1169C155.721 76.7628 156.031 76.493 156.385 76.5178L160.251 76.7813C160.603 76.8066 160.873 77.1151 160.85 77.4689L160.695 79.7218Z" fill="#E9EEF8"/>
<path d="M166.894 80.144C166.871 80.4986 166.561 80.7674 166.208 80.7433L162.342 80.4798C161.988 80.455 161.718 80.1465 161.743 79.7925L161.896 77.5387C161.92 77.1849 162.23 76.916 162.585 76.9386L166.45 77.2033C166.803 77.2284 167.073 77.5372 167.049 77.89L166.894 80.144Z" fill="#E9EEF8"/>
<path d="M173.124 80.5693C173.099 80.9244 172.79 81.193 172.438 81.1689L168.572 80.9054C168.22 80.881 167.948 80.5718 167.973 80.2178L168.127 77.9649C168.15 77.6102 168.461 77.341 168.814 77.3651L172.68 77.6286C173.032 77.653 173.302 77.9637 173.278 78.3165L173.124 80.5693Z" fill="#E9EEF8"/>
<path d="M154.149 84.2823C154.124 84.6342 153.815 84.904 153.461 84.8792L149.595 84.6145C149.242 84.5926 148.972 84.2828 148.996 83.93L149.151 81.675C149.175 81.3222 149.484 81.0514 149.838 81.0761L153.703 81.3399C154.057 81.3637 154.327 81.6735 154.302 82.0266L154.149 84.2823Z" fill="#E9EEF8"/>
<path d="M160.344 84.7068C160.32 85.0605 160.01 85.3294 159.656 85.3066L155.79 85.043C155.437 85.017 155.168 84.7092 155.191 84.3554L155.345 82.1016C155.37 81.7476 155.679 81.478 156.033 81.5018L159.898 81.7666C160.252 81.7904 160.521 82.0992 160.497 82.452L160.344 84.7068Z" fill="#E9EEF8"/>
<path d="M166.543 85.1244C166.519 85.4792 166.21 85.7478 165.855 85.7233L161.99 85.4595C161.636 85.4357 161.367 85.1269 161.391 84.7731L161.546 82.5188C161.57 82.164 161.879 81.8964 162.234 81.919L166.098 82.184C166.453 82.2066 166.721 82.5166 166.698 82.8704L166.543 85.1244Z" fill="#E9EEF8"/>
<path d="M160.01 89.6873C159.985 90.0414 159.675 90.3102 159.322 90.2862L149.26 89.5996C148.905 89.5748 148.636 89.2661 148.66 88.9132L148.814 86.6594C148.837 86.3047 149.148 86.0368 149.501 86.0609L159.563 86.7474C159.917 86.7712 160.188 87.0797 160.163 87.4338L160.01 89.6873Z" fill="#F8AC9C"/>
<path d="M166.207 90.113C166.182 90.4661 165.873 90.7347 165.521 90.7103L161.654 90.4481C161.3 90.4233 161.031 90.1145 161.055 89.7617L161.208 87.5069C161.231 87.1543 161.542 86.8843 161.896 86.9081L165.762 87.1716C166.116 87.1954 166.385 87.5054 166.361 87.8582L166.207 90.113Z" fill="#E9EEF8"/>
<path d="M172.444 90.5348C172.421 90.8873 172.111 91.1572 171.758 91.1331L167.892 90.8696C167.538 90.8448 167.269 90.536 167.293 90.1832L167.786 82.9483C167.811 82.5943 168.12 82.3257 168.473 82.3485L172.34 82.613C172.693 82.6359 172.963 82.9456 172.939 83.2994L172.444 90.5348Z" fill="#4DBE9B"/>
<path d="M277.293 4.11328H208.391V53.9479C208.391 55.5105 209.657 56.7773 211.219 56.7773H274.463C276.026 56.7773 277.293 55.5105 277.293 53.9479V4.11328H277.293Z" fill="white"/>
<path d="M277.287 2.88463V8.81197H208.445V2.88463C208.445 1.29166 209.737 0 211.33 0H274.403C275.996 0.000778581 277.287 1.29166 277.287 2.88463Z" fill="#14130F"/>
<path d="M263.871 5.52381C264.721 5.52381 265.411 4.83467 265.411 3.98456C265.411 3.13445 264.721 2.44531 263.871 2.44531C263.021 2.44531 262.332 3.13445 262.332 3.98456C262.332 4.83467 263.021 5.52381 263.871 5.52381Z" fill="#DD4D36"/>
<path d="M268.876 5.52928C269.727 5.52928 270.416 4.83979 270.416 3.98925C270.416 3.13871 269.727 2.44922 268.876 2.44922C268.025 2.44922 267.336 3.13871 267.336 3.98925C267.336 4.83979 268.025 5.52928 268.876 5.52928Z" fill="#FCC865"/>
<path d="M273.653 5.52381C274.503 5.52381 275.192 4.83467 275.192 3.98456C275.192 3.13445 274.503 2.44531 273.653 2.44531C272.802 2.44531 272.113 3.13445 272.113 3.98456C272.113 4.83467 272.802 5.52381 273.653 5.52381Z" fill="#1E51A4"/>
<path d="M255.998 15.2305H252.254V18.9747H255.998V15.2305Z" fill="#FCC865"/>
<path d="M255.998 21.9062H252.254V25.6505H255.998V21.9062Z" fill="#1E51A4"/>
<path d="M272.067 22.7227H259.641C259.002 22.7227 258.484 23.1945 258.484 23.7769C258.484 24.3592 259.002 24.8311 259.641 24.8311H272.067C272.706 24.8311 273.224 24.3592 273.224 23.7769C273.224 23.1945 272.707 22.7227 272.067 22.7227Z" fill="#F0D6BE"/>
<path d="M272.067 16.0586H259.641C259.002 16.0586 258.484 16.5304 258.484 17.1128C258.484 17.6952 259.002 18.167 259.641 18.167H272.067C272.706 18.167 273.224 17.6952 273.224 17.1128C273.224 16.5304 272.707 16.0586 272.067 16.0586Z" fill="#F0D6BE"/>
<path d="M252.309 44.4721C252.309 45.0545 252.78 45.5263 253.363 45.5263H272.06C272.641 45.5263 273.114 45.0545 273.114 44.4721C273.114 43.8905 272.642 43.418 272.06 43.418H253.363C252.781 43.418 252.309 43.8905 252.309 44.4721Z" fill="#F0D6BE"/>
<path d="M252.277 40.2339C252.277 40.8163 252.748 41.2881 253.332 41.2881H272.028C272.61 41.2881 273.083 40.817 273.083 40.2339C273.083 39.6515 272.611 39.1797 272.028 39.1797H253.332C252.748 39.1805 252.277 39.6515 252.277 40.2339Z" fill="#F0D6BE"/>
<path d="M252.25 35.9956C252.25 36.578 252.721 37.0498 253.304 37.0498H272.001C272.583 37.0498 273.055 36.578 273.055 35.9956C273.055 35.414 272.584 34.9414 272.001 34.9414H253.304C252.722 34.9414 252.25 35.414 252.25 35.9956Z" fill="#F0D6BE"/>
<path d="M252.254 31.7612C252.254 32.3428 252.726 32.8154 253.308 32.8154H272.005C272.587 32.8154 273.059 32.3436 273.059 31.7612C273.059 31.1789 272.587 30.707 272.005 30.707H253.308C252.727 30.707 252.254 31.1789 252.254 31.7612Z" fill="#F0D6BE"/>
<path d="M244.347 31.5827C244.347 39.2829 238.106 45.5216 230.409 45.5216C222.709 45.5216 216.469 39.2821 216.469 31.5827C216.469 29.6744 216.853 27.8533 217.549 26.1957L230.41 31.5827L229.749 17.6617C229.965 17.6476 230.187 17.6445 230.41 17.6445C238.107 17.6438 244.347 23.8849 244.347 31.5827Z" fill="#1E51A4"/>
<path d="M228.507 15.4727C224.342 15.6657 220.657 17.6862 218.232 20.7514C217.452 21.7371 216.802 22.831 216.309 24.0075L229.168 29.3944L228.507 15.4727Z" fill="#FCC865"/>
</svg>
