<svg width="35" height="41" viewBox="0 0 35 41" fill="none" xmlns="http://www.w3.org/2000/svg">
<path d="M27.7851 13.484H6.60572C6.14604 13.484 5.77148 13.8586 5.77148 14.3182C5.77148 14.7779 6.14604 15.1525 6.60572 15.1525H27.7851C28.2447 15.1525 28.6193 14.7779 28.6193 14.3182C28.6193 13.8586 28.2447 13.484 27.7851 13.484Z" fill="#005FE5"/>
<path d="M6.60572 20.9241H23.9374C24.3971 20.9241 24.7716 20.5495 24.7716 20.0899C24.7716 19.6302 24.3971 19.2556 23.9374 19.2556H6.60572C6.14604 19.2556 5.77148 19.6302 5.77148 20.0899C5.77148 20.5495 6.14604 20.9241 6.60572 20.9241Z" fill="#005FE5"/>
<path d="M27.7851 25.0272H6.60572C6.14604 25.0272 5.77148 25.4018 5.77148 25.8615C5.77148 26.3211 6.14604 26.6957 6.60572 26.6957H27.7851C28.2447 26.6957 28.6193 26.3211 28.6193 25.8615C28.6193 25.4018 28.2447 25.0272 27.7851 25.0272Z" fill="#005FE5"/>
<path d="M23.9374 30.7986H6.60572C6.14604 30.7986 5.77148 31.1731 5.77148 31.6328C5.77148 32.0925 6.14604 32.4671 6.60572 32.4671H23.9374C24.3971 32.4671 24.7716 32.0925 24.7716 31.6328C24.7716 31.1731 24.3971 30.7986 23.9374 30.7986Z" fill="#005FE5"/>
<path d="M27.7851 4.81813H26.4061C25.8953 3.69447 24.7717 2.89428 23.4437 2.89428H20.8218C20.4302 1.24284 18.949 0 17.1784 0C15.4078 0 13.9266 1.24284 13.5521 2.89428H10.9472C9.61924 2.89428 8.49557 3.69447 7.98482 4.81813H7.04843C3.28586 4.81813 0 7.89969 0 11.4239V33.5567C0 37.0809 3.30289 40.1624 7.04843 40.1624H27.7851C31.4285 40.1624 34.3909 37.2001 34.3909 33.5567V11.4239C34.3909 7.78051 31.4285 4.81813 27.7851 4.81813ZM10.9472 4.56275H14.3012C14.7608 4.56275 15.1354 4.1882 15.1354 3.72852C15.1354 2.60486 16.0548 1.68549 17.1784 1.68549C18.3021 1.68549 19.2214 2.60486 19.2214 3.72852C19.2214 4.1882 19.596 4.56275 20.0557 4.56275H23.4267C24.295 4.56275 24.993 5.26079 24.993 6.12907C24.993 6.99736 24.295 7.69539 23.4267 7.69539H10.9472C10.0789 7.69539 9.38088 6.99736 9.38088 6.12907C9.36386 5.26079 10.0789 4.56275 10.9472 4.56275ZM32.7224 33.5737C32.7224 36.2977 30.5092 38.511 27.7851 38.511H7.04843C4.1882 38.511 1.66847 36.1956 1.66847 33.5737V11.4409C1.66847 8.81905 4.1882 6.50363 7.04843 6.50363H7.72944C7.91672 8.12102 9.27873 9.39791 10.9472 9.39791H23.4607C25.1292 9.39791 26.4912 8.13804 26.6615 6.50363H27.7851C30.5092 6.50363 32.7224 8.7169 32.7224 11.4409V33.5737Z" fill="#005FE5"/>
</svg>
