<svg width="26" height="26" viewBox="0 0 26 26" fill="none" xmlns="http://www.w3.org/2000/svg">
<rect width="26" height="26" fill="#F0F0F0"/>
<mask id="path-1-inside-1_2717_1182" fill="white">
<path d="M12.9866 14.3252L6.94755 20.3646C6.75181 20.5601 6.54111 20.6543 6.31545 20.6473C6.09003 20.64 5.87486 20.534 5.66993 20.3293C5.46523 20.1243 5.36289 19.9055 5.36289 19.6728C5.36289 19.4401 5.46523 19.2212 5.66993 19.0163L11.674 13.0126L5.63459 6.97352C5.43909 6.77778 5.34487 6.56119 5.35193 6.32375C5.35923 6.08655 5.46523 5.86549 5.66993 5.66056C5.87486 5.45586 6.09368 5.35352 6.32641 5.35352C6.55913 5.35352 6.77796 5.45586 6.98289 5.66056L12.9866 11.7L19.0257 5.66056C19.2214 5.46505 19.438 5.36494 19.6754 5.36023C19.9126 5.35575 20.1337 5.45586 20.3386 5.66056C20.5433 5.86549 20.6457 6.08431 20.6457 6.31704C20.6457 6.54976 20.5433 6.76859 20.3386 6.97352L14.2992 13.0126L20.3386 19.0516C20.5341 19.2474 20.6343 19.4581 20.639 19.6837C20.6434 19.9092 20.5433 20.1243 20.3386 20.3293C20.1337 20.534 19.9149 20.6363 19.6822 20.6363C19.4494 20.6363 19.2306 20.534 19.0257 20.3293L12.9866 14.3252Z"/>
</mask>
<path d="M12.9866 14.3252L6.94755 20.3646C6.75181 20.5601 6.54111 20.6543 6.31545 20.6473C6.09003 20.64 5.87486 20.534 5.66993 20.3293C5.46523 20.1243 5.36289 19.9055 5.36289 19.6728C5.36289 19.4401 5.46523 19.2212 5.66993 19.0163L11.674 13.0126L5.63459 6.97352C5.43909 6.77778 5.34487 6.56119 5.35193 6.32375C5.35923 6.08655 5.46523 5.86549 5.66993 5.66056C5.87486 5.45586 6.09368 5.35352 6.32641 5.35352C6.55913 5.35352 6.77796 5.45586 6.98289 5.66056L12.9866 11.7L19.0257 5.66056C19.2214 5.46505 19.438 5.36494 19.6754 5.36023C19.9126 5.35575 20.1337 5.45586 20.3386 5.66056C20.5433 5.86549 20.6457 6.08431 20.6457 6.31704C20.6457 6.54976 20.5433 6.76859 20.3386 6.97352L14.2992 13.0126L20.3386 19.0516C20.5341 19.2474 20.6343 19.4581 20.639 19.6837C20.6434 19.9092 20.5433 20.1243 20.3386 20.3293C20.1337 20.534 19.9149 20.6363 19.6822 20.6363C19.4494 20.6363 19.2306 20.534 19.0257 20.3293L12.9866 14.3252Z" fill="black"/>
<path d="M12.9866 14.3252L14.3967 12.9069L12.9825 11.5008L11.5724 12.911L12.9866 14.3252ZM6.94755 20.3646L8.36092 21.7797L8.36181 21.7788L6.94755 20.3646ZM6.31545 20.6473L6.2507 22.6462L6.25285 22.6463L6.31545 20.6473ZM5.66993 20.3293L4.2549 21.7427L4.25653 21.7443L5.66993 20.3293ZM5.66993 19.0163L4.25575 17.6021L4.2549 17.6029L5.66993 19.0163ZM11.674 13.0126L13.0882 14.4268L14.5025 13.0126L13.0882 11.5983L11.674 13.0126ZM5.63459 6.97352L4.21953 8.38688L4.22042 8.38777L5.63459 6.97352ZM5.35193 6.32375L3.35288 6.26221L3.35282 6.26425L5.35193 6.32375ZM5.66993 5.66056L4.25653 4.24553L4.2549 4.24716L5.66993 5.66056ZM6.98289 5.66056L8.40129 4.25053L8.39629 4.24553L6.98289 5.66056ZM12.9866 11.7L11.5682 13.11L12.9825 14.5326L14.4009 13.1141L12.9866 11.7ZM19.0257 5.66056L17.6123 4.24549L17.6114 4.24638L19.0257 5.66056ZM19.6754 5.36023L19.6377 3.36058L19.6358 3.36062L19.6754 5.36023ZM20.3386 5.66056L21.7537 4.24716L21.752 4.24553L20.3386 5.66056ZM20.3386 6.97352L21.7528 8.38778L21.7537 8.38692L20.3386 6.97352ZM14.2992 13.0126L12.8851 11.5983L11.4707 13.0126L12.8851 14.4268L14.2992 13.0126ZM20.3386 19.0516L21.7537 17.6383L21.7528 17.6374L20.3386 19.0516ZM20.639 19.6837L22.6386 19.644L22.6385 19.642L20.639 19.6837ZM20.3386 20.3293L21.752 21.7443L21.7537 21.7427L20.3386 20.3293ZM19.0257 20.3293L20.4391 18.9142L20.4358 18.911L19.0257 20.3293ZM11.5724 12.911L5.5333 18.9504L8.36181 21.7788L14.4009 15.7394L11.5724 12.911ZM5.53419 18.9495C5.57527 18.9085 5.66999 18.826 5.82628 18.7561C5.9907 18.6826 6.18164 18.6421 6.37805 18.6482L6.25285 22.6463C7.15058 22.6744 7.86926 22.2707 8.36092 21.7797L5.53419 18.9495ZM6.38021 18.6483C6.56982 18.6545 6.73759 18.7035 6.86881 18.7682C6.99313 18.8294 7.06222 18.8932 7.08333 18.9142L4.25653 21.7443C4.71482 22.2021 5.38597 22.6182 6.2507 22.6462L6.38021 18.6483ZM7.08495 18.9159C7.11492 18.9459 7.18673 19.0261 7.25129 19.1641C7.31932 19.3096 7.36289 19.4851 7.36289 19.6728H3.36289C3.36289 20.5585 3.77253 21.2597 4.2549 21.7427L7.08495 18.9159ZM7.36289 19.6728C7.36289 19.8605 7.31932 20.036 7.25129 20.1814C7.18673 20.3195 7.11492 20.3997 7.08495 20.4297L4.2549 17.6029C3.77253 18.0858 3.36289 18.7871 3.36289 19.6728H7.36289ZM7.0841 20.4306L13.0882 14.4268L10.2598 11.5983L4.25575 17.6021L7.0841 20.4306ZM13.0882 11.5983L7.04877 5.55926L4.22042 8.38777L10.2598 14.4268L13.0882 11.5983ZM7.04966 5.56016C7.09905 5.60961 7.18297 5.70943 7.25128 5.86645C7.32237 6.02987 7.35623 6.20926 7.35105 6.38325L3.35282 6.26425C3.32664 7.1437 3.70475 7.87148 4.21953 8.38688L7.04966 5.56016ZM7.35099 6.38529C7.34578 6.55441 7.30367 6.71263 7.24031 6.84476C7.17984 6.97088 7.11386 7.04501 7.08495 7.07396L4.2549 4.24716C3.77428 4.72833 3.37913 5.40946 3.35288 6.26221L7.35099 6.38529ZM7.08333 7.07558C7.05333 7.10555 6.9731 7.17736 6.83506 7.24192C6.6896 7.30996 6.5141 7.35352 6.32641 7.35352V3.35352C5.4407 3.35352 4.73945 3.76316 4.25653 4.24553L7.08333 7.07558ZM6.32641 7.35352C6.13872 7.35352 5.96322 7.30996 5.81775 7.24192C5.67972 7.17736 5.59949 7.10555 5.56949 7.07558L8.39629 4.24553C7.91336 3.76316 7.21212 3.35352 6.32641 3.35352V7.35352ZM5.56449 7.07057L11.5682 13.11L14.405 10.29L8.40129 4.25054L5.56449 7.07057ZM14.4009 13.1141L20.4399 7.07473L17.6114 4.24638L11.5724 10.2858L14.4009 13.1141ZM20.439 7.07562C20.3966 7.118 20.3103 7.19133 20.174 7.2543C20.0327 7.31964 19.8741 7.35668 19.7151 7.35984L19.6358 3.36062C18.7975 3.37726 18.1087 3.74974 17.6123 4.24549L20.439 7.07562ZM19.7132 7.35987C19.5276 7.36337 19.348 7.32353 19.1941 7.25385C19.0478 7.1876 18.9607 7.11104 18.9252 7.07558L21.752 4.24553C21.2537 3.74778 20.5342 3.34367 19.6377 3.36058L19.7132 7.35987ZM18.9236 7.07396C18.8936 7.04396 18.8218 6.96373 18.7573 6.82569C18.6892 6.68022 18.6457 6.50473 18.6457 6.31704H22.6457C22.6457 5.43133 22.236 4.73009 21.7537 4.24716L18.9236 7.07396ZM18.6457 6.31704C18.6457 6.12935 18.6892 5.95385 18.7573 5.80839C18.8218 5.67035 18.8936 5.59012 18.9236 5.56012L21.7537 8.38692C22.236 7.90399 22.6457 7.20274 22.6457 6.31704H18.6457ZM18.9245 5.55926L12.8851 11.5983L15.7134 14.4268L21.7528 8.38777L18.9245 5.55926ZM12.8851 14.4268L18.9245 20.4659L21.7528 17.6374L15.7134 11.5983L12.8851 14.4268ZM18.9236 20.465C18.8894 20.4308 18.818 20.3497 18.7539 20.2148C18.6867 20.0734 18.6432 19.905 18.6394 19.7255L22.6385 19.642C22.6207 18.7899 22.2267 18.1118 21.7537 17.6383L18.9236 20.465ZM18.6394 19.7234C18.6352 19.5153 18.6823 19.3244 18.7539 19.1705C18.8214 19.0255 18.8961 18.9434 18.9236 18.9159L21.7537 21.7427C22.2275 21.2683 22.6567 20.557 22.6386 19.644L18.6394 19.7234ZM18.9252 18.9142C18.9552 18.8843 19.0355 18.8125 19.1735 18.7479C19.319 18.6799 19.4945 18.6363 19.6822 18.6363V22.6363C20.5679 22.6363 21.2691 22.2267 21.752 21.7443L18.9252 18.9142ZM19.6822 18.6363C19.8699 18.6363 20.0453 18.6799 20.1908 18.7479C20.3288 18.8125 20.4091 18.8843 20.4391 18.9142L17.6123 21.7443C18.0952 22.2267 18.7964 22.6363 19.6822 22.6363V18.6363ZM20.4358 18.911L14.3967 12.9069L11.5765 15.7435L17.6156 21.7476L20.4358 18.911Z" fill="black" mask="url(#path-1-inside-1_2717_1182)"/>
</svg>
