<svg width="26" height="26" viewBox="0 0 26 26" fill="none" xmlns="http://www.w3.org/2000/svg">
<rect width="26" height="26" fill="#F0F0F0"/>
<mask id="path-1-inside-1_2672_2116" fill="white">
<path d="M12.9866 14.3232L6.94755 20.3626C6.75181 20.5582 6.54111 20.6524 6.31545 20.6453C6.09003 20.638 5.87486 20.532 5.66993 20.3273C5.46523 20.1224 5.36289 19.9036 5.36289 19.6708C5.36289 19.4381 5.46523 19.2193 5.66993 19.0144L11.674 13.0106L5.63459 6.97157C5.43909 6.77582 5.34487 6.55923 5.35193 6.3218C5.35923 6.0846 5.46523 5.86353 5.66993 5.6586C5.87486 5.45391 6.09368 5.35156 6.32641 5.35156C6.55913 5.35156 6.77796 5.45391 6.98289 5.6586L12.9866 11.698L19.0257 5.6586C19.2214 5.4631 19.438 5.36299 19.6754 5.35828C19.9126 5.3538 20.1337 5.45391 20.3386 5.6586C20.5433 5.86353 20.6457 6.08236 20.6457 6.31509C20.6457 6.54781 20.5433 6.76664 20.3386 6.97157L14.2992 13.0106L20.3386 19.0497C20.5341 19.2454 20.6343 19.4561 20.639 19.6818C20.6434 19.9072 20.5433 20.1224 20.3386 20.3273C20.1337 20.532 19.9149 20.6344 19.6822 20.6344C19.4494 20.6344 19.2306 20.532 19.0257 20.3273L12.9866 14.3232Z"/>
</mask>
<path d="M12.9866 14.3232L6.94755 20.3626C6.75181 20.5582 6.54111 20.6524 6.31545 20.6453C6.09003 20.638 5.87486 20.532 5.66993 20.3273C5.46523 20.1224 5.36289 19.9036 5.36289 19.6708C5.36289 19.4381 5.46523 19.2193 5.66993 19.0144L11.674 13.0106L5.63459 6.97157C5.43909 6.77582 5.34487 6.55923 5.35193 6.3218C5.35923 6.0846 5.46523 5.86353 5.66993 5.6586C5.87486 5.45391 6.09368 5.35156 6.32641 5.35156C6.55913 5.35156 6.77796 5.45391 6.98289 5.6586L12.9866 11.698L19.0257 5.6586C19.2214 5.4631 19.438 5.36299 19.6754 5.35828C19.9126 5.3538 20.1337 5.45391 20.3386 5.6586C20.5433 5.86353 20.6457 6.08236 20.6457 6.31509C20.6457 6.54781 20.5433 6.76664 20.3386 6.97157L14.2992 13.0106L20.3386 19.0497C20.5341 19.2454 20.6343 19.4561 20.639 19.6818C20.6434 19.9072 20.5433 20.1224 20.3386 20.3273C20.1337 20.532 19.9149 20.6344 19.6822 20.6344C19.4494 20.6344 19.2306 20.532 19.0257 20.3273L12.9866 14.3232Z" fill="black"/>
<path d="M12.9866 14.3232L14.3967 12.9049L12.9825 11.4989L11.5724 12.9091L12.9866 14.3232ZM6.94755 20.3626L8.36092 21.7777L8.36181 21.7768L6.94755 20.3626ZM6.31545 20.6453L6.2507 22.6443L6.25285 22.6443L6.31545 20.6453ZM5.66993 20.3273L4.2549 21.7407L4.25653 21.7423L5.66993 20.3273ZM5.66993 19.0144L4.25575 17.6001L4.2549 17.601L5.66993 19.0144ZM11.674 13.0106L13.0882 14.4249L14.5025 13.0106L13.0882 11.5964L11.674 13.0106ZM5.63459 6.97157L4.21953 8.38493L4.22042 8.38582L5.63459 6.97157ZM5.35193 6.3218L3.35288 6.26026L3.35282 6.2623L5.35193 6.3218ZM5.66993 5.6586L4.25653 4.24358L4.2549 4.2452L5.66993 5.6586ZM6.98289 5.6586L8.40129 4.24858L8.39629 4.24358L6.98289 5.6586ZM12.9866 11.698L11.5682 13.108L12.9825 14.5307L14.4009 13.1122L12.9866 11.698ZM19.0257 5.6586L17.6123 4.24354L17.6114 4.24443L19.0257 5.6586ZM19.6754 5.35828L19.6377 3.35863L19.6358 3.35867L19.6754 5.35828ZM20.3386 5.6586L21.7537 4.2452L21.752 4.24358L20.3386 5.6586ZM20.3386 6.97157L21.7528 8.38582L21.7537 8.38497L20.3386 6.97157ZM14.2992 13.0106L12.8851 11.5964L11.4707 13.0106L12.8851 14.4249L14.2992 13.0106ZM20.3386 19.0497L21.7537 17.6363L21.7528 17.6354L20.3386 19.0497ZM20.639 19.6818L22.6386 19.6421L22.6385 19.64L20.639 19.6818ZM20.3386 20.3273L21.752 21.7423L21.7537 21.7407L20.3386 20.3273ZM19.0257 20.3273L20.4391 18.9123L20.4358 18.909L19.0257 20.3273ZM11.5724 12.9091L5.5333 18.9485L8.36181 21.7768L14.4009 15.7374L11.5724 12.9091ZM5.53419 18.9476C5.57527 18.9066 5.66999 18.8241 5.82628 18.7542C5.9907 18.6807 6.18164 18.6401 6.37805 18.6463L6.25285 22.6443C7.15058 22.6724 7.86926 22.2688 8.36092 21.7777L5.53419 18.9476ZM6.38021 18.6464C6.56982 18.6525 6.73759 18.7016 6.86881 18.7662C6.99313 18.8274 7.06222 18.8912 7.08333 18.9123L4.25653 21.7423C4.71482 22.2001 5.38597 22.6163 6.2507 22.6443L6.38021 18.6464ZM7.08495 18.9139C7.11492 18.9439 7.18673 19.0241 7.25129 19.1622C7.31932 19.3076 7.36289 19.4831 7.36289 19.6708H3.36289C3.36289 20.5565 3.77253 21.2578 4.2549 21.7407L7.08495 18.9139ZM7.36289 19.6708C7.36289 19.8585 7.31932 20.034 7.25129 20.1795C7.18673 20.3175 7.11492 20.3978 7.08495 20.4278L4.2549 17.601C3.77253 18.0839 3.36289 18.7851 3.36289 19.6708H7.36289ZM7.0841 20.4286L13.0882 14.4249L10.2598 11.5964L4.25575 17.6001L7.0841 20.4286ZM13.0882 11.5964L7.04877 5.55731L4.22042 8.38582L10.2598 14.4249L13.0882 11.5964ZM7.04966 5.55821C7.09905 5.60765 7.18297 5.70747 7.25128 5.8645C7.32237 6.02792 7.35623 6.20731 7.35105 6.3813L3.35282 6.2623C3.32664 7.14175 3.70475 7.86953 4.21953 8.38493L7.04966 5.55821ZM7.35099 6.38334C7.34578 6.55245 7.30367 6.71068 7.24031 6.84281C7.17984 6.96892 7.11386 7.04306 7.08495 7.072L4.2549 4.2452C3.77428 4.72638 3.37913 5.4075 3.35288 6.26026L7.35099 6.38334ZM7.08333 7.07363C7.05333 7.1036 6.9731 7.17541 6.83506 7.23997C6.6896 7.308 6.5141 7.35156 6.32641 7.35156V3.35156C5.4407 3.35156 4.73945 3.7612 4.25653 4.24358L7.08333 7.07363ZM6.32641 7.35156C6.13872 7.35156 5.96322 7.308 5.81775 7.23997C5.67972 7.17541 5.59949 7.1036 5.56949 7.07363L8.39629 4.24358C7.91336 3.7612 7.21212 3.35156 6.32641 3.35156V7.35156ZM5.56449 7.06862L11.5682 13.108L14.405 10.288L8.40129 4.24859L5.56449 7.06862ZM14.4009 13.1122L20.4399 7.07278L17.6114 4.24443L11.5724 10.2838L14.4009 13.1122ZM20.439 7.07367C20.3966 7.11605 20.3103 7.18937 20.174 7.25235C20.0327 7.31769 19.8741 7.35473 19.7151 7.35788L19.6358 3.35867C18.7975 3.3753 18.1087 3.74779 17.6123 4.24354L20.439 7.07367ZM19.7132 7.35792C19.5276 7.36142 19.348 7.32158 19.1941 7.2519C19.0478 7.18565 18.9607 7.10909 18.9252 7.07363L21.752 4.24358C21.2537 3.74583 20.5342 3.34172 19.6377 3.35863L19.7132 7.35792ZM18.9236 7.072C18.8936 7.042 18.8218 6.96177 18.7573 6.82374C18.6892 6.67827 18.6457 6.50278 18.6457 6.31509H22.6457C22.6457 5.42938 22.236 4.72813 21.7537 4.2452L18.9236 7.072ZM18.6457 6.31509C18.6457 6.1274 18.6892 5.9519 18.7573 5.80643C18.8218 5.6684 18.8936 5.58817 18.9236 5.55817L21.7537 8.38497C22.236 7.90204 22.6457 7.20079 22.6457 6.31509H18.6457ZM18.9245 5.55731L12.8851 11.5964L15.7134 14.4249L21.7528 8.38582L18.9245 5.55731ZM12.8851 14.4249L18.9245 20.4639L21.7528 17.6354L15.7134 11.5964L12.8851 14.4249ZM18.9236 20.463C18.8894 20.4288 18.818 20.3478 18.7539 20.2128C18.6867 20.0715 18.6432 19.903 18.6394 19.7235L22.6385 19.64C22.6207 18.7879 22.2267 18.1099 21.7537 17.6363L18.9236 20.463ZM18.6394 19.7215C18.6352 19.5134 18.6823 19.3225 18.7539 19.1686C18.8214 19.0236 18.8961 18.9414 18.9236 18.9139L21.7537 21.7407C22.2275 21.2664 22.6567 20.5551 22.6386 19.6421L18.6394 19.7215ZM18.9252 18.9123C18.9552 18.8823 19.0355 18.8105 19.1735 18.746C19.319 18.6779 19.4945 18.6344 19.6822 18.6344V22.6344C20.5679 22.6344 21.2691 22.2247 21.752 21.7423L18.9252 18.9123ZM19.6822 18.6344C19.8699 18.6344 20.0453 18.6779 20.1908 18.746C20.3288 18.8105 20.4091 18.8823 20.4391 18.9123L17.6123 21.7423C18.0952 22.2247 18.7964 22.6344 19.6822 22.6344V18.6344ZM20.4358 18.909L14.3967 12.9049L11.5765 15.7416L17.6156 21.7456L20.4358 18.909Z" fill="black" mask="url(#path-1-inside-1_2672_2116)"/>
</svg>
