<svg width="30" height="39" viewBox="0 0 30 39" fill="none" xmlns="http://www.w3.org/2000/svg">
<path d="M0 19.5V39H14.8729H29.7458V24.9038V10.8242L24.4081 5.42034L19.0703 0H9.53517H0V19.5ZM18.0292 6.74237V11.9479H23.1191H28.2089V24.7055V37.4631H14.8729H1.53686V19.5V1.53686H9.78305H18.0292V6.74237ZM23.747 6.9572L27.1513 10.411H23.3669H19.5826V6.57712V2.74322L19.9792 3.12331C20.1775 3.33814 21.8797 5.05678 23.747 6.9572Z" fill="#005FE5"/>
<path d="M4.08203 5.70126V6.47795H9.5189H14.9558V5.70126V4.92456H9.5189H4.08203V5.70126Z" fill="#005FE5"/>
<path d="M4.08203 11.1712V11.9479H9.5189H14.9558V11.1712V10.411H9.5189H4.08203V11.1712Z" fill="#005FE5"/>
<path d="M4.08203 16.6412V17.4178H14.8731H25.6642L25.6477 16.6577L25.6312 15.914L14.8566 15.8975L4.08203 15.881V16.6412Z" fill="#005FE5"/>
<path d="M4.08203 22.1937V22.9704H14.8731H25.6642V22.1937V21.417H14.8731H4.08203V22.1937Z" fill="#005FE5"/>
<path d="M4.08203 27.6635V28.4402H14.8731H25.6642V27.6635V26.8868H14.8731H4.08203V27.6635Z" fill="#005FE5"/>
<path d="M4.08203 33.2161V33.9928L14.8566 33.9763L25.6312 33.9597L25.6477 33.1996L25.6642 32.4559H14.8731H4.08203V33.2161Z" fill="#005FE5"/>
</svg>
