<svg width="352" height="331" viewBox="0 0 352 331" fill="none" xmlns="http://www.w3.org/2000/svg">
<path d="M77.1014 318.302C75.424 315.595 60.3843 301.168 60.3843 301.168C60.3843 301.168 57.3094 303.58 57.4578 306.234C57.6 308.759 57.4938 322.061 57.5306 323.462H59.3564L60.3843 317.394C60.3843 317.394 64.5423 324.046 67.6636 326.323C70.7858 328.602 81.334 328.192 83.8646 327.854C86.3953 327.517 78.7788 321.007 77.1014 318.302Z" fill="#14130F"/>
<path d="M60.3446 294.012L60.5851 300.522C60.5851 300.522 59.7416 302.462 60.5851 305.331C61.4296 308.199 64.6238 312.753 67.6723 316.13C70.3021 319.044 75.9391 321.952 77.6271 321.193C79.3142 320.434 74.4215 314.612 72.9872 311.575C71.5529 308.539 70.5619 305.541 69.8799 303.026C69.0934 300.128 68.9845 293.312 68.9845 293.312L60.3446 294.012Z" fill="#C9614E"/>
<path d="M58.1034 209.149C58.1034 209.149 54.6318 220.213 56.4356 239.864C57.79 254.619 57.9261 275.069 57.9111 284.345C57.9111 284.626 57.9112 284.893 57.9094 285.152C57.9076 285.845 57.9067 286.778 57.9076 287.773C57.9067 288.037 57.9067 288.31 57.9067 288.581C57.9067 291.099 57.9076 293.709 57.9076 293.709L71.7316 295.092C71.7316 295.092 71.9643 292.86 72.2258 290.52C72.2566 290.256 72.2864 289.989 72.3171 289.724C72.4216 288.798 72.5287 287.899 72.6252 287.146C72.6586 286.89 72.6928 286.626 72.727 286.35C74.8205 269.908 81.2309 222.621 81.2616 208.712C81.2625 208.275 81.2564 207.871 81.2458 207.502C81.2441 207.462 81.2423 207.421 81.2406 207.383C80.8965 198.107 77.546 156.116 74.1192 142.585C71.6755 132.946 49.3169 138.567 49.3169 138.567C49.3169 138.567 54.0788 180.016 56.6656 191.268C60.0538 206.019 58.1034 209.149 58.1034 209.149Z" fill="#1E51A4"/>
<path d="M70.8442 208.497C71.0461 208.529 73.9437 209.002 77.2555 209.002C78.573 209.002 79.9573 208.927 81.2616 208.718C81.2625 208.281 81.2564 207.876 81.2458 207.507C76.8105 208.253 71.1076 207.324 71.0391 207.313C70.7126 207.257 70.4062 207.479 70.3527 207.808C70.2983 208.135 70.5186 208.442 70.8442 208.497Z" fill="#273372"/>
<path d="M57.9012 288.581L72.2221 290.52C72.2511 290.256 72.2809 289.989 72.3125 289.725L57.9021 287.773C57.9012 288.037 57.9012 288.31 57.9012 288.581Z" fill="#14130F"/>
<path d="M52.7534 151.432C52.993 151.392 53.2186 151.555 53.259 151.795C53.3266 152.209 60.0608 193.216 62.7319 203.342C62.7477 203.404 62.7503 203.466 62.7398 203.529C62.7152 203.678 60.2416 218.534 60.5971 228.828C60.9403 238.748 61.1238 284.536 61.1405 288.373C60.8473 288.368 60.5954 288.39 60.3022 288.373C60.2838 284.306 60.0582 238.734 59.7167 228.857C59.3744 218.905 61.6452 204.767 61.8567 203.476C59.1585 193.157 52.4575 152.351 52.39 151.937C52.3505 151.697 52.5137 151.471 52.7534 151.432Z" fill="#14130F"/>
<path d="M53.4723 165.083C52.8315 165.247 52.1872 165.4 51.5412 165.548C43.2708 167.438 34.5905 168.205 28.5163 166.753C25.5179 166.037 23.5999 162.36 22.3798 158.254C22.0463 157.133 21.6039 156.004 21.5284 154.844C20.7849 143.435 23.5912 138.594 23.5912 138.594L68.3101 133.598C68.3101 133.598 69.7962 136.34 71.4455 139.914C72.6402 142.502 73.9208 145.525 74.7863 148.26C74.789 148.262 74.7889 148.266 74.7916 148.268C75.3068 149.903 75.6746 151.436 75.7843 152.707C76.139 156.773 65.5056 162.056 53.4723 165.083Z" fill="#1E51A4"/>
<path d="M3.62901 298.82C3.62901 298.82 0.211857 300.211 0.0854568 305.02C-0.0409431 309.829 0.00996971 324.096 0.00996971 324.096L1.41527 324.146L2.77495 317.857C2.77495 317.857 3.37709 322.61 5.7813 325.648C8.18552 328.686 13.3732 328.812 16.7903 328.305C20.2084 327.799 17.6769 321.473 16.2847 317.928C14.8926 314.384 11.981 305.907 11.981 305.907L3.62901 298.82Z" fill="#14130F"/>
<path d="M6.30029 288.379C6.30029 288.379 4.4947 296.696 3.63097 298.821C3.09202 300.146 1.22676 303.122 2.23883 307.172C3.2509 311.222 3.92591 317.128 6.288 319.66C8.65008 322.189 14.8094 322.275 15.315 320.25C15.8206 318.225 12.1928 310.716 12.0251 306.835C11.8566 302.953 14.1142 290.553 14.1142 290.553L6.30029 288.379Z" fill="#C9614E"/>
<path d="M3.31071 291.328L16.2157 294.596C16.2157 294.596 16.9548 292.348 17.6201 290.388C17.7106 290.126 17.7975 289.872 17.8826 289.626C18.0055 289.269 18.1205 288.937 18.224 288.645C18.3092 288.404 18.3987 288.151 18.4926 287.888C23.2844 274.345 39.0755 229.365 41.6254 217.568C41.7641 216.922 41.909 216.218 42.0599 215.457C42.1328 215.071 42.2118 214.67 42.2882 214.258C44.7547 201.191 48.1455 175.295 48.4677 160.921C48.5467 157.475 48.4843 154.696 48.2421 152.924C48.1473 152.212 47.9235 151.57 47.5943 150.987C43.3441 143.478 21.3077 146.013 21.3077 146.013C21.3077 146.013 21.2717 147.226 21.2085 149.291C20.9127 159.528 20.1683 189.982 19.5679 199.571C18.8385 211.145 16.989 215.355 16.989 215.355C16.989 215.355 12.8293 226.214 10.3856 245.799C8.56857 260.363 5.21898 276.912 4.31926 284.495C4.28415 284.774 4.2552 285.042 4.22272 285.299C4.18497 285.61 4.14108 285.957 4.08841 286.328C4.05505 286.585 4.01556 286.853 3.97606 287.123C3.68201 289.119 3.31071 291.328 3.31071 291.328Z" fill="#1E51A4"/>
<path d="M31.8944 213.582C32.0901 213.646 34.8744 214.575 38.1441 215.101C39.4196 215.306 40.7678 215.45 42.0669 215.461C42.1415 215.074 42.2188 214.673 42.2969 214.261C37.8062 214.285 32.3429 212.466 32.278 212.446C31.9646 212.34 31.624 212.509 31.5213 212.823C31.4134 213.137 31.5819 213.476 31.8944 213.582Z" fill="#273372"/>
<path d="M3.98145 287.123L4.75301 287.309L5.48506 287.483L17.6282 290.39C17.7186 290.127 17.8055 289.873 17.8906 289.627L5.75716 286.726L4.87588 286.513L4.0938 286.328C4.06044 286.584 4.02095 286.852 3.98145 287.123Z" fill="#273372"/>
<path d="M26.0835 165.379C25.8878 165.379 25.7114 165.242 25.6649 165.043C25.6104 164.811 25.7561 164.58 25.9861 164.526C26.0256 164.518 28.4755 163.923 30.9771 161.868C34.3311 159.111 36.1893 155.168 36.4983 150.148C36.5132 149.91 36.7178 149.728 36.9548 149.743C37.1917 149.759 37.3734 149.963 37.3585 150.2C36.953 156.785 33.944 160.555 31.4915 162.56C28.8301 164.736 26.2881 165.341 26.181 165.365C26.1485 165.374 26.116 165.379 26.0835 165.379Z" fill="#14130F"/>
<path d="M6.72443 284.591C6.66738 284.92 6.63489 285.105 6.63226 285.129C6.6147 285.221 6.27062 287.138 6.30748 287.217L7.08432 287.421C7.13962 287.363 7.48194 285.365 7.49862 285.278C7.503 285.256 7.53549 285.06 7.5943 284.722C8.38254 280.141 13.7852 248.715 15.2248 238.711C16.5563 229.488 21.7361 211.919 21.7896 211.742C21.7984 211.711 21.8037 211.682 21.8072 211.65C23.0299 194.222 25.8028 149.522 25.8309 149.072C25.8484 148.829 25.6624 148.62 25.4192 148.606C25.1769 148.591 24.968 148.774 24.954 149.018C24.9259 149.468 22.1557 194.085 20.9329 211.539C20.6336 212.556 15.6619 229.535 14.3567 238.586C12.9118 248.593 7.50126 280.076 6.72443 284.591Z" fill="#14130F"/>
<path d="M52.3249 165.357C52.1661 165.357 52.0133 165.271 51.9352 165.12C51.822 164.906 51.9054 164.64 52.1204 164.525C52.1862 164.491 56.8446 161.967 57.775 156.476C57.8154 156.238 58.0427 156.075 58.2824 156.116C58.5211 156.157 58.6826 156.385 58.6423 156.623C57.6346 162.568 52.7357 165.197 52.5286 165.307C52.4627 165.341 52.3934 165.357 52.3249 165.357Z" fill="#14130F"/>
<path d="M23.9963 98.3559C25.3875 107.657 24.9732 106.52 20.8468 124.973C20.8468 124.973 20.0305 130.673 19.1317 137.974C18.1363 146.058 15.0272 156.543 21.1699 158.088C25.4446 159.162 32.465 159.858 40.3606 159.686L41.162 149.3L66.0029 145.153C66.0029 145.153 66.8526 150.633 66.9728 155.288C67.0044 155.278 67.0361 155.266 67.0685 155.256C72.4932 153.315 76.3273 150.937 76.8522 148.633C77.8168 144.388 75.9551 134.108 73.1515 122.158C73.0997 122.038 72.7065 120.512 72.5862 120.179C72.5098 119.972 72.4212 119.726 72.3246 119.443C71.7593 117.811 70.8491 114.97 69.8906 111.533C69.6887 110.807 69.4833 110.054 69.2814 109.28C68.7477 107.254 68.2193 105.084 67.7488 102.874C67.5697 102.041 67.4003 101.204 67.2406 100.366C67.0887 99.569 66.9474 98.772 66.8184 97.9767C66.6797 97.1402 66.5726 96.4029 66.4971 95.7814C66.4892 95.7305 66.4839 95.6814 66.4778 95.634C66.4664 95.5251 66.4532 95.418 66.4444 95.3162C66.4409 95.2969 66.4383 95.2776 66.4374 95.2592C66.4374 95.2592 66.5726 95.1257 66.8061 94.8773C66.8377 94.8431 66.8719 94.8054 66.9053 94.7667C67.9893 93.5931 70.6358 90.4604 71.5952 87.0046C72.5555 83.5523 69.7054 77.6651 67.6136 70.9159C67.5302 70.6464 67.4477 70.3726 67.3661 70.0996C66.8991 68.5266 66.4839 66.9115 66.1741 65.2745C64.4686 56.2554 64.8943 52.6925 50.7323 50.161L50.1188 50.1057L34.584 48.7109C34.584 48.7109 33.7255 49.0111 32.3728 49.479C29.5754 50.4498 24.6634 52.1448 20.9083 53.3965C12.3851 56.2387 12.9565 65.5422 16.5001 73.7985C17.3147 75.6901 18.0897 77.6537 18.813 79.6243C18.9105 79.8894 19.0097 80.1536 19.1018 80.4204C21.5201 87.131 23.3265 93.867 23.9963 98.3559Z" fill="#14130F"/>
<path d="M65.0123 66.9904C66.5018 71.4749 67.9923 75.9586 69.4827 80.4431C69.5802 80.738 69.1158 80.8644 69.0184 80.5713C67.5297 76.0867 66.0384 71.6031 64.5479 67.1177C64.4496 66.8236 64.9157 66.6981 65.0123 66.9904Z" fill="#5C554C"/>
<path d="M28.6468 119.528C30.1338 124.223 33.3315 128.235 37.5825 130.723C37.9846 130.959 38.3479 130.335 37.9468 130.1C33.8581 127.706 30.7746 123.854 29.3429 119.337C29.2033 118.896 28.5064 119.084 28.6468 119.528Z" fill="#5C554C"/>
<path d="M71.8995 120.611C71.8503 123.827 70.6373 126.984 68.3173 129.244C67.9838 129.568 68.4955 130.078 68.8282 129.754C71.2824 127.364 72.5693 124.012 72.621 120.611C72.6281 120.145 71.9065 120.145 71.8995 120.611Z" fill="#5C554C"/>
<path d="M54.0235 51.3699C56.5506 53.667 59.2068 55.814 61.7102 58.1366C61.7269 58.012 61.7427 57.8873 61.7585 57.7618C59.5895 58.9687 57.4697 60.2626 55.4051 61.6407C55.2752 61.7276 55.248 61.897 55.3569 62.0155C58.1043 64.9841 60.8535 67.9519 63.6018 70.9205C63.6018 70.8081 63.6018 70.6958 63.6018 70.5834C61.9086 72.023 60.1337 73.3659 58.5168 74.8933C58.293 75.1048 58.6309 75.4419 58.8548 75.2312C60.4716 73.7039 62.2456 72.36 63.9388 70.9214C64.0398 70.8353 64.0214 70.6721 63.9388 70.5843C61.1905 67.6157 58.4431 64.6479 55.6948 61.6793C55.6773 61.8039 55.6623 61.9295 55.6457 62.0541C57.7111 60.676 59.8309 59.3822 61.9989 58.1761C62.1297 58.1033 62.1596 57.904 62.0481 57.8013C59.5447 55.4787 56.8877 53.3317 54.3615 51.0346C54.1341 50.8256 53.7962 51.1627 54.0235 51.3699Z" fill="#5C554C"/>
<path d="M69.017 153.28C68.8529 153.28 68.7142 153.155 68.701 152.989C66.6058 128.01 58.4531 75.6359 58.3714 75.1101C58.3433 74.9363 58.4627 74.7731 58.6365 74.7458C58.8094 74.7195 58.9727 74.838 58.9999 75.0109C59.0815 75.5376 67.2378 127.934 69.3348 152.937C69.3497 153.11 69.2189 153.264 69.0451 153.278C69.0355 153.28 69.0258 153.28 69.017 153.28Z" fill="#5C554C"/>
<path d="M39.1908 77.3854C39.161 77.3854 39.1302 77.381 39.0995 77.3722L30.9143 74.9303C30.8283 74.9048 30.7572 74.8442 30.7186 74.7635C30.6791 74.6827 30.6773 74.5888 30.7107 74.5054L34.723 64.6674L26.9547 59.7852C26.8774 59.7369 26.8248 59.6579 26.8098 59.5684C26.7949 59.4788 26.8186 59.3867 26.8757 59.3165L32.9086 51.8141C33.0183 51.6772 33.2193 51.6553 33.3554 51.7659C33.4932 51.8756 33.5151 52.0766 33.4045 52.2126L27.5963 59.4367L35.2874 64.2706C35.4182 64.3531 35.4717 64.5172 35.4138 64.6603L31.4331 74.4212L39.2812 76.7622C39.4489 76.8122 39.5446 76.9895 39.4945 77.158C39.4542 77.2967 39.3277 77.3854 39.1908 77.3854Z" fill="#5C554C"/>
<path d="M38.2306 156.685C38.1218 156.685 38.0173 156.632 37.9444 156.536C37.84 156.396 37.8689 156.196 38.0094 156.09C38.0155 156.087 38.0217 156.081 38.0278 156.078C38.4851 154.393 39.0566 138.078 39.3427 118.319C39.5885 101.462 39.6122 80.5623 38.8757 77.1355C38.8398 76.9634 38.9486 76.794 39.1207 76.7571C39.2918 76.7203 39.4612 76.83 39.4981 77.0012C40.2565 80.5316 40.2258 101.855 39.9686 119.043C39.8272 128.522 39.6043 137.881 39.3568 144.719C38.9363 156.397 38.6493 156.526 38.3737 156.651C38.3263 156.675 38.278 156.685 38.2306 156.685Z" fill="#5C554C"/>
<path d="M67.3447 153.883C67.1867 153.883 67.0516 153.766 67.0296 153.607C67.0068 153.433 67.1288 153.273 67.3026 153.249C71.7634 152.649 76.2164 146.84 76.2602 146.782C76.3673 146.642 76.5666 146.615 76.707 146.72C76.8466 146.827 76.8729 147.027 76.7676 147.166C76.5798 147.414 72.1101 153.245 67.3868 153.88C67.3719 153.882 67.3588 153.883 67.3447 153.883Z" fill="#5C554C"/>
<path d="M32.802 156.978C28.4974 156.978 22.9042 156.366 18.0747 153.851C17.9185 153.768 17.8588 153.576 17.9404 153.421C18.0212 153.264 18.2134 153.205 18.3688 153.287C27.5389 158.061 39.5792 155.823 39.6995 155.798C39.8724 155.766 40.0392 155.879 40.0725 156.052C40.105 156.223 39.9927 156.39 39.8206 156.424C39.7601 156.437 36.8511 156.978 32.802 156.978Z" fill="#5C554C"/>
<path d="M32.373 49.4755C33.4684 50.7834 35.1423 54.025 36.9418 59.6463C37.0093 59.8499 37.0734 60.0597 37.1401 60.2703C37.8731 62.6158 38.6227 65.3553 39.3618 68.5179C39.4074 68.7128 39.4531 68.9085 39.497 69.1069C39.8823 70.7869 40.2632 72.5829 40.6381 74.5008C40.7337 74.9976 40.8259 75.5603 40.911 76.18C40.9339 76.345 40.9576 76.5144 40.9777 76.6899C41.3543 79.6665 41.6098 83.8464 41.7704 88.7733C41.7757 88.9349 41.7809 89.099 41.7853 89.2623C41.8511 91.3399 41.9021 93.5449 41.9363 95.8447C41.9389 96.0343 41.9416 96.2256 41.9451 96.417C42.0162 101.526 42.0197 107.084 41.9767 112.733C41.9758 112.913 41.974 113.095 41.9723 113.275C41.9539 115.458 41.9293 117.654 41.8985 119.84C41.8968 119.989 41.895 120.138 41.8915 120.285C41.8626 122.397 41.8266 124.498 41.7853 126.572C41.7818 126.742 41.7791 126.911 41.7756 127.08C41.7502 128.46 41.7204 129.824 41.6905 131.173C41.6852 131.355 41.6817 131.534 41.6773 131.717C41.5878 135.598 41.4869 139.321 41.3824 142.749C41.3763 142.924 41.371 143.099 41.3657 143.272C41.299 145.412 41.2305 147.43 41.1638 149.297C47.1818 149.198 53.1972 148.403 59.0318 147.059C61.3816 146.519 63.7068 145.879 66.0039 145.149C65.8512 143.732 65.6897 142.221 65.5159 140.636V140.636C65.4922 140.401 65.465 140.168 65.4413 139.931C65.0629 136.467 64.6451 132.664 64.1966 128.687C64.1729 128.466 64.1456 128.245 64.1211 128.023C63.7217 124.463 63.2977 120.772 62.8615 117.067V117.065C62.8237 116.741 62.7851 116.415 62.7465 116.092C62.7465 116.092 62.7465 116.092 62.7465 116.09C62.3331 112.579 61.9082 109.062 61.4825 105.638C61.4641 105.476 61.443 105.314 61.4228 105.153C60.9936 101.699 60.5617 98.3463 60.1369 95.1969C60.1106 94.9967 60.0842 94.7992 60.0561 94.6017C59.5084 90.5561 58.9765 86.8624 58.4753 83.7402C58.441 83.5278 58.4077 83.3171 58.3743 83.11C58.3524 82.9774 58.3304 82.8466 58.3094 82.7176C57.7423 79.275 57.163 76.1334 56.5872 73.2701C56.5556 73.113 56.5249 72.9568 56.4924 72.8005C55.4864 67.8613 54.4884 63.7683 53.5545 60.4073C53.5132 60.2589 53.472 60.1097 53.4298 59.9649C52.1333 55.3539 50.9721 52.1694 50.1171 50.1049L34.5832 48.711C34.5849 48.7075 33.7274 49.0068 32.373 49.4755Z" fill="white"/>
<path d="M36.948 59.6484C37.0156 59.8521 37.0797 60.0619 37.1464 60.2725C40.7049 61.792 44.6636 62.4986 48.4872 62.0325C50.2507 61.8183 52.0115 61.2723 53.5625 60.4059C53.5212 60.2576 53.48 60.1084 53.4379 59.9636C49.3009 62.3449 43.921 62.0035 39.5111 60.621C38.636 60.3463 37.7819 60.0206 36.948 59.6484Z" fill="#E2CEC3"/>
<path d="M39.3666 68.5156C39.4122 68.7105 39.4579 68.9062 39.5018 69.1046C44.3611 71.0901 49.5523 72.6069 54.7557 73.1599C55.3535 73.2222 55.9705 73.2591 56.5938 73.2644C56.5622 73.1073 56.5314 72.951 56.4989 72.7948C55.026 72.7474 53.5505 72.5367 52.118 72.2734C49.3723 71.7704 46.6583 71.077 44.0021 70.2167C42.4344 69.7103 40.8878 69.1415 39.3666 68.5156Z" fill="#E2CEC3"/>
<path d="M40.9136 76.1797C40.9364 76.3447 40.9601 76.5141 40.9803 76.6897C47.1247 78.1608 53.0365 80.551 58.4805 83.7382C58.4462 83.5258 58.4129 83.3151 58.3795 83.1079C52.9295 79.969 47.0282 77.6227 40.9136 76.1797Z" fill="#E2CEC3"/>
<path d="M41.7685 88.7734C41.7737 88.9349 41.779 89.0991 41.7834 89.2624C48.1569 90.3025 54.3627 92.3144 60.1367 95.1961C60.1104 94.996 60.084 94.7985 60.056 94.601C54.2916 91.7675 48.106 89.796 41.7685 88.7734Z" fill="#E2CEC3"/>
<path d="M52.0231 107.035C52.7472 108.427 53.8234 110.313 53.4337 111.932C52.9921 113.779 50.8293 114.087 49.2397 114.162C46.7292 114.283 44.2381 113.775 41.9752 112.732C41.9743 112.912 41.9726 113.094 41.9708 113.274C44.7253 114.51 47.8581 115.03 50.8047 114.488C58.4826 113.074 49.9682 102.504 47.2743 99.8973C45.661 98.3366 43.8633 96.9734 41.9348 95.8438C41.9375 96.0333 41.9401 96.2247 41.9436 96.4161C46.1762 98.9677 49.7391 102.644 52.0231 107.035Z" fill="#E2CEC3"/>
<path d="M58.6482 110.744C59.5005 112.459 60.7364 114.031 61.8301 115.597C62.1716 116.087 62.5157 116.575 62.8633 117.062C62.8255 116.738 62.7869 116.412 62.7483 116.089C62.7483 116.089 62.7483 116.089 62.7483 116.087C61.7678 114.695 60.811 113.287 59.8788 111.863C58.9642 110.468 57.8249 108.466 58.9861 106.875C59.5611 106.087 60.5231 105.729 61.4834 105.634C61.465 105.471 61.4439 105.31 61.4237 105.148C61.3228 105.16 61.2201 105.173 61.1165 105.189C60.0667 105.356 59.0318 105.852 58.4604 106.781C57.6923 108.028 58.039 109.516 58.6482 110.744Z" fill="#E2CEC3"/>
<path d="M41.8924 120.28C48.6293 121.217 55.2521 123.179 61.1226 126.665C62.1768 127.291 63.2056 127.962 64.1992 128.682C64.1755 128.462 64.1483 128.241 64.1237 128.019C57.5624 123.402 49.8608 120.949 41.8994 119.836C41.8977 119.983 41.8959 120.133 41.8924 120.28Z" fill="#E2CEC3"/>
<path d="M41.7776 127.079C42.1058 127.196 42.435 127.317 42.7615 127.44C51.0161 130.543 58.7291 135.028 65.5195 140.635C65.4958 140.4 65.4686 140.167 65.4449 139.93C58.385 134.181 50.3534 129.644 41.7872 126.57C41.7837 126.741 41.7811 126.909 41.7776 127.079Z" fill="#E2CEC3"/>
<path d="M41.3684 143.27C42.9036 143.878 44.4793 144.389 46.0777 144.8C47.4821 145.16 48.9708 145.569 50.434 145.542C51.461 145.522 52.6329 145.274 53.2482 144.367C54.061 143.171 53.4264 141.746 52.7048 140.68C49.9715 136.649 46.0619 133.39 41.6923 131.172C41.6871 131.354 41.6835 131.533 41.6792 131.715C43.1793 132.493 44.6136 133.397 45.9645 134.42C48.302 136.191 50.42 138.314 52.1238 140.705C53.0454 141.998 53.8301 144.066 51.8674 144.816C50.6789 145.27 49.3193 145.013 48.1185 144.768C45.8152 144.298 43.5611 143.619 41.3851 142.748C41.3781 142.922 41.3728 143.096 41.3684 143.27Z" fill="#E2CEC3"/>
<path d="M28.5944 107.946C25.1219 120.853 22.8854 133.863 21.7583 147.724C21.7381 147.971 21.5336 148.158 21.2896 148.158C21.2773 148.158 21.2641 148.158 21.2509 148.156C20.9902 148.135 20.798 147.908 20.82 147.647C21.9514 133.729 24.1967 120.663 27.6824 107.701C28.0563 106.316 28.1098 104.352 27.9352 102.023C27.8772 101.233 27.7903 100.4 27.6806 99.5356C27.5867 98.7869 27.4761 98.0135 27.3488 97.2183C27.3093 96.9611 27.2681 96.7022 27.2224 96.4397C25.0614 83.5382 19.2935 65.9863 19.2154 65.7458C19.1329 65.4974 19.2672 65.2305 19.5138 65.1489C19.7605 65.0673 20.0291 65.2016 20.1107 65.4491C20.4364 66.4366 26.098 83.6672 28.195 96.4985C28.2389 96.761 28.2793 97.0199 28.3196 97.2771C28.5005 98.4436 28.647 99.5672 28.7568 100.635C28.8691 101.742 28.9402 102.789 28.9613 103.755C28.9999 105.419 28.8902 106.847 28.5944 107.946Z" fill="#5C554C"/>
<path d="M38.0464 11.9447C38.0464 11.9447 39.2489 0.998022 28.3926 0.0359843C19.6992 -0.734699 15.4069 11.0231 21.0202 20.991C26.6327 30.959 20.2496 36.431 13.9779 33.1999C13.9779 33.1999 16.3145 39.103 25.1598 36.7918C34.0051 34.4797 38.0464 11.9447 38.0464 11.9447Z" fill="#14130F"/>
<path d="M26.6421 31.0531C27.9087 33.6013 29.8793 35.7536 32.1133 37.5065C38.7536 42.7143 44.4222 46.4124 52.1229 42.5853C54.449 41.3775 56.1107 38.4826 56.1546 38.4027C57.3387 36.2504 58.1383 31.9687 58.2357 28.2618C58.3323 24.6033 57.8469 25.8664 59.3022 20.4944C61.5151 12.3338 50.8906 8.28199 50.8906 8.28199C47.0248 5.87953 36.0746 4.09503 28.7373 12.1021C24.2221 17.0299 23.2135 22.559 26.3165 29.8524C26.4367 30.135 26.5447 30.5432 26.6421 31.0531Z" fill="#14130F"/>
<path d="M36.9823 7.38881C31.4242 8.9767 26.9783 13.4735 25.4501 19.0474C25.3501 19.4152 24.7769 19.2589 24.8787 18.8903C26.4604 13.1189 31.0722 8.46057 36.8251 6.81738C37.1929 6.71293 37.3492 7.28436 36.9823 7.38881Z" fill="#F9A137"/>
<path d="M30.3897 10.1894C29.5479 7.95367 27.371 6.22621 24.8922 6.44302C24.3918 6.48691 23.8292 6.6765 24.0258 7.32781C24.1048 7.58939 24.5665 7.96946 24.7763 8.15643C25.2652 8.58829 25.8182 8.94731 26.4037 9.23434C27.6378 9.83825 28.9861 10.0647 30.3528 9.96727C30.7338 9.93919 30.732 10.5326 30.3528 10.5598C28.52 10.6914 26.6828 10.2341 25.1581 9.1966C24.3717 8.66116 22.4555 7.15314 23.7546 6.16916C24.8307 5.35371 26.8935 5.96552 27.9556 6.51149C29.3943 7.25321 30.3967 8.53387 30.9602 10.0313C31.0945 10.3895 30.5222 10.544 30.3897 10.1894Z" fill="#F9A137"/>
<path d="M30.6955 10.1782C30.268 8.50075 29.8125 6.66533 30.3558 4.95719C30.7122 3.83803 31.6883 2.68903 32.9935 3.01819C34.2259 3.32805 34.426 4.74214 34.0556 5.77791C33.5158 7.29382 32.3747 8.64998 31.2037 9.72437C30.9237 9.98156 30.5024 9.56374 30.7842 9.3048C31.7014 8.46389 35.3415 4.34538 32.7864 3.72568C32.1824 3.57909 31.8533 3.68969 31.4381 4.16105C31.2423 4.38138 31.1344 4.59994 31.0247 4.87029C30.7964 5.4347 30.7087 6.04036 30.7043 6.6469C30.6973 7.79327 30.9843 8.91682 31.2661 10.0211C31.3609 10.3906 30.7894 10.5477 30.6955 10.1782Z" fill="#F9A137"/>
<path d="M55.4932 27.3359C55.4932 27.3359 57.0477 27.4623 57.3576 29.4408C57.6674 31.4193 56.6922 34.732 54.6848 34.3397C52.6782 33.9456 55.4932 27.3359 55.4932 27.3359Z" fill="#732426"/>
<path d="M55.3026 37.7081C56.808 37.7696 58.0816 36.5951 58.1422 35.0897C58.2045 33.5844 57.0292 32.3098 55.5247 32.2484C54.0202 32.187 52.7448 33.3623 52.6842 34.8668C52.6219 36.3722 53.7972 37.6467 55.3026 37.7081ZM55.4922 33.0463C56.5578 33.0893 57.389 33.9916 57.3443 35.0573C57.3013 36.122 56.3998 36.9541 55.3351 36.9102C54.2694 36.8672 53.4382 35.9658 53.4821 34.9001C53.526 33.8345 54.4274 33.0033 55.4922 33.0463Z" fill="#F9A137"/>
<path d="M33.3229 49.4537C33.3229 49.4537 36.4548 53.4221 42.2595 54.2297C49.6328 55.2558 50.457 52.0765 50.457 52.0765C50.141 51.0785 49.9488 50.0884 49.8557 49.0263C49.8206 48.6242 49.7996 48.2108 49.7917 47.7833C49.7688 46.6159 49.8435 45.3405 49.9865 43.8667C50.0208 43.5209 50.0576 43.1628 50.1007 42.7932L50.1042 42.7493C44.9964 41.5661 40.8094 39.3234 37.9338 35.5727L37.1658 35.1197L36.6488 34.8125L36.5558 35.1101L36.6576 36.0581C37.15 40.5154 35.6753 45.5775 33.3229 49.4537Z" fill="#C9614E"/>
<path d="M33.6853 48.9636C35.2591 51.6689 36.9585 54.3014 38.7878 56.8407C40.5293 59.2599 42.427 62.0863 44.8479 63.8831C46.1926 64.8811 47.9956 65.6246 49.6449 64.9329C51.3776 64.207 51.5874 62.2548 51.6041 60.6116C51.6427 57.0935 51.3101 53.5017 49.8661 50.2548C49.7116 49.909 50.2234 49.607 50.3787 49.9555C51.5778 52.6538 52.0518 55.5636 52.1676 58.4989C52.2563 60.7196 52.5521 63.956 50.298 65.277C48.1948 66.5103 45.6344 65.3683 43.9613 63.9349C41.96 62.2189 40.3282 59.9384 38.7746 57.8256C36.7531 55.0782 34.8887 52.2123 33.1735 49.2638C32.9804 48.9329 33.493 48.6336 33.6853 48.9636Z" fill="#1C1A0F"/>
<path d="M41.481 39.4844C42.5704 41.9149 45.0931 46.209 49.7848 47.7907C49.7619 46.6233 49.8366 45.3479 49.9796 43.8741C50.0139 43.5283 50.0507 43.1701 50.0938 42.8006C49.9928 42.8129 49.8901 42.8217 49.7865 42.8287C47.0066 43.0271 43.9792 41.6086 41.481 39.4844Z" fill="#14130F"/>
<path d="M30.3985 27.4994C30.2379 30.2661 32.3823 33.7904 35.9943 34.1002L36.0127 34.1011H36.0136L36.0908 34.1081C36.14 34.2705 36.1979 34.4303 36.2594 34.5944C36.2848 34.6655 36.3138 34.7366 36.341 34.8077C36.3445 34.8139 36.3463 34.8209 36.3507 34.827C38.3309 39.6565 44.8651 42.8113 48.4806 43.1202C49.7718 43.2299 50.6583 42.9894 50.9419 42.9456C54.8295 42.3355 55.8477 37.19 55.4773 33.1909C55.422 32.6098 55.3386 32.0559 55.2307 31.5407C55.2228 31.5047 55.2149 31.4696 55.2079 31.4345C55.2079 31.4345 56.8177 25.9633 57.2592 23.5617C58.1141 18.906 55.702 13.9852 45.4725 12.45C35.2429 10.9139 32.4068 17.154 31.4869 20.4974C31.3324 21.0548 31.2499 24.4228 31.7819 24.9969C30.7777 25.4393 30.4521 26.5707 30.3985 27.4994Z" fill="#C9614E"/>
<path d="M50.0732 36.638C49.9512 36.6178 49.8257 36.5889 49.6931 36.5485C48.4168 36.1631 47.7339 34.764 47.7049 34.7043C47.6066 34.4989 47.6918 34.2522 47.8989 34.1539C48.1026 34.0556 48.3501 34.1416 48.4484 34.347C48.4572 34.3637 49.0102 35.4802 49.9319 35.7585C50.886 36.0473 51.3898 35.5461 51.4109 35.525C51.5689 35.3644 51.8287 35.3574 51.9911 35.5127C52.1552 35.6681 52.1658 35.9235 52.0122 36.0894C51.9823 36.1237 51.2994 36.8425 50.0732 36.638Z" fill="#732426"/>
<path d="M48.8598 38.3277C48.3138 38.16 48.0522 37.7396 48.0364 37.715C47.9618 37.5921 48.0004 37.4323 48.1233 37.3577C48.2462 37.284 48.4042 37.3226 48.4788 37.4438C48.4964 37.4701 48.8378 37.9924 49.5822 37.8528C49.7235 37.8256 49.8587 37.9195 49.8859 38.06C49.9131 38.2004 49.82 38.3365 49.6787 38.3628C49.3566 38.4233 49.0836 38.397 48.8598 38.3277Z" fill="#732426"/>
<path d="M52.8252 27.89C53.177 27.9399 53.3842 28.5298 53.288 29.2076C53.1919 29.8853 52.8287 30.3942 52.4769 30.3443C52.1251 30.2944 51.9178 29.7045 52.014 29.0268C52.1102 28.349 52.4733 27.8401 52.8252 27.89Z" fill="#14130F"/>
<path d="M51.6927 28.5368C51.6594 28.5227 51.6304 28.4981 51.6084 28.4639C51.5566 28.3779 51.5847 28.2673 51.6699 28.2155C51.7419 28.1725 53.4421 27.1701 54.8228 28.2752C54.9009 28.3375 54.9132 28.4516 54.8509 28.5297C54.7877 28.6079 54.6745 28.6201 54.5964 28.5578C53.4105 27.6089 51.8718 28.5166 51.8568 28.5254C51.805 28.5561 51.7454 28.5596 51.6927 28.5368Z" fill="#14130F"/>
<path d="M46.8969 27.1289C47.2487 27.1791 47.4556 27.7691 47.359 28.4467C47.2624 29.1244 46.8989 29.6331 46.5471 29.583C46.1953 29.5328 45.9885 28.9428 46.085 28.2652C46.1816 27.5875 46.5451 27.0788 46.8969 27.1289Z" fill="#14130F"/>
<path d="M45.4474 28.0018C45.4114 27.9913 45.3798 27.9711 45.3552 27.9404C45.2929 27.8614 45.306 27.7473 45.3842 27.685C45.45 27.6332 47.0098 26.4236 48.5187 27.3452C48.6047 27.3979 48.631 27.5094 48.5784 27.5945C48.5266 27.6797 48.4151 27.7069 48.33 27.6542C47.0317 26.8616 45.622 27.9571 45.608 27.9685C45.5615 28.0062 45.5009 28.0167 45.4474 28.0018Z" fill="#14130F"/>
<path d="M33.9861 31.3906C34.2196 31.6636 34.1986 31.9322 33.9537 32.1973C33.0276 32.307 32.2894 33.0751 32.2508 34.0354C32.2078 35.101 33.039 36.0024 34.1037 36.0463C35.1694 36.0893 36.0708 35.259 36.1139 34.1933C36.1402 33.5622 35.8567 32.989 35.4011 32.6177L35.4388 31.6926C36.3491 32.1666 36.9565 33.1348 36.9117 34.2258C36.8512 35.7312 35.5767 36.9057 34.0713 36.8442C32.5659 36.7828 31.3914 35.5091 31.4529 34.0037C31.5099 32.6019 32.6194 31.4881 33.9861 31.3906Z" fill="#F9A137"/>
<path d="M31.7832 24.9972C32.0763 25.0288 32.3511 25.078 32.61 25.1438C34.3322 25.5731 35.3539 26.6922 36.1422 27.7947C36.2774 26.8537 37.2385 22.5342 43.5225 21.7609C43.6138 21.7504 43.7094 21.7398 43.8104 21.7311C44.567 20.3802 44.4749 19.024 44.4749 19.024C43.8218 16.4732 56.1492 17.6433 56.6039 21.5643C56.7944 23.2084 56.898 24.2784 56.9541 24.9727V24.9736C57.0481 26.1269 57.0095 26.2507 57.0095 26.2507C57.0095 26.2507 58.1093 27.3716 58.1444 21.9645C58.1549 20.2081 57.4668 18.5843 56.2669 17.1605C53.7784 14.1989 49.0893 12.1054 43.9227 11.4989C36.273 10.6009 30.7895 18.6861 30.4534 21.6187C30.1189 24.5487 31.7832 24.9972 31.7832 24.9972Z" fill="#14130F"/>
<g opacity="0.5">
<path d="M53.4221 32.2807C53.4054 32.6924 54.2893 33.0707 55.4805 33.1971C55.4252 32.616 55.3418 32.0621 55.2338 31.5469C54.1963 31.618 53.437 31.9059 53.4221 32.2807Z" fill="#732426"/>
</g>
<path d="M48.1155 25.0599C48.7931 25.5506 49.6657 24.7395 49.2092 24.0382C48.9705 23.6722 48.5799 23.3307 47.9461 23.1376C45.196 22.2976 43.1043 24.0154 43.1043 24.0154C43.1043 24.0154 46.0413 24.0189 47.3764 24.6307C47.6863 24.772 47.9233 24.9212 48.1155 25.0599Z" fill="#14130F"/>
<path d="M52.9705 25.7559C52.1963 26.0746 51.5371 25.0836 52.1446 24.5078C52.4623 24.2067 52.9214 23.9662 53.5832 23.9258C56.4527 23.7485 57.1602 25.6392 57.1602 25.6392C57.1602 25.6392 55.2308 25.2258 53.7895 25.5102C53.4559 25.5751 53.1909 25.6647 52.9705 25.7559Z" fill="#14130F"/>
<g opacity="0.5">
<path d="M44.4551 31.0049C45.8962 31.063 47.049 31.4902 47.0301 31.9591C47.0112 32.428 45.8277 32.761 44.3866 32.7029C42.9455 32.6448 41.7927 32.2175 41.8116 31.7487C41.8305 31.2798 43.014 30.9468 44.4551 31.0049Z" fill="#732426"/>
</g>
<path d="M35.9811 34.1014L35.9995 34.1032C36.0013 34.1032 36.0013 34.1032 36.0013 34.1032L36.0776 34.111C36.1268 34.2734 36.1847 34.4332 36.247 34.5965C36.2725 34.6676 36.3015 34.7387 36.3287 34.8098C36.3313 34.8159 36.3331 34.8229 36.3383 34.8291C36.7535 34.7878 37.2802 34.664 37.7674 34.3577C38.0526 34.1769 38.3256 33.9346 38.5512 33.6011C38.6688 33.4317 38.6249 33.199 38.4538 33.0823C38.2843 32.9638 38.0517 33.0077 37.9341 33.1788C37.6813 33.5466 37.339 33.7705 36.9993 33.9065C36.7676 33.9978 36.5376 34.0478 36.3348 34.0724C36.2005 34.0909 36.0812 34.0979 35.9811 34.1014Z" fill="#732426"/>
<path d="M36.4509 31.9599C36.3026 31.9257 36.1823 31.8028 36.1621 31.643C35.8145 29.0123 32.7766 27.7045 32.745 27.6913C32.5545 27.6114 32.4649 27.392 32.5448 27.2024C32.6247 27.0119 32.8433 26.9224 33.0337 27.0014C33.1751 27.0602 36.5001 28.4839 36.903 31.5456C36.9302 31.7501 36.7853 31.938 36.5817 31.9652C36.536 31.9713 36.4922 31.9687 36.4509 31.9599Z" fill="#732426"/>
<path d="M33.2983 30.3139C33.2526 30.3034 33.2078 30.285 33.1675 30.256C32.998 30.1384 32.9559 29.9058 33.0735 29.7355C33.106 29.6889 33.8802 28.6031 35.3935 28.7524C35.598 28.7734 35.7481 28.9551 35.7288 29.1614C35.7095 29.3668 35.5252 29.5169 35.3198 29.4967C34.2392 29.3896 33.6933 30.1542 33.6889 30.1621C33.5985 30.2911 33.4431 30.3464 33.2983 30.3139Z" fill="#732426"/>
<path d="M33.4309 38.8478C35.4832 40.3312 37.5714 41.1037 39.8 39.1067C40.0019 35.8555 39.226 32.1574 38.1112 30.0306C36.2819 26.5361 39.3655 22.1719 39.3655 22.1719C37.38 23.0172 35.1733 23.0172 34.0129 25.3617C36.0133 27.6228 34.8433 33.8304 33.4309 38.8478Z" fill="#14130F"/>
<path d="M46.2678 31.9839C44.1997 32.0568 42.4609 30.4285 42.3863 28.3596C42.3134 26.2916 43.9417 24.5457 46.0106 24.479C48.0786 24.4052 49.8254 26.0344 49.8921 28.1024C49.9658 30.1713 48.3428 31.9172 46.2678 31.9839ZM49.3698 28.1147C49.3672 27.998 49.3584 27.8803 49.3356 27.7636C49.2987 27.488 49.2268 27.2308 49.1276 26.9868C48.9713 26.6093 48.7449 26.2644 48.4613 25.9782C48.0268 25.5279 47.4633 25.2102 46.8375 25.068C46.5785 25.0162 46.3055 24.9916 46.0299 25.0004C44.2436 25.0574 42.8436 26.5584 42.9085 28.3394C42.9112 28.4491 42.92 28.5597 42.9358 28.6633C43.02 29.312 43.2983 29.8922 43.7038 30.3627C43.9742 30.669 44.2928 30.9148 44.6562 31.1009C44.8905 31.2273 45.1477 31.3203 45.4128 31.3862C45.6779 31.445 45.9588 31.4704 46.2537 31.4616C48.0339 31.4037 49.4348 29.9027 49.3698 28.1147Z" fill="white"/>
<path d="M54.806 32.855C52.738 32.9287 50.9991 31.2995 50.9254 29.2315C50.8517 27.1626 52.4808 25.4167 54.5497 25.35C56.6178 25.2772 58.3645 26.9054 58.4312 28.9743C58.5041 31.0424 56.882 32.7882 54.806 32.855ZM57.909 28.9866C57.9063 28.8699 57.8975 28.7531 57.8747 28.6355C57.8379 28.3599 57.7668 28.1027 57.6667 27.8578C57.5104 27.4812 57.284 27.1354 57.0005 26.8501C56.566 26.3998 56.0024 26.0821 55.3766 25.939C55.1176 25.8872 54.8446 25.8626 54.5699 25.8723C52.7819 25.9293 51.3827 27.4303 51.4477 29.2113C51.4494 29.321 51.4591 29.4317 51.4749 29.5352C51.5591 30.1839 51.8365 30.765 52.2429 31.2346C52.5124 31.5409 52.8319 31.7867 53.1953 31.9737C53.4306 32.1001 53.6869 32.1922 53.9511 32.2581C54.217 32.3169 54.497 32.3423 54.7929 32.3336C56.5739 32.2747 57.973 30.7738 57.909 28.9866Z" fill="white"/>
<path d="M42.7323 27.3439C42.6779 27.3421 42.6253 27.3254 42.577 27.2947C40.2087 25.7621 37.823 26.0667 37.801 26.0693C37.6298 26.0913 37.4754 25.9737 37.4534 25.8051C37.4306 25.6357 37.5482 25.4803 37.7168 25.4566C37.8239 25.4417 40.3527 25.1196 42.9132 26.7751C43.0571 26.8681 43.0975 27.0586 43.0053 27.2017C42.943 27.2982 42.8377 27.3483 42.7323 27.3439Z" fill="white"/>
<path d="M58.0752 29.9421C58.0322 29.9403 57.9866 29.9289 57.9462 29.9069C57.9348 29.9017 56.8849 29.361 55.7675 29.4953C55.5911 29.5181 55.4436 29.3934 55.4234 29.2249C55.4041 29.0555 55.5244 28.901 55.6938 28.8808C57.0052 28.7255 58.184 29.3338 58.2341 29.3592C58.3842 29.4382 58.4421 29.6252 58.3631 29.7762C58.3043 29.8859 58.1911 29.9473 58.0752 29.9421Z" fill="white"/>
<path d="M50.7702 32.937C50.8273 32.9423 50.8879 32.9326 50.9423 32.9045L52.3994 32.1619C52.4986 32.111 52.5644 32.0127 52.5697 31.9012C52.5767 31.7906 52.524 31.6836 52.4328 31.6221C51.3592 30.9023 50.7483 29.8534 50.5069 28.3234C50.4806 28.1523 50.32 28.0347 50.1479 28.0627C49.9776 28.09 49.86 28.2506 49.8872 28.4217C50.1251 29.9315 50.6948 31.0287 51.6656 31.8328L50.6579 32.3463C50.5034 32.4253 50.442 32.614 50.5201 32.7676C50.5719 32.8659 50.6675 32.9265 50.7702 32.937Z" fill="#732426"/>
<path d="M51.0923 28.9187C51.0186 28.9161 50.9458 28.8863 50.8905 28.8318C50.4393 28.3929 49.9144 28.6607 49.8556 28.6923C49.7063 28.7739 49.5176 28.7195 49.436 28.5702C49.3543 28.4219 49.4061 28.2358 49.5536 28.1524C49.888 27.9646 50.6859 27.7724 51.3197 28.3886C51.4434 28.507 51.4452 28.7037 51.3267 28.8257C51.2617 28.8915 51.1766 28.9222 51.0923 28.9187Z" fill="white"/>
<path d="M30.2556 89.8213C30.6725 89.9767 40.5843 93.6835 51.0877 96.7988C57.4042 98.6702 62.6383 99.9394 66.6462 100.569C68.7494 100.898 70.5506 101.061 72.1095 101.061C72.5747 101.061 73.0189 101.046 73.4428 101.018C75.1132 100.904 76.4738 100.549 77.5798 100.057C77.8264 99.9473 78.0608 99.8323 78.282 99.7103C79.7804 98.8905 80.7283 97.8214 81.3182 96.8716C82.3434 95.2258 82.6515 93.4272 82.4637 91.4391C82.4496 91.2644 82.4286 91.0862 82.4049 90.908C82.1319 88.9067 81.3928 86.7158 80.3957 84.2984C79.1325 81.242 77.2243 77.3342 74.72 72.689C70.5523 64.9514 66.1714 57.809 65.987 57.5097C65.3603 56.4871 63.3344 54.9624 62.3478 54.4375C63.5802 58.2997 65.2199 62.9721 66.3303 66.879C67.2247 70.0179 68.4825 72.9593 69.0285 76.1781C69.4428 78.6306 70.2907 81.3877 69.8343 83.8621C69.5578 85.3745 68.7854 86.678 67.3967 86.9897C67.488 87.1889 67.5785 87.3838 67.6618 87.5725C64.5089 87.0063 59.5565 85.8363 51.9076 83.468C42.9254 80.6873 34.8973 77.6844 34.8174 77.6537C31.4573 76.3949 27.7136 78.0978 26.4548 81.4571C25.1926 84.818 26.8937 88.5626 30.2556 89.8213Z" fill="#14130F"/>
<path d="M78.2742 99.7087C79.7725 98.8889 80.7205 97.8198 81.3104 96.87C82.3356 95.2242 82.6437 93.4257 82.4559 91.4375C80.1526 93.2334 77.6149 96.0993 78.2742 99.7087Z" fill="#5C554C"/>
<path d="M10.6002 88.7682C10.6133 87.8703 10.6449 87.0136 10.6888 86.17C10.7757 84.4891 10.9039 82.8679 11.0496 81.2624C11.3445 78.0559 11.7132 74.9223 12.1178 71.8009C12.3197 70.242 12.5339 68.6866 12.7551 67.1338L13.0948 64.8033L13.4564 62.4421C13.4731 62.3403 13.4951 62.206 13.5153 62.1024C14.3781 57.7302 18.6221 54.8845 22.9943 55.7482C27.3682 56.6093 30.214 60.8534 29.3511 65.2273L29.3327 65.3151L28.9026 67.4981L28.483 69.7145C28.2065 71.1935 27.9388 72.6752 27.6825 74.1542C27.169 77.1114 26.6924 80.0678 26.3017 82.9706C26.1183 84.3293 25.9541 85.6776 25.8251 86.9793C26.831 86.91 27.8712 86.8126 28.9184 86.702C30.3579 86.5484 31.8186 86.3649 33.2879 86.1648C36.2285 85.7619 39.198 85.2887 42.1736 84.7814C45.1475 84.2732 48.1302 83.7263 51.1111 83.154C52.6007 82.867 54.0911 82.5738 55.5772 82.2754L57.8076 81.8189L60.0117 81.359L60.0995 81.3396C63.4833 80.6374 66.8522 82.7204 67.7124 86.1033C68.5963 89.5802 66.4923 93.1158 63.0163 93.9989L60.7271 94.58L58.4589 95.1435C56.9483 95.5157 55.4367 95.8808 53.9199 96.239C50.889 96.9561 47.8493 97.6487 44.7894 98.3061C41.7277 98.9644 38.6476 99.5912 35.5175 100.156C33.9524 100.438 32.3724 100.706 30.7635 100.946C29.1519 101.187 27.5192 101.405 25.7944 101.567C24.9289 101.645 24.0432 101.714 23.0909 101.747C22.6142 101.765 22.1218 101.772 21.5942 101.766C21.0641 101.758 20.5085 101.739 19.8633 101.678C19.5394 101.647 19.1979 101.607 18.81 101.543C18.6555 101.518 18.4975 101.489 18.3263 101.455C18.0682 101.404 17.7891 101.338 17.4766 101.251C16.9596 101.104 16.3531 100.912 15.5271 100.491C15.1128 100.272 14.6467 99.9985 14.1033 99.5666C13.5626 99.1338 12.9526 98.5536 12.3794 97.7066C12.0968 97.2905 11.8308 96.8051 11.6158 96.2899C11.5438 96.1152 11.4744 95.937 11.4112 95.757L11.3182 95.4876L11.2524 95.276C11.2111 95.1365 11.1707 94.9951 11.133 94.8547L11.1066 94.7502L11.0865 94.6633L11.0461 94.4922L11.0022 94.2947L10.9706 94.1455C10.9284 93.9383 10.8969 93.7505 10.8626 93.5521C10.7485 92.8192 10.7002 92.2389 10.6616 91.6851C10.5923 90.6001 10.5879 89.668 10.6002 88.7682Z" fill="#14130F"/>
<path d="M11.0001 94.293L11.044 94.4905L11.0843 94.6616L11.1045 94.7485L11.1309 94.853C11.1686 94.9943 11.209 95.1347 11.2502 95.2743L11.3161 95.4859L11.4091 95.7553C11.4723 95.9353 11.5417 96.1135 11.6136 96.2881C11.8287 96.8025 12.0947 97.2888 12.3773 97.7049C12.9505 98.5519 13.5605 99.1321 14.1013 99.5649C14.6446 99.9967 15.1107 100.271 15.525 100.489C16.3501 100.91 16.9575 101.102 17.4745 101.249C17.7861 101.336 18.0662 101.402 18.3242 101.453C17.8915 97.3555 13.8177 95.2603 11.0001 94.293Z" fill="#5C554C"/>
<path d="M63.1532 84.5121C62.5046 83.2323 62.6125 81.9639 62.7038 80.6236C63.4692 79.9284 64.1627 79.3473 64.4954 79.0155C65.4205 78.0929 67.112 76.972 68.922 75.8669C70.7319 74.7609 71.9459 74.7091 73.5847 74.4458C75.2235 74.1834 77.8761 74.8944 77.1704 75.7897C76.4804 76.6657 74.2079 75.9477 72.5296 76.757C70.8504 77.5663 69.9577 78.2685 69.9577 78.2685C71.3007 77.8753 72.5226 77.389 75.3332 77.9604C78.1447 78.5318 78.789 80.075 77.992 80.3172C77.1967 80.5586 76.4172 80.6631 74.415 80.2022C72.4128 79.7414 70.1526 80.692 70.1526 80.692C71.3701 80.4392 75.694 80.6982 76.8544 81.8428C78.0157 82.9874 76.9123 83.7932 75.4464 83.4043C73.9814 83.0155 70.1728 83.5738 70.1728 83.5738C70.1728 83.5738 72.2847 83.7879 73.7462 84.1952C73.9744 84.2584 75.7098 85.0115 74.1026 85.7164C73.0141 86.1939 70.2772 85.9376 68.0328 86.2483C67.2832 86.3519 66.444 86.6819 65.6584 87.0734C64.613 86.452 63.7264 85.6453 63.1532 84.5121Z" fill="#C9614E"/>
<path d="M62.734 80.3226C63.3256 79.1955 64.3078 77.4742 65.0337 76.973C66.1423 76.2067 67.4055 74.4626 67.9813 75.1621C68.5571 75.8617 66.9438 77.9658 66.9438 77.9658L62.6875 81.009C62.7033 80.7825 62.7208 80.5534 62.734 80.3226Z" fill="#C9614E"/>
<path d="M68.2616 87.3921C69.7064 88.6947 70.8703 90.0465 71.6743 91.8336C71.8288 92.1786 71.3188 92.4805 71.1617 92.1321C70.3805 90.395 69.2464 89.0783 67.8428 87.8117C67.5584 87.5554 67.978 87.1367 68.2616 87.3921Z" fill="#5C554C"/>
<path d="M46.1713 96.4194C40.4877 93.5693 34.5777 91.2142 28.493 89.3709C28.1287 89.2612 28.2841 88.688 28.651 88.7995C34.7831 90.6577 40.7423 93.0356 46.4706 95.9077C46.8121 96.0788 46.5119 96.5897 46.1713 96.4194Z" fill="#5C554C"/>
<path d="M24.725 90.934C23.4224 91.6494 22.3708 92.6693 21.6203 93.9518C21.4272 94.2809 20.9146 93.9833 21.1077 93.6524C21.9082 92.2875 23.0379 91.1841 24.4248 90.4222C24.7601 90.2379 25.0594 90.7496 24.725 90.934Z" fill="#5C554C"/>
<path d="M61.437 86.5426C58.3376 85.4226 55.1785 84.4895 51.9676 83.7443C51.5963 83.6583 51.7543 83.0868 52.1256 83.1729C55.3365 83.9181 58.4956 84.8512 61.595 85.9712C61.9505 86.1002 61.7978 86.6725 61.437 86.5426Z" fill="#5C554C"/>
<path d="M36.482 82.9589C36.3292 85.3429 34.1831 87.0677 31.7947 86.9957C30.5351 86.9571 29.1491 87.0309 28.0992 87.396C25.5783 88.272 22.8449 90.0065 21.4466 90.089C19.383 90.2101 20.8014 88.4906 21.0068 88.3019C22.3209 87.0923 24.4231 85.7361 24.4231 85.7361C24.4231 85.7361 20.1291 87.1906 18.8001 88.3844C17.4712 89.5781 15.8824 89.3236 16.4863 87.5013C17.0902 85.6791 21.4879 83.0914 22.9002 82.7043C22.9002 82.7043 20.0211 82.9176 18.1664 84.4748C16.3134 86.0311 15.4409 86.3392 14.4762 86.5121C13.5107 86.6841 13.3597 84.7214 16.0027 82.6157C18.6456 80.5099 20.1879 80.3659 21.8065 80.0596C21.8065 80.0596 20.4951 79.8015 18.2998 79.8516C16.1045 79.9016 14.1067 81.8713 12.9129 81.3227C11.6919 80.7618 14.0962 78.5946 15.9544 77.9924C17.8135 77.3903 19.1152 76.7943 21.6055 76.9856C24.0966 77.1761 26.4718 77.4447 27.9351 77.9178C29.3992 78.3901 34.8273 79.3855 36.1063 81.1972C36.4337 81.6571 36.5258 82.283 36.482 82.9589Z" fill="#C9614E"/>
<path d="M31.5781 79.122C31.5781 79.122 27.8564 76.2535 26.2843 76.0437C24.7122 75.8339 22.4511 74.6805 22.222 75.7233C21.992 76.7661 24.8114 78.1091 24.8114 78.1091L31.5781 79.122Z" fill="#C9614E"/>
<path d="M92.4954 305.165V310.588H96.4252V308.138C96.4252 307.447 96.9852 306.887 97.6761 306.887H114.505C115.086 306.887 115.557 307.358 115.557 307.939V310.588H120.126V307.939C120.126 307.358 120.597 306.887 121.178 306.887H137.878C138.569 306.887 139.13 307.447 139.13 308.138V310.588H143.059V305.165C143.059 303.946 142.07 302.959 140.851 302.959H120.126V233.062H115.557V302.959H94.7039C93.4838 302.959 92.4954 303.947 92.4954 305.165Z" fill="#1E51A4"/>
<path d="M114.391 270.505H121.271C121.729 270.505 122.102 270.133 122.102 269.676V240.148H113.561V269.676C113.56 270.133 113.931 270.505 114.391 270.505Z" fill="#273372"/>
<path d="M141.055 319.945C137.823 319.945 135.204 317.325 135.204 314.093C135.204 310.862 137.823 308.242 141.055 308.242C144.287 308.242 146.906 310.862 146.906 314.093C146.906 317.325 144.287 319.945 141.055 319.945Z" fill="#14130F"/>
<path d="M141.061 317.439C142.907 317.439 144.41 315.936 144.41 314.09C144.41 312.242 142.907 310.738 141.061 310.738C139.213 310.738 137.71 312.242 137.71 314.09C137.71 315.936 139.213 317.439 141.061 317.439Z" fill="#5C554C"/>
<path d="M117.767 319.943C114.536 319.943 111.916 317.324 111.916 314.093C111.916 310.861 114.536 308.242 117.767 308.242C120.998 308.242 123.617 310.861 123.617 314.093C123.617 317.324 120.998 319.943 117.767 319.943Z" fill="#14130F"/>
<path d="M117.771 317.439C119.617 317.439 121.121 315.936 121.121 314.09C121.121 312.242 119.617 310.738 117.771 310.738C115.923 310.738 114.42 312.242 114.42 314.09C114.42 315.936 115.923 317.439 117.771 317.439Z" fill="#5C554C"/>
<path d="M94.427 319.943C91.1959 319.943 88.5767 317.324 88.5767 314.093C88.5767 310.861 91.1959 308.242 94.427 308.242C97.658 308.242 100.277 310.861 100.277 314.093C100.277 317.324 97.658 319.943 94.427 319.943Z" fill="#14130F"/>
<path d="M94.4308 317.439C96.2776 317.439 97.7812 315.936 97.7812 314.09C97.7812 312.242 96.2776 310.738 94.4308 310.738C92.584 310.738 91.0803 312.242 91.0803 314.09C91.0795 315.936 92.5831 317.439 94.4308 317.439Z" fill="#5C554C"/>
<path d="M45.5535 132.923L70.3848 236.365C71.1862 239.703 74.1706 242.057 77.6044 242.057H135.885C140.701 242.057 144.243 237.541 143.095 232.862L117.703 129.419C116.888 126.1 113.912 123.766 110.493 123.766H52.7714C47.9709 123.767 44.4326 128.255 45.5535 132.923Z" fill="#273372"/>
<path d="M51.9793 132.923L76.8106 236.365C77.612 239.703 80.5964 242.057 84.0302 242.057H142.311C147.127 242.057 150.669 237.541 149.521 232.862L124.129 129.419C123.314 126.1 120.337 123.766 116.919 123.766H59.1972C54.3967 123.767 50.8584 128.255 51.9793 132.923Z" fill="#1E51A4"/>
<path d="M84.0218 237.023H142.302C143.31 237.023 143.909 236.451 144.176 236.111C144.444 235.769 144.855 235.053 144.615 234.073L119.223 130.63C118.961 129.562 118.01 128.816 116.91 128.816H59.1888C58.1837 128.816 57.5859 129.385 57.3191 129.723C57.0514 130.063 56.6388 130.776 56.8732 131.753L81.7045 235.197C81.9643 236.271 82.9158 237.023 84.0218 237.023ZM116.91 129.482C117.702 129.482 118.387 130.018 118.575 130.788L143.967 234.231C144.139 234.935 143.843 235.453 143.651 235.698C143.46 235.943 143.028 236.355 142.302 236.355H84.0218C83.2256 236.355 82.5401 235.815 82.3549 235.04L57.5236 131.597C57.3542 130.892 57.6518 130.378 57.8431 130.135C58.0362 129.892 58.4664 129.482 59.1896 129.482H116.91Z" fill="#273372"/>
<path d="M177.086 245.125H79.2012C75.3013 245.125 71.914 242.435 71.0301 238.635L69.7187 233H174.265L177.086 245.125Z" fill="#273372"/>
<path d="M175.737 245.125H85.4866C81.5858 245.125 78.1993 242.435 77.3145 238.635L76.004 233H175.736C178.555 233 181.001 234.942 181.64 237.689C182.525 241.49 179.639 245.125 175.737 245.125Z" fill="#1E51A4"/>
<path d="M131.133 132.388L131.81 135.084C132.037 135.966 132.263 136.845 132.503 137.72C132.979 139.471 133.463 141.22 133.97 142.961C134.994 146.447 136.058 149.927 137.242 153.401C138.42 156.878 139.67 160.355 141.137 163.86C141.87 165.614 142.651 167.38 143.539 169.182C144.439 170.993 145.406 172.812 146.809 174.832C147.166 175.339 147.556 175.864 148.015 176.416C148.48 176.972 148.992 177.547 149.691 178.186C150.028 178.497 150.438 178.837 150.896 179.171C151.362 179.509 151.922 179.866 152.597 180.2C153.272 180.533 154.093 180.857 155.089 181.06C155.586 181.161 156.114 181.23 156.671 181.251L156.877 181.258H157.023L157.311 181.253C157.509 181.249 157.68 181.237 157.861 181.224C159.285 181.102 160.349 180.772 161.227 180.441C162.111 180.1 162.813 179.737 163.45 179.371C164.708 178.643 165.68 177.913 166.575 177.189C168.34 175.741 169.757 174.297 171.107 172.849C172.446 171.402 173.683 169.948 174.872 168.487C176.059 167.025 177.195 165.555 178.301 164.076C179.41 162.6 180.468 161.101 181.466 159.567C182.467 158.035 183.415 156.473 184.303 154.873C184.748 154.074 185.174 153.263 185.585 152.441C185.792 152.031 185.987 151.611 186.184 151.192C186.283 150.983 186.381 150.772 186.473 150.556L186.76 149.894C187.894 147.277 186.693 144.235 184.075 143.102C182.169 142.276 180.037 142.688 178.582 143.985L178.361 144.184C178.062 144.454 177.732 144.767 177.427 145.071C177.116 145.376 176.801 145.681 176.496 145.993C175.883 146.616 175.276 147.241 174.68 147.874C173.485 149.137 172.317 150.416 171.168 151.694C170.017 152.973 168.888 154.259 167.767 155.533C166.642 156.803 165.504 158.048 164.354 159.246C163.204 160.442 162.042 161.597 160.883 162.656C159.73 163.71 158.554 164.689 157.514 165.403C157.004 165.755 156.518 166.039 156.224 166.162C156.084 166.22 155.986 166.243 156.037 166.203C156.086 166.176 156.282 166.07 156.823 166.011C156.895 166.004 156.956 166.002 157.042 165.995L157.164 165.992L157.351 165.993C157.687 166.006 157.995 166.043 158.276 166.1C158.838 166.213 159.243 166.375 159.524 166.508C159.806 166.639 159.988 166.76 160.102 166.832C160.209 166.898 160.276 166.955 160.296 166.959C160.348 166.991 160.279 166.897 160.193 166.76C160.102 166.619 159.979 166.422 159.846 166.193C159.578 165.73 159.277 165.144 158.981 164.516C158.682 163.883 158.378 163.206 158.085 162.498C157.497 161.082 156.935 159.568 156.403 158.017C155.342 154.909 154.357 151.664 153.432 148.379C152.518 145.089 151.632 141.762 150.805 138.41C150.387 136.736 149.973 135.059 149.576 133.379L148.979 130.864L148.413 128.397L148.381 128.253C147.285 123.478 142.527 120.495 137.753 121.589C132.979 122.684 129.996 127.443 131.09 132.217C131.102 132.257 131.124 132.345 131.133 132.388Z" fill="#F9AE90"/>
<path d="M142.453 114.535C142.453 114.535 147.188 118.518 148.991 125.612C151.039 133.671 156.191 149.033 156.191 149.033C156.191 149.033 142.122 157.84 136.062 157.621L142.453 114.535Z" fill="#047C6D"/>
<path d="M157.3 165.491C156.461 165.829 155.622 166.167 154.784 166.505C154.343 166.684 154.646 167.358 155.085 167.18C155.924 166.84 156.762 166.503 157.601 166.163C158.041 165.986 157.739 165.312 157.3 165.491Z" fill="#DF6A5D"/>
<path d="M158.84 164.978C157.734 166.061 157.075 167.468 156.92 169.006C156.868 169.515 156.079 169.429 156.131 168.92C156.307 167.167 157.079 165.595 158.334 164.366C158.699 164.008 159.202 164.624 158.84 164.978Z" fill="#DF6A5D"/>
<path d="M205.423 288.645L210.625 297.142L220.535 292.754L216.037 283.625L205.423 288.645Z" fill="#F8A48F"/>
<path d="M251.914 297.589L214.43 314.181C213.927 313.798 213.458 313.147 213.016 312.318C211.379 309.251 210.149 303.743 209.232 300.334C209.128 299.935 209.025 299.564 208.925 299.232C208.759 298.667 208.604 298.205 208.46 297.879C207.308 295.275 209.81 294.701 209.81 294.701C215.249 296.742 217.075 289.263 220.393 289.983C220.393 289.983 221.816 290.278 225.977 291.639C230.136 293 235.98 292.526 241.087 292.423C247.679 292.286 250.285 293.909 251.301 295.373C252.105 296.532 251.914 297.589 251.914 297.589Z" fill="#DD4D36"/>
<path d="M251.914 297.584L214.43 314.176C213.927 313.793 213.458 313.142 213.016 312.313L251.301 295.367C252.105 296.527 251.914 297.584 251.914 297.584Z" fill="#93211E"/>
<path d="M218.265 312.492L217.151 312.985C217.7 311.224 217.877 308.815 216.51 306.091C214.689 302.466 211.363 300.954 209.243 300.337C209.138 299.937 209.036 299.567 208.936 299.234C211.163 299.769 215.201 301.312 217.382 305.652C218.689 308.254 218.695 310.623 218.265 312.492Z" fill="#93211E"/>
<path d="M226.325 294.127C226.049 294.249 225.713 294.173 225.519 293.923C225.29 293.628 225.344 293.203 225.639 292.975L227.723 291.356C228.017 291.128 228.442 291.182 228.671 291.477C228.9 291.771 228.845 292.196 228.55 292.425L226.467 294.041C226.422 294.076 226.374 294.105 226.325 294.127Z" fill="white"/>
<path d="M223.13 293.211C222.854 293.335 222.519 293.258 222.324 293.008C222.095 292.715 222.149 292.29 222.443 292.062L224.528 290.443C224.822 290.213 225.247 290.268 225.476 290.563C225.704 290.858 225.65 291.281 225.355 291.511L223.272 293.128C223.227 293.162 223.179 293.191 223.13 293.211Z" fill="white"/>
<path d="M229.271 294.45C228.994 294.574 228.658 294.497 228.464 294.247C228.235 293.952 228.289 293.529 228.584 293.299L230.669 291.682C230.963 291.452 231.387 291.505 231.616 291.8C231.845 292.095 231.791 292.52 231.496 292.748L229.412 294.367C229.367 294.401 229.32 294.428 229.271 294.45Z" fill="white"/>
<path d="M232.189 294.728C231.912 294.85 231.576 294.775 231.382 294.524C231.153 294.23 231.207 293.805 231.502 293.576L233.587 291.958C233.881 291.73 234.305 291.783 234.534 292.078C234.763 292.373 234.709 292.796 234.414 293.026L232.33 294.643C232.287 294.678 232.238 294.705 232.189 294.728Z" fill="white"/>
<path d="M235.275 294.81C234.998 294.932 234.663 294.855 234.468 294.605C234.239 294.312 234.294 293.887 234.588 293.658L236.672 292.04C236.967 291.812 237.391 291.865 237.62 292.16C237.848 292.455 237.795 292.878 237.5 293.106L235.416 294.725C235.371 294.758 235.324 294.787 235.275 294.81Z" fill="white"/>
<path d="M238.502 294.616C238.225 294.738 237.89 294.662 237.695 294.412C237.466 294.117 237.519 293.692 237.814 293.464L239.899 291.845C240.193 291.615 240.618 291.671 240.846 291.966C241.075 292.26 241.022 292.684 240.727 292.914L238.643 294.53C238.598 294.564 238.55 294.593 238.502 294.616Z" fill="white"/>
<path d="M134.785 224.292C158.738 228.206 172.105 236.263 172.105 236.263C172.105 236.263 180.599 255.89 185.646 263.093C190.692 270.299 202.267 293.173 202.267 293.173L219.703 285.722C219.703 285.722 217.907 281.262 215.069 274.443C214.996 274.27 214.924 274.096 214.851 273.92C214.063 272.029 213.197 269.965 212.271 267.772C212.186 267.571 212.102 267.369 212.016 267.167C210.305 263.12 208.397 258.655 206.381 254.038C206.25 253.736 206.119 253.434 205.985 253.13C204.242 249.139 202.426 245.045 200.596 241.016C200.503 240.81 200.409 240.606 200.317 240.4C199.262 238.082 198.204 235.79 197.154 233.553C197.066 233.368 196.98 233.184 196.895 233.001C195.534 230.11 194.187 227.317 192.885 224.694C192.777 224.48 192.671 224.268 192.568 224.058C190.447 219.818 188.439 216.04 186.651 213.026C186.54 212.839 186.43 212.654 186.322 212.474C184.897 210.112 183.621 208.263 182.551 207.087C182.414 206.935 182.278 206.792 182.146 206.664C182.101 206.619 182.053 206.575 182 206.529C179.809 204.64 170.872 201.6 160.282 200.014C159.942 199.962 159.603 199.915 159.26 199.867H159.257C150.579 198.658 140.919 198.46 133 200.672C130.91 204.693 128.255 214.873 134.785 224.292Z" fill="#14130F"/>
<path d="M200.397 288.86C200.462 288.86 200.526 288.846 200.59 288.821L217.655 281.726C217.911 281.62 218.033 281.327 217.926 281.072C217.82 280.814 217.527 280.694 217.271 280.8L200.205 287.894C199.95 288.001 199.828 288.294 199.935 288.549C200.015 288.743 200.202 288.86 200.397 288.86Z" fill="#5C554C"/>
<path d="M203.268 287.424C203.329 287.424 203.391 287.412 203.452 287.388C203.71 287.287 203.837 286.995 203.734 286.737C203.699 286.649 200.128 277.739 191.799 265.101C183.526 252.546 174.876 231.327 174.789 231.113C174.685 230.858 174.392 230.734 174.135 230.837C173.878 230.942 173.754 231.235 173.86 231.492C173.947 231.705 182.633 253.016 190.96 265.653C199.233 278.208 202.766 287.02 202.8 287.107C202.879 287.304 203.068 287.424 203.268 287.424Z" fill="#5C554C"/>
<path d="M84.2528 201.814C84.2686 201.826 84.2818 201.836 84.2994 201.843C84.3038 201.846 84.3081 201.85 84.3134 201.852C84.3415 201.868 84.3661 201.884 84.388 201.898C84.4205 201.916 84.4468 201.931 84.4732 201.95C84.4872 201.955 84.4995 201.964 84.5065 201.968C84.5346 201.986 84.5574 201.999 84.5785 202.012C84.5925 202.019 84.6075 202.03 84.6206 202.035C84.6162 202.032 84.6118 202.026 84.6075 202.025C84.6575 202.05 84.6909 202.073 84.6987 202.075C84.7146 202.085 84.7339 202.093 84.7541 202.104C84.9542 202.22 85.2632 202.393 85.4405 202.494C85.4598 202.503 85.4756 202.512 85.4914 202.52C87.2188 203.476 88.9937 204.322 90.8089 205.057C92.8892 205.906 95.0205 206.615 97.1754 207.196C97.5748 207.305 97.9759 207.406 98.3797 207.509C98.4104 207.516 98.4412 207.521 98.4763 207.531C99.8105 207.86 101.149 208.137 102.496 208.366C102.999 208.452 103.503 208.531 104.013 208.605C105.825 208.871 107.645 209.053 109.45 209.156C109.67 209.171 109.889 209.181 110.108 209.188C112.139 209.287 114.151 209.282 116.13 209.19C116.342 209.179 116.556 209.17 116.766 209.157C116.804 209.156 116.839 209.154 116.874 209.15H116.876C117.204 209.132 117.528 209.111 117.853 209.084C118.928 209.008 119.988 208.897 121.037 208.763C121.404 208.724 121.765 208.672 122.125 208.616C126.075 208.042 129.799 207.102 133.132 205.854C133.376 205.762 133.618 205.669 133.858 205.575C134.034 205.507 134.206 205.44 134.379 205.366C134.421 205.349 134.46 205.334 134.504 205.316C135.606 204.86 136.661 204.367 137.66 203.843C137.706 203.82 137.754 203.795 137.798 203.773C139.12 203.072 140.341 202.316 141.449 201.509C141.354 199.784 141.23 197.954 141.099 196.165V196.163C141.068 195.772 141.042 195.384 141.013 195.001C140.931 193.914 140.85 192.858 140.767 191.869C140.77 191.865 140.767 191.858 140.767 191.855C140.567 189.777 140.387 187.622 140.221 185.477C140.217 185.434 140.214 185.408 140.214 185.408C140.157 184.704 140.107 184.004 140.054 183.306C140.021 182.871 139.99 182.444 139.962 182.015V182.013C139.67 177.907 139.439 174.007 139.288 170.928L139.29 170.926C139.272 170.573 139.255 170.235 139.239 169.906C139.204 169.154 139.174 168.462 139.149 167.84C139.093 166.5 139.058 165.196 139.035 163.926C139.009 162.683 139.002 161.474 139.006 160.298C139.011 158.956 139.033 157.647 139.072 156.386C139.084 155.707 139.112 155.04 139.136 154.384C139.136 154.382 139.136 154.382 139.136 154.382C139.149 154.08 139.162 153.778 139.178 153.48C139.191 153.203 139.203 152.923 139.222 152.649C139.222 152.649 139.222 152.649 139.219 152.647C139.223 152.581 139.226 152.516 139.23 152.45C139.246 152.139 139.265 151.831 139.286 151.529C139.347 150.502 139.422 149.506 139.498 148.534C139.681 146.362 139.904 144.33 140.156 142.435C140.198 142.102 140.245 141.773 140.288 141.449C140.749 138.168 141.289 135.304 141.829 132.807C141.89 132.509 141.951 132.217 142.017 131.928C143.218 126.513 144.357 122.888 144.529 120.393C144.558 119.952 144.56 119.541 144.521 119.167C144.46 118.495 144.339 117.885 144.163 117.329C143.988 116.783 143.764 116.289 143.492 115.84C142.541 114.269 141.04 113.285 139.301 112.469C139.1 112.375 138.901 112.285 138.695 112.194C138.146 111.953 137.578 111.727 137.001 111.497C136.797 111.415 136.59 111.332 136.38 111.251C135.741 110.998 135.093 110.739 134.449 110.459C134.442 110.456 134.438 110.455 134.431 110.455C133.944 110.24 133.459 110.01 132.983 109.767C132.78 109.663 132.579 109.555 132.379 109.445C132.188 109.336 131.995 109.231 131.811 109.114C131.573 108.965 131.329 108.806 131.094 108.645C129.85 107.784 128.72 106.695 127.816 105.238C127.807 105.229 127.8 105.22 127.792 105.204C127.684 105.033 127.581 104.851 127.479 104.664L112.253 103.102C112.253 103.102 111.284 103.736 109.57 104.475C109.376 104.563 109.172 104.646 108.959 104.736C108.837 104.785 108.714 104.83 108.586 104.883C108.448 104.939 108.306 104.989 108.158 105.044C108.079 105.072 107.99 105.103 107.906 105.134C107.369 105.323 106.776 105.51 106.135 105.685C105.889 105.751 105.634 105.817 105.371 105.881C105.163 105.932 104.951 105.98 104.732 106.023C104.612 106.052 104.489 106.076 104.366 106.1C104.168 106.142 103.974 106.179 103.764 106.219C103.354 106.291 102.928 106.359 102.487 106.414C102.257 106.447 102.024 106.474 101.789 106.5C101.259 106.559 100.708 106.603 100.137 106.634C99.0328 106.693 97.9865 106.919 96.9963 107.306C96.7866 107.387 96.5794 107.475 96.3731 107.572C95.6779 107.894 95.0108 108.302 94.3771 108.79C94.0295 109.055 93.695 109.345 93.3676 109.66H93.3659C93.3167 109.707 93.2711 109.752 93.2254 109.799C93.0824 109.937 92.9445 110.08 92.8058 110.229C92.6075 110.441 92.4152 110.663 92.2239 110.894C91.7569 111.461 91.311 112.083 90.8879 112.761C90.7457 112.99 90.6079 113.222 90.471 113.461C90.3499 113.672 90.2322 113.887 90.1181 114.109C90.0216 114.286 89.9294 114.469 89.8399 114.652C88.7233 116.906 87.8157 119.605 87.1293 122.711C87.1267 122.714 87.1267 122.715 87.1267 122.717C86.9257 123.633 86.7413 124.581 86.5763 125.566C86.1304 128.252 85.6854 130.867 85.257 133.422C85.2061 133.713 85.1587 134.008 85.1078 134.298C84.9472 135.265 84.7874 136.226 84.6294 137.178C84.3442 138.943 84.0633 140.685 83.7999 142.408C83.7499 142.763 83.6928 143.117 83.6402 143.476C83.5208 144.273 83.4251 144.994 83.3435 145.678C83.1328 147.425 83.0073 148.935 82.7861 150.919C82.7852 150.917 79.5462 190.612 84.2528 201.814Z" fill="#047C6D"/>
<path d="M85.7788 179.586C85.7859 179.811 85.7929 180.036 85.7982 180.262C85.9632 185.461 86.3626 190.806 87.0709 196.19C87.099 196.411 87.128 196.63 87.1596 196.853C87.3457 198.225 87.5537 199.6 87.7828 200.973C87.8065 201.118 87.925 201.223 88.0654 201.238C88.0935 201.242 88.1216 201.242 88.1515 201.235C88.327 201.206 88.4429 201.041 88.4148 200.868C88.1866 199.492 87.9777 198.116 87.7916 196.743C87.7608 196.52 87.7328 196.299 87.7029 196.078C87.0007 190.741 86.6039 185.444 86.4398 180.29C86.4328 180.066 86.4267 179.841 86.4205 179.616C85.591 150.127 92.2533 125.467 92.3367 125.164C92.3823 124.993 92.2814 124.817 92.1128 124.771C91.9347 124.719 91.7652 124.825 91.7178 124.993C91.6336 125.295 84.9537 150.011 85.7788 179.586Z" fill="#083D3B"/>
<path d="M136.66 88.286C136.66 88.286 139.823 89.0848 140.864 86.7359C141.907 84.3861 139.303 82.2592 142.777 80.0613C146.251 77.8633 149.699 72.6248 146.131 69.2805C142.562 65.9344 140.677 70.6489 137.856 66.5199C135.034 62.3926 133.646 61.8976 129.446 61.3068C125.342 60.7275 123.847 64.501 119.539 63.8409C115.231 63.1809 111.843 68.0288 112.73 70.907C113.976 74.9491 114.152 74.3198 113.622 77.6492C113.091 80.9785 115.33 83.6663 117.911 83.5768C120.491 83.4863 136.66 88.286 136.66 88.286Z" fill="#14130F"/>
<path d="M112.197 102.069C112.485 104.823 116.19 108.499 118.372 109.483C121.767 111.013 125.421 111.049 128.434 109.857L129.453 104.585L129.661 103.51L130.055 101.47L118.824 90.6479L118.177 90.0229L117.74 89.6016L117.484 90.0317L117.193 90.5276L117.216 90.7637C115.319 95.7082 114.784 98.7409 112.197 102.069Z" fill="#F8A48F"/>
<path d="M128.806 108.191C123.896 105.991 121.777 101.516 121.051 98.7891C123.195 101.313 125.984 103.221 128.785 103.476C129.087 103.504 129.38 103.514 129.664 103.506L128.806 108.191Z" fill="#14130F"/>
<path d="M138.814 87.1719C138.814 87.1719 140.347 87.6099 140.262 89.6577C140.178 91.7064 138.536 94.8339 136.6 94.0378C134.665 93.2408 138.814 87.1719 138.814 87.1719Z" fill="#DF6A5D"/>
<path d="M116.85 91.1944C116.852 91.1961 116.852 91.1961 116.852 91.1961C116.878 91.2031 116.902 91.2119 116.926 91.2172C116.941 91.3962 116.961 91.5771 116.985 91.7579C116.995 91.8386 117.005 91.9168 117.019 91.9958C117.071 92.3249 117.143 92.6585 117.229 92.9955C118.584 98.2209 123.981 104.154 129.207 104.436C129.515 104.451 129.811 104.45 130.099 104.434C135.228 104.134 137.467 98.7458 137.646 94.4079C137.653 94.2446 137.658 94.0831 137.658 93.9225C137.658 93.9225 137.718 93.6328 137.833 93.1307C137.924 92.7296 138.051 92.1854 138.206 91.5428C138.672 89.6223 139.406 86.795 140.299 84.0353C141.864 79.197 139.833 71.3128 130.027 67.8316C122.213 65.0587 117.418 68.8033 115.494 73.1044C115.003 74.2007 114.701 75.3321 114.58 76.4013C114.43 77.7197 114.501 79.2795 114.694 80.8797C113.725 80.7857 112.612 81.1333 111.774 82.7256C110.227 85.6688 113.322 90.2174 116.85 91.1944Z" fill="#F8A48F"/>
<path d="M114.687 80.8838C116.377 82.3312 117.511 82.6788 117.511 82.6788L119.256 85.55L121.774 84.4326C121.774 84.4326 121.158 81.2647 122.852 80.5169C124.547 79.7681 124.077 77.6992 124.077 77.6992C124.077 77.6992 118.027 73.2718 115.487 73.1094C114.996 74.2057 114.694 75.3372 114.573 76.4063C114.423 77.7238 114.494 79.2836 114.687 80.8838Z" fill="#14130F"/>
<path d="M141.164 78.2838C141.164 78.2838 134.852 72.3431 130.468 73.4605C126.087 74.577 124.076 77.6966 124.076 77.6966C124.076 77.6966 116.039 77.8985 114.539 75.6216C113.038 73.3437 116.672 65.7949 122.901 65.2384C129.131 64.6819 137.743 68.0095 141.164 78.2838Z" fill="#14130F"/>
<path d="M136.335 86.9594C136.695 87.0657 136.821 87.7139 136.617 88.4071C136.412 89.1004 135.954 89.5762 135.594 89.4699C135.234 89.3635 135.107 88.7153 135.312 88.0221C135.516 87.3289 135.974 86.8531 136.335 86.9594Z" fill="#14130F"/>
<path d="M134.58 87.3081C134.547 87.2879 134.519 87.2563 134.502 87.2186C134.462 87.1211 134.507 87.0088 134.605 86.9675C134.686 86.9342 136.617 86.145 137.89 87.5126C137.962 87.5907 137.958 87.711 137.88 87.783C137.803 87.8549 137.682 87.8505 137.61 87.7742C136.516 86.5997 134.77 87.3133 134.752 87.3204C134.694 87.3458 134.631 87.3388 134.58 87.3081Z" fill="#14130F"/>
<g opacity="0.5">
<path d="M126.088 88.5284C127.523 88.8751 128.595 89.5344 128.482 90.0009C128.369 90.4674 127.115 90.5644 125.68 90.2177C124.245 89.8709 123.173 89.2117 123.286 88.7452C123.399 88.2787 124.653 88.1816 126.088 88.5284Z" fill="#DF6A5D"/>
</g>
<g opacity="0.5">
<path d="M137.821 93.129C136.851 92.7709 136.212 92.2872 136.3 91.9203C136.391 91.5561 137.172 91.4174 138.195 91.5394C138.04 92.1837 137.914 92.727 137.821 93.129Z" fill="#DF6A5D"/>
</g>
<path d="M119.565 91.2262C119.272 91.5141 118.949 91.7045 118.626 91.8292C118.036 92.0548 117.438 92.0583 117.002 92.0065C116.989 91.9275 116.979 91.8467 116.969 91.7695C116.944 91.586 116.923 91.4061 116.911 91.2262C116.887 91.2191 116.86 91.2121 116.836 91.206C116.947 91.2262 117.087 91.2464 117.246 91.256C117.454 91.2718 117.696 91.2683 117.946 91.2218C118.315 91.1551 118.702 90.9988 119.03 90.6793C119.182 90.531 119.425 90.5345 119.571 90.6872C119.718 90.8382 119.716 91.0796 119.565 91.2262Z" fill="#DF6A5D"/>
<path d="M130.087 104.435C129.8 104.452 129.503 104.452 129.196 104.436C123.971 104.153 118.572 98.2204 117.218 92.9959C117.435 92.4148 117.852 91.9162 118.631 91.8196L119.251 85.5471L121.77 84.4297C121.77 84.4297 122.557 90.3028 124.434 90.9533C126.311 91.6037 130.841 91.7933 132.51 93.2662C132.51 93.2662 135.866 92.7905 137.633 94.4108C137.456 98.7435 135.218 104.136 130.087 104.435Z" fill="#14130F"/>
<path d="M128.783 92.8281C128.783 92.8281 128.116 96.1593 130.833 97.0371C133.549 97.9148 134.543 95.2833 134.543 95.2833L128.783 92.8281Z" fill="white"/>
<path d="M129.942 98.126C129.435 97.8785 129.244 97.4273 129.232 97.401C129.179 97.2702 129.242 97.1201 129.373 97.0666C129.503 97.0122 129.652 97.0745 129.706 97.2044C129.719 97.2334 129.973 97.7951 130.721 97.7732C130.862 97.7679 130.981 97.8794 130.984 98.0216C130.989 98.1629 130.877 98.2805 130.736 98.2858C130.412 98.2955 130.15 98.2279 129.942 98.126Z" fill="#605F77"/>
<path d="M116.578 88.4827C116.435 88.4195 116.34 88.2729 116.351 88.1078C116.53 85.3973 113.742 83.4767 113.713 83.4565C113.539 83.338 113.492 83.101 113.611 82.9264C113.729 82.7517 113.966 82.7052 114.141 82.8228C114.271 82.9106 117.323 85.0049 117.115 88.1579C117.1 88.3686 116.918 88.5283 116.708 88.5143C116.662 88.5107 116.618 88.5011 116.578 88.4827Z" fill="#DF6A5D"/>
<path d="M113.71 86.2013C113.666 86.182 113.624 86.153 113.589 86.1171C113.443 85.9643 113.447 85.7221 113.6 85.5755C113.641 85.536 114.636 84.6003 116.123 85.0532C116.324 85.1155 116.439 85.3279 116.378 85.5307C116.317 85.7335 116.103 85.8467 115.9 85.7852C114.837 85.4622 114.137 86.1206 114.13 86.1267C114.014 86.2382 113.847 86.2636 113.71 86.2013Z" fill="#DF6A5D"/>
<path d="M132.957 92.4652C132.872 92.4274 132.801 92.3598 132.761 92.2677C132.676 92.0728 132.766 91.8481 132.96 91.7647L135.307 90.7447L133.648 89.7862C133.551 89.73 133.483 89.6335 133.463 89.5238L132.572 84.7267C132.533 84.5187 132.67 84.3186 132.879 84.28C133.086 84.2413 133.286 84.3783 133.325 84.5863L134.183 89.2113L136.348 90.4621C136.473 90.5341 136.547 90.6701 136.538 90.815C136.53 90.9589 136.442 91.0862 136.308 91.1441L133.265 92.4661C133.163 92.5108 133.052 92.5073 132.957 92.4652Z" fill="#DF6A5D"/>
<path d="M127.709 83.2402C127.557 83.1735 127.42 83.069 127.31 82.9295C126.951 82.4721 127.029 81.8112 127.485 81.4513C127.594 81.3653 130.178 79.3736 132.835 80.9896C133.331 81.2924 133.489 81.9393 133.187 82.4353C132.884 82.9321 132.238 83.0883 131.741 82.7873C130.317 81.9218 128.803 83.0919 128.788 83.1033C128.47 83.3552 128.053 83.3929 127.709 83.2402Z" fill="#14130F"/>
<path d="M138.368 85.7145C138.088 85.5899 137.864 85.345 137.778 85.0264C137.546 84.1661 136.115 83.8194 135.745 83.7729C135.17 83.7009 134.759 83.176 134.83 82.5984C134.901 82.0226 135.427 81.6127 136.004 81.6838C137.177 81.8286 139.3 82.5809 139.811 84.4795C139.962 85.0404 139.63 85.618 139.069 85.769C138.826 85.833 138.581 85.8085 138.368 85.7145Z" fill="#14130F"/>
<path d="M130.279 85.2341C130.639 85.3402 130.766 85.9887 130.562 86.6826C130.357 87.3764 129.9 87.8529 129.539 87.7468C129.179 87.6407 129.052 86.9922 129.257 86.2984C129.461 85.6045 129.919 85.128 130.279 85.2341Z" fill="#14130F"/>
<path d="M127.996 85.754C127.961 85.7374 127.929 85.711 127.908 85.6742C127.855 85.5829 127.887 85.4661 127.978 85.4126C128.055 85.3678 129.869 84.3426 131.306 85.5381C131.388 85.6066 131.398 85.7268 131.331 85.8085C131.263 85.8901 131.143 85.9006 131.061 85.8331C129.827 84.8061 128.186 85.7356 128.169 85.7444C128.115 85.776 128.051 85.7777 127.996 85.754Z" fill="#14130F"/>
<path d="M137.863 124.822C138.667 127.741 140.058 130.398 141.822 132.808C141.884 132.508 141.949 132.215 142.012 131.927C140.562 129.853 139.396 127.598 138.652 125.144C137.409 121.036 137.542 116.379 139.296 112.468C139.097 112.374 138.896 112.283 138.692 112.195C136.943 116.088 136.726 120.688 137.863 124.822Z" fill="#11A88E"/>
<path d="M90.4633 113.457C92.3145 117.407 95.263 120.838 98.8908 123.257L98.8899 123.259C99.4315 123.617 99.9836 123.954 100.55 124.265C106.011 127.283 112.319 127.956 118.345 129.119C124.395 130.287 130.02 132.247 134.747 136.313C136.823 138.094 138.642 140.161 140.15 142.433C140.193 142.1 140.238 141.771 140.281 141.447C138.883 139.446 137.243 137.609 135.396 135.986C131.187 132.292 126.168 130.145 120.74 128.93C114.521 127.537 107.972 127.105 102.144 124.334C100.91 123.747 99.7343 123.047 98.631 122.255C95.2744 119.843 92.5691 116.541 90.882 112.758C90.7398 112.986 90.6003 113.219 90.4633 113.457Z" fill="#11A88E"/>
<path d="M142.311 127.341C142.265 127.559 141.908 129.298 141.45 131.765C141.383 132.128 141.315 132.505 141.244 132.896C140.535 136.821 139.681 142.066 139.364 146.095C139.336 146.46 139.797 146.645 140.028 146.361L140.036 146.352C140.338 142.33 141.217 136.941 141.934 132.951C141.941 132.929 141.946 132.905 141.946 132.881C142.509 129.783 142.967 127.542 142.981 127.483C143.02 127.296 142.902 127.114 142.716 127.078C142.53 127.038 142.349 127.158 142.311 127.341Z" fill="#083D3B"/>
<path d="M118.691 123.007C118.691 123.007 119.945 118.031 120.066 114.156C120.187 110.283 119.58 107.673 119.58 107.673C119.58 107.673 114.523 104.772 113.104 100.914C113.104 100.914 107.217 101.685 106.124 105.687C106.124 105.687 111.998 119.529 118.691 123.007Z" fill="#083D3B"/>
<path d="M129.241 105.609C129.241 105.609 132.846 105.539 132.385 110.39C131.469 120.029 124.91 122.066 124.91 122.066L124.077 116.977C123.632 113.48 123.787 111.496 123.958 109.368C123.958 109.368 128.761 109.56 129.241 105.609Z" fill="#083D3B"/>
<path d="M122.088 117.13C121.519 117.13 121.058 116.669 121.058 116.1C121.058 115.531 121.519 115.07 122.088 115.07C122.656 115.07 123.117 115.531 123.117 116.1C123.117 116.669 122.656 117.13 122.088 117.13Z" fill="#083D3B"/>
<path d="M122.017 121.239C121.449 121.239 120.988 120.778 120.988 120.209C120.988 119.641 121.449 119.18 122.017 119.18C122.586 119.18 123.047 119.641 123.047 120.209C123.047 120.778 122.586 121.239 122.017 121.239Z" fill="#083D3B"/>
<path d="M121.783 124.926C121.214 124.926 120.753 124.465 120.753 123.897C120.753 123.328 121.214 122.867 121.783 122.867C122.352 122.867 122.812 123.328 122.812 123.897C122.812 124.465 122.352 124.926 121.783 124.926Z" fill="#083D3B"/>
<path d="M118.249 147.263C118.38 149.799 121.013 151.842 122.615 153.515C128.169 159.318 133.722 165.122 139.277 170.923C139.26 170.57 139.243 170.231 139.227 169.903C138.233 168.864 137.238 167.826 136.246 166.788C132.285 162.651 128.327 158.516 124.37 154.379C123.341 153.305 122.31 152.235 121.284 151.156C120.477 150.309 119.653 149.418 119.198 148.321C118.557 146.77 119.226 145.248 120.949 145.018C122.01 144.878 123.094 145.162 124.098 145.473C129.581 147.167 134.698 149.912 139.167 153.479C139.18 153.2 139.192 152.922 139.21 152.646C139.21 152.646 139.21 152.646 139.207 152.644C137.765 151.518 136.257 150.475 134.689 149.524C132.587 148.25 130.388 147.136 128.114 146.202C126.019 145.342 123.538 144.201 121.219 144.326C119.575 144.415 118.156 145.498 118.249 147.263Z" fill="#11A88E"/>
<path d="M96.8442 125.649C101.318 127.847 105.734 130.652 108.425 134.971C110.822 138.817 111.722 143.799 109.488 147.925C108.57 149.623 107.211 151.078 105.527 152.031C103.743 153.043 101.847 153.159 99.8426 153.143C97.5429 153.124 94.411 153.17 94.023 156.105C93.7096 158.471 95.2027 160.739 95.2282 163.1C95.273 167.268 90.418 170.297 86.6629 168.656C86.2679 168.483 86.5084 167.856 86.906 168.029C88.8968 168.9 91.1597 168.346 92.7564 166.928C94.4794 165.397 94.7875 163.408 94.2925 161.243C93.8685 159.392 92.9486 157.381 93.4683 155.456C93.8422 154.075 94.9341 153.125 96.2903 152.748C98.1275 152.235 100.077 152.595 101.95 152.437C104.073 152.259 105.995 151.23 107.43 149.67C110.673 146.143 110.717 141.094 108.734 136.925C106.326 131.865 101.473 128.67 96.5992 126.274C96.2157 126.086 96.4544 125.458 96.8442 125.649Z" fill="#11A88E"/>
<path d="M85.7637 179.589C85.7707 179.814 85.7778 180.039 85.783 180.265C85.9981 180.277 86.2114 180.289 86.4238 180.292C87.6659 180.326 88.9123 180.218 90.1324 179.968C92.505 179.483 94.7802 178.45 96.6297 176.876C98.9408 174.906 100.554 172.286 102.184 169.76C103.861 167.162 105.669 164.527 108.289 162.788C111.353 160.757 114.802 160.809 118.06 162.39C121.115 163.874 123.856 166.151 126.433 168.333C128.917 170.438 131.265 172.699 133.468 175.095C135.845 177.682 138.041 180.428 140.047 183.306C140.014 182.87 139.984 182.444 139.956 182.014V182.013C137.754 178.949 135.336 176.041 132.716 173.317C130.549 171.067 128.248 168.943 125.83 166.961C123.346 164.924 120.727 162.82 117.763 161.516C115.055 160.327 112.095 160.11 109.38 161.396C106.872 162.587 104.889 164.694 103.287 166.918C101.452 169.461 99.9792 172.267 97.9147 174.646C95.9748 176.884 93.4864 178.471 90.6011 179.177C89.2292 179.515 87.8133 179.663 86.4054 179.62C86.1895 179.613 85.977 179.604 85.7637 179.589Z" fill="#11A88E"/>
<path d="M84.7497 202.099C84.9499 202.214 85.2597 202.387 85.4379 202.489C90.7072 199.645 96.805 198.1 102.598 200.343C105.612 201.511 108.977 204.007 109.476 207.435C109.566 208.049 109.55 208.62 109.448 209.152C109.667 209.167 109.886 209.179 110.107 209.186C110.583 206.652 109.155 204.2 107.35 202.51C105.251 200.544 102.536 199.354 99.7236 198.857C94.4658 197.931 89.3141 199.551 84.7497 202.099Z" fill="#11A88E"/>
<path d="M116.126 209.19C116.338 209.181 116.551 209.17 116.762 209.158C116.799 209.154 116.835 209.154 116.871 209.151C115.263 206.001 113.791 201.969 114.854 198.605C115.578 196.313 117.714 195.112 120.057 195.258C122.345 195.4 124.431 196.654 126.273 197.922C129.257 199.985 131.822 202.597 133.856 205.572C134.03 205.505 134.203 205.437 134.374 205.367C134.417 205.349 134.457 205.332 134.5 205.315C134.25 204.946 133.992 204.584 133.727 204.226C131.105 200.697 127.609 197.468 123.607 195.569C119.963 193.842 115.13 194.394 114.083 198.909C113.309 202.25 114.531 206.022 116.126 209.19Z" fill="#11A88E"/>
<path d="M87.0573 196.194C87.0853 196.415 87.1143 196.634 87.1459 196.857C87.3557 196.823 87.5663 196.787 87.7779 196.748C88.495 196.614 89.2086 196.442 89.9109 196.233C95.5181 194.584 99.4874 190.517 103.648 186.646C105.724 184.714 107.899 182.808 110.442 181.515C113.476 179.972 116.83 179.603 120.137 180.426C123.797 181.335 127.079 183.367 130.088 185.587C132.78 187.572 135.304 189.789 137.622 192.204C138.838 193.475 139.997 194.796 141.094 196.163C141.065 195.772 141.037 195.385 141.008 195.001C139.672 193.382 138.246 191.837 136.742 190.369C132.101 185.836 126.345 181.109 119.868 179.674C113.748 178.318 108.666 181.219 104.257 185.18C99.7481 189.231 95.6691 193.881 89.6361 195.62C88.9936 195.803 88.3432 195.959 87.6892 196.082C87.4795 196.124 87.2714 196.16 87.0573 196.194Z" fill="#11A88E"/>
<path d="M162.136 290.297L163.925 303.708H174.762L174.248 291.216L162.136 290.297Z" fill="#F8A48F"/>
<path d="M201.472 320.897L160.481 320.742C160.178 320.188 160.015 319.402 159.95 318.463C159.708 314.997 160.834 309.466 161.388 305.979C161.456 305.572 161.514 305.192 161.559 304.847C161.636 304.265 161.685 303.779 161.686 303.423C161.697 300.575 164.216 301.072 164.216 301.072C168.348 305.155 173.068 299.073 175.803 301.084C175.803 301.084 176.981 301.937 180.224 304.876C183.466 307.817 188.995 309.769 193.699 311.758C199.773 314.323 201.488 316.87 201.818 318.62C202.077 320.008 201.472 320.897 201.472 320.897Z" fill="#DD4D36"/>
<path d="M201.509 320.824H160.518C160.213 320.27 160.048 319.485 159.979 318.547H201.846C202.112 319.934 201.509 320.824 201.509 320.824Z" fill="#93211E"/>
<path d="M164.704 320.826H163.487C164.702 319.437 165.839 317.308 165.69 314.263C165.492 310.212 163.062 307.482 161.373 306.059C161.439 305.651 161.496 305.271 161.539 304.926C163.36 306.318 166.427 309.363 166.665 314.213C166.809 317.122 165.853 319.291 164.704 320.826Z" fill="#93211E"/>
<path d="M179.513 307.292C179.209 307.292 178.933 307.087 178.857 306.78C178.767 306.416 178.988 306.051 179.35 305.96L181.912 305.325C182.273 305.234 182.639 305.455 182.73 305.818C182.82 306.18 182.6 306.546 182.236 306.636L179.676 307.272C179.621 307.285 179.565 307.292 179.513 307.292Z" fill="white"/>
<path d="M176.961 305.163C176.657 305.163 176.383 304.958 176.306 304.651C176.216 304.289 176.436 303.922 176.8 303.833L179.36 303.196C179.722 303.105 180.089 303.326 180.179 303.689C180.269 304.052 180.048 304.417 179.686 304.509L177.125 305.143C177.07 305.158 177.015 305.163 176.961 305.163Z" fill="white"/>
<path d="M182.067 308.792C181.763 308.792 181.489 308.587 181.412 308.28C181.322 307.918 181.542 307.551 181.906 307.462L184.466 306.825C184.828 306.734 185.195 306.955 185.284 307.318C185.375 307.679 185.154 308.046 184.791 308.136L182.23 308.772C182.176 308.785 182.121 308.792 182.067 308.792Z" fill="white"/>
<path d="M184.625 310.223C184.321 310.223 184.047 310.018 183.97 309.709C183.88 309.347 184.1 308.98 184.464 308.891L187.024 308.254C187.387 308.165 187.753 308.386 187.843 308.748C187.933 309.111 187.712 309.477 187.35 309.567L184.788 310.203C184.734 310.216 184.679 310.223 184.625 310.223Z" fill="white"/>
<path d="M187.426 311.542C187.123 311.542 186.847 311.338 186.771 311.029C186.681 310.668 186.901 310.301 187.264 310.211L189.825 309.575C190.187 309.485 190.553 309.705 190.644 310.069C190.734 310.43 190.513 310.797 190.151 310.887L187.59 311.523C187.535 311.536 187.48 311.542 187.426 311.542Z" fill="white"/>
<path d="M190.453 312.668C190.15 312.668 189.875 312.463 189.798 312.154C189.708 311.792 189.929 311.427 190.292 311.336L192.852 310.7C193.215 310.61 193.581 310.831 193.671 311.194C193.762 311.556 193.541 311.922 193.178 312.012L190.617 312.648C190.563 312.661 190.508 312.668 190.453 312.668Z" fill="white"/>
<path d="M119.116 234.867C142.343 234.867 153.382 232.624 153.382 232.624C153.382 232.624 153.94 253.135 155.021 261.786C156.1 270.439 160.743 295.372 160.743 295.372L178.24 296.262C178.24 296.262 178.403 291.884 178.502 285.108V285.104C178.507 284.871 178.509 284.638 178.514 284.398C178.541 282.441 178.563 280.299 178.57 278.016V278.014C178.573 277.702 178.574 277.39 178.574 277.073C178.595 270.813 178.532 263.581 178.286 256.24V256.238C178.273 255.869 178.261 255.497 178.246 255.129V255.127C178.127 251.84 177.97 248.544 177.769 245.312C177.752 245.049 177.735 244.785 177.718 244.523C177.582 242.442 177.425 240.395 177.247 238.395C177.23 238.188 177.211 237.976 177.192 237.771C176.274 227.754 174.788 219.093 172.422 214.479C172.321 214.281 172.219 214.094 172.112 213.912C171.455 212.759 170.73 211.91 169.934 211.417C164.892 208.309 158.856 206.557 151.222 205.326C150.918 205.278 150.614 205.231 150.306 205.181C145.504 204.447 140.082 203.9 133.894 203.344C133.673 203.323 133.454 203.303 133.234 203.283H133.232C129.395 202.942 125.266 202.592 120.815 202.191C120.601 202.173 120.385 202.153 120.169 202.131C118.47 201.979 116.722 201.816 114.926 201.644C114.926 201.644 108.547 200.565 101.466 200.063C101.218 200.045 100.968 200.027 100.717 200.012C94.03 199.581 86.8964 199.713 84.0147 201.779C84.0129 201.778 75.6275 234.867 119.116 234.867Z" fill="#14130F"/>
<path d="M88.0768 201.439C88.1136 201.166 88.3621 200.975 88.6368 201.013C88.9089 201.049 89.0994 201.3 89.0625 201.572C89.0467 201.685 87.6212 212.893 93.8358 220.877C97.2995 225.328 102.487 227.979 109.254 228.755C122.878 230.317 135.514 228.973 143.876 228.085C150.624 227.367 154.696 226.934 156.068 228.146C157.316 229.249 157.789 235.554 158.585 247.538C159.385 259.595 161.316 278.987 163.797 289.536C163.486 289.661 162.958 289.243 162.641 289.352C160.117 278.716 158.399 259.751 157.593 247.605C157.251 242.47 156.957 238.037 156.599 234.678C156.114 230.129 155.646 229.099 155.411 228.891C154.368 227.969 149.785 228.456 143.982 229.073C135.577 229.967 122.875 231.318 109.142 229.742C102.097 228.934 96.6807 226.155 93.0459 221.482C86.5758 213.163 88.0127 201.912 88.0768 201.439Z" fill="#5C554C"/>
<path d="M177.881 291.045C178.131 291.045 178.339 290.842 178.355 290.578C178.37 290.303 178.171 290.067 177.91 290.051L160.079 288.923C159.814 288.905 159.593 289.115 159.578 289.389C159.562 289.664 159.762 289.898 160.023 289.916L177.853 291.044C177.862 291.044 177.872 291.045 177.881 291.045Z" fill="#5C554C"/>
<path d="M139.442 143.141C139.442 143.141 138.266 136.996 138.96 135C139.655 133.006 139.641 129.625 141.019 129.979C142.396 130.333 142.299 134.49 142.299 134.49L139.442 143.141Z" fill="#F9AE90"/>
<path d="M88.1124 129.735L88.8216 132.562C89.0595 133.487 89.2974 134.409 89.5484 135.327C90.0479 137.164 90.5552 138.996 91.0881 140.825C92.1616 144.478 93.2772 148.128 94.5184 151.771C95.7534 155.418 97.0648 159.065 98.6044 162.742C99.3725 164.582 100.191 166.433 101.123 168.322C102.066 170.221 103.081 172.13 104.552 174.247C104.926 174.78 105.336 175.328 105.817 175.91C106.304 176.491 106.842 177.097 107.574 177.765C107.928 178.091 108.358 178.447 108.838 178.799C109.328 179.152 109.914 179.527 110.623 179.878C111.33 180.227 112.191 180.565 113.236 180.779C113.758 180.885 114.311 180.957 114.896 180.98L115.112 180.987H115.265L115.567 180.982C115.774 180.978 115.954 180.964 116.145 180.951C117.638 180.824 118.754 180.478 119.674 180.13C120.601 179.773 121.338 179.391 122.007 179.01C123.325 178.246 124.345 177.48 125.283 176.722C127.134 175.202 128.621 173.688 130.036 172.168C131.441 170.651 132.737 169.127 133.984 167.592C135.229 166.06 136.421 164.518 137.582 162.967C138.743 161.42 139.854 159.846 140.901 158.238C141.951 156.632 142.945 154.993 143.876 153.315C144.343 152.476 144.791 151.626 145.221 150.764C145.439 150.334 145.643 149.895 145.85 149.454C145.953 149.235 146.055 149.014 146.153 148.789L146.454 148.093C147.644 145.348 146.383 142.159 143.638 140.97C141.64 140.103 139.405 140.536 137.878 141.897L137.646 142.106C137.332 142.387 136.985 142.716 136.665 143.034C136.339 143.355 136.009 143.675 135.689 144.003C135.047 144.654 134.41 145.311 133.785 145.975C132.531 147.298 131.308 148.639 130.101 149.981C128.895 151.321 127.71 152.67 126.535 154.006C125.354 155.339 124.162 156.645 122.956 157.9C121.751 159.157 120.532 160.366 119.316 161.478C118.108 162.584 116.873 163.609 115.783 164.358C115.249 164.728 114.74 165.025 114.43 165.155C114.283 165.215 114.181 165.239 114.235 165.198C114.285 165.169 114.492 165.057 115.058 164.996C115.133 164.987 115.197 164.985 115.288 164.98L115.416 164.977L115.612 164.978C115.964 164.991 116.288 165.03 116.581 165.09C117.171 165.208 117.595 165.38 117.89 165.516C118.186 165.655 118.378 165.781 118.496 165.858C118.608 165.926 118.678 165.986 118.698 165.99C118.754 166.024 118.681 165.925 118.59 165.782C118.496 165.633 118.366 165.426 118.227 165.186C117.947 164.7 117.63 164.087 117.319 163.427C117.007 162.763 116.687 162.054 116.382 161.311C115.765 159.827 115.176 158.239 114.617 156.612C113.504 153.351 112.471 149.946 111.501 146.503C110.542 143.052 109.613 139.561 108.745 136.047C108.307 134.291 107.873 132.532 107.457 130.77L106.83 128.131L106.237 125.545L106.202 125.392C105.053 120.385 100.063 117.257 95.0565 118.406C90.0488 119.554 86.9195 124.543 88.0685 129.551C88.0791 129.598 88.1019 129.688 88.1124 129.735Z" fill="#F9AE90"/>
<path d="M115.559 164.457C114.68 164.812 113.8 165.167 112.921 165.523C112.46 165.71 112.776 166.415 113.236 166.23C114.116 165.874 114.996 165.518 115.875 165.164C116.338 164.977 116.021 164.27 115.559 164.457Z" fill="#DF6A5D"/>
<path d="M117.177 163.92C116.018 165.057 115.327 166.531 115.164 168.145C115.111 168.678 114.282 168.589 114.337 168.054C114.522 166.217 115.331 164.568 116.647 163.278C117.03 162.902 117.557 163.548 117.177 163.92Z" fill="#DF6A5D"/>
<path d="M139.805 149.155C142.448 150.88 145.972 149.975 147.785 147.391C148.741 146.028 149.915 144.621 151.132 143.799C154.053 141.826 158.053 140.306 159.246 138.892C161.007 136.806 158.066 136.945 157.704 137.013C155.384 137.446 152.286 138.596 152.286 138.596C152.286 138.596 157.224 135.205 159.538 134.742C161.851 134.281 162.84 132.4 160.434 131.596C158.028 130.793 151.811 133.398 150.284 134.584C150.284 134.584 152.789 131.707 155.902 130.978C159.015 130.249 160.032 129.57 160.978 128.687C161.924 127.803 159.968 126.089 155.648 127.218C151.329 128.348 149.957 129.865 148.351 131.334C148.351 131.334 149.115 129.742 150.906 127.461C152.696 125.18 156.361 124.623 156.725 122.927C157.098 121.192 152.903 122.019 150.796 123.509C148.687 124.999 147.027 125.904 145.256 128.69C143.487 131.476 141.892 134.2 141.233 136.123C140.573 138.046 137.332 144.573 138.235 147.361C138.467 148.073 139.056 148.666 139.805 149.155Z" fill="#F9AE90"/>
<path d="M86.9553 126.551C86.9483 130.557 87.3828 135.028 87.8857 138.853C87.9147 139.088 87.9472 139.321 87.9779 139.549C88.638 144.42 89.3779 148.084 89.3779 148.084C91.0659 148.123 94.1513 147.474 97.6158 146.556C97.8335 146.498 98.053 146.44 98.2724 146.38C101.033 145.63 103.989 144.732 106.638 143.891C107.043 143.761 107.442 143.633 107.83 143.508C109.747 142.889 111.447 142.318 112.715 141.887H112.717C113.07 141.767 113.389 141.658 113.669 141.56C114.557 141.256 115.07 141.073 115.07 141.073C115.07 141.073 114.433 138.334 113.473 134.527C113.416 134.303 113.356 134.074 113.3 133.843C113.043 132.833 112.764 131.758 112.473 130.648C112.413 130.423 112.354 130.196 112.297 129.971C110.338 122.584 107.78 113.893 106.131 111.955C105.798 111.565 105.414 111.22 104.999 110.921C104.819 110.792 104.633 110.669 104.439 110.555C104.09 110.349 103.722 110.167 103.347 110.006C100.19 108.672 96.6248 108.764 93.7764 110.325C93.5921 110.42 93.4122 110.528 93.2375 110.64C92.3597 111.195 91.5627 111.9 90.8842 112.755C90.5901 113.124 90.2899 113.567 89.9906 114.067C89.8853 114.24 89.7826 114.418 89.6808 114.605C88.544 116.66 87.5004 119.465 87.1905 122.074C87.0501 123.266 86.9772 124.566 86.9623 125.926C86.957 126.135 86.9553 126.343 86.9553 126.551Z" fill="#047C6D"/>
<path d="M87.8789 138.852C87.9079 139.087 87.9404 139.319 87.9711 139.548C88.6953 139.704 89.4107 139.916 90.1111 140.187C93.2553 141.398 95.8719 143.709 97.609 146.555C97.8267 146.497 98.0462 146.438 98.2656 146.378C96.5013 143.414 93.8258 140.993 90.5825 139.669C89.7047 139.308 88.7989 139.039 87.8789 138.852Z" fill="#11A88E"/>
<path d="M89.6804 114.608C89.9885 114.686 90.2905 114.773 90.5933 114.872C94.6644 116.188 96.9756 119.303 99.0024 122.886C100.714 125.917 102.563 129.373 105.874 130.911C107.96 131.879 110.565 131.918 112.473 130.651C112.413 130.426 112.353 130.199 112.297 129.974C109.63 132.015 105.76 130.645 103.539 128.407C100.804 125.648 99.5273 121.854 97.1959 118.801C95.2806 116.286 92.7632 114.822 89.9894 114.07C89.8841 114.244 89.7814 114.421 89.6804 114.608Z" fill="#11A88E"/>
<path d="M86.9491 126.55C90.2249 126.245 93.2163 128.847 95.0096 131.486C96.8328 134.165 98.0775 137.217 100.188 139.701C101.873 141.684 104.136 143.16 106.631 143.889C107.037 143.759 107.436 143.632 107.824 143.506C103.839 142.693 100.91 140.052 98.8297 136.652C96.9925 133.652 95.5539 130.242 92.7731 127.959C91.1229 126.603 89.0338 125.78 86.9561 125.927C86.9508 126.134 86.9491 126.342 86.9491 126.55Z" fill="#11A88E"/>
<path d="M112.71 141.888H112.712C113.065 141.767 113.384 141.658 113.664 141.56C111.384 140.667 109.254 139.099 110.932 136.764C111.586 135.854 112.469 135.109 113.467 134.528C113.41 134.304 113.351 134.075 113.295 133.844C111.784 134.657 110.505 135.799 109.877 137.292C108.959 139.47 110.677 140.961 112.71 141.888Z" fill="#11A88E"/>
<path d="M92.7991 110.227C92.9439 110.367 93.0887 110.506 93.2335 110.643C95.2989 112.601 97.5408 114.22 100.525 113.998C102.516 113.851 104.162 112.726 104.996 110.924C105.019 110.873 105.042 110.825 105.064 110.775C105.744 109.19 105.72 107.512 105.364 105.879C105.156 105.93 104.944 105.978 104.725 106.021C105.057 107.536 105.083 109.092 104.436 110.557C103.411 112.881 101.009 113.72 98.6257 113.191C96.7253 112.769 95.191 111.648 93.7734 110.327C93.5873 110.154 93.403 109.976 93.2186 109.796C93.0755 109.934 92.9377 110.077 92.7991 110.227Z" fill="#11A88E"/>
<path d="M87.6146 129.752C87.482 135.869 88.2001 141.951 89.7572 147.868C89.8652 148.278 89.2297 148.452 89.1226 148.042C87.5505 142.071 86.8211 135.924 86.9554 129.752C86.9659 129.328 87.6242 129.327 87.6146 129.752Z" fill="#083D3B"/>
<path d="M142.692 88.9626L139.066 88.3438C139.046 88.4974 139.009 88.6483 138.974 88.7993C138.968 88.8256 138.958 88.8502 138.948 88.8722L142.602 89.4945C142.748 89.52 142.888 89.4208 142.914 89.2742C142.939 89.1267 142.848 88.9845 142.692 88.9626Z" fill="#F8F0E1"/>
<path d="M132.926 86.741C132.926 86.7445 132.924 86.7498 132.924 86.7533C132.719 87.7469 132.204 88.6001 131.499 89.2295C130.455 90.1617 128.999 90.6076 127.525 90.303C126.65 90.1222 125.885 89.6999 125.284 89.1189C125.008 88.8547 124.764 88.5527 124.563 88.227C123.97 87.2694 123.729 86.0914 123.975 84.9029C124.008 84.7423 124.05 84.5843 124.101 84.4316C124.156 84.256 124.221 84.0884 124.297 83.9242C125.162 82.0317 127.252 80.9152 129.376 81.3523C129.392 81.3541 129.406 81.3594 129.421 81.3629C130.352 81.5639 131.154 82.0388 131.764 82.6857C132.433 83.3896 132.867 84.2999 132.986 85.2821C133.011 85.4647 133.021 85.6482 133.019 85.8334C133.02 86.1362 132.989 86.4381 132.926 86.741ZM132.395 86.6453C132.686 85.2347 132.198 83.8417 131.227 82.9148C130.699 82.4083 130.031 82.0423 129.265 81.8834C128.91 81.8097 128.555 81.786 128.21 81.8079C126.652 81.9001 125.262 82.9016 124.693 84.3807C124.689 84.3921 124.684 84.4044 124.679 84.4166C124.606 84.6089 124.549 84.8081 124.505 85.0144C124.3 86.0133 124.484 87.0017 124.953 87.8233C125.497 88.7748 126.424 89.5024 127.568 89.7579C127.591 89.764 127.612 89.7693 127.635 89.7737C129.809 90.2249 131.945 88.8195 132.395 86.6453Z" fill="#F8F0E1"/>
<path d="M143.51 88.9439C143.224 90.3343 142.327 91.4464 141.158 92.0644C140.849 92.2259 140.522 92.3541 140.18 92.4418C139.999 92.4901 139.812 92.5252 139.625 92.5507C139.558 92.5603 139.489 92.5674 139.42 92.5709C138.992 92.6095 138.551 92.584 138.111 92.4936C138.068 92.4848 138.024 92.4761 137.982 92.4629C137.896 92.4453 137.813 92.4216 137.729 92.3971C137.177 92.2329 136.677 91.9705 136.244 91.6343C134.908 90.5985 134.197 88.857 134.562 87.0936C134.616 86.8303 134.693 86.5748 134.791 86.3334C134.793 86.3229 134.797 86.315 134.8 86.3045C134.875 86.1201 134.962 85.9402 135.062 85.7708C135.439 85.0993 135.979 84.5445 136.617 84.1451C137.199 83.7826 137.861 83.5491 138.558 83.4745C138.808 83.4473 139.064 83.442 139.322 83.4587C139.533 83.4719 139.748 83.4991 139.962 83.5448C140.079 83.5693 140.192 83.5974 140.305 83.6308C140.468 83.6764 140.627 83.7317 140.782 83.7958C140.912 83.8511 141.039 83.909 141.163 83.9749C142.918 84.8991 143.933 86.9066 143.51 88.9439ZM141.068 84.5419C140.952 84.4726 140.83 84.4093 140.705 84.3549C140.549 84.2821 140.388 84.2206 140.22 84.1688C140.1 84.132 139.977 84.1012 139.85 84.0749C139.677 84.0389 139.504 84.0152 139.331 84.0021C139.232 83.9959 139.135 83.9907 139.038 83.9907C138.435 83.9907 137.854 84.1267 137.329 84.3742C136.481 84.7719 135.777 85.4609 135.373 86.3422C135.249 86.6126 135.153 86.9022 135.091 87.2051C134.812 88.5559 135.246 89.8902 136.136 90.8145C136.2 90.882 136.268 90.947 136.337 91.0076C136.805 91.4342 137.379 91.7519 138.025 91.9213C138.049 91.9257 138.074 91.9318 138.097 91.9389C138.138 91.9476 138.178 91.9573 138.219 91.9652C138.66 92.0556 139.098 92.0705 139.522 92.0179C139.581 92.0117 139.639 92.003 139.696 91.9942C139.897 91.9608 140.092 91.9117 140.284 91.8502C140.589 91.7475 140.881 91.6132 141.152 91.4447C141.89 90.9874 142.483 90.2939 142.8 89.4469C142.846 89.331 142.885 89.2134 142.917 89.0914C142.941 89.008 142.961 88.9229 142.98 88.836C143.339 87.0997 142.518 85.3907 141.068 84.5419Z" fill="#F8F0E1"/>
<path d="M118.551 84.7465C118.52 84.7404 118.487 84.7281 118.459 84.7096C118.332 84.6289 118.295 84.4621 118.376 84.3366C120.193 81.4979 124.558 84.046 124.603 84.0715C124.731 84.1479 124.772 84.3138 124.697 84.4428C124.62 84.5709 124.455 84.6131 124.325 84.5376C124.287 84.5139 120.367 82.2299 118.831 84.628C118.77 84.7246 118.658 84.7684 118.551 84.7465Z" fill="#F8F0E1"/>
<path d="M277.039 188.42V191.852C277.039 193.827 275.58 195.427 273.78 195.427H47.1077C45.3074 195.427 43.8503 193.827 43.8503 191.852V188.42C43.8503 186.447 45.3074 184.848 47.1077 184.848H273.78C275.58 184.848 277.039 186.447 277.039 188.42Z" fill="#856027"/>
<path d="M43.8503 189.504H277.039V191.074H43.8503V189.504Z" fill="#593D15"/>
<path d="M270.23 204.244H57.1584C56.2052 204.244 55.4318 203.611 55.4318 202.832V195.383H271.957V202.832C271.957 203.612 271.184 204.244 270.23 204.244Z" fill="#593D15"/>
<path d="M59.9211 247.992H241.383V254.068H59.9211V247.992Z" fill="#593D15"/>
<path d="M45.6381 329.39L75.8203 204.25H65.2204L35.0391 329.39H45.6381Z" fill="#856027"/>
<path d="M252.412 329.39L222.23 204.25H232.83L263.012 329.39H252.412Z" fill="#856027"/>
<path d="M84.714 180.759L81.4414 181.262L77.6548 156.59L80.9273 156.088L84.714 180.759Z" fill="#DA7C2F"/>
<path d="M80.9297 156.081L77.6565 156.581L78.3771 154.083L78.7502 152.789L79.4945 153.912L80.9297 156.081Z" fill="#F89E72"/>
<path d="M84.71 180.767L81.4375 181.27L81.1623 179.476L84.4348 178.974L84.71 180.767Z" fill="#162318"/>
<path d="M84.7187 182.22L81.8817 182.656C81.7606 182.674 81.6482 182.591 81.6307 182.47L81.4455 181.26L84.7187 180.758L84.9039 181.97C84.9215 182.09 84.8389 182.203 84.7187 182.22Z" fill="#C24B2B"/>
<path d="M79.4961 153.912L78.3787 154.083L78.7517 152.789L79.4961 153.912Z" fill="#162318"/>
<path d="M80.9693 178.172L84.2422 177.672L84.4389 178.958L81.166 179.458L80.9693 178.172Z" fill="#B45126"/>
<path d="M78.6639 157.67L81.4623 175.94C81.4824 176.079 81.6124 176.174 81.7502 176.153C81.888 176.131 81.9837 176.002 81.9617 175.865L79.1634 157.593C79.1423 157.456 79.0133 157.359 78.8746 157.382C78.7368 157.402 78.6429 157.531 78.6639 157.67Z" fill="#B45126"/>
<path d="M79.9491 157.472L82.7474 175.742C82.7685 175.881 82.8975 175.976 83.0353 175.955C83.1731 175.933 83.2688 175.804 83.2469 175.667L80.4485 157.395C80.4275 157.256 80.2984 157.162 80.1606 157.183C80.0228 157.205 79.928 157.334 79.9491 157.472Z" fill="#B45126"/>
<path d="M86.9242 181.158L83.6133 181.168L83.5359 156.206L86.8469 156.196L86.9242 181.158Z" fill="#856027"/>
<path d="M86.8438 156.195L83.5328 156.207L84.616 153.842L85.1769 152.617L85.7457 153.838L86.8438 156.195Z" fill="#F89E72"/>
<path d="M86.9281 181.154L83.6172 181.164L83.6116 179.351L86.9225 179.34L86.9281 181.154Z" fill="#162318"/>
<path d="M86.7111 182.593L83.8399 182.604C83.7179 182.604 83.6196 182.506 83.6187 182.384L83.6152 181.159L86.9253 181.148L86.9297 182.373C86.9306 182.494 86.8314 182.593 86.7111 182.593Z" fill="#C24B2B"/>
<path d="M85.75 153.838L84.6203 153.842L85.1812 152.617L85.75 153.838Z" fill="#162318"/>
<path d="M83.607 178.043L86.918 178.031L86.9227 179.332L83.6117 179.344L83.607 178.043Z" fill="#593D15"/>
<path d="M84.3674 157.433L84.428 175.918C84.428 176.059 84.5421 176.17 84.6817 176.17C84.8213 176.17 84.9336 176.057 84.9336 175.917L84.8739 157.432C84.873 157.293 84.7589 157.18 84.6194 157.18C84.4807 157.181 84.3674 157.294 84.3674 157.433Z" fill="#593D15"/>
<path d="M85.6604 157.429L85.721 175.914C85.721 176.055 85.8351 176.166 85.9746 176.166C86.1142 176.166 86.2274 176.053 86.2266 175.913L86.166 157.428C86.166 157.289 86.0519 157.176 85.9123 157.176C85.7727 157.176 85.6604 157.291 85.6604 157.429Z" fill="#593D15"/>
<path d="M89.0278 181.244L85.75 180.777L89.2643 156.068L92.5421 156.534L89.0278 181.244Z" fill="#344B86"/>
<path d="M92.5664 156.538L89.2888 156.074L90.7003 153.889L91.4314 152.758L91.8185 154.047L92.5664 156.538Z" fill="#F89E72"/>
<path d="M89.0318 181.247L85.7539 180.781L86.0091 178.987L89.287 179.453L89.0318 181.247Z" fill="#162318"/>
<path d="M88.6373 182.648L85.7959 182.244C85.6748 182.226 85.5914 182.115 85.6081 181.995L85.781 180.781L89.0586 181.247L88.8857 182.461C88.869 182.582 88.7575 182.665 88.6373 182.648Z" fill="#C24B2B"/>
<path d="M91.8125 154.047L90.6942 153.889L91.4254 152.758L91.8125 154.047Z" fill="#162318"/>
<path d="M86.2339 177.71L89.5117 178.176L89.3287 179.463L86.0508 178.997L86.2339 177.71Z" fill="#132549"/>
<path d="M89.9308 157.404L87.3308 175.706C87.3115 175.844 87.4072 175.973 87.545 175.992C87.6837 176.01 87.8118 175.915 87.8312 175.778L90.4311 157.476C90.4504 157.337 90.3548 157.21 90.2161 157.19C90.0783 157.171 89.9501 157.267 89.9308 157.404Z" fill="#132549"/>
<path d="M91.2198 157.588L88.6199 175.889C88.6006 176.028 88.6963 176.155 88.8341 176.176C88.9728 176.194 89.1009 176.098 89.1202 175.96L91.7202 157.66C91.7395 157.521 91.6438 157.392 91.5051 157.374C91.3673 157.354 91.2392 157.449 91.2198 157.588Z" fill="#132549"/>
<path d="M93.6328 166.07L93.4608 167.41L93.3036 168.626L93.0649 170.473L92.9104 171.675L92.6708 173.537L92.5163 174.723L92.2749 176.601L92.123 177.772L91.8781 179.663L91.7307 180.82L91.4831 182.728L91.3348 183.868L91.2084 184.856H78.1972L78.0699 183.868L77.9216 182.728L77.6758 180.82L77.5274 179.663L77.2834 177.772L77.1316 176.601L76.8893 174.723L76.7357 173.537L76.4943 171.675L76.3407 170.473L76.1019 168.626L75.9448 167.41L75.7728 166.07H93.6328Z" fill="#C24B2B"/>
<path d="M93.4648 167.406L93.3077 168.622H76.106L75.9489 167.406H93.4648Z" fill="#8B2E1C"/>
<path d="M93.0703 170.473L92.9158 171.674H76.4997L76.3461 170.473H93.0703Z" fill="#8B2E1C"/>
<path d="M92.6797 173.531L92.5252 174.718H76.8982L76.7446 173.531H92.6797Z" fill="#8B2E1C"/>
<path d="M92.2812 176.594L92.1294 177.765H77.2898L77.1379 176.594H92.2812Z" fill="#8B2E1C"/>
<path d="M91.8867 179.664L91.7393 180.821H77.6844L77.536 179.664H91.8867Z" fill="#8B2E1C"/>
<path d="M91.4805 182.723L91.3321 183.863H78.0672L77.9189 182.723H91.4805Z" fill="#8B2E1C"/>
<path d="M134.746 184.818H227.888L228.898 182.531C229.534 181.093 227.875 179.66 225.576 179.66H139.63C138.087 179.66 136.733 180.324 136.306 181.288L134.746 184.818Z" fill="white"/>
<path d="M246.462 123.776L235.239 171.248C234.939 172.513 233.81 173.406 232.51 173.406H163.367C161.556 173.406 160.221 171.717 160.638 169.957L171.862 122.486C172.162 121.221 173.29 120.328 174.59 120.328H243.733C245.543 120.327 246.879 122.016 246.462 123.776Z" fill="white"/>
<path d="M212.869 148.73C212.54 151.717 209.851 154.14 206.863 154.14C203.875 154.14 201.721 151.717 202.05 148.73C202.379 145.742 205.068 143.32 208.055 143.32C211.043 143.32 213.198 145.742 212.869 148.73Z" fill="#272737"/>
<path d="M177.332 120.328L165.382 173.406H163.369C161.558 173.406 160.223 171.717 160.64 169.957L171.864 122.486C172.164 121.221 173.293 120.328 174.593 120.328H177.332Z" fill="#272737"/>
<path d="M197.365 173.406L195.008 184.683H201.936L204.293 173.406H197.365Z" fill="#272737"/>
<path d="M184.91 182.776L186.329 180.783C186.835 180.071 187.655 179.648 188.529 179.648H207.523C208.528 179.648 209.449 180.207 209.915 181.097L210.871 182.926C211.319 183.782 210.698 184.806 209.733 184.806H185.958C184.914 184.806 184.305 183.627 184.91 182.776Z" fill="white"/>
<path d="M321.259 287.109C321.259 287.109 344.701 235.386 321.593 231.366C303.933 228.292 305.888 263.917 321.259 287.109Z" fill="#07A36D"/>
<path d="M321.65 320.396C321.65 320.396 321.652 320.396 321.654 320.396C321.867 320.394 322.038 320.219 322.035 320.006C321.85 302.33 320.553 252.726 320.539 252.228C320.534 252.013 320.359 251.844 320.144 251.852C319.931 251.857 319.763 252.034 319.769 252.247C319.782 252.745 321.079 302.344 321.264 320.014C321.266 320.225 321.439 320.396 321.65 320.396Z" fill="#3E3F1A"/>
<path d="M326.611 300.875C326.611 300.875 361.89 267.396 349.173 254.209C335.148 239.664 324.434 277.067 326.611 300.875Z" fill="#07A36D"/>
<path d="M322.842 317.369C323.042 317.369 323.21 317.215 323.227 317.014C324.342 302.839 338.463 271.788 338.605 271.475C338.695 271.282 338.608 271.055 338.415 270.964C338.221 270.876 337.993 270.962 337.904 271.156C337.761 271.468 323.583 302.642 322.457 316.953C322.44 317.165 322.599 317.352 322.812 317.369C322.822 317.369 322.832 317.369 322.842 317.369Z" fill="#3E3F1A"/>
<path d="M315.723 299.988C315.723 299.988 278.861 268.262 290.924 254.472C304.226 239.264 316.742 276.104 315.723 299.988Z" fill="#07A36D" stroke="#2E3192" stroke-miterlimit="10"/>
<path d="M320.274 316.286C320.29 316.286 320.307 316.285 320.323 316.282C320.535 316.257 320.684 316.063 320.657 315.852C318.838 301.611 303.164 271.163 303.006 270.856C302.908 270.668 302.676 270.594 302.486 270.691C302.297 270.788 302.224 271.021 302.321 271.21C302.478 271.515 318.092 301.844 319.893 315.948C319.918 316.143 320.083 316.286 320.274 316.286Z" fill="#07A36D" stroke="#2E3192" stroke-miterlimit="10"/>
<path d="M307.916 330.346L302.451 315.625L302.061 314.585L300.908 311.526L300.516 310.487L299.393 307.508L299.003 306.467L298.384 304.825C297.961 303.701 298.792 302.5 299.993 302.5H341.798C343 302.5 343.831 303.701 343.407 304.825L342.789 306.467L342.398 307.508L341.276 310.487L340.885 311.526L339.732 314.585L339.342 315.625L333.68 330.346H307.916Z" fill="#162318"/>
<path d="M299.011 306.477L299.402 307.517H342.406L342.797 306.477H299.011Z" fill="#554830"/>
<path d="M300.521 310.484L300.913 311.523H340.89L341.281 310.484H300.521Z" fill="#554830"/>
<path d="M302.067 314.578L302.458 315.617H339.348L339.738 314.578H302.067Z" fill="#554830"/>
</svg>
