<svg width="432" height="361" viewBox="0 0 432 361" fill="none" xmlns="http://www.w3.org/2000/svg">
<path d="M207.328 310.424C286.424 310.424 350.544 307.117 350.544 303.036C350.544 298.956 286.424 295.648 207.328 295.648C128.233 295.648 64.1133 298.956 64.1133 303.036C64.1133 307.117 128.233 310.424 207.328 310.424Z" fill="#CED4E7"/>
<g opacity="0.8">
<g opacity="0.5">
<path d="M224.524 122.281C205.781 119.338 188.018 111.222 172.689 98.9156C149.794 80.535 101.881 49.2568 56.1756 64.837C-6.86635 86.3259 -7.14772 148.492 9.27351 182.261C25.694 216.03 142.141 314.918 293.105 299.184C428.195 285.104 454.521 123.932 382.472 94.7684C319.982 69.4729 298.663 133.924 224.524 122.281Z" fill="#CED4E7"/>
</g>
<g opacity="0.5">
<path d="M419.014 105.131C422.25 105.131 424.872 102.128 424.872 98.4247C424.872 94.7211 422.25 91.7188 419.014 91.7188C415.779 91.7188 413.156 94.7211 413.156 98.4247C413.156 102.128 415.779 105.131 419.014 105.131Z" fill="#CED4E7"/>
</g>
<path d="M36.5808 54.2546C38.3789 53.9031 40.1973 54.9607 40.8301 56.7845C41.9088 59.8967 39.0827 63.3806 35.2785 61.8179C31.9964 59.2342 33.425 54.8719 36.5808 54.2546Z" fill="#CED4E7"/>
<path d="M403.017 46.6006C407.231 46.6006 410.647 42.9666 410.647 38.4839C410.647 34.0012 407.231 30.3672 403.017 30.3672C398.803 30.3672 395.387 34.0012 395.387 38.4839C395.387 42.9666 398.803 46.6006 403.017 46.6006Z" fill="#CED4E7"/>
<g opacity="0.8">
<path d="M59.7117 47.8554C60.8613 52.2154 58.4693 56.7414 54.3696 57.9635C50.2708 59.1856 46.016 56.6416 44.8664 52.2817C43.7168 47.9209 46.1088 43.3957 50.2084 42.1736C54.3073 40.9515 58.562 43.4947 59.7117 47.8554Z" fill="#CED4E7"/>
</g>
<path d="M364.688 292.125C366.393 291.425 368.364 292.103 369.305 293.77C370.91 296.614 368.741 300.597 364.731 299.815C361.054 297.924 361.695 293.356 364.688 292.125Z" fill="#CED4E7"/>
<path d="M386.304 281.257C388.196 285.314 386.637 290.235 382.823 292.246C379.009 294.258 374.384 292.6 372.492 288.543C370.6 284.487 372.158 279.566 375.973 277.555C379.787 275.543 384.412 277.201 386.304 281.257Z" fill="#CED4E7"/>
<path d="M388.643 31.0599C391.235 31.0599 393.336 28.8246 393.336 26.0671C393.336 23.3096 391.235 21.0742 388.643 21.0742C386.051 21.0742 383.949 23.3096 383.949 26.0671C383.949 28.8246 386.051 31.0599 388.643 31.0599Z" fill="#CED4E7"/>
</g>
<g opacity="0.8">
<path d="M405.841 110.808C405.835 68.8731 372.61 22.9218 331.259 20.1464C330.533 20.0973 329.799 20.0552 329.058 20.0186C269.778 17.1153 265.261 93.0985 211.626 101.668C157.993 110.238 117.033 66.9752 52.8559 95.2013C-4.78326 120.552 -20.3956 263 148.959 268.713C284.457 273.283 405.859 235.923 405.841 110.808Z" fill="#BFD0EA"/>
</g>
<path d="M321.373 306.922H131.32V298.692C131.32 291.838 136.877 286.281 143.732 286.281H308.962C315.817 286.281 321.373 291.838 321.373 298.692V306.922Z" fill="white"/>
<path d="M260.245 242.062H191.355V286.289H260.245V242.062Z" fill="white"/>
<path d="M191.363 255.643L260.252 250.128L260.263 242.062L191.373 242.145L191.363 255.643Z" fill="#CED4E7"/>
<path d="M373.199 59.4391V232.877C373.199 237.96 369.076 242.082 363.993 242.082H81.5532C76.4699 242.082 72.3477 237.96 72.3477 232.877V59.4391C72.3477 54.3566 76.4691 50.2344 81.5532 50.2344H363.993C364.132 50.2344 364.267 50.2367 364.402 50.2437C364.503 50.2484 364.602 50.2531 364.701 50.2617H364.712C364.783 50.2663 364.855 50.2733 364.924 50.2827C365.044 50.2921 365.162 50.3076 365.281 50.324C365.359 50.3334 365.434 50.3443 365.512 50.3606C365.549 50.3653 365.587 50.3723 365.624 50.3786C365.698 50.3903 365.772 50.4035 365.847 50.4222C370.043 51.2811 373.199 54.9918 373.199 59.4391Z" fill="white"/>
<path d="M225.769 235.992C229.284 235.992 232.132 233.143 232.132 229.629C232.132 226.114 229.284 223.266 225.769 223.266C222.255 223.266 219.406 226.114 219.406 229.629C219.406 233.143 222.255 235.992 225.769 235.992Z" fill="#CED4E7"/>
<path d="M365.847 50.4222C365.772 50.4043 365.698 50.3903 365.624 50.3786C365.587 50.3716 365.549 50.3645 365.512 50.3606C365.434 50.3443 365.359 50.3326 365.281 50.324C365.162 50.3076 365.044 50.2921 364.924 50.2827C364.854 50.2733 364.783 50.2663 364.712 50.2617H364.701C364.602 50.2523 364.503 50.2476 364.402 50.2437C364.267 50.2367 364.131 50.2344 363.993 50.2344H81.5532C76.4699 50.2344 72.3477 54.3559 72.3477 59.4391V220.051H373.199V59.4391C373.199 54.9918 370.043 51.2811 365.847 50.4222ZM361.265 204.007C361.265 205.391 360.144 206.512 358.761 206.512H86.7845C85.4011 206.512 84.2803 205.391 84.2803 204.007V64.6713C84.2803 63.2878 85.4011 62.1678 86.7845 62.1678H358.761C360.144 62.1678 361.265 63.2878 361.265 64.6713V204.007Z" fill="#373739"/>
<path d="M361.27 64.6675V204.004C361.27 205.387 360.149 206.508 358.766 206.508H86.7894C85.4059 206.508 84.2852 205.387 84.2852 204.004V64.6675C84.2852 63.2841 85.4059 62.1641 86.7894 62.1641H358.766C360.15 62.1641 361.27 63.2841 361.27 64.6675Z" fill="#CED4E7"/>
<path d="M361.273 64.6675V77.8168H84.2891V64.6675C84.2891 63.2841 85.4098 62.1641 86.7933 62.1641H358.77C360.153 62.1641 361.273 63.2841 361.273 64.6675Z" fill="white"/>
<path d="M337.697 71.9102C338.872 71.9102 339.824 70.9579 339.824 69.7832C339.824 68.6085 338.872 67.6562 337.697 67.6562C336.523 67.6562 335.57 68.6085 335.57 69.7832C335.57 70.9579 336.523 71.9102 337.697 71.9102Z" fill="#F1625E"/>
<path d="M344.588 71.9102C345.763 71.9102 346.715 70.9579 346.715 69.7832C346.715 68.6085 345.763 67.6562 344.588 67.6562C343.413 67.6562 342.461 68.6085 342.461 69.7832C342.461 70.9579 343.413 71.9102 344.588 71.9102Z" fill="#00A86E"/>
<path d="M326.932 72.0323H110.375C109.331 72.0323 108.477 71.1781 108.477 70.1345V69.4291C108.477 68.3855 109.331 67.5312 110.375 67.5312H326.932C327.975 67.5312 328.829 68.3847 328.829 69.4291V70.1345C328.829 71.1781 327.975 72.0323 326.932 72.0323Z" fill="#D0DDED"/>
<path d="M94.2935 69.7779V71.8604C94.2935 72.1543 93.9755 72.3382 93.7199 72.1909L91.9164 71.1496L90.1136 70.1083C89.858 69.961 89.858 69.5931 90.1136 69.4466L91.9164 68.4053L93.7199 67.3641C93.9755 67.2175 94.2935 67.4007 94.2935 67.6945V69.7779Z" fill="#010101"/>
<path d="M97.4648 69.7779V71.8604C97.4648 72.1543 97.7828 72.3382 98.0369 72.1909L99.8405 71.1496L101.644 70.1083C101.898 69.961 101.898 69.5931 101.644 69.4466L99.8405 68.4053L98.0369 67.3641C97.7828 67.2175 97.4648 67.4007 97.4648 67.6945V69.7779Z" fill="#010101"/>
<path d="M349.594 71.5722L349.466 71.4436C349.267 71.2449 349.267 70.9214 349.466 70.7227L352.355 67.8327C352.555 67.6339 352.877 67.6339 353.077 67.8327L353.205 67.9613C353.404 68.16 353.404 68.4835 353.205 68.683L350.316 71.5722C350.116 71.7718 349.793 71.7718 349.594 71.5722Z" fill="#373739"/>
<path d="M353.077 71.5722L353.205 71.4436C353.404 71.2449 353.404 70.9214 353.205 70.7227L350.316 67.8327C350.116 67.6339 349.793 67.6339 349.594 67.8327L349.466 67.9613C349.267 68.16 349.267 68.4835 349.466 68.683L352.355 71.5722C352.555 71.7718 352.877 71.7718 353.077 71.5722Z" fill="#373739"/>
<path d="M324.598 200.115H120.986C118.221 200.115 115.98 196.896 115.98 192.926V35.1025C115.98 31.1322 118.221 27.9141 120.986 27.9141H324.598C327.362 27.9141 329.604 31.1322 329.604 35.1025V192.926C329.604 196.896 327.362 200.115 324.598 200.115Z" fill="white"/>
<path d="M319.085 81.8254H269.634C268.337 81.8254 267.285 80.3149 267.285 78.4522V41.5459C267.285 39.6824 268.337 38.1719 269.634 38.1719H319.085C320.383 38.1719 321.434 39.6824 321.434 41.5459V78.4522C321.434 80.3149 320.383 81.8254 319.085 81.8254Z" fill="#CED4E7"/>
<path d="M176.01 78.9826H124.268C123.581 78.9826 123.023 78.1837 123.023 77.1962V77.0325C123.023 76.0465 123.581 75.2461 124.268 75.2461H176.01C176.697 75.2461 177.253 76.0465 177.253 77.0325V77.1962C177.253 78.1837 176.697 78.9826 176.01 78.9826Z" fill="#CED4E7"/>
<path d="M176.01 63.1747H124.268C123.581 63.1747 123.023 62.3751 123.023 61.3876V61.2247C123.023 60.2379 123.581 59.4375 124.268 59.4375H176.01C176.697 59.4375 177.253 60.2379 177.253 61.2247V61.3876C177.253 62.3751 176.697 63.1747 176.01 63.1747Z" fill="#CED4E7"/>
<path d="M176.01 94.7911H124.268C123.581 94.7911 123.023 93.9907 123.023 93.0048V92.8411C123.023 91.8551 123.581 91.0547 124.268 91.0547H176.01C176.697 91.0547 177.253 91.8543 177.253 92.8411V93.0048C177.253 93.9907 176.697 94.7911 176.01 94.7911Z" fill="#CED4E7"/>
<path d="M176.01 125.377H124.268C123.581 125.377 123.023 124.578 123.023 123.591V123.427C123.023 122.441 123.581 121.641 124.268 121.641H176.01C176.697 121.641 177.253 122.441 177.253 123.427V123.591C177.253 124.579 176.697 125.377 176.01 125.377Z" fill="#CED4E7"/>
<path d="M176.01 109.565H124.268C123.581 109.565 123.023 108.766 123.023 107.778V107.615C123.023 106.629 123.581 105.828 124.268 105.828H176.01C176.697 105.828 177.253 106.629 177.253 107.615V107.778C177.253 108.766 176.697 109.565 176.01 109.565Z" fill="#CED4E7"/>
<path d="M176.01 141.19H124.268C123.581 141.19 123.023 140.389 123.023 139.403V139.24C123.023 138.254 123.581 137.453 124.268 137.453H176.01C176.697 137.453 177.253 138.253 177.253 139.24V139.403C177.253 140.389 176.697 141.19 176.01 141.19Z" fill="#CED4E7"/>
<path d="M176.01 171.506H124.268C123.581 171.506 123.023 170.707 123.023 169.72V169.556C123.023 168.57 123.581 167.77 124.268 167.77H176.01C176.697 167.77 177.253 168.57 177.253 169.556V169.72C177.253 170.707 176.697 171.506 176.01 171.506Z" fill="#CED4E7"/>
<path d="M176.01 155.698H124.268C123.581 155.698 123.023 154.899 123.023 153.911V153.748C123.023 152.761 123.581 151.961 124.268 151.961H176.01C176.697 151.961 177.253 152.761 177.253 153.748V153.911C177.253 154.899 176.697 155.698 176.01 155.698Z" fill="#CED4E7"/>
<path d="M176.01 187.311H124.268C123.581 187.311 123.023 186.51 123.023 185.524V185.361C123.023 184.375 123.581 183.574 124.268 183.574H176.01C176.697 183.574 177.253 184.374 177.253 185.361V185.524C177.253 186.51 176.697 187.311 176.01 187.311Z" fill="#CED4E7"/>
<path d="M248.654 115.311H196.913C196.225 115.311 195.668 114.512 195.668 113.524V113.361C195.668 112.375 196.225 111.574 196.913 111.574H248.654C249.342 111.574 249.898 112.375 249.898 113.361V113.524C249.898 114.512 249.342 115.311 248.654 115.311Z" fill="#CED4E7"/>
<path d="M248.654 99.5029H196.913C196.225 99.5029 195.668 98.7032 195.668 97.7157V97.5528C195.668 96.5661 196.225 95.7656 196.913 95.7656H248.654C249.342 95.7656 249.898 96.5661 249.898 97.5528V97.7157C249.898 98.7032 249.342 99.5029 248.654 99.5029Z" fill="#CED4E7"/>
<path d="M248.654 131.119H196.913C196.225 131.119 195.668 130.319 195.668 129.333V129.169C195.668 128.183 196.225 127.383 196.913 127.383H248.654C249.342 127.383 249.898 128.182 249.898 129.169V129.333C249.898 130.319 249.342 131.119 248.654 131.119Z" fill="#CED4E7"/>
<path d="M248.654 160.756H196.913C196.225 160.756 195.668 159.957 195.668 158.97V158.806C195.668 157.82 196.225 157.02 196.913 157.02H248.654C249.342 157.02 249.898 157.82 249.898 158.806V158.97C249.898 159.957 249.342 160.756 248.654 160.756Z" fill="#CED4E7"/>
<path d="M248.654 144.948H196.913C196.225 144.948 195.668 144.149 195.668 143.161V142.998C195.668 142.011 196.225 141.211 196.913 141.211H248.654C249.342 141.211 249.898 142.011 249.898 142.998V143.161C249.898 144.149 249.342 144.948 248.654 144.948Z" fill="#CED4E7"/>
<path d="M248.654 176.565H196.913C196.225 176.565 195.668 175.764 195.668 174.778V174.615C195.668 173.629 196.225 172.828 196.913 172.828H248.654C249.342 172.828 249.898 173.628 249.898 174.615V174.778C249.898 175.764 249.342 176.565 248.654 176.565Z" fill="#CED4E7"/>
<path d="M320.19 116.022H268.529C267.842 116.022 267.285 115.223 267.285 114.235V114.072C267.285 113.086 267.842 112.285 268.529 112.285H320.19C320.878 112.285 321.434 113.086 321.434 114.072V114.235C321.434 115.222 320.878 116.022 320.19 116.022Z" fill="#CED4E7"/>
<path d="M320.19 100.21H268.529C267.842 100.21 267.285 99.411 267.285 98.4227V98.2598C267.285 97.2723 267.842 96.4727 268.529 96.4727H320.19C320.878 96.4727 321.434 97.2723 321.434 98.2598V98.4227C321.434 99.411 320.878 100.21 320.19 100.21Z" fill="#CED4E7"/>
<path d="M320.19 131.83H268.529C267.842 131.83 267.285 131.031 267.285 130.044V129.88C267.285 128.894 267.842 128.094 268.529 128.094H320.19C320.878 128.094 321.434 128.894 321.434 129.88V130.044C321.434 131.03 320.878 131.83 320.19 131.83Z" fill="#CED4E7"/>
<path d="M209.784 48.44V53.432H203.768V71H197.496V53.432H191.544V48.44H209.784ZM226.377 67.32H218.377L217.161 71H210.569L218.793 48.44H226.025L234.217 71H227.593L226.377 67.32ZM224.809 62.52L222.377 55.224L219.977 62.52H224.809ZM250.373 71L245.989 64.632L242.245 71H235.109L242.437 59.448L234.853 48.44H242.245L246.501 54.648L250.149 48.44H257.285L250.053 59.8L257.765 71H250.373Z" fill="black"/>
<path d="M304.054 142.077L303.407 176.888C303.371 178.76 301.828 180.249 299.954 180.214L272.385 179.701C270.514 179.666 269.026 178.121 269.059 176.249L269.707 141.438L304.054 142.077Z" fill="#C5DAF1"/>
<path d="M291.871 175.836L295.211 175.898L295.362 167.829L292.022 167.767L291.871 175.836Z" fill="#1E51A4"/>
<path d="M286.955 175.758L290.293 175.82L290.552 162.021L287.214 161.959L286.955 175.758Z" fill="#273372"/>
<path d="M281.496 175.645L284.836 175.707L285.171 157.68L281.831 157.618L281.496 175.645Z" fill="#1E51A4"/>
<path d="M276.144 175.555L279.48 175.617L279.91 152.626L276.574 152.564L276.144 175.555Z" fill="#273372"/>
<path d="M282.791 149.138L280.461 149.944L280.778 147.238L282.791 149.138Z" fill="#517ABD"/>
<path d="M296.334 163.938C296.434 163.941 296.532 163.88 296.57 163.78C296.621 163.652 296.559 163.506 296.43 163.455C296.329 163.415 286.352 159.378 281.643 148.936C281.586 148.81 281.439 148.755 281.31 148.811C281.185 148.869 281.13 149.016 281.186 149.142C285.982 159.774 296.143 163.88 296.246 163.92C296.274 163.932 296.304 163.938 296.334 163.938Z" fill="#517ABD"/>
<path d="M269.744 140.155L269.656 144.852L304.002 145.492L304.089 140.795C304.107 139.859 303.361 139.087 302.425 139.069L271.467 138.493C270.533 138.475 269.761 139.219 269.744 140.155Z" fill="#14130F"/>
<path d="M279.143 142.642C279.76 142.642 280.26 142.143 280.26 141.526C280.26 140.91 279.76 140.41 279.143 140.41C278.527 140.41 278.027 140.91 278.027 141.526C278.027 142.143 278.527 142.642 279.143 142.642Z" fill="#5C554C"/>
<path d="M275.531 142.57C276.148 142.57 276.648 142.07 276.648 141.453C276.648 140.836 276.148 140.336 275.531 140.336C274.914 140.336 274.414 140.836 274.414 141.453C274.414 142.07 274.914 142.57 275.531 142.57Z" fill="#5C554C"/>
<path d="M272.065 142.498C272.682 142.498 273.181 141.998 273.181 141.382C273.181 140.765 272.682 140.266 272.065 140.266C271.449 140.266 270.949 140.765 270.949 141.382C270.949 141.998 271.449 142.498 272.065 142.498Z" fill="#5C554C"/>
<path d="M131 158C149.225 158 164 143.002 164 124.5C164 105.998 149.225 91 131 91C112.775 91 98 105.998 98 124.5C98 143.002 112.775 158 131 158Z" fill="#DD4D36"/>
<path d="M128.572 118.705C128.572 124.103 125.157 126.922 121.426 126.922C117.498 126.922 114.398 123.984 114.398 119.139C114.398 114.537 117.219 111.043 121.625 111.043C126.071 111.043 128.572 114.297 128.572 118.705ZM118.885 118.983C118.885 121.682 119.801 123.629 121.546 123.629C123.253 123.629 124.087 121.881 124.087 118.983C124.087 116.362 123.371 114.338 121.507 114.338C119.718 114.339 118.885 116.404 118.885 118.983ZM121.745 137.721L136.554 111.043H139.806L124.959 137.721H121.745ZM147.15 129.423C147.15 134.825 143.737 137.643 140.006 137.643C136.115 137.643 133.019 134.704 132.979 129.861C132.979 125.256 135.798 121.762 140.206 121.762C144.653 121.762 147.15 125.019 147.15 129.423ZM137.505 129.701C137.465 132.402 138.378 134.347 140.127 134.347C141.83 134.347 142.664 132.601 142.664 129.701C142.664 127.082 141.991 125.057 140.127 125.057C138.3 125.057 137.505 127.121 137.505 129.701Z" fill="white"/>
<path d="M369.311 109.381C365.559 108.403 361.726 110.652 360.75 114.402L360.733 114.467L359.715 118.369L358.67 122.286C357.966 124.897 357.249 127.502 356.518 130.102C356.064 131.707 355.606 133.31 355.138 134.91C355.05 135.217 354.96 135.522 354.87 135.828C354.325 137.685 353.768 139.534 353.195 141.367C353.195 141.369 353.195 141.369 353.195 141.369C353.098 141.69 352.996 142.012 352.894 142.332C352.561 143.393 352.221 144.45 351.875 145.499C351.633 146.233 351.388 146.964 351.135 147.687C350.965 147.291 350.796 146.894 350.631 146.492C350.465 146.095 350.303 145.693 350.144 145.291C350.02 144.987 349.9 144.68 349.783 144.372C349.586 143.87 349.393 143.363 349.204 142.855C348.976 142.241 348.752 141.625 348.535 141.008L348.209 140.082L347.904 139.184L347.862 139.059C347.018 136.6 344.397 135.189 341.856 135.885C339.212 136.608 337.653 139.338 338.376 141.984L338.667 143.043L338.957 144.068C339.085 144.517 339.218 144.968 339.352 145.416C339.414 145.63 339.481 145.845 339.545 146.059C339.55 146.075 339.555 146.089 339.559 146.104C339.972 147.458 340.407 148.813 340.875 150.17C341.345 151.529 341.843 152.893 342.411 154.278C342.695 154.972 342.997 155.669 343.329 156.382C343.409 156.551 343.488 156.724 343.573 156.895C343.701 157.158 343.835 157.425 343.976 157.698C344.131 157.99 344.292 158.286 344.466 158.59C344.685 158.975 344.926 159.368 345.205 159.785C345.488 160.202 345.802 160.636 346.227 161.123C346.439 161.367 346.679 161.622 346.973 161.895C347.27 162.168 347.618 162.462 348.082 162.768C348.302 162.91 348.546 163.059 348.829 163.2C349.024 163.298 349.235 163.395 349.467 163.485C349.625 163.545 349.792 163.603 349.971 163.658C350.385 163.785 350.859 163.884 351.376 163.927C351.451 163.932 351.527 163.939 351.603 163.941C351.79 163.949 351.981 163.95 352.176 163.942C352.451 163.932 352.731 163.903 353.01 163.857C353.561 163.763 354.098 163.597 354.568 163.389C354.623 163.367 354.707 163.328 354.78 163.292L355.004 163.176C355.151 163.098 355.313 163.007 355.406 162.945C355.516 162.877 355.622 162.804 355.727 162.73L355.808 162.674L355.871 162.628L355.991 162.534C356.069 162.472 356.149 162.409 356.225 162.343L356.406 162.183L356.409 162.179L356.589 162.014L356.731 161.872L356.871 161.727L356.991 161.599C357.062 161.518 357.147 161.423 357.207 161.352C357.718 160.736 358.009 160.29 358.284 159.863C358.814 159.021 359.193 158.308 359.559 157.601C360.276 156.198 360.874 154.875 361.453 153.552C362.027 152.233 362.569 150.926 363.093 149.622C365.184 144.41 367.064 139.229 368.899 134.028C369.813 131.429 370.711 128.828 371.594 126.225L372.909 122.312L374.209 118.374C374.252 118.24 374.299 118.083 374.336 117.945C375.311 114.192 373.062 110.358 369.311 109.381ZM354.259 153.55C354.33 153.606 354.373 153.649 354.4 153.676C354.441 153.721 354.444 153.733 354.427 153.723C354.402 153.707 354.334 153.641 354.259 153.55Z" fill="#E0615C"/>
<path d="M351.201 148.438C352.284 150.324 353.038 152.272 353.751 154.317C353.874 154.67 354.439 154.518 354.316 154.162C353.584 152.067 352.814 150.075 351.706 148.142C351.519 147.816 351.014 148.11 351.201 148.438Z" fill="#14130F" stroke="#C42C4C" stroke-miterlimit="10"/>
<path d="M352.941 151.539C353.721 151.856 354.551 152.335 355.073 153.01C355.303 153.307 355.714 152.891 355.486 152.597C354.902 151.841 353.965 151.329 353.096 150.976C352.748 150.834 352.596 151.4 352.941 151.539Z" fill="#14130F" stroke="#C42C4C" stroke-miterlimit="10"/>
<path d="M405.807 119.242C405.803 119.398 405.795 119.554 405.786 119.71C405.767 120.006 405.739 120.3 405.705 120.592C405.673 120.848 405.638 121.103 405.601 121.352C405.589 121.433 405.576 121.512 405.564 121.59C405.445 122.327 404.627 123.657 403.575 125.452C403.498 125.581 403.421 125.713 403.343 125.847C403.34 125.849 403.34 125.851 403.339 125.853C403.241 126.02 403.142 126.192 403.04 126.367V126.369C402.937 126.546 402.833 126.727 402.728 126.913C402.528 127.263 402.323 127.626 402.111 128C402.018 128.166 401.922 128.333 401.823 128.503C401.585 128.923 401.34 129.356 401.089 129.8C400.374 131.068 399.611 132.427 398.834 133.841C398.761 133.974 398.69 134.106 398.616 134.239C397.24 136.758 395.825 139.445 394.538 142.113C394.471 142.251 394.405 142.391 394.339 142.528C392.731 145.893 391.342 149.211 390.5 152.117C390.384 152.522 390.277 152.916 390.185 153.303C390.147 153.451 390.112 153.597 390.082 153.743C389.895 154.566 389.762 155.343 389.695 156.066C389.577 157.358 389.575 158.64 389.657 159.885C389.665 160.033 389.676 160.181 389.687 160.329C389.717 160.68 389.75 161.029 389.791 161.371C389.936 162.595 390.152 163.772 390.411 164.879C390.708 166.159 391.058 167.342 391.412 168.392C391.467 168.555 391.524 168.717 391.58 168.873C392.515 171.518 393.429 173.191 393.429 173.191C389.895 175.377 386.462 177.201 383.18 178.721C383.042 178.786 382.904 178.848 382.768 178.912C378.364 180.927 374.246 182.394 370.546 183.464C370.395 183.509 370.245 183.551 370.096 183.592C359.259 186.66 352.117 186.295 352.117 186.295C352.117 186.295 352.371 180.247 355.81 168.486C355.84 168.373 355.874 168.264 355.909 168.148V168.144C355.909 168.143 355.909 168.143 355.909 168.143C355.921 168.105 355.93 168.067 355.942 168.028C356.092 167.518 356.25 167.003 356.412 166.471C356.412 166.471 356.412 166.47 356.412 166.467C356.412 166.467 356.412 166.467 356.412 166.465C356.638 165.728 356.876 164.971 357.126 164.195C357.503 163.024 357.897 161.718 358.277 160.349C358.323 160.181 358.369 160.014 358.416 159.845C358.831 158.319 359.228 156.719 359.577 155.137V155.135C359.63 154.888 359.682 154.644 359.733 154.399C359.96 153.31 360.161 152.235 360.323 151.203C360.327 151.174 360.334 151.143 360.339 151.111C360.356 150.995 360.374 150.878 360.391 150.761C360.721 148.518 360.857 146.497 360.677 145.011C360.627 144.575 360.547 144.138 360.442 143.702C360.398 143.513 360.352 143.326 360.301 143.14C360.103 142.417 359.854 141.695 359.576 140.97V140.968C359.489 140.734 359.397 140.501 359.301 140.267V140.265C359.235 140.1 359.166 139.932 359.098 139.764C359.04 139.621 358.982 139.48 358.922 139.339C358.651 138.682 358.375 138.026 358.11 137.365C358.024 137.145 357.939 136.923 357.853 136.703C357.631 136.124 357.424 135.544 357.245 134.961C357.19 134.774 357.133 134.592 357.085 134.407C356.826 133.47 356.651 132.529 356.609 131.582C356.595 131.28 356.595 130.983 356.614 130.7C356.614 130.654 356.617 130.612 356.62 130.569C356.626 130.462 356.636 130.357 356.647 130.251C356.655 130.174 356.663 130.1 356.674 130.024C356.844 128.756 357.277 127.658 357.832 126.692C357.861 126.641 357.89 126.595 357.919 126.548C357.989 126.425 358.062 126.308 358.137 126.191C358.182 126.119 358.226 126.051 358.274 125.982C359.393 124.324 360.79 123.092 361.551 122.081C361.821 121.724 361.98 121.294 362.067 120.804C362.094 120.66 362.115 120.512 362.128 120.36C362.184 119.787 362.167 119.154 362.125 118.479C362.038 117.061 361.843 115.469 361.999 113.935C362.009 113.834 362.02 113.731 362.034 113.629C362.048 113.536 362.061 113.441 362.077 113.349C362.086 113.294 362.094 113.242 362.104 113.189C362.137 113.006 362.177 112.826 362.223 112.649C362.441 111.812 362.747 111.184 363.129 110.711C363.263 110.546 363.405 110.397 363.556 110.267C364.752 109.228 366.498 109.219 368.545 109.088C368.74 109.077 368.937 109.056 369.138 109.024C369.31 109 369.483 108.969 369.657 108.932C369.951 108.871 370.245 108.798 370.54 108.712C370.773 108.643 371.008 108.569 371.238 108.49C373.475 107.716 375.447 106.479 375.447 106.479L380.335 105.91L380.895 105.845L389.484 104.844C389.484 104.844 389.778 105.619 391.035 106.744C391.14 106.84 391.253 106.937 391.375 107.035C391.8 107.389 392.317 107.77 392.945 108.167C393.107 108.27 393.275 108.374 393.451 108.477C394.235 108.939 395.166 109.42 396.277 109.901C396.287 109.905 396.296 109.909 396.305 109.913C396.417 109.962 396.532 110.01 396.647 110.06C396.655 110.063 396.661 110.065 396.669 110.069C397.241 110.307 397.859 110.544 398.525 110.78C399.11 110.987 399.647 111.203 400.146 111.427C400.365 111.526 400.577 111.626 400.78 111.727C400.975 111.825 401.164 111.924 401.346 112.026C401.369 112.04 401.395 112.053 401.418 112.066C401.53 112.127 401.638 112.19 401.741 112.252C401.808 112.291 401.873 112.331 401.938 112.373C402.265 112.575 402.564 112.784 402.84 112.996H402.841C403.654 113.618 404.258 114.277 404.7 114.955C404.779 115.072 404.85 115.189 404.917 115.306C405 115.454 405.078 115.606 405.149 115.755C405.242 115.946 405.322 116.141 405.391 116.338C405.529 116.727 405.629 117.116 405.695 117.506C405.728 117.701 405.753 117.894 405.77 118.089C405.807 118.473 405.816 118.861 405.807 119.242Z" fill="#E0615C" stroke="#C42C4C" stroke-miterlimit="10"/>
<path d="M380.812 106.475C380.527 106.475 380.526 106.031 380.812 106.031C381.098 106.031 381.099 106.475 380.812 106.475Z" fill="#40BDA7" stroke="#C42C4C" stroke-miterlimit="10"/>
<path d="M393.221 328.691C391.263 329.767 389.052 330.073 386.875 329.563C386.436 329.461 386.248 330.137 386.689 330.24C389.049 330.793 391.45 330.466 393.575 329.297C393.971 329.079 393.617 328.473 393.221 328.691Z" fill="#14130F"/>
<path d="M361.846 326.816C359.211 328.348 355.953 328.3 353.36 326.703C352.974 326.465 352.621 327.073 353.006 327.308C355.808 329.035 359.355 329.074 362.2 327.422C362.591 327.195 362.238 326.59 361.846 326.816Z" fill="#14130F"/>
<path d="M365.778 104.328C370.145 105.127 384.728 105.163 395.531 99.315C395.314 97.379 395.258 95.1514 395.452 92.5669C395.91 86.4774 395.134 69.474 382.581 68.7164C370.028 67.9588 361.22 76.9656 364.904 87.9131C366.416 92.4064 366.227 98.5629 365.778 104.328Z" fill="#14130F"/>
<path d="M368.22 87.4141C368.22 87.4141 366.769 87.6128 366.58 89.4857C366.39 91.3586 367.478 94.4154 369.34 93.9423C371.203 93.4692 368.22 87.4141 368.22 87.4141Z" fill="#ED8D70"/>
<path d="M368.962 97.1309C367.552 97.2666 366.296 96.23 366.16 94.8208C366.025 93.4116 367.061 92.1552 368.471 92.0196C369.88 91.8848 371.136 92.9206 371.272 94.3298C371.406 95.7389 370.371 96.9953 368.962 97.1309ZM368.543 92.7671C367.546 92.8629 366.812 93.7522 366.908 94.7491C367.004 95.7459 367.893 96.4794 368.89 96.3835C369.887 96.2876 370.621 95.3983 370.525 94.4015C370.429 93.4046 369.54 92.6712 368.543 92.7671Z" fill="white"/>
<path d="M389.762 105.984C389.762 105.984 387.459 110.899 382.056 111.958C375.191 113.301 374.253 110.361 374.253 110.361C374.497 109.407 374.627 108.469 374.659 107.468C374.671 107.09 374.671 106.701 374.655 106.298C374.616 105.203 374.481 104.009 374.27 102.634C374.221 102.312 374.166 101.977 374.108 101.632L374.102 101.592C378.833 100.218 382.645 97.8965 385.149 94.2286L385.846 93.7641L386.316 93.4492L386.419 93.7243L386.372 94.6191C386.14 98.8255 387.257 102.244 389.762 105.984Z" fill="#F9AE90"/>
<path d="M382.029 98.0547C381.133 100.391 378.988 104.551 374.668 106.277C374.629 105.181 374.494 103.987 374.283 102.612C374.234 102.29 374.18 101.955 374.121 101.61C374.216 101.617 374.314 101.62 374.41 101.621C377.027 101.663 379.794 100.176 382.029 98.0547Z" fill="#E5724E"/>
<path d="M391.777 86.26C392.071 88.8469 390.241 92.2638 386.869 92.7415L386.852 92.7439C386.85 92.7439 386.85 92.7439 386.85 92.7439L386.778 92.7548C386.74 92.9099 386.695 93.0634 386.645 93.2193C386.624 93.2863 386.601 93.3557 386.579 93.4235C386.577 93.4297 386.575 93.436 386.571 93.4422C384.963 98.0765 378.995 101.373 375.62 101.85C374.414 102.02 373.569 101.84 373.302 101.814C369.623 101.442 368.401 96.6674 368.542 92.8959C368.564 92.3479 368.614 91.8234 368.688 91.3347C368.694 91.3012 368.699 91.2677 368.705 91.2342C368.705 91.2342 366.911 86.1844 366.373 83.9546C365.332 79.6312 367.34 74.8893 376.857 72.9198C386.375 70.9502 389.358 76.657 390.394 79.7466C390.568 80.2617 390.819 83.4168 390.35 83.9834C391.315 84.3466 391.678 85.391 391.777 86.26Z" fill="#F9AE90"/>
<path d="M375.27 98.2499C375.754 98.1003 375.985 97.7269 375.999 97.7051C376.065 97.596 376.03 97.4549 375.921 97.3887C375.813 97.3232 375.672 97.3575 375.606 97.4658C375.591 97.4892 375.288 97.9529 374.628 97.8298C374.503 97.8064 374.383 97.889 374.359 98.0137C374.336 98.1392 374.419 98.2592 374.543 98.2826C374.829 98.3348 375.07 98.3115 375.27 98.2499Z" fill="#732426"/>
<path d="M374.347 97.4057C375.316 97.4057 376.101 96.6206 376.101 95.6521C376.101 94.6836 375.316 93.8984 374.347 93.8984C373.379 93.8984 372.594 94.6836 372.594 95.6521C372.594 96.6206 373.379 97.4057 374.347 97.4057Z" fill="white"/>
<path d="M369.667 88.188C369.302 88.2882 369.162 88.9398 369.355 89.6434C369.548 90.3471 370.001 90.8363 370.366 90.7361C370.731 90.6359 370.871 89.9843 370.678 89.2806C370.485 88.577 370.032 88.0878 369.667 88.188Z" fill="#14130F"/>
<path d="M371.838 88.6294C371.871 88.6099 371.9 88.5796 371.917 88.5406C371.961 88.4432 371.916 88.3294 371.819 88.2857C371.738 88.2499 369.805 87.4175 368.492 88.7721C368.418 88.8484 368.42 88.9708 368.496 89.0456C368.573 89.1197 368.695 89.1173 368.77 89.0417C369.896 87.8789 371.645 88.6325 371.663 88.6396C371.721 88.6653 371.786 88.6598 371.838 88.6294Z" fill="#14130F"/>
<path d="M375.824 86.6134C375.458 86.7136 375.317 87.3653 375.51 88.069C375.703 88.7727 376.156 89.262 376.521 89.1618C376.887 89.0617 377.027 88.41 376.835 87.7063C376.642 87.0026 376.189 86.5133 375.824 86.6134Z" fill="#14130F"/>
<path d="M378.338 87.2389C378.375 87.2233 378.407 87.1969 378.43 87.161C378.484 87.0698 378.455 86.9506 378.363 86.896C378.286 86.8492 376.476 85.7791 375.002 86.9576C374.919 87.0238 374.905 87.1462 374.972 87.2288C375.038 87.3122 375.159 87.3262 375.243 87.2592C376.509 86.2475 378.148 87.2163 378.164 87.2265C378.219 87.26 378.284 87.2623 378.338 87.2389Z" fill="#14130F"/>
<path d="M386.353 90.7536C386.492 90.7147 386.597 90.5931 386.608 90.4419C386.797 87.9556 389.581 86.5714 389.609 86.5581C389.785 86.4732 389.857 86.2635 389.772 86.0889C389.687 85.9143 389.477 85.8411 389.302 85.926C389.173 85.9892 386.128 87.4957 385.907 90.3889C385.892 90.583 386.038 90.7513 386.232 90.7661C386.274 90.7685 386.315 90.7646 386.353 90.7536Z" fill="#732426"/>
<path d="M389.241 89.0605C389.284 89.0488 389.324 89.0285 389.362 88.9997C389.514 88.8805 389.542 88.6591 389.422 88.5063C389.39 88.4643 388.607 87.4853 387.196 87.7036C387.005 87.734 386.873 87.9132 386.903 88.105C386.932 88.2967 387.112 88.4284 387.304 88.3988C388.313 88.2421 388.864 88.9319 388.868 88.9389C388.959 89.055 389.108 89.0987 389.241 89.0605Z" fill="#732426"/>
<g opacity="0.5">
<path d="M370.446 91.9236C370.483 92.3086 369.673 92.7092 368.562 92.8893C368.584 92.3414 368.635 91.8168 368.709 91.3281C369.686 91.3414 370.413 91.5721 370.446 91.9236Z" fill="#732426"/>
</g>
<g opacity="0.5">
<path d="M378.773 90.2524C377.424 90.3814 376.364 90.842 376.406 91.2812C376.448 91.7205 377.576 91.972 378.925 91.843C380.274 91.714 381.333 91.2533 381.291 90.8141C381.249 90.3748 380.122 90.1234 378.773 90.2524Z" fill="#732426"/>
</g>
<path d="M386.873 92.7233L386.857 92.7257C386.855 92.7257 386.855 92.7257 386.855 92.7257L386.784 92.7366C386.746 92.8917 386.7 93.0445 386.65 93.2011C386.629 93.2681 386.607 93.3375 386.584 93.4045C386.583 93.4108 386.58 93.417 386.576 93.4232C386.184 93.4061 385.683 93.3165 385.211 93.0546C384.934 92.9003 384.666 92.6859 384.436 92.3859C384.318 92.2331 384.347 92.0125 384.502 91.8948C384.654 91.774 384.875 91.8037 384.995 91.958C385.251 92.29 385.583 92.4825 385.91 92.5916C386.131 92.6657 386.35 92.7007 386.542 92.7132C386.666 92.7249 386.781 92.7257 386.873 92.7233Z" fill="#732426"/>
<path d="M386.051 92.7609C386.297 92.81 386.579 92.8084 386.806 92.7959C386.807 92.8084 386.806 92.8209 386.807 92.8333C386.903 93.8302 387.792 94.5636 388.79 94.4678C389.786 94.3719 390.52 93.4834 390.424 92.4857C390.338 91.5863 389.606 90.9043 388.731 90.8482C388.487 90.6128 388.454 90.3611 388.659 90.0938C389.946 90.1148 391.045 91.1023 391.171 92.414C391.306 93.8232 390.27 95.0796 388.861 95.2144C387.451 95.35 386.196 94.3134 386.06 92.9051C386.055 92.8575 386.052 92.8092 386.051 92.7609Z" fill="white"/>
<path d="M387.105 74.6344C384.792 72.7335 381.723 71.3485 378.289 71.9447C373.471 72.781 369.18 74.9883 367 77.8962C365.948 79.2937 365.386 80.8517 365.488 82.5002C365.8 87.5702 366.773 86.4627 366.773 86.4627C366.773 86.4627 366.731 86.3489 366.76 85.2616H366.761C366.777 84.6061 366.819 83.596 366.912 82.045C367.137 78.3436 378.642 76.6071 378.162 79.0342C378.162 79.0342 378.158 79.3311 378.243 79.7769C378.331 80.2547 378.522 80.9047 378.925 81.5392C379.02 81.5423 379.11 81.5477 379.196 81.5532C380.378 81.6327 381.368 81.8556 382.2 82.1681C382.2 82.1681 382.202 82.1697 382.204 82.1713C382.312 82.2313 384.207 83.3084 384.166 85.1751C384.128 87.0971 383.713 89.6481 384.947 89.0339C386.18 88.4174 386.434 86.8313 386.434 86.8313C386.434 86.8313 386.434 86.8313 386.436 86.8298C387.022 85.9062 387.772 84.9646 388.981 84.4058C389.032 81.0318 388.764 77.6289 387.105 74.6344Z" fill="#14130F"/>
<path d="M388.024 76.7154C384.431 75.9228 379.159 79.116 378.242 79.7808C378.33 80.2586 378.522 80.9086 378.925 81.543C379.019 81.5461 379.11 81.5516 379.195 81.5571C380.378 81.6366 381.368 81.8595 382.2 82.172C382.2 82.172 382.202 82.1736 382.204 82.1751C382.311 82.2351 384.206 83.3123 384.166 85.1789C384.127 87.101 383.497 97.4023 385.627 98.7546C389.95 101.5 386.95 86.7627 386.95 86.7627C387.536 85.8391 387.771 84.967 388.98 84.4081C389.982 81.5843 389.226 79.084 388.024 76.7154Z" fill="#14130F"/>
<path d="M387.213 76.6021C387.213 76.6021 389.645 79.3775 388.967 84.407C388.967 84.407 390.591 83.796 391.418 83.9939C392.243 84.1919 392.74 81.1959 391.637 78.6122C390.533 76.0284 386.379 73.1953 386.379 73.1953C386.379 73.1953 386.398 75.8048 387.213 76.6021Z" fill="#14130F"/>
<path d="M372.843 92.9C372.79 92.9085 372.732 92.9015 372.68 92.8781L371.274 92.257C371.178 92.2149 371.111 92.1252 371.1 92.0216C371.087 91.9179 371.131 91.815 371.214 91.7527C372.183 91.0216 372.702 90.006 372.85 88.5579C372.867 88.3966 373.01 88.2781 373.174 88.2945C373.336 88.3108 373.453 88.4558 373.437 88.6179C373.291 90.0474 372.814 91.1058 371.945 91.9101L372.917 92.3396C373.066 92.4058 373.133 92.5796 373.068 92.7285C373.026 92.8236 372.939 92.8852 372.843 92.9Z" fill="#732426"/>
<path d="M373.381 89.2731C373.06 87.3612 374.352 85.5437 376.264 85.221C378.176 84.8991 379.993 86.1929 380.316 88.1048C380.638 90.0167 379.345 91.8342 377.433 92.1561C375.521 92.478 373.704 91.185 373.381 89.2731ZM373.927 89.1811C374.199 90.7922 375.73 91.8826 377.342 91.6113C378.953 91.3393 380.043 89.8078 379.772 88.1968C379.5 86.5857 377.969 85.4954 376.357 85.7666C374.745 86.0378 373.655 87.5701 373.927 89.1811Z" fill="white"/>
<path d="M365.162 90.6599C364.841 88.748 366.134 86.9304 368.045 86.6077C369.957 86.2859 371.775 87.5789 372.097 89.4915C372.419 91.4034 371.126 93.221 369.214 93.5429C367.302 93.8655 365.484 92.5725 365.162 90.6599ZM365.707 90.5687C365.979 92.1797 367.51 93.2701 369.123 92.9988C370.733 92.7268 371.823 91.1953 371.552 89.5843C371.281 87.9733 369.748 86.8829 368.137 87.1541C366.526 87.4253 365.435 88.9569 365.707 90.5687Z" fill="white"/>
<path d="M387.259 86.2288L387.503 85.7868C387.35 85.705 383.4 83.6949 379.207 86.1298L379.484 86.6075C383.415 84.3262 387.225 86.2108 387.259 86.2288Z" fill="white"/>
<path d="M373.497 89.2153L373.751 88.7243C373.311 88.4952 372.288 88.2785 371.57 89.0976L371.987 89.4616C372.594 88.7672 373.46 89.1966 373.497 89.2153Z" fill="white"/>
<path d="M375.115 84.9742C374.535 85.505 373.634 84.8417 373.985 84.1372C374.168 83.7693 374.497 83.41 375.068 83.1613C377.545 82.0842 379.682 83.463 379.682 83.463C379.682 83.463 376.94 83.7802 375.759 84.4941C375.485 84.6594 375.28 84.8238 375.115 84.9742Z" fill="#14130F"/>
<path d="M370.917 86.0407C371.673 86.2597 372.187 85.2668 371.561 84.7906C371.234 84.5419 370.78 84.3642 370.158 84.3938C367.46 84.5225 366.992 86.3603 366.992 86.3603C366.992 86.3603 368.752 85.7757 370.127 85.8942C370.446 85.9215 370.702 85.9784 370.917 86.0407Z" fill="#14130F"/>
<path d="M393.875 333.492C393.875 333.492 396.966 334.752 397.08 339.103C397.194 343.454 397.08 354.673 397.08 354.673H395.504L394.648 350.717C394.648 350.717 394.104 355.018 391.928 357.765C389.753 360.512 385.06 360.627 381.968 360.17C378.877 359.712 381.167 353.987 382.426 350.781C383.685 347.575 386.32 339.904 386.32 339.904L393.875 333.492Z" fill="#7E1416"/>
<path d="M393.047 327.273C393.047 327.273 392.949 332.58 393.865 333.495C394.781 334.411 396.04 337.387 395.124 341.051C394.209 344.715 393.598 350.058 391.461 352.348C389.324 354.637 383.751 354.713 383.294 352.882C382.836 351.051 386.118 344.257 386.27 340.747C386.422 337.235 387.033 327.771 387.033 327.771L393.047 327.273Z" fill="#F9AE8F"/>
<path d="M375.473 202.341C375.479 202.554 375.483 202.771 375.489 202.988C375.497 203.234 375.502 203.485 375.509 203.736C375.515 203.927 375.52 204.119 375.526 204.315C375.532 204.518 375.538 204.722 375.543 204.927C375.657 208.864 375.812 213.132 375.976 217.227C375.985 217.446 375.992 217.666 376.002 217.883C376.006 217.992 376.01 218.099 376.015 218.206C376.024 218.41 376.032 218.612 376.04 218.813C376.25 223.925 376.473 228.65 376.646 231.956C376.663 232.309 376.683 232.646 376.7 232.966C376.708 233.125 376.716 233.282 376.726 233.433C376.921 236.907 377.213 240.914 377.61 245.375C377.627 245.568 377.646 245.76 377.663 245.953C377.719 246.578 377.777 247.211 377.837 247.854C377.86 248.085 377.882 248.318 377.904 248.551V248.557C378.188 251.506 378.513 254.628 378.885 257.906C378.885 257.906 378.853 258.128 378.806 258.562C378.787 258.754 378.763 258.988 378.74 259.26C378.665 260.108 378.58 261.343 378.529 262.929C378.523 263.128 378.517 263.334 378.513 263.544C378.455 265.989 378.486 269.175 378.754 272.997C378.766 273.163 378.776 273.332 378.79 273.502C378.792 273.53 378.795 273.558 378.797 273.586C378.902 274.974 379.036 276.444 379.209 277.988C379.235 278.224 379.264 278.462 379.291 278.703L379.292 278.705C379.429 279.872 379.589 281.081 379.772 282.329C379.919 283.332 380.09 284.518 380.28 285.852C380.306 286.034 380.331 286.219 380.358 286.408C380.696 288.796 381.088 291.614 381.51 294.672C381.543 294.916 381.576 295.158 381.609 295.403C381.748 296.41 381.888 297.438 382.031 298.486C382.055 298.668 382.08 298.855 382.108 299.04C382.642 302.964 383.202 307.116 383.743 311.156C383.783 311.45 383.824 311.745 383.861 312.039C384.426 316.254 384.965 320.319 385.429 323.852C385.454 324.04 385.479 324.226 385.503 324.41C385.664 325.645 385.817 326.806 385.956 327.883C385.988 328.131 386.019 328.373 386.051 328.611C386.311 330.628 386.524 332.297 386.672 333.496C387.235 333.776 388.634 333.865 390.116 333.549C390.221 333.528 390.326 333.501 390.432 333.476C390.472 333.466 390.513 333.455 390.555 333.444C390.701 333.406 390.847 333.363 390.993 333.316C391.042 333.3 391.09 333.282 391.139 333.266C391.188 333.25 391.235 333.231 391.284 333.215C392.025 332.942 392.738 332.552 393.326 332.02C393.367 331.646 393.412 331.251 393.464 330.834C393.47 330.788 393.474 330.746 393.481 330.702C393.504 330.516 393.53 330.325 393.555 330.13C393.556 330.122 393.556 330.116 393.558 330.109C393.824 328.079 394.204 325.6 394.639 322.817C394.668 322.638 394.695 322.455 394.725 322.273C395.131 319.685 395.58 316.85 396.029 313.888C396.067 313.64 396.105 313.393 396.142 313.143C396.281 312.224 396.418 311.292 396.555 310.352C396.583 310.168 396.608 309.985 396.636 309.799C396.8 308.656 396.962 307.501 397.119 306.34C397.459 303.839 397.828 300.863 398.17 297.581C398.202 297.269 398.235 296.955 398.265 296.637C398.654 292.801 398.996 288.583 399.206 284.237C399.215 284.034 399.226 283.833 399.234 283.633C399.261 283.039 399.286 282.443 399.307 281.846C399.316 281.628 399.323 281.41 399.329 281.191C399.451 277.441 399.463 273.642 399.307 269.954C399.297 269.733 399.29 269.514 399.278 269.294C399.251 268.722 399.22 268.154 399.183 267.588C399.171 267.39 399.158 267.191 399.144 266.994C398.975 264.565 398.725 262.204 398.377 259.96C398.254 257.563 398.216 255.864 398.247 254.512C398.248 254.465 398.25 254.418 398.251 254.37C398.253 254.292 398.256 254.217 398.258 254.142C398.261 254.051 398.265 253.963 398.269 253.872C398.272 253.791 398.276 253.714 398.28 253.635C398.283 253.578 398.286 253.521 398.29 253.467C398.399 251.613 398.666 250.378 399.035 248.427C399.456 246.204 399.841 244.082 400.18 242.06C400.211 241.88 400.241 241.698 400.271 241.52C400.526 239.972 400.752 238.484 400.948 237.058L400.95 237.057C400.982 236.812 401.014 236.568 401.047 236.327C401.195 235.199 401.321 234.11 401.424 233.059C401.519 232.096 401.716 230.892 401.949 229.447C401.95 229.434 401.954 229.424 401.955 229.411C401.977 229.279 401.998 229.143 402.021 229.004C402.027 228.97 402.031 228.937 402.037 228.902C402.399 226.655 402.823 223.866 403.091 220.533C403.098 220.469 403.102 220.405 403.108 220.341C403.117 220.229 403.125 220.116 403.132 220.001C403.137 219.951 403.141 219.899 403.144 219.847C403.223 218.765 403.284 217.628 403.321 216.436C403.328 216.232 403.333 216.028 403.338 215.821C403.406 212.94 403.33 209.742 403.015 206.226C402.999 206.034 402.981 205.841 402.964 205.647C402.824 204.202 402.646 202.704 402.42 201.152C402.385 200.904 402.347 200.657 402.308 200.408L402.307 200.406C401.985 198.299 401.576 196.095 401.063 193.795C401.026 193.624 400.988 193.453 400.948 193.279C400.358 190.687 399.639 187.974 398.77 185.137L394.577 185.899L393.806 186.039L388.841 186.942L388.307 187.039L377.001 189.093L376.136 189.25L375.73 189.324C375.6 189.052 375.506 189.32 375.444 190.02C375.427 190.212 375.412 190.437 375.4 190.695C375.377 191.158 375.361 191.72 375.352 192.369C375.314 194.743 375.368 198.281 375.473 202.341Z" fill="#3B56A6"/>
<path d="M386.831 259.193C384.45 260.069 381.898 260.191 379.443 259.558C379.167 259.488 379.284 259.059 379.56 259.13C381.943 259.745 384.404 259.616 386.712 258.765C386.98 258.666 387.096 259.095 386.831 259.193Z" fill="#5C554C"/>
<path d="M400.929 195.202C400.929 195.202 398.769 178.569 390.995 167.68C390.995 167.68 370.874 176.486 354.896 171.706C354.896 171.706 349.361 189.233 350.774 214.964C350.774 214.964 394.89 223.754 400.929 195.202Z" fill="#3A53A4"/>
<path d="M393.873 172.398C393.873 172.398 393.326 168.507 390.719 166.133C388.963 166.615 367.999 173.104 355.109 168.989C355.109 168.989 353.359 171.942 353.68 176.278C353.68 176.278 371.467 181.901 393.873 172.398Z" fill="#14130F"/>
<path d="M393.438 172.576C380.955 177.424 367.232 178.718 354.066 176.26C353.698 176.191 353.54 176.755 353.911 176.823C367.177 179.301 381.011 178.027 393.593 173.139C393.941 173.004 393.789 172.439 393.438 172.576Z" fill="#5C554C"/>
<path d="M387.323 167.161C388.74 169.307 389.521 171.763 389.574 174.336C389.576 174.481 389.435 174.572 389.303 174.543C389.297 174.541 389.291 174.541 389.285 174.539C389.323 174.402 389.361 174.264 389.398 174.127C389.411 174.129 389.423 174.132 389.435 174.135C389.397 174.273 389.36 174.411 389.322 174.548C389.316 174.546 389.309 174.545 389.304 174.544C389.035 174.485 389.149 174.072 389.417 174.132C389.424 174.133 389.43 174.134 389.435 174.135C389.704 174.195 389.59 174.607 389.322 174.548C389.309 174.545 389.298 174.542 389.285 174.539C389.016 174.48 389.13 174.068 389.398 174.127C389.404 174.128 389.411 174.129 389.416 174.131C389.326 174.199 389.237 174.268 389.146 174.336C389.097 171.833 388.332 169.464 386.954 167.376C386.802 167.146 387.171 166.931 387.323 167.161Z" fill="#5C554C"/>
<path d="M381.04 168.592C382.257 170.937 382.852 173.476 382.797 176.118C382.791 176.393 382.363 176.394 382.37 176.118C382.423 173.548 381.855 171.09 380.67 168.808C380.544 168.564 380.913 168.347 381.04 168.592Z" fill="#5C554C"/>
<path d="M374.612 169.565C375.319 172.107 375.624 174.699 375.523 177.336C375.512 177.611 375.084 177.612 375.095 177.336C375.194 174.738 374.896 172.185 374.2 169.679C374.126 169.413 374.538 169.3 374.612 169.565Z" fill="#5C554C"/>
<path d="M368.417 170.206C368.064 172.689 367.975 175.181 368.137 177.683C368.155 177.958 367.728 177.957 367.71 177.683C367.544 175.141 367.647 172.615 368.005 170.093C368.043 169.821 368.456 169.936 368.417 170.206Z" fill="#5C554C"/>
<path d="M362.433 170.263C361.71 172.601 361.44 175.022 361.625 177.462C361.646 177.736 361.219 177.735 361.197 177.462C361.01 174.986 361.288 172.521 362.021 170.149C362.101 169.887 362.514 169.999 362.433 170.263Z" fill="#5C554C"/>
<path d="M357.282 169.477C356.379 171.836 355.947 174.303 356.142 176.829C356.163 177.103 355.735 177.101 355.715 176.829C355.516 174.268 355.954 171.756 356.869 169.363C356.966 169.109 357.381 169.219 357.282 169.477Z" fill="#5C554C"/>
<path d="M346.112 350.287C347.63 347.839 361.236 334.789 361.236 334.789C361.236 334.789 364.018 336.969 363.883 339.37C363.756 341.656 363.851 353.69 363.818 354.958H362.167L361.237 349.467C361.237 349.467 357.475 355.486 354.651 357.545C351.828 359.607 342.284 359.237 339.993 358.93C337.703 358.626 344.594 352.736 346.112 350.287Z" fill="#7E1416"/>
<path d="M361.278 328.31L361.059 334.2C361.059 334.2 361.822 335.955 361.059 338.551C360.296 341.146 357.405 345.264 354.647 348.321C352.268 350.957 347.167 353.588 345.64 352.9C344.114 352.213 348.541 346.946 349.838 344.198C351.137 341.451 352.031 338.739 352.649 336.464C353.361 333.842 353.459 327.676 353.459 327.676L361.278 328.31Z" fill="#F9AE8F"/>
<path d="M348.908 259.706C348.914 259.769 348.922 259.831 348.926 259.893C348.939 259.991 348.949 260.088 348.961 260.187C348.964 260.216 348.969 260.243 348.972 260.274C349.004 260.572 349.039 260.866 349.078 261.16C349.128 261.547 349.179 261.953 349.227 262.378C349.254 262.611 349.282 262.849 349.308 263.091C349.607 265.787 349.893 269.113 350.163 272.833C350.177 273.03 350.191 273.226 350.205 273.422C350.311 274.909 350.415 276.458 350.516 278.05C350.53 278.274 350.544 278.498 350.558 278.725C350.714 281.189 350.862 283.757 351.003 286.374C351.014 286.573 351.025 286.774 351.035 286.975C351.148 289.054 351.255 291.162 351.358 293.274C351.37 293.496 351.38 293.718 351.392 293.939C351.491 295.995 351.587 298.049 351.678 300.082C351.688 300.284 351.696 300.486 351.707 300.686C351.822 303.297 351.933 305.862 352.035 308.335C352.044 308.554 352.054 308.774 352.062 308.993C352.133 310.675 352.198 312.311 352.26 313.883C352.263 313.94 352.265 313.997 352.268 314.054C352.272 314.171 352.277 314.289 352.281 314.403C352.283 314.431 352.284 314.46 352.286 314.489C352.414 317.766 352.529 320.756 352.625 323.305C352.629 323.418 352.634 323.525 352.637 323.635C352.642 323.745 352.646 323.854 352.649 323.961C352.703 325.38 352.751 326.646 352.793 327.735C352.798 327.839 352.8 327.942 352.805 328.043C352.808 328.113 352.811 328.183 352.813 328.25C352.813 328.282 352.815 328.311 352.816 328.343C352.862 329.488 352.897 330.403 352.926 331.039C354.756 332.453 357.904 332.793 360.346 331.658C360.348 331.658 360.348 331.657 360.349 331.657C360.402 331.633 360.456 331.608 360.508 331.579C360.54 331.563 360.573 331.549 360.605 331.53C360.658 331.503 360.712 331.472 360.765 331.443C360.985 331.323 361.198 331.189 361.402 331.038C361.685 329.866 362.538 325.546 363.456 320.384C363.489 320.205 363.52 320.027 363.55 319.847C363.707 318.964 363.865 318.055 364.022 317.137C364.065 316.886 364.108 316.632 364.15 316.377C364.627 313.551 365.091 310.654 365.465 308.011C365.493 307.824 365.517 307.639 365.543 307.456C365.583 307.169 365.623 306.886 365.659 306.605C365.918 304.679 366.174 302.585 366.414 300.362C366.414 300.359 366.415 300.356 366.415 300.353C366.437 300.139 366.461 299.92 366.483 299.703C366.486 299.687 366.488 299.673 366.489 299.655C366.643 298.182 366.792 296.656 366.928 295.087C366.944 294.896 366.96 294.701 366.977 294.504C367.237 291.402 367.453 288.14 367.592 284.805C367.601 284.584 367.609 284.365 367.619 284.144C367.652 283.261 367.682 282.374 367.704 281.483C367.71 281.277 367.715 281.072 367.719 280.866C367.797 277.379 367.786 273.847 367.648 270.364C367.648 270.348 367.646 270.332 367.646 270.315C367.638 270.129 367.631 269.943 367.624 269.758C367.609 269.45 367.595 269.143 367.58 268.835C367.684 268.3 367.786 267.784 367.888 267.284C367.896 267.235 367.905 267.188 367.916 267.14C367.941 267.011 367.967 266.882 367.993 266.755C368.934 262.127 369.765 258.794 370.525 255.536C370.565 255.367 370.605 255.194 370.644 255.025C370.846 254.156 371.041 253.287 371.231 252.397C371.289 252.132 371.345 251.866 371.402 251.597C371.625 250.525 371.843 249.411 372.057 248.217C372.308 246.812 372.626 245.247 372.956 243.585C372.991 243.41 373.026 243.235 373.06 243.058C373.574 240.45 374.105 237.624 374.445 234.8C374.474 234.562 374.501 234.324 374.527 234.087C374.603 233.388 374.667 232.688 374.715 231.994C374.736 231.689 374.757 231.367 374.777 231.024C374.789 230.833 374.8 230.635 374.814 230.43C374.972 227.637 375.122 223.815 375.245 219.618C375.251 219.402 375.257 219.187 375.262 218.969C375.278 218.377 375.294 217.779 375.311 217.174C375.315 216.97 375.32 216.765 375.326 216.559C375.421 212.712 375.489 208.697 375.515 204.964C375.517 204.753 375.518 204.54 375.52 204.33C375.521 204.129 375.523 203.929 375.523 203.731C375.524 203.487 375.526 203.247 375.526 203.008C375.527 202.797 375.527 202.586 375.527 202.377C375.537 198.298 375.488 194.731 375.361 192.362C375.329 191.781 375.294 191.273 375.252 190.845C375.236 190.672 375.218 190.514 375.201 190.369L375.117 190.351L363.974 187.743L363.462 187.623L359.953 186.802L359.952 186.8L359.127 186.609L352.318 185.016L352.12 184.969H352.118C352.118 184.969 352.117 184.98 352.113 185.004C352.112 185.015 352.11 185.029 352.107 185.045C352.101 185.094 352.092 185.162 352.082 185.251C351.968 186.153 351.601 189.105 351.255 192.488C351.235 192.676 351.215 192.866 351.196 193.059C350.947 195.558 350.717 198.239 350.612 200.473C350.612 200.479 350.612 200.484 350.611 200.489C350.606 200.596 350.601 200.7 350.597 200.805C350.592 200.915 350.586 201.024 350.583 201.133C350.563 201.687 350.552 202.206 350.552 202.681C350.552 203.119 350.508 204.321 350.434 206.049C350.425 206.244 350.417 206.444 350.408 206.652C350.304 208.966 350.157 212.063 349.988 215.478C349.977 215.698 349.965 215.92 349.955 216.142C349.897 217.325 349.836 218.541 349.775 219.771C349.764 219.97 349.755 220.173 349.746 220.373C349.571 223.838 349.389 227.394 349.224 230.624C349.212 230.847 349.202 231.07 349.189 231.29C349.151 232.035 349.114 232.758 349.078 233.456C349.068 233.659 349.058 233.857 349.047 234.056V234.058C348.823 238.433 348.653 241.74 348.615 242.592C348.569 243.633 348.531 244.68 348.502 245.726C348.502 245.748 348.501 245.77 348.501 245.791C348.495 245.984 348.491 246.181 348.486 246.374C348.478 246.658 348.472 246.943 348.468 247.228C348.465 247.437 348.46 247.644 348.459 247.852C348.402 251.97 348.52 256.03 348.908 259.706Z" fill="#3A53A4"/>
<path d="M356.301 185.608C355.043 187.548 353.603 189.354 351.988 191.01C351.755 191.25 351.388 190.883 351.622 190.643C353.206 189.019 354.619 187.25 355.853 185.346C356.033 185.067 356.481 185.327 356.301 185.608Z" fill="#5C554C"/>
<path d="M375.833 205.764C374.645 205.4 373.601 204.458 372.743 203.595C371.521 202.367 370.505 200.939 369.83 199.341C369.7 199.033 370.202 198.899 370.33 199.202C370.968 200.715 371.955 202.068 373.11 203.23C373.905 204.029 374.869 204.929 375.972 205.265C376.289 205.362 376.155 205.862 375.833 205.764Z" fill="#5C554C"/>
<path d="M356.212 262.849C354.034 263.865 351.505 263.724 349.463 262.448C349.222 262.298 349.445 261.914 349.687 262.066C351.588 263.254 353.953 263.414 355.989 262.467C356.246 262.347 356.472 262.729 356.212 262.849Z" fill="#5C554C"/>
<path d="M391.322 174.12C395.372 183.548 398.036 193.505 398.87 203.744C399.578 212.454 398.951 221.178 397.821 229.825C397.292 233.869 396.669 237.9 396.083 241.937C395.301 247.336 394.459 252.771 394.354 258.235C394.24 264.09 395.199 269.9 395.646 275.725C396.077 281.344 396.267 286.982 396.196 292.618C396.055 303.579 394.892 314.49 393.142 325.303C392.907 326.752 392.663 328.2 392.41 329.646C392.353 329.975 391.853 329.835 391.91 329.509C393.825 318.54 395.229 307.474 395.593 296.337C395.772 290.868 395.707 285.393 395.406 279.929C395.088 274.156 394.265 268.427 393.929 262.658C393.594 256.904 394.281 251.212 395.06 245.52C395.617 241.444 396.249 237.378 396.827 233.303C398.025 224.852 398.913 216.341 398.592 207.795C398.215 197.77 396.132 187.902 392.561 178.532C392.028 177.136 391.465 175.753 390.875 174.38C390.744 174.079 391.191 173.815 391.322 174.12Z" fill="#5C554C"/>
<path d="M374.338 204.968C373.769 220.756 371.931 236.526 368.196 251.891C367.137 256.249 365.689 260.525 364.752 264.909C363.802 269.348 364.049 273.846 364.266 278.344C364.698 287.271 364.512 296.277 363.46 305.156C362.966 309.326 362.205 313.456 361.775 317.636C361.42 321.097 361.041 324.54 360.495 327.978C360.444 328.307 359.944 328.167 359.996 327.841C360.496 324.685 360.868 321.524 361.184 318.346C361.525 314.929 362.064 311.551 362.55 308.153C363.827 299.219 364.124 290.162 363.863 281.149C363.733 276.69 363.228 272.193 363.752 267.741C364.252 263.502 365.707 259.434 366.791 255.323C369.015 246.887 370.655 238.298 371.8 229.65C372.883 221.462 373.521 213.221 373.819 204.968C373.832 204.636 374.35 204.635 374.338 204.968Z" fill="#5C554C"/>
<path d="M386.853 182.461C388.463 186.82 391.123 190.716 394.583 193.817C394.831 194.04 394.464 194.406 394.216 194.184C390.689 191.022 387.995 187.041 386.353 182.599C386.238 182.285 386.738 182.151 386.853 182.461Z" fill="#5C554C"/>
<path d="M362.192 117.982C361.276 121.66 358.506 124.395 356.952 127.774C356.277 129.242 355.807 130.847 355.903 132.478C356.008 134.223 356.761 135.82 357.534 137.356C357.704 137.692 358.208 137.397 358.039 137.062C357.208 135.411 356.419 133.698 356.48 131.808C356.54 129.927 357.327 128.151 358.249 126.544C359.842 123.772 361.968 121.302 362.756 118.137C362.847 117.772 362.284 117.616 362.192 117.982Z" fill="#E0615C" stroke="#C42C4C" stroke-miterlimit="10"/>
<path d="M430.62 145.65C430.524 147.099 430.128 148.409 429.635 149.486C429.581 149.607 429.521 149.726 429.465 149.843C429.36 150.053 429.253 150.258 429.142 150.453V150.455C428.769 151.117 428.365 151.694 427.956 152.218C427.356 152.982 426.739 153.631 426.122 154.213C425.434 154.86 424.741 155.431 424.052 155.951C423.893 156.072 423.735 156.191 423.575 156.306C423.188 156.586 422.798 156.854 422.41 157.112C420.628 158.283 418.848 159.256 417.064 160.127C416.881 160.217 416.697 160.306 416.515 160.392C416.004 160.636 415.493 160.871 414.983 161.101C413.739 161.656 412.495 162.173 411.24 162.658C410.612 162.902 409.981 163.136 409.347 163.363L408.389 163.701L407.373 164.042C406.932 164.192 406.481 164.266 406.037 164.274C404.125 164.316 402.325 163.122 401.684 161.21C401.253 159.93 401.433 158.594 402.063 157.512C402.14 157.384 402.22 157.259 402.307 157.138H402.309C402.407 157.002 402.514 156.869 402.631 156.744C403.021 156.318 403.498 155.961 404.047 155.706L404.238 155.618L404.997 155.265L405.799 154.879C406.296 154.635 406.793 154.387 407.287 154.13C407.324 154.112 407.362 154.093 407.399 154.073C407.592 153.974 407.782 153.872 407.973 153.77C408.836 153.315 409.688 152.842 410.52 152.353C411.325 151.88 412.117 151.391 412.882 150.888H412.884C413.114 150.738 413.34 150.586 413.564 150.432C414.474 149.812 415.337 149.171 416.124 148.511C416.934 147.834 417.662 147.135 418.201 146.482C418.423 146.216 418.61 145.956 418.749 145.728L418.715 145.699L418.49 145.487L417.855 144.892C417.656 144.709 417.455 144.524 417.253 144.337C417.078 144.177 416.9 144.014 416.721 143.85C416.187 143.361 415.643 142.868 415.103 142.379L412.364 139.906L412.295 139.844L411.877 139.468L409.565 137.397L408.964 136.86L408.172 136.15L407.572 135.613L406.642 134.779L401.083 129.81L395.308 124.648L395.306 124.646C394.836 124.228 394.437 123.76 394.108 123.257C393.988 123.07 393.874 122.879 393.773 122.685C392.445 120.167 392.742 116.985 394.748 114.739C396.451 112.837 398.954 112.078 401.292 112.521C401.483 112.554 401.672 112.599 401.86 112.651C402.191 112.743 402.518 112.859 402.836 113.004H402.837C403.486 113.29 404.101 113.684 404.659 114.183C404.75 114.265 404.858 114.366 404.945 114.454L408.485 117.996L408.909 118.417L410.335 119.846L411.714 121.241L412.165 121.696L415.473 125.043L415.697 125.269L416.006 125.582L421.052 130.713L422.06 131.746L422.466 132.161L423.727 133.454C424.624 134.378 425.511 135.29 426.426 136.254L427.134 137.006L427.329 137.213L427.568 137.478L427.809 137.748L427.956 137.922L428.08 138.07C428.183 138.199 428.286 138.331 428.389 138.467C428.991 139.27 429.563 140.225 429.981 141.351C430.476 142.657 430.717 144.202 430.62 145.65Z" fill="#E0615C" stroke="#C42C4C" stroke-miterlimit="10"/>
<path d="M419.469 145.661C420.91 144.255 422.687 143.383 424.675 143.083C425.046 143.028 424.888 142.464 424.52 142.519C422.433 142.834 420.565 143.775 419.057 145.247C418.787 145.511 419.199 145.924 419.469 145.661Z" fill="#14130F" stroke="#C42C4C" stroke-miterlimit="10"/>
<path d="M421.481 141.931C420.945 142.665 420.555 143.435 420.27 144.297C420.152 144.654 420.715 144.808 420.834 144.452C421.104 143.637 421.481 142.919 421.987 142.226C422.209 141.922 421.702 141.63 421.481 141.931Z" fill="#14130F" stroke="#C42C4C" stroke-miterlimit="10"/>
<path d="M392.737 124.153C395.328 125.915 397.845 127.78 400.285 129.748C400.574 129.982 400.991 129.572 400.697 129.335C398.22 127.336 395.665 125.439 393.033 123.649C392.72 123.436 392.428 123.942 392.737 124.153Z" fill="#14130F" stroke="#C42C4C" stroke-miterlimit="10"/>
<path d="M290.477 102.882L285.492 113.43L413.734 174.04L418.719 163.492L290.477 102.882Z" fill="#FBC864"/>
<path d="M290.484 102.89L285.498 113.44L275.006 104.233L269.578 99.4688L276.709 100.634L290.484 102.89Z" fill="#F68B66"/>
<path d="M409.411 159.081L404.426 169.629L413.743 174.033L418.729 163.485L409.411 159.081Z" fill="#35252F"/>
<path d="M425.821 167.697L421.501 176.844C421.317 177.231 420.666 177.306 420.037 177.008L413.742 174.037L418.727 163.488L425.02 166.46C425.644 166.757 426.005 167.309 425.821 167.697Z" fill="#EF472E"/>
<path d="M276.709 100.634L275.006 104.233L269.578 99.4688L276.709 100.634Z" fill="#35252F"/>
<path d="M404.42 169.638L409.402 159.086L402.717 155.929L397.734 166.482L404.42 169.638Z" fill="#3955A5"/>
<path d="M293.059 113.804L388.036 158.675C388.755 159.015 389.506 158.927 389.712 158.484C389.925 158.038 389.515 157.402 388.796 157.063L293.821 112.191C293.103 111.853 292.351 111.938 292.14 112.385C291.931 112.827 292.343 113.465 293.059 113.804Z" fill="#3955A5"/>
<path d="M295.004 109.672L389.98 154.54C390.698 154.881 391.451 154.795 391.659 154.35C391.872 153.905 391.457 153.269 390.74 152.927L295.766 108.058C295.048 107.72 294.296 107.805 294.086 108.251C293.876 108.695 294.288 109.33 295.004 109.672Z" fill="#3955A5"/>
<path d="M342.872 140.516C342.872 140.516 340.47 143.168 338.458 141.786C336.447 140.405 336.171 134.651 336.21 132.625C336.251 130.598 339.246 134.317 339.582 136.409C339.918 138.502 340.936 139.023 340.936 139.023L342.872 140.516Z" fill="#F9AE90"/>
<path d="M335.824 136.719C335.824 136.719 333.423 139.371 331.412 137.99C329.4 136.608 329.123 130.854 329.164 128.828C329.203 126.801 332.199 130.52 332.535 132.612C332.871 134.706 333.888 135.226 333.888 135.226L335.824 136.719Z" fill="#F9AE90"/>
<path d="M332.137 135.293C332.137 135.293 330.015 137.636 328.238 136.415C326.462 135.196 326.218 130.112 326.253 128.322C326.289 126.532 328.933 129.816 329.23 131.666C329.528 133.514 330.428 133.974 330.428 133.974L332.137 135.293Z" fill="#F9AE90"/>
<path d="M339.481 138.493C339.481 138.493 337.079 141.145 335.068 139.764C333.056 138.383 332.779 132.628 332.82 130.601C332.861 128.575 335.855 132.293 336.191 134.386C336.527 136.479 337.545 136.999 337.545 136.999L339.481 138.493Z" fill="#F9AE90"/>
<path d="M97.9532 16.5388L105.25 32.4883L128.339 21.9251L121.042 5.97562L97.9532 16.5388Z" fill="#FCC865"/>
<path d="M105.59 34.557C105.504 34.596 105.416 34.6264 105.327 34.6482C105.19 34.6801 105.054 34.5975 105.022 34.4619C104.989 34.3255 105.072 34.1891 105.208 34.1572C105.267 34.1431 105.325 34.1236 105.381 34.0979L105.971 33.8275H105.972C106.098 33.7698 106.248 33.8251 106.306 33.9522C106.363 34.0792 106.308 34.2281 106.181 34.2858L105.59 34.557ZM107.325 33.7636C107.199 33.8212 107.049 33.7643 106.992 33.6389C106.934 33.5118 106.989 33.3629 107.116 33.3045L107.918 32.9382C108.044 32.8805 108.194 32.9358 108.252 33.0629C108.31 33.1899 108.254 33.3388 108.127 33.3965L107.325 33.7636C107.326 33.7628 107.326 33.7628 107.325 33.7636ZM109.271 32.8727C109.144 32.9312 108.995 32.8743 108.937 32.7488C108.879 32.6217 108.935 32.4721 109.062 32.4144L109.864 32.0473C109.991 31.9896 110.14 32.045 110.197 32.172C110.255 32.2991 110.2 32.4479 110.073 32.5072L109.271 32.8727ZM111.217 31.9826C111.09 32.0403 110.941 31.985 110.882 31.8579C110.825 31.7309 110.881 31.5805 111.007 31.5228L111.808 31.1565C111.935 31.0988 112.084 31.1541 112.142 31.2812C112.2 31.4082 112.144 31.5571 112.017 31.6155L111.217 31.9826ZM113.162 31.0926C113.035 31.1502 112.886 31.0941 112.828 30.9678C112.769 30.8408 112.826 30.6912 112.952 30.6335L113.754 30.2664C113.881 30.2087 114.03 30.2648 114.087 30.3911C114.147 30.5181 114.089 30.667 113.963 30.7262L113.162 31.0926ZM115.108 30.2033C114.981 30.2609 114.832 30.2048 114.774 30.0785C114.715 29.9515 114.772 29.8019 114.897 29.7442L115.699 29.3779C115.826 29.3194 115.975 29.3755 116.033 29.5026C116.092 29.6296 116.035 29.7785 115.908 29.8377L115.108 30.2033ZM117.053 29.3124C116.926 29.3701 116.777 29.3147 116.719 29.1877C116.661 29.0606 116.717 28.911 116.844 28.8533L117.645 28.487C117.772 28.4293 117.921 28.4847 117.979 28.6117C118.037 28.738 117.98 28.8876 117.855 28.9461L117.053 29.3124ZM118.998 28.4223C118.871 28.4808 118.722 28.4247 118.665 28.2976C118.606 28.1714 118.662 28.0217 118.789 27.9632L119.591 27.5969C119.718 27.5393 119.867 27.5946 119.924 27.7216C119.983 27.8479 119.927 27.9983 119.8 28.056L118.998 28.4223ZM120.944 27.5322C120.817 27.5899 120.668 27.5346 120.61 27.4075C120.552 27.2805 120.609 27.1316 120.734 27.0724L121.535 26.7061C121.662 26.6484 121.811 26.7037 121.87 26.8308C121.927 26.9578 121.871 27.1075 121.745 27.1651L120.944 27.5322ZM122.889 26.6422C122.762 26.6998 122.613 26.6437 122.556 26.5175C122.498 26.3904 122.553 26.2415 122.68 26.1831L123.481 25.8168C123.608 25.7591 123.757 25.8152 123.816 25.9415C123.874 26.0685 123.817 26.2189 123.691 26.2758L122.889 26.6422ZM124.834 25.7529C124.707 25.8105 124.559 25.7544 124.501 25.6282C124.443 25.5011 124.499 25.3522 124.626 25.2946L125.426 24.9275C125.553 24.869 125.702 24.9259 125.76 25.0514C125.819 25.1784 125.762 25.3289 125.637 25.3865L124.834 25.7529ZM126.78 24.862C126.653 24.9197 126.504 24.8643 126.446 24.7373C126.389 24.6103 126.444 24.4614 126.571 24.4037L127.371 24.0366C127.498 23.9789 127.647 24.0351 127.706 24.1613C127.763 24.2884 127.708 24.438 127.581 24.4957L126.78 24.862ZM128.725 23.9719C128.599 24.0296 128.449 23.9743 128.392 23.8472C128.334 23.7202 128.389 23.5713 128.516 23.5136L129.317 23.1465C129.444 23.0889 129.594 23.145 129.651 23.2712C129.709 23.3983 129.654 23.5479 129.527 23.6064L128.726 23.9719H128.725ZM130.382 22.7529C130.331 22.7771 130.27 22.7826 130.21 22.7662C130.076 22.728 129.998 22.5893 130.035 22.4552C130.095 22.244 130.077 22.0156 129.986 21.8145L129.966 21.7717C129.907 21.6454 129.964 21.4958 130.091 21.4373C130.218 21.3796 130.367 21.435 130.424 21.562L130.445 21.6057C130.586 21.9151 130.613 22.265 130.522 22.5924C130.5 22.6656 130.448 22.7225 130.382 22.7529ZM104.224 34.2834C104.127 34.3271 104.01 34.3068 103.933 34.2242C103.831 34.1127 103.747 33.9857 103.683 33.8477L103.473 33.3871C103.414 33.2608 103.47 33.1104 103.597 33.0527C103.724 32.9951 103.873 33.0504 103.931 33.1774L104.141 33.6373C104.183 33.7277 104.237 33.8103 104.303 33.882C104.399 33.9841 104.392 34.1439 104.289 34.239C104.271 34.2577 104.247 34.2725 104.224 34.2834ZM129.776 20.7514C129.65 20.8091 129.5 20.753 129.442 20.6267L129.076 19.8255C129.018 19.6992 129.074 19.5496 129.201 19.4911C129.328 19.4335 129.477 19.4888 129.534 19.6159L129.901 20.4163C129.959 20.5433 129.903 20.693 129.776 20.7514C129.776 20.7507 129.776 20.7507 129.776 20.7514ZM103.283 32.3677C103.156 32.4253 103.007 32.3692 102.95 32.2429L102.583 31.4417C102.525 31.3155 102.582 31.1658 102.708 31.1074C102.835 31.0497 102.984 31.1058 103.042 31.2321L103.408 32.0333C103.466 32.1596 103.41 32.3092 103.285 32.3669C103.283 32.3676 103.283 32.3677 103.283 32.3677ZM128.886 18.8053C128.76 18.8629 128.61 18.8076 128.552 18.6806L128.186 17.8801C128.128 17.7539 128.184 17.6042 128.311 17.5458C128.438 17.4881 128.587 17.5434 128.644 17.6705L129.011 18.4709C129.068 18.5979 129.013 18.7468 128.886 18.8053ZM102.393 30.4215C102.267 30.4792 102.117 30.4238 102.06 30.2968L101.693 29.4956C101.635 29.3693 101.692 29.2196 101.818 29.1612C101.945 29.1035 102.094 29.1596 102.152 29.2859L102.519 30.0871C102.576 30.2134 102.52 30.363 102.394 30.4207C102.393 30.4215 102.393 30.4215 102.393 30.4215ZM127.995 16.8607C127.869 16.9183 127.719 16.8622 127.661 16.736L127.296 15.9355C127.238 15.8085 127.294 15.6588 127.421 15.6011C127.548 15.5435 127.696 15.5996 127.754 15.7258L128.121 16.5263C128.179 16.6533 128.124 16.803 127.997 16.8607C127.996 16.8599 127.996 16.8599 127.995 16.8607ZM101.503 28.4761C101.377 28.5338 101.227 28.4784 101.17 28.3514L100.803 27.5509C100.745 27.4239 100.801 27.275 100.928 27.2166C101.055 27.1589 101.204 27.215 101.261 27.3413L101.629 28.1417C101.686 28.2688 101.629 28.4184 101.504 28.4761H101.503ZM127.106 14.9145C126.979 14.9722 126.83 14.9161 126.771 14.7898L126.405 13.9893C126.347 13.8623 126.403 13.7134 126.53 13.655C126.657 13.5973 126.806 13.6526 126.864 13.7789L127.23 14.5801C127.289 14.7072 127.233 14.856 127.106 14.9145ZM100.613 26.5307C100.487 26.5884 100.337 26.533 100.279 26.406L99.9131 25.6048C99.8554 25.4777 99.9108 25.3289 100.038 25.2704C100.165 25.2127 100.314 25.2689 100.371 25.3951L100.738 26.1956C100.796 26.3234 100.741 26.473 100.613 26.5307ZM126.215 12.9691C126.089 13.0268 125.939 12.9707 125.881 12.8444L125.515 12.0424C125.457 11.9161 125.513 11.7665 125.64 11.7088C125.767 11.6511 125.916 11.7073 125.974 11.8327L126.34 12.634C126.398 12.7602 126.342 12.9099 126.216 12.9683C126.216 12.9691 126.216 12.9691 126.215 12.9691ZM99.7229 24.5853C99.5967 24.643 99.447 24.5877 99.3894 24.4606L99.023 23.6594C98.9654 23.5323 99.0207 23.3835 99.1477 23.3242C99.2748 23.2666 99.4237 23.3227 99.4813 23.449L99.8484 24.2502C99.9061 24.3772 99.8508 24.5261 99.7237 24.5845L99.7229 24.5853ZM125.326 11.0245C125.199 11.0822 125.05 11.0261 124.992 10.8998L124.625 10.0986C124.567 9.9723 124.623 9.82265 124.75 9.7642C124.877 9.70652 125.025 9.76264 125.084 9.88891L125.45 10.6901C125.508 10.8156 125.453 10.9653 125.326 11.0245C125.326 11.0237 125.326 11.0237 125.326 11.0245ZM98.8329 22.6407C98.7066 22.6984 98.557 22.6423 98.4993 22.516L98.133 21.7156C98.0753 21.5885 98.1306 21.4389 98.2577 21.3804C98.3847 21.3227 98.5336 21.3789 98.592 21.5051L98.9591 22.3063C99.0168 22.4326 98.9607 22.5823 98.8344 22.6407H98.8329ZM124.435 9.07833C124.308 9.136 124.159 9.07989 124.101 8.95362L123.735 8.1524C123.677 8.02535 123.732 7.87649 123.859 7.81803C123.987 7.76036 124.135 7.81647 124.194 7.94274L124.56 8.74396C124.618 8.871 124.562 9.01987 124.435 9.07833ZM97.9428 20.6945C97.8165 20.7522 97.6669 20.6969 97.6092 20.5698L97.2429 19.7686C97.1852 19.6416 97.2413 19.4927 97.3676 19.4342C97.4946 19.3758 97.6435 19.4319 97.7027 19.5582L98.0691 20.3594C98.1267 20.4864 98.0714 20.6361 97.9451 20.6938C97.9436 20.6945 97.9436 20.6945 97.9428 20.6945ZM123.545 7.13216C123.418 7.19062 123.269 7.1345 123.211 7.00823L122.845 6.20701C122.787 6.07997 122.842 5.9311 122.969 5.87264C123.096 5.81497 123.245 5.87109 123.304 5.99735L123.67 6.79857C123.728 6.92484 123.672 7.07448 123.545 7.13216ZM97.0527 18.7491C96.9264 18.8068 96.7768 18.7515 96.7191 18.6244L96.3528 17.824C96.2943 17.697 96.3497 17.5473 96.4767 17.4889C96.6038 17.4312 96.7526 17.4873 96.8119 17.6136L97.1774 18.4148C97.2359 18.5418 97.1805 18.6915 97.0527 18.7491C97.0535 18.7491 97.0535 18.7491 97.0527 18.7491ZM122.655 5.18677C122.528 5.24445 122.379 5.18833 122.32 5.06207L122.205 4.80954C122.139 4.66457 122.036 4.53909 121.909 4.44556C121.796 4.36294 121.773 4.2055 121.854 4.09249C121.937 3.98026 122.096 3.95609 122.207 4.03871C122.404 4.1829 122.562 4.37697 122.664 4.59988L122.779 4.85319C122.838 4.97945 122.782 5.12909 122.655 5.18677ZM96.1759 16.7991C96.1642 16.8038 96.1525 16.8084 96.14 16.8123C96.0067 16.8505 95.8665 16.7726 95.8283 16.6385C95.7301 16.2925 95.7644 15.923 95.9265 15.5996C95.9888 15.4749 96.1392 15.4242 96.2639 15.4874C96.3887 15.5497 96.4393 15.7009 96.377 15.8256C96.2717 16.0368 96.2491 16.2753 96.3131 16.5006C96.3481 16.6214 96.2881 16.7476 96.1759 16.7991ZM96.822 15.3962C96.6965 15.4538 96.5461 15.3985 96.4884 15.2715C96.4307 15.1444 96.4869 14.9955 96.6131 14.9379L97.4136 14.57C97.5398 14.5123 97.6903 14.5684 97.7479 14.6947C97.8056 14.8217 97.7503 14.9714 97.6232 15.0298L96.8228 15.3962C96.8236 15.3954 96.8236 15.3954 96.822 15.3962ZM98.7682 14.5061C98.6419 14.5638 98.4923 14.5076 98.4346 14.3814C98.3769 14.2543 98.4323 14.1055 98.5593 14.0478L99.3613 13.6807C99.4883 13.623 99.6372 13.6791 99.6949 13.8046C99.7526 13.9317 99.6972 14.0813 99.571 14.1398L98.7682 14.5061C98.7689 14.5053 98.7689 14.5053 98.7682 14.5061ZM100.714 13.6152C100.587 13.6729 100.438 13.6176 100.38 13.4905C100.322 13.3643 100.379 13.2146 100.505 13.1569L101.306 12.7898C101.433 12.7322 101.582 12.7883 101.639 12.9145C101.697 13.0408 101.642 13.1905 101.515 13.2489L100.714 13.6152ZM102.66 12.7252C102.533 12.7828 102.384 12.7275 102.325 12.6012C102.268 12.4742 102.324 12.3245 102.45 12.2669L103.252 11.8998C103.379 11.8421 103.528 11.8982 103.586 12.0245C103.644 12.1507 103.587 12.3004 103.461 12.3588L102.66 12.7252ZM104.605 11.8359C104.478 11.8935 104.329 11.8374 104.27 11.7111C104.212 11.5849 104.268 11.4345 104.395 11.3768L105.197 11.0097C105.324 10.9512 105.473 11.0081 105.53 11.1344C105.589 11.2607 105.533 11.4103 105.406 11.4688L104.605 11.8359ZM106.55 10.9458C106.423 11.0035 106.275 10.9473 106.217 10.8211C106.158 10.6948 106.215 10.5452 106.341 10.4875L107.142 10.1204C107.269 10.0627 107.418 10.1188 107.476 10.2451C107.534 10.3714 107.478 10.521 107.352 10.5787L106.55 10.9458ZM108.496 10.0557C108.369 10.1134 108.22 10.0573 108.162 9.93099C108.104 9.80551 108.16 9.65508 108.287 9.59741L109.087 9.23109C109.215 9.17341 109.363 9.22875 109.421 9.35502C109.48 9.48206 109.423 9.63171 109.297 9.68938L108.496 10.0557ZM110.441 9.16562C110.314 9.22329 110.165 9.16718 110.108 9.04092C110.049 8.91465 110.105 8.76423 110.232 8.70655L111.034 8.34101C111.161 8.28334 111.31 8.33867 111.369 8.46493C111.426 8.5912 111.37 8.74084 111.244 8.79852L110.441 9.16562ZM112.387 8.27554C112.26 8.33322 112.111 8.2771 112.053 8.15084C111.995 8.0238 112.051 7.87415 112.178 7.81647L112.979 7.45015C113.106 7.39248 113.255 7.4486 113.313 7.57486C113.371 7.7019 113.314 7.85077 113.189 7.90844L112.387 8.27554ZM114.332 7.38546C114.205 7.44314 114.056 7.3878 113.998 7.26154C113.941 7.1345 113.996 6.98485 114.123 6.9264L114.924 6.56008C115.051 6.5024 115.2 6.55852 115.259 6.68478C115.316 6.81105 115.26 6.96069 115.134 7.01837L114.332 7.38546ZM116.277 6.49539C116.152 6.55306 116.002 6.49773 115.944 6.37068C115.886 6.24364 115.942 6.09399 116.069 6.03632L116.87 5.67C116.997 5.61232 117.146 5.66766 117.204 5.7947C117.262 5.92097 117.206 6.07061 117.079 6.12829L116.279 6.49461C116.277 6.49539 116.277 6.49539 116.277 6.49539ZM118.223 5.60531C118.096 5.66298 117.947 5.60687 117.889 5.4806C117.832 5.35434 117.887 5.2047 118.014 5.14624L118.814 4.77992C118.814 4.77992 118.814 4.77992 118.815 4.77992C118.941 4.72225 119.091 4.77758 119.149 4.90463C119.206 5.03089 119.15 5.18054 119.024 5.23899L118.223 5.60531ZM120.168 4.71523C120.042 4.77291 119.892 4.71679 119.835 4.59053C119.777 4.46348 119.832 4.31384 119.959 4.25538L120.758 3.89062L120.969 4.34813L120.17 4.71445L120.168 4.71523Z" fill="#E48E39"/>
<path d="M97.9648 16.5328L98.4325 17.5546L114.659 22.5046L121.521 6.99133L121.055 5.96875L114.208 21.517L97.9648 16.5328Z" fill="#E48E39"/>
<path d="M115.523 18.4895L127.697 22.2268L128.365 21.9205L128.179 21.5136L115.766 17.7031L115.523 18.4895Z" fill="#E48E39"/>
<path d="M105.129 32.1341L105.291 32.4864L106.02 32.1528L111.151 20.4992L110.398 20.168L105.129 32.1341Z" fill="#E48E39"/>
<path d="M121.056 5.96094L114.208 21.5108L97.9648 16.525L121.056 5.96094Z" fill="#FCC865"/>
<path d="M121.083 9.04106C123.58 9.04106 125.604 7.01716 125.604 4.52053C125.604 2.02391 123.58 0 121.083 0C118.586 0 116.562 2.02391 116.562 4.52053C116.562 7.01716 118.586 9.04106 121.083 9.04106Z" fill="#049581"/>
<path d="M121.134 6.85872C121.028 6.90704 120.908 6.91172 120.799 6.87119L119.332 6.32171C119.105 6.23675 118.99 5.98345 119.074 5.75742C119.159 5.53061 119.412 5.41604 119.639 5.50022L120.695 5.89538L122.236 1.77701C122.32 1.55021 122.573 1.43563 122.799 1.51981C123.027 1.60476 123.141 1.85729 123.056 2.0841L121.364 6.6132C121.322 6.72232 121.24 6.81039 121.134 6.85872Z" fill="white"/>
<path d="M261.77 143.758C269.159 143.758 275.149 137.768 275.149 130.379C275.149 122.99 269.159 117 261.77 117C254.381 117 248.391 122.99 248.391 130.379C248.391 137.768 254.381 143.758 261.77 143.758Z" fill="#DD4D36"/>
<path d="M257.721 136.398C257.636 136.398 257.549 136.388 257.462 136.371C257.077 136.293 256.749 136.043 256.57 135.693L255.08 132.781C254.754 132.145 255.007 131.366 255.643 131.04C256.279 130.715 257.059 130.967 257.385 131.604L258.137 133.076L266.983 125.714C267.532 125.256 268.348 125.331 268.805 125.881C269.263 126.43 269.189 127.246 268.639 127.703L258.55 136.098C258.315 136.293 258.021 136.398 257.721 136.398Z" fill="white"/>
<path d="M276.541 134.359C276.758 134.359 276.917 134.567 276.862 134.777C275.947 138.291 273.804 141.31 270.758 143.344C267.904 145.248 264.553 146.089 261.183 145.774C261.025 145.76 260.889 145.642 260.869 145.484C260.845 145.271 261.02 145.093 261.229 145.112C264.453 145.418 267.659 144.613 270.39 142.79C273.299 140.848 275.344 137.965 276.22 134.608C276.258 134.463 276.389 134.359 276.541 134.359Z" fill="#DD4D36"/>
<path d="M250.393 135.039L247.059 143.354C246.804 143.991 247.42 144.633 248.065 144.401L256.908 141.249L250.393 135.039Z" fill="#DD4D36"/>
<path d="M181.571 35.3203C177.282 35.3203 173.793 38.8097 173.793 43.098C173.793 47.3862 177.282 50.8756 181.571 50.8756C185.859 50.8756 189.348 47.3862 189.348 43.098C189.348 38.8097 185.858 35.3203 181.571 35.3203ZM179.982 36.1239C179.623 36.5019 179.285 36.9158 178.978 37.3577C178.561 37.957 178.209 38.5993 177.93 39.2688H175.534C176.55 37.6741 178.155 36.5409 179.982 36.1239ZM175.178 39.8946H177.695C177.395 40.7777 177.225 41.6935 177.192 42.6194H174.435C174.498 41.6654 174.748 40.7489 175.178 39.8946ZM174.42 43.2453H177.19C177.209 44.2024 177.34 45.1174 177.578 45.9693H175.022C174.641 45.1088 174.44 44.1915 174.42 43.2453ZM175.334 46.5951H177.776C178.102 47.5156 178.557 48.348 179.127 49.0736C179.423 49.4485 179.744 49.7907 180.086 50.0939C178.094 49.6691 176.342 48.3815 175.334 46.5951ZM181.258 50.1983C180.783 49.9022 179.306 48.8367 178.444 46.5951H181.258V50.1983ZM181.258 45.9693H178.229C177.974 45.1268 177.836 44.211 177.813 43.2453H181.258V45.9693ZM181.258 42.6194H177.818C177.854 41.6912 178.037 40.7746 178.356 39.8946H181.258V42.6194ZM181.258 39.2688H178.611C178.854 38.7325 179.144 38.2135 179.482 37.7294C180.135 36.7872 180.79 36.1901 181.059 35.9633C181.124 35.9586 181.191 35.9548 181.258 35.9516V39.2688ZM188.705 42.6194H186.02C185.987 41.6935 185.818 40.7777 185.519 39.8946H187.962C188.393 40.7473 188.643 41.6647 188.705 42.6194ZM187.606 39.2688H185.284C185.005 38.5993 184.652 37.9563 184.236 37.3577C183.933 36.9243 183.603 36.5175 183.251 36.1449C185.04 36.579 186.61 37.7029 187.606 39.2688ZM181.882 35.9532C181.975 35.9579 182.068 35.9633 182.161 35.9711C182.55 36.3008 183.769 37.4302 184.599 39.2688H181.882V35.9532ZM181.882 39.8946H184.854C185.177 40.7715 185.358 41.688 185.396 42.6194H181.882V39.8946ZM181.882 43.2453H185.399C185.378 44.2078 185.238 45.1236 184.984 45.9693H181.882V43.2453ZM181.882 50.242V46.5951H184.772C184.478 47.3597 184.087 48.0573 183.61 48.6676C182.864 49.6192 182.119 50.1032 181.882 50.242ZM183.15 50.0736C183.484 49.7759 183.797 49.44 184.085 49.0736C184.657 48.348 185.111 47.5156 185.436 46.5951H187.807C186.805 48.3753 185.126 49.6278 183.15 50.0736ZM185.634 45.9693C185.872 45.1174 186.003 44.2016 186.024 43.2453H188.719C188.701 44.1915 188.498 45.1088 188.118 45.9693H185.634Z" fill="#405BA9"/>
<path d="M402.794 154.767C402.794 154.767 401.884 155.058 400.656 155.444C398.198 156.213 394.462 157.363 394.202 157.308C394.114 157.291 393.836 157.191 393.467 157.043C392.167 156.523 389.723 155.387 390.391 154.933C391.133 154.424 392.609 154.582 394.781 154.526C396.806 154.471 399.531 154.587 401.225 154.675C402.089 154.721 402.686 154.759 402.782 154.765C402.79 154.767 402.794 154.767 402.794 154.767Z" fill="#F9B2A2"/>
<path d="M405.064 161.994C404.922 162.06 404.778 162.13 404.633 162.203C403.615 162.711 402.587 163.341 401.905 164.054C401.043 164.958 400.357 166.139 399.681 167.234C399.364 167.746 398.757 168.013 398.165 167.889C398.157 167.887 398.148 167.885 398.139 167.883C397.211 167.688 396.712 166.677 397.132 165.827C397.559 164.964 397.909 164.296 397.928 164.254C397.871 164.313 396.971 165.246 396.054 166.349C395.648 166.836 394.984 167.027 394.386 166.817C394.362 166.809 394.339 166.801 394.315 166.792C393.4 166.466 393.012 165.387 393.522 164.557C394.153 163.528 394.81 162.659 395.224 162.277C395.151 162.3 393.969 162.72 393.031 164.025C392.639 164.571 391.885 164.712 391.306 164.372L391.3 164.37C390.674 164.002 390.474 163.186 390.861 162.57C391.618 161.372 392.204 161.12 393.075 160.444C393.075 160.444 392.62 160.61 390.714 161.642C390.184 161.931 389.769 162.211 389.391 162.562C389.274 162.671 389.143 162.757 389.003 162.818C388.642 162.981 388.225 162.991 387.848 162.835L387.821 162.823C386.992 162.479 386.666 161.469 387.144 160.707C387.342 160.389 387.533 160.109 387.663 159.978C387.942 159.698 388.174 159.483 388.384 159.31C389.2 158.638 389.709 158.593 391.516 157.835C392.181 157.557 392.837 157.289 393.472 157.042C395.016 156.443 396.432 155.975 397.494 155.802C398.135 155.699 399.455 155.352 400.905 155.067H400.908C401.524 154.947 402.164 154.837 402.786 154.763C404.129 154.604 405.387 154.605 406.148 155.003C406.618 155.251 406.972 155.722 407.233 156.297C408.213 158.448 407.205 160.991 405.064 161.994Z" fill="#F9AE90"/>
<path d="M72.6873 348.328C72.6799 348.522 72.6717 348.718 72.661 348.917C72.624 349.621 72.5665 350.36 72.4851 351.132C68.3238 351.707 64.1764 352.157 60.0405 352.479C59.8605 352.493 59.6806 352.506 59.5006 352.519C53.582 352.965 47.6881 353.145 41.8205 353.046C41.6331 353.043 41.4465 353.039 41.2591 353.036C39.4443 353 37.6328 352.937 35.8238 352.848C35.8238 352.848 35.8238 352.848 35.8222 352.848C35.5764 352.834 35.3315 352.823 35.0857 352.811C29.5337 352.512 24.0072 351.957 18.5046 351.133C18.1709 347.931 18.2136 345.336 18.5744 343.197C18.6065 343.009 18.6418 342.827 18.6788 342.647C19.6273 337.968 22.2064 335.574 25.7596 333.686C25.9182 333.6 26.0809 333.515 26.2445 333.432C26.9998 333.049 27.7954 332.684 28.6256 332.322C35.0734 329.514 33.8743 324.322 26.7508 320.413C22.4538 318.053 20.9201 314.85 20.6645 311.794C20.6506 311.616 20.6399 311.439 20.6333 311.263C20.4599 306.526 23.1903 302.281 23.1903 302.281L42.446 302.877L43.0451 302.896L45.4944 302.972L60.7852 302.498L61.4131 302.479L67.7977 302.282C67.7977 302.282 68.812 303.859 69.5648 306.162C69.6232 306.344 69.6816 306.529 69.7358 306.72V306.721C70.7303 310.13 71.0023 314.854 66.9602 318.506C66.8279 318.626 66.6923 318.744 66.5492 318.861C65.8876 319.409 65.1208 319.93 64.2372 320.415C62.1175 321.579 60.523 322.854 59.4981 324.148C59.3962 324.276 59.3008 324.405 59.2104 324.531C57.1466 327.464 58.0219 330.434 62.3616 332.324C68.7511 335.106 73.0736 338.041 72.6873 348.328Z" fill="#F9A137"/>
<path d="M40.9036 334.183C39.1283 335.749 36.6058 336.3 34.3102 336.509C31.7771 336.74 29.0492 336.383 26.9673 334.815C26.5251 334.481 26.1174 334.102 25.7591 333.685C25.9177 333.6 26.0804 333.514 26.244 333.431C27.0067 334.285 27.9889 334.959 29.0631 335.378C31.6275 336.38 34.6275 336.179 37.237 335.454C39.4998 334.825 41.6211 333.489 42.1644 331.049C42.7307 328.506 41.428 325.991 39.2951 324.617C37.4327 323.418 35.0524 323.388 33.2598 322.055C31.7894 320.961 31.2905 319.231 31.9439 317.522C32.267 316.679 32.8135 315.913 33.4785 315.309C34.136 314.711 35.3877 314.225 35.6516 313.305C36.2277 311.297 29.2916 311.232 28.1541 311.2C25.6465 311.134 23.1298 311.329 20.6641 311.794C20.6501 311.615 20.6394 311.439 20.6328 311.263C23.9328 310.655 27.3149 310.503 30.6552 310.826C32.0006 310.955 33.4595 311.073 34.7532 311.482C35.4938 311.715 36.2318 312.203 36.2171 313.068C36.2006 313.964 35.3565 314.574 34.6949 315.041C33.5993 315.817 32.6475 316.8 32.2982 318.138C31.3546 321.749 35.576 322.475 38.0014 323.393C40.1022 324.188 41.9005 325.828 42.5622 328.018C43.2213 330.197 42.6255 332.663 40.9036 334.183Z" fill="#CA6F28"/>
<path d="M61.4097 302.477C60.5903 303.873 59.7182 305.238 58.7927 306.571C56.1117 310.432 52.1221 316.414 46.5775 314.804C41.4759 313.322 40.0647 307.147 42.4425 302.874L43.0417 302.893C41.3305 305.722 41.3083 309.455 43.4436 312.099C45.634 314.814 49.3129 315.195 52.1542 313.301C54.8435 311.509 56.8136 308.532 58.6078 305.908C59.3697 304.794 60.0946 303.654 60.7826 302.495L61.4097 302.477Z" fill="#CA6F28"/>
<path d="M69.7312 306.717V306.719C67.7028 308.557 66.4214 312.061 66.1954 314.162C66.0384 315.629 66.2677 317.189 66.9557 318.504C66.8233 318.624 66.6877 318.742 66.5447 318.859C65.8231 317.533 65.5387 315.956 65.6414 314.463C65.8033 312.074 67.2441 308.127 69.5603 306.16C69.6186 306.342 69.6762 306.527 69.7312 306.717Z" fill="#CA6F28"/>
<path d="M72.6898 348.328C72.6824 348.522 72.6742 348.719 72.6635 348.918C71.5811 349.271 70.3975 349.39 69.1614 349.212C67.5348 348.979 65.6189 347.939 65.3831 346.147C65.2228 344.936 66.002 343.966 66.4096 342.893C66.9488 341.47 66.302 340.123 65.0781 339.312C62.499 337.603 59.1686 339.278 56.4259 339.592C53.9569 339.877 51.7254 339.016 50.1876 337.044C47.2937 333.331 48.1575 327.728 52.0007 325.051C54.4081 323.374 57.0489 323.303 59.5015 324.145C59.3996 324.273 59.3042 324.402 59.2138 324.528C58.6039 324.328 57.9719 324.19 57.321 324.132C54.8536 323.911 52.3936 324.971 50.7892 326.846C47.7153 330.44 48.658 337.197 53.4695 338.838C57.51 340.215 62.8351 335.836 66.2387 339.615C67.5118 341.028 67.2011 342.508 66.4359 344.078C65.8499 345.275 65.6173 346.439 66.6365 347.47C67.3877 348.231 68.4776 348.629 69.5255 348.725C70.6425 348.826 71.7117 348.675 72.6898 348.328Z" fill="#CA6F28"/>
<path d="M60.0432 352.475C59.8632 352.489 59.6832 352.503 59.5032 352.516C59.5221 350.897 59.3355 349.278 58.9287 347.703C58.5531 346.258 57.9095 344.899 56.3479 344.486C55.175 344.176 53.9084 344.416 52.7553 344.699C48.1419 345.825 43.6132 348.508 41.8231 353.043C41.6357 353.04 41.4491 353.036 41.2617 353.033C43.1809 347.938 48.4871 344.83 53.7021 343.957C54.8027 343.771 55.9879 343.719 57.0374 344.163C58.2563 344.678 58.9073 345.802 59.2845 347.017C59.8311 348.772 60.0654 350.625 60.0432 352.475Z" fill="#CA6F28"/>
<path d="M36.8759 351.688C36.5529 352.106 36.1986 352.491 35.8197 352.848C35.8197 352.848 35.8197 352.848 35.8181 352.848C35.5723 352.835 35.3274 352.823 35.0816 352.811C35.9652 352.054 36.7222 351.172 37.2441 350.104C38.477 347.58 38.089 344.456 35.4203 343.073C32.7038 341.669 29.6094 342.557 26.8371 343.276C24.3623 343.918 21.5694 344.541 19.1177 343.472C18.9303 343.39 18.7487 343.299 18.5703 343.196C18.6024 343.009 18.6377 342.827 18.6747 342.647C18.7487 342.693 18.8251 342.736 18.9024 342.779C20.5108 343.657 22.4555 343.621 24.2143 343.327C27.1099 342.838 29.9464 341.544 32.9365 341.835C35.0923 342.045 37.2712 343.113 38.1095 345.222C38.9643 347.377 38.246 349.915 36.8759 351.688Z" fill="#CA6F28"/>
<path d="M45.4814 303.813C57.8069 303.813 67.7987 303.145 67.7987 302.321C67.7987 301.496 57.8069 300.828 45.4814 300.828C33.1559 300.828 23.1641 301.496 23.1641 302.321C23.1641 303.145 33.1559 303.813 45.4814 303.813Z" fill="#1C1A0F"/>
<path d="M47.8895 296.547C47.8895 296.547 45.2758 281.349 54.016 278.294C69.1539 273.003 68.5942 265.42 66.2189 258.277C66.2189 258.277 77.6944 266.566 76.9892 275.737C76.284 284.907 55.1001 284.996 55.4724 302.192H48.8585L47.8895 296.547Z" fill="#066053"/>
<path d="M38.3041 243.023C38.3041 243.023 34.3639 247.034 38.1044 251.842C44.2769 259.777 38.2803 262.952 38.2803 262.952C38.2803 262.952 49.9202 266.48 56.0935 259.955C60.9428 254.829 58.5625 243.023 58.5625 243.023H38.3041Z" fill="#066053"/>
<path d="M37.0452 302.103C37.0452 302.103 26.6399 302.632 23.4657 286.23C20.2914 269.828 23.6424 253.074 15 248.488C15 248.488 34.0477 252.015 39.691 267.535C45.3342 283.055 43.2186 298.046 48.8618 302.103H37.0452Z" fill="#066053"/>
<path d="M39.6541 302.102C39.6541 302.102 30.8761 293.284 38.2832 279.527C45.691 265.771 46.9255 246.194 38.2832 243.02C44.7664 239.979 51.5923 240.699 58.5654 243.02C58.5654 243.02 69.1475 255.013 62.9741 267.711C56.8016 280.408 45.691 297.163 50.0997 302.102H39.6541Z" fill="#049581"/>
<path d="M53.737 249.567C57.2893 256.939 53.9605 265.208 50.3622 271.851C46.9184 278.209 42.8162 284.609 42.5582 292.065C42.4341 295.65 43.3258 299.178 45.5828 302.013C45.7949 302.28 46.1672 301.903 45.9568 301.64C41.2546 295.732 43.0694 287.488 45.974 281.214C49.1293 274.401 53.8611 268.232 55.3265 260.729C56.0794 256.878 55.9183 252.876 54.1948 249.3C54.0468 248.993 53.5898 249.261 53.737 249.567Z" fill="#066053"/>
</svg>
