<svg width="481" height="366" viewBox="0 0 481 366" fill="none" xmlns="http://www.w3.org/2000/svg">
<g opacity="0.4">
<path d="M207.412 330.783C178.984 331.73 150.779 324.905 126.12 310.723C94.2742 292.411 62.5532 258.799 71.0127 198.57C87.042 84.452 246.705 36.4715 325.485 47.5493C450.689 65.156 534.224 214.68 381.724 296.336C343.81 316.636 252.525 329.282 207.412 330.783Z" fill="#A9C7E9"/>
</g>
<g opacity="0.4">
<path d="M36.5646 75.7169C29.7337 75.9446 22.9563 74.3046 17.0311 70.8968C9.37893 66.4966 1.75674 58.42 3.78948 43.9477C7.64111 16.5266 46.0061 4.99743 64.9362 7.65929C95.0211 11.89 115.094 47.8188 78.4495 67.4397C69.3394 72.3176 47.4047 75.3563 36.5646 75.7169Z" fill="#A9C7E9"/>
</g>
<path d="M115.535 112.995L126.996 154.901L122.91 150.192C124.424 150.996 126.176 151.614 128.114 152.049C130.051 152.484 132.165 152.736 134.374 152.851C136.584 152.966 138.888 152.947 141.242 152.848C143.597 152.75 146.005 152.574 148.447 152.365L148.46 152.364C152.065 152.056 155.235 154.729 155.543 158.334C155.836 161.77 153.398 164.815 150.048 165.359C147.529 165.759 144.966 166.14 142.337 166.444C139.708 166.747 137.013 166.976 134.222 167.04C131.433 167.1 128.541 166.996 125.553 166.563C122.57 166.129 119.476 165.352 116.452 164.047C114.517 163.212 113.138 161.624 112.511 159.773L112.366 159.338L98.617 118.127C97.0717 113.495 99.5736 108.487 104.206 106.941C108.839 105.396 113.847 107.899 115.393 112.531C115.442 112.674 115.494 112.848 115.535 112.995Z" fill="#F89E72"/>
<path d="M118.311 260.902C118.141 260.902 117.967 260.873 117.798 260.812L57.7588 239.165C56.9722 238.882 56.5641 238.014 56.8482 237.228C57.1315 236.441 57.9994 236.033 58.7861 236.317L118.825 257.963C119.612 258.247 120.019 259.114 119.736 259.901C119.513 260.517 118.931 260.902 118.311 260.902Z" fill="#B45126"/>
<path d="M55.7961 260.901C55.1761 260.901 54.5948 260.518 54.3722 259.902C54.0873 259.115 54.4938 258.247 55.2804 257.962L116.032 235.96C116.818 235.675 117.687 236.082 117.971 236.868C118.256 237.654 117.85 238.523 117.063 238.807L56.3118 260.81C56.1418 260.872 55.9669 260.901 55.7961 260.901Z" fill="#B45126"/>
<path d="M123.665 299.587C122.386 299.587 121.274 298.641 121.099 297.339L110.255 216.369H64.8757L54.2002 297.335C54.013 298.754 52.7115 299.752 51.2918 299.565C49.8729 299.378 48.8744 298.077 49.0616 296.657L60.0327 213.439C60.2027 212.15 61.3022 211.186 62.6029 211.186H112.523C113.821 211.186 114.919 212.146 115.091 213.433L126.236 296.652C126.426 298.071 125.431 299.374 124.012 299.564C123.895 299.579 123.779 299.587 123.665 299.587Z" fill="#DA7C2F"/>
<path d="M117.548 211.123L67.9123 214.487C55.3745 213.775 44.3746 208.153 42.7989 198.004C40.6902 184.432 40.168 171.289 40.7576 159.227C41.4235 145.586 47.9367 132.895 58.6606 124.438C58.6606 124.438 85.381 154.096 77.2378 193.049C80.3466 207.849 117.548 211.123 117.548 211.123Z" fill="#DA7C2F"/>
<path d="M91.4303 53.7327C91.4303 53.7327 87.5743 44.4449 77.3718 46.1939C70.2411 47.4157 67.2029 56.302 67.6233 70.0206C68.2343 89.9871 61.4805 102.02 61.4805 102.02L70.4455 104.057C70.4455 104.057 93.2639 69.8276 91.4303 53.7327Z" fill="#C24B2B"/>
<path d="M56.7921 162.328C56.7921 162.328 56.3339 165.45 60.5184 166.327L104.132 167.782C104.132 167.782 107.079 166.3 106.548 162.648C106.548 162.648 88.133 152.306 56.7921 162.328Z" fill="#132549"/>
<path d="M104.741 176.749C82.1021 189.201 57.3828 179.174 57.3828 179.174C58.5923 175.874 59.4874 172.154 60.1369 168.77C60.8915 164.833 61.3152 161.354 61.5073 159.527C71.1384 158.997 94.7433 157.994 103.993 160.188L104.066 163.894L104.741 176.749Z" fill="#F89E72"/>
<path d="M86.8265 172.784C87.3095 172.853 87.8369 171.963 88.0044 170.796C88.172 169.629 87.9162 168.627 87.4332 168.557C86.9502 168.488 86.4228 169.378 86.2552 170.545C86.0877 171.712 86.3434 172.715 86.8265 172.784Z" fill="#E07B53"/>
<path d="M104.046 163.894C94.4059 163.308 75.4362 163.105 60.1172 168.77C60.8718 164.833 61.2955 161.354 61.4877 159.527C71.1187 158.997 94.7236 157.994 103.973 160.188L104.046 163.894Z" fill="#E07B53"/>
<path d="M114.823 145.99C114.733 146.269 114.624 146.53 114.498 146.776C114.451 146.869 114.404 146.962 114.354 147.051C113.141 149.301 111.264 151.249 109.692 152.637C109.365 152.923 109.052 153.187 108.761 153.423C108.18 153.894 107.687 154.26 107.349 154.502C107.037 154.725 106.854 154.841 106.854 154.841C106.852 154.861 106.85 154.883 106.849 154.908C106.831 155.075 106.817 155.252 106.802 155.438C106.748 156.15 106.7 157 106.665 157.968C106.634 158.747 106.614 159.601 106.592 160.518C106.58 161.199 106.567 161.911 106.56 162.652C93.7656 156.937 67.4172 160.544 56.8041 162.33C56.9979 161.413 57.1753 160.516 57.3387 159.639C58.0884 155.592 58.5096 151.947 58.6771 148.684C58.9292 143.824 58.5038 136.522 57.4733 128.98C57.4076 128.489 57.3387 128.003 57.2672 127.512C57.2204 127.192 57.1728 126.875 57.1202 126.556C56.7589 124.188 56.3377 121.817 55.8565 119.516C53.7635 109.476 55.2333 98.9382 65.412 97.6918C66.1502 97.6014 66.8794 97.5185 67.5855 97.4438C72.3826 96.9322 76.3297 96.7573 77.4259 96.7146C77.6263 96.7072 77.7297 96.7031 77.7297 96.7031L97.4073 102.418L99.2786 102.961C100.354 103.307 101.349 103.642 102.268 103.969C102.662 104.112 103.042 104.25 103.407 104.387C104.361 104.745 105.228 105.095 106.012 105.442C107.588 106.138 108.836 106.817 109.824 107.519C114.14 110.583 113.47 114.046 113.361 120.885C113.361 120.915 113.359 120.946 113.359 120.977C113.357 121.063 113.357 121.15 113.355 121.24C113.354 121.279 113.355 121.319 113.355 121.358C113.351 121.637 113.351 121.916 113.354 122.194C113.359 123.077 113.39 123.956 113.443 124.835C113.517 126.126 113.632 127.409 113.772 128.667C113.827 129.171 113.886 129.673 113.947 130.17C114.005 130.637 114.065 131.103 114.126 131.562C114.919 137.549 115.893 142.795 114.823 145.99Z" fill="#344B86"/>
<path d="M113.353 120.974C113.35 121.06 113.35 121.147 113.348 121.238C113.347 121.276 113.348 121.317 113.348 121.355C113.344 121.634 113.344 121.914 113.347 122.192L109.212 124.788C109.088 124.866 108.944 124.891 108.807 124.868C108.652 124.841 108.507 124.751 108.416 124.607C108.247 124.335 108.33 123.98 108.599 123.81L112.983 121.06C113.097 120.987 113.228 120.96 113.353 120.974Z" fill="#132549"/>
<path d="M86.0887 143.119C85.931 143.119 85.7725 143.055 85.6592 142.928C85.4466 142.691 85.4663 142.326 85.7027 142.113L89.5506 138.65C89.787 138.437 90.1516 138.456 90.3651 138.694C90.5786 138.93 90.5589 139.295 90.3224 139.508L86.4746 142.971C86.3638 143.07 86.2258 143.119 86.0887 143.119Z" fill="#132549"/>
<path d="M114.115 131.559L111.48 133.931C111.368 134.031 111.231 134.079 111.092 134.079C110.936 134.079 110.777 134.015 110.664 133.888C110.45 133.652 110.47 133.286 110.707 133.073L113.937 130.166C113.993 130.633 114.053 131.099 114.115 131.559Z" fill="#132549"/>
<path d="M78.2871 129.197C78.1968 129.068 78.1599 128.902 78.1993 128.735C78.2724 128.426 78.5836 128.233 78.8939 128.307L83.9324 129.493C84.242 129.566 84.4341 129.877 84.361 130.188C84.2879 130.497 83.9767 130.69 83.6663 130.616L78.6287 129.43C78.4842 129.396 78.3651 129.311 78.2871 129.197Z" fill="#132549"/>
<path d="M60.3112 139.079C60.1536 139.079 59.9959 139.015 59.8826 138.888C59.6691 138.652 59.6888 138.286 59.9253 138.074L63.7731 134.611C64.0104 134.398 64.375 134.417 64.5885 134.654C64.8011 134.891 64.7814 135.256 64.5449 135.469L60.6971 138.931C60.5871 139.03 60.4492 139.079 60.3112 139.079Z" fill="#132549"/>
<path d="M105.093 138.256C105.143 138.106 105.253 137.977 105.41 137.909C105.701 137.783 106.042 137.916 106.169 138.208L108.236 142.953C108.363 143.245 108.229 143.586 107.938 143.713C107.646 143.84 107.305 143.706 107.178 143.414L105.111 138.669C105.052 138.533 105.048 138.387 105.093 138.256Z" fill="#132549"/>
<path d="M114.81 145.985C114.72 146.264 114.61 146.525 114.485 146.771C114.438 146.864 114.39 146.957 114.34 147.046L111.53 146.16C111.387 146.115 111.275 146.022 111.206 145.903C111.125 145.768 111.1 145.599 111.153 145.438C111.249 145.134 111.572 144.964 111.876 145.06L114.81 145.985Z" fill="#132549"/>
<path d="M98.9302 146.4C99.0871 146.383 99.2505 146.432 99.3769 146.547C99.6126 146.761 99.6306 147.125 99.4163 147.361L95.938 151.194C95.7237 151.431 95.3591 151.449 95.1235 151.234C94.887 151.02 94.8689 150.655 95.0832 150.419L98.5615 146.586C98.6617 146.476 98.7939 146.414 98.9302 146.4Z" fill="#132549"/>
<path d="M96.8767 137.562C96.7215 137.535 96.5778 137.444 96.4867 137.3C96.3175 137.031 96.3988 136.674 96.6689 136.504L101.053 133.753C101.323 133.583 101.679 133.665 101.849 133.934C102.019 134.204 101.936 134.561 101.666 134.73L97.2823 137.481C97.1559 137.561 97.0122 137.585 96.8767 137.562Z" fill="#132549"/>
<path d="M99.6639 120.898C99.769 121.016 99.8257 121.176 99.8076 121.345C99.7731 121.662 99.4882 121.891 99.1721 121.857L94.026 121.296C93.7091 121.261 93.48 120.976 93.5153 120.66C93.5498 120.343 93.8347 120.113 94.1509 120.148L99.2969 120.709C99.4439 120.725 99.5728 120.795 99.6639 120.898Z" fill="#132549"/>
<path d="M92.1926 109.733C92.2296 109.579 92.3298 109.442 92.48 109.362C92.7609 109.211 93.1115 109.317 93.2617 109.597L95.7104 114.157C95.8614 114.438 95.7563 114.788 95.4755 114.939C95.1939 115.09 94.8441 114.984 94.6938 114.703L92.2452 110.144C92.1738 110.013 92.1598 109.867 92.1926 109.733Z" fill="#132549"/>
<path d="M109.692 152.631C109.365 152.917 109.051 153.181 108.76 153.417L108.084 151.693C108.028 151.555 108.032 151.408 108.08 151.279C108.135 151.131 108.251 151.006 108.408 150.945C108.704 150.827 109.04 150.974 109.156 151.27L109.692 152.631Z" fill="#132549"/>
<path d="M62.3734 143.864C62.2987 143.725 62.2814 143.556 62.3389 143.396C62.4473 143.096 62.7774 142.94 63.0771 143.048L67.948 144.801C68.2469 144.908 68.4038 145.238 68.2954 145.538C68.187 145.838 67.8569 145.994 67.5572 145.886L62.6871 144.134C62.5467 144.083 62.4383 143.985 62.3734 143.864Z" fill="#132549"/>
<path d="M64.7673 150.449C64.925 150.451 65.0818 150.517 65.1951 150.644C65.4061 150.883 65.3832 151.247 65.145 151.458L61.2677 154.888C61.0287 155.099 60.6641 155.076 60.4531 154.838C60.2421 154.599 60.2651 154.235 60.5032 154.024L64.3806 150.594C64.4922 150.496 64.6302 150.448 64.7673 150.449Z" fill="#132549"/>
<path d="M71.7848 155.888C71.8825 156.012 71.9301 156.175 71.9014 156.344C71.848 156.658 71.5499 156.869 71.2354 156.815L66.133 155.945C65.8185 155.892 65.6066 155.594 65.6608 155.279C65.715 154.965 66.0131 154.753 66.3267 154.807L71.4301 155.678C71.5754 155.701 71.7002 155.78 71.7848 155.888Z" fill="#132549"/>
<path d="M76.0477 107.433C76.0058 107.281 76.028 107.112 76.1199 106.969C76.2924 106.702 76.6504 106.624 76.9173 106.798L81.2676 109.603C81.5345 109.776 81.6125 110.134 81.4392 110.402C81.2668 110.669 80.9088 110.746 80.6411 110.573L76.2916 107.767C76.1676 107.687 76.0838 107.566 76.0477 107.433Z" fill="#132549"/>
<path d="M105.716 110.74C105.855 110.665 106.024 110.646 106.184 110.704C106.484 110.81 106.642 111.14 106.535 111.44L104.805 116.318C104.698 116.618 104.368 116.776 104.068 116.668C103.768 116.562 103.61 116.232 103.717 115.932L105.448 111.053C105.497 110.914 105.596 110.805 105.716 110.74Z" fill="#132549"/>
<path d="M103.397 104.387L100.723 107.814C100.527 108.066 100.165 108.111 99.9137 107.914C99.6625 107.718 99.6173 107.356 99.8135 107.105L102.259 103.969C102.651 104.112 103.032 104.25 103.397 104.387Z" fill="#132549"/>
<path d="M77.2546 151.72C77.3105 151.885 77.4476 151.999 77.6102 152.032C77.689 152.048 77.7703 152.046 77.8508 152.018C77.9362 151.99 86.3076 149.279 95.1175 152.929C99.5934 154.782 103.573 155.492 106.79 155.428C106.804 155.241 106.818 155.064 106.835 154.897C106.837 154.874 106.84 154.852 106.842 154.831C106.842 154.831 107.024 154.714 107.336 154.491C104.173 154.646 100.118 153.978 95.4804 152.057C86.3347 148.27 77.9082 151.006 77.5552 151.124C77.3064 151.206 77.1725 151.472 77.2546 151.72Z" fill="#132549"/>
<path d="M97.3968 102.417C96.2957 104.127 94.0195 106.063 89.413 105.729C83.0591 105.267 78.8779 99.2059 77.418 96.7138C77.6159 96.7064 77.7201 96.7031 77.7201 96.7031L97.3968 102.417Z" fill="#132549"/>
<path d="M90.6443 113.666C90.8323 113.704 91.0187 113.731 91.2068 113.746C92.964 113.887 94.387 113.378 95.4356 112.232C98.4918 108.893 97.2363 101.283 97.1813 100.961C97.1378 100.705 96.8931 100.533 96.6385 100.576C96.3815 100.619 96.2099 100.863 96.2526 101.119C96.2657 101.194 97.4859 108.599 94.7401 111.597C93.8853 112.53 92.7538 112.926 91.2815 112.807C85.123 112.311 78.2255 96.6736 78.1566 96.5151C78.0531 96.2762 77.7747 96.1678 77.5366 96.2721C77.2977 96.3764 77.1893 96.6539 77.2936 96.892C77.5769 97.5399 84.118 112.344 90.6443 113.666Z" fill="#F8F0E1"/>
<path d="M109.819 107.516C109.413 112.031 110.523 119.479 113.437 124.832C113.369 123.677 113.337 122.517 113.349 121.354C113.35 121.316 113.348 121.274 113.349 121.236C113.352 121.116 113.354 120.999 113.356 120.881C113.466 114.044 114.134 110.579 109.819 107.516Z" fill="#F89E72"/>
<path d="M73.6216 115.457C71.3643 124.167 63.1111 131.157 57.4659 128.976C57.3985 128.486 57.3296 127.999 57.2581 127.508C57.2122 127.189 57.1637 126.872 57.1128 126.552C56.7523 124.184 56.3286 121.812 55.8483 119.511C53.756 109.472 55.2258 98.9347 65.4029 97.6882C66.1419 97.5979 66.8703 97.515 67.5773 97.4395C72.6748 99.6113 76.2205 105.427 73.6216 115.457Z" fill="#F89E72"/>
<path d="M74.7812 108.813L88.0079 157.176L83.293 151.741C85.0412 152.668 87.0612 153.383 89.2987 153.884C91.5347 154.386 93.9734 154.678 96.523 154.81C99.0734 154.942 101.733 154.92 104.449 154.806C107.168 154.692 109.946 154.489 112.766 154.248L112.781 154.247C116.94 153.892 120.599 156.977 120.955 161.137C121.293 165.102 118.478 168.617 114.613 169.244C111.705 169.707 108.747 170.146 105.713 170.497C102.68 170.847 99.5686 171.111 96.3481 171.184C93.1285 171.253 89.793 171.133 86.3427 170.633C82.9013 170.134 79.3294 169.236 75.8396 167.73C73.6061 166.767 72.0156 164.934 71.2922 162.798L71.1255 162.296L55.258 114.734C53.4737 109.388 56.3624 103.608 61.708 101.824C67.0543 100.041 72.8343 102.929 74.6178 108.274C74.6752 108.443 74.7352 108.644 74.7812 108.813Z" fill="#F89E72"/>
<path d="M80.705 155.627C80.5687 155.627 80.4365 155.556 80.3642 155.429C80.2567 155.241 80.3223 155.002 80.5104 154.895C80.6319 154.826 83.5264 153.191 86.5506 152.958C86.769 152.941 86.9546 153.103 86.9718 153.318C86.9891 153.533 86.8273 153.722 86.6122 153.739C83.7662 153.959 80.9275 155.56 80.8988 155.575C80.838 155.61 80.7707 155.627 80.705 155.627Z" fill="#E07B53"/>
<path d="M85.5074 153.881C85.4384 153.881 85.3678 153.863 85.3046 153.824C83.4801 152.717 81.2729 152.55 81.2507 152.548C81.0347 152.532 80.8722 152.345 80.8878 152.129C80.9034 151.913 81.084 151.753 81.3065 151.766C81.4042 151.774 83.7264 151.95 85.7111 153.154C85.8958 153.267 85.9549 153.507 85.8424 153.692C85.7685 153.813 85.6396 153.881 85.5074 153.881Z" fill="#E07B53"/>
<path d="M97.3112 128.397C103.164 129.583 105.725 123.53 105.75 123.469C105.849 123.229 105.734 122.954 105.493 122.854C105.251 122.755 104.977 122.871 104.878 123.111C104.784 123.34 102.578 128.504 97.4976 127.474C92.166 126.393 82.2181 115.9 82.1187 115.794C81.9397 115.605 81.6416 115.596 81.452 115.775C81.2631 115.954 81.2549 116.253 81.4331 116.441C81.8494 116.882 91.689 127.257 97.3112 128.397Z" fill="#132549"/>
<path d="M88.1645 90.4588C88.1645 90.4588 78.88 88.7106 76.2622 79.3415C73.7701 70.4208 75.6883 65.7929 78.2806 60.9737C80.2332 57.3443 86.4245 52.4397 95.1079 54.1994C103.877 55.9763 110.429 60.4753 111.397 67.684C113.211 81.1743 102.326 97.6305 88.1645 90.4588Z" fill="#C24B2B"/>
<path d="M76.7088 80.7871C76.5405 80.7871 76.3771 80.7001 76.2876 80.5433C76.12 80.2493 72.2115 73.2237 75.4549 63.9795C77.4806 58.2069 81.473 55.622 84.4652 54.47C87.6988 53.226 90.4225 53.3434 90.5382 53.3491C90.8051 53.3623 91.0112 53.5889 90.9981 53.8566C90.9849 54.1235 90.7624 54.3304 90.4914 54.3164C90.466 54.3156 87.8269 54.2064 84.7788 55.388C80.7225 56.9613 77.8928 59.9592 76.3697 64.3005C73.2773 73.1129 77.0906 79.9972 77.13 80.0654C77.2614 80.2977 77.1809 80.5933 76.9486 80.7256C76.8714 80.7666 76.7901 80.7871 76.7088 80.7871Z" fill="#F8F0E1"/>
<path d="M106.16 80.938C106.16 80.938 109.181 78.5518 109.975 81.7115C110.77 84.8712 108.529 90.4861 105.012 88.7806L106.16 80.938Z" fill="#E07B53"/>
<path d="M103.217 86.7428C101.718 87.2387 100.388 88.5665 100.052 90.2219C99.5537 92.6804 101.148 95.0863 103.607 95.5839C106.066 96.0823 108.471 94.4877 108.97 92.0284C109.342 90.1874 108.542 88.3752 107.083 87.3734C106.595 87.0359 106.032 86.7912 105.414 86.6656C105.399 86.6623 105.385 86.6615 105.369 86.6582C105.283 86.9678 105.319 87.2174 105.495 87.4112C105.991 87.5417 106.442 87.7675 106.832 88.064C107.969 88.9286 108.579 90.3968 108.277 91.888C107.855 93.9646 105.825 95.3121 103.746 94.8917C101.671 94.4712 100.323 92.4381 100.744 90.3623C101.05 88.8523 102.165 87.7807 103.573 87.4424L103.217 86.7428Z" fill="#F8F0E1"/>
<path d="M97.0423 94.4727L95.7761 102.382C95.7761 102.382 89.855 108.426 79.0391 97.5832C81.9426 95.4195 83.0511 90.4081 82.712 87.168C82.712 87.168 83.5651 87.6812 84.8781 88.8702C85.1351 89.1025 85.4636 89.2832 85.7863 89.5041C88.6454 91.4485 93.0253 93.9784 97.0423 94.4727Z" fill="#F89E72"/>
<path d="M97.0431 94.4667L96.4429 98.2159C93.1986 96.7707 87.4622 93.6792 84.8789 88.8633C85.1614 89.0645 85.4644 89.2763 85.7871 89.4972C88.6462 91.4424 93.0261 93.9723 97.0431 94.4667Z" fill="#162318"/>
<path d="M109.098 79.0333C108.93 79.8701 108.771 80.6666 108.613 81.4237C108.445 82.2456 108.281 83.0199 108.119 83.7491C106.921 89.2236 105.934 92.1558 104.337 93.2537C96.2631 98.8061 83.1218 87.5632 82.6981 87.2003C82.6915 87.1937 82.6874 87.1896 82.6874 87.1896C82.6767 86.545 82.6767 85.9062 82.6899 85.2789C82.7868 79.953 83.6949 75.1699 85.1344 70.7441C85.852 65.9142 89.5997 62.0417 94.4271 61.3126C99.4294 60.5596 103.192 63.4541 105.545 64.7359C109.098 66.6729 110.49 72.0521 109.098 79.0333Z" fill="#F89E72"/>
<path d="M85.4145 65.7764C85.4145 65.7764 91.0647 54.908 102.339 57.9404C113.613 60.9728 114.211 66.21 114.41 68.8277C114.609 71.4455 108.572 66.8078 108.572 66.8078C108.572 66.8078 108.365 72.0433 106.353 70.4306C103.886 68.4517 101.124 64.1818 101.124 64.1818C101.124 64.1818 94.41 70.7812 88.029 69.001C84.4045 67.991 85.4145 65.7764 85.4145 65.7764Z" fill="#C24B2B"/>
<path d="M99.2662 89.6894C97.8013 89.6894 96.7971 88.677 96.747 88.6244C96.5918 88.4651 96.5951 88.2097 96.7552 88.0554C96.9153 87.901 97.169 87.9035 97.3234 88.0628C97.3768 88.1169 98.5395 89.269 100.074 88.7459C100.284 88.6745 100.514 88.7862 100.585 88.9972C100.657 89.2074 100.545 89.4373 100.334 89.5088C99.9584 89.6369 99.5996 89.6894 99.2662 89.6894Z" fill="#E07B53"/>
<path d="M95.8877 83.1113C95.8877 83.1113 101.325 84.7224 104.145 84.7224C104.145 84.7224 102.735 88.75 98.7075 87.3401C95.5732 86.2431 95.8877 83.1113 95.8877 83.1113Z" fill="#F8F0E1"/>
<path d="M105.99 71.7993C105.99 71.7993 104.577 71.6556 104.807 73.0236C105.036 74.3924 108.098 73.5556 109.613 76.2974C109.613 76.2974 111.075 73.4234 105.99 71.7993Z" fill="#C24B2B"/>
<path d="M99.6977 70.5261C99.6977 70.5261 101.055 70.9441 100.311 72.115C99.568 73.2859 97.0726 71.3242 94.6108 73.2596C94.6108 73.2596 94.3817 70.0425 99.6977 70.5261Z" fill="#C24B2B"/>
<path d="M94.0299 80.9095C95.6718 81.2422 97.109 80.988 97.2399 80.3418C97.3709 79.6955 96.146 78.9019 94.5041 78.5692C92.8623 78.2365 91.4251 78.4907 91.2941 79.137C91.1632 79.7832 92.388 80.5768 94.0299 80.9095Z" fill="#E07B53"/>
<path d="M113.333 80.7899L108.942 80.041C108.919 80.2274 108.874 80.4097 108.832 80.592C108.825 80.624 108.814 80.6536 108.801 80.6807L113.223 81.4345C113.402 81.4648 113.571 81.345 113.601 81.1668C113.631 80.9902 113.52 80.817 113.333 80.7899Z" fill="#F8F0E1"/>
<path d="M101.544 76.9706C101.545 76.7456 101.532 76.5231 101.504 76.3022C101.36 75.1132 100.833 74.0112 100.024 73.1589C99.2848 72.3755 98.3134 71.8007 97.1869 71.5577C97.1688 71.5528 97.1516 71.547 97.1327 71.5446C94.5625 71.0141 92.0318 72.3665 90.9849 74.6575C90.8929 74.8562 90.8133 75.059 90.7476 75.2708C90.6868 75.4556 90.6367 75.6469 90.5957 75.8415C90.2984 77.2801 90.5907 78.7064 91.3076 79.865C91.5514 80.2592 91.8454 80.6246 92.1804 80.944C92.9071 81.6477 93.8342 82.1585 94.8934 82.3777C96.6786 82.7464 98.4407 82.2069 99.7044 81.0779C100.557 80.3159 101.182 79.2829 101.43 78.0807C101.43 78.0766 101.433 78.0701 101.433 78.066C101.507 77.6989 101.545 77.3327 101.544 76.9706ZM95.0265 81.7364C94.9994 81.7315 94.9747 81.7257 94.946 81.7183C93.5591 81.408 92.4374 80.5285 91.7797 79.3757C91.2115 78.3805 90.989 77.1841 91.2378 75.9745C91.2895 75.7257 91.3601 75.4835 91.448 75.2511C91.4554 75.2363 91.4603 75.2216 91.4652 75.2076C92.1542 73.4176 93.8366 72.2056 95.7228 72.0939C96.1416 72.0684 96.5702 72.0963 97.0005 72.1859C97.9275 72.3772 98.738 72.8206 99.3768 73.434C100.553 74.5565 101.142 76.2431 100.791 77.9502C100.244 80.5811 97.6598 82.2825 95.0265 81.7364Z" fill="#F8F0E1"/>
<path d="M111.413 74.7315C111.264 74.6519 111.111 74.5813 110.952 74.5147C110.766 74.4384 110.573 74.3719 110.375 74.316C110.239 74.2758 110.102 74.2421 109.961 74.2126C109.701 74.1584 109.44 74.1247 109.186 74.1091C108.874 74.0886 108.565 74.096 108.261 74.1288C107.418 74.2183 106.616 74.5016 105.913 74.9401C105.139 75.4229 104.485 76.0954 104.028 76.9075C103.908 77.1128 103.804 77.3296 103.713 77.5537C103.708 77.5661 103.703 77.5767 103.701 77.589C103.582 77.8814 103.489 78.1901 103.424 78.5095C102.982 80.6453 103.843 82.7523 105.459 84.0062C105.985 84.4135 106.589 84.7304 107.258 84.9299C107.359 84.9603 107.461 84.9882 107.565 85.0096C107.616 85.0252 107.668 85.0359 107.72 85.0465C108.254 85.1557 108.787 85.1861 109.306 85.1401C109.389 85.1352 109.472 85.1262 109.554 85.1155C109.781 85.0851 110.007 85.0424 110.226 84.9841C110.64 84.8774 111.036 84.723 111.41 84.5268C112.824 83.7795 113.91 82.4337 114.257 80.7496C114.769 78.2813 113.539 75.8507 111.413 74.7315ZM113.616 80.6149C113.594 80.72 113.57 80.8235 113.54 80.9245C113.501 81.0723 113.455 81.2143 113.399 81.3547C113.013 82.3812 112.298 83.2195 111.404 83.773C111.075 83.9774 110.722 84.14 110.352 84.264C110.121 84.3387 109.884 84.3979 109.641 84.4381C109.571 84.4496 109.502 84.4594 109.431 84.4668C108.917 84.5309 108.386 84.5128 107.851 84.4036C107.803 84.3929 107.755 84.3822 107.706 84.3708C107.676 84.3634 107.647 84.3551 107.618 84.3502C106.835 84.1458 106.141 83.7607 105.574 83.245C105.491 83.1711 105.409 83.0923 105.331 83.0101C104.253 81.8918 103.727 80.2766 104.065 78.6409C104.141 78.2739 104.257 77.9233 104.407 77.5964C104.896 76.5298 105.748 75.6955 106.775 75.2143C107.41 74.9155 108.115 74.7512 108.844 74.7504C108.961 74.7512 109.078 74.757 109.199 74.7644C109.407 74.7808 109.617 74.8087 109.828 74.8522C109.981 74.8851 110.129 74.9212 110.274 74.9664C110.478 75.0288 110.673 75.1035 110.863 75.1914C111.013 75.2579 111.16 75.3351 111.302 75.418C113.056 76.446 114.051 78.5153 113.616 80.6149Z" fill="#F8F0E1"/>
<path d="M83.9886 75.6632C83.95 75.655 83.9123 75.641 83.8778 75.618C83.7251 75.5203 83.6807 75.3183 83.7784 75.1656C85.9774 71.7292 91.2622 74.8142 91.3156 74.8454C91.4708 74.9382 91.5217 75.1385 91.4297 75.2937C91.3377 75.4481 91.1374 75.4998 90.9814 75.4087C90.9329 75.3799 86.1884 72.6144 84.3302 75.5179C84.2547 75.6361 84.1176 75.6895 83.9886 75.6632Z" fill="#F8F0E1"/>
<path d="M103.964 77.7447C103.881 77.7275 103.806 77.6782 103.756 77.6019C103.053 76.5163 101.548 77.0032 101.533 77.0082C101.361 77.0648 101.176 76.9737 101.118 76.8021C101.062 76.6305 101.154 76.4449 101.325 76.3882C102.015 76.1583 103.524 76.0417 104.305 77.2463C104.404 77.3982 104.36 77.601 104.208 77.6987C104.133 77.748 104.045 77.762 103.964 77.7447Z" fill="#F8F0E1"/>
<path d="M108.602 81.4186C108.434 82.2405 108.271 83.0149 108.108 83.744C106.615 83.3836 105.539 82.6437 105.662 82.0353C105.788 81.4243 107.078 81.1657 108.602 81.4186Z" fill="#E07B53"/>
<path d="M97.1801 78.4999C97.6766 78.6007 98.225 77.9629 98.4051 77.0754C98.5853 76.1879 98.3289 75.3867 97.8325 75.2859C97.336 75.1852 96.7876 75.823 96.6074 76.7105C96.4273 77.598 96.6837 78.3992 97.1801 78.4999Z" fill="#162318"/>
<path d="M105.982 80.3008C106.478 80.4014 107.027 79.7634 107.207 78.8758C107.386 77.9882 107.13 77.1871 106.633 77.0865C106.137 76.9859 105.589 77.6239 105.409 78.5115C105.229 79.3991 105.486 80.2002 105.982 80.3008Z" fill="#162318"/>
<path d="M102.652 81.2388C103.078 81.325 103.381 81.3119 103.405 81.3103C103.509 81.3053 103.606 81.2561 103.673 81.1756C103.739 81.0951 103.769 80.9908 103.756 80.8874L103.189 76.744C103.161 76.5395 102.973 76.3975 102.77 76.4254C102.565 76.4533 102.423 76.6413 102.451 76.845L102.955 80.5343C102.585 80.4785 102.024 80.3249 101.525 79.9094C101.367 79.778 101.131 79.7994 101 79.9579C100.869 80.1163 100.89 80.3512 101.049 80.4826C101.598 80.9399 102.196 81.146 102.652 81.2388Z" fill="#162318"/>
<path d="M86.3191 84.1836C86.2567 84.2739 84.5413 86.7439 82.7028 87.1988C82.7012 87.1988 82.6995 87.1996 82.6995 87.1996C82.6946 87.193 82.6921 87.1889 82.6921 87.1889C82.6798 86.5435 82.6815 85.9055 82.693 85.2765C82.7586 85.279 84.5126 85.3274 86.3191 84.1836Z" fill="#162318"/>
<path d="M85.9597 77.687C85.9597 77.687 83.3764 72.2019 80.0188 75.4207C77.2516 78.0729 79.6715 86.937 84.4702 85.0402L85.9597 77.687Z" fill="#F89E72"/>
<path d="M79.5761 82.4158C78.0776 82.9117 76.7474 84.2395 76.4115 85.8949C75.9131 88.3534 77.5077 90.7593 79.9662 91.2569C82.4255 91.7553 84.8314 90.1607 85.329 87.7014C85.7018 85.8604 84.9012 84.0482 83.4428 83.0464C82.9543 82.7097 82.391 82.4642 81.7735 82.3394C81.7579 82.3361 81.7439 82.3353 81.7283 82.332C81.6421 82.6416 81.6782 82.8912 81.854 83.085C82.3507 83.2156 82.8015 83.4414 83.1916 83.7378C84.3288 84.6033 84.9381 86.0706 84.6359 87.5626C84.2147 89.6384 82.1849 90.9867 80.1058 90.5655C78.03 90.1451 76.6825 88.1128 77.1029 86.0361C77.4092 84.5261 78.5243 83.4545 79.9325 83.1162L79.5761 82.4158Z" fill="#F8F0E1"/>
<path d="M84.2598 83.5057C84.2729 83.5082 84.2861 83.5106 84.3 83.5115C84.5053 83.5295 84.6868 83.3793 84.7048 83.174C85.0834 79.0306 81.9557 76.9351 81.8227 76.848C81.6502 76.7355 81.4195 76.7831 81.307 76.9556C81.1945 77.1272 81.2421 77.3579 81.4146 77.4704C81.5328 77.5484 84.2992 79.4181 83.9633 83.105C83.9461 83.298 84.0758 83.4688 84.2598 83.5057Z" fill="#162318"/>
<path d="M81.3109 80.6063C81.3922 80.6227 81.4784 80.612 81.5572 80.571C81.9267 80.378 83.018 79.9404 83.615 80.2294C83.8014 80.3189 84.023 80.2417 84.1125 80.0561C84.2012 79.8706 84.124 79.6481 83.9393 79.5586C82.8981 79.0552 81.3815 79.8221 81.2115 79.9108C81.0292 80.0061 80.9586 80.2319 81.0547 80.4142C81.1089 80.5168 81.2049 80.5849 81.3109 80.6063Z" fill="#162318"/>
<path d="M89.2552 68.3871C89.2552 68.3871 85.781 77.8251 85.5905 79.7269C85.331 82.3192 81.9045 73.4354 85.3532 65.8457L89.2552 68.3871Z" fill="#C24B2B"/>
<path d="M96.7967 261.027L93.1172 275.843L103.899 276.558L110.82 261.027H96.7967Z" fill="#C1725C"/>
<path d="M131.17 294.336L90.6584 293.861C90.3628 293.31 90.2084 292.531 90.151 291.604C89.9375 288.175 91.0944 282.72 91.6709 279.277C91.7407 278.874 91.8006 278.5 91.8482 278.161C91.9295 277.585 91.9812 277.105 91.9853 276.753C92.019 273.938 94.5029 274.449 94.5029 274.449C98.556 278.518 103.268 272.543 105.956 274.553C105.956 274.553 107.113 275.403 110.296 278.335C113.476 281.266 118.926 283.239 123.559 285.243C129.541 287.826 131.216 290.356 131.529 292.089C131.776 293.463 131.17 294.336 131.17 294.336Z" fill="#191814"/>
<path d="M131.163 294.347L90.652 293.872C90.3564 293.322 90.202 292.542 90.1445 291.615L131.523 292.101C131.769 293.474 131.163 294.347 131.163 294.347Z" fill="#5B564E"/>
<path d="M94.7609 293.937L93.5571 293.921C94.7749 292.565 95.9228 290.472 95.8111 287.461C95.6633 283.455 93.2927 280.73 91.6406 279.303C91.7104 278.901 91.7704 278.527 91.818 278.188C93.6007 279.583 96.5969 282.627 96.7768 287.424C96.8827 290.3 95.9138 292.432 94.7609 293.937Z" fill="#5B564E"/>
<path d="M109.546 280.74C109.246 280.737 108.976 280.53 108.905 280.224C108.82 279.865 109.042 279.506 109.401 279.421L111.939 278.823C112.298 278.738 112.657 278.96 112.743 279.319C112.827 279.679 112.606 280.038 112.246 280.123L109.708 280.721C109.654 280.733 109.599 280.74 109.546 280.74Z" fill="white"/>
<path d="M107.277 278.741C106.978 278.737 106.707 278.53 106.635 278.227C106.551 277.867 106.772 277.508 107.132 277.423L109.67 276.825C110.029 276.739 110.389 276.962 110.473 277.321C110.558 277.681 110.335 278.04 109.977 278.124L107.439 278.723C107.383 278.736 107.33 278.742 107.277 278.741Z" fill="white"/>
<path d="M112.097 282.223C111.797 282.22 111.528 282.013 111.456 281.709C111.37 281.349 111.593 280.99 111.953 280.906L114.491 280.307C114.849 280.222 115.209 280.445 115.294 280.804C115.378 281.164 115.156 281.523 114.798 281.607L112.26 282.206C112.205 282.218 112.15 282.225 112.097 282.223Z" fill="white"/>
<path d="M114.562 283.68C114.262 283.677 113.992 283.47 113.92 283.166C113.836 282.806 114.058 282.448 114.416 282.362L116.954 281.764C117.314 281.679 117.673 281.901 117.758 282.261C117.843 282.619 117.621 282.98 117.261 283.064L114.723 283.662C114.669 283.675 114.615 283.682 114.562 283.68Z" fill="white"/>
<path d="M117.331 285.008C117.032 285.005 116.762 284.798 116.69 284.494C116.605 284.134 116.827 283.775 117.186 283.691L119.724 283.092C120.084 283.008 120.443 283.23 120.528 283.589C120.613 283.947 120.39 284.307 120.031 284.392L117.493 284.99C117.439 285.003 117.384 285.009 117.331 285.008Z" fill="white"/>
<path d="M120.315 286.188C120.016 286.184 119.746 285.978 119.674 285.674C119.59 285.314 119.812 284.956 120.171 284.871L122.709 284.272C123.068 284.188 123.427 284.41 123.513 284.768C123.597 285.128 123.376 285.487 123.016 285.571L120.478 286.171C120.424 286.182 120.369 286.19 120.315 286.188Z" fill="white"/>
<path d="M111.847 176.539C111.847 176.539 146.941 188.599 145 204.273C143.06 219.95 108.928 266.546 108.928 266.546L95.1758 264.104L101.962 238.591C105.92 224.386 107.603 216.46 112.846 210.205L84.0117 205.787C84.0117 205.787 90.6596 176.92 111.847 176.539Z" fill="#477B6D"/>
<path d="M99.3111 260.658C99.2619 260.655 99.2142 260.644 99.1666 260.628C98.8915 260.529 98.7486 260.225 98.848 259.948C98.9153 259.765 105.545 241.349 108.853 228.028C111.572 217.072 118.466 209.825 121.034 207.427C117.787 207.123 112.429 205.995 112.171 205.939C111.883 205.878 111.701 205.596 111.761 205.308C111.823 205.021 112.103 204.837 112.391 204.899C112.463 204.914 119.654 206.43 122.352 206.439C122.574 206.439 122.777 206.584 122.851 206.795C122.925 207.009 122.857 207.245 122.68 207.387C122.585 207.462 113.15 215.126 109.882 228.284C106.562 241.66 99.913 260.124 99.8465 260.308C99.7644 260.537 99.541 260.675 99.3111 260.658Z" fill="#263F3D"/>
<path d="M111.175 263.53C111.15 263.528 111.126 263.525 111.102 263.52L96.4657 260.458C96.1783 260.4 95.9944 260.117 96.0543 259.83C96.1142 259.542 96.3959 259.359 96.6825 259.42L111.319 262.48C111.606 262.54 111.79 262.821 111.73 263.109C111.675 263.371 111.435 263.546 111.175 263.53Z" fill="#263F3D"/>
<path d="M167.762 245.829L176.956 257.125L186.239 250.586L177.703 236.471L167.762 245.829Z" fill="#C1725C"/>
<path d="M217.439 247.023L185.993 272.569C185.415 272.334 184.797 271.835 184.161 271.158C181.804 268.658 179.203 263.724 177.444 260.71C177.24 260.355 177.046 260.028 176.866 259.737C176.56 259.241 176.293 258.84 176.071 258.567C174.296 256.384 176.534 255.186 176.534 255.186C182.251 255.722 182.053 248.116 185.403 247.941C185.403 247.941 186.838 247.855 191.158 248.072C195.478 248.292 200.929 246.324 205.773 244.9C212.022 243.06 214.93 243.934 216.279 245.066C217.347 245.964 217.439 247.023 217.439 247.023Z" fill="#191814"/>
<path d="M217.427 247.043L185.981 272.588C185.402 272.353 184.785 271.854 184.148 271.177L216.268 245.086C217.334 245.983 217.427 247.043 217.427 247.043Z" fill="#5B564E"/>
<path d="M189.203 269.964L188.268 270.723C188.335 268.899 187.879 266.557 185.868 264.313C183.192 261.329 179.627 260.75 177.445 260.712C177.242 260.357 177.048 260.029 176.867 259.739C179.129 259.671 183.381 260.095 186.586 263.668C188.508 265.812 189.127 268.071 189.203 269.964Z" fill="#5B564E"/>
<path d="M192.124 250.369C191.892 250.559 191.552 250.572 191.302 250.384C191.008 250.162 190.947 249.745 191.169 249.448L192.738 247.367C192.96 247.071 193.378 247.012 193.674 247.234C193.968 247.456 194.027 247.873 193.805 248.17L192.237 250.251C192.203 250.297 192.165 250.335 192.124 250.369Z" fill="white"/>
<path d="M189.097 250.319C188.864 250.507 188.524 250.521 188.274 250.333C187.98 250.112 187.92 249.694 188.142 249.398L189.71 247.316C189.933 247.021 190.351 246.961 190.645 247.183C190.94 247.405 191 247.825 190.778 248.119L189.21 250.203C189.176 250.245 189.137 250.286 189.097 250.319Z" fill="white"/>
<path d="M195.03 249.929C194.798 250.117 194.458 250.132 194.208 249.944C193.914 249.722 193.853 249.303 194.076 249.009L195.645 246.925C195.866 246.63 196.284 246.57 196.579 246.794C196.875 247.016 196.933 247.434 196.711 247.728L195.143 249.812C195.109 249.857 195.071 249.895 195.03 249.929Z" fill="white"/>
<path d="M197.89 249.41C197.656 249.599 197.317 249.613 197.067 249.425C196.774 249.203 196.712 248.786 196.935 248.489L198.504 246.407C198.725 246.112 199.144 246.053 199.437 246.275C199.734 246.497 199.792 246.914 199.57 247.21L198.002 249.292C197.968 249.338 197.93 249.376 197.89 249.41Z" fill="white"/>
<path d="M200.83 248.702C200.599 248.891 200.26 248.905 200.009 248.716C199.714 248.494 199.654 248.077 199.876 247.782L201.444 245.699C201.667 245.403 202.086 245.344 202.381 245.566C202.674 245.788 202.734 246.207 202.511 246.502L200.943 248.585C200.911 248.629 200.872 248.669 200.83 248.702Z" fill="white"/>
<path d="M203.836 247.691C203.603 247.88 203.263 247.894 203.013 247.707C202.718 247.484 202.658 247.067 202.88 246.771L204.448 244.689C204.671 244.393 205.09 244.334 205.385 244.556C205.678 244.779 205.738 245.197 205.517 245.492L203.948 247.575C203.915 247.619 203.876 247.659 203.836 247.691Z" fill="white"/>
<path d="M183.8 244.106L171.758 251.804C171.758 251.804 162.302 243.045 150.626 232.699C138.949 222.353 128.065 210.157 123.508 200.928C123.508 200.928 89.0618 215.797 70.3869 212.085C62.6133 210.541 59.1112 205.214 57.6701 199.524C57.4558 198.678 57.2866 197.819 57.1602 196.964C56.0656 189.798 57.6906 182.86 57.6906 182.86C57.6906 182.86 101.485 174.802 124.113 175.583C125.692 175.638 127.165 175.734 128.515 175.881C130.651 176.111 132.476 176.468 133.9 176.962C136.776 177.971 140.352 180.999 144.255 185.247C144.395 185.399 144.534 185.551 144.675 185.708C161.372 204.132 183.8 244.106 183.8 244.106Z" fill="#477B6D"/>
<path d="M144.259 185.248C131.93 187.427 126.326 180.041 124.117 175.582C125.696 175.637 127.17 175.733 128.52 175.881C130.656 176.111 132.48 176.467 133.904 176.962C136.781 177.972 140.357 180.999 144.259 185.248Z" fill="#5FA68D"/>
<path d="M137.484 220.43C137.382 220.423 137.282 220.386 137.196 220.321C128.707 213.74 124.141 204.149 123.069 201.696C118.625 204.272 105.017 208.276 104.415 208.454C104.133 208.537 103.838 208.375 103.756 208.093C103.673 207.812 103.834 207.518 104.116 207.435C104.269 207.389 119.426 202.928 123.017 200.478C123.152 200.387 123.319 200.36 123.474 200.409C123.628 200.456 123.752 200.572 123.811 200.723C123.856 200.836 128.332 212.106 137.847 219.48C138.079 219.66 138.12 219.994 137.941 220.225C137.828 220.371 137.655 220.441 137.484 220.43Z" fill="#263F3D"/>
<path d="M169.143 249.178C168.983 249.166 168.831 249.085 168.735 248.94C168.575 248.695 168.643 248.365 168.887 248.204L181.142 240.147C181.387 239.987 181.717 240.056 181.878 240.301C182.039 240.544 181.97 240.873 181.726 241.035L169.471 249.093C169.37 249.159 169.254 249.186 169.143 249.178Z" fill="#263F3D"/>
<path d="M172.105 247.164C171.991 247.278 171.838 247.33 171.691 247.318C171.568 247.312 171.45 247.26 171.355 247.167C171.152 246.966 151.11 227.115 141.441 218.562C132.712 210.837 127.431 198.847 126.364 196.267C122.781 197.681 100.447 206.177 79.6858 207.316C70.2912 207.835 64.3914 205.091 61.0987 202.7C59.5706 201.593 58.4547 200.463 57.6655 199.525C57.4496 198.676 57.2804 197.817 57.1523 196.963C57.2993 197.224 57.6187 197.747 58.1418 198.421C58.8956 199.383 60.0739 200.65 61.7769 201.88C64.926 204.151 70.5811 206.755 79.6299 206.26C101.98 205.029 126.213 195.187 126.455 195.09C126.589 195.035 126.735 195.035 126.866 195.093C127 195.148 127.1 195.256 127.153 195.389C127.205 195.526 132.564 209.29 142.145 217.765C151.833 226.338 171.899 246.212 172.101 246.41C172.312 246.62 172.312 246.955 172.105 247.164Z" fill="#263F3D"/>
<path d="M102.671 185.116C101.825 185.348 100.982 185.563 100.148 185.767C99.7974 185.852 99.45 185.934 99.1035 186.015C85.4547 189.177 73.605 188.739 66.1081 187.825C65.7419 187.781 65.3863 187.736 65.0431 187.689C60.6566 187.097 57.997 186.384 57.6735 186.294C57.6628 186.292 57.6513 186.288 57.6406 186.286C58.3681 183.019 58.695 181.549 58.883 178.272C58.9347 177.36 58.97 176.474 58.9988 175.632V175.629C59.0489 174.053 59.0579 172.628 59.0497 171.447V171.384V171.382C59.0439 170.587 59.0316 169.909 59.016 169.376C64.2441 168.385 73.8825 166.654 82.8181 165.55C89.2992 164.749 95.4117 164.278 99.1979 164.661L99.4131 166.068L99.7333 168.148L100.003 169.705L100.592 173.11L102.629 184.857L102.671 185.116Z" fill="#F89D71"/>
<path d="M58.7642 179.627C58.7642 179.627 88.4554 183.154 101.083 175.533C101.083 175.533 103.826 188.12 103.586 191.46C103.01 199.461 58.1886 197.69 57.0579 189.866C56.5587 186.412 58.7642 179.627 58.7642 179.627Z" fill="#477B6D"/>
<path d="M59.13 174.777C59.13 174.777 57.7596 177.016 58.1414 179.552C58.1414 179.552 87.7874 183.63 102.387 175.727C102.387 175.727 103.156 173.299 101.297 170.762C101.297 170.762 89.8312 178.562 59.13 174.777Z" fill="#263F3D"/>
<path d="M72.3556 178.793L145.575 176.259C145.715 176.254 145.825 176.135 145.821 175.996L145.505 166.898C145.501 166.756 145.383 166.646 145.242 166.651L72.0238 169.185C71.8826 169.191 71.7726 169.308 71.7775 169.449L72.0912 178.547C72.0969 178.687 72.2143 178.799 72.3556 178.793Z" fill="#191814"/>
<path d="M153.512 175.982C156.286 175.887 158.649 173.937 159.273 171.231L171.275 119.119C172.008 115.933 169.522 112.92 166.256 113.032L133.245 114.175C131.018 114.253 129.113 115.801 128.585 117.967L114.102 177.347L153.512 175.982Z" fill="#191814"/>
<path d="M166.718 127.553C165.747 130.945 162.447 133.764 159.349 133.85C156.25 133.937 154.526 131.257 155.497 127.864C156.47 124.472 159.768 121.653 162.868 121.566C165.965 121.482 167.69 124.162 166.718 127.553Z" fill="#E69F3E"/>
<path d="M160.518 126.556C160.325 127.236 159.948 127.79 159.679 127.799C159.41 127.806 159.349 127.262 159.544 126.584C159.737 125.905 160.113 125.349 160.383 125.342C160.652 125.334 160.713 125.878 160.518 126.556Z" fill="#191814"/>
<path d="M163.437 126.478C163.242 127.156 162.867 127.712 162.598 127.721C162.328 127.727 162.267 127.184 162.461 126.505C162.656 125.827 163.032 125.271 163.3 125.264C163.57 125.256 163.632 125.8 163.437 126.478Z" fill="#191814"/>
<path d="M160.281 130.696C157.869 130.764 158.073 128.139 158.076 128.112C158.088 127.969 158.212 127.825 158.353 127.789C158.493 127.754 158.597 127.843 158.585 127.985C158.577 128.082 158.422 130.219 160.435 130.163C162.45 130.107 163.526 127.939 163.572 127.847C163.642 127.703 163.799 127.607 163.921 127.636C164.043 127.664 164.086 127.804 164.017 127.948C164.003 127.974 162.695 130.63 160.281 130.696Z" fill="#191814"/>
<path d="M128.569 117.973L114.206 176.863L110.434 176.994L124.797 118.103C125.33 115.936 127.23 114.385 129.458 114.308L133.231 114.178C131.002 114.256 129.101 115.807 128.569 117.973Z" fill="#191814"/>
<path d="M114.596 176.499C114.564 176.496 114.53 176.491 114.498 176.485C114.201 176.412 114.018 176.113 114.09 175.815L128.327 117.047C128.399 116.75 128.698 116.566 128.996 116.639C129.294 116.711 129.476 117.011 129.404 117.307L115.167 176.076C115.102 176.342 114.858 176.513 114.596 176.499Z" fill="#5B564E"/>
<path d="M138.895 146.076C138.257 149.345 140.367 151.904 143.61 151.792C146.853 151.68 149.999 148.939 150.637 145.67C151.276 142.401 149.164 139.843 145.922 139.955C142.679 140.066 139.533 142.808 138.895 146.076Z" fill="#5B564E"/>
<path d="M339.297 288.741V293.976H335.504V291.611C335.504 290.942 334.964 290.402 334.296 290.402H318.052C317.49 290.402 317.035 290.856 317.035 291.416V293.975H312.625V291.416C312.625 290.855 312.17 290.402 311.609 290.402H295.488C294.821 290.402 294.28 290.941 294.28 291.611V293.976H290.488V288.741C290.488 287.564 291.442 286.609 292.619 286.609H312.625V219.139H317.035V286.609H337.166C338.343 286.61 339.297 287.565 339.297 288.741Z" fill="#1E51A4"/>
<path d="M318.135 255.272H311.494C311.051 255.272 310.691 254.912 310.691 254.469V225.967H318.936V254.469C318.936 254.913 318.579 255.272 318.135 255.272Z" fill="#273372"/>
<path d="M292.448 303.018C295.568 303.018 298.096 300.49 298.096 297.37C298.096 294.251 295.568 291.723 292.448 291.723C289.329 291.723 286.801 294.251 286.801 297.37C286.801 300.49 289.329 303.018 292.448 303.018Z" fill="#14130F"/>
<path d="M292.452 300.606C290.669 300.606 289.219 299.154 289.219 297.37C289.219 295.587 290.67 294.137 292.452 294.137C294.235 294.137 295.686 295.587 295.686 297.37C295.687 299.154 294.236 300.606 292.452 300.606Z" fill="#5C554C"/>
<path d="M314.902 303.018C318.021 303.018 320.549 300.49 320.549 297.37C320.549 294.251 318.021 291.723 314.902 291.723C311.782 291.723 309.254 294.251 309.254 297.37C309.254 300.49 311.782 303.018 314.902 303.018Z" fill="#14130F"/>
<path d="M314.906 300.606C313.123 300.606 311.672 299.154 311.672 297.37C311.672 295.587 313.124 294.137 314.906 294.137C316.691 294.137 318.14 295.587 318.14 297.37C318.141 299.154 316.691 300.606 314.906 300.606Z" fill="#5C554C"/>
<path d="M337.437 303.018C340.556 303.018 343.084 300.49 343.084 297.37C343.084 294.251 340.556 291.723 337.437 291.723C334.318 291.723 331.789 294.251 331.789 297.37C331.789 300.49 334.318 303.018 337.437 303.018Z" fill="#14130F"/>
<path d="M337.441 300.604C335.658 300.604 334.207 299.152 334.207 297.368C334.207 295.585 335.659 294.135 337.441 294.135C339.224 294.135 340.676 295.585 340.676 297.368C340.677 299.152 339.225 300.604 337.441 300.604Z" fill="#5C554C"/>
<path d="M384.623 122.483L360.652 222.339C359.88 225.561 356.998 227.833 353.684 227.833H297.424C292.775 227.833 289.355 223.472 290.464 218.957L314.975 119.101C315.761 115.896 318.635 113.643 321.935 113.643H377.655C382.289 113.643 385.705 117.976 384.623 122.483Z" fill="#273372"/>
<path d="M378.424 122.483L354.454 222.339C353.68 225.561 350.799 227.833 347.485 227.833H291.225C286.575 227.833 283.156 223.472 284.265 218.957L308.775 119.101C309.562 115.896 312.436 113.643 315.736 113.643H371.455C376.09 113.643 379.506 117.976 378.424 122.483Z" fill="#1E51A4"/>
<path d="M347.508 222.947H291.248C290.275 222.947 289.697 222.396 289.439 222.067C289.181 221.74 288.784 221.047 289.015 220.101L313.527 120.246C313.78 119.214 314.698 118.494 315.759 118.494H371.479C372.449 118.494 373.026 119.043 373.283 119.369C373.541 119.696 373.94 120.386 373.713 121.329L349.743 221.184C349.494 222.222 348.576 222.947 347.508 222.947ZM315.759 119.138C314.995 119.138 314.334 119.656 314.151 120.399L289.64 220.255C289.474 220.935 289.76 221.434 289.945 221.671C290.131 221.907 290.547 222.304 291.248 222.304H347.508C348.277 222.304 348.939 221.782 349.118 221.036L373.087 121.18C373.251 120.5 372.965 120.004 372.778 119.769C372.592 119.533 372.177 119.138 371.479 119.138H315.759Z" fill="#273372"/>
<path d="M257.641 230.78H352.13C355.896 230.78 359.165 228.185 360.018 224.516L361.283 219.078H260.363L257.641 230.78Z" fill="#273372"/>
<path d="M258.955 230.78H346.076C349.841 230.78 353.109 228.185 353.963 224.516L355.229 219.078H258.955C256.234 219.078 253.873 220.953 253.256 223.603C252.403 227.272 255.188 230.78 258.955 230.78Z" fill="#1E51A4"/>
<path d="M301.999 121.956L301.345 124.558C301.126 125.41 300.909 126.258 300.678 127.103C300.217 128.793 299.751 130.481 299.26 132.163C298.272 135.527 297.245 138.887 296.102 142.239C294.965 145.595 293.759 148.951 292.341 152.336C291.634 154.03 290.882 155.733 290.023 157.474C289.154 159.221 288.221 160.978 286.866 162.925C286.522 163.417 286.145 163.921 285.703 164.456C285.253 164.992 284.759 165.548 284.084 166.164C283.759 166.463 283.363 166.791 282.921 167.115C282.471 167.441 281.931 167.786 281.278 168.108C280.626 168.429 279.834 168.74 278.873 168.938C278.392 169.035 277.884 169.101 277.346 169.121L277.146 169.128H277.006L276.728 169.125C276.538 169.121 276.371 169.108 276.197 169.097C274.823 168.979 273.795 168.662 272.948 168.341C272.095 168.013 271.417 167.661 270.802 167.309C269.588 166.605 268.65 165.899 267.786 165.203C266.083 163.803 264.715 162.41 263.411 161.013C262.118 159.616 260.925 158.213 259.776 156.801C258.63 155.391 257.534 153.972 256.466 152.545C255.396 151.12 254.375 149.672 253.411 148.191C252.444 146.712 251.529 145.204 250.672 143.659C250.243 142.888 249.831 142.105 249.433 141.311C249.234 140.916 249.045 140.51 248.855 140.106C248.76 139.904 248.666 139.7 248.576 139.493L248.299 138.853C247.204 136.326 248.364 133.391 250.891 132.296C252.731 131.498 254.788 131.897 256.193 133.149L256.406 133.341C256.696 133.599 257.014 133.904 257.309 134.196C257.609 134.491 257.912 134.786 258.208 135.087C258.8 135.686 259.385 136.29 259.961 136.901C261.115 138.121 262.241 139.354 263.351 140.59C264.463 141.824 265.552 143.065 266.634 144.295C267.721 145.521 268.819 146.723 269.929 147.879C271.039 149.034 272.161 150.148 273.28 151.172C274.392 152.189 275.528 153.133 276.531 153.822C277.024 154.165 277.493 154.437 277.778 154.556C277.913 154.612 278.006 154.634 277.957 154.596C277.911 154.569 277.72 154.466 277.199 154.41C277.13 154.403 277.071 154.401 276.987 154.395L276.87 154.391L276.69 154.393C276.365 154.404 276.068 154.441 275.797 154.495C275.254 154.605 274.863 154.762 274.592 154.888C274.319 155.015 274.143 155.131 274.034 155.202C273.93 155.266 273.865 155.321 273.846 155.324C273.795 155.354 273.863 155.264 273.946 155.132C274.033 154.996 274.153 154.805 274.28 154.583C274.538 154.137 274.829 153.572 275.116 152.965C275.404 152.354 275.696 151.7 275.98 151.017C276.547 149.65 277.09 148.189 277.605 146.692C278.628 143.69 279.579 140.558 280.471 137.387C281.353 134.211 282.209 130.998 283.008 127.764C283.411 126.148 283.812 124.529 284.194 122.907L284.77 120.478L285.316 118.097L285.348 117.957C286.405 113.348 290.998 110.468 295.606 111.525C300.215 112.583 303.095 117.175 302.038 121.784C302.029 121.83 302.009 121.915 301.999 121.956Z" fill="#F9AE90"/>
<path d="M291.068 104.723C291.068 104.723 286.497 108.567 284.756 115.415C282.779 123.195 277.805 138.025 277.805 138.025C277.805 138.025 291.387 146.526 297.235 146.314L291.068 104.723Z" fill="#096AAB"/>
<path d="M276.745 153.907C277.554 154.234 278.365 154.561 279.173 154.888C279.599 155.06 279.306 155.709 278.883 155.537C278.073 155.211 277.263 154.884 276.454 154.557C276.029 154.386 276.321 153.736 276.745 153.907Z" fill="#DF6A5D"/>
<path d="M275.261 153.421C276.329 154.467 276.965 155.824 277.114 157.309C277.164 157.799 277.926 157.718 277.877 157.224C277.707 155.535 276.962 154.016 275.75 152.829C275.397 152.483 274.912 153.079 275.261 153.421Z" fill="#DF6A5D"/>
<path d="M230.29 272.795L225.269 280.999L215.703 276.763L220.045 267.949L230.29 272.795Z" fill="#F8A48F"/>
<path d="M185.386 281.415L221.57 297.432C222.056 297.061 222.51 296.432 222.935 295.633C224.516 292.672 225.702 287.355 226.587 284.063C226.688 283.677 226.788 283.32 226.884 282.999C227.044 282.454 227.193 282.008 227.332 281.693C228.445 279.18 226.03 278.626 226.03 278.626C220.778 280.595 219.016 273.377 215.814 274.071C215.814 274.071 214.44 274.357 210.423 275.669C206.408 276.983 200.766 276.526 195.837 276.426C189.474 276.293 186.959 277.862 185.978 279.273C185.202 280.394 185.386 281.415 185.386 281.415Z" fill="#DD4D36"/>
<path d="M185.375 281.417L221.559 297.434C222.044 297.063 222.498 296.434 222.923 295.635L185.966 279.275C185.19 280.396 185.375 281.417 185.375 281.417Z" fill="#93211E"/>
<path d="M217.89 295.808L218.966 296.284C218.435 294.583 218.264 292.26 219.586 289.63C221.343 286.131 224.554 284.67 226.601 284.074C226.702 283.688 226.801 283.331 226.897 283.01C224.746 283.526 220.848 285.015 218.742 289.204C217.481 291.716 217.475 294.003 217.89 295.808Z" fill="#93211E"/>
<path d="M210.108 278.084C210.375 278.204 210.699 278.13 210.887 277.888C211.108 277.603 211.056 277.194 210.771 276.974L208.759 275.413C208.475 275.191 208.064 275.244 207.844 275.527C207.623 275.812 207.675 276.222 207.96 276.442L209.972 278.004C210.014 278.036 210.06 278.064 210.108 278.084Z" fill="white"/>
<path d="M213.194 277.193C213.461 277.313 213.785 277.238 213.972 276.996C214.193 276.711 214.141 276.303 213.857 276.081L211.845 274.521C211.561 274.299 211.15 274.35 210.929 274.635C210.709 274.92 210.761 275.331 211.046 275.551L213.057 277.113C213.1 277.145 213.146 277.171 213.194 277.193Z" fill="white"/>
<path d="M207.259 278.395C207.528 278.513 207.851 278.44 208.038 278.198C208.26 277.913 208.208 277.503 207.923 277.283L205.91 275.721C205.626 275.499 205.217 275.553 204.996 275.838C204.775 276.123 204.827 276.531 205.112 276.752L207.124 278.312C207.167 278.345 207.213 278.374 207.259 278.395Z" fill="white"/>
<path d="M204.42 278.655C204.688 278.775 205.012 278.7 205.199 278.458C205.42 278.173 205.368 277.765 205.083 277.545L203.071 275.983C202.787 275.761 202.377 275.814 202.157 276.099C201.936 276.383 201.987 276.793 202.272 277.012L204.283 278.574C204.327 278.607 204.373 278.635 204.42 278.655Z" fill="white"/>
<path d="M201.456 278.73C201.723 278.848 202.046 278.775 202.234 278.533C202.455 278.248 202.402 277.839 202.117 277.619L200.107 276.058C199.822 275.836 199.412 275.888 199.191 276.173C198.971 276.457 199.023 276.868 199.308 277.087L201.319 278.649C201.362 278.683 201.408 278.709 201.456 278.73Z" fill="white"/>
<path d="M198.342 278.544C198.609 278.664 198.932 278.589 199.12 278.348C199.341 278.063 199.289 277.654 199.005 277.432L196.993 275.872C196.709 275.65 196.298 275.702 196.078 275.987C195.858 276.272 195.909 276.682 196.194 276.902L198.205 278.463C198.248 278.496 198.295 278.523 198.342 278.544Z" fill="white"/>
<path d="M298.458 210.665C275.335 214.445 262.431 222.221 262.431 222.221C262.431 222.221 254.232 241.169 249.36 248.123C244.489 255.077 233.316 277.157 233.316 277.157L216.484 269.966C216.484 269.966 218.218 265.658 220.958 259.077C221.029 258.911 221.098 258.744 221.169 258.573C221.93 256.746 222.765 254.756 223.659 252.638C223.741 252.444 223.823 252.249 223.906 252.053C225.558 248.147 227.4 243.837 229.345 239.38C229.471 239.088 229.599 238.794 229.728 238.502C231.411 234.649 233.164 230.698 234.93 226.808C235.02 226.609 235.111 226.415 235.2 226.215C236.217 223.978 237.239 221.764 238.252 219.603C238.337 219.426 238.42 219.248 238.503 219.073C239.817 216.283 241.117 213.586 242.374 211.052C242.478 210.848 242.581 210.642 242.681 210.439C244.728 206.348 246.667 202.698 248.393 199.789C248.499 199.61 248.605 199.431 248.71 199.258C250.086 196.978 251.318 195.192 252.35 194.058C252.483 193.91 252.614 193.773 252.742 193.648C252.785 193.605 252.832 193.562 252.883 193.517C254.998 191.693 263.625 188.759 273.848 187.229C274.175 187.179 274.504 187.133 274.835 187.088H274.837C283.213 185.921 292.539 185.731 300.183 187.865C302.198 191.746 304.761 201.575 298.458 210.665Z" fill="#14130F"/>
<path d="M235.119 272.992C235.057 272.992 234.994 272.981 234.933 272.956L218.459 266.108C218.211 266.005 218.095 265.72 218.197 265.474C218.3 265.228 218.583 265.11 218.83 265.213L235.305 272.061C235.552 272.164 235.669 272.447 235.565 272.695C235.489 272.88 235.309 272.992 235.119 272.992Z" fill="#5C554C"/>
<path d="M232.363 271.607C232.304 271.607 232.244 271.596 232.185 271.573C231.936 271.475 231.815 271.193 231.913 270.944C231.947 270.859 235.394 262.259 243.434 250.057C251.42 237.939 259.77 217.455 259.853 217.249C259.954 217.001 260.237 216.882 260.485 216.983C260.733 217.084 260.852 217.366 260.751 217.614C260.667 217.821 252.282 238.393 244.243 250.592C236.257 262.71 232.848 271.216 232.815 271.301C232.739 271.491 232.556 271.607 232.363 271.607Z" fill="#5C554C"/>
<path d="M347.245 188.961C347.23 188.971 347.217 188.98 347.2 188.987C347.195 188.992 347.191 188.994 347.186 188.995C347.159 189.011 347.136 189.028 347.114 189.04C347.083 189.057 347.058 189.072 347.032 189.092C347.018 189.097 347.007 189.105 347 189.109C346.973 189.126 346.951 189.138 346.93 189.152C346.917 189.159 346.902 189.169 346.89 189.175C346.894 189.17 346.898 189.167 346.902 189.163C346.854 189.189 346.822 189.211 346.814 189.213C346.799 189.222 346.78 189.23 346.762 189.241C346.569 189.352 346.27 189.521 346.098 189.617C346.08 189.627 346.065 189.635 346.049 189.643C344.382 190.567 342.669 191.382 340.916 192.09C338.909 192.911 336.851 193.594 334.771 194.154C334.385 194.26 333.998 194.358 333.608 194.457C333.579 194.464 333.549 194.471 333.515 194.478C332.228 194.797 330.935 195.066 329.634 195.286C329.149 195.369 328.662 195.444 328.171 195.515C326.421 195.772 324.665 195.947 322.921 196.046C322.709 196.062 322.498 196.073 322.287 196.079C320.326 196.174 318.384 196.17 316.473 196.081C316.268 196.071 316.062 196.06 315.86 196.05C315.823 196.046 315.789 196.045 315.755 196.043H315.754C315.438 196.023 315.123 196.004 314.81 195.976C313.772 195.906 312.75 195.796 311.737 195.667C311.383 195.629 311.035 195.582 310.686 195.526C306.873 194.971 303.279 194.063 300.061 192.859C299.826 192.77 299.593 192.681 299.36 192.591C299.191 192.524 299.026 192.459 298.858 192.389C298.818 192.372 298.779 192.358 298.737 192.339C297.674 191.899 296.656 191.423 295.692 190.919C295.647 190.896 295.601 190.871 295.559 190.852C294.283 190.173 293.104 189.444 292.034 188.665C292.126 187.001 292.246 185.233 292.372 183.507V183.505C292.402 183.128 292.427 182.752 292.455 182.382C292.534 181.335 292.612 180.314 292.692 179.359C292.69 179.354 292.692 179.348 292.692 179.346C292.885 177.341 293.058 175.259 293.22 173.188C293.224 173.148 293.227 173.122 293.227 173.122C293.282 172.442 293.33 171.767 293.381 171.093C293.412 170.673 293.442 170.26 293.469 169.847V169.844C293.751 165.881 293.974 162.118 294.119 159.146L294.118 159.144C294.135 158.802 294.152 158.476 294.167 158.158C294.201 157.431 294.23 156.764 294.253 156.165C294.308 154.87 294.34 153.613 294.364 152.385C294.389 151.186 294.395 150.02 294.391 148.884C294.387 147.587 294.366 146.324 294.327 145.107C294.316 144.452 294.289 143.809 294.266 143.175C294.266 143.173 294.266 143.173 294.266 143.173C294.253 142.881 294.241 142.591 294.225 142.303C294.213 142.033 294.201 141.764 294.183 141.499C294.183 141.499 294.183 141.499 294.186 141.497C294.182 141.433 294.179 141.37 294.174 141.307C294.16 141.008 294.141 140.709 294.122 140.418C294.063 139.427 293.99 138.465 293.917 137.526C293.741 135.43 293.524 133.468 293.282 131.638C293.241 131.318 293.196 131 293.155 130.686C292.709 127.52 292.189 124.754 291.667 122.344C291.608 122.056 291.548 121.774 291.485 121.495C290.326 116.27 289.227 112.77 289.06 110.361C289.032 109.935 289.03 109.54 289.069 109.177C289.127 108.528 289.244 107.939 289.413 107.404C289.583 106.876 289.799 106.4 290.061 105.965C290.979 104.449 292.428 103.499 294.108 102.712C294.3 102.621 294.494 102.534 294.692 102.447C295.223 102.214 295.771 101.996 296.327 101.774C296.524 101.695 296.724 101.615 296.927 101.536C297.543 101.293 298.168 101.043 298.791 100.772C298.798 100.77 298.802 100.767 298.808 100.767C299.278 100.56 299.747 100.34 300.206 100.104C300.403 100.002 300.596 99.8987 300.789 99.7928C300.973 99.6868 301.159 99.5858 301.337 99.4725C301.568 99.3288 301.803 99.1761 302.029 99.0193C303.231 98.1891 304.322 97.1381 305.194 95.7315C305.203 95.7233 305.21 95.7126 305.217 95.697C305.321 95.5319 305.421 95.3562 305.52 95.1764L320.217 93.668C320.217 93.668 321.153 94.2805 322.807 94.9941C322.994 95.0787 323.191 95.1591 323.396 95.2462C323.515 95.293 323.634 95.3373 323.756 95.3882C323.889 95.4408 324.027 95.49 324.169 95.5426C324.246 95.5697 324.333 95.6001 324.413 95.6296C324.932 95.8119 325.504 95.9918 326.123 96.1609C326.36 96.2241 326.606 96.2882 326.859 96.349C327.061 96.3982 327.266 96.445 327.476 96.4869C327.592 96.5148 327.711 96.5378 327.829 96.5608C328.02 96.601 328.209 96.6372 328.411 96.6758C328.805 96.7456 329.217 96.8112 329.643 96.8638C329.866 96.8958 330.091 96.9213 330.316 96.9467C330.829 97.0034 331.361 97.0461 331.911 97.0765C332.977 97.1331 333.987 97.3515 334.943 97.7243C335.145 97.8032 335.344 97.8877 335.544 97.9805C336.215 98.2917 336.859 98.6859 337.471 99.1564C337.806 99.4134 338.13 99.6926 338.446 99.9972H338.448C338.496 100.042 338.539 100.084 338.583 100.131C338.722 100.264 338.855 100.402 338.988 100.546C339.179 100.751 339.365 100.965 339.55 101.188C340.002 101.736 340.431 102.336 340.84 102.991C340.977 103.211 341.111 103.436 341.242 103.667C341.359 103.87 341.473 104.077 341.583 104.292C341.676 104.463 341.765 104.639 341.852 104.817C342.93 106.992 343.806 109.598 344.469 112.596C344.471 112.597 344.471 112.6 344.471 112.602C344.666 113.485 344.844 114.4 345.002 115.352C345.432 117.945 345.862 120.47 346.276 122.935C346.325 123.216 346.37 123.5 346.419 123.78C346.574 124.714 346.729 125.642 346.882 126.562C347.158 128.265 347.428 129.947 347.683 131.609C347.732 131.952 347.787 132.293 347.838 132.641C347.953 133.41 348.045 134.105 348.124 134.766C348.328 136.453 348.449 137.91 348.662 139.824C348.662 139.828 351.788 178.146 347.245 188.961Z" fill="#1C75BC"/>
<path d="M345.759 167.513C345.751 167.732 345.745 167.946 345.74 168.165C345.581 173.184 345.196 178.344 344.512 183.541C344.484 183.755 344.456 183.967 344.426 184.18C344.246 185.504 344.046 186.832 343.825 188.159C343.802 188.298 343.688 188.401 343.552 188.415C343.525 188.417 343.497 188.417 343.469 188.41C343.3 188.384 343.188 188.225 343.215 188.056C343.435 186.729 343.637 185.4 343.816 184.074C343.846 183.86 343.873 183.647 343.901 183.432C344.579 178.281 344.962 173.166 345.121 168.193C345.127 167.974 345.134 167.76 345.14 167.542C345.941 139.075 339.51 115.271 339.429 114.978C339.384 114.813 339.481 114.643 339.645 114.599C339.817 114.548 339.98 114.65 340.026 114.813C340.107 115.106 346.554 138.964 345.759 167.513Z" fill="#1C75BC"/>
<path d="M325.598 73.5907C325.598 73.5907 329.683 70.6698 330.652 66.0771C331.503 62.0325 328.096 62.0325 328.096 62.0325C328.096 62.0325 330.883 57.6399 329.215 54.3557C327.125 50.2464 322.949 51.0346 322.949 51.0346C322.949 51.0346 324.072 44.4991 313.673 45.0308C303.274 45.5634 297.085 45.9554 295.396 50.4507C293.709 54.9448 297.956 56.2616 297.956 56.2616C297.956 56.2616 293.754 58.815 295.807 61.4701C297.859 64.1251 300.425 63.342 300.425 63.342L325.598 73.5907Z" fill="#00312E"/>
<path d="M304.585 71.7924C304.585 71.7924 303.296 66.939 299.352 67.8452C295.407 68.7514 294.651 81.6962 302.077 81.6397L304.585 71.7924Z" fill="#F9AD8F"/>
<path d="M323.283 95.6943C323.283 95.6943 324.209 97.3292 316.972 99.3305C313.154 100.387 308.529 99.3839 306.229 98.0271C305.294 97.477 304.758 97.0552 304.758 97.0552C305.937 91.5645 304.986 88.0011 304.712 87.1503C304.67 87.021 304.645 86.9543 304.645 86.9543L323.5 77.5801L323.283 95.6943Z" fill="#F9AD8F"/>
<path d="M320.816 84.9727C320.816 84.9727 316.281 97.4279 306.22 98.0211C305.285 97.471 304.749 97.0492 304.749 97.0492C305.927 91.5584 304.977 87.9951 304.703 87.1443L320.816 84.9727Z" fill="#E0815B"/>
<path d="M313.506 91.4601C305.733 92.8938 299.583 89.4968 298.907 82.8361C298.742 81.2299 298.679 78.9074 298.673 76.4863C298.673 76.4617 298.672 76.4381 298.672 76.4124C298.672 75.8993 298.674 75.3779 298.675 74.8596C298.676 74.483 298.68 74.1084 298.686 73.7358C298.733 69.4192 298.897 65.509 298.897 65.509C300.121 54.8006 310.775 50.916 319.235 55.0725C327.691 59.2301 324.289 72.2426 324.197 78.6139C324.11 84.9862 320.175 90.2316 313.506 91.4601Z" fill="#F9AD8F"/>
<path d="M311.971 78.7637C311.971 78.7637 310.872 82.3167 307.966 82.8935C304.658 83.5503 303.914 79.4113 303.914 79.4113L311.971 78.7637Z" fill="white"/>
<path d="M314.06 68.2075C316.257 68.6744 316.881 66.3221 314.897 65.0967C313.992 64.5374 312.999 64.0581 311.98 64.0509C309.082 64.0304 308.994 66.0738 310.444 66.902C311.139 67.2992 312.797 67.9386 314.06 68.2075Z" fill="#00312E"/>
<path d="M301.572 67.0374C299.335 67.2334 299.001 64.8237 301.119 63.8477C302.086 63.4022 303.13 63.0482 304.142 63.1652C307.022 63.4977 306.86 65.537 305.318 66.1815C304.582 66.4914 302.858 66.9245 301.572 67.0374Z" fill="#00312E"/>
<path d="M296.458 70.3401C296.971 67.7261 299.516 66.0173 302.13 66.5305C304.744 67.0436 306.453 69.5878 305.939 72.2018C305.427 74.8158 302.882 76.5246 300.268 76.0114C297.654 75.4993 295.945 72.9551 296.458 70.3401ZM297.155 70.4776C296.716 72.7078 298.174 74.8794 300.406 75.3177C302.637 75.7559 304.807 74.2975 305.245 72.0663C305.684 69.8362 304.225 67.6645 301.994 67.2263C299.763 66.7881 297.591 68.2464 297.155 70.4776Z" fill="white"/>
<path d="M306.123 77.2866C306.064 77.2825 306.005 77.263 305.952 77.2261C304.2 76.0191 303.866 75.3839 303.817 75.2689C303.771 75.1611 303.782 75.037 303.847 74.9395L306.385 71.1206C306.393 71.1093 306.401 71.099 306.41 71.0877C306.954 70.4473 307.056 69.1214 307.125 67.5829C307.134 67.39 307.296 67.2412 307.488 67.2504C307.683 67.2627 307.83 67.4218 307.82 67.6137C307.746 69.2712 307.628 70.7101 306.954 71.5209L304.553 75.1314C304.735 75.3592 305.212 75.8703 306.347 76.6524C306.505 76.7612 306.545 76.9777 306.436 77.1358C306.362 77.2425 306.243 77.2959 306.123 77.2866Z" fill="#00312E"/>
<path d="M307.97 70.6526C308.483 68.0386 311.028 66.3298 313.642 66.843C316.256 67.3561 317.964 69.9003 317.452 72.5143C316.939 75.1283 314.395 76.8371 311.781 76.3239C309.166 75.8118 307.456 73.2676 307.97 70.6526ZM308.666 70.7891C308.227 73.0193 309.686 75.1909 311.916 75.6292C314.148 76.0664 316.317 74.609 316.756 72.3778C317.195 70.1477 315.735 67.976 313.505 67.5378C311.274 67.1006 309.102 68.559 308.666 70.7891Z" fill="white"/>
<path d="M305.653 71.6337C305.655 71.6337 305.658 71.6347 305.66 71.6357C305.853 71.6686 306.037 71.5393 306.07 71.3463C306.077 71.3114 306.243 70.435 306.909 70.4668C307.648 70.5037 307.926 71.3248 307.928 71.333C307.99 71.5198 308.189 71.6204 308.376 71.5608C308.562 71.4992 308.664 71.2991 308.602 71.1134C308.585 71.061 308.166 69.8192 306.943 69.7597C305.91 69.7094 305.464 70.6967 305.373 71.2262C305.339 71.4151 305.465 71.5957 305.653 71.6337Z" fill="white"/>
<path d="M317.044 71.0077C317.192 71.0365 317.347 70.9698 317.422 70.8322C319.337 67.389 322.902 69.0824 323.052 69.1563C323.228 69.2415 323.441 69.1696 323.526 68.9941C323.612 68.8197 323.543 68.6072 323.367 68.521C323.323 68.4994 319.047 66.4509 316.803 70.4884C316.707 70.6598 316.769 70.8753 316.94 70.9708C316.974 70.9882 317.009 71.0005 317.044 71.0077Z" fill="white"/>
<path d="M298.894 66.2585C298.657 64.0314 298.456 59.9026 302.046 55.7727C307.412 49.6036 318.358 49.9475 322.723 56.2212C327.088 62.495 324.943 67.9519 324.943 67.9519C324.943 67.9519 323.183 68.5892 322.326 72.0324L319.999 71.936C319.999 71.936 319.12 69.0551 320.042 64.3619C320.962 59.6676 312.677 54.9712 307.051 56.0334C301.426 57.0956 299.637 62.2107 299.637 62.2107C299.637 62.2107 299.014 64.0858 298.894 66.2585Z" fill="#00312E"/>
<path d="M317.047 58.7374C317.047 58.7374 313.131 57.2021 311.239 57.9482C309.347 58.6933 306.603 59.6693 304.54 58.1801C302.475 56.691 300.105 61.101 300.105 61.101C300.105 61.101 302.731 53.2508 309.21 54.8836C315.69 56.5175 315.664 55.9038 317.047 58.7374Z" fill="#00312E"/>
<path d="M306.988 84.3653C306.84 84.3242 306.75 84.2883 306.734 84.2811C306.558 84.2072 306.473 84.004 306.546 83.8264C306.621 83.6499 306.822 83.5637 306.999 83.6386C307.053 83.6592 308.218 84.1159 309.186 83.2887C309.332 83.1635 309.551 83.1809 309.678 83.3277C309.802 83.4734 309.785 83.693 309.638 83.8182C308.635 84.6752 307.488 84.5007 306.988 84.3653Z" fill="#ED7463"/>
<path d="M322.742 69.8653C322.742 69.8653 324.993 66.303 328.63 68.0775C332.267 69.851 330.082 82.6315 322.859 80.9001L322.742 69.8653Z" fill="#F9AD8F"/>
<path d="M324.329 76.3864C324.306 76.3844 324.28 76.3802 324.255 76.372C324.072 76.3166 323.968 76.1226 324.022 75.9389C324.069 75.7829 325.214 72.0924 328.593 71.5782C328.783 71.5495 328.96 71.6798 328.991 71.8697C329.018 72.0595 328.887 72.2371 328.698 72.2658C325.749 72.7153 324.7 76.1052 324.688 76.1391C324.642 76.2992 324.49 76.3987 324.329 76.3864Z" fill="#00312E"/>
<path d="M327.471 75.2589C327.384 75.2528 327.299 75.2138 327.236 75.143C327.23 75.1358 326.577 74.3989 325.798 73.663C325.657 73.5306 325.65 73.311 325.781 73.1714C325.915 73.0319 326.136 73.0257 326.273 73.1571C327.077 73.9155 327.729 74.6514 327.756 74.6821C327.883 74.8269 327.87 75.0455 327.726 75.1737C327.656 75.2364 327.562 75.2661 327.471 75.2589Z" fill="#00312E"/>
<path d="M312.316 72.9102C312.758 72.9152 313.123 72.2921 313.132 71.5185C313.141 70.7448 312.789 70.1137 312.347 70.1087C311.905 70.1037 311.54 70.7267 311.531 71.5004C311.522 72.274 311.874 72.9052 312.316 72.9102Z" fill="#00312E"/>
<path d="M303.312 72.9374C303.754 72.9424 304.119 72.3198 304.128 71.5467C304.137 70.7737 303.785 70.1429 303.343 70.138C302.901 70.133 302.536 70.7556 302.527 71.5287C302.518 72.3017 302.87 72.9324 303.312 72.9374Z" fill="#00312E"/>
<path d="M323.545 91.1992C323.545 91.1992 326.236 92.0151 327.683 98.0919C325.81 103.615 320.533 108.254 313.133 109.611L313.153 98.7446C313.153 98.7446 319.687 97.1261 323.545 91.1992Z" fill="white"/>
<path d="M305.132 92.7344C305.132 92.7344 300.682 93.7422 298.828 99.8046C303.595 105.629 306.144 107.821 313.142 109.613L313.162 98.7465C313.162 98.7465 308.967 98.6756 305.132 92.7344Z" fill="white"/>
<path d="M318.164 108.024L313.127 115.482L308.328 108.006L313.154 101.779L318.164 108.024Z" fill="#1C75BC"/>
<path d="M272.055 274.389L270.329 287.333H259.867L260.362 275.275L272.055 274.389Z" fill="#F8A48F"/>
<path d="M234.088 303.932L273.657 303.782C273.948 303.247 274.106 302.488 274.169 301.583C274.403 298.235 273.317 292.896 272.782 289.532C272.717 289.138 272.662 288.77 272.617 288.44C272.543 287.875 272.496 287.407 272.495 287.064C272.484 284.314 270.053 284.795 270.053 284.795C266.064 288.735 261.508 282.865 258.868 284.806C258.868 284.806 257.73 285.627 254.599 288.466C251.469 291.304 246.133 293.189 241.593 295.11C235.728 297.586 234.074 300.044 233.754 301.733C233.503 303.073 234.088 303.932 234.088 303.932Z" fill="#DD4D36"/>
<path d="M234.04 303.852H273.609C273.903 303.319 274.063 302.558 274.129 301.654H233.714C233.457 302.992 234.04 303.852 234.04 303.852Z" fill="#93211E"/>
<path d="M269.586 303.864H270.761C269.589 302.523 268.491 300.466 268.634 297.528C268.826 293.618 271.172 290.981 272.802 289.608C272.738 289.215 272.683 288.848 272.642 288.516C270.883 289.858 267.923 292.797 267.693 297.481C267.555 300.288 268.477 302.382 269.586 303.864Z" fill="#93211E"/>
<path d="M255.304 290.805C255.596 290.805 255.863 290.606 255.937 290.31C256.024 289.96 255.81 289.606 255.461 289.52L252.989 288.907C252.639 288.819 252.286 289.031 252.199 289.381C252.113 289.732 252.325 290.084 252.674 290.172L255.147 290.786C255.199 290.798 255.252 290.805 255.304 290.805Z" fill="white"/>
<path d="M257.766 288.745C258.058 288.745 258.324 288.547 258.398 288.25C258.484 287.899 258.272 287.547 257.922 287.459L255.45 286.845C255.101 286.76 254.747 286.972 254.66 287.321C254.573 287.671 254.787 288.025 255.135 288.111L257.607 288.725C257.66 288.739 257.713 288.745 257.766 288.745Z" fill="white"/>
<path d="M252.831 292.244C253.124 292.244 253.39 292.047 253.464 291.749C253.55 291.4 253.338 291.046 252.988 290.96L250.516 290.346C250.167 290.259 249.813 290.471 249.727 290.822C249.639 291.172 249.852 291.525 250.202 291.612L252.674 292.225C252.726 292.239 252.778 292.244 252.831 292.244Z" fill="white"/>
<path d="M250.359 293.621C250.651 293.621 250.918 293.423 250.992 293.126C251.078 292.777 250.867 292.423 250.516 292.337L248.044 291.723C247.694 291.636 247.341 291.848 247.254 292.197C247.167 292.547 247.38 292.901 247.73 292.987L250.202 293.601C250.254 293.615 250.307 293.621 250.359 293.621Z" fill="white"/>
<path d="M247.664 294.905C247.955 294.905 248.223 294.706 248.297 294.41C248.383 294.06 248.171 293.706 247.821 293.62L245.349 293.006C244.998 292.919 244.646 293.131 244.558 293.481C244.472 293.83 244.685 294.184 245.034 294.27L247.506 294.885C247.559 294.898 247.611 294.905 247.664 294.905Z" fill="white"/>
<path d="M244.715 295.989C245.006 295.989 245.273 295.79 245.347 295.494C245.433 295.144 245.221 294.79 244.872 294.704L242.399 294.09C242.049 294.003 241.696 294.215 241.609 294.565C241.522 294.914 241.735 295.268 242.085 295.356L244.556 295.969C244.609 295.982 244.663 295.989 244.715 295.989Z" fill="white"/>
<path d="M313.568 220.885C291.146 220.885 280.49 218.722 280.49 218.722C280.49 218.722 279.952 238.52 278.908 246.872C277.866 255.225 273.384 279.291 273.384 279.291L256.495 280.152C256.495 280.152 256.338 275.924 256.241 269.383V269.381C256.237 269.157 256.235 268.931 256.231 268.699C256.204 266.809 256.183 264.743 256.176 262.538V262.534C256.173 262.234 256.171 261.934 256.171 261.626C256.152 255.586 256.212 248.602 256.45 241.518V241.516C256.463 241.158 256.474 240.801 256.489 240.445V240.441C256.604 237.269 256.755 234.088 256.95 230.968C256.966 230.713 256.983 230.461 256.999 230.207C257.13 228.198 257.282 226.221 257.454 224.289C257.47 224.089 257.489 223.887 257.507 223.688C258.393 214.017 259.828 205.656 262.111 201.204C262.208 201.015 262.307 200.832 262.41 200.655C263.043 199.541 263.744 198.724 264.512 198.248C269.381 195.246 275.206 193.555 282.576 192.368C282.869 192.32 283.164 192.274 283.461 192.228C288.095 191.52 293.33 190.989 299.304 190.454C299.517 190.434 299.728 190.415 299.94 190.394H299.942C303.646 190.066 307.632 189.727 311.929 189.341C312.136 189.322 312.345 189.304 312.553 189.285C314.193 189.137 315.881 188.978 317.614 188.813C317.614 188.813 323.772 187.771 330.608 187.289C330.846 187.271 331.088 187.254 331.33 187.239C337.785 186.824 344.671 186.951 347.454 188.943C347.454 188.943 355.548 220.885 313.568 220.885Z" fill="#14130F"/>
<path d="M343.558 188.61C343.522 188.347 343.283 188.162 343.018 188.198C342.756 188.234 342.571 188.476 342.607 188.739C342.621 188.846 343.997 199.666 337.999 207.373C334.656 211.67 329.648 214.23 323.116 214.978C309.964 216.486 297.766 215.19 289.694 214.331C283.18 213.639 279.248 213.22 277.925 214.39C276.72 215.454 276.264 221.541 275.496 233.111C274.723 244.749 272.858 263.47 270.465 273.652C270.765 273.772 271.274 273.367 271.581 273.473C274.017 263.206 275.675 244.899 276.454 233.173C276.783 228.219 277.067 223.937 277.413 220.695C277.881 216.305 278.333 215.312 278.56 215.11C279.568 214.219 283.99 214.691 289.592 215.285C297.707 216.15 309.967 217.452 323.225 215.932C330.026 215.153 335.254 212.469 338.763 207.957C345.008 199.926 343.62 189.067 343.558 188.61Z" fill="#5C554C"/>
<path d="M256.856 275.113C256.615 275.113 256.414 274.916 256.399 274.661C256.384 274.396 256.576 274.169 256.828 274.152L274.04 273.063C274.297 273.047 274.509 273.251 274.525 273.514C274.541 273.779 274.348 274.008 274.095 274.024L256.883 275.111C256.874 275.113 256.865 275.113 256.856 275.113Z" fill="#5C554C"/>
<path d="M293.971 132.332C293.971 132.332 295.106 126.399 294.435 124.473C293.766 122.548 293.778 119.286 292.449 119.626C291.119 119.968 291.212 123.981 291.212 123.981L293.971 132.332Z" fill="#F9AE90"/>
<path d="M343.514 119.393L342.83 122.122C342.6 123.015 342.37 123.905 342.129 124.791C341.646 126.564 341.156 128.332 340.643 130.098C339.606 133.625 338.529 137.149 337.331 140.665C336.139 144.186 334.873 147.706 333.386 151.255C332.645 153.032 331.855 154.818 330.955 156.643C330.044 158.477 329.064 160.318 327.644 162.362C327.284 162.876 326.888 163.407 326.423 163.966C325.954 164.528 325.434 165.111 324.728 165.757C324.386 166.073 323.971 166.415 323.507 166.755C323.035 167.097 322.469 167.457 321.784 167.797C321.101 168.133 320.27 168.462 319.262 168.669C318.759 168.77 318.224 168.84 317.66 168.86L317.452 168.867H317.304L317.012 168.863C316.814 168.86 316.639 168.847 316.455 168.834C315.013 168.711 313.937 168.377 313.048 168.041C312.154 167.696 311.443 167.328 310.797 166.959C309.524 166.221 308.54 165.481 307.634 164.75C305.847 163.282 304.411 161.821 303.046 160.356C301.689 158.89 300.437 157.418 299.234 155.939C298.031 154.46 296.882 152.971 295.761 151.474C294.641 149.981 293.568 148.462 292.557 146.909C291.544 145.358 290.584 143.776 289.685 142.156C289.234 141.347 288.802 140.527 288.387 139.693C288.177 139.278 287.98 138.854 287.781 138.43C287.681 138.218 287.582 138.004 287.489 137.787L287.198 137.116C286.05 134.466 287.267 131.387 289.917 130.24C291.847 129.403 294.004 129.821 295.477 131.134L295.7 131.336C296.004 131.608 296.338 131.926 296.647 132.232C296.962 132.541 297.281 132.85 297.588 133.166C298.209 133.795 298.824 134.429 299.427 135.07C300.637 136.348 301.818 137.641 302.982 138.937C304.148 140.232 305.291 141.534 306.425 142.824C307.565 144.109 308.716 145.37 309.88 146.582C311.044 147.795 312.221 148.962 313.394 150.035C314.561 151.102 315.753 152.092 316.805 152.815C317.321 153.173 317.813 153.46 318.112 153.584C318.253 153.644 318.352 153.666 318.3 153.626C318.251 153.598 318.051 153.49 317.504 153.431C317.433 153.423 317.37 153.421 317.282 153.415L317.159 153.412L316.971 153.414C316.631 153.425 316.319 153.464 316.035 153.521C315.466 153.636 315.056 153.801 314.771 153.933C314.486 154.067 314.301 154.19 314.186 154.263C314.078 154.33 314.01 154.388 313.991 154.391C313.938 154.424 314.007 154.328 314.095 154.19C314.186 154.047 314.312 153.846 314.445 153.613C314.716 153.145 315.021 152.552 315.322 151.917C315.624 151.276 315.932 150.59 316.227 149.874C316.823 148.44 317.392 146.908 317.931 145.339C319.005 142.191 320.003 138.904 320.939 135.58C321.864 132.249 322.761 128.879 323.598 125.487C324.021 123.791 324.44 122.093 324.842 120.393L325.447 117.847L326.019 115.349L326.053 115.202C327.161 110.368 331.979 107.349 336.812 108.458C341.646 109.566 344.666 114.383 343.558 119.217C343.547 119.26 343.525 119.348 343.514 119.393Z" fill="#F9AE90"/>
<path d="M317.031 152.905C317.88 153.248 318.729 153.59 319.578 153.934C320.024 154.114 319.718 154.795 319.273 154.616C318.424 154.272 317.576 153.93 316.726 153.587C316.28 153.407 316.586 152.725 317.031 152.905Z" fill="#DF6A5D"/>
<path d="M315.455 152.396C316.574 153.493 317.241 154.917 317.397 156.473C317.449 156.988 318.249 156.902 318.197 156.387C318.018 154.613 317.237 153.021 315.967 151.775C315.596 151.413 315.088 152.037 315.455 152.396Z" fill="#DF6A5D"/>
<path d="M293.602 138.151C291.052 139.815 287.65 138.942 285.899 136.449C284.977 135.133 283.843 133.774 282.668 132.98C279.848 131.075 275.987 129.609 274.836 128.244C273.136 126.23 275.975 126.364 276.324 126.43C278.564 126.848 281.554 127.957 281.554 127.957C281.554 127.957 276.787 124.684 274.555 124.239C272.322 123.794 271.367 121.977 273.689 121.201C276.012 120.426 282.014 122.94 283.488 124.086C283.488 124.086 281.07 121.308 278.065 120.604C275.06 119.901 274.079 119.245 273.165 118.392C272.251 117.539 274.14 115.885 278.311 116.975C282.479 118.065 283.804 119.529 285.353 120.948C285.353 120.948 284.617 119.412 282.888 117.209C281.159 115.006 277.622 114.47 277.269 112.832C276.91 111.158 280.959 111.956 282.994 113.394C285.029 114.832 286.633 115.706 288.341 118.395C290.049 121.085 291.589 123.715 292.225 125.571C292.861 127.427 295.99 133.728 295.118 136.419C294.894 137.106 294.326 137.68 293.602 138.151Z" fill="#F9AE90"/>
<path d="M344.639 116.32C344.647 120.188 344.226 124.503 343.742 128.196C343.714 128.422 343.682 128.647 343.652 128.867C343.016 133.57 342.301 137.106 342.301 137.106C340.671 137.143 337.694 136.517 334.349 135.631C334.138 135.576 333.926 135.518 333.715 135.461C331.05 134.737 328.196 133.87 325.64 133.058C325.248 132.932 324.863 132.81 324.488 132.688C322.639 132.09 320.997 131.541 319.772 131.125H319.77C319.43 131.009 319.122 130.903 318.852 130.809C317.995 130.516 317.5 130.34 317.5 130.34C317.5 130.34 318.114 127.696 319.042 124.021C319.097 123.805 319.155 123.584 319.21 123.36C319.458 122.385 319.727 121.347 320.008 120.276C320.066 120.06 320.124 119.841 320.178 119.623C322.07 112.492 324.54 104.102 326.131 102.232C326.453 101.855 326.823 101.522 327.224 101.234C327.397 101.109 327.577 100.99 327.764 100.88C328.101 100.68 328.456 100.505 328.818 100.35C331.865 99.0628 335.306 99.1515 338.057 100.658C338.234 100.751 338.408 100.855 338.578 100.963C339.424 101.499 340.194 102.179 340.849 103.005C341.133 103.361 341.422 103.788 341.711 104.271C341.813 104.439 341.912 104.611 342.01 104.79C343.107 106.775 344.114 109.482 344.414 112.001C344.55 113.151 344.62 114.406 344.634 115.719C344.637 115.917 344.639 116.118 344.639 116.32Z" fill="#1C75BC"/>
<path d="M77.1204 266.958H43.2464C42.3636 266.958 41.6484 266.18 41.6484 265.22V264.954C41.6484 263.994 42.3645 263.217 43.2464 263.217H77.1204C78.0031 263.217 78.7183 263.994 78.7183 264.954V265.22C78.7183 266.179 78.0031 266.958 77.1204 266.958Z" fill="#14130F"/>
<path d="M412.544 308.402C411.519 308.402 410.564 307.697 410.223 306.58L372.099 182.11C371.672 180.715 372.365 179.207 373.648 178.743C374.931 178.278 376.318 179.032 376.745 180.427L414.869 304.897C415.296 306.292 414.602 307.799 413.319 308.265C413.062 308.359 412.8 308.402 412.544 308.402Z" fill="#14130F"/>
<path d="M400.02 266.962H366.146C365.263 266.962 364.547 266.184 364.547 265.224V264.958C364.547 263.998 365.263 263.221 366.146 263.221H400.02C400.902 263.221 401.618 263.998 401.618 264.958V265.224C401.618 266.183 400.902 266.962 400.02 266.962Z" fill="#14130F"/>
<path d="M352.949 308.402C352.692 308.402 352.432 308.357 352.176 308.265C350.892 307.8 350.199 306.292 350.626 304.896L388.75 180.426C389.178 179.032 390.564 178.278 391.846 178.742C393.13 179.206 393.823 180.714 393.396 182.11L355.271 306.58C354.929 307.696 353.974 308.402 352.949 308.402Z" fill="#14130F"/>
<path d="M91.3852 308.408C90.3596 308.408 89.4038 307.703 89.0622 306.586L50.9388 182.116C50.511 180.721 51.2049 179.213 52.4875 178.748C53.7701 178.284 55.1562 179.038 55.584 180.433L93.7073 304.903C94.1343 306.298 93.4405 307.805 92.1579 308.271C91.9025 308.364 91.6414 308.408 91.3852 308.408Z" fill="#14130F"/>
<path d="M31.7967 308.404C31.5405 308.404 31.2793 308.359 31.0232 308.267C29.7397 307.802 29.0467 306.294 29.4737 304.898L67.5979 180.428C68.0248 179.034 69.4109 178.28 70.6943 178.744C71.9769 179.208 72.6708 180.716 72.243 182.112L34.1188 306.582C33.7772 307.698 32.8222 308.404 31.7967 308.404Z" fill="#14130F"/>
<path d="M404.944 174.188H40.7617V185.569H404.944V174.188Z" fill="#14130F"/>
<path d="M404.944 181.477H40.7617V182.672H404.944V181.477Z" fill="#5C554C"/>
<path d="M217.689 162.426H200.097C199.621 162.426 199.234 162.006 199.234 161.488V160.345C199.234 159.827 199.621 159.406 200.097 159.406H217.689C218.166 159.406 218.553 159.827 218.553 160.345V161.488C218.553 162.007 218.166 162.426 217.689 162.426Z" fill="#DD4D36"/>
<path d="M219.513 169.181C219.47 169.927 219.261 170.635 218.8 171.236C217.113 173.441 212.683 173.771 210.355 173.784C209.993 173.786 209.68 173.779 209.437 173.771H209.436C209.259 173.768 209.121 173.76 209.027 173.755C208.932 173.752 208.88 173.747 208.88 173.747C208.88 173.747 207.129 173.87 205.053 173.66C204.847 173.641 204.642 173.617 204.432 173.588C202.336 173.315 200.063 172.676 198.959 171.236C198.681 170.873 198.496 170.472 198.383 170.047C198.331 169.859 198.295 169.666 198.272 169.467C198.157 168.509 198.35 167.47 198.668 166.492C198.736 166.28 198.811 166.07 198.89 165.865C199.008 165.558 199.136 165.262 199.265 164.979C199.476 164.52 199.696 164.102 199.899 163.74C199.948 163.655 199.993 163.575 200.037 163.497C200.148 163.309 200.252 163.14 200.341 162.997C200.563 162.642 200.707 162.436 200.707 162.436H217.046C217.046 162.436 217.644 163.275 218.25 164.483C218.331 164.641 218.411 164.808 218.491 164.979C218.5 164.997 218.508 165.016 218.517 165.035C218.712 165.461 218.898 165.917 219.058 166.392C219.126 166.6 219.192 166.814 219.247 167.028C219.385 167.541 219.482 168.061 219.507 168.574C219.521 168.778 219.523 168.982 219.513 169.181Z" fill="#DD4D36"/>
<path d="M219.254 167.022C216.641 168.401 213.295 168.745 210.786 168.672C207.871 168.59 205.178 167.612 202.359 166.926C201.158 166.633 199.901 166.441 198.672 166.485C198.74 166.273 198.816 166.063 198.894 165.857C201.972 165.866 205.233 167.306 208.163 167.811C211.066 168.313 214.08 168.116 216.908 167.251C217.63 167.031 218.367 166.749 219.063 166.385C219.133 166.593 219.199 166.807 219.254 167.022Z" fill="#F37669"/>
<path d="M211.96 162.428C208.756 165.769 203.748 166.252 200.051 163.489C200.162 163.301 200.265 163.132 200.355 162.989C203.672 165.471 208.117 165.188 211.139 162.428H211.96Z" fill="#F37669"/>
<path d="M219.509 169.175C216.21 170.05 213.095 171.625 210.351 173.778C209.989 173.779 209.676 173.773 209.434 173.764C212.413 171.298 215.852 169.519 219.506 168.568C219.517 168.772 219.52 168.976 219.509 169.175Z" fill="#F37669"/>
<path d="M205.058 173.657C204.853 173.638 204.648 173.613 204.437 173.584C204.452 172.706 204.13 171.862 203.38 171.315C201.993 170.303 200.149 169.971 198.388 170.043C198.336 169.855 198.3 169.661 198.277 169.462C199.098 169.437 199.916 169.503 200.733 169.669C201.998 169.927 203.601 170.378 204.429 171.547C204.927 172.247 205.103 172.96 205.058 173.657Z" fill="#F37669"/>
<path d="M218.518 165.035C218.093 165.176 217.639 165.239 217.15 165.207C215.58 165.107 214.614 163.896 214.277 162.436H214.858C215.279 163.898 216.47 164.933 218.142 164.513C218.179 164.502 218.215 164.495 218.251 164.483C218.332 164.641 218.412 164.808 218.492 164.979C218.5 164.997 218.508 165.016 218.518 165.035Z" fill="#F37669"/>
<path d="M217.057 162.732H200.718C200.565 162.732 200.441 162.597 200.441 162.431C200.441 162.266 200.565 162.131 200.718 162.131H217.057C217.21 162.131 217.334 162.266 217.334 162.431C217.334 162.597 217.21 162.732 217.057 162.732Z" fill="#93211E"/>
<path d="M215.695 156.708C215.471 157.072 215.249 157.411 215.04 157.719C214.372 158.703 213.84 159.359 213.797 159.413C213.797 159.414 213.795 159.414 213.795 159.414H203.977C203.977 159.414 203.975 159.414 203.973 159.413C203.932 159.359 203.399 158.703 202.732 157.719C202.523 157.411 202.302 157.072 202.077 156.708C200.873 154.754 199.601 152.116 199.949 150.108C200.055 149.49 200.223 149.062 200.43 148.775C200.537 148.628 200.653 148.517 200.778 148.437C201.838 147.765 203.463 149.337 203.977 149.286C204.67 149.218 203.542 145.454 201.935 142.783C200.431 140.286 199.452 136.95 201.293 135.747C201.36 135.703 201.427 135.663 201.501 135.627C201.568 135.592 201.637 135.561 201.713 135.531C204.102 134.573 204.921 138.064 205.929 137.584C206.92 137.112 203.886 125.965 208.655 125.942C208.729 125.941 208.809 125.943 208.887 125.948C208.966 125.943 209.043 125.94 209.119 125.942C213.886 125.964 210.853 137.112 211.843 137.584C212.851 138.064 213.67 134.573 216.06 135.531C216.135 135.561 216.204 135.592 216.271 135.627C216.345 135.664 216.413 135.704 216.479 135.747C218.321 136.95 217.342 140.286 215.84 142.783C214.232 145.454 213.104 149.218 213.796 149.286C214.311 149.337 215.934 147.764 216.994 148.437C217.12 148.517 217.235 148.628 217.343 148.775C217.55 149.062 217.717 149.49 217.824 150.108C218.172 152.116 216.9 154.754 215.695 156.708Z" fill="#047C6D"/>
<path d="M209.144 125.938V159.412H208.68V125.938C208.754 125.936 208.834 125.94 208.912 125.945C208.99 125.94 209.068 125.936 209.144 125.938Z" fill="#083D3B"/>
<path d="M209.061 145.122L208.886 145.287L208.71 145.452L208.654 145.381L201.098 135.891L201.291 135.747C201.359 135.705 201.426 135.665 201.501 135.627L208.654 144.609L208.886 144.9L209.061 145.122Z" fill="#083D3B"/>
<path d="M209.053 158.843L208.878 159.008L208.701 159.173L208.645 159.102L200.422 148.778C200.529 148.631 200.644 148.521 200.77 148.441L208.645 158.333L208.878 158.623L209.053 158.843Z" fill="#083D3B"/>
<path d="M216.691 135.878L209.135 145.367L209.078 145.439L208.903 145.274L208.727 145.11L208.903 144.889L209.135 144.597L216.287 135.615C216.361 135.653 216.43 135.693 216.496 135.735L216.691 135.878Z" fill="#083D3B"/>
<path d="M217.357 148.778L209.135 159.1L209.078 159.173L208.903 159.008L208.727 158.843L208.903 158.623L209.135 158.331L217.009 148.441C217.136 148.521 217.251 148.632 217.357 148.778Z" fill="#083D3B"/>
<path d="M254.232 124.669C254.232 124.669 254.019 124.69 254.503 123.625C255.297 121.878 253.658 119.196 254.74 118.159C256.19 116.769 257.401 119.245 259.294 124.224C259.792 125.534 259.645 130.427 259.207 131.991C258.874 133.177 259.124 134.716 258.369 135.428C255.971 137.681 249.344 139.024 248.1 138.011C246.27 136.519 244.974 132.462 243.848 131.125C242.722 129.787 236.837 120.405 238.331 120.308C239.826 120.212 243.049 124.448 243.049 124.448C243.049 124.448 239.116 116.932 240.641 116.265C242.083 115.634 245.73 122.661 245.73 122.661C245.73 122.661 241.867 113.044 244.132 113.057C245.26 113.063 249.05 121.614 249.05 121.614C249.05 121.614 247.037 115.901 250.096 115.385C253.319 114.841 255.064 117.464 255.064 117.464C255.064 117.464 255.102 119.305 252.286 118.057C249.802 116.954 254.232 124.669 254.232 124.669Z" fill="#F9AE90"/>
<path d="M376.721 76.8893C387.51 76.8893 396.255 68.0813 396.255 57.2161C396.255 46.3509 387.51 37.543 376.721 37.543C365.933 37.543 357.188 46.3509 357.188 57.2161C357.188 68.0813 365.933 76.8893 376.721 76.8893Z" fill="#E67524"/>
<path d="M394.07 56.6706C394.07 67.5365 385.323 76.3438 374.534 76.3438C363.747 76.3438 355 67.5365 355 56.6706C355 45.8082 363.747 37 374.534 37C385.322 37 394.07 45.8082 394.07 56.6706Z" fill="#FFC538"/>
<path d="M374.944 73.884C384.3 73.884 391.884 66.2997 391.884 56.9439C391.884 47.5882 384.3 40.0039 374.944 40.0039C365.588 40.0039 358.004 47.5882 358.004 56.9439C358.004 66.2997 365.588 73.884 374.944 73.884Z" fill="#F5B11A"/>
<path d="M367.67 61.6197C368.673 63.8724 370.417 65.9545 374.726 66.0297C378.483 66.0981 380.196 64.1189 380.113 62.2665C380.022 60.2713 378.419 59.1162 374.61 57.9417C368.878 56.2885 364.845 54.507 364.736 50.9438C364.558 47.0244 369.053 44.5707 374.361 44.618C377.813 44.613 380.852 45.3898 382.776 45.8693C383.063 46.6917 383.821 49.0491 384.301 50.7978L382.761 51.0696C381.485 48.3154 378.971 45.8339 374.263 45.7925C370.86 45.7976 368.472 47.2009 368.584 49.7305C368.674 51.762 370.301 53.3806 374.464 54.6648C380.504 56.5351 383.484 58.2356 383.631 61.4778C383.77 64.6146 380.485 67.2194 374.224 67.1628C370.92 67.1332 369.197 66.6908 367.385 66.4612C367.026 65.1398 366.712 63.7128 366.227 61.857L367.67 61.6197ZM374.643 69.733L372.938 69.7161L374.568 41.4492L376.372 41.4653L374.643 69.733Z" fill="#CC7829"/>
</svg>
