<svg width="484" height="496" viewBox="0 0 484 496" fill="none" xmlns="http://www.w3.org/2000/svg">
<g opacity="0.4">
<path d="M203.628 469.781C175.602 474.639 146.725 471.767 120.347 461.119C86.2806 447.372 50.2288 418.454 50.3048 357.634C50.4493 242.396 201.973 172.863 281.529 172.975C407.964 173.153 511.314 309.734 371.527 411.633C336.774 436.966 248.103 462.076 203.628 469.781Z" fill="#D8E4F2"/>
</g>
<g opacity="0.4">
<path d="M442.202 123.69C415.373 111.223 379.557 119.708 369.123 147.922C363.85 162.18 368.688 178.544 374.758 186.372C393.647 210.724 454.601 238.131 478.507 195.716C493.972 168.281 471.777 137.434 442.202 123.69Z" fill="#D8E4F2"/>
</g>
<path d="M454.526 447.959C454.526 447.959 455.09 445.656 454.526 448.458C454.444 448.876 454.241 450.133 454.134 450.595C453.024 455.517 450.113 462.643 445.355 468.811C445.353 468.814 445.353 468.816 445.353 468.816C445.091 469.15 444.831 469.476 444.555 469.805C442.829 471.885 440.807 473.822 438.438 475.493C438.202 475.659 437.96 475.824 437.714 475.986C433.926 478.493 429.292 480.315 423.628 480.95H423.626C423.269 480.99 422.91 481.027 422.547 481.054H422.545C421.427 481.152 420.27 481.2 419.075 481.2C414.255 481.2 410.028 480.41 406.325 479.061C406.06 478.968 405.797 478.867 405.538 478.766C400.407 476.749 396.305 473.654 393.042 470.131C392.793 469.863 392.549 469.592 392.313 469.32C389.238 465.813 386.951 461.945 385.267 458.329C385.155 458.091 385.048 457.852 384.941 457.616C381.766 450.544 381.074 448.392 381.074 448.392L454.526 447.959Z" fill="#E69F3E"/>
<path d="M395.87 444.627C393.203 449.897 389.877 455.038 385.263 458.327C385.152 458.089 385.045 457.85 384.938 457.614C389.283 454.475 392.448 449.614 394.989 444.627H395.87Z" fill="#FFEEDA"/>
<path d="M406.773 444.628C402.313 448.127 398.705 452.662 396.288 457.807C394.786 461.003 392.981 465.849 393.046 470.129C392.796 469.861 392.552 469.59 392.316 469.318C392.449 465.662 393.729 461.787 394.935 458.905C397.254 453.361 400.907 448.451 405.514 444.627L406.773 444.628Z" fill="#FFEEDA"/>
<path d="M438.428 475.493C438.192 475.659 437.95 475.824 437.704 475.986C435.498 464.787 437.758 455.457 445.569 447.068C437.635 455.242 436.357 464.386 438.428 475.493Z" fill="#FFEEDA"/>
<path d="M428.094 474.797C426.674 476.898 425.186 478.949 423.633 480.952H423.631C423.274 480.992 422.915 481.029 422.552 481.056C424.756 478.243 426.833 475.335 428.773 472.332C429.888 470.605 431.871 468.086 431.14 465.865C430.217 463.066 426.364 464.242 424.397 464.927C417.01 467.49 411.379 473.22 406.329 479.063C406.065 478.969 405.802 478.869 405.543 478.768C407.822 476.132 410.181 473.56 412.782 471.233C415.708 468.61 418.953 466.303 422.587 464.773C425.023 463.75 429.474 461.985 431.451 464.754C433.657 467.843 429.721 472.394 428.094 474.797Z" fill="#FFEEDA"/>
<path d="M453.836 449.232C453.753 449.651 453.661 450.088 453.554 450.55C448.529 455.28 445.573 461.963 445.359 468.81C445.357 468.812 445.357 468.814 445.357 468.814C445.095 469.148 444.835 469.474 444.559 469.804C444.511 462.029 447.88 454.345 453.836 449.232Z" fill="#FFEEDA"/>
<path d="M438.576 444.628C437.067 446.04 435.522 447.413 433.942 448.747C430.116 451.973 426.096 454.968 421.911 457.711C419.883 459.038 417.807 460.499 415.575 461.467C413.842 462.217 411.771 462.572 410.154 461.363C406.733 458.812 408.575 453.655 410.096 450.564C411.177 448.364 412.609 446.365 414.31 444.627H415.442C413.253 446.712 411.486 449.229 410.294 452.036C409.454 454.013 408.601 456.414 409.213 458.564C410.088 461.639 413.099 461.756 415.585 460.592C419.372 458.824 422.929 456.162 426.301 453.719C430.178 450.91 433.884 447.869 437.402 444.627L438.576 444.628Z" fill="#FFEEDA"/>
<path d="M417.71 452.363C438.042 452.363 454.525 450.389 454.525 447.955C454.525 445.52 438.042 443.547 417.71 443.547C397.377 443.547 380.895 445.52 380.895 447.955C380.895 450.389 397.377 452.363 417.71 452.363Z" fill="#14130F"/>
<path d="M436.481 367.585C434.274 370.233 432.682 380.015 428.462 381.59C425.558 382.675 424.021 378.48 429.646 373.182C433.271 369.769 434.886 365.689 435.573 363.217C434.581 358.897 433.284 354.464 431.608 350.428C428.361 353.43 423.155 357.687 421.669 355.652C420.051 353.437 424.894 346.45 427.604 342.868C426.346 341.037 424.947 339.443 423.394 338.176C420.856 336.103 417.909 334.914 414.49 335.005C412.024 335.07 409.763 335.966 407.726 337.476C410.624 343.208 414.893 352.894 411.9 355.124C409.123 357.192 405.098 349.17 402.579 343.185C399.035 348.66 396.653 356.161 395.622 363.396C396.314 364.694 397.516 366.199 399.587 367.688C405.075 371.632 411.593 379.605 408.334 381.376C405.076 383.15 401.673 378.465 399.244 374.291C397.997 372.146 396.598 370.416 395.08 369.272C395.028 370.538 395.026 371.774 395.071 372.968C395.934 395.728 418.156 395.721 418.156 395.721C418.156 395.721 440.409 390.594 436.481 367.585ZM408.51 368.041C406.306 368.019 402.805 363.908 401.167 361.625C399.524 359.331 400.84 357.773 402.417 358.214C402.439 358.221 402.461 358.227 402.485 358.234C404.694 358.897 411.363 368.067 408.51 368.041ZM427.897 362.587C427.92 362.58 427.942 362.573 427.964 362.566C429.54 362.126 430.837 363.18 430.094 365.192C429.122 367.828 427.831 368.873 425.863 367.885C424.624 367.264 425.685 363.251 427.897 362.587Z" fill="#047C6D"/>
<path d="M415.735 361.895C417.683 371.85 417.055 382.124 416.313 392.173C415.516 402.976 414.438 413.798 414.867 424.644C415.107 430.707 415.84 436.745 417.294 442.642C417.426 443.177 418.253 442.951 418.12 442.414C412.837 421 417.73 399.211 417.865 377.571C417.898 372.241 417.586 366.904 416.56 361.667C416.454 361.125 415.629 361.354 415.735 361.895Z" fill="#14130F"/>
<path d="M405.769 395.821C405.548 399.261 410.03 408.1 407.55 411.86C405.845 414.448 402.128 411.967 403.548 404.372C404.463 399.477 403.36 395.231 402.457 392.828C399.109 389.925 395.448 387.109 391.713 384.839C390.861 389.179 389.167 395.686 386.766 394.92C384.153 394.085 383.944 385.587 384.021 381.095C381.925 380.359 379.857 379.894 377.854 379.788C374.582 379.61 371.502 380.388 368.793 382.478C366.84 383.984 365.542 386.041 364.787 388.462C370.508 391.383 379.67 396.689 378.568 400.253C377.545 403.562 369.564 399.458 364 396.109C364.365 402.619 366.866 410.083 370.3 416.535C371.624 417.174 373.483 417.681 376.033 417.662C382.792 417.61 392.757 420.205 391.168 423.557C389.583 426.911 384.073 425.136 379.649 423.196C377.378 422.2 375.229 421.627 373.328 421.599C374.032 422.654 374.76 423.653 375.5 424.59C389.618 442.462 407.562 429.351 407.562 429.351C407.562 429.351 422.509 412.087 405.769 395.821ZM383.447 412.685C381.656 413.966 376.402 412.71 373.735 411.833C371.054 410.951 371.198 408.916 372.732 408.342C372.753 408.334 372.774 408.326 372.798 408.318C374.974 407.55 385.768 411.023 383.447 412.685ZM395.889 396.847C395.902 396.829 395.917 396.811 395.931 396.792C396.944 395.508 398.612 395.592 399.199 397.657C399.97 400.358 399.542 401.964 397.37 402.326C396.003 402.555 394.494 398.688 395.889 396.847Z" fill="#047C6D"/>
<path d="M385.635 403.421C390.835 408.208 395.989 413.172 400.198 418.878C403.443 423.279 405.945 428.117 408.208 433.081C409.806 436.586 411.328 440.126 412.89 443.646C413.113 444.149 413.853 443.715 413.629 443.214C411.056 437.413 408.658 431.498 405.643 425.906C402.963 420.935 399.62 416.419 395.808 412.258C392.78 408.953 389.536 405.85 386.239 402.816C385.834 402.444 385.228 403.048 385.635 403.421Z" fill="#14130F"/>
<path d="M425.108 433.447C425.108 433.447 442.959 446.683 457.203 428.91C457.95 427.979 458.685 426.984 459.397 425.936C457.495 425.951 455.341 426.509 453.063 427.489C448.625 429.397 443.104 431.135 441.541 427.77C439.977 424.407 449.961 421.881 456.718 421.98C459.268 422.017 461.13 421.523 462.459 420.893C465.938 414.465 468.491 407.02 468.901 400.511C463.315 403.821 455.303 407.87 454.305 404.553C453.227 400.982 462.425 395.741 468.166 392.859C467.429 390.432 466.146 388.368 464.202 386.847C461.509 384.739 458.432 383.939 455.159 384.095C453.156 384.187 451.085 384.636 448.983 385.359C449.028 389.849 448.761 398.346 446.141 399.163C443.736 399.913 442.086 393.393 441.266 389.049C437.516 391.293 433.834 394.083 430.466 396.961C429.546 399.359 428.414 403.596 429.295 408.498C430.662 416.103 426.928 418.558 425.241 415.957C422.788 412.181 427.332 403.373 427.135 399.931C410.285 416.081 425.108 433.447 425.108 433.447ZM460.021 412.658C460.045 412.667 460.066 412.675 460.088 412.682C461.617 413.268 461.747 415.302 459.061 416.167C456.386 417.026 451.124 418.245 449.342 416.951C447.033 415.273 457.849 411.875 460.021 412.658ZM435.491 406.495C433.323 406.118 432.906 404.51 433.695 401.814C434.297 399.753 435.967 399.68 436.969 400.972C436.983 400.991 436.998 401.009 437.012 401.027C438.393 402.877 436.857 406.733 435.491 406.495Z" fill="#047C6D"/>
<path d="M446.626 407.062C441.51 411.7 436.312 416.367 431.893 421.694C428.641 425.615 426.05 429.952 423.797 434.51C422.106 437.935 420.545 441.421 418.972 444.9C418.746 445.399 419.484 445.834 419.712 445.333C422.187 439.861 424.579 434.293 427.666 429.13C430.438 424.5 433.93 420.428 437.729 416.614C440.799 413.532 444.009 410.59 447.231 407.669C447.641 407.297 447.034 406.693 446.626 407.062Z" fill="#14130F"/>
<path d="M385.987 82.2162H274.881C267.767 82.2162 262 76.4486 262 69.3344V5.49023H398.866V69.3344C398.867 76.4486 393.1 82.2162 385.987 82.2162Z" fill="white"/>
<path d="M319.736 45.4618C319.736 51.6639 317.391 57.3135 313.54 61.5778C309.136 66.4554 302.765 69.5185 295.677 69.5185C282.388 69.5185 271.617 58.7508 271.617 45.4618C271.617 42.1669 272.282 39.0253 273.481 36.1631L295.677 45.4618L294.539 21.4334C294.912 21.4113 295.295 21.4043 295.677 21.4043C308.964 21.4043 319.736 32.1747 319.736 45.4618Z" fill="#5D679D"/>
<path d="M292.149 17.4648C284.959 17.7971 278.6 21.285 274.414 26.575C273.067 28.2767 271.946 30.1642 271.094 32.1955L293.289 41.4933L292.149 17.4648Z" fill="#517ABD"/>
<path d="M377.651 28.8867H374.348V32.1913H377.651V28.8867Z" fill="#1E51A4"/>
<path d="M391.697 30.9564H379.859C379.839 30.9564 379.824 30.9396 379.824 30.9203V30.1659C379.824 30.1456 379.839 30.1289 379.859 30.1289H391.697C391.716 30.1289 391.733 30.1448 391.733 30.1659V30.9203C391.733 30.9405 391.716 30.9564 391.697 30.9564Z" fill="#CEBCAF"/>
<path d="M377.636 23.0059H374.332V26.3105H377.636V23.0059Z" fill="#517ABD"/>
<path d="M391.709 25.0747H379.871C379.851 25.0747 379.836 25.0588 379.836 25.0385V24.2842C379.836 24.2648 379.851 24.248 379.871 24.248H391.709C391.727 24.248 391.745 24.2648 391.745 24.2842V25.0385C391.745 25.0588 391.728 25.0747 391.709 25.0747Z" fill="#CEBCAF"/>
<path d="M377.651 34.7852H374.348V38.0889H377.651V34.7852Z" fill="#273372"/>
<path d="M391.689 36.8557H379.852C379.831 36.8557 379.816 36.8398 379.816 36.8187V36.0643C379.816 36.0441 379.831 36.0273 379.852 36.0273H391.689C391.708 36.0273 391.725 36.0441 391.725 36.0643V36.8187C391.725 36.8398 391.709 36.8557 391.689 36.8557Z" fill="#CEBCAF"/>
<path d="M391.34 48.4125H374.762C374.533 48.4125 374.348 48.2284 374.348 47.9993C374.348 47.771 374.533 47.5859 374.762 47.5859H391.34C391.569 47.5859 391.755 47.771 391.755 47.9993C391.754 48.2284 391.568 48.4125 391.34 48.4125Z" fill="#CEBCAF"/>
<path d="M391.34 51.8303H374.762C374.533 51.8303 374.348 51.6461 374.348 51.4161C374.348 51.1888 374.533 51.002 374.762 51.002H391.34C391.569 51.002 391.755 51.1888 391.755 51.4161C391.754 51.6461 391.568 51.8303 391.34 51.8303Z" fill="#CEBCAF"/>
<path d="M391.34 55.2248H374.762C374.533 55.2248 374.348 55.0389 374.348 54.8107C374.348 54.5815 374.533 54.3965 374.762 54.3965H391.34C391.569 54.3965 391.755 54.5815 391.755 54.8107C391.754 55.0389 391.568 55.2248 391.34 55.2248Z" fill="#CEBCAF"/>
<path d="M391.34 58.6185H374.762C374.533 58.6185 374.348 58.4334 374.348 58.2043C374.348 57.9761 374.533 57.791 374.762 57.791H391.34C391.569 57.791 391.755 57.9761 391.755 58.2043C391.754 58.4334 391.568 58.6185 391.34 58.6185Z" fill="#CEBCAF"/>
<path d="M391.34 62.0139H374.762C374.533 62.0139 374.348 61.8297 374.348 61.5997C374.348 61.3724 374.533 61.1855 374.762 61.1855H391.34C391.569 61.1855 391.755 61.3724 391.755 61.5997C391.754 61.8297 391.568 62.0139 391.34 62.0139Z" fill="#CEBCAF"/>
<path d="M391.34 65.4143H374.762C374.533 65.4143 374.348 65.2275 374.348 65.0001C374.348 64.771 374.533 64.5859 374.762 64.5859H391.34C391.569 64.5859 391.755 64.771 391.755 65.0001C391.754 65.2275 391.568 65.4143 391.34 65.4143Z" fill="#CEBCAF"/>
<path d="M391.34 68.8149H374.762C374.533 68.8149 374.348 68.6307 374.348 68.4016C374.348 68.1733 374.533 67.9883 374.762 67.9883H391.34C391.569 67.9883 391.755 68.1733 391.755 68.4016C391.754 68.6316 391.568 68.8149 391.34 68.8149Z" fill="#CEBCAF"/>
<path d="M350.788 39.3984H343.129V72.2181H350.788V39.3984Z" fill="#517ABD"/>
<path d="M343.129 63.5474C345.842 62.7085 348.386 61.2051 350.788 59.5898V72.2029H343.129V63.5474Z" fill="#1E51A4"/>
<path d="M338.278 48.5059H330.617V72.2065H338.278V48.5059Z" fill="#517ABD"/>
<path d="M336.86 64.1029C337.337 64.1725 337.809 64.2157 338.278 64.2324V72.2032H330.617V64.3074C331.973 63.8615 333.957 63.679 336.86 64.1029Z" fill="#1E51A4"/>
<path d="M363.347 29.5723H355.688V72.1982H363.347V29.5723Z" fill="#517ABD"/>
<path d="M363.324 52.9376V72.2012H355.664V56.2087C358.387 54.359 360.924 52.9261 363.324 52.9376Z" fill="#1E51A4"/>
<path d="M363.011 17.1484L356.099 18.6307L357.955 20.4513L347.371 31.2411L343.657 27.5981L330.523 40.9866C330.022 41.4977 330.029 42.319 330.541 42.8195C331.052 43.3201 331.872 43.313 332.373 42.801L343.692 31.2622L347.406 34.9052L359.803 22.2657L361.659 24.0864L363.011 17.1484Z" fill="#517ABD"/>
<path d="M398.867 8.66281H262V1.43351C262 0.816505 262.746 0.316406 263.666 0.316406H397.2C398.121 0.316406 398.867 0.816505 398.867 1.43351V8.66281Z" fill="#014698"/>
<path d="M377.949 6.11396C379.064 6.11396 379.967 5.21009 379.967 4.09508C379.967 2.98008 379.064 2.07617 377.949 2.07617C376.834 2.07617 375.93 2.98008 375.93 4.09508C375.93 5.21009 376.834 6.11396 377.949 6.11396Z" fill="#CEBCAF"/>
<path d="M391.362 6.11219C392.476 6.11219 393.38 5.20871 393.38 4.09419C393.38 2.97968 392.476 2.07617 391.362 2.07617C390.247 2.07617 389.344 2.97968 389.344 4.09419C389.344 5.20871 390.247 6.11219 391.362 6.11219Z" fill="#CEBCAF"/>
<path d="M384.854 6.11219C385.968 6.11219 386.872 5.20871 386.872 4.09419C386.872 2.97968 385.968 2.07617 384.854 2.07617C383.739 2.07617 382.836 2.97968 382.836 4.09419C382.836 5.20871 383.739 6.11219 384.854 6.11219Z" fill="#CEBCAF"/>
<path d="M94.8735 85.0057C101.418 84.7156 106.535 95.4888 106.303 109.068C106.07 122.645 100.576 133.886 94.0309 134.176C87.4869 134.466 82.3695 123.693 82.6013 110.114C82.8342 96.5365 88.3285 85.2949 94.8735 85.0057Z" fill="#CC7829"/>
<path d="M95.2887 133.886L90.4375 134.335L90.4404 85.2025L94.8698 85.0078L104.437 113.071L95.2887 133.886Z" fill="#CC7829"/>
<path d="M91.2789 85.1659C97.8238 84.8749 102.942 95.648 102.709 109.227C102.477 122.805 96.9832 134.047 90.4382 134.335C83.8932 134.625 78.7748 123.852 79.0076 110.273C79.2405 96.6957 84.7339 85.4541 91.2789 85.1659Z" fill="#FFC538"/>
<path d="M90.997 87.5178C96.2204 87.2859 100.286 96.9397 100.078 109.08C99.8703 121.218 95.4675 131.247 90.2451 131.478C85.0227 131.709 80.9568 122.054 81.1638 109.914C81.3718 97.7756 85.7736 87.7477 90.997 87.5178Z" fill="#F19720"/>
<mask id="mask0_2902_1433" style="mask-type:luminance" maskUnits="userSpaceOnUse" x="81" y="87" width="20" height="45">
<path d="M91.0009 87.5178C96.2243 87.2859 100.29 96.9397 100.082 109.08C99.8742 121.218 95.4714 131.247 90.249 131.478C85.0266 131.709 80.9607 122.054 81.1677 109.914C81.3757 97.7756 85.7775 87.7477 91.0009 87.5178Z" fill="white"/>
</mask>
<g mask="url(#mask0_2902_1433)">
<path d="M92.7383 87.2052C97.9617 86.9752 102.028 96.629 101.82 108.768C101.612 120.907 97.2088 130.934 91.9864 131.167C86.764 131.397 82.6981 121.743 82.9061 109.604C83.1131 97.464 87.5159 87.438 92.7383 87.2052Z" fill="#F5B11A"/>
</g>
<path d="M86.7662 116.627C87.1136 119.23 87.8598 121.621 90.0955 121.627C92.044 121.637 93.087 119.3 93.1881 117.145C93.2959 114.822 92.5507 113.509 90.6623 112.215C87.8092 110.397 85.8492 108.397 86.0677 104.253C86.2796 99.6919 88.8073 96.7529 91.5631 96.7071C93.3589 96.6375 94.8799 97.4829 95.8427 98.0049C95.9286 98.9562 96.1395 101.687 96.254 103.715L95.4324 104.059C94.982 100.876 93.8656 98.0364 91.4219 98.0755C89.6518 98.1451 88.3006 99.8236 88.1642 102.767C88.0544 105.13 88.7739 106.982 90.8398 108.399C93.837 110.463 95.2549 112.387 95.0794 116.16C94.9095 119.807 92.9992 122.904 89.7491 122.956C88.0325 122.984 87.1718 122.5 86.2462 122.266C86.1622 120.735 86.1078 119.08 86 116.927L86.7662 116.627ZM89.7644 125.94L88.8808 125.953L91.9152 93.0153L92.8513 93L89.7644 125.94Z" fill="#CC7829"/>
<path d="M362.038 486.674C362.36 486.674 362.686 486.616 363.001 486.491C364.352 485.959 365.017 484.431 364.484 483.081L311.886 349.443C311.356 348.093 309.828 347.426 308.477 347.959C307.126 348.492 306.46 350.019 306.992 351.369L359.591 485.007C359.999 486.044 360.99 486.674 362.038 486.674Z" fill="#5C554C"/>
<path d="M222.68 486.678C223.729 486.678 224.721 486.047 225.129 485.011L277.727 351.373C278.258 350.023 277.594 348.495 276.243 347.963C274.892 347.434 273.364 348.097 272.832 349.447L220.234 483.085C219.702 484.435 220.367 485.963 221.718 486.495C222.033 486.62 222.36 486.678 222.68 486.678Z" fill="#5C554C"/>
<path d="M247.009 424.847C247.298 424.847 247.591 424.801 247.879 424.698L327.576 396.766C328.948 396.286 329.669 394.785 329.189 393.414C328.708 392.044 327.208 391.323 325.836 391.803L246.139 419.735C244.769 420.215 244.048 421.716 244.527 423.086C244.907 424.169 245.923 424.847 247.009 424.847Z" fill="#5C554C"/>
<path d="M337.702 424.847C338.788 424.847 339.806 424.169 340.185 423.086C340.665 421.716 339.944 420.215 338.572 419.735L258.875 391.803C257.503 391.323 256.003 392.044 255.523 393.414C255.044 394.785 255.765 396.286 257.135 396.766L336.832 424.698C337.12 424.799 337.413 424.847 337.702 424.847Z" fill="#5C554C"/>
<path d="M263.746 486.674C264.068 486.674 264.392 486.616 264.708 486.491C266.059 485.959 266.725 484.431 266.192 483.081L213.594 349.443C213.062 348.093 211.536 347.426 210.183 347.959C208.833 348.491 208.166 350.019 208.699 351.369L261.297 485.007C261.707 486.044 262.697 486.674 263.746 486.674Z" fill="#5C554C"/>
<path d="M124.386 486.678C125.435 486.678 126.427 486.047 126.835 485.011L179.433 351.373C179.965 350.023 179.299 348.495 177.949 347.963C176.597 347.434 175.07 348.097 174.538 349.447L121.941 483.085C121.41 484.435 122.073 485.963 123.424 486.495C123.738 486.62 124.065 486.678 124.386 486.678Z" fill="#5C554C"/>
<path d="M148.717 424.847C149.006 424.847 149.299 424.801 149.586 424.698L229.284 396.766C230.656 396.286 231.377 394.785 230.895 393.414C230.416 392.044 228.916 391.323 227.544 391.803L147.847 419.735C146.476 420.215 145.754 421.716 146.235 423.086C146.615 424.169 147.629 424.847 148.717 424.847Z" fill="#5C554C"/>
<path d="M239.402 424.847C240.487 424.847 241.503 424.169 241.883 423.086C242.364 421.716 241.642 420.215 240.271 419.735L160.574 391.803C159.202 391.323 157.702 392.044 157.223 393.414C156.743 394.785 157.464 396.286 158.834 396.766L238.532 424.698C238.821 424.799 239.114 424.847 239.402 424.847Z" fill="#5C554C"/>
<path d="M145.6 334.138C137.992 344.35 141.874 359.007 153.551 364.087C189.254 379.62 262.116 403.222 313.435 365.794C316.237 363.752 318.975 361.529 321.638 359.106C322.555 358.279 323.463 357.424 324.36 356.545C375.939 306.134 326.643 229.553 311.787 209.046C309.548 205.957 305.453 204.834 301.966 206.384C301.947 206.393 301.927 206.402 301.908 206.411C301.211 206.716 300.514 207.025 299.821 207.336C220.84 242.951 168.609 303.244 145.6 334.138Z" fill="#14130F"/>
<path d="M321.173 241.632C330.326 259.97 340.375 287.405 336.279 313.961C332.711 337.095 324.365 353.814 313.435 365.794C316.237 363.752 318.975 361.53 321.638 359.106C330.169 346.945 335.832 331.975 338.553 314.311C340.408 302.296 339.618 289.134 336.216 275.183C333.502 264.055 329.126 252.409 323.209 240.563C313.608 221.335 302.962 207.74 301.907 206.41C301.21 206.716 300.513 207.024 299.82 207.335C299.859 207.481 299.932 207.623 300.035 207.748C300.141 207.883 311.218 221.692 321.173 241.632Z" fill="#5C554C"/>
<path d="M284.331 245.455C284.331 245.455 307.894 318.734 287.52 345.034C269.047 368.881 233.083 370.505 174.826 342.939C166.424 338.962 162.549 336.002 167.334 328.561C205.638 283.692 244.369 247.046 284.331 245.455Z" fill="#14130F"/>
<path d="M164.023 326.363C164.023 326.363 142.695 353.814 115.032 359.367L58.9292 392.86L57.3086 376.523C57.3086 376.523 131.372 299.782 145.128 298.093C158.883 296.398 180.954 306.798 180.954 306.798L164.023 326.363Z" fill="#F9AE90"/>
<path d="M19.7399 390.435C24.8461 389.759 58.3224 393.772 58.3224 393.772C58.3224 393.772 58.461 400.092 54.9888 402.629C51.6835 405.042 35.1524 418.819 33.3604 420.215L31.4881 417.928L38.0257 410.416C38.0257 410.416 25.4375 412.04 19.3869 410.471C13.3333 408.901 3.02408 395.287 0.850812 391.773C-1.32394 388.259 14.6337 391.11 19.7399 390.435Z" fill="#14130F"/>
<path d="M67.3249 386.489L58.9343 392.862C58.9343 392.862 57.3732 395.911 52.9179 397.796C48.4627 399.687 39.4925 400.36 32.1401 400.01C25.7946 399.706 16.3761 395.638 15.5941 392.747C14.8135 389.857 27.1143 390.007 32.3844 388.685C37.6559 387.362 42.4225 385.527 46.2671 383.802C50.7015 381.815 59.3364 374.957 59.3364 374.957L67.3249 386.489Z" fill="#F9AE90"/>
<path d="M168.054 340.753C168.054 340.753 164.902 375.372 144.604 394.969L117.981 455.596L106.566 451.038C118.809 420.263 125.056 327.635 133.675 323.219C146.011 316.908 171.754 315.145 171.754 315.145L168.054 340.753Z" fill="#F9AE90"/>
<path d="M165.437 316.142C159.976 316.867 154.462 317.434 149.038 318.412C143.969 319.325 138.79 320.95 134.955 324.55C130.963 328.304 129.799 333.668 128.673 338.813C127.398 344.634 126.126 350.452 124.851 356.269C124.709 356.92 123.683 356.781 123.826 356.127C125.189 349.892 126.539 343.655 127.921 337.42C128.993 332.583 130.31 327.683 133.945 324.096C137.57 320.522 142.469 318.702 147.369 317.68C153.264 316.448 159.337 315.905 165.304 315.112C165.967 315.029 166.098 316.055 165.437 316.142Z" fill="#DF6A5D"/>
<path d="M91.5103 479.437C94.4075 475.178 119.712 452.895 119.712 452.895C119.712 452.895 124.514 457.004 124.091 461.285C123.689 465.358 122.944 486.867 122.787 489.124L119.837 489.003L118.596 479.118C118.596 479.118 111.415 489.584 106.214 493.052C101.011 496.518 83.9895 495.132 79.923 494.409C75.8521 493.692 88.6131 483.696 91.5103 479.437Z" fill="#14130F"/>
<path d="M124.664 440.385L119.443 451.827C119.443 451.827 120.674 455.021 119.11 459.6C117.55 464.179 112.074 471.317 106.913 476.567C102.462 481.1 93.1481 485.409 90.4729 484.066C87.7991 482.719 96.1079 473.649 98.6357 468.837C101.162 464.027 102.97 459.251 104.247 455.231C105.717 450.604 111.038 436.311 111.038 436.311L124.664 440.385Z" fill="#F9AE90"/>
<path d="M151.504 298.046C161.241 302.153 165.463 311.872 166.989 322.214C167.097 322.93 167.187 323.648 167.269 324.372C169.021 339.959 165.157 356.154 165.157 356.154C167.907 357.421 170.871 358.662 174.007 359.848C174.336 359.968 174.662 360.098 174.993 360.22C179.418 361.868 184.164 363.427 189.1 364.853C189.452 364.954 189.805 365.058 190.159 365.152C199.161 367.707 208.761 369.814 218.171 371.22C218.667 371.301 219.163 371.372 219.654 371.438L219.657 371.441C230.842 373.03 241.697 373.608 250.901 372.752C251.246 372.722 251.596 372.688 251.942 372.649C255.852 372.235 259.452 371.547 262.634 370.556C262.985 370.447 263.335 370.331 263.691 370.214C268.938 368.408 272.927 365.711 275.133 361.941C278.623 355.964 280.884 349.719 282.289 343.606C282.382 343.209 282.472 342.815 282.551 342.424C283.378 338.559 283.859 334.752 284.104 331.117C284.128 330.77 284.148 330.421 284.165 330.076C284.447 325.043 284.271 320.357 283.894 316.289C283.863 315.921 283.829 315.565 283.795 315.209C282.951 306.922 281.343 301.488 281.343 301.488C268.924 302.783 256.096 302.148 242.498 297.779C242.152 297.671 241.81 297.557 241.461 297.441C236.507 295.786 231.441 293.632 226.269 290.895C226.269 290.895 225.167 292.411 222.352 294.231C222.064 294.417 221.757 294.608 221.433 294.799C220.21 295.514 218.723 296.261 216.939 296.963C216.618 297.09 216.292 297.213 215.951 297.334C211.447 298.962 205.214 300.262 196.778 300.312C194.166 300.326 191.412 300.294 188.603 300.227H188.598C188.163 300.215 187.73 300.203 187.297 300.189C184.247 300.104 181.155 299.982 178.125 299.844H178.121C177.491 299.813 176.867 299.78 176.244 299.748C176.244 299.748 176.244 299.748 176.241 299.748C163 299.078 151.504 298.046 151.504 298.046Z" fill="#DD4D36"/>
<path d="M262.633 370.554C262.984 370.445 263.334 370.329 263.69 370.212C264.045 363.821 265.996 357.583 269.979 352.459C273.11 348.436 277.469 345.297 282.288 343.605C282.381 343.209 282.471 342.814 282.55 342.424C274.987 344.879 268.807 350.607 265.561 357.878C263.765 361.894 262.834 366.2 262.633 370.554Z" fill="#93211E"/>
<path d="M176.238 299.748C181.123 303.426 184.879 308.459 187.401 314.338C190.963 322.644 192.583 331.765 197.354 339.546C201.549 346.374 208.121 351.273 216.334 351.379C221.184 351.442 226.061 350.378 230.886 351.299C235.05 352.091 238.849 354.26 241.944 357.117C246.517 361.331 249.268 366.865 250.898 372.75C251.243 372.72 251.594 372.686 251.939 372.647C250.198 366.316 247.199 360.385 242.185 355.939C239.296 353.378 235.841 351.427 232.083 350.503C227.457 349.367 222.742 350.182 218.056 350.33C213.088 350.497 208.547 349.356 204.588 346.26C200.764 343.273 198.033 339.178 196.005 334.812C192.102 326.42 190.562 317.073 185.916 309.003C183.883 305.475 181.23 302.376 178.121 299.845H178.117C177.485 299.812 176.861 299.781 176.238 299.748Z" fill="#93211E"/>
<path d="M166.988 322.209C167.096 322.925 167.186 323.643 167.268 324.367C170.343 328.808 172.625 333.793 173.922 339.069C175.607 345.908 175.58 353.043 174.007 359.843C174.336 359.963 174.663 360.093 174.993 360.215C176.66 353.082 176.66 345.564 174.822 338.418C173.307 332.541 170.614 327.028 166.988 322.209Z" fill="#93211E"/>
<path d="M189.098 364.853C189.449 364.955 189.802 365.059 190.157 365.153C190.148 362.95 190.645 360.687 192.303 359.259C194.357 357.483 197.418 357.632 199.91 358.142C207.716 359.726 213.473 365.044 218.166 371.221C218.662 371.302 219.158 371.373 219.65 371.439C218.217 369.482 216.68 367.603 214.97 365.856C211.535 362.338 207.392 359.357 202.682 357.815C199.145 356.658 194.277 355.845 191.322 358.758C189.722 360.336 189.136 362.567 189.098 364.853Z" fill="#93211E"/>
<path d="M187.293 300.191C189.445 303.188 191.644 306.149 193.922 309.05C198.354 314.701 203.032 320.552 208.595 325.149C212.136 328.068 219.794 332.975 224.048 328.666C225.75 326.938 225.974 324.31 225.82 322.007C225.609 318.842 224.855 315.645 223.993 312.598C222.421 307.063 220.029 301.804 216.935 296.965C216.615 297.091 216.289 297.215 215.948 297.336C219.26 302.475 221.767 308.107 223.313 314.034C224.46 318.404 227.399 329.367 219.698 329.193C213.319 329.051 207.873 323.44 203.832 319.107C198.304 313.183 193.336 306.791 188.598 300.228H188.593C188.16 300.218 187.726 300.206 187.293 300.191Z" fill="#93211E"/>
<path d="M221.426 294.8C226.325 299.29 229.618 305.288 231.599 311.652C233.658 318.258 233.433 325.777 236.901 331.895C240.011 337.387 246.205 340.575 252.474 340.032C259.307 339.441 265.076 335.176 271.322 332.783C275.443 331.195 279.816 330.656 284.097 331.119C284.121 330.772 284.141 330.423 284.159 330.078C279.98 329.629 275.707 330.101 271.679 331.543C265.217 333.857 259.347 338.401 252.342 339.005C244.361 339.696 238.091 334.232 235.949 326.842C234.924 323.296 234.577 319.6 233.801 316C233.104 312.761 232.13 309.578 230.813 306.538C228.811 301.915 226.009 297.651 222.345 294.234C222.057 294.419 221.751 294.61 221.426 294.8Z" fill="#93211E"/>
<path d="M241.455 297.443C241.407 300.635 242.349 303.853 244.059 306.607C249.215 314.895 259.848 318.768 269.225 318.939C274.246 319.033 279.255 318.123 283.889 316.289C283.858 315.921 283.824 315.565 283.79 315.209C277.279 317.853 270.014 318.611 263.062 317.255C257.199 316.109 251.308 313.42 247.2 308.999C244.337 305.92 242.541 301.869 242.495 297.78C242.146 297.673 241.805 297.56 241.455 297.443Z" fill="#93211E"/>
<path d="M235.777 167.727C243.2 170.203 271.293 176.188 292.607 167.727C293.641 162.761 294.584 158.505 295.075 156.789C298.386 145.239 303.671 112.168 279.786 105.703C255.901 99.2385 235.339 113.08 238.073 135.643C238.81 141.718 237.593 155.726 235.777 167.727Z" fill="#623713"/>
<path d="M306.744 207.889C306.391 209.678 303.823 213.207 300.847 218.035C300.436 218.702 300.008 219.393 299.572 220.104C299.374 220.421 299.176 220.741 298.975 221.066C291.172 233.701 279.834 252.287 275.252 266.157C274.345 268.908 273.701 271.476 273.405 273.774C271.202 290.849 271.778 312.273 271.778 312.273C216.111 313.154 202.559 298 202.559 298C202.559 298 210.857 287.034 211.931 280.324C212.773 275.066 213.318 275.952 214.91 269.79V269.787C215.032 269.31 215.153 268.838 215.268 268.366C215.805 266.204 216.285 264.065 216.68 262.016C217.57 257.413 218.034 253.236 217.782 250.181C217.713 249.33 217.588 248.476 217.42 247.616C217.348 247.25 217.272 246.885 217.186 246.517C216.309 242.768 214.719 238.963 213.349 235.131C213.194 234.697 213.042 234.259 212.895 233.826C212.504 232.682 212.145 231.541 211.837 230.394C211.743 230.029 211.648 229.671 211.569 229.308C211.131 227.467 210.855 225.624 210.844 223.78C210.835 223.102 210.872 222.445 210.939 221.811C210.973 221.45 211.025 221.096 211.082 220.755C211.505 218.302 212.428 216.197 213.577 214.36C213.636 214.266 213.696 214.174 213.756 214.083C213.902 213.854 214.051 213.627 214.208 213.407C214.301 213.273 214.393 213.142 214.488 213.015C216.784 209.868 219.589 207.574 221.141 205.664C222.449 204.055 222.59 201.562 222.522 198.706C222.453 195.942 222.188 192.833 222.601 189.861C222.653 189.48 222.718 189.103 222.796 188.725C222.888 188.271 222.998 187.821 223.134 187.374C223.618 185.765 224.258 184.567 225.036 183.672C225.306 183.358 225.595 183.082 225.894 182.84C228.297 180.908 231.693 181.015 235.68 180.909C236.933 180.875 238.263 180.651 239.583 180.321C240.046 180.208 240.504 180.079 240.961 179.941C245.364 178.596 249.288 176.336 249.288 176.336L276.698 174.172C276.698 174.172 277.68 177.105 283.185 180.881C283.489 181.094 283.81 181.307 284.145 181.52C286.549 183.062 289.704 184.724 293.845 186.364C294.965 186.808 295.997 187.267 296.949 187.737C297.369 187.947 297.771 188.156 298.158 188.367C302.696 190.849 305.146 193.64 306.366 196.512C306.53 196.895 306.673 197.276 306.792 197.664C307.032 198.425 307.196 199.189 307.295 199.953C307.348 200.336 307.383 200.713 307.401 201.094C307.532 203.424 307.167 205.727 306.744 207.889Z" fill="white"/>
<path d="M234.761 206.003C233.869 210.875 229.661 214.074 225.045 215.164C221.175 216.072 217.318 215.495 213.59 214.351C213.649 214.257 213.709 214.164 213.769 214.074C213.915 213.844 214.064 213.618 214.221 213.397C217.327 214.328 220.528 214.824 223.752 214.285C228.649 213.461 233.273 210.204 233.788 204.948C234.296 199.802 230.985 194.891 226.868 192.123C225.521 191.218 224.093 190.479 222.611 189.853C222.663 189.472 222.728 189.095 222.806 188.717C225.125 189.664 227.31 190.874 229.241 192.512C233.024 195.73 235.69 200.961 234.761 206.003Z" fill="#E2CEC3"/>
<path d="M306.798 197.66C304.582 197.476 302.358 197.397 300.122 197.433C289.923 197.606 280.525 200.883 271.837 206.098C263.124 211.326 255.428 218.011 247.293 224.055C240.094 229.399 232.051 235.182 222.879 236.215C219.693 236.573 216.37 236.218 213.357 235.124C213.202 234.69 213.05 234.252 212.902 233.819C218.639 236.105 225.859 235.109 231.492 232.608C240.477 228.617 248.194 222.008 255.898 216.03C263.162 210.391 270.62 204.821 279.049 201.035C287.601 197.193 296.742 195.825 306.073 196.486C306.173 196.495 306.271 196.502 306.371 196.51C306.536 196.891 306.678 197.271 306.798 197.66Z" fill="#E2CEC3"/>
<path d="M237.487 254.203C231.013 260.621 223.2 265.838 214.914 269.772C215.036 269.295 215.157 268.823 215.272 268.351C218.507 266.758 221.65 264.968 224.671 262.981C227.465 261.146 230.149 259.141 232.713 256.99C235.011 255.058 238.708 252.576 239.118 249.408C239.998 242.541 224.802 245.729 221.255 246.549C219.964 246.849 218.684 247.2 217.425 247.603C217.354 247.236 217.278 246.871 217.192 246.503C218.347 246.141 219.515 245.819 220.695 245.539C223.407 244.891 226.172 244.47 228.953 244.267C231.47 244.086 234.272 243.843 236.735 244.541C238.589 245.066 240.071 246.365 240.277 248.358C240.511 250.689 239.052 252.652 237.487 254.203Z" fill="#E2CEC3"/>
<path d="M271.259 266.83C266.792 264.444 261.794 266.453 257.868 269.014C253.659 271.762 249.891 275.194 246.678 279.055C240.305 286.716 236.188 296.063 234.877 305.942C234.783 306.655 235.899 306.691 235.991 305.983C237.194 296.928 240.854 288.323 246.449 281.108C249.235 277.515 252.513 274.289 256.158 271.569C260.104 268.624 265.719 265.135 270.659 267.773C271.292 268.11 271.894 267.169 271.259 266.83Z" fill="#E2CEC3"/>
<path d="M224.608 287.141C226.975 280.119 229.768 273.081 234.445 267.243C236.721 264.401 239.439 261.866 242.547 259.955C245.622 258.065 248.972 257.076 252.464 256.277C258.065 254.998 264.914 253.227 266.953 247.078C268.061 243.734 267.383 240.166 267.625 236.727C267.851 233.491 269.028 230.264 271.137 227.777C273.403 225.105 276.678 223.538 280.206 224.028C283.55 224.494 286.623 226.642 287.494 230C287.674 230.694 288.763 230.442 288.58 229.744C287.285 224.754 281.795 222.095 276.912 222.99C271.016 224.07 267.337 230.062 266.613 235.624C266.061 239.868 267.421 244.614 265.092 248.49C263.077 251.841 259.157 253.446 255.549 254.397C251.765 255.397 247.894 255.985 244.34 257.703C241.2 259.221 238.377 261.371 235.949 263.863C229.768 270.21 226.331 278.539 223.544 286.804C223.313 287.488 224.378 287.822 224.608 287.141Z" fill="#E2CEC3"/>
<path d="M294.072 212.897C294.544 216.212 296.72 218.695 299.58 220.092C299.382 220.409 299.184 220.729 298.983 221.054C295.372 219.299 293.041 215.914 292.856 211.87C292.493 203.82 300.087 198.508 307.302 199.946C307.354 200.328 307.39 200.705 307.408 201.087C300.376 199.412 292.958 205.128 294.072 212.897Z" fill="#E2CEC3"/>
<path d="M298.157 188.363C295.373 189.843 292.463 191.074 289.391 191.947C286.369 192.804 281.114 193.893 280.741 189.306C280.512 186.479 281.602 183.488 283.186 180.877C283.49 181.09 283.81 181.303 284.145 181.516C283.799 182.125 283.485 182.754 283.208 183.403C282.432 185.225 281.091 188.445 282.125 190.364C283.265 192.476 286.43 191.563 288.231 191.101C290.288 190.578 292.296 189.871 294.237 189.023C295.157 188.621 296.06 188.189 296.948 187.735C297.368 187.943 297.77 188.152 298.157 188.363Z" fill="#E2CEC3"/>
<path d="M240.964 179.936C239.36 183.297 237.492 186.365 233.659 187.2C230.214 187.951 227.33 186.254 225.039 183.665C225.309 183.351 225.598 183.076 225.897 182.833C228.54 185.87 231.9 187.644 235.604 185.154C237.432 183.925 238.613 182.204 239.588 180.314C240.049 180.204 240.508 180.076 240.964 179.936Z" fill="#E2CEC3"/>
<path d="M242.294 190.25C241.581 192.312 242.55 194.478 244.351 195.647C246.898 197.299 250.466 197.054 253.359 196.962C260.255 196.743 267.019 195.215 273.381 192.566C274.041 192.292 273.514 191.314 272.856 191.586C267.889 193.654 262.657 195.02 257.306 195.586C254.69 195.863 252.021 195.976 249.393 195.83C246.635 195.677 242.059 194.324 243.353 190.585C243.59 189.908 242.528 189.575 242.294 190.25Z" fill="#E2CEC3"/>
<path d="M291.595 223.968C278.373 243.958 268.892 266.289 263.699 289.689C263.544 290.383 264.603 290.721 264.76 290.024C269.931 266.712 279.36 244.482 292.534 224.565C292.93 223.966 291.99 223.372 291.595 223.968Z" fill="#E2CEC3"/>
<path d="M244.774 136.002C244.774 136.002 241.899 135.807 240.788 139.339C239.677 142.872 240.551 149.195 244.329 149.027C248.106 148.858 244.774 136.002 244.774 136.002Z" fill="#DF6A5D"/>
<path d="M242.27 155.006C239.503 154.705 237.495 152.207 237.795 149.438C238.096 146.669 240.594 144.661 243.362 144.964C246.131 145.265 248.139 147.763 247.838 150.532C247.537 153.301 245.039 155.309 242.27 155.006ZM243.203 146.432C241.244 146.219 239.476 147.64 239.263 149.599C239.048 151.558 240.471 153.326 242.429 153.539C244.388 153.752 246.156 152.331 246.371 150.372C246.582 148.412 245.163 146.645 243.203 146.432Z" fill="white"/>
<path d="M278.784 180.393C278.784 180.393 272.386 188.944 261.554 188.828C247.792 188.679 247.156 182.64 247.156 182.64C248.008 180.902 248.632 179.146 249.094 177.23C249.268 176.505 249.422 175.754 249.553 174.974C249.915 172.847 250.132 170.495 250.271 167.76C250.305 167.119 250.335 166.453 250.36 165.767L250.363 165.685C260.029 164.924 268.299 161.971 274.586 155.904L276.115 155.288L277.144 154.869L277.233 155.44L276.787 157.145C274.658 165.155 275.449 172.187 278.784 180.393Z" fill="#F9AE90"/>
<path d="M267.038 162.068C264.377 166.212 258.588 173.373 249.574 174.975C249.936 172.848 250.154 170.496 250.292 167.761C250.326 167.121 250.356 166.455 250.382 165.768C250.562 165.818 250.748 165.862 250.934 165.904C255.961 167.027 261.885 165.265 267.038 162.068Z" fill="#14130F"/>
<path d="M290.537 143.185C290.071 148.287 285.184 154.141 278.494 153.716L278.46 153.715C278.457 153.715 278.457 153.715 278.457 153.715L278.314 153.707C278.18 153.99 278.03 154.267 277.872 154.549C277.805 154.671 277.735 154.794 277.663 154.915C277.657 154.927 277.651 154.939 277.641 154.949C272.695 163.237 259.881 167.21 253.185 166.782C250.796 166.628 249.239 165.944 248.737 165.787C241.798 163.605 241.345 153.919 243.12 146.706C243.381 145.66 243.686 144.668 244.023 143.757C244.048 143.694 244.071 143.632 244.094 143.569C244.094 143.569 242.654 133.124 242.505 128.612C242.222 119.867 247.984 111.532 267.107 111.533C286.233 111.533 289.703 123.719 290.467 130.086C290.597 131.146 289.822 137.326 288.695 138.232C290.409 139.312 290.695 141.472 290.537 143.185Z" fill="#F9AE90"/>
<path d="M247.53 138.47C246.785 138.517 246.255 139.717 246.346 141.149C246.437 142.582 247.114 143.705 247.859 143.658C248.603 143.611 249.133 142.411 249.042 140.978C248.952 139.546 248.274 138.422 247.53 138.47Z" fill="#14130F"/>
<path d="M251.177 139.818C251.252 139.793 251.319 139.747 251.367 139.678C251.489 139.507 251.45 139.27 251.277 139.148C251.134 139.047 247.744 136.671 244.674 138.758C244.501 138.875 244.455 139.112 244.574 139.285C244.692 139.459 244.927 139.502 245.101 139.386C247.735 137.594 250.803 139.744 250.835 139.765C250.938 139.839 251.064 139.855 251.177 139.818Z" fill="#14130F"/>
<path d="M260.008 137.885C259.264 137.932 258.734 139.133 258.825 140.567C258.917 142 259.594 143.124 260.339 143.076C261.084 143.029 261.613 141.828 261.522 140.395C261.431 138.961 260.753 137.838 260.008 137.885Z" fill="#14130F"/>
<path d="M264.301 139.719C264.377 139.704 264.45 139.665 264.507 139.604C264.65 139.449 264.641 139.21 264.486 139.067C264.356 138.947 261.294 136.163 257.986 137.845C257.798 137.94 257.724 138.168 257.819 138.356C257.914 138.542 258.142 138.617 258.331 138.523C261.172 137.076 263.944 139.598 263.971 139.624C264.063 139.71 264.187 139.741 264.301 139.719Z" fill="#14130F"/>
<path d="M251.398 155.091C251.612 155.099 251.839 155.094 252.077 155.072C254.395 154.859 256.056 152.708 256.126 152.617C256.365 152.3 256.303 151.848 255.987 151.609C255.671 151.367 255.22 151.428 254.979 151.744C254.958 151.771 253.622 153.484 251.946 153.637C250.212 153.795 249.527 152.763 249.499 152.718C249.285 152.388 248.845 152.283 248.509 152.493C248.176 152.702 248.067 153.135 248.271 153.472C248.314 153.542 249.229 155.011 251.398 155.091Z" fill="#DF6A5D"/>
<path d="M278.26 149.684C278.54 149.663 278.792 149.471 278.875 149.185C280.23 144.469 286.147 142.914 286.207 142.898C286.576 142.804 286.799 142.428 286.707 142.059C286.613 141.688 286.239 141.465 285.868 141.559C285.593 141.627 279.125 143.318 277.546 148.804C277.442 149.172 277.652 149.553 278.02 149.659C278.1 149.683 278.182 149.69 278.26 149.684Z" fill="#DF6A5D"/>
<path d="M284.503 147.544C284.591 147.539 284.677 147.515 284.761 147.474C285.102 147.305 285.243 146.891 285.074 146.548C285.029 146.454 283.912 144.256 281.104 144.114C280.724 144.096 280.398 144.39 280.38 144.769C280.359 145.151 280.654 145.475 281.034 145.495C283.039 145.595 283.827 147.144 283.834 147.159C283.962 147.419 284.23 147.564 284.503 147.544Z" fill="#DF6A5D"/>
<g opacity="0.5">
<path d="M247.189 145.597C247.105 146.354 245.386 146.804 243.176 146.707C243.436 145.661 243.742 144.669 244.078 143.758C245.957 144.172 247.266 144.906 247.189 145.597Z" fill="#DF6A5D"/>
</g>
<g opacity="0.5">
<path d="M263.901 145.748C261.251 145.459 259.026 145.924 258.931 146.787C258.837 147.649 260.91 148.583 263.56 148.873C266.211 149.162 268.436 148.697 268.53 147.834C268.624 146.971 266.552 146.038 263.901 145.748Z" fill="#DF6A5D"/>
</g>
<path d="M278.515 153.705L278.482 153.704C278.478 153.704 278.478 153.704 278.478 153.704L278.336 153.696C278.202 153.979 278.052 154.256 277.894 154.538C277.827 154.66 277.755 154.784 277.685 154.904C277.678 154.916 277.672 154.927 277.663 154.937C276.914 154.748 275.984 154.377 275.178 153.683C274.706 153.275 274.276 152.755 273.952 152.084C273.786 151.742 273.929 151.329 274.274 151.164C274.617 150.993 275.031 151.137 275.199 151.483C275.56 152.226 276.124 152.728 276.71 153.069C277.109 153.298 277.515 153.453 277.879 153.555C278.117 153.628 278.335 153.672 278.515 153.705Z" fill="#DF6A5D"/>
<path d="M276.851 153.41C277.307 153.602 277.849 153.712 278.29 153.778C278.287 153.803 278.281 153.827 278.278 153.851C278.064 155.811 279.486 157.578 281.445 157.791C283.404 158.004 285.172 156.583 285.386 154.624C285.579 152.856 284.439 151.25 282.778 150.794C282.401 150.242 282.437 149.745 282.938 149.311C285.412 149.865 287.134 152.205 286.854 154.783C286.553 157.552 284.055 159.56 281.286 159.259C278.518 158.958 276.51 156.46 276.811 153.691C276.822 153.598 276.835 153.504 276.851 153.41Z" fill="white"/>
<path d="M252.837 158.408C253.831 158.313 254.425 157.685 254.461 157.648C254.631 157.465 254.62 157.177 254.435 157.008C254.254 156.838 253.969 156.848 253.798 157.03C253.761 157.069 252.992 157.842 251.768 157.341C251.537 157.246 251.272 157.358 251.178 157.59C251.084 157.822 251.196 158.086 251.427 158.181C251.955 158.397 252.429 158.447 252.837 158.408Z" fill="#DF6A5D"/>
<path d="M286.15 118.916C282.453 114.331 277.091 110.439 270.236 110.219C260.621 109.909 251.473 112.452 246.114 117.184C243.529 119.457 241.824 122.235 241.364 125.451C239.943 135.345 242.259 133.599 242.259 133.599C242.259 133.599 242.225 133.363 242.713 131.28H242.718C243.008 130.022 243.492 128.093 244.292 125.141C246.2 118.1 269.062 119.342 267.166 123.826C267.166 123.826 267.041 124.396 267.026 125.289C267.005 126.245 267.115 127.572 267.638 128.956C267.818 129.001 267.991 129.048 268.153 129.09C270.4 129.714 272.218 130.539 273.697 131.473C273.697 131.473 273.702 131.476 273.705 131.481C273.888 131.639 277.11 134.47 276.286 138.051C275.445 141.739 273.629 146.489 276.25 145.797C278.874 145.101 279.995 142.146 279.995 142.146C279.995 142.146 279.995 142.146 280 142.143C281.498 140.598 283.318 139.082 285.872 138.488C287.312 132.011 288.155 125.348 286.15 118.916Z" fill="#673A16"/>
<path d="M287.092 123.281C280.483 120.32 269.052 124.37 267.022 125.286C267.001 126.242 267.111 127.569 267.634 128.953C267.814 128.998 267.987 129.046 268.15 129.087C270.396 129.711 272.214 130.537 273.694 131.471C273.694 131.471 273.698 131.474 273.701 131.478C273.884 131.636 277.106 134.468 276.282 138.049C275.441 141.737 270.119 161.332 273.685 164.789C280.918 171.803 281.015 142.21 281.015 142.21C282.513 140.666 283.313 139.078 285.868 138.483C288.924 133.443 288.463 128.323 287.092 123.281Z" fill="#613716"/>
<path d="M285.598 122.75C285.598 122.75 289.179 129.067 285.866 138.487C285.866 138.487 289.24 137.958 290.752 138.669C292.264 139.381 294.417 133.804 293.321 128.386C292.225 122.969 285.35 115.852 285.35 115.852C285.35 115.852 284.345 120.891 285.598 122.75Z" fill="#613716"/>
<path d="M251.415 148.4C251.309 148.394 251.202 148.36 251.109 148.293L248.649 146.535C248.482 146.416 248.389 146.217 248.409 146.011C248.427 145.807 248.552 145.627 248.738 145.539C250.896 144.516 252.302 142.768 253.165 140.036C253.26 139.731 253.585 139.561 253.892 139.658C254.197 139.753 254.367 140.08 254.27 140.385C253.421 143.081 252.078 144.931 250.083 146.133L251.786 147.349C252.046 147.535 252.106 147.898 251.92 148.157C251.799 148.326 251.607 148.409 251.415 148.4Z" fill="#DF6A5D"/>
<path d="M258.951 134.059C257.619 134.85 256.15 133.213 257.108 131.996C257.607 131.36 258.383 130.799 259.582 130.547C264.785 129.46 268.351 132.969 268.351 132.969C268.351 132.969 262.944 132.486 260.382 133.39C259.791 133.599 259.329 133.834 258.951 134.059Z" fill="#14130F"/>
<path d="M250.423 134.448C251.791 135.17 253.179 133.462 252.162 132.296C251.631 131.686 250.827 131.163 249.618 130.971C244.368 130.143 242.734 133.499 242.734 133.499C242.734 133.499 246.358 133.075 248.961 133.851C249.562 134.029 250.035 134.241 250.423 134.448Z" fill="#14130F"/>
<g opacity="0.6">
<path d="M245.37 137.805C241.65 137.666 238.554 139.716 238.455 142.383C238.356 145.05 241.291 147.324 245.011 147.462C248.731 147.601 251.827 145.551 251.926 142.884C252.025 140.217 249.09 137.943 245.37 137.805Z" fill="white"/>
</g>
<g opacity="0.6">
<path d="M261.447 137.693C257.413 137.543 254.057 139.765 253.949 142.657C253.841 145.548 257.024 148.014 261.057 148.164C265.09 148.314 268.447 146.092 268.554 143.2C268.662 140.309 265.48 137.844 261.447 137.693Z" fill="white"/>
</g>
<path d="M251.303 142.99C251.4 142.993 251.501 142.963 251.583 142.896C253.04 141.716 254.096 142.908 254.139 142.96C254.292 143.136 254.558 143.156 254.733 143.004C254.909 142.853 254.93 142.586 254.777 142.41C254.218 141.761 252.721 140.891 251.051 142.24C250.871 142.386 250.841 142.651 250.989 142.833C251.069 142.933 251.185 142.987 251.303 142.99Z" fill="white"/>
<path d="M267.687 142.534C267.763 142.537 267.841 142.519 267.911 142.479C272.423 139.914 277.948 140.084 278.004 140.085C278.236 140.094 278.432 139.912 278.441 139.68C278.449 139.448 278.268 139.251 278.035 139.244C277.8 139.235 272.22 139.059 267.494 141.748C267.291 141.862 267.221 142.12 267.337 142.322C267.41 142.454 267.546 142.528 267.687 142.534Z" fill="#A41E22"/>
<path d="M238.421 142.811C238.547 142.815 238.673 142.765 238.761 142.66C239.644 141.607 242.4 141.235 243.388 141.18C243.62 141.166 243.797 140.967 243.785 140.734C243.773 140.502 243.571 140.323 243.342 140.337C243.182 140.346 239.409 140.573 238.115 142.118C237.964 142.297 237.988 142.562 238.167 142.712C238.241 142.774 238.332 142.806 238.421 142.811Z" fill="#A41E22"/>
<path d="M275.737 168.674C275.737 168.674 283.187 170.804 284.914 181.992C284.914 181.992 298.281 186.516 301.81 189.543C305.339 192.569 309.576 195.806 309.112 200.553C307.603 216 283.219 249.442 280.508 258.597C277.797 267.75 291.186 304.23 291.186 304.23C279.513 315.972 260.168 317.959 243.141 313.667C243.141 313.667 250.194 221.617 257.399 207.317C264.605 193.016 271.269 182.345 275.737 168.674Z" fill="#0273FA"/>
<path d="M285.516 182.975C283.204 194.091 275.028 203.382 264.373 207.232C263.494 207.549 263.169 206.133 264.038 205.819C274.232 202.135 281.929 193.126 284.13 182.538C284.321 181.625 285.705 182.066 285.516 182.975Z" fill="#273372"/>
<path d="M266.598 206.827C258.45 231.649 254.592 257.787 254.831 283.898C254.899 291.457 255.319 299.011 256.076 306.533C256.17 307.451 254.755 307.795 254.662 306.867C252.029 280.686 253.447 254.119 259.159 228.419C260.813 220.98 262.839 213.63 265.214 206.389C265.505 205.502 266.89 205.934 266.598 206.827Z" fill="#273372"/>
<path d="M289.006 298.71C275.953 307.412 259.744 310.57 244.37 307.528C243.428 307.342 243.884 305.917 244.821 306.101C259.809 309.067 275.6 305.86 288.298 297.392C289.101 296.859 289.798 298.181 289.006 298.71Z" fill="#273372"/>
<path d="M250.339 170.201C250.339 170.201 247.851 185.736 246.06 195.813C244.138 206.613 230.447 237.111 228.222 257.428C225.997 277.747 220.001 306.098 220.001 306.098C220.001 306.098 203.335 304.293 192.824 292.909C192.824 292.909 208.459 262.469 211.831 250.156C215.205 237.842 206.822 221.592 209.317 214.83C211.812 208.069 218.891 205.744 219.694 199.624C220.497 193.505 217.986 183.676 222.693 180.893C227.4 178.111 239.876 179.353 241.527 178.093C241.527 178.093 245.541 170.575 250.339 170.201Z" fill="#0273FA"/>
<path d="M219.365 190.859C218.976 193.884 218.554 196.921 217.662 199.847C216.703 202.988 215.009 205.535 213.235 208.257C209.91 213.36 207.698 218.368 209.058 224.546C209.76 227.739 210.992 230.785 211.679 233.984C212.37 237.196 212.647 240.488 212.541 243.771C212.324 250.475 210.46 257.016 207.147 262.843C206.793 263.47 207.757 264.033 208.113 263.408C211.157 258.045 213.012 252.103 213.532 245.954C214.099 239.239 212.678 233.186 210.806 226.802C209.769 223.267 209.224 219.771 210.362 216.186C211.357 213.046 213.241 210.265 215.045 207.542C216.721 205.011 218.076 202.499 218.909 199.567C219.715 196.723 220.107 193.786 220.482 190.86C220.573 190.148 219.456 190.154 219.365 190.859Z" fill="#273372"/>
<path d="M241.494 180.992C240.654 187.408 240.706 194.545 243.822 200.385C244.263 201.211 242.984 201.896 242.543 201.071C239.307 195.012 239.167 187.604 240.042 180.938C240.162 180.018 241.615 180.064 241.494 180.992Z" fill="#273372"/>
<path d="M242.439 197.553C232.237 225.058 224.998 253.334 220.678 282.342C219.712 288.839 218.851 295.353 217.997 301.867C217.878 302.786 216.424 302.741 216.546 301.813C219.963 275.71 224.283 249.895 231.82 224.62C234.583 215.349 237.689 206.185 241.054 197.115C241.377 196.244 242.764 196.673 242.439 197.553Z" fill="#273372"/>
<path d="M219.855 303.516C210.779 301.08 202.445 296.545 195.49 290.229C194.798 289.599 195.866 288.616 196.555 289.241C203.325 295.389 211.467 299.762 220.294 302.13C221.195 302.372 220.759 303.757 219.855 303.516Z" fill="#273372"/>
<path d="M226.395 308.839L130.584 299.532C130.399 299.513 130.265 299.35 130.283 299.166L131.439 287.259C131.457 287.076 131.622 286.941 131.805 286.959L227.617 296.267C227.8 296.285 227.935 296.449 227.917 296.633L226.762 308.538C226.742 308.723 226.58 308.857 226.395 308.839Z" fill="#5C554C"/>
<path d="M120.17 298.52C116.538 298.168 113.598 295.417 113.002 291.818L101.523 222.497C100.822 218.259 104.328 214.512 108.602 214.926L151.798 219.122C154.713 219.403 157.084 221.592 157.599 224.475L171.74 303.529L120.17 298.52Z" fill="#14130F"/>
<path d="M124.631 257.858C125.627 262.384 129.724 266.353 133.78 266.718C137.836 267.084 140.316 263.709 139.319 259.182C138.323 254.654 134.227 250.687 130.171 250.322C126.113 249.957 123.633 253.329 124.631 257.858Z" fill="#F9A137"/>
<path d="M132.845 257.075C133.045 257.979 133.491 258.739 133.845 258.771C134.198 258.804 134.321 258.095 134.123 257.189C133.923 256.284 133.477 255.524 133.124 255.491C132.771 255.459 132.645 256.169 132.845 257.075Z" fill="#14130F"/>
<path d="M129.013 256.721C129.213 257.625 129.66 258.386 130.013 258.419C130.366 258.452 130.489 257.743 130.291 256.836C130.092 255.932 129.643 255.17 129.292 255.138C128.937 255.108 128.814 255.814 129.013 256.721Z" fill="#14130F"/>
<path d="M132.796 262.507C135.955 262.791 135.901 259.332 135.9 259.298C135.895 259.109 135.744 258.908 135.562 258.851C135.38 258.793 135.237 258.9 135.243 259.09C135.245 259.215 135.274 262.031 132.638 261.793C130 261.555 128.765 258.623 128.713 258.498C128.632 258.303 128.434 258.166 128.273 258.193C128.111 258.221 128.044 258.4 128.123 258.595C128.138 258.632 129.638 262.222 132.796 262.507Z" fill="#14130F"/>
<path d="M157.595 224.487L171.617 302.89L176.552 303.368L162.531 224.966C162.01 222.081 159.644 219.893 156.728 219.609L151.793 219.129C154.71 219.413 157.075 221.603 157.595 224.487Z" fill="#14130F"/>
<path d="M171.175 302.374C171.218 302.374 171.262 302.371 171.306 302.362C171.702 302.292 171.966 301.913 171.896 301.519L158.026 223.287C157.956 222.889 157.581 222.626 157.183 222.697C156.787 222.767 156.523 223.146 156.593 223.54L170.461 301.773C170.524 302.125 170.829 302.372 171.175 302.374Z" fill="#5C554C"/>
<path d="M61.3949 228.996C78.9733 228.996 93.2234 214.644 93.2234 196.94C93.2234 179.237 78.9733 164.885 61.3949 164.885C43.8165 164.885 29.5664 179.237 29.5664 196.94C29.5664 214.644 43.8165 228.996 61.3949 228.996Z" fill="#E67524"/>
<path d="M89.6611 196.051C89.6611 213.756 75.4081 228.107 57.8285 228.107C40.253 228.107 26 213.756 26 196.051C26 178.352 40.2516 164 57.8285 164C75.4067 164 89.6611 178.352 89.6611 196.051Z" fill="#FFC538"/>
<path d="M58.4966 224.099C73.7409 224.099 86.0987 211.741 86.0987 196.497C86.0987 181.252 73.7409 168.895 58.4966 168.895C43.2524 168.895 30.8945 181.252 30.8945 196.497C30.8945 211.741 43.2524 224.099 58.4966 224.099Z" fill="#F5B11A"/>
<path d="M46.642 204.112C48.2751 207.782 51.1174 211.175 58.138 211.298C64.2602 211.409 67.0516 208.184 66.9154 205.166C66.7668 201.915 64.1556 200.033 57.9495 198.119C48.6094 195.425 42.0387 192.522 41.8598 186.717C41.5709 180.33 48.8942 176.332 57.5437 176.409C63.1678 176.401 68.1206 177.667 71.2546 178.448C71.7223 179.788 72.9578 183.629 73.7406 186.479L71.2298 186.922C69.1511 182.434 65.0553 178.39 57.384 178.323C51.8383 178.331 47.9476 180.618 48.1306 184.74C48.2778 188.05 50.9289 190.687 57.7115 192.78C67.5524 195.827 72.4088 198.598 72.6482 203.881C72.8752 208.992 67.5221 213.236 57.3208 213.144C51.9374 213.096 49.1294 212.375 46.177 212.001C45.5923 209.848 45.0805 207.522 44.2908 204.499L46.642 204.112ZM58.0032 217.332L55.2255 217.304L57.8807 171.246L60.8207 171.272L58.0032 217.332Z" fill="#CC7829"/>
<path d="M144.021 129.383C153.129 124.976 158.829 117.922 156.751 113.627C154.673 109.333 145.605 109.423 136.496 113.83C127.388 118.236 121.688 125.29 123.766 129.585C125.844 133.88 134.912 133.789 144.021 129.383Z" fill="#CC7829"/>
<path d="M124.321 130.323L122.625 127.219L155.343 110.713L156.749 113.618L140.817 129.466L124.321 130.323Z" fill="#CC7829"/>
<path d="M142.878 127.026C151.987 122.619 157.687 115.566 155.61 111.272C153.532 106.978 144.464 107.07 135.356 111.476C126.247 115.883 120.547 122.936 122.625 127.23C124.702 131.524 133.77 131.432 142.878 127.026Z" fill="#FFC538"/>
<path d="M142.217 125.217C150.361 121.277 155.619 115.305 153.961 111.879C152.303 108.452 144.358 108.868 136.214 112.808C128.07 116.748 122.813 122.719 124.47 126.146C126.128 129.572 134.074 129.157 142.217 125.217Z" fill="#F19720"/>
<mask id="mask1_2902_1433" style="mask-type:luminance" maskUnits="userSpaceOnUse" x="127" y="105" width="24" height="28">
<path d="M144.241 123.721C149.856 116.628 151.988 108.962 149.004 106.6C146.019 104.237 139.048 108.072 133.433 115.165C127.818 122.258 125.685 129.923 128.67 132.286C131.654 134.648 138.626 130.814 144.241 123.721Z" fill="white"/>
</mask>
<g mask="url(#mask1_2902_1433)">
<path d="M142.928 126.279C151.072 122.34 156.33 116.368 154.672 112.941C153.014 109.515 145.069 109.931 136.925 113.87C128.781 117.81 123.524 123.782 125.181 127.208C126.839 130.635 134.785 130.219 142.928 126.279Z" fill="#F5B11A"/>
</g>
<path d="M133.412 120.011C131.837 121.469 130.555 123.026 131.409 124.173C132.149 125.176 134.083 124.56 135.536 123.552C137.101 122.465 137.677 121.438 137.802 119.835C137.9 117.481 138.46 115.494 141.263 113.568C144.337 111.434 147.235 111.282 148.323 112.67C149.057 113.555 149.086 114.749 149.113 115.499C148.521 116.011 146.81 117.462 145.524 118.517L144.983 118.266C146.899 116.47 148.334 114.502 147.371 113.271C146.646 112.399 145.026 112.533 143.042 113.911C141.45 115.016 140.511 116.295 140.373 118.05C140.169 120.599 139.451 122.27 136.908 124.036C134.45 125.742 131.684 126.288 130.404 124.649C129.727 123.785 129.715 123.106 129.513 122.517C130.485 121.722 131.55 120.88 132.921 119.766L133.412 120.011ZM128.452 126.124L128.104 125.679L150.88 111.035L151.249 111.507L128.452 126.124Z" fill="#CC7829"/>
</svg>
