<svg width="85" height="85" viewBox="0 0 35 35" fill="none" xmlns="http://www.w3.org/2000/svg">
<path d="M15.7621 0.0750901C13.0639 0.327122 10.173 1.3649 7.87504 2.90674C3.87218 5.57531 1.26292 9.47439 0.328917 14.1592C-0.901591 20.3117 1.38152 26.8201 6.15529 30.8526C8.73491 33.0319 11.8038 34.381 15.2729 34.8999C16.1328 35.0334 18.8607 35.0334 19.7205 34.8999C23.753 34.3069 27.1184 32.6465 29.8759 29.8889C32.6186 27.1611 34.2791 23.7661 34.8721 19.7484C35.0055 18.8885 35.0055 16.1606 34.8721 15.3008C34.2198 10.8235 32.0997 6.93924 28.8381 4.19655C25.6507 1.45385 21.4996 -0.0435131 17.3633 0.000963116C16.8592 0.000963116 16.1476 0.0454393 15.7621 0.0750901ZM18.9793 2.40268C26.1992 3.12912 31.8922 8.82207 32.6186 16.042C33.2413 22.2835 29.8463 28.3619 24.183 31.1343C16.6517 34.811 7.60818 31.7273 3.90184 24.2256C1.02571 18.3993 2.18209 11.4165 6.79279 6.79099C9.96542 3.58871 14.5168 1.95791 18.9793 2.40268Z" fill="#f0f0f0"/>
<path d="M17.0358 7.10234C16.2945 7.4285 16.1166 8.40697 16.6948 8.98516C17.5102 9.81538 18.8593 9.07412 18.6369 7.91774C18.5183 7.22094 17.6881 6.80583 17.0358 7.10234Z" fill="#f0f0f0"/>
<path d="M17.0385 11.7725C16.742 11.9059 16.4307 12.2766 16.3862 12.5731C16.3714 12.7065 16.3565 16.057 16.3714 20.0451C16.3862 27.2206 16.3862 27.2799 16.5493 27.4874C16.831 27.8729 17.0682 27.9915 17.5278 27.9915C17.9873 27.9915 18.2245 27.8729 18.5062 27.4874C18.6545 27.2947 18.6545 27.2502 18.6545 19.8523C18.6545 12.4545 18.6545 12.41 18.5062 12.2173C18.4321 12.1135 18.269 11.9504 18.1652 11.8763C17.9132 11.6835 17.335 11.6391 17.0385 11.7725Z" fill="#f0f0f0"/>
</svg>
