<svg width="84" height="84" viewBox="0 0 35 35" fill="none" xmlns="http://www.w3.org/2000/svg">
<path d="M6.95979 7.53711H5.44644C4.92715 7.53711 4.51172 7.95254 4.51172 8.47183C4.51172 8.99112 4.92715 9.40655 5.44644 9.40655H6.95979C7.47908 9.40655 7.89451 8.99112 7.89451 8.47183C7.89451 7.95254 7.47908 7.53711 6.95979 7.53711Z" fill="#f0f0f0"/>
<path d="M6.95979 16.5728H5.44644C4.92715 16.5728 4.51172 16.9882 4.51172 17.5075C4.51172 18.0268 4.92715 18.4422 5.44644 18.4422H6.95979C7.47908 18.4422 7.89451 18.0268 7.89451 17.5075C7.89451 16.9882 7.47908 16.5728 6.95979 16.5728Z" fill="#f0f0f0"/>
<path d="M6.95979 25.6084H5.44644C4.92715 25.6084 4.51172 26.0238 4.51172 26.5431C4.51172 27.0624 4.92715 27.4778 5.44644 27.4778H6.95979C7.47908 27.4778 7.89451 27.0624 7.89451 26.5431C7.89451 26.0387 7.47908 25.6084 6.95979 25.6084Z" fill="#f0f0f0"/>
<path d="M32.5816 0H2.43323C1.09792 0 0 1.09792 0 2.43323V32.5668C0 33.9169 1.09792 35 2.43323 35H32.5668C33.9169 35 35 33.9021 35 32.5668V2.43323C35.0148 1.09792 33.9169 0 32.5816 0ZM33.1454 31.8249C33.1454 32.5519 32.5519 33.1454 31.8249 33.1454H3.18991C2.46291 33.1454 1.86944 32.5519 1.86944 31.8249V3.18991C1.86944 2.46291 2.46291 1.86944 3.18991 1.86944H31.8101C32.5371 1.86944 33.1306 2.46291 33.1306 3.18991V31.8249H33.1454Z" fill="#f0f0f0"/>
<path d="M29.5696 25.6084H11.4835C10.9643 25.6084 10.5488 26.0238 10.5488 26.5431C10.5488 27.0624 10.9643 27.4778 11.4835 27.4778H29.5696C30.0889 27.4778 30.5043 27.0624 30.5043 26.5431C30.4895 26.0387 30.0741 25.6084 29.5696 25.6084Z" fill="#f0f0f0"/>
<path d="M29.5696 7.53711H11.4835C10.9643 7.53711 10.5488 7.95254 10.5488 8.47183C10.5488 8.99112 10.9643 9.40655 11.4835 9.40655H29.5696C30.0889 9.40655 30.5043 8.99112 30.5043 8.47183C30.5043 7.95254 30.0741 7.53711 29.5696 7.53711Z" fill="#f0f0f0"/>
<path d="M29.5696 16.5728H11.4835C10.9643 16.5728 10.5488 16.9882 10.5488 17.5075C10.5488 18.0268 10.9643 18.4422 11.4835 18.4422H29.5696C30.0889 18.4422 30.5043 18.0268 30.5043 17.5075C30.4895 16.9882 30.0741 16.5728 29.5696 16.5728Z" fill="#f0f0f0"/>
</svg>
