<svg width="33" height="42" viewBox="0 0 33 42" fill="none" xmlns="http://www.w3.org/2000/svg">
<path d="M16.5 21C17.6344 21 18.6055 20.5887 19.4133 19.7662C20.2211 18.9438 20.625 17.955 20.625 16.8C20.625 15.645 20.2211 14.6562 19.4133 13.8337C18.6055 13.0112 17.6344 12.6 16.5 12.6C15.3656 12.6 14.3945 13.0112 13.5867 13.8337C12.7789 14.6562 12.375 15.645 12.375 16.8C12.375 17.955 12.7789 18.9438 13.5867 19.7662C14.3945 20.5887 15.3656 21 16.5 21ZM16.5 36.435C20.6938 32.515 23.8047 28.9537 25.8328 25.7512C27.8609 22.5487 28.875 19.705 28.875 17.22C28.875 13.405 27.6805 10.2812 25.2914 7.84875C22.9023 5.41625 19.9719 4.2 16.5 4.2C13.0281 4.2 10.0977 5.41625 7.70859 7.84875C5.31953 10.2812 4.125 13.405 4.125 17.22C4.125 19.705 5.13906 22.5487 7.16719 25.7512C9.19531 28.9537 12.3062 32.515 16.5 36.435ZM16.5 42C10.9656 37.205 6.83203 32.7513 4.09922 28.6388C1.36641 24.5262 0 20.72 0 17.22C0 11.97 1.65859 7.7875 4.97578 4.6725C8.29297 1.5575 12.1344 0 16.5 0C20.8656 0 24.707 1.5575 28.0242 4.6725C31.3414 7.7875 33 11.97 33 17.22C33 20.72 31.6336 24.5262 28.9008 28.6388C26.168 32.7513 22.0344 37.205 16.5 42Z" fill="#005FE5"/>
</svg>
