<svg width="37" height="38" viewBox="0 0 37 38" fill="none" xmlns="http://www.w3.org/2000/svg">
<path d="M9.17517 0.0838773C8.55181 0.224135 8.19337 0.629323 7.57 1.90722C6.61937 3.83966 6.35444 5.94352 6.89988 7.34609C7.02456 7.65778 7.14923 7.95387 7.19598 8.00063C7.33624 8.15647 7.2739 8.29673 6.83755 8.82659C6.32327 9.44995 5.63757 10.5097 5.26355 11.211L4.99862 11.7252H4.422C3.08177 11.7252 2.38048 11.9902 1.58569 12.7694C0.99349 13.3616 0.479213 14.3278 0.198698 15.3719C-0.0662327 16.3381 -0.0662327 18.4264 0.198698 19.3926C0.494797 20.4679 0.99349 21.403 1.63244 22.0419C2.39606 22.8056 2.81684 22.9614 4.34408 23.0238L5.49731 23.0705L5.93367 23.7406C6.43236 24.5198 7.00897 25.2367 7.66351 25.9068L8.13103 26.3743L7.69468 27.9951C7.28949 29.4912 7.25832 29.6782 7.28949 30.3483C7.32066 30.9717 7.36741 31.1587 7.63234 31.6885C8.17778 32.8106 9.11283 33.5275 10.157 33.6677C11.2479 33.808 12.3076 33.4651 13.1335 32.7015C13.7102 32.1872 13.9751 31.673 14.2244 30.7535C14.3335 30.3639 14.4426 30.021 14.4738 29.9743C14.505 29.9431 14.9101 29.9899 15.3621 30.0834C16.453 30.3015 18.8373 30.3795 19.8971 30.2548C20.3023 30.1925 20.6607 30.1301 20.6763 30.1301C20.6919 30.1145 20.6451 29.8029 20.5828 29.4444L20.4737 28.7743L20.0217 28.8211C19.7724 28.8522 18.8685 28.8678 18.0114 28.8678C16.3439 28.8522 15.7829 28.7899 14.2712 28.3224L13.492 28.0886L13.3673 28.525C13.305 28.7587 13.118 29.3977 12.9777 29.9587C12.666 31.1587 12.5102 31.4704 12.0738 31.86C11.1855 32.6703 9.53361 32.3587 8.91024 31.2834C8.53622 30.66 8.56739 30.2236 9.20634 27.9016L9.7362 25.9224L8.81674 25.0029C7.91285 24.0991 7.02456 22.8991 6.60379 22.0108L6.41678 21.6212L4.90511 21.59C3.54929 21.5588 3.3467 21.5433 3.0506 21.3874C2.38048 21.029 1.91295 20.3433 1.61686 19.268C1.39868 18.4888 1.39868 16.2602 1.61686 15.4966C1.91295 14.4213 2.39606 13.72 3.0506 13.3616C3.3467 13.2057 3.56488 13.1746 4.7181 13.159C5.65315 13.1278 6.02717 13.0966 6.02717 13.0187C6.02717 12.8317 6.94664 11.0707 7.35182 10.4941C7.58559 10.1668 8.08428 9.54346 8.47388 9.1071L9.19076 8.31231L8.87907 7.93829C8.42713 7.36168 8.11545 6.66039 8.02194 6.06819C7.85052 5.03964 8.19337 3.51239 8.83232 2.34358C9.23751 1.59554 9.40893 1.4397 9.82971 1.37736C10.7492 1.2371 12.7751 1.70463 13.7725 2.26566C14.5829 2.73318 15.2218 3.62148 15.5023 4.65003C15.627 5.10197 15.5803 5.08639 16.7335 4.89938C17.8088 4.71237 20.0217 4.71237 21.1906 4.89938C26.1619 5.663 30.2917 8.84217 31.8501 13.0811C32.5982 15.1538 32.7228 17.8498 32.1618 20.0628C32.0839 20.4212 31.9904 20.764 31.9592 20.8264C31.928 20.9043 32.0995 20.9978 32.567 21.1692C32.9254 21.2939 33.2371 21.3718 33.2683 21.3251C33.3774 21.216 33.767 19.5485 33.8605 18.7381C33.9228 18.2862 33.9384 17.3823 33.9228 16.4628L33.8761 14.9512L34.3436 14.7018C35.076 14.3278 35.8708 13.4707 36.2604 12.6447C36.9773 11.1486 36.9617 9.82397 36.2137 8.29673C35.6371 7.09675 34.328 6.11494 32.9878 5.83443L32.4579 5.72534L32.3956 6.14611C32.3644 6.37988 32.3488 6.70714 32.3488 6.86298C32.38 7.1435 32.3956 7.15908 32.8007 7.25259C33.7514 7.45518 34.6241 8.17205 35.076 9.12269C35.5436 10.0889 35.4345 11.4447 34.8111 12.3798C34.5306 12.8317 33.7358 13.533 33.58 13.4707C33.5332 13.4551 33.3774 13.1122 33.2215 12.6915C32.2865 10.1045 30.4787 7.78245 28.0164 6.05261C27.1125 5.42924 25.2892 4.52536 24.1204 4.13576C22.0788 3.45005 19.7724 3.16954 17.7932 3.32538C17.201 3.37213 16.6867 3.41889 16.6556 3.41889C16.6244 3.41889 16.4841 3.20071 16.3595 2.93578C16.2192 2.63968 15.8764 2.21891 15.4868 1.8293C14.5361 0.878669 13.2894 0.333224 11.4972 0.0682932C10.7959 -0.0252117 9.61153 -0.0252118 9.17517 0.0838773Z" fill="#005FE5"/>
<path d="M13.5076 11.0553C12.2453 11.3047 11.0765 12.5826 10.9206 13.8605C10.7648 15.0761 11.6219 16.4942 12.8686 17.0708C13.2738 17.2578 13.4608 17.3046 14.053 17.3046C14.9257 17.3046 15.5024 17.0552 16.1881 16.4163C17.3257 15.341 17.5283 13.8293 16.7179 12.5514C16.0322 11.4605 14.6452 10.8216 13.5076 11.0553ZM15.0504 12.6917C15.9231 13.206 16.079 14.6709 15.3309 15.4189C14.7387 16.0111 13.6946 16.089 12.9466 15.5592C12.1362 14.9826 12.1518 13.2839 12.9621 12.754C13.5699 12.3488 14.4115 12.3332 15.0504 12.6917Z" fill="#005FE5"/>
<path d="M28.9505 37.9688C28.9193 37.9377 28.8882 35.1793 28.8882 31.8598V25.8132L26.3012 28.4002L23.7298 30.9715L23.2311 30.4729L22.7324 29.9742L26.1921 26.5145L29.6518 23.0548L33.1115 26.5145L36.5712 29.9742L36.0725 30.4729L35.5738 30.9715L33.0024 28.4002L30.3998 25.8132L30.3842 31.891L30.3531 37.9688L29.683 38C29.3245 38 28.9973 38 28.9505 37.9688Z" fill="#005FE5"/>
</svg>
