<svg width="216" height="236" viewBox="0 0 216 236" fill="none" xmlns="http://www.w3.org/2000/svg">
<path d="M187.721 192.484C207.879 173.752 218.869 136.573 206.386 114.602C206.167 114.217 205.943 113.832 205.713 113.444C187.301 82.4282 149.26 114.097 127.219 91.036C105.176 67.9747 106.369 21.8704 76.2626 9.34522C42.9849 -4.49976 -27.8749 46.7681 25.9689 134.223C69.0477 204.192 127.575 248.369 187.721 192.484Z" fill="#E9F1FF"/>
<path opacity="0.5" d="M203.574 190.263C204.373 191.393 206.129 191.523 207.497 190.556C208.864 189.588 209.324 187.888 208.525 186.759C207.726 185.63 205.97 185.499 204.603 186.467C203.235 187.435 202.775 189.134 203.574 190.263Z" fill="#3351A3"/>
<path opacity="0.5" d="M206.916 179.263C207.965 180.745 210.27 180.917 212.065 179.647C213.859 178.377 214.464 176.146 213.415 174.664C212.366 173.182 210.061 173.01 208.266 174.28C206.472 175.55 205.868 177.781 206.916 179.263Z" fill="#3351A3"/>
<path opacity="0.5" d="M10.1109 30.329C10.4477 27.7268 8.48607 25.7394 5.73043 25.8909C2.97479 26.0425 0.467659 28.2747 0.131411 30.8776C-0.205451 33.4804 1.75497 35.4666 4.51123 35.3157C7.26687 35.1641 9.77338 32.9313 10.1109 30.329Z" fill="#3351A3"/>
<path opacity="0.5" d="M15.3466 22.3019C15.5386 20.817 14.42 19.6838 12.848 19.7703C11.2766 19.8562 9.84572 21.1294 9.65428 22.6136C9.46222 24.0985 10.5802 25.2318 12.1528 25.1453C13.7236 25.0588 15.1539 23.7856 15.3466 22.3019Z" fill="#3351A3"/>
<path d="M63.4219 218.225V221.99H66.1493V220.289C66.1493 219.809 66.5383 219.421 67.0181 219.421H78.7015C79.1041 219.421 79.4311 219.747 79.4311 220.15V221.99H82.6034V220.15C82.6034 219.747 82.9304 219.421 83.3341 219.421H94.928C95.4072 219.421 95.7968 219.809 95.7968 220.289V221.99H98.5242V218.225C98.5242 217.378 97.8376 216.692 96.9915 216.692H82.6034V162.789H79.4311V216.692H64.9546C64.1079 216.692 63.4219 217.379 63.4219 218.225Z" fill="#5C554C"/>
<path d="M78.6237 194.151H83.3998C83.7189 194.151 83.976 193.892 83.976 193.574V163.773H78.0469V193.574C78.0475 193.892 78.3052 194.151 78.6237 194.151Z" fill="#14130F"/>
<path d="M97.1088 228.483C99.3522 228.483 101.171 226.665 101.171 224.421C101.171 222.178 99.3522 220.359 97.1088 220.359C94.8655 220.359 93.0469 222.178 93.0469 224.421C93.0469 226.665 94.8655 228.483 97.1088 228.483Z" fill="#14130F"/>
<path d="M97.1074 226.742C98.391 226.742 99.4335 225.699 99.4335 224.416C99.4335 223.134 98.391 222.09 97.1074 222.09C95.825 222.09 94.7812 223.134 94.7812 224.416C94.7812 225.699 95.825 226.742 97.1074 226.742Z" fill="#5C554C"/>
<path d="M80.9682 228.483C83.2116 228.483 85.0302 226.665 85.0302 224.421C85.0302 222.178 83.2116 220.359 80.9682 220.359C78.7249 220.359 76.9062 222.178 76.9062 224.421C76.9062 226.665 78.7249 228.483 80.9682 228.483Z" fill="#14130F"/>
<path d="M80.9674 226.742C82.2492 226.742 83.2923 225.699 83.2923 224.416C83.2923 223.134 82.2498 222.09 80.9674 222.09C79.6837 222.09 78.6406 223.134 78.6406 224.416C78.64 225.699 79.6831 226.742 80.9674 226.742Z" fill="#5C554C"/>
<path d="M64.7645 228.482C67.0075 228.482 68.8259 226.664 68.8259 224.421C68.8259 222.178 67.0075 220.359 64.7645 220.359C62.5215 220.359 60.7031 222.178 60.7031 224.421C60.7031 226.664 62.5215 228.482 64.7645 228.482Z" fill="#14130F"/>
<path d="M64.7792 226.738C66.0616 226.738 67.1054 225.695 67.1054 224.412C67.1054 223.13 66.0616 222.086 64.7792 222.086C63.4968 222.086 62.4531 223.13 62.4531 224.412C62.4531 225.695 63.4962 226.738 64.7792 226.738Z" fill="#5C554C"/>
<path d="M35.4666 98.7139L51.0144 163.483C51.5157 165.573 53.3853 167.047 55.5347 167.047H92.0262C95.0426 167.047 97.2595 164.22 96.5404 161.29L80.6423 96.5209C80.1311 94.4427 78.2677 92.9805 76.1274 92.9805H39.9869C36.9803 92.9805 34.7646 95.7907 35.4666 98.7139Z" fill="#5C554C"/>
<path d="M39.4742 98.7139L55.022 163.483C55.5239 165.573 57.3929 167.047 59.5423 167.047H96.0332C99.0496 167.047 101.267 164.22 100.547 161.29L84.6492 96.5209C84.14 94.4427 82.2753 92.9805 80.135 92.9805H43.9945C40.9885 92.9805 38.7728 95.7907 39.4742 98.7139Z" fill="#14130F"/>
<path d="M58.0989 162.748L42.5512 97.9795C42.4045 97.3678 42.6634 96.9199 42.8303 96.7082C42.9978 96.4965 43.3721 96.1406 44.0017 96.1406H80.1422C80.8319 96.1406 81.4271 96.6076 81.5909 97.2764L97.4891 162.045C97.6388 162.658 97.3811 163.107 97.2136 163.321C97.0473 163.534 96.6718 163.892 96.0404 163.892H59.5495C58.8567 163.891 58.2603 163.422 58.0989 162.748ZM44.0011 96.5579C43.5482 96.5579 43.2783 96.8143 43.158 96.9671C43.0377 97.1199 42.8512 97.4408 42.9573 97.882L58.5051 162.652C58.6211 163.136 59.0506 163.474 59.5489 163.474H96.0398C96.4951 163.474 96.765 163.217 96.8847 163.063C97.0056 162.91 97.1915 162.586 97.0835 162.145L81.1847 97.3758C81.0675 96.8947 80.638 96.5579 80.1416 96.5579H44.0011Z" fill="#5C554C"/>
<path d="M117.818 168.966H56.5309C54.0888 168.966 51.9682 167.282 51.4147 164.903L50.5938 161.375H116.053L117.818 168.966Z" fill="#5C554C"/>
<path d="M116.976 168.966H60.4684C58.0263 168.966 55.9057 167.282 55.3522 164.903L54.5312 161.375H116.976C118.742 161.375 120.273 162.591 120.673 164.31C121.227 166.69 119.42 168.966 116.976 168.966Z" fill="#14130F"/>
<path d="M92.8328 83.513C94.4747 87.5909 96.1431 91.6836 97.8256 95.7474C98.668 97.7802 99.5166 99.8076 100.373 101.82C100.802 102.826 101.233 103.829 101.668 104.819C102.102 105.807 102.541 106.795 102.975 107.716L103.291 108.372L103.537 108.852C103.539 108.86 103.547 108.873 103.547 108.875C103.541 108.867 103.534 108.857 103.526 108.85C103.523 108.843 103.523 108.845 103.514 108.833L103.458 108.759C103.427 108.718 103.359 108.638 103.39 108.675C103.428 108.719 103.457 108.765 103.497 108.812C103.576 108.908 103.663 109.006 103.766 109.109C104.176 109.521 104.78 109.969 105.498 110.379C106.939 111.205 108.757 111.892 110.657 112.438C112.566 112.989 114.584 113.415 116.631 113.749C117.657 113.915 118.691 114.059 119.729 114.179C120.247 114.24 120.765 114.294 121.282 114.344L122.051 114.41L122.772 114.462L122.918 114.474C125.186 114.639 126.891 116.611 126.728 118.879C126.568 121.07 124.712 122.734 122.544 122.699L122.056 122.69L121.607 122.677L120.723 122.644C120.136 122.617 119.552 122.583 118.969 122.544C117.803 122.465 116.639 122.361 115.473 122.228C113.142 121.959 110.801 121.589 108.427 121.029C107.24 120.75 106.045 120.417 104.837 120.011C103.63 119.603 102.408 119.117 101.172 118.491C99.9376 117.861 98.6785 117.088 97.4519 116.008C97.1463 115.738 96.8445 115.446 96.5481 115.132C96.4021 114.977 96.2554 114.807 96.1118 114.643C96.0578 114.587 95.7725 114.21 95.7283 114.136L95.5939 113.937L95.4958 113.784L95.4025 113.635L95.3246 113.507L95.1822 113.264L94.9282 112.819C94.7723 112.538 94.6239 112.266 94.4833 112.002C93.9225 110.947 93.4145 109.937 92.9076 108.923C92.4057 107.911 91.9118 106.904 91.424 105.897C90.4484 103.885 89.4912 101.874 88.5395 99.864C86.6404 95.8394 84.7708 91.8241 82.9098 87.7793C81.663 85.0685 82.849 81.86 85.5605 80.6132C88.2701 79.3657 91.478 80.5524 92.7254 83.2633C92.7604 83.3375 92.7911 83.4118 92.8223 83.4866L92.8328 83.513Z" fill="#F9AE90"/>
<path d="M103.239 108.617C102.119 108.916 101.11 109.44 100.215 110.176C100.019 110.338 100.299 110.617 100.496 110.456C101.338 109.763 102.291 109.28 103.344 108.999C103.59 108.934 103.486 108.551 103.239 108.617Z" fill="#DF6A5D"/>
<path d="M102.308 108.995C101.611 108.797 100.901 108.704 100.175 108.716C99.9209 108.721 99.9209 109.117 100.175 109.113C100.866 109.101 101.539 109.189 102.203 109.377C102.449 109.448 102.554 109.064 102.308 108.995Z" fill="#DF6A5D"/>
<path d="M55.1791 87.3927C54.4698 84.3922 60.1608 79.9198 56.7806 66.2195C55.3257 60.3253 53.2776 43.5276 65.4592 40.7106C77.6415 37.8943 87.7632 45.2696 85.9599 56.6119C84.2707 67.2411 89.0003 84.9138 86.6944 88.4603L55.1791 87.3927Z" fill="#62140E"/>
<path d="M99.5907 143.58C99.5907 143.58 87.6128 158.354 65.2762 144.539C65.2762 144.539 67.2826 138.139 67.5084 130.712C67.544 129.544 65.1455 123.216 64.7381 121.808C62.5138 114.128 56.3895 103.505 52.7172 97.0301C51.3047 94.5377 50.0751 92.7061 49.9309 91.7974C49.3701 88.2207 49.1283 83.9078 56.8485 81.17C64.5669 78.4352 65.7339 75.3359 65.7339 75.3359L79.5348 76.9448C79.5348 76.9448 83.3274 79.3188 86.3187 79.509C89.3118 79.6992 91.6502 79.6298 92.5332 83.0083C93.0259 84.8822 92.7406 86.9518 92.6301 88.7417C92.5405 90.1824 92.5663 91.4439 93.1958 92.2809C93.9438 93.2731 95.3158 94.4849 96.416 96.1164C96.5368 96.2956 96.6546 96.4803 96.7669 96.6699C97.3541 97.6541 97.8168 98.78 97.9904 100.088C98.0131 100.262 98.0309 100.443 98.042 100.624C98.0647 100.945 98.0708 101.279 98.0543 101.622C98.0113 102.552 97.8395 103.478 97.5855 104.399C97.5364 104.581 97.4836 104.761 97.4272 104.942C96.4 108.289 94.4457 111.573 94.0549 114.823C93.8702 116.359 94.026 118.478 94.3905 120.818C95.0446 125.05 96.3681 130.024 97.545 133.682C102.162 148.014 99.5907 143.58 99.5907 143.58Z" fill="white"/>
<path d="M91.3458 83.2328C81.7345 82.5462 72.0594 84.4686 63.0567 88.8736C62.8052 88.9957 62.6966 88.4802 62.9457 88.3594C71.8931 83.9783 81.516 82.0467 91.0715 82.68C91.166 82.8585 91.2574 83.0432 91.3458 83.2328Z" fill="#E2CEC3"/>
<path d="M92.3432 87.1905C82.8062 86.7383 73.2415 88.4717 64.1689 92.3177C63.9131 92.4251 63.8045 91.9109 64.0591 91.8017C73.1495 87.9501 82.7423 86.2063 92.3033 86.6549C92.3211 86.8291 92.3346 87.0095 92.3432 87.1905Z" fill="#E2CEC3"/>
<path d="M91.9856 90.9609C91.947 91.1432 91.9059 91.3223 91.8623 91.504C91.4401 91.5169 91.0155 91.531 90.5915 91.5426C87.9236 91.623 85.2742 91.5426 82.6136 91.8954C76.852 92.6594 71.2358 94.5897 65.627 96.363C65.3656 96.4446 65.2557 95.931 65.5153 95.847C68.0494 95.0462 70.5774 94.2191 73.1226 93.4791C77.5141 92.1998 81.981 91.1659 86.4946 91.0432C88.3237 90.9935 90.1553 91.0149 91.9856 90.9609Z" fill="#E2CEC3"/>
<path d="M82.5952 56.6681C82.5952 56.6681 84.0506 56.6227 84.5458 58.4279C85.0397 60.2324 84.4801 63.409 82.5755 63.2538C80.6715 63.0979 82.5952 56.6681 82.5952 56.6681Z" fill="#DF6A5D"/>
<path d="M80.78 63.9482C80.6794 62.5449 81.7403 61.3214 83.1442 61.2214C84.5481 61.1214 85.7716 62.1817 85.8722 63.5856C85.9716 64.9894 84.9113 66.2123 83.5074 66.313C82.1029 66.4136 80.8794 65.3521 80.78 63.9482ZM81.5237 63.896C81.5943 64.8894 82.4607 65.6398 83.4541 65.5693C84.4469 65.4987 85.1979 64.6329 85.1273 63.6389C85.0555 62.6455 84.1904 61.8951 83.197 61.9657C82.2036 62.0362 81.4525 62.902 81.5237 63.896Z" fill="white"/>
<path d="M64.5781 78.4353C64.5781 78.4353 67.6479 82.8734 73.1199 83.0176C80.0719 83.2011 80.5051 80.1638 80.5051 80.1638C80.1087 79.2698 79.8265 78.3715 79.6283 77.3953C79.5547 77.0253 79.4909 76.6442 79.4399 76.2479C79.297 75.1667 79.2313 73.9745 79.2123 72.5915C79.2068 72.2675 79.2043 71.9306 79.2049 71.5833L79.2043 71.5422C74.3385 70.9765 70.2177 69.3308 67.1577 66.1488L66.3974 65.8088L65.8857 65.5781L65.8299 65.8647L66.0231 66.7335C66.9466 70.8182 66.4164 74.3543 64.5781 78.4353Z" fill="#F9AE90"/>
<path d="M79.8007 77.6735C81.1555 80.0088 83.0338 82.8823 82.0852 85.671C81.1813 88.3254 78.576 89.5287 75.9032 89.0648C73.2421 88.6028 71.1552 86.662 69.4004 84.7372C67.424 82.5687 65.6035 80.2371 64.3781 77.5551C64.1947 77.1532 63.6013 77.5023 63.7848 77.9017C64.8678 80.2739 66.4189 82.3687 68.121 84.3304C69.7072 86.1582 71.443 88.0076 73.6654 89.0562C75.4872 89.9165 77.6734 90.1619 79.5688 89.382C81.4427 88.6107 82.7098 86.7816 82.9976 84.7985C83.3774 82.1815 81.6526 79.4934 80.3941 77.3268C80.172 76.9439 79.578 77.2894 79.8007 77.6735Z" fill="#14130F"/>
<path d="M70.8438 69.418C72.109 71.5606 74.8977 75.2845 79.4193 76.2632C79.2763 75.182 79.2107 73.9898 79.1917 72.6068C79.1861 72.2828 79.1837 71.946 79.1843 71.5987C79.0929 71.6201 78.9971 71.6392 78.9033 71.657C76.344 72.1307 73.3852 71.1293 70.8438 69.418Z" fill="#1C1A0F"/>
<path d="M59.3349 59.4318C59.4742 62.0169 61.8322 65.0646 65.218 64.9762H65.2358C65.237 64.9762 65.2371 64.9762 65.2371 64.9762L65.3088 64.975C65.3714 65.1204 65.4426 65.2634 65.5162 65.4088C65.5481 65.4714 65.5807 65.5352 65.6144 65.5978C65.6175 65.6039 65.6205 65.6095 65.6248 65.615C67.9669 69.8929 74.3624 72.1393 77.7507 72.0497C78.9607 72.016 79.7595 71.7006 80.016 71.6306C83.5614 70.6587 83.9712 65.7757 83.2098 62.1016C83.0975 61.5683 82.9619 61.0615 82.8085 60.5946C82.7974 60.5627 82.787 60.5308 82.7766 60.4988C82.7766 60.4988 83.7 55.252 83.8602 52.9768C84.167 48.5663 81.415 44.2491 71.7589 43.8901C62.1022 43.5318 60.1203 49.6199 59.6147 52.8197C59.5294 53.353 59.8049 56.4884 60.3578 56.9664C59.4718 57.4794 59.2877 58.5636 59.3349 59.4318Z" fill="#F9AE90"/>
<path d="M75.9062 63.9336C75.9062 63.9336 76.1038 66.7647 78.4876 66.8727C80.8708 66.9807 81.0899 64.6411 81.0899 64.6411L75.9062 63.9336Z" fill="white"/>
<path d="M78.0418 67.9529C77.5779 67.8651 77.3245 67.5442 77.3104 67.5252C77.238 67.4319 77.2552 67.2963 77.3491 67.2246C77.4429 67.1522 77.5767 67.1693 77.6491 67.262C77.6657 67.2822 77.9945 67.6792 78.5916 67.4964C78.7051 67.4614 78.8254 67.5252 78.8597 67.6387C78.8947 67.7522 78.8309 67.8719 78.718 67.9063C78.4572 67.9854 78.2314 67.9885 78.0418 67.9529Z" fill="#DF6A5D"/>
<path d="M80.8638 60.4617C81.1868 60.4867 81.4876 60.0028 81.5357 59.3807C81.5838 58.7587 81.3609 58.2343 81.038 58.2093C80.715 58.1843 80.4141 58.6683 80.366 59.2903C80.3179 59.9123 80.5408 60.4368 80.8638 60.4617Z" fill="#1C1A0F"/>
<path d="M79.5175 58.5363C79.4856 58.5246 79.4567 58.5044 79.4359 58.4743C79.3837 58.3988 79.4021 58.297 79.4776 58.2442C79.5402 58.2012 81.0269 57.19 82.348 58.1153C82.4228 58.1669 82.4406 58.27 82.3885 58.3454C82.3357 58.4197 82.2332 58.4375 82.1584 58.3859C81.0245 57.592 79.6789 58.5068 79.6654 58.516C79.6206 58.5467 79.5653 58.5528 79.5175 58.5363Z" fill="#1C1A0F"/>
<path d="M75.4107 60.1558C75.7337 60.1808 76.0345 59.6971 76.0826 59.0754C76.1307 58.4538 75.9078 57.9296 75.5848 57.9046C75.2618 57.8796 74.961 58.3633 74.913 58.985C74.8649 59.6067 75.0877 60.1309 75.4107 60.1558Z" fill="#1C1A0F"/>
<path d="M73.8189 58.4175C73.7851 58.4108 73.7544 58.393 73.7299 58.3666C73.6691 58.2985 73.6741 58.1942 73.7422 58.1335C73.7992 58.0825 75.1461 56.8915 76.5727 57.642C76.6537 57.6837 76.685 57.7837 76.642 57.8647C76.599 57.9457 76.5003 57.9764 76.4193 57.934C75.1939 57.2892 73.9759 58.3672 73.9631 58.3783C73.9226 58.4157 73.8686 58.428 73.8189 58.4175Z" fill="#1C1A0F"/>
<g opacity="0.5">
<path d="M81.2038 61.4801C81.2321 61.8636 82.0917 62.1231 83.2103 62.1164C83.098 61.5832 82.9624 61.0763 82.809 60.6094C81.853 60.7842 81.1781 61.1303 81.2038 61.4801Z" fill="#DF6A5D"/>
</g>
<g opacity="0.5">
<path d="M72.8595 62.8076C74.2034 62.7111 75.2673 62.2784 75.2359 61.841C75.2045 61.4036 74.0897 61.1273 72.7458 61.2238C71.4019 61.3202 70.338 61.753 70.3693 62.1904C70.4007 62.6277 71.5156 62.9041 72.8595 62.8076Z" fill="#DF6A5D"/>
</g>
<path d="M65.2109 64.9868H65.2281C65.2293 64.9868 65.2293 64.9868 65.2293 64.9868L65.3011 64.9856C65.3637 65.131 65.4343 65.274 65.5085 65.4194C65.5398 65.482 65.5736 65.5458 65.6067 65.6084C65.6092 65.6146 65.6128 65.6201 65.6171 65.6262C65.9988 65.544 66.4749 65.374 66.8952 65.0396C67.1413 64.842 67.3689 64.588 67.5444 64.2554C67.6352 64.0861 67.5708 63.8744 67.3996 63.7848C67.2296 63.6916 67.018 63.7566 66.9265 63.9284C66.7296 64.2966 66.4357 64.5395 66.1338 64.7009C65.9288 64.8095 65.7202 64.8801 65.5343 64.9243C65.414 64.9543 65.303 64.974 65.2109 64.9868Z" fill="#DF6A5D"/>
<path d="M66.0522 64.8557C65.8184 64.9446 65.5429 64.9894 65.3189 65.0146C65.3195 65.0275 65.3226 65.0391 65.3232 65.0526C65.3938 66.0454 64.644 66.9118 63.6499 66.9824C62.6559 67.0529 61.7908 66.3025 61.7196 65.3091C61.6558 64.4133 62.2608 63.6229 63.1088 63.4241C63.3088 63.1529 63.3008 62.9007 63.0554 62.6719C61.7957 62.905 60.882 64.0543 60.9753 65.3613C61.0759 66.7652 62.2994 67.826 63.7027 67.726C65.1066 67.626 66.1675 66.4025 66.0675 64.9986C66.0644 64.9501 66.0583 64.9029 66.0522 64.8557Z" fill="white"/>
<path d="M62.0155 47.2731C63.9691 45.0273 66.7493 43.162 70.2143 43.1798C75.0751 43.2044 79.6464 44.6592 82.2646 47.1498C83.5268 48.3463 84.3355 49.7808 84.5073 51.4136C85.0393 56.4358 83.9029 55.5105 83.9029 55.5105C83.9029 55.5105 83.9256 55.3927 83.717 54.3306H83.7151C83.5918 53.6906 83.3844 52.7071 83.0359 51.2013C82.2045 47.6093 70.6377 47.8087 71.5108 50.1079C71.5108 50.1079 71.5629 50.3981 71.5537 50.8497C71.5464 51.3326 71.466 52.0008 71.1758 52.6905C71.0843 52.7089 70.996 52.7298 70.9138 52.7482C69.7676 53.0218 68.8331 53.4035 68.0692 53.8477C68.0692 53.8477 68.0673 53.8496 68.0655 53.8514C67.9697 53.9281 66.2904 55.297 66.6383 57.1212C66.9941 58.9994 67.8219 61.4317 66.5112 61.0329C65.2006 60.6322 64.6889 59.1185 64.6889 59.1185C64.6889 59.1185 64.6889 59.1185 64.687 59.1172C63.9593 58.3091 63.069 57.509 61.7903 57.1611C61.1834 53.8637 60.8822 50.4828 62.0155 47.2731Z" fill="#5C100B"/>
<path d="M59.3176 57.1533C60.095 56.8232 61.7891 57.1533 61.7891 57.1533C63.0672 57.5024 63.9575 58.3026 64.6853 59.1101C64.6871 59.1113 64.6871 59.1113 64.6871 59.1113C64.6871 59.1113 65.1982 60.6244 66.5101 61.0257C67.8201 61.4239 66.993 58.9916 66.6371 57.114C66.2886 55.2892 67.968 53.9215 68.0637 53.8442C68.0655 53.8424 68.0674 53.8405 68.0674 53.8405C68.8325 53.3963 69.7664 53.014 70.9126 52.741C70.9954 52.7232 71.0832 52.7023 71.1752 52.6827C71.4642 51.9936 71.5458 51.3254 71.5526 50.8425C70.6181 50.3774 65.6425 48.3974 62.2205 49.2116C62.8862 48.2967 62.4745 45.7344 62.4745 45.7344C62.4745 45.7344 58.8696 49.1981 58.2155 51.9145C57.5584 54.629 58.542 57.4847 59.3176 57.1533Z" fill="#5C100B"/>
<path d="M78.9897 62.8078C79.0437 62.8072 79.0971 62.7918 79.1462 62.7593L80.4212 61.9175C80.509 61.8604 80.5587 61.7622 80.5531 61.6579C80.547 61.5548 80.4875 61.4616 80.3954 61.4131C79.3247 60.8566 78.6473 59.9472 78.2638 58.5513C78.2209 58.3954 78.0601 58.3028 77.9036 58.347C77.7466 58.3899 77.6551 58.5513 77.6981 58.7071C78.0767 60.084 78.7197 61.0437 79.7052 61.688L78.8228 62.2697C78.6884 62.3592 78.651 62.5409 78.74 62.6759C78.797 62.763 78.8921 62.8096 78.9897 62.8078Z" fill="#DF6A5D"/>
<path d="M74.3706 62.8434C72.4433 62.8434 70.875 61.2751 70.875 59.3478C70.875 57.4199 72.4433 55.8516 74.3706 55.8516C76.2985 55.8516 77.8663 57.4199 77.8663 59.3478C77.8663 61.2751 76.2985 62.8434 74.3706 62.8434ZM74.3706 56.4013C72.7458 56.4013 71.4242 57.723 71.4242 59.3478C71.4242 60.9726 72.7458 62.2943 74.3706 62.2943C75.9948 62.2943 77.3177 60.9726 77.3177 59.3478C77.3177 57.723 75.9954 56.4013 74.3706 56.4013Z" fill="white"/>
<path d="M82.6681 62.8434C80.7396 62.8434 79.1719 61.2751 79.1719 59.3478C79.1719 57.4199 80.7402 55.8516 82.6681 55.8516C84.596 55.8516 86.1638 57.4199 86.1638 59.3478C86.1638 61.2751 84.596 62.8434 82.6681 62.8434ZM82.6681 56.4013C81.0433 56.4013 79.7211 57.723 79.7211 59.3478C79.7211 60.9726 81.0427 62.2943 82.6681 62.2943C84.2923 62.2943 85.6146 60.9726 85.6146 59.3478C85.6146 57.723 84.2923 56.4013 82.6681 56.4013Z" fill="white"/>
<path d="M64.0869 58.5485L63.75 58.1141C63.8862 58.0079 67.145 55.5382 71.6586 57.233L71.4653 57.7472C67.2352 56.1598 64.1175 58.524 64.0869 58.5485Z" fill="white"/>
<path d="M77.7442 59.3016L77.4141 58.8622C77.808 58.5646 78.775 58.1836 79.6132 58.8684L79.2659 59.2942C78.5553 58.7131 77.7773 59.277 77.7442 59.3016Z" fill="white"/>
<path d="M75.6258 55.3627C76.3627 55.6235 76.9309 54.6675 76.3369 54.1588C76.0264 53.8931 75.5871 53.6906 74.968 53.6839C72.2829 53.6551 70.8594 55.7449 70.8594 55.7449C70.8594 55.7449 73.4929 54.9749 74.8502 55.1719C75.165 55.2173 75.4165 55.289 75.6258 55.3627Z" fill="#1C1A0F"/>
<path d="M80.0599 55.3466C79.3046 55.5485 78.8143 54.5502 79.4463 54.0906C79.7764 53.8494 80.2311 53.6825 80.8483 53.7255C83.5285 53.9102 83.9543 55.7473 83.9543 55.7473C83.9543 55.7473 82.2173 55.1294 80.8477 55.2178C80.5299 55.238 80.274 55.2895 80.0599 55.3466Z" fill="#1C1A0F"/>
<path d="M65.4249 62.9478C65.2838 62.9325 65.1598 62.8306 65.1236 62.6846C64.5272 60.2781 61.5697 59.381 61.5403 59.3724C61.355 59.3178 61.2488 59.1239 61.3034 58.9392C61.3574 58.7539 61.5513 58.6472 61.7366 58.7018C61.8741 58.7417 65.1089 59.7161 65.8023 62.5165C65.8489 62.7036 65.7348 62.8932 65.547 62.9393C65.5059 62.9497 65.4648 62.9528 65.4249 62.9478Z" fill="#DF6A5D"/>
<path d="M62.3117 61.7543C62.2675 61.75 62.2239 61.7365 62.1834 61.7144C62.0135 61.623 61.9502 61.4101 62.0423 61.2407C62.0674 61.1941 62.6724 60.105 64.0929 60.0859C64.285 60.0847 64.4439 60.2381 64.4463 60.4308C64.4488 60.6241 64.2948 60.7824 64.1015 60.7848C63.0872 60.7977 62.6614 61.5647 62.6571 61.5727C62.5872 61.7021 62.4479 61.7696 62.3117 61.7543Z" fill="#DF6A5D"/>
<path d="M59.9001 86.4653L60.9991 88.23L62.1029 90.0198L64.31 93.6026L66.5159 97.181L68.7359 100.735C70.2195 103.094 71.7057 105.441 73.2231 107.716C73.9766 108.858 74.7423 109.976 75.5112 111.058C76.2738 112.138 77.0556 113.188 77.8072 114.108C78.1778 114.565 78.5478 114.991 78.8546 115.313L78.9614 115.422C78.9982 115.461 79.0332 115.497 79.0589 115.521L79.2013 115.662L79.2271 115.69C79.2301 115.693 79.2289 115.693 79.2301 115.696C79.2307 115.698 79.2307 115.699 79.2307 115.703C79.2295 115.705 79.2338 115.714 79.2166 115.699C79.1902 115.685 79.1626 115.674 79.1344 115.665C79.1344 115.665 79.1326 115.667 79.1301 115.672C79.1258 115.674 79.1301 115.677 79.1399 115.683L79.1596 115.696L79.1786 115.712C79.1884 115.717 79.2037 115.724 79.2166 115.73L79.2964 115.773L79.405 115.82C79.4375 115.835 79.4842 115.851 79.5283 115.867L79.6639 115.919C79.7707 115.951 79.8603 115.988 79.9799 116.02C80.4291 116.155 80.9678 116.277 81.5378 116.389C82.6859 116.61 83.9628 116.766 85.2648 116.896C86.5699 117.02 87.9143 117.119 89.2722 117.188C91.9904 117.338 94.7657 117.409 97.5557 117.458C98.9516 117.479 100.354 117.511 101.756 117.516L105.945 117.57L105.994 117.571C107.951 117.596 109.515 119.203 109.491 121.16C109.469 122.816 108.311 124.191 106.77 124.56C106.39 124.649 106.043 124.729 105.682 124.809C105.325 124.888 104.969 124.969 104.611 125.041L102.467 125.469C101.033 125.728 99.5977 125.984 98.1539 126.198C95.2657 126.635 92.3524 126.978 89.3777 127.189C87.8904 127.286 86.3877 127.365 84.8494 127.375C83.3087 127.389 81.7428 127.351 80.0689 127.191C79.2301 127.11 78.365 126.992 77.4274 126.802C77.1985 126.758 76.9482 126.694 76.7089 126.64L76.3327 126.541C76.2063 126.507 76.0818 126.475 75.9462 126.432L75.5492 126.309L75.1295 126.162L74.9178 126.086L74.6932 125.993L74.4693 125.9C74.3963 125.87 74.3196 125.838 74.2367 125.798C74.0753 125.723 73.9158 125.644 73.7563 125.563C73.5753 125.465 73.3943 125.362 73.2157 125.257C73.12 125.2 73.0525 125.156 72.9782 125.108L72.7592 124.963L72.5432 124.817L72.3573 124.683C72.2358 124.593 72.1057 124.498 71.9934 124.41L71.6707 124.152C71.559 124.063 71.4627 123.981 71.3676 123.898L71.0786 123.649C70.3465 122.998 69.7421 122.387 69.1672 121.779C68.5941 121.173 68.0713 120.575 67.5621 119.979C67.0546 119.383 66.5631 118.79 66.0882 118.197C65.1396 117.011 64.2382 115.822 63.359 114.631C61.6102 112.244 59.9548 109.844 58.3557 107.418C57.5532 106.206 56.7733 104.986 56.0014 103.762C55.2319 102.537 54.4588 101.317 53.7176 100.077C52.9739 98.8396 52.226 97.6063 51.5087 96.3527C51.1485 95.7275 50.7846 95.104 50.4312 94.4727C50.0765 93.8357 49.728 93.2191 49.3715 92.554C47.7836 89.5915 48.8984 85.9039 51.8603 84.3165C54.6993 82.7954 58.2054 83.7551 59.8891 86.4463L59.9001 86.4653Z" fill="#F9AE90"/>
<path d="M104.039 117.539C104.039 117.539 109.42 115.905 112.811 116.458C116.202 117.01 117.258 118.581 117.258 118.581L115.488 124.926L102.453 125.383L104.039 117.539Z" fill="#F9AE90"/>
<path d="M99.9567 117.546C102.911 117.501 105.978 117.699 108.875 117.052C110.384 116.715 111.796 116.418 113.34 116.72C114.81 117.006 116.165 117.69 117.438 118.459C117.657 118.592 117.856 118.249 117.638 118.117C115.283 116.694 112.793 115.821 110.034 116.383C108.386 116.718 106.809 117.031 105.119 117.07C103.399 117.11 101.677 117.124 99.9561 117.149C99.7027 117.153 99.7014 117.55 99.9567 117.546Z" fill="#DF6A5D"/>
<path d="M79.1009 115.7C77.9081 116.383 76.8626 117.207 76.3576 118.527C76.2668 118.766 76.6496 118.869 76.7398 118.633C77.2049 117.418 78.2082 116.668 79.301 116.042C79.5225 115.916 79.3231 115.573 79.1009 115.7Z" fill="#DF6A5D"/>
<path d="M75.8334 117.136C76.4506 116.657 77.4588 116.602 78.2049 116.685C78.4589 116.713 78.4565 116.316 78.2049 116.289C77.3379 116.193 76.2617 116.304 75.5536 116.856C75.3523 117.013 75.6346 117.292 75.8334 117.136Z" fill="#DF6A5D"/>
<path d="M151.473 202.495H140.651C140.651 202.495 138.148 190.484 137.308 183.75C136.467 177.014 136.031 161.047 136.031 161.047C136.031 161.047 127.406 163.848 109.356 162.792C69.358 160.456 84.5241 131.07 84.5241 131.07C85.8753 132.937 94.1538 131.643 99.8118 132.534C117.177 134.201 132.238 141.017 141.275 144.916C143.452 145.855 145.386 146.848 147.081 147.893C149.26 149.236 150.623 153.312 151.444 158.671C153.914 174.781 151.473 202.495 151.473 202.495Z" fill="#3351A3"/>
<path d="M142.032 196.684C141.852 196.684 141.69 196.557 141.653 196.373C140.093 188.646 139.568 179.029 139.147 171.303C138.798 164.895 138.468 158.843 137.645 158.116C136.978 157.527 134.21 157.986 130.706 158.568C123.735 159.725 113.201 161.474 101.582 158.77C95.2536 157.298 90.6013 154.224 87.7555 149.634C82.8455 141.719 85.0839 131.904 85.1073 131.806C85.1563 131.598 85.365 131.469 85.573 131.518C85.781 131.568 85.9104 131.776 85.8613 131.984C85.8393 132.079 83.6751 141.593 88.4176 149.231C91.1524 153.637 95.6402 156.592 101.758 158.015C113.226 160.684 123.669 158.95 130.579 157.802C134.717 157.116 137.216 156.701 138.158 157.534C139.177 158.434 139.463 162.859 139.921 171.258C140.342 178.961 140.863 188.547 142.413 196.219C142.456 196.428 142.321 196.633 142.111 196.675C142.084 196.681 142.057 196.684 142.032 196.684Z" fill="#3351A3"/>
<path d="M151.686 196.908C151.684 196.908 151.681 196.908 151.677 196.908L139.644 196.65C139.431 196.645 139.261 196.468 139.266 196.254C139.271 196.04 139.446 195.866 139.662 195.875L151.695 196.134C151.909 196.138 152.078 196.315 152.073 196.529C152.07 196.741 151.897 196.908 151.686 196.908Z" fill="#3351A3"/>
<path d="M151.188 216.375H143.55L142.079 207.415L141.273 202.512H150.763L150.914 207.415L151.188 216.375Z" fill="#F89E72"/>
<path d="M151.219 216.355H143.581L142.484 209.684L142.109 207.395H150.944L151.017 209.768L151.219 216.355Z" fill="#DA7C2F"/>
<path d="M151.017 209.768L142.484 209.684L142.109 207.395H150.944L151.017 209.768Z" fill="#B45126"/>
<path d="M170.06 228.429H141.171C140.958 228.039 140.84 227.485 140.792 226.824C140.611 224.38 141.391 220.481 141.772 218.022C141.818 217.734 141.86 217.467 141.889 217.224C141.943 216.813 141.975 216.471 141.975 216.219C141.975 214.213 143.752 214.556 143.752 214.556C146.676 217.423 149.985 213.125 151.918 214.535C151.918 214.535 151.997 214.592 152.175 214.73C152.337 214.858 152.583 215.056 152.925 215.344C153.418 215.756 154.109 216.353 155.045 217.195C157.337 219.258 161.239 220.62 164.559 222.009C164.982 222.186 165.375 222.363 165.741 222.538C166.018 222.672 166.278 222.806 166.525 222.939C169.239 224.405 170.103 225.806 170.298 226.824C170.486 227.802 170.06 228.429 170.06 228.429Z" fill="#C14D38"/>
<path d="M166.522 222.928C165.778 223.521 164.123 224.705 162.796 224.705C162.738 224.705 162.679 224.704 162.622 224.698C161.685 224.62 158.241 222.927 155.441 221.388C153.835 220.506 152.369 219.637 151.314 218.941C149.585 217.803 149.285 217.367 149.218 217.065C148.966 215.925 150.85 215.13 152.172 214.719C152.334 214.846 152.581 215.045 152.923 215.332C151.282 215.78 149.933 216.482 149.995 216.88C150.157 217.219 151.866 218.522 155.955 220.76C159.074 222.467 162.032 223.847 162.689 223.902C163.578 223.974 164.885 223.164 165.739 222.526C166.015 222.661 166.275 222.795 166.522 222.928Z" fill="#132549"/>
<path d="M170.033 228.409H141.145C140.931 228.018 140.813 227.465 140.766 226.805H170.271C170.459 227.782 170.033 228.409 170.033 228.409Z" fill="#132549"/>
<path d="M144.12 228.431H143.262C144.119 227.453 144.919 225.951 144.815 223.806C144.676 220.951 142.963 219.027 141.773 218.024C141.819 217.737 141.859 217.469 141.889 217.227C143.173 218.206 145.333 220.353 145.503 223.771C145.602 225.821 144.93 227.35 144.12 228.431Z" fill="#132549"/>
<path d="M154.562 218.876C154.348 218.876 154.154 218.732 154.1 218.515C154.036 218.26 154.192 218.001 154.448 217.938L156.251 217.491C156.506 217.427 156.765 217.582 156.828 217.838C156.891 218.093 156.736 218.351 156.481 218.414L154.676 218.862C154.638 218.871 154.6 218.876 154.562 218.876Z" fill="#F8F0E1"/>
<path d="M152.773 217.393C152.559 217.393 152.365 217.248 152.311 217.031C152.248 216.776 152.403 216.518 152.658 216.454L154.463 216.006C154.718 215.943 154.976 216.099 155.039 216.354C155.102 216.609 154.947 216.867 154.692 216.93L152.888 217.378C152.85 217.388 152.811 217.393 152.773 217.393Z" fill="#F8F0E1"/>
<path d="M156.351 219.939C156.137 219.939 155.943 219.795 155.889 219.577C155.825 219.323 155.981 219.064 156.235 219.001L158.04 218.553C158.295 218.49 158.554 218.645 158.616 218.901C158.68 219.156 158.525 219.414 158.27 219.477L156.465 219.925C156.427 219.935 156.389 219.939 156.351 219.939Z" fill="#F8F0E1"/>
<path d="M158.195 220.943C157.981 220.943 157.787 220.799 157.733 220.581C157.67 220.326 157.825 220.068 158.08 220.005L159.885 219.557C160.14 219.493 160.397 219.649 160.461 219.905C160.524 220.159 160.369 220.418 160.113 220.481L158.31 220.929C158.271 220.938 158.232 220.943 158.195 220.943Z" fill="#F8F0E1"/>
<path d="M160.116 221.861C159.903 221.861 159.709 221.716 159.655 221.499C159.591 221.244 159.747 220.986 160.002 220.923L161.807 220.475C162.062 220.411 162.32 220.567 162.383 220.822C162.446 221.077 162.291 221.336 162.036 221.398L160.231 221.846C160.193 221.856 160.154 221.861 160.116 221.861Z" fill="#F8F0E1"/>
<path d="M162.241 222.693C162.028 222.693 161.834 222.548 161.78 222.331C161.716 222.076 161.872 221.818 162.127 221.755L163.931 221.307C164.186 221.243 164.445 221.399 164.508 221.655C164.572 221.909 164.416 222.168 164.161 222.231L162.356 222.678C162.318 222.688 162.28 222.693 162.241 222.693Z" fill="#F8F0E1"/>
<path d="M132.652 202.535H121.832C121.832 202.535 119.327 190.523 118.487 183.789C117.646 177.053 117.211 161.086 117.211 161.086C117.211 161.086 108.587 163.887 90.5347 162.831C50.5377 160.495 65.7039 131.109 65.7039 131.109C67.055 132.976 77.1916 135.548 82.8495 136.44C100.214 138.107 113.416 141.056 122.454 144.955C124.631 145.894 126.565 146.887 128.26 147.932C130.44 149.275 131.802 153.351 132.624 158.71C135.093 174.82 132.652 202.535 132.652 202.535Z" fill="#3351A3"/>
<path d="M123.204 196.723C123.023 196.723 122.861 196.596 122.825 196.412C121.264 188.685 120.741 179.069 120.319 171.342C119.97 164.934 119.64 158.882 118.817 158.155C118.15 157.566 115.381 158.025 111.877 158.607C104.906 159.764 94.3718 161.513 82.7541 158.81C76.4261 157.338 71.7738 154.264 68.9274 149.673C64.0174 141.758 66.2558 131.943 66.2791 131.845C66.3282 131.637 66.5374 131.508 66.7455 131.558C66.9535 131.607 67.0823 131.815 67.0332 132.023C67.0112 132.118 64.8476 141.632 69.5895 149.27C72.3242 153.676 76.8127 156.631 82.9302 158.055C94.3976 160.723 104.84 158.989 111.751 157.841C115.89 157.155 118.387 156.74 119.331 157.573C120.348 158.473 120.635 162.898 121.094 171.298C121.513 179 122.036 188.586 123.586 196.258C123.627 196.468 123.492 196.672 123.282 196.714C123.255 196.72 123.23 196.723 123.204 196.723Z" fill="#3351A3"/>
<path d="M132.859 196.931C132.855 196.931 132.853 196.931 132.851 196.931L120.817 196.673C120.603 196.669 120.434 196.492 120.438 196.277C120.442 196.063 120.617 195.889 120.834 195.899L132.866 196.157C133.081 196.161 133.249 196.339 133.246 196.553C133.241 196.763 133.068 196.931 132.859 196.931Z" fill="#3351A3"/>
<path d="M46.9434 201.766L46.7488 202.501L46.5408 203.286L40.5307 225.917L40.2527 226.964L38.9525 231.862H22.1542L20.8037 226.775L20.6718 226.277L19.7177 222.683L19.5729 222.136L18.7243 218.941L18.6009 218.48L15.6894 207.512L15.5821 207.107L14.1641 201.766H46.9434Z" fill="#F9A137"/>
<path d="M20.2755 217.003C19.8054 217.684 19.3011 218.355 18.7353 218.956L18.612 218.495C19.0912 217.963 19.5213 217.382 19.9239 216.799C21.0185 215.208 22.1162 213.346 21.51 211.354C20.9921 209.653 19.4894 208.343 17.8156 207.832C17.1204 207.621 16.4117 207.528 15.7011 207.527L15.5938 207.122C16.5227 207.11 17.4474 207.245 18.331 207.581C19.9674 208.201 21.386 209.553 21.9021 211.246C22.5427 213.35 21.4345 215.319 20.2755 217.003Z" fill="#CA6F28"/>
<path d="M39.3267 201.766C37.8731 203.03 36.3857 204.253 34.8462 205.412C32.9245 206.86 30.8143 208.599 28.4342 209.198C26.4474 209.698 24.3305 209.168 23.2138 207.36C22.1658 205.664 22.286 203.654 22.6591 201.766H23.0745C22.629 204.04 22.5167 206.752 24.5538 208.252C26.5529 209.725 29.1705 208.727 31.0432 207.57C33.0349 206.339 34.9156 204.899 36.7318 203.422C37.3994 202.879 38.0572 202.328 38.7082 201.766H39.3267Z" fill="#CA6F28"/>
<path d="M46.77 202.492L46.562 203.277C45.7183 204.176 44.9789 205.174 44.3433 206.238C42.0276 210.111 41.0268 214.764 40.5746 219.212C40.3482 221.433 40.3107 223.689 40.5519 225.908L40.2739 226.955C40.1843 226.372 40.1181 225.785 40.0714 225.194C39.6953 220.514 40.3727 215.588 41.7717 211.114C42.7737 207.906 44.3758 204.834 46.77 202.492Z" fill="#CA6F28"/>
<path d="M38.5368 208.334C34.5902 215.532 33.1691 223.84 34.3166 231.862H33.8877C33.8459 231.58 33.8079 231.298 33.7735 231.017C32.493 220.508 35.756 209.823 42.5669 201.766H43.0983C41.3526 203.789 39.8217 205.988 38.5368 208.334Z" fill="#CA6F28"/>
<path d="M31.0569 219.516C30.8906 223.637 29.9358 227.738 29.6076 231.852H29.2026C29.2732 230.963 29.3732 230.076 29.4885 229.191C29.8542 226.386 30.3641 223.598 30.5783 220.774C30.6863 219.332 30.7955 217.806 30.5697 216.369C30.3598 215.04 29.5536 213.506 28.0153 213.492C26.512 213.479 25.4345 214.688 24.5608 215.757C23.6502 216.871 22.7844 218.023 21.9641 219.205C21.1805 220.334 20.4368 221.491 19.7386 222.673L19.5938 222.125C20.5657 220.508 21.6192 218.939 22.7495 217.425C24.0582 215.67 26.0365 212.428 28.6902 213.182C31.2814 213.919 31.1422 217.42 31.0569 219.516Z" fill="#CA6F28"/>
<path d="M25.5424 231.189C25.5074 231.408 25.4669 231.627 25.4227 231.843H25.0024C25.3111 230.379 25.424 228.872 25.3227 227.365C25.2761 226.666 25.2055 225.874 24.7926 225.277C24.1207 224.308 22.9733 224.781 22.2045 225.355C21.6688 225.752 21.2012 226.228 20.8116 226.757L20.6797 226.258C21.1061 225.732 21.6044 225.265 22.1707 224.879C23.4764 223.988 24.9306 224.161 25.4675 225.763C26.0259 227.425 25.8173 229.492 25.5424 231.189Z" fill="#CA6F28"/>
<path d="M30.5934 202.801C39.6455 202.801 46.9836 202.335 46.9836 201.76C46.9836 201.185 39.6455 200.719 30.5934 200.719C21.5413 200.719 14.2031 201.185 14.2031 201.76C14.2031 202.335 21.5413 202.801 30.5934 202.801Z" fill="#14130F"/>
<path d="M30.6242 176.353C30.6242 176.353 21.1442 171.389 20.7674 162.74C20.7122 161.486 20.7901 160.209 20.9724 158.929L25.1908 161.319C25.1405 161.249 23.1071 158.431 21.4798 156.309C23.6452 147.383 29.8952 139.145 29.8952 139.145C29.8952 139.145 33.6013 143.942 36.3508 150.272V150.273L33.6786 156.499L37.2951 152.619C40.3263 160.843 41.0393 170.811 30.6242 176.353Z" fill="#047C6D"/>
<path d="M29.9378 151.898C30.4863 165.07 30.3851 178.276 30.3538 191.457C30.3464 194.893 30.3335 198.329 30.3225 201.765C30.3212 202.046 30.7581 202.046 30.7587 201.765C30.8017 188.449 30.8784 175.131 30.6471 161.816C30.5894 158.51 30.5115 155.203 30.3746 151.899C30.363 151.618 29.9255 151.617 29.9378 151.898Z" fill="#14130F"/>
<path d="M25.0751 155.01C26.7851 156.878 28.4965 158.745 30.2071 160.612C30.3974 160.82 30.706 160.51 30.5158 160.303C28.8051 158.436 27.0944 156.569 25.3831 154.702C25.1935 154.494 24.8855 154.804 25.0751 155.01Z" fill="#14130F"/>
<path d="M36.109 158.946C34.1847 160.594 32.2611 162.241 30.3375 163.888C30.124 164.072 30.4338 164.379 30.6468 164.197C32.5704 162.549 34.494 160.902 36.417 159.255C36.6311 159.072 36.3206 158.764 36.109 158.946Z" fill="#14130F"/>
<path d="M24.5884 165.246C26.5249 166.878 28.462 168.511 30.3979 170.143C30.6121 170.323 30.9219 170.015 30.7065 169.833C28.7707 168.202 26.8336 166.57 24.8977 164.938C24.6835 164.757 24.3731 165.065 24.5884 165.246Z" fill="#14130F"/>
<path d="M36.2514 190.153C36.2514 190.153 46.2364 190.586 50.5954 183.777C51.228 182.789 51.7637 181.721 52.2171 180.603L47.6894 180.555C47.7624 180.522 50.7261 179.199 53.0356 178.247C55.471 170.022 54.2843 160.438 54.2843 160.438C54.2843 160.438 49.0424 162.575 43.8532 166.4L43.8526 166.4L43.0924 172.683L41.9904 167.853C35.6851 173.074 30.4364 180.793 36.2514 190.153Z" fill="#047C6D"/>
<path d="M47.8626 170.492C43.1821 177.826 38.3789 185.088 34.0721 192.652C32.7866 194.91 31.5453 197.193 30.347 199.498C30.2175 199.747 30.5943 199.969 30.7244 199.719C34.7415 191.992 39.3275 184.603 44.0283 177.278C45.4328 175.09 46.841 172.904 48.2393 170.712C48.3909 170.475 48.0129 170.256 47.8626 170.492Z" fill="#14130F"/>
<path d="M50.6381 175.081C48.3249 175.805 46.0123 176.528 43.699 177.252C43.4315 177.336 43.5462 177.757 43.815 177.673C46.1282 176.95 48.4409 176.226 50.7541 175.503C51.0216 175.419 50.9081 174.998 50.6381 175.081Z" fill="#14130F"/>
<path d="M39.5135 173.618C40.2793 175.804 41.045 177.991 41.8108 180.177C41.9028 180.441 42.325 180.328 42.2317 180.062C41.4666 177.875 40.7008 175.688 39.935 173.502C39.8424 173.238 39.4196 173.351 39.5135 173.618Z" fill="#14130F"/>
<path d="M46.1654 183.566C43.7877 183.986 41.41 184.404 39.0324 184.824C38.7569 184.873 38.8734 185.294 39.1483 185.246C41.526 184.826 43.9037 184.408 46.2813 183.988C46.5587 183.939 46.4409 183.518 46.1654 183.566Z" fill="#14130F"/>
<path d="M25.7976 192.97C25.7976 192.97 16.22 195.826 10.332 190.285C9.47791 189.482 8.69741 188.577 7.98565 187.602L12.3649 186.452C12.2857 186.438 9.08889 185.878 6.61734 185.518C2.2498 178.135 1.0625 168.551 1.0625 168.551C1.0625 168.551 6.66827 169.345 12.633 171.789L12.6336 171.789L14.9027 177.697L14.7934 172.745C22.1823 176.27 29.1546 182.474 25.7976 192.97Z" fill="#047C6D"/>
<path d="M9.42671 177.045C14.9717 182.284 20.2934 187.716 25.3924 193.389C27.0122 195.191 28.6192 197.004 30.2262 198.817C30.4134 199.027 30.7214 198.717 30.5355 198.508C25.4801 192.804 20.3996 187.13 14.9705 181.776C13.2457 180.076 11.497 178.4 9.73596 176.737C9.53102 176.544 9.22177 176.853 9.42671 177.045Z" fill="#14130F"/>
<path d="M8.19445 182.304C10.5562 182.439 12.9173 182.573 15.279 182.707C15.56 182.723 15.5588 182.286 15.279 182.271C12.9173 182.136 10.5562 182.002 8.19445 181.868C7.91404 181.852 7.91466 182.289 8.19445 182.304Z" fill="#14130F"/>
<path d="M18.1417 177.721C17.9282 180.076 17.7152 182.432 17.5011 184.788C17.4753 185.068 17.9128 185.066 17.938 184.788C18.1515 182.432 18.3644 180.076 18.5786 177.721C18.6043 177.441 18.1668 177.443 18.1417 177.721Z" fill="#14130F"/>
<path d="M14.5453 189.459C16.8334 189.294 19.1197 189.114 21.4077 188.949C21.6869 188.929 21.6888 188.492 21.4077 188.512C19.1197 188.678 16.8334 188.857 14.5453 189.022C14.2674 189.042 14.2649 189.479 14.5453 189.459Z" fill="#14130F"/>
<path d="M132.36 216.376H124.722L123.251 207.415L122.445 202.512H131.936L132.085 207.415L132.36 216.376Z" fill="#F89E72"/>
<path d="M132.382 216.383H124.745L123.65 209.712L123.273 207.422H132.108L132.181 209.796L132.382 216.383Z" fill="#DA7C2F"/>
<path d="M132.181 209.796L123.65 209.712L123.273 207.422H132.108L132.181 209.796Z" fill="#B45126"/>
<path d="M151.233 228.452H122.344C122.129 228.062 122.012 227.508 121.964 226.848C121.783 224.403 122.563 220.504 122.945 218.045C122.992 217.757 123.031 217.49 123.062 217.247C123.115 216.836 123.149 216.494 123.149 216.242C123.149 214.236 124.925 214.579 124.925 214.579C127.848 217.447 131.158 213.148 133.091 214.558C133.091 214.558 133.169 214.615 133.346 214.753C133.51 214.882 133.755 215.079 134.098 215.367C134.591 215.779 135.281 216.376 136.217 217.218C138.509 219.281 142.41 220.643 145.732 222.032C146.155 222.209 146.547 222.386 146.913 222.562C147.19 222.695 147.451 222.829 147.697 222.962C150.411 224.429 151.275 225.829 151.47 226.847C151.658 227.825 151.233 228.452 151.233 228.452Z" fill="#C14D39"/>
<path d="M147.694 222.955C146.95 223.548 145.295 224.732 143.968 224.732C143.909 224.732 143.851 224.731 143.794 224.726C142.857 224.647 139.414 222.955 136.613 221.416C135.008 220.533 133.542 219.665 132.487 218.969C130.758 217.83 130.458 217.394 130.39 217.092C130.137 215.952 132.022 215.158 133.344 214.746C133.507 214.874 133.753 215.072 134.096 215.36C132.454 215.807 131.106 216.509 131.168 216.908C131.329 217.246 133.039 218.55 137.127 220.787C140.246 222.494 143.204 223.874 143.861 223.929C144.75 224.001 146.058 223.192 146.911 222.554C147.187 222.688 147.448 222.822 147.694 222.955Z" fill="#132549"/>
<path d="M151.214 228.456H122.325C122.11 228.065 121.993 227.512 121.945 226.852H151.452C151.639 227.828 151.214 228.456 151.214 228.456Z" fill="#132549"/>
<path d="M125.332 228.431H124.474C125.33 227.453 126.131 225.951 126.026 223.806C125.887 220.952 124.174 219.027 122.984 218.024C123.031 217.737 123.071 217.469 123.102 217.227C124.384 218.207 126.546 220.353 126.714 223.771C126.813 225.821 126.141 227.349 125.332 228.431Z" fill="#132549"/>
<path d="M135.734 218.923C135.52 218.923 135.326 218.778 135.272 218.562C135.208 218.307 135.364 218.048 135.619 217.985L137.424 217.538C137.679 217.474 137.937 217.63 138 217.884C138.064 218.14 137.908 218.398 137.653 218.461L135.848 218.908C135.81 218.918 135.772 218.923 135.734 218.923Z" fill="#F8F0E1"/>
<path d="M133.898 217.419C133.684 217.419 133.49 217.275 133.436 217.058C133.372 216.803 133.528 216.544 133.783 216.481L135.587 216.034C135.842 215.97 136.101 216.125 136.164 216.381C136.227 216.636 136.072 216.894 135.817 216.957L134.012 217.405C133.974 217.414 133.936 217.419 133.898 217.419Z" fill="#F8F0E1"/>
<path d="M137.53 219.962C137.317 219.962 137.123 219.818 137.069 219.6C137.005 219.346 137.161 219.087 137.416 219.024L139.221 218.577C139.475 218.513 139.734 218.668 139.797 218.924C139.86 219.179 139.705 219.437 139.45 219.5L137.645 219.948C137.607 219.957 137.569 219.962 137.53 219.962Z" fill="#F8F0E1"/>
<path d="M139.366 220.986C139.153 220.986 138.959 220.842 138.905 220.624C138.841 220.369 138.997 220.111 139.252 220.048L141.056 219.6C141.311 219.536 141.57 219.692 141.633 219.948C141.696 220.203 141.541 220.461 141.286 220.524L139.481 220.972C139.443 220.981 139.404 220.986 139.366 220.986Z" fill="#F8F0E1"/>
<path d="M141.241 221.908C141.028 221.908 140.833 221.763 140.78 221.546C140.716 221.291 140.871 221.033 141.126 220.97L142.931 220.522C143.186 220.458 143.445 220.614 143.507 220.869C143.571 221.124 143.416 221.382 143.161 221.446L141.356 221.893C141.318 221.903 141.278 221.908 141.241 221.908Z" fill="#F8F0E1"/>
<path d="M143.413 222.697C143.2 222.697 143.006 222.552 142.952 222.335C142.888 222.08 143.044 221.822 143.299 221.759L145.104 221.311C145.359 221.247 145.617 221.403 145.68 221.658C145.744 221.913 145.588 222.171 145.333 222.235L143.528 222.682C143.49 222.692 143.452 222.697 143.413 222.697Z" fill="#F8F0E1"/>
<path d="M64.0078 62.2578C64.0078 62.2578 70.8518 68.9048 77.9891 68.9564C85.1264 69.0079 80.7036 68.9564 80.7036 68.9564" stroke="#EF4254" stroke-miterlimit="10"/>
<path d="M80.9324 69.7333C81.7796 69.7333 82.4664 69.3951 82.4664 68.978C82.4664 68.5608 81.7796 68.2227 80.9324 68.2227C80.0852 68.2227 79.3984 68.5608 79.3984 68.978C79.3984 69.3951 80.0852 69.7333 80.9324 69.7333Z" fill="#EF4254" stroke="#EF4254" stroke-miterlimit="10"/>
<path d="M51.0379 108.071L48.75 108.422L51.3934 125.669L53.6812 125.319L51.0379 108.071Z" fill="#DA7C2F"/>
<path d="M51.0062 108.059L48.7188 108.409L49.2219 106.662L49.4833 105.758L50.003 106.542L51.0062 108.059Z" fill="#F89E72"/>
<path d="M53.5066 124.06L51.2188 124.41L51.4108 125.663L53.6987 125.313L53.5066 124.06Z" fill="#162318"/>
<path d="M53.6709 126.331L51.6878 126.635C51.6031 126.647 51.5246 126.59 51.5123 126.506L51.3828 125.659L53.6709 125.309L53.8004 126.155C53.812 126.239 53.755 126.318 53.6709 126.331Z" fill="#C24B2B"/>
<path d="M49.9998 106.542L49.2188 106.662L49.4801 105.758L49.9998 106.542Z" fill="#162318"/>
<path d="M51.1887 124.409L53.4766 124.059L53.3392 123.16L51.0513 123.51L51.1887 124.409Z" fill="#B45126"/>
<path d="M49.4239 109.172L51.3801 121.944C51.3942 122.04 51.485 122.107 51.5813 122.092C51.6777 122.077 51.7445 121.987 51.7292 121.891L49.7731 109.118C49.7583 109.022 49.6681 108.956 49.5712 108.971C49.4749 108.985 49.4092 109.075 49.4239 109.172Z" fill="#B45126"/>
<path d="M50.338 109.044L52.2941 121.816C52.3088 121.912 52.399 121.979 52.4954 121.964C52.5917 121.949 52.6586 121.859 52.6433 121.762L50.6871 108.99C50.6724 108.893 50.5822 108.827 50.4859 108.842C50.3895 108.857 50.3233 108.947 50.338 109.044Z" fill="#B45126"/>
<path d="M55.166 108.133L52.8516 108.141L52.9057 125.589L55.2201 125.582L55.166 108.133Z" fill="#856027"/>
<path d="M55.166 108.134L52.8516 108.142L53.6087 106.488L54.0008 105.633L54.3984 106.485L55.166 108.134Z" fill="#F89E72"/>
<path d="M55.2051 124.313L52.8906 124.32L52.8946 125.587L55.209 125.58L55.2051 124.313Z" fill="#162318"/>
<path d="M55.0548 126.593L53.0477 126.599C52.9624 126.599 52.8937 126.531 52.8931 126.446L52.8906 125.589L55.2045 125.582L55.2075 126.439C55.2082 126.523 55.1394 126.592 55.0548 126.593Z" fill="#C24B2B"/>
<path d="M54.3991 106.485L53.6094 106.488L54.0015 105.633L54.3991 106.485Z" fill="#162318"/>
<path d="M52.8887 124.332L55.2031 124.324L55.2 123.415L52.8856 123.423L52.8887 124.332Z" fill="#593D15"/>
<path d="M53.4219 108.998L53.4642 121.919C53.4642 122.017 53.544 122.095 53.6415 122.095C53.7391 122.095 53.8176 122.016 53.8176 121.918L53.7759 108.996C53.7753 108.899 53.6955 108.82 53.598 108.82C53.501 108.821 53.4219 108.9 53.4219 108.998Z" fill="#593D15"/>
<path d="M54.3203 108.998L54.3627 121.919C54.3627 122.017 54.4424 122.095 54.54 122.095C54.6375 122.095 54.7167 122.016 54.7161 121.918L54.6737 108.996C54.6737 108.899 54.594 108.82 54.4964 108.82C54.3995 108.82 54.3203 108.9 54.3203 108.998Z" fill="#593D15"/>
<path d="M59.1429 108.373L56.8516 108.047L54.3949 125.32L56.6862 125.646L59.1429 108.373Z" fill="#344B86"/>
<path d="M59.1505 108.377L56.8594 108.051L57.846 106.525L58.3572 105.734L58.6284 106.635L59.1505 108.377Z" fill="#F89E72"/>
<path d="M56.8616 124.381L54.5703 124.055L54.3919 125.309L56.6832 125.635L56.8616 124.381Z" fill="#162318"/>
<path d="M56.3846 126.633L54.3984 126.35C54.3137 126.338 54.2555 126.261 54.2671 126.177L54.388 125.328L56.6791 125.654L56.5583 126.502C56.546 126.586 56.4687 126.645 56.3846 126.633Z" fill="#C24B2B"/>
<path d="M58.6105 106.635L57.8281 106.525L58.3393 105.734L58.6105 106.635Z" fill="#162318"/>
<path d="M54.56 124.073L56.8516 124.398L56.9793 123.499L54.6878 123.173L54.56 124.073Z" fill="#132549"/>
<path d="M57.2879 108.988L55.4705 121.781C55.457 121.877 55.5239 121.967 55.6202 121.98C55.7171 121.994 55.8067 121.927 55.8202 121.831L57.6377 109.037C57.6512 108.941 57.5843 108.851 57.4873 108.838C57.391 108.824 57.302 108.891 57.2879 108.988Z" fill="#132549"/>
<path d="M58.1786 109.113L56.3611 121.906C56.3476 122.003 56.4145 122.092 56.5108 122.106C56.6078 122.119 56.6974 122.052 56.7108 121.956L58.5283 109.163C58.5418 109.066 58.4749 108.976 58.378 108.963C58.2817 108.949 58.1927 109.016 58.1786 109.113Z" fill="#132549"/>
<path d="M59.9229 115.039L59.8026 115.975L59.6922 116.825L59.5253 118.116L59.4179 118.956L59.2497 120.258L59.1418 121.087L58.973 122.4L58.8669 123.218L58.6963 124.54L58.5926 125.349L58.4202 126.683L58.3165 127.48L58.2275 128.17H49.1322L49.0433 127.48L48.9396 126.683L48.7678 125.349L48.6641 124.54L48.4935 123.218L48.3873 122.4L48.2186 121.087L48.1106 120.258L47.9419 118.956L47.8351 118.116L47.6676 116.825L47.5584 115.975L47.4375 115.039H59.9229Z" fill="#C24B2B"/>
<path d="M59.7911 115.977L59.6807 116.826H47.6561L47.5469 115.977H59.7911Z" fill="#8B2E1C"/>
<path d="M59.5026 118.125L59.3953 118.965H47.9193L47.8125 118.125H59.5026Z" fill="#8B2E1C"/>
<path d="M59.2329 120.266L59.1249 121.095H48.2017L48.0938 120.266H59.2329Z" fill="#8B2E1C"/>
<path d="M58.9607 122.395L58.8545 123.212H48.4811L48.375 122.395H58.9607Z" fill="#8B2E1C"/>
<path d="M58.6729 124.539L58.5692 125.348H48.7443L48.6406 124.539H58.6729Z" fill="#8B2E1C"/>
<path d="M58.4025 126.688L58.2988 127.485H49.0256L48.9219 126.688H58.4025Z" fill="#8B2E1C"/>
<path d="M91.7155 127.936L143.631 127.852C143.731 127.852 143.812 127.771 143.812 127.671L143.801 121.22C143.801 121.119 143.72 121.038 143.62 121.039L91.7045 121.123C91.6044 121.123 91.5234 121.205 91.5234 121.305L91.5345 127.756C91.5345 127.855 91.6149 127.936 91.7155 127.936Z" fill="#5C554C"/>
<path d="M149.295 127.858C151.263 127.854 152.982 126.528 153.487 124.627L163.204 87.9986C163.798 85.7596 162.108 83.5666 159.792 83.5703L136.386 83.6084C134.807 83.6108 133.422 84.6637 132.997 86.1848L121.352 127.902L149.295 127.858Z" fill="#E5E5E5"/>
<path d="M148.957 105.807C148.189 108.186 145.787 110.106 143.591 110.094C141.395 110.082 140.235 108.144 141.002 105.764C141.77 103.385 144.173 101.465 146.369 101.477C148.566 101.488 149.724 103.427 148.957 105.807Z" fill="#FCC865"/>
<path d="M144.571 104.949C144.418 105.425 144.139 105.81 143.947 105.81C143.756 105.808 143.726 105.421 143.88 104.945C144.032 104.469 144.312 104.085 144.503 104.086C144.694 104.087 144.725 104.473 144.571 104.949Z" fill="#14130F"/>
<path d="M146.664 104.966C146.511 105.441 146.232 105.826 146.041 105.825C145.849 105.824 145.819 105.437 145.973 104.962C146.126 104.486 146.405 104.1 146.597 104.102C146.788 104.103 146.818 104.49 146.664 104.966Z" fill="#14130F"/>
<path d="M144.331 107.866C142.621 107.857 142.827 106.003 142.829 105.984C142.841 105.883 142.933 105.784 143.034 105.762C143.134 105.74 143.205 105.805 143.192 105.906C143.185 105.973 143.026 107.484 144.452 107.492C145.881 107.5 146.695 105.989 146.729 105.925C146.782 105.824 146.895 105.759 146.98 105.783C147.067 105.806 147.094 105.906 147.041 106.006C147.03 106.025 146.042 107.876 144.331 107.866Z" fill="#14130F"/>
<path d="M133.003 86.1883L121.455 127.562L118.781 127.566L130.329 86.1926C130.756 84.6709 132.139 83.6167 133.719 83.6137L136.393 83.6094C134.814 83.6124 133.431 84.6666 133.003 86.1883Z" fill="#14130F"/>
<path d="M121.716 127.3C121.693 127.298 121.67 127.293 121.647 127.287C121.437 127.23 121.316 127.012 121.374 126.804L132.83 85.5146C132.888 85.3054 133.104 85.182 133.314 85.2415C133.522 85.2992 133.645 85.5152 133.587 85.7244L122.131 127.014C122.078 127.2 121.902 127.317 121.716 127.3Z" fill="#5C554C"/>
<path d="M57.5972 197.44C56.4087 197.44 55.4453 196.477 55.4453 195.289C55.4453 194.1 56.4087 193.137 57.5972 193.137H84.4375C85.6261 193.137 86.5894 194.1 86.5894 195.289C86.5894 196.477 85.6261 197.44 84.4375 197.44" fill="#14130F"/>
<path d="M97.4255 235.094C96.5241 235.094 95.6841 234.523 95.3841 233.622L61.8764 133.028C61.5009 131.9 62.1108 130.682 63.238 130.306C64.3652 129.93 65.5838 130.54 65.9593 131.667L99.4669 232.262C99.8424 233.389 99.2325 234.608 98.1047 234.983C97.8795 235.058 97.6507 235.094 97.4255 235.094Z" fill="#14130F"/>
<path d="M45.0513 235.094C44.8261 235.094 44.5966 235.058 44.3708 234.983C43.2436 234.608 42.6337 233.389 43.0092 232.262L76.5169 131.667C76.8924 130.54 78.111 129.931 79.2381 130.306C80.3653 130.681 80.9752 131.9 80.5997 133.027L47.0921 233.621C46.792 234.524 45.9526 235.094 45.0513 235.094Z" fill="#14130F"/>
<path d="M195.32 197.44H168.48C167.291 197.44 166.328 196.477 166.328 195.289C166.328 194.1 167.291 193.137 168.48 193.137H195.32C196.509 193.137 197.472 194.1 197.472 195.289C197.472 196.477 196.508 197.44 195.32 197.44Z" fill="#14130F"/>
<path d="M208.307 235.094C207.406 235.094 206.567 234.523 206.267 233.622L172.759 133.028C172.384 131.9 172.993 130.682 174.121 130.306C175.248 129.93 176.467 130.54 176.842 131.667L210.35 232.262C210.725 233.389 210.116 234.608 208.988 234.983C208.762 235.058 208.532 235.094 208.307 235.094Z" fill="#14130F"/>
<path d="M155.941 235.094C155.716 235.094 155.487 235.058 155.261 234.983C154.134 234.608 153.524 233.389 153.9 232.262L187.408 131.667C187.782 130.54 189.001 129.931 190.129 130.306C191.257 130.681 191.866 131.9 191.49 133.027L157.983 233.621C157.682 234.524 156.843 235.094 155.941 235.094Z" fill="#14130F"/>
<path d="M206.142 126.516V131.804C206.142 132.074 206.116 132.34 206.066 132.598C206 132.948 205.89 133.281 205.742 133.595C205.069 135.022 203.618 136.009 201.936 136.009H53.2668C51.5844 136.009 50.1332 135.022 49.4626 133.595C49.3141 133.281 49.2036 132.948 49.138 132.598C49.0877 132.34 49.0625 132.074 49.0625 131.804V126.516H206.142Z" fill="#14130F"/>
<path d="M206.069 132.598C206.002 132.948 205.892 133.281 205.745 133.595H49.4652C49.3167 133.281 49.2063 132.948 49.1406 132.598H206.069Z" fill="#5C554C"/>
<path d="M64.8415 67.7429C62.8547 68.2485 61.3073 67.9883 60.1555 67.287C59.9721 67.1741 59.7984 67.0507 59.634 66.9176C57.2134 64.9424 56.9845 60.786 58.4264 58.728C58.9351 57.9996 59.5291 57.51 60.1525 57.1946C60.3427 57.0964 60.5329 57.0161 60.7274 56.9504C63.1947 56.1079 65.8988 57.5597 65.8988 57.5597C68.4421 64.8314 64.8415 67.7429 64.8415 67.7429Z" fill="#EF4253"/>
<path d="M60.1544 67.2897C59.9709 67.1768 59.7973 67.0534 59.6328 66.9203C61.4245 62.7209 60.7557 59.0835 60.1513 57.1973C60.3415 57.0992 60.5317 57.0188 60.7262 56.9531C61.3717 58.9504 62.0982 62.8356 60.1544 67.2897Z" fill="#C71F3D"/>
<path d="M83.04 50.9709C82.775 49.8763 82.3675 48.8252 81.7668 47.8962C80.5028 45.945 78.5234 44.7644 75.8843 44.3883C73.0311 43.9827 70.5688 44.5748 68.566 46.1499C67.9408 46.642 67.3867 47.2071 66.8964 47.8183C66.2123 48.6706 65.6514 49.6081 65.1925 50.5524C63.6027 53.8358 63.2535 57.1927 63.2486 57.2412L62.4688 57.1657C62.5 56.8467 63.2842 49.3038 68.0813 45.5345C70.2601 43.8226 72.9225 43.1758 75.9936 43.6127C78.8695 44.0214 81.0317 45.3216 82.4252 47.4734C83.5561 49.2216 84.0537 51.3243 84.2071 53.3744C83.9445 52.5932 83.5591 51.7637 83.04 50.9709Z" fill="white"/>
<path d="M84.0127 57.0227C84.0673 57.0185 84.1176 57.0043 84.1643 56.9822C83.9409 59.5998 83.3783 61.5934 83.3298 61.764L82.5781 61.5461C82.591 61.5056 83.1635 59.4679 83.3783 56.8086C83.5869 56.9608 83.7998 57.0424 84.0127 57.0227Z" fill="white"/>
<path d="M109.857 46.3754L102.386 51.1694C101.906 51.4774 101.266 51.3375 100.958 50.8571L96.1642 43.3866C95.8555 42.9062 95.9948 42.2662 96.4752 41.9575L103.946 37.1636C104.427 36.8555 105.067 36.9954 105.375 37.4753L110.169 44.9457C110.477 45.4268 110.338 46.0668 109.857 46.3754Z" fill="#047C6D"/>
<path d="M104.559 40.5989C104.503 40.5455 104.448 40.4909 104.392 40.4375C104.193 40.2491 103.96 40.1209 103.697 40.043C103.508 39.9871 103.316 39.9614 103.122 39.9706C102.855 39.9835 102.665 40.1731 102.632 40.4394C102.574 40.9137 102.517 41.3886 102.466 41.8635C102.433 42.1562 102.627 42.401 102.93 42.4489C103.147 42.4832 103.365 42.5029 103.582 42.5286C103.611 42.5317 103.639 42.5293 103.662 42.5293C103.908 43.6638 103.785 44.7412 103.283 45.7831C103.13 45.7635 102.967 45.7439 102.806 45.7242C102.723 45.7138 102.641 45.7034 102.558 45.696C102.31 45.6757 102.109 45.7862 102.008 46.0108C101.976 46.0813 101.966 46.1636 101.956 46.2421C101.903 46.671 101.856 47.1005 101.803 47.5294C101.786 47.6656 101.803 47.7933 101.859 47.9172C101.89 47.9559 101.921 47.9945 101.951 48.0338C102.037 48.078 102.118 48.143 102.209 48.1626C102.432 48.2099 102.658 48.2357 102.887 48.2013C103.157 48.1614 103.411 48.0792 103.627 47.9129C103.769 47.8031 103.899 47.6742 104.019 47.5405C104.327 47.195 104.554 46.7968 104.737 46.3734C104.917 45.9543 105.047 45.5181 105.135 45.0707C105.256 44.467 105.315 43.8552 105.327 43.2404C105.339 42.7551 105.308 42.274 105.186 41.8021C105.124 41.5647 105.038 41.3364 104.919 41.1217C104.872 41.0345 104.821 40.9505 104.77 40.8652C104.7 40.7774 104.63 40.6879 104.559 40.5989Z" fill="white"/>
<path d="M148.495 54.2074L139.838 50.913C139.361 50.732 139.122 50.1982 139.303 49.722L142.596 41.0642C142.778 40.5875 143.312 40.3482 143.788 40.5292L152.446 43.8229C152.923 44.0046 153.162 44.5384 152.98 45.0151L149.686 53.6723C149.505 54.1491 148.972 54.3884 148.495 54.2074Z" fill="#F9A137"/>
<path d="M149.539 48.4266C149.047 49.7213 148.065 50.1164 147.198 49.7863C146.69 49.593 146.392 49.2537 146.352 48.7892C146.02 49.0899 145.612 49.1832 145.096 48.9874C144.364 48.7088 143.905 47.797 144.302 46.7527C144.699 45.7084 145.626 45.3323 146.378 45.6182C146.738 45.755 146.973 45.9759 147.086 46.2674L147.189 45.9962L148.491 46.4913L147.753 48.4303C147.645 48.715 147.727 48.8469 147.875 48.9033C148.065 48.9758 148.293 48.8451 148.582 48.086C149.049 46.8589 148.464 45.6433 147.067 45.112C145.677 44.5837 144.37 45.2034 143.881 46.4913C143.376 47.8197 143.929 49.1169 145.312 49.6427C145.76 49.8133 146.254 49.901 146.795 49.8661L146.762 50.8086C146.281 50.8503 145.588 50.7337 144.985 50.5042C142.944 49.728 142.154 47.8682 142.83 46.0919C143.495 44.3431 145.327 43.4645 147.394 44.2511C149.347 44.9935 150.157 46.7993 149.539 48.4266ZM146.6 47.6271C146.754 47.2197 146.623 46.9294 146.346 46.8239C146.068 46.7184 145.785 46.8515 145.63 47.2583C145.472 47.6713 145.596 47.9584 145.873 48.064C146.152 48.1695 146.442 48.04 146.6 47.6271Z" fill="white"/>
<path d="M179.802 86.675L173.269 80.1084C172.909 79.747 172.91 79.1616 173.272 78.802L179.838 72.2685C180.2 71.909 180.785 71.9108 181.145 72.2722L187.678 78.8389C188.038 79.2003 188.036 79.785 187.675 80.1446L181.109 86.6781C180.747 87.0377 180.162 87.0358 179.802 86.675Z" fill="#1E51A4"/>
<path d="M179.075 81.6936L178.51 82.247L177.807 81.5297L178.347 81.0014C177.878 80.4621 177.532 79.8338 177.422 79.3435L178.677 78.8729C178.807 79.4036 179.118 79.9761 179.502 80.3682C179.836 80.7094 180.027 80.7621 180.149 80.6419C180.597 80.2038 178.307 78.587 179.636 77.2855C180.211 76.7223 181.104 76.6664 182.039 77.3868L182.593 76.8438L183.296 77.561L182.752 78.0949C183.085 78.5066 183.347 78.968 183.468 79.4178L182.243 79.9086C182.077 79.3828 181.84 78.9674 181.537 78.6569C181.192 78.3053 180.981 78.293 180.859 78.4127C180.432 78.8318 182.717 80.4535 181.403 81.7396C180.853 82.2765 179.985 82.3483 179.075 81.6936Z" fill="white"/>
<path d="M88.2548 26.2003L88.1697 25.8057H87.7661H86.915C86.1333 25.8057 85.5 25.1724 85.5 24.3907V14.915C85.5 14.1333 86.1333 13.5 86.915 13.5H147.456C148.237 13.5 148.87 14.1332 148.87 14.915V24.3907C148.87 25.1725 148.237 25.8057 147.456 25.8057H92.6H92.3127L92.168 26.0539L89.2888 30.9933L88.2548 26.2003ZM89.0748 31.3604C89.0749 31.3603 89.075 31.3601 89.0751 31.3599L89.0749 31.3603L89.0748 31.3604Z" fill="#E8E8E8" stroke="#0273FA"/>
<path d="M145.226 23.1602H139.512C139.005 23.1602 138.594 22.7491 138.594 22.2417V16.5279C138.594 16.0205 139.005 15.6094 139.512 15.6094H145.226C145.733 15.6094 146.144 16.0205 146.144 16.5279V22.2417C146.144 22.7497 145.733 23.1602 145.226 23.1602Z" fill="#0273FA"/>
<path d="M132.775 17.0378H89.3221C89.2257 17.0378 89.1484 16.9599 89.1484 16.8642V15.783C89.1484 15.6873 89.2257 15.6094 89.3221 15.6094H132.775C132.871 15.6094 132.949 15.6873 132.949 15.783V16.8642C132.949 16.9599 132.871 17.0378 132.775 17.0378Z" fill="#87BEFF"/>
<path d="M132.775 20.1003H89.3221C89.2257 20.1003 89.1484 20.0224 89.1484 19.9267V18.8455C89.1484 18.7498 89.2257 18.6719 89.3221 18.6719H132.775C132.871 18.6719 132.949 18.7498 132.949 18.8455V19.9267C132.949 20.0224 132.871 20.1003 132.775 20.1003Z" fill="#87BEFF"/>
<path d="M132.775 23.1628H89.3221C89.2257 23.1628 89.1484 23.0849 89.1484 22.9892V21.908C89.1484 21.8123 89.2257 21.7344 89.3221 21.7344H132.775C132.871 21.7344 132.949 21.8117 132.949 21.908V22.9892C132.949 23.0849 132.871 23.1628 132.775 23.1628Z" fill="#87BEFF"/>
</svg>
