<svg width="50" height="50" viewBox="0 0 38 38" fill="none" xmlns="http://www.w3.org/2000/svg">
<path d="M19 38C8.5017 38 0 29.4983 0 19C0 8.5017 8.5017 0 19 0C29.4983 0 38 8.5017 38 19C38 29.4983 29.4983 38 19 38ZM19 1.57797C9.38729 1.57797 1.57797 9.38729 1.57797 19C1.57797 28.6127 9.38729 36.422 19 36.422C28.6127 36.422 36.422 28.6127 36.422 19C36.422 9.38729 28.6127 1.57797 19 1.57797ZM19.789 30.078H18.211V23.75H11.8831V22.172H18.211V19H11.8831V17.422H18.211V15.3771L11.8992 9.09746L13.0263 7.97034L19.0161 13.928L24.9576 7.98644L26.0686 9.09746L19.8051 15.361V17.422H26.1331V19H19.8051V22.172H26.1331V23.75H19.8051V30.078H19.789Z" fill="#005FE5"/>
</svg>
