<svg width="64" height="63" viewBox="0 0 64 63" fill="none" xmlns="http://www.w3.org/2000/svg">
<rect width="63.7934" height="62.1313" rx="4" fill="#FFEBEB"/>
<path d="M42.4099 49.1313C41.9935 49.1313 41.5611 49.0191 41.1126 48.7789L33.281 44.6629C32.6083 44.3105 31.231 44.3105 30.5423 44.6629L22.7107 48.7789C21.6537 49.3395 20.5806 49.1953 19.972 48.4746C19.6837 48.1223 19.3634 47.4977 19.5396 46.4727L21.0291 37.7441C21.1732 36.9434 20.7568 35.7102 20.1802 35.1336L13.838 28.9516C13.1173 28.2469 12.8451 27.4141 13.0853 26.6453C13.3255 25.8766 14.0462 25.3641 15.0552 25.2199L23.8158 23.9547C24.6166 23.8426 25.6736 23.0738 26.0259 22.3531L29.9337 14.4254C30.3822 13.5125 31.0869 13 31.9037 13C32.7044 13 33.4251 13.5285 33.8736 14.4254L37.7814 22.3531C38.1337 23.0738 39.1908 23.8426 39.9916 23.9547L48.7521 25.2199C49.7451 25.3641 50.4658 25.8766 50.706 26.6453C50.9462 27.4141 50.69 28.2469 49.9533 28.9516L43.6271 35.1336C43.0505 35.6941 42.6501 36.9434 42.7783 37.7441L44.2677 46.4727C44.4439 47.4977 44.1236 48.1383 43.8353 48.4746C43.515 48.907 43.0025 49.1313 42.4099 49.1313ZM31.9197 42.1164C32.8166 42.1164 33.6814 42.3086 34.338 42.6609L42.0255 46.7129L40.5521 38.1445C40.2958 36.607 40.9365 34.6211 42.0416 33.532L48.2716 27.4621L39.6712 26.2129C38.1337 25.9887 36.4361 24.7715 35.7474 23.3621L31.9037 15.5625L28.0599 23.3621C27.3712 24.7555 25.6896 25.9887 24.1361 26.2129L15.5357 27.4621L21.7658 33.532C22.8869 34.6211 23.5275 36.607 23.2552 38.1445L21.7818 46.7129L29.4693 42.6609C30.158 42.3086 31.0228 42.1164 31.9197 42.1164Z" fill="#C11717"/>
</svg>
