<svg width="84" height="84" viewBox="0 0 74 76" fill="none" xmlns="http://www.w3.org/2000/svg">
<path d="M18.3503 0.167754C17.1036 0.448268 16.3867 1.25864 15.14 3.81443C13.2388 7.67929 12.7089 11.887 13.7998 14.6921C14.0491 15.3155 14.2985 15.9077 14.392 16.0012C14.6725 16.3129 14.5478 16.5934 13.6751 17.6531C12.6466 18.8998 11.2752 21.0193 10.5271 22.4219L9.99726 23.4504H8.84404C6.16357 23.4504 4.76101 23.9803 3.17143 25.5387C1.98703 26.7231 0.958484 28.6555 0.397456 30.7438C-0.132404 32.6762 -0.132404 36.8527 0.397456 38.7852C0.989652 40.9358 1.98703 42.8059 3.26493 44.0838C4.79217 45.611 5.63372 45.9227 8.6882 46.0474L10.9946 46.1409L11.8674 47.4811C12.8647 49.0395 14.018 50.4732 15.327 51.8135L16.2621 52.7485L15.3894 55.99C14.579 58.9822 14.5167 59.3562 14.579 60.6964C14.6413 61.9431 14.7348 62.3172 15.2647 63.3769C16.3556 65.621 18.2257 67.0547 20.3139 67.3352C22.4957 67.6158 24.6152 66.9301 26.2671 65.4028C27.4203 64.3743 27.9502 63.3457 28.4488 61.5068C28.667 60.7276 28.8852 60.0419 28.9475 59.9484C29.0099 59.886 29.8202 59.9795 30.7241 60.1666C32.9059 60.6029 37.6746 60.7587 39.7941 60.5094C40.6044 60.3847 41.3213 60.2601 41.3525 60.2601C41.3837 60.2289 41.2901 59.6055 41.1655 58.8887L40.9473 57.5484L40.0434 57.6419C39.5447 57.7043 37.737 57.7354 36.0227 57.7354C32.6877 57.7043 31.5657 57.5796 28.5423 56.6445L26.9839 56.177L26.7346 57.0497C26.6099 57.5173 26.2359 58.7952 25.9554 59.9172C25.332 62.3172 25.0203 62.9405 24.1476 63.7197C22.371 65.3405 19.0672 64.7171 17.8205 62.5665C17.0724 61.3198 17.1348 60.4471 18.4127 55.803L19.4724 51.8446L17.6335 50.0057C15.8257 48.198 14.0491 45.798 13.2076 44.0214L12.8336 43.2422L9.81026 43.1799C7.09862 43.1175 6.69343 43.0864 6.10124 42.7747C4.76101 42.0578 3.82596 40.6864 3.23376 38.5358C2.79741 36.9774 2.79741 32.5204 3.23376 30.9931C3.82596 28.8425 4.79217 27.4399 6.10124 26.7231C6.69343 26.4114 7.12979 26.349 9.43624 26.3179C11.3063 26.2555 12.0544 26.1932 12.0544 26.0374C12.0544 25.6633 13.8933 22.1413 14.7037 20.9881C15.1712 20.3336 16.1686 19.0869 16.9478 18.2141L18.3815 16.6246L17.7582 15.8765C16.8543 14.7233 16.2309 13.3207 16.0439 12.1363C15.701 10.0792 16.3867 7.02476 17.6646 4.68714C18.475 3.19107 18.8179 2.87939 19.6594 2.75472C21.4983 2.4742 25.5502 3.40925 27.545 4.5313C29.1657 5.46635 30.4436 7.24294 31.0046 9.30004C31.254 10.2039 31.1605 10.1727 33.4669 9.79873C35.6175 9.42471 40.0434 9.42471 42.381 9.79873C52.3237 11.326 60.5833 17.6843 63.7001 26.162C65.1962 30.3074 65.4455 35.6995 64.3235 40.1254C64.1676 40.8423 63.9806 41.528 63.9183 41.6526C63.8559 41.8085 64.1988 41.9955 65.1338 42.3383C65.8507 42.5877 66.4741 42.7435 66.5364 42.65C66.7546 42.4318 67.5338 39.0968 67.7208 37.4761C67.8455 36.5722 67.8766 34.7645 67.8455 32.9255L67.752 29.9022L68.687 29.4035C70.1519 28.6555 71.7415 26.9412 72.5207 25.2893C73.9544 22.2972 73.9233 19.6479 72.4272 16.5934C71.274 14.1934 68.6558 12.2298 65.9754 11.6688L64.9156 11.4506L64.791 12.2922C64.7286 12.7597 64.6975 13.4142 64.6975 13.7259C64.7598 14.287 64.791 14.3181 65.6013 14.5051C67.5026 14.9103 69.248 16.3441 70.1519 18.2453C71.087 20.1777 70.8688 22.8894 69.6221 24.7595C69.061 25.6633 67.4714 27.0659 67.1598 26.9412C67.0663 26.9101 66.7546 26.2244 66.4429 25.3828C64.5728 20.2089 60.9573 15.5648 56.0327 12.1052C54.225 10.8584 50.5783 9.05069 48.2407 8.27149C44.1576 6.90009 39.5447 6.33906 35.5864 6.65074C34.402 6.74425 33.3734 6.83775 33.3111 6.83775C33.2487 6.83775 32.9682 6.4014 32.7189 5.87154C32.4384 5.27934 31.7527 4.4378 30.9735 3.65859C29.0722 1.75733 26.5788 0.666445 22.9944 0.136586C21.5918 -0.0504233 19.2231 -0.0504234 18.3503 0.167754Z" fill="#f0f0f0"/>
<path d="M27.0152 22.1105C24.4906 22.6091 22.153 25.1649 21.8413 27.7207C21.5296 30.1518 23.2439 32.9882 25.7373 34.1414C26.5477 34.5154 26.9217 34.6089 28.1061 34.6089C29.8515 34.6089 31.0048 34.1102 32.3762 32.8323C34.6514 30.6817 35.0566 27.6584 33.4359 25.1026C32.0645 22.9208 29.2905 21.6429 27.0152 22.1105ZM30.1009 25.3831C31.8463 26.4117 32.158 29.3415 30.6619 30.8376C29.4775 32.0219 27.3892 32.1778 25.8932 31.1181C24.2724 29.9648 24.3036 26.5675 25.9243 25.5078C27.1399 24.6974 28.823 24.6662 30.1009 25.3831Z" fill="#f0f0f0"/>
<path d="M57.903 75.9374C57.8406 75.8751 57.7783 70.3583 57.7783 63.7195V51.6262L52.6044 56.8001L47.4616 61.9429L46.4642 60.9455L45.4669 59.9481L52.3862 53.0288L59.3055 46.1094L66.2249 53.0288L73.1442 59.9481L72.1468 60.9455L71.1495 61.9429L66.0067 56.8001L60.8016 51.6262L60.7704 63.7818L60.7081 75.9374L59.3679 75.9998C58.651 75.9998 57.9965 75.9998 57.903 75.9374Z" fill="#f0f0f0"/>
</svg>
