<svg width="64" height="61" viewBox="0 0 64 61" fill="none" xmlns="http://www.w3.org/2000/svg">
<rect width="63.1094" height="60.875" rx="4" fill="#FFEBEB"/>
<path d="M44.0156 48.875H19.1094C17.3906 48.875 16 47.5781 16 45.9844V14.8906C16 13.2969 17.3906 12 19.1094 12H44C45.7188 12 47.1094 13.2969 47.1094 14.8906V20.7969C47.1094 21.4375 46.5938 21.9531 45.9531 21.9531C45.3125 21.9531 44.7969 21.4375 44.7969 20.7969V14.8906C44.7969 14.5781 44.4219 14.3125 44 14.3125H19.1094C18.6875 14.3125 18.3125 14.5781 18.3125 14.8906V46C18.3125 46.3125 18.6875 46.5781 19.1094 46.5781H44C44.4219 46.5781 44.7969 46.3125 44.7969 46V44.1719C44.7969 43.5312 45.3125 43.0156 45.9531 43.0156C46.5938 43.0156 47.1094 43.5312 47.1094 44.1719V46C47.1094 47.5781 45.7188 48.875 44.0156 48.875Z" fill="#C11717"/>
<path d="M39.7812 23.8281H23.6563C23.0156 23.8281 22.5 23.3281 22.5 22.7031C22.5 22.0781 23.0156 21.5781 23.6563 21.5781H39.7812C40.4219 21.5781 40.9375 22.0781 40.9375 22.7031C40.9375 23.3281 40.4219 23.8281 39.7812 23.8281Z" fill="#C11717"/>
<path d="M22.7188 38.7969C22.4219 38.7969 22.125 38.6875 21.9063 38.4531C21.4531 38 21.4531 37.2812 21.9063 36.8281L28.7031 30.0313C29.1562 29.5781 29.875 29.5781 30.3281 30.0313C30.7812 30.4844 30.7812 31.2031 30.3281 31.6563L23.5313 38.4687C23.3125 38.6875 23.0156 38.7969 22.7188 38.7969Z" fill="#C11717"/>
<path d="M36.9219 38.5938C36.1094 38.5938 35.3281 38.2812 34.7656 37.7031L28.75 31.6875C28.2969 31.2344 28.2969 30.5156 28.75 30.0625C29.2031 29.6094 29.9219 29.6094 30.375 30.0625L36.3906 36.0781C36.6719 36.3594 37.1719 36.3594 37.4531 36.0781L45.0781 28.4531C45.5312 28 46.25 28 46.7031 28.4531C47.1562 28.9063 47.1562 29.625 46.7031 30.0781L39.0781 37.7031C38.5 38.2656 37.7344 38.5938 36.9219 38.5938Z" fill="#C11717"/>
</svg>
