<svg width="64" height="63" viewBox="0 0 64 63" fill="none" xmlns="http://www.w3.org/2000/svg">
<rect width="63.877" height="62.6118" rx="4" fill="#FFEBEB"/>
<path d="M50.7005 32.5233C50.6525 32.2511 50.5564 31.9788 50.4603 31.7386V31.7226V31.7065C50.188 31.146 49.8357 30.6015 49.3712 30.105C48.8908 29.5925 48.4263 29.2241 47.9619 28.9679C47.7216 28.8397 47.4654 28.7437 47.1931 28.6636C46.8568 28.5675 46.5205 28.5034 46.1841 28.5034C46.1201 28.5034 46.088 28.5034 46.056 28.5034C45.7037 28.5034 45.3513 28.5515 44.999 28.6636C44.5826 28.7917 44.1982 28.9999 43.8298 29.2882L43.8138 29.3042L43.7978 29.3202C43.6216 29.4644 43.4134 29.6565 43.1732 29.8647C42.965 30.0569 42.7888 30.2331 42.6447 30.3612L42.4845 30.5054L42.3724 30.6175L41.1873 31.7065L41.2353 31.7546L41.1392 31.8507L36.9912 35.9827L35.4377 37.5522L34.0283 38.9616C33.5959 39.394 33.2275 39.7624 32.9552 40.0507L32.4908 40.5151L32.4267 40.5792C32.1544 40.8515 31.9462 41.1077 31.7701 41.364C31.6259 41.5722 31.4978 41.8124 31.3857 42.0687C31.2736 42.2769 31.1775 42.5491 31.0494 42.9175C30.9373 43.2378 30.8252 43.6062 30.713 43.9905C30.6009 44.3589 30.5048 44.7272 30.4087 45.0636C30.2806 45.512 30.2005 45.8323 30.1685 46.1046C30.0404 46.9534 30.2005 47.6901 30.665 48.2667C30.9373 48.603 31.5459 49.1476 32.6349 49.1476C32.763 49.1476 32.9072 49.1476 33.0513 49.1315H33.0834H33.1154C33.3396 49.0995 33.6439 49.0354 34.0603 48.9233C34.4287 48.8272 34.813 48.7151 35.2455 48.571C35.6459 48.4429 36.0462 48.2987 36.3986 48.1706C36.799 48.0265 37.1033 47.8983 37.3275 47.7862C37.6318 47.6421 37.9361 47.4659 38.2084 47.2577C38.4005 47.1136 38.5607 46.9854 38.7209 46.8413C38.849 46.7292 39.0091 46.5851 39.3134 46.2808C39.5857 45.9925 39.938 45.6562 40.3545 45.2397C40.7228 44.8554 41.1552 44.4229 41.7158 43.8784L41.7318 43.8624L41.7478 43.8464L43.2853 42.2929L47.4173 38.1608L48.7627 36.8155L48.7787 36.7995C48.8908 36.7034 49.0189 36.5753 49.163 36.4472C49.2431 36.3671 49.3392 36.271 49.4513 36.1589C49.5795 36.0308 49.7396 35.8866 49.8998 35.7265L49.9318 35.6944L49.9638 35.6624C50.2681 35.3261 50.4923 34.9577 50.6525 34.5733C50.7966 34.189 50.8767 33.8046 50.8767 33.4042C50.7806 33.0999 50.7486 32.8116 50.7005 32.5233ZM41.8759 40.9636L40.3384 42.5171C39.8259 43.0136 39.3615 43.478 38.9451 43.8944C38.5287 44.3108 38.1923 44.6472 37.9201 44.9194C37.6478 45.1917 37.4877 45.3358 37.4396 45.3839C37.3115 45.496 37.1673 45.6241 36.9912 45.7522C36.831 45.8804 36.6548 45.9765 36.4787 46.0726C36.3025 46.1687 36.0302 46.2647 35.6939 46.3929C35.3416 46.521 34.9892 46.6491 34.6048 46.7612C34.2205 46.8894 33.8681 46.9854 33.5318 47.0815C33.1955 47.1776 32.9392 47.2257 32.763 47.2577C32.683 47.2577 32.6189 47.2737 32.5548 47.2737C32.3306 47.2737 32.1544 47.2257 32.0744 47.1136C31.9623 46.9694 31.9302 46.7292 31.9783 46.3929C32.0103 46.2167 32.0744 45.9604 32.1544 45.6081C32.2505 45.2718 32.3627 44.9194 32.4587 44.5511C32.5709 44.1827 32.6669 43.8464 32.7791 43.5421C32.8752 43.2378 32.9712 43.0136 33.0353 42.9015C33.1154 42.7253 33.1955 42.5651 33.2916 42.405C33.3877 42.2608 33.5318 42.0847 33.708 41.9085C33.788 41.8284 33.9642 41.6522 34.2525 41.364C34.5408 41.0757 34.8931 40.7233 35.3095 40.2909L36.7189 38.8815L38.2884 37.328L42.4365 33.18L46.04 36.7995L41.8759 40.9636ZM48.7947 33.9007C48.7306 34.0608 48.6345 34.221 48.4904 34.3812C48.3302 34.5413 48.2021 34.6694 48.074 34.7815C47.9619 34.8937 47.8498 35.0058 47.7537 35.0858C47.6416 35.1819 47.5455 35.278 47.4654 35.3581L43.8619 31.7546C44.022 31.6104 44.1982 31.4343 44.4064 31.2421C44.6146 31.0339 44.7908 30.8897 44.9349 30.7616C45.1111 30.6175 45.3033 30.5214 45.4955 30.4573C45.6716 30.4093 45.8478 30.3772 46.008 30.3772C46.024 30.3772 46.04 30.3772 46.056 30.3772C46.2482 30.3772 46.4244 30.4093 46.6005 30.4573C46.7767 30.5054 46.9209 30.5694 47.049 30.6335C47.3212 30.7776 47.6255 31.0179 47.9459 31.3702C48.2662 31.7226 48.5224 32.0909 48.6986 32.4753C48.7466 32.5874 48.7947 32.7315 48.8267 32.8757C48.8587 33.0198 48.8748 33.196 48.8748 33.3562C48.8908 33.5644 48.8587 33.7405 48.7947 33.9007Z" fill="#C11717"/>
<path d="M26.0207 47.0974H18.0129C16.6355 47.0974 15.5145 45.9763 15.5145 44.5989V18.013C15.5145 16.6356 16.6355 15.5145 18.0129 15.5145H44.6148C45.9922 15.5145 47.1133 16.6356 47.1133 18.013V24.7876C47.1133 25.4923 47.6738 26.0528 48.3785 26.0528C49.0832 26.0528 49.6438 25.4923 49.6438 24.7876V18.013C49.6438 15.2423 47.3856 13.0001 44.6309 13.0001H18.0129C15.2582 12.9841 13 15.2423 13 18.013V44.5989C13 47.3696 15.2582 49.6118 18.0129 49.6118H26.0207C26.7254 49.6118 27.2859 49.0513 27.2859 48.3466C27.2859 47.6419 26.7254 47.0974 26.0207 47.0974Z" fill="#C11717"/>
<path d="M41.3475 21.232C41.3475 20.5273 40.7869 19.9668 40.0822 19.9668H22.0807C21.376 19.9668 20.8154 20.5273 20.8154 21.232C20.8154 21.9367 21.376 22.4973 22.0807 22.4973H40.0822C40.7709 22.4973 41.3475 21.9367 41.3475 21.232Z" fill="#C11717"/>
<path d="M22.0807 26.6294C21.376 26.6294 20.8154 27.1899 20.8154 27.8946C20.8154 28.5993 21.376 29.1599 22.0807 29.1599H34.5088C35.2135 29.1599 35.774 28.5993 35.774 27.8946C35.774 27.1899 35.2135 26.6294 34.5088 26.6294H22.0807Z" fill="#C11717"/>
<path d="M29.1275 33.7563H22.0807C21.376 33.7563 20.8154 34.3169 20.8154 35.0216C20.8154 35.7263 21.376 36.2868 22.0807 36.2868H29.1275C29.8322 36.2868 30.3928 35.7263 30.3928 35.0216C30.3928 34.3169 29.8322 33.7563 29.1275 33.7563Z" fill="#C11717"/>
</svg>
