<svg width="45" height="31" viewBox="0 0 45 31" fill="none" xmlns="http://www.w3.org/2000/svg">
<path d="M10.4493 0.14048C9.0573 0.406664 7.72254 1.29394 7.13143 2.34093C6.65473 3.19272 6.55939 3.52988 6.52126 5.03825C6.44499 7.27419 6.69287 8.37442 7.64627 9.97152C7.95136 10.4684 8.23738 11.0185 8.29458 11.2137C8.5234 11.9058 8.0467 12.5801 6.99796 13.0415C6.69287 13.1835 5.6632 13.5384 4.69073 13.84C2.72672 14.4611 1.4873 14.9935 0.934332 15.4371C0.743652 15.5969 0.457632 15.9518 0.305088 16.218C0.0572041 16.6793 0.0572041 16.7148 0.0190681 18.4716L0 20.2462L0.228816 20.4591L0.457632 20.6721H7.30305H14.1485L14.4154 20.4237C14.7205 20.122 14.7396 19.8558 14.4917 19.5364L14.3201 19.3234H7.87509H1.44917V18.2055C1.44917 17.6021 1.4873 16.981 1.54451 16.839C1.71612 16.3599 2.45977 16.0228 5.07209 15.1887C6.00642 14.887 7.01703 14.5499 7.34118 14.4079C8.98103 13.7158 9.80095 12.7576 9.82002 11.5509C9.82002 11.0008 9.55307 10.2554 8.92383 9.04875C8.12297 7.52263 7.93229 6.8483 7.93229 5.37542C7.93229 3.79606 8.16111 3.01526 8.82849 2.30544C9.78189 1.29394 12.1845 1.01001 13.7671 1.71984C14.2057 1.91504 14.3963 2.07475 15.2925 3.05075C15.5595 3.31693 15.6167 3.35243 15.8836 3.29919C16.6082 3.17497 16.6845 2.58937 16.0934 1.84405C14.9493 0.424409 12.5849 -0.303158 10.4493 0.14048Z" fill="#005FE5"/>
<path d="M31.9575 0.122734C30.7562 0.371171 29.574 1.0455 28.9257 1.8618C28.449 2.4474 28.4108 2.82006 28.7541 3.13948C29.0782 3.44115 29.3833 3.40566 29.7265 3.05075C30.6227 2.09249 30.8325 1.91503 31.252 1.71983C32.8346 1.02776 35.2181 1.31169 36.1715 2.30544C36.5147 2.67809 36.8389 3.28144 36.9724 3.81381C37.1249 4.45265 37.1058 6.35142 36.9342 7.00801C36.7626 7.71783 36.7054 7.8243 35.9808 9.20846C35.2562 10.5926 35.0846 11.2492 35.2562 12.0477C35.4469 13.006 36.2478 13.7868 37.6588 14.3724C37.983 14.5144 38.9364 14.8338 39.7944 15.1177C41.7584 15.7388 42.2161 15.8985 42.7881 16.2357C43.4555 16.6083 43.5318 16.8036 43.5318 18.17V19.3057H37.4872C31.3473 19.3057 30.8325 19.3412 30.4702 19.6251C30.2986 19.7671 30.3367 19.8913 30.6609 20.3349L30.8897 20.6543H37.716H44.5424L44.7712 20.4414L45 20.2284L44.9619 18.4539C44.9428 16.6971 44.9428 16.6793 44.6758 16.2002C44.5233 15.934 44.2563 15.5969 44.0466 15.4194C43.4936 14.9758 42.2351 14.4434 40.2902 13.8223C38.1736 13.148 37.5063 12.864 37.0486 12.4381C36.4194 11.8525 36.4575 11.3912 37.2775 10.0248C38.2309 8.4454 38.4978 7.41615 38.4978 5.37542C38.4978 3.86704 38.3643 3.21046 37.9067 2.39416C36.877 0.601863 34.3791 -0.356396 31.9575 0.122734Z" fill="#005FE5"/>
<path d="M21.3759 1.89726C19.4309 2.1457 17.6004 3.10396 16.6089 4.38164C15.5792 5.7303 15.2932 6.77729 15.2932 9.27941C15.2932 12.2429 15.6364 13.6448 16.9712 15.8985C17.6767 17.0697 17.9055 17.6553 17.9055 18.2587C17.9055 19.6606 16.7614 20.4414 12.9669 21.6658C10.6596 22.4111 10.0685 22.6418 8.86725 23.1919C7.62783 23.7598 6.80791 24.4696 6.48375 25.2504C6.274 25.7295 6.274 25.836 6.23587 28.1607L6.2168 30.5741L6.44561 30.787L6.67443 31H22.5009H38.3273L38.5561 30.787L38.7849 30.5741L38.7659 28.1607C38.7277 25.3924 38.6705 25.1794 37.9078 24.3809C37.0116 23.4404 35.6769 22.837 32.0349 21.6658C28.984 20.6898 27.7827 20.051 27.306 19.1637C27.0963 18.7555 27.0581 18.6136 27.0963 18.0812C27.1153 17.4956 27.1725 17.3714 27.9543 15.9162C28.9077 14.1417 29.1747 13.4141 29.4416 12.0477C29.5942 11.1604 29.6132 10.7878 29.5751 9.03097C29.537 7.27416 29.5179 6.95474 29.3463 6.38689C28.5836 4.02673 26.6386 2.44737 23.8547 1.98599C23.2064 1.86177 21.967 1.82628 21.3759 1.89726ZM24.3314 3.38789C25.7996 3.76054 26.9246 4.57684 27.5158 5.7303C28.0306 6.70631 28.145 7.29191 28.145 9.22617C28.145 11.7106 27.8971 12.6688 26.753 14.8338C26.4289 15.4194 26.0666 16.1824 25.895 16.5728C25.6662 17.1229 25.4945 17.3359 25.1323 17.6731C24.5984 18.1344 24.0835 18.4184 23.4161 18.5781C21.6619 19.0217 19.6216 18.099 19.0305 16.6083C18.9161 16.3067 18.5347 15.5436 18.1724 14.887C17.4097 13.4496 17.0284 12.4736 16.8567 11.4621C16.6851 10.4151 16.6851 7.93075 16.8567 7.07896C17.2953 5.02048 18.8207 3.68956 21.147 3.29916C21.8335 3.1572 23.7022 3.22818 24.3314 3.38789ZM20.5178 20.1397C20.7466 20.2462 21.1089 20.3704 21.3187 20.4414L21.7191 20.5478L20.6513 21.4884C19.3165 22.6596 19.3356 22.6596 20.1364 23.7775C20.4415 24.2034 20.6894 24.5938 20.6894 24.6648C20.6894 24.718 20.5369 25.002 20.3843 25.3036L20.0792 25.836L18.5347 23.7243L16.9902 21.6126L17.4097 21.3464C18.058 20.9382 18.6682 20.3349 18.9352 19.8025L19.183 19.3411L19.6216 19.6606C19.9076 19.7848 20.289 20.0332 20.5178 20.1397ZM25.9712 19.7315C26.2573 20.2639 26.9246 20.9205 27.5539 21.3109L27.9734 21.5771L26.467 23.6356C25.6471 24.7713 24.9416 25.694 24.9225 25.7118C24.8653 25.7118 24.2933 24.6826 24.2933 24.5938C24.2933 24.5583 24.4839 24.2567 24.7318 23.9195C25.342 23.0677 25.4755 22.8015 25.3992 22.5708C25.3611 22.4466 24.9034 21.9852 24.3123 21.4706C23.7403 20.9737 23.2827 20.5478 23.2827 20.5123C23.2827 20.4946 23.4161 20.4414 23.5687 20.4059C23.9882 20.3349 24.9034 19.8913 25.3229 19.5541C25.5136 19.3944 25.6852 19.2702 25.7043 19.2524C25.7234 19.2524 25.8378 19.4831 25.9712 19.7315ZM23.2064 22.3046L23.7594 22.837L23.2827 23.5468C23.0157 23.9372 22.7678 24.3276 22.7297 24.4341C22.6916 24.5583 22.8441 24.9487 23.3208 25.8183L23.9691 27.025L23.2445 28.0365C22.8632 28.5866 22.5199 29.048 22.4818 29.048C22.4627 29.048 22.1195 28.6043 21.7382 28.072L21.0326 27.0959L21.6619 25.8715C22.1576 24.931 22.2911 24.5938 22.253 24.4519C22.2149 24.3454 21.967 23.9372 21.7 23.5468L21.2233 22.837L21.7763 22.3046C22.1004 22.003 22.4055 21.7723 22.4818 21.7723C22.5581 21.7723 22.9013 22.003 23.2064 22.3046ZM17.2953 24.3454C18.1534 25.5343 19.3737 27.2024 20.003 28.072L21.147 29.6513H14.416H7.6469V27.9122C7.6469 26.9185 7.68503 26.0312 7.74224 25.836C7.99012 25.0375 9.47743 24.2212 12.6809 23.1919C13.7105 22.8725 14.7783 22.5176 15.0644 22.4111C15.3694 22.2869 15.6173 22.1982 15.6555 22.1982C15.7127 22.1804 16.4372 23.1564 17.2953 24.3454ZM29.8421 22.3934C30.1281 22.4998 31.234 22.8548 32.2637 23.1919C35.5053 24.2212 37.0116 25.0197 37.2404 25.836C37.2976 26.0312 37.3358 26.9007 37.3358 27.9122V29.6513H30.5857H23.8356L24.0072 29.4206C24.1026 29.2964 25.3229 27.6283 26.7149 25.694C28.1259 23.7775 29.27 22.1982 29.27 22.1982C29.2891 22.1804 29.537 22.2869 29.8421 22.3934Z" fill="#005FE5"/>
</svg>
