<svg width="44" height="51" viewBox="0 0 44 51" fill="none" xmlns="http://www.w3.org/2000/svg">
<path d="M35.2839 17.1224H8.38943C7.8057 17.1224 7.33008 17.5981 7.33008 18.1818C7.33008 18.7655 7.8057 19.2411 8.38943 19.2411H35.2839C35.8676 19.2411 36.3432 18.7655 36.3432 18.1818C36.3432 17.5981 35.8676 17.1224 35.2839 17.1224Z" fill="#005FE5"/>
<path d="M8.38943 26.5702H30.3979C30.9816 26.5702 31.4573 26.0946 31.4573 25.5109C31.4573 24.9272 30.9816 24.4515 30.3979 24.4515H8.38943C7.8057 24.4515 7.33008 24.9272 7.33008 25.5109C7.33008 26.0946 7.8057 26.5702 8.38943 26.5702Z" fill="#005FE5"/>
<path d="M35.2839 31.7805H8.38943C7.8057 31.7805 7.33008 32.2561 7.33008 32.8399C7.33008 33.4236 7.8057 33.8992 8.38943 33.8992H35.2839C35.8676 33.8992 36.3432 33.4236 36.3432 32.8399C36.3432 32.2561 35.8676 31.7805 35.2839 31.7805Z" fill="#005FE5"/>
<path d="M30.3979 39.1095H8.38943C7.8057 39.1095 7.33008 39.5851 7.33008 40.1688C7.33008 40.7526 7.8057 41.2282 8.38943 41.2282H30.3979C30.9816 41.2282 31.4573 40.7526 31.4573 40.1688C31.4573 39.5851 30.9816 39.1095 30.3979 39.1095Z" fill="#005FE5"/>
<path d="M35.2827 6.11827H33.5316C32.883 4.69139 31.4561 3.67529 29.7698 3.67529H26.4404C25.9432 1.57821 24.0623 0 21.8139 0C19.5655 0 17.6846 1.57821 17.209 3.67529H13.9012C12.2149 3.67529 10.788 4.69139 10.1395 6.11827H8.9504C4.17253 6.11827 0 10.0314 0 14.5066V42.6117C0 47.0869 4.19415 51 8.9504 51H35.2827C39.9093 51 43.671 47.2382 43.671 42.6117V14.5066C43.671 9.88003 39.9093 6.11827 35.2827 6.11827ZM13.9012 5.79398H18.1602C18.744 5.79398 19.2196 5.31836 19.2196 4.73463C19.2196 3.30776 20.387 2.14031 21.8139 2.14031C23.2408 2.14031 24.4082 3.30776 24.4082 4.73463C24.4082 5.31836 24.8839 5.79398 25.4676 5.79398H29.7482C30.8508 5.79398 31.7372 6.68037 31.7372 7.78296C31.7372 8.88554 30.8508 9.77194 29.7482 9.77194H13.9012C12.7986 9.77194 11.9123 8.88554 11.9123 7.78296C11.8906 6.68037 12.7986 5.79398 13.9012 5.79398ZM41.5524 42.6333C41.5524 46.0924 38.7418 48.9029 35.2827 48.9029H8.9504C5.31836 48.9029 2.11869 45.9627 2.11869 42.6333V14.5282C2.11869 11.1988 5.31836 8.25858 8.9504 8.25858H9.81518C10.053 10.3124 11.7825 11.9339 13.9012 11.9339H29.7914C31.9101 11.9339 33.6397 10.334 33.8559 8.25858H35.2827C38.7418 8.25858 41.5524 11.0691 41.5524 14.5282V42.6333Z" fill="#005FE5"/>
</svg>
