<svg width="64" height="63" viewBox="0 0 64 63" fill="none" xmlns="http://www.w3.org/2000/svg">
<rect width="63.8129" height="62.2234" rx="4" fill="#FFEBEB"/>
<path d="M13.2242 15.2082L13 15.4324V28.309V41.1855L13.2242 41.3938L13.4324 41.618H22.3211H31.1938V43.716V45.8141H27.9105H24.6273L24.4191 46.0383C24.1309 46.3105 24.1309 46.727 24.4191 46.9992L24.6273 47.2234H31.8984H39.1695L39.3777 46.9992C39.666 46.727 39.666 46.3105 39.3777 46.0383L39.1695 45.8141H35.8863H32.6031V43.716V41.618H41.4918H50.3805L50.5887 41.3938L50.8129 41.1855V28.309V15.4324L50.5887 15.2242L50.3805 15H31.8984H13.4324L13.2242 15.2082ZM49.4035 28.293V40.1926H31.8984H14.3934V28.293V16.3934H31.8984H49.4035V28.293Z" fill="#C11717"/>
<path d="M42.4046 22.1109C41.9722 22.255 41.2355 23.0078 41.1073 23.4562C40.9792 23.8886 40.9792 24.3691 41.0753 24.6574C41.1554 24.8656 40.9312 25.0738 37.1354 28.405C34.9093 30.3429 33.0515 31.9605 32.9874 32.0085C32.9394 32.0566 32.7472 32.0246 32.571 31.9445C31.9144 31.6722 31.1296 31.8324 30.521 32.3769L30.1206 32.7453L26.453 31.8164C22.8976 30.9195 22.8015 30.9035 22.7374 30.6632C22.5132 29.7183 21.6323 28.9976 20.7034 28.9976C20.1589 28.9976 19.7104 29.2058 19.262 29.6543C18.3651 30.5351 18.3651 31.6562 19.262 32.5371C20.1108 33.3859 21.1999 33.4179 22.0808 32.6171L22.4812 32.2488L26.1327 33.1617C29.6882 34.0585 29.7843 34.0746 29.8483 34.3148C30.0726 35.2597 30.9534 35.9804 31.8823 35.9804C32.4269 35.9804 32.8753 35.7722 33.3237 35.3238C33.9163 34.7312 34.1405 33.9625 33.9003 33.3218C33.8202 33.1136 34.0444 32.9054 37.8401 29.5742C40.0663 27.6363 41.9241 26.0187 41.9882 25.9707C42.0362 25.9226 42.2284 25.9546 42.4046 26.0347C43.6218 26.5472 45.1753 25.4421 45.1753 24.0648C45.1753 23.5203 44.9671 23.0718 44.5187 22.6234C43.9261 22.0308 43.2054 21.8546 42.4046 22.1109Z" fill="#C11717"/>
</svg>
