<svg width="94" height="83" viewBox="0 0 45 36" fill="none" xmlns="http://www.w3.org/2000/svg">
<path d="M23.3008 16.6387L26.6377 19.9664C27.0953 19.3992 27.6292 18.8887 28.2585 18.4916L24.5975 14.8424C24.2542 15.5231 23.8157 16.1282 23.3008 16.6387ZM36.5911 9.54832L32.9873 17.5651C33.7309 17.6975 34.4174 17.9433 35.0657 18.3025L38.5169 10.5882C37.8114 10.3424 37.1631 10.0021 36.5911 9.54832ZM31.8242 28.3613C34.2458 28.3613 36.2097 26.4139 36.2097 23.9937C36.2097 21.5924 34.2458 19.6261 31.8242 19.6261C29.4025 19.6261 27.4386 21.5735 27.4386 23.9937C27.4386 26.4139 29.4025 28.3613 31.8242 28.3613ZM31.8242 21.8193C33.0445 21.8193 34.0169 22.8025 34.0169 23.9937C34.0169 25.2038 33.0254 26.1681 31.8242 26.1681C30.6229 26.1681 29.6314 25.1849 29.6314 23.9937C29.6314 22.7836 30.6229 21.8193 31.8242 21.8193ZM40.6144 8.73529C43.036 8.73529 45 6.78782 45 4.36765C45 1.94748 43.036 0 40.6144 0C38.1928 0 36.2288 1.94748 36.2288 4.36765C36.2288 6.78782 38.1928 8.73529 40.6144 8.73529ZM40.6144 2.19328C41.8347 2.19328 42.8072 3.17647 42.8072 4.36765C42.8072 5.57773 41.8157 6.54202 40.6144 6.54202C39.3941 6.54202 38.4216 5.55882 38.4216 4.36765C38.4216 3.17647 39.3941 2.19328 40.6144 2.19328ZM13.0996 15.5231L8.44703 21.0252C9.03814 21.479 9.5339 22.0273 9.93432 22.6513L14.5869 17.1492C14.0148 16.6954 13.5 16.1471 13.0996 15.5231ZM8.77119 26.187C8.77119 23.7857 6.8072 21.8193 4.38559 21.8193C1.96398 21.8193 0 23.7668 0 26.187C0 28.5882 1.96398 30.5546 4.38559 30.5546C6.8072 30.5357 8.77119 28.5882 8.77119 26.187ZM2.1928 26.187C2.1928 24.9769 3.18432 24.0126 4.38559 24.0126C5.58686 24.0126 6.57839 24.9958 6.57839 26.187C6.57839 27.3971 5.58686 28.3613 4.38559 28.3613C3.18432 28.3613 2.1928 27.3782 2.1928 26.187ZM41.7013 31.6324C41.7013 32.8424 40.7097 33.8067 39.5085 33.8067H8.77119C7.79873 33.8067 6.97881 33.1828 6.6928 32.313C5.96822 32.5777 5.20551 32.729 4.38559 32.729C4.38559 34.5441 5.85381 36 7.68432 36H40.6144C42.4258 36 43.9131 34.5252 43.9131 32.729V10.0399C43.2458 10.4181 42.5021 10.6828 41.7203 10.8151V31.6324H41.7013ZM6.57839 5.46429C6.57839 4.2542 7.56992 3.28992 8.77119 3.28992H34.1123C34.2458 2.51471 34.5127 1.77731 34.8941 1.11555H7.68432C5.87288 1.11555 4.38559 2.59034 4.38559 4.38655V19.645C5.14831 19.645 5.89195 19.7773 6.57839 20.0231V5.46429ZM18.6483 16.374C21.0699 16.374 23.0339 14.4265 23.0339 12.0063C23.0339 9.58614 21.0699 7.63866 18.6483 7.63866C16.2267 7.63866 14.2627 9.58614 14.2627 12.0063C14.2627 14.4265 16.2267 16.374 18.6483 16.374ZM18.6483 9.83193C19.8686 9.83193 20.8411 10.8151 20.8411 12.0063C20.8411 13.2164 19.8496 14.1807 18.6483 14.1807C17.447 14.1807 16.4555 13.1975 16.4555 12.0063C16.4555 10.7962 17.447 9.83193 18.6483 9.83193Z" fill="#f0f0f0"/>
</svg>
