<svg width="64" height="64" viewBox="0 0 64 64" fill="none" xmlns="http://www.w3.org/2000/svg">
<rect width="63.7969" height="63.7328" rx="4" fill="#FFEBEB"/>
<path d="M15.2902 39.634H17.5004V41.8441H15.2902C13.5926 41.8441 13.0801 41.3316 13.0801 39.634L13 15.8508C13 14.1531 13.5766 13 15.2902 13H41.9242C43.6219 13 44.1344 13.5125 44.1344 15.2102V17.4203H41.9242V15.2262H15.2902V39.634ZM50.7809 21.8887V48.5227C50.7809 50.2203 50.2684 50.7328 48.5707 50.7328H21.9367C20.223 50.7328 19.7266 50.2203 19.7266 48.5227V21.8887C19.7266 20.191 20.2391 19.6785 21.9367 19.6785H48.5707C50.2684 19.6785 50.7969 20.5113 50.7969 22.225L50.7809 21.8887ZM48.5707 21.8887H21.9367V48.5227H48.5707V21.8887ZM24.1629 28.5352H33.0355C32.5551 27.366 33.1797 28.5352 33.0355 28.5352V26.325C33.0355 26.1809 33.1797 26.325 33.0355 26.325H24.1629C24.0187 26.325 24.1629 26.1809 24.1629 26.325V28.5352C24.1629 28.6793 24.0027 28.5352 24.1629 28.5352ZM24.1629 35.1977H39.698C39.5539 35.0695 39.8422 35.1977 39.698 35.1977V32.9875C39.698 32.9715 39.698 33.0035 39.698 32.9875C39.698 32.8434 39.8422 32.9875 39.698 32.9875H24.1629C24.0187 32.9875 24.1629 32.8434 24.1629 32.9875V35.1977C24.1629 35.3418 22.7695 33.8684 24.1629 35.1977ZM24.1629 41.8441H44.1344C44.1344 41.9883 44.2785 41.8441 44.1344 41.8441V39.634C43.0293 39.0574 44.1504 39.634 44.1344 39.634C43.2375 39.2816 44.2785 39.634 44.1344 39.634H24.1629C24.0187 39.634 24.1629 39.4898 24.1629 39.634V41.8441C24.1629 41.9883 22.0648 39.9062 24.1629 41.8441Z" fill="#C11717"/>
</svg>
