<svg width="90" height="90" viewBox="0 0 44 44" fill="none" xmlns="http://www.w3.org/2000/svg">
<path d="M28.6663 0.814941L27.9475 1.10244L25.36 2.10869L24.6413 2.39619L24.8209 3.15088L25.378 5.91807C25.1084 6.1876 24.8209 6.51103 24.5155 6.83447L21.7842 6.22353L21.0295 6.04385L20.742 6.74463L19.61 9.33213L19.3225 10.0329L19.9514 10.4642L22.3053 12.0454C22.2874 12.4946 22.2874 12.9438 22.3053 13.3931L19.8795 14.8845L19.2147 15.2798L19.5022 15.9985L20.5084 18.586L20.7959 19.3048L21.5506 19.1251L24.3178 18.5681C24.6053 18.9095 24.9108 19.2149 25.2342 19.4845L24.6053 22.2517L24.4256 23.0063L25.1444 23.3298L27.7319 24.4259L28.4327 24.7134L28.8639 24.0845L30.4452 21.7306C30.8944 21.7485 31.3436 21.7485 31.7928 21.7306L33.2842 24.1743L33.6795 24.8032L34.3983 24.5517L36.9858 23.5095L37.7045 23.222L37.5248 22.4673L36.8959 19.4306C37.2373 19.1431 37.5608 18.8196 37.8483 18.4782L40.6514 19.197L41.4241 19.3946L41.7116 18.6759L42.8436 16.0884L43.167 15.3696L42.4663 14.9384L40.0405 13.4649C40.0584 13.0157 40.0584 12.5665 40.0405 12.1173L42.4663 10.6259L43.1311 10.2306L42.8436 9.51182L41.8373 6.92432L41.5499 6.20557L40.7772 6.38525L37.9561 7.01416C37.6686 6.67275 37.3631 6.36728 37.0397 6.09775L37.6506 3.33057L37.8303 2.57588L37.1295 2.28838L34.542 1.15635L33.8233 0.868848L33.392 1.53369L31.9186 3.86963C31.4873 3.83369 31.0381 3.86963 30.5709 3.90557L29.0795 1.46182L28.6663 0.814941ZM27.8936 3.09697L29.2413 5.3251L29.5827 5.88213L30.2116 5.73838C30.8584 5.59463 31.4873 5.6665 32.3139 5.77432L32.8889 5.82822L33.2123 5.34307L34.542 3.24072L35.71 3.72588L35.135 6.20557L34.9913 6.8165L35.5123 7.15791C36.0694 7.55322 36.5545 8.03838 36.9498 8.59541L37.2913 9.1165L37.9022 8.97275L40.4358 8.39775L40.903 9.54775L38.6749 10.8774L38.1897 11.2009L38.2436 11.7759C38.3334 12.5485 38.3334 13.1954 38.2436 13.9681L38.1897 14.5431L38.6749 14.8665L40.867 16.2142L40.3998 17.3103L37.8303 16.6813L37.2014 16.5376L36.86 17.0587C36.4647 17.6157 35.9795 18.1009 35.4225 18.4962L34.9374 18.8376L35.0631 19.4485L35.6381 22.1798L34.4881 22.611L33.1405 20.3829L32.817 19.8978L32.242 19.9517C31.4694 20.0415 30.8225 20.0415 30.0499 19.9517L29.4749 19.8978L29.1873 20.3649L27.7858 22.5032L26.5999 21.9821L27.1569 19.5024L27.3006 18.9274L26.8155 18.5501C26.2584 18.1548 25.7733 17.6696 25.378 17.1126L25.0366 16.6274L24.4256 16.7353L21.9459 17.2563L21.5147 16.1063L23.7069 14.7587L24.228 14.4353L24.1381 13.8603C24.0483 13.0876 24.0483 12.4407 24.1381 11.6681L24.228 11.111L23.7428 10.7876L21.6045 9.38603L22.0897 8.2001L24.6053 8.7751L25.1624 8.88291L25.5038 8.45166C26.0249 7.84072 26.5639 7.30166 27.0311 6.83447L27.3725 6.49307L27.2827 6.02588L26.7616 3.54619L27.8936 3.09697ZM31.2358 8.12822C28.7022 8.12822 26.6178 10.2126 26.6178 12.7462C26.6178 15.2798 28.7022 17.3642 31.2358 17.3642C33.7694 17.3642 35.8538 15.2798 35.8538 12.7462C35.8538 10.2126 33.7694 8.12822 31.2358 8.12822ZM31.2358 9.979C32.7811 9.979 34.003 11.2009 34.003 12.7462C34.003 14.2915 32.7811 15.5134 31.2358 15.5134C29.6905 15.5134 28.4686 14.2915 28.4686 12.7462C28.4686 11.2009 29.6905 9.979 31.2358 9.979ZM11.4342 17.3642L11.3084 18.1368L10.8592 21.1376C10.3561 21.2993 9.87095 21.5329 9.42173 21.7665L6.88813 19.9157L6.25923 19.4485L5.68423 20.0235L3.58188 22.1259L3.02485 22.6829L3.4561 23.3118L5.21704 25.8454C4.96548 26.3306 4.74985 26.8337 4.58813 27.3188L1.55142 27.8759L0.814697 28.0196V28.7923V31.7392V32.5118L1.56938 32.6556L4.6061 33.2126C4.76782 33.7157 5.00142 34.1829 5.23501 34.6501L3.38423 37.0938L2.89907 37.7228L3.47407 38.2977L5.57642 40.4001L6.13345 40.9571L6.76235 40.5259L9.29595 38.7649C9.7811 39.0165 10.2842 39.2321 10.7694 39.3938L11.2366 42.3946L11.3444 43.1673H12.153H15.0999H15.8905L16.0163 42.4126L16.5913 39.3759C17.0944 39.2142 17.5795 38.9806 18.0288 38.747L20.5624 40.5977L21.1913 41.0649L21.7663 40.4899L23.8686 38.3876L24.4256 37.8306L23.9944 37.2017L22.1436 34.6321C22.3772 34.147 22.6108 33.6618 22.7725 33.1946L25.8811 32.6376L26.6358 32.4938V31.7212V28.7743V27.9657L25.8631 27.8399L22.7545 27.3727C22.5928 26.8696 22.3952 26.3845 22.1436 25.9352L23.9764 23.4376L24.4077 22.8087L23.8866 22.2517L21.7483 20.0235L21.1913 19.4485L20.5264 19.9157L17.9928 21.7665C17.5077 21.5329 17.0225 21.2993 16.5553 21.1376L16.0881 18.1368L15.9624 17.3642H15.1717H12.2428H11.4342ZM13.0155 19.197H14.3991L14.8303 21.9282L14.9202 22.4853L15.4413 22.6649C16.2678 22.9345 17.0405 23.204 17.6694 23.5813L18.1905 23.9048L18.6756 23.5634L20.9756 21.8923L22.0178 22.9884L20.3467 25.3243L19.9694 25.8095L20.3108 26.3306C20.7241 26.9954 21.0475 27.7681 21.2092 28.4688L21.353 29.0798L21.9639 29.1696L24.785 29.6009V31.0024L21.9639 31.4876L21.4069 31.5774L21.2272 32.0985C20.9577 32.9251 20.6881 33.6978 20.3108 34.3267L19.9694 34.8478L20.3467 35.3329L22.0178 37.6688L20.9756 38.6751L18.6756 37.004L18.1905 36.6626L17.6694 36.986C17.0045 37.3993 16.2319 37.7227 15.5311 37.8845L14.9561 38.0282L14.8303 38.6392L14.3452 41.3704H12.9436L12.5124 38.6392L12.4225 38.0821L11.9014 37.9024C11.0749 37.6329 10.3022 37.3634 9.67329 36.986L9.1522 36.6626L8.66704 37.004L6.3311 38.5853L5.32485 37.579L6.96001 35.3509L7.35532 34.8298L7.01392 34.3087C6.60063 33.6438 6.2772 32.9071 6.11548 32.2063L5.97173 31.5954L5.36079 31.4876L2.64751 30.9845V29.547L5.37876 29.0618L5.93579 28.936L6.11548 28.4509C6.38501 27.6243 6.65454 26.8517 7.03188 26.2228L7.35532 25.7017L7.01392 25.2165L5.43267 22.8806L6.47485 21.8743L8.77485 23.5454L9.26001 23.8868L9.7811 23.5634C10.4459 23.1501 11.2186 22.8267 11.9194 22.6649L12.5303 22.5212L12.6202 21.9103L13.0155 19.197ZM13.7163 25.6657C11.1827 25.6657 9.09829 27.7501 9.09829 30.2837C9.09829 32.8173 11.1827 34.9017 13.7163 34.9017C16.2499 34.9017 18.3342 32.8173 18.3342 30.2837C18.3163 27.7321 16.2499 25.6657 13.7163 25.6657ZM13.7163 27.4985C15.2436 27.4985 16.4834 28.7384 16.4834 30.2657C16.4834 31.7931 15.2436 33.0329 13.7163 33.0329C12.1889 33.0329 10.9491 31.7931 10.9491 30.2657C10.9491 28.7384 12.1889 27.4985 13.7163 27.4985Z" fill="#f0f0f0"/>
</svg>
