<svg width="94" height="87" viewBox="0 0 44 57" fill="none" xmlns="http://www.w3.org/2000/svg">
<path d="M0 28.5V57H21.7373H43.4746V36.3979V15.8199L35.6733 7.92203L27.872 0H13.936H0V28.5ZM26.3504 9.85424V17.4623H33.7894H41.2284V36.1081V54.7538H21.7373H2.24619V28.5V2.24619H14.2983H26.3504V9.85424ZM34.7072 10.1682L39.6826 15.2161H34.1517H28.6208V9.61271V4.00932L29.2004 4.56483C29.4903 4.87881 31.978 7.39068 34.7072 10.1682Z" fill="#f0f0f0"/>
<path d="M5.9668 8.33268V9.46785H13.913H21.8592V8.33268V7.19751H13.913H5.9668V8.33268Z" fill="#f0f0f0"/>
<path d="M5.9668 16.3271V17.4623H13.913H21.8592V16.3271V15.2161H13.913H5.9668V16.3271Z" fill="#f0f0f0"/>
<path d="M5.9668 24.3217V25.4569H21.7384H37.51L37.4859 24.3459L37.4617 23.259L21.7143 23.2348L5.9668 23.2107V24.3217Z" fill="#f0f0f0"/>
<path d="M5.9668 32.4369V33.5721H21.7384H37.51V32.4369V31.3018H21.7384H5.9668V32.4369Z" fill="#f0f0f0"/>
<path d="M5.9668 40.4313V41.5665H21.7384H37.51V40.4313V39.2961H21.7384H5.9668V40.4313Z" fill="#f0f0f0"/>
<path d="M5.9668 48.5466V49.6817L21.7143 49.6576L37.4617 49.6334L37.4859 48.5224L37.51 47.4355H21.7384H5.9668V48.5466Z" fill="#f0f0f0"/>
</svg>
