<svg width="38" height="38" viewBox="0 0 38 38" fill="none" xmlns="http://www.w3.org/2000/svg">
<path d="M24.7969 0.578125L24.1719 0.828125L21.9219 1.70312L21.2969 1.95312L21.4531 2.60937L21.9375 5.01562C21.7031 5.25 21.4531 5.53125 21.1875 5.8125L18.8125 5.28125L18.1562 5.125L17.9062 5.73437L16.9219 7.98437L16.6719 8.59375L17.2187 8.96875L19.2656 10.3437C19.25 10.7344 19.25 11.125 19.2656 11.5156L17.1562 12.8125L16.5781 13.1562L16.8281 13.7812L17.7031 16.0312L17.9531 16.6562L18.6094 16.5L21.0156 16.0156C21.2656 16.3125 21.5312 16.5781 21.8125 16.8125L21.2656 19.2187L21.1094 19.875L21.7344 20.1562L23.9844 21.1094L24.5937 21.3594L24.9687 20.8125L26.3437 18.7656C26.7344 18.7812 27.125 18.7812 27.5156 18.7656L28.8125 20.8906L29.1562 21.4375L29.7812 21.2187L32.0312 20.3125L32.6562 20.0625L32.5 19.4062L31.9531 16.7656C32.25 16.5156 32.5312 16.2344 32.7812 15.9375L35.2187 16.5625L35.8906 16.7344L36.1406 16.1094L37.125 13.8594L37.4062 13.2344L36.7969 12.8594L34.6875 11.5781C34.7031 11.1875 34.7031 10.7969 34.6875 10.4062L36.7969 9.10937L37.375 8.76562L37.125 8.14062L36.25 5.89062L36 5.26562L35.3281 5.42187L32.875 5.96875C32.625 5.67187 32.3594 5.40625 32.0781 5.17187L32.6094 2.76562L32.7656 2.10937L32.1562 1.85937L29.9062 0.875L29.2812 0.625L28.9062 1.20312L27.625 3.23437C27.25 3.20312 26.8594 3.23437 26.4531 3.26562L25.1562 1.14062L24.7969 0.578125ZM24.125 2.5625L25.2969 4.5L25.5937 4.98437L26.1406 4.85937C26.7031 4.73437 27.25 4.79687 27.9687 4.89062L28.4687 4.9375L28.75 4.51562L29.9062 2.6875L30.9219 3.10937L30.4219 5.26562L30.2969 5.79687L30.75 6.09375C31.2344 6.4375 31.6562 6.85938 32 7.34375L32.2969 7.79687L32.8281 7.67187L35.0312 7.17187L35.4375 8.17187L33.5 9.32812L33.0781 9.60938L33.125 10.1094C33.2031 10.7812 33.2031 11.3438 33.125 12.0156L33.0781 12.5156L33.5 12.7969L35.4062 13.9687L35 14.9219L32.7656 14.375L32.2187 14.25L31.9219 14.7031C31.5781 15.1875 31.1562 15.6094 30.6719 15.9531L30.25 16.25L30.3594 16.7812L30.8594 19.1562L29.8594 19.5312L28.6875 17.5937L28.4062 17.1719L27.9062 17.2187C27.2344 17.2969 26.6719 17.2969 26 17.2187L25.5 17.1719L25.25 17.5781L24.0312 19.4375L23 18.9844L23.4844 16.8281L23.6094 16.3281L23.1875 16C22.7031 15.6562 22.2812 15.2344 21.9375 14.75L21.6406 14.3281L21.1094 14.4219L18.9531 14.875L18.5781 13.875L20.4844 12.7031L20.9375 12.4219L20.8594 11.9219C20.7812 11.25 20.7812 10.6875 20.8594 10.0156L20.9375 9.53125L20.5156 9.25L18.6562 8.03125L19.0781 7L21.2656 7.5L21.75 7.59375L22.0469 7.21875C22.5 6.6875 22.9687 6.21875 23.375 5.8125L23.6719 5.51562L23.5937 5.10937L23.1406 2.95312L24.125 2.5625ZM27.0312 6.9375C24.8281 6.9375 23.0156 8.75 23.0156 10.9531C23.0156 13.1562 24.8281 14.9687 27.0312 14.9687C29.2344 14.9687 31.0469 13.1562 31.0469 10.9531C31.0469 8.75 29.2344 6.9375 27.0312 6.9375ZM27.0312 8.54687C28.375 8.54687 29.4375 9.60937 29.4375 10.9531C29.4375 12.2969 28.375 13.3594 27.0312 13.3594C25.6875 13.3594 24.625 12.2969 24.625 10.9531C24.625 9.60937 25.6875 8.54687 27.0312 8.54687ZM9.8125 14.9687L9.70312 15.6406L9.3125 18.25C8.875 18.3906 8.45312 18.5937 8.0625 18.7969L5.85938 17.1875L5.3125 16.7812L4.8125 17.2812L2.98437 19.1094L2.5 19.5937L2.875 20.1406L4.40625 22.3437C4.1875 22.7656 4 23.2031 3.85937 23.625L1.21875 24.1094L0.578125 24.2344V24.9062V27.4687V28.1406L1.23437 28.2656L3.875 28.75C4.01562 29.1875 4.21875 29.5937 4.42187 30L2.8125 32.125L2.39062 32.6719L2.89062 33.1719L4.71875 35L5.20312 35.4844L5.75 35.1094L7.95312 33.5781C8.375 33.7969 8.8125 33.9844 9.23437 34.125L9.64062 36.7344L9.73437 37.4062H10.4375H13H13.6875L13.7969 36.75L14.2969 34.1094C14.7344 33.9687 15.1562 33.7656 15.5469 33.5625L17.75 35.1719L18.2969 35.5781L18.7969 35.0781L20.625 33.25L21.1094 32.7656L20.7344 32.2187L19.125 29.9844C19.3281 29.5625 19.5312 29.1406 19.6719 28.7344L22.375 28.25L23.0312 28.125V27.4531V24.8906V24.1875L22.3594 24.0781L19.6562 23.6719C19.5156 23.2344 19.3437 22.8125 19.125 22.4219L20.7187 20.25L21.0937 19.7031L20.6406 19.2187L18.7812 17.2812L18.2969 16.7812L17.7188 17.1875L15.5156 18.7969C15.0937 18.5937 14.6719 18.3906 14.2656 18.25L13.8594 15.6406L13.75 14.9687H13.0625H10.5156H9.8125ZM11.1875 16.5625H12.3906L12.7656 18.9375L12.8437 19.4219L13.2969 19.5781C14.0156 19.8125 14.6875 20.0469 15.2344 20.375L15.6875 20.6562L16.1094 20.3594L18.1094 18.9062L19.0156 19.8594L17.5625 21.8906L17.2344 22.3125L17.5312 22.7656C17.8906 23.3437 18.1719 24.0156 18.3125 24.625L18.4375 25.1562L18.9687 25.2344L21.4219 25.6094V26.8281L18.9687 27.25L18.4844 27.3281L18.3281 27.7812C18.0937 28.5 17.8594 29.1719 17.5312 29.7187L17.2344 30.1719L17.5625 30.5937L19.0156 32.625L18.1094 33.5L16.1094 32.0469L15.6875 31.75L15.2344 32.0312C14.6562 32.3906 13.9844 32.6719 13.375 32.8125L12.875 32.9375L12.7656 33.4687L12.3437 35.8437H11.125L10.75 33.4687L10.6719 32.9844L10.2188 32.8281C9.5 32.5937 8.82812 32.3594 8.28125 32.0312L7.82812 31.75L7.40625 32.0469L5.375 33.4219L4.5 32.5469L5.92187 30.6094L6.26562 30.1562L5.96875 29.7031C5.60937 29.125 5.32812 28.4844 5.1875 27.875L5.0625 27.3437L4.53125 27.25L2.17187 26.8125V25.5625L4.54687 25.1406L5.03125 25.0312L5.1875 24.6094C5.42187 23.8906 5.65625 23.2187 5.98437 22.6719L6.26562 22.2187L5.96875 21.7969L4.59375 19.7656L5.5 18.8906L7.5 20.3438L7.92187 20.6406L8.375 20.3594C8.95312 20 9.625 19.7187 10.2344 19.5781L10.7656 19.4531L10.8438 18.9219L11.1875 16.5625ZM11.7969 22.1875C9.59375 22.1875 7.78125 24 7.78125 26.2031C7.78125 28.4062 9.59375 30.2187 11.7969 30.2187C14 30.2187 15.8125 28.4062 15.8125 26.2031C15.7969 23.9844 14 22.1875 11.7969 22.1875ZM11.7969 23.7812C13.125 23.7812 14.2031 24.8594 14.2031 26.1875C14.2031 27.5156 13.125 28.5937 11.7969 28.5937C10.4688 28.5937 9.39062 27.5156 9.39062 26.1875C9.39062 24.8594 10.4688 23.7812 11.7969 23.7812Z" fill="#005FE5"/>
</svg>
