<svg width="40" height="28" viewBox="0 0 40 28" fill="none" xmlns="http://www.w3.org/2000/svg">
<path d="M9.12322 0.12246C7.9079 0.354864 6.74252 1.12954 6.22643 2.04366C5.81022 2.78736 5.72698 3.08173 5.69369 4.39869C5.62709 6.35088 5.84352 7.31148 6.67593 8.7059C6.9423 9.13972 7.19203 9.62003 7.24197 9.79045C7.44175 10.3947 7.02554 10.9835 6.10989 11.3863C5.84352 11.5102 4.94452 11.8201 4.09546 12.0835C2.38069 12.6258 1.29856 13.0906 0.815762 13.4779C0.64928 13.6174 0.399557 13.9272 0.266371 14.1596C0.0499447 14.5625 0.0499447 14.5935 0.0166483 16.1273L0 17.6767L0.199778 17.8626L0.399557 18.0485H6.37626H12.353L12.586 17.8316C12.8524 17.5682 12.8691 17.3358 12.6526 17.0569L12.5028 16.871H6.87571H1.26526V15.8949C1.26526 15.3681 1.29856 14.8259 1.3485 14.7019C1.49834 14.2836 2.14762 13.9892 4.42842 13.261C5.24418 12.9976 6.12654 12.7032 6.40956 12.5793C7.84131 11.975 8.55718 11.1384 8.57383 10.0848C8.57383 9.60453 8.34075 8.9538 7.79136 7.90024C7.09214 6.56779 6.92565 5.97903 6.92565 4.69307C6.92565 3.31414 7.12543 2.63242 7.70812 2.01268C8.54053 1.12954 10.6382 0.881646 12.02 1.50139C12.4029 1.67182 12.5694 1.81126 13.3519 2.66341C13.5849 2.89581 13.6349 2.9268 13.868 2.88032C14.5006 2.77186 14.5672 2.26057 14.0511 1.60984C13.0522 0.370357 10.9878 -0.264879 9.12322 0.12246Z" fill="#005FE5"/>
<path d="M27.9011 0.107158C26.8523 0.324068 25.8201 0.912824 25.254 1.62553C24.8378 2.13682 24.8045 2.46218 25.1042 2.74107C25.3872 3.00446 25.6536 2.97347 25.9532 2.6636C26.7357 1.82695 26.9188 1.67201 27.2851 1.50158C28.6669 0.897331 30.7479 1.14523 31.5803 2.01287C31.88 2.33823 32.163 2.86501 32.2796 3.32982C32.4128 3.88759 32.3961 5.5454 32.2463 6.11867C32.0964 6.73841 32.0465 6.83137 31.4139 8.03987C30.7812 9.24837 30.6314 9.82163 30.7812 10.5188C30.9477 11.3555 31.6469 12.0372 32.8789 12.5485C33.1619 12.6724 33.9943 12.9513 34.7435 13.1992C36.4583 13.7415 36.8578 13.8809 37.3573 14.1753C37.94 14.5007 38.0066 14.6711 38.0066 15.8641V16.8557H32.7291C27.3683 16.8557 26.9188 16.8867 26.6025 17.1346C26.4527 17.2585 26.486 17.367 26.769 17.7543L26.9688 18.0332H32.9288H38.8889L39.0887 17.8473L39.2885 17.6614L39.2552 16.112C39.2385 14.5782 39.2385 14.5627 39.0054 14.1443C38.8723 13.9119 38.6392 13.6176 38.4561 13.4626C37.9733 13.0753 36.8745 12.6105 35.1764 12.0682C33.3284 11.4794 32.7457 11.2315 32.3462 10.8597C31.7968 10.3484 31.8301 9.94558 32.5459 8.75257C33.3783 7.37365 33.6114 6.47502 33.6114 4.69326C33.6114 3.3763 33.4949 2.80304 33.0953 2.09034C32.1963 0.525485 30.0154 -0.311168 27.9011 0.107158Z" fill="#005FE5"/>
<path d="M18.6631 1.65646C16.9649 1.87337 15.3667 2.71003 14.501 3.82557C13.602 5.00308 13.3523 5.9172 13.3523 8.10179C13.3523 10.6892 13.6519 11.9132 14.8173 13.8809C15.4333 14.9035 15.6331 15.4148 15.6331 15.9415C15.6331 17.1655 14.6342 17.8473 11.3212 18.9163C9.30677 19.567 8.79067 19.7685 7.74184 20.2488C6.6597 20.7446 5.94383 21.3643 5.66081 22.046C5.47768 22.4643 5.47768 22.5573 5.44438 24.587L5.42773 26.6941L5.62751 26.88L5.82729 27.0659H19.6453H33.4633L33.6631 26.88L33.8629 26.6941L33.8462 24.587C33.8129 22.17 33.763 21.984 33.0971 21.2868C32.3146 20.4657 31.1492 19.9389 27.9694 18.9163C25.3057 18.0642 24.2569 17.5064 23.8407 16.7317C23.6575 16.3754 23.6242 16.2514 23.6575 15.7866C23.6742 15.2753 23.7241 15.1669 24.4067 13.8964C25.2391 12.347 25.4722 11.7118 25.7052 10.5188C25.8384 9.74411 25.8551 9.41875 25.8218 7.88488C25.7885 6.35102 25.7718 6.07213 25.622 5.57634C24.9561 3.51569 23.258 2.13677 20.8273 1.73393C20.2613 1.62548 19.1792 1.59449 18.6631 1.65646ZM21.2435 2.95792C22.5254 3.28329 23.5077 3.99599 24.0238 5.00308C24.4733 5.85522 24.5732 6.36651 24.5732 8.05531C24.5732 10.2244 24.3567 11.0611 23.3579 12.9513C23.0748 13.4626 22.7585 14.1288 22.6087 14.4697C22.4089 14.95 22.2591 15.1359 21.9428 15.4303C21.4766 15.8331 21.0271 16.081 20.4444 16.2204C18.9128 16.6078 17.1314 15.8021 16.6153 14.5006C16.5154 14.2372 16.1825 13.571 15.8662 12.9978C15.2002 11.7428 14.8673 10.8906 14.7174 10.0075C14.5676 9.09338 14.5676 6.92428 14.7174 6.18059C15.1003 4.38333 16.4322 3.22132 18.4633 2.88046C19.0626 2.75651 20.6941 2.81848 21.2435 2.95792ZM17.9139 17.5839C18.1137 17.6768 18.43 17.7853 18.6131 17.8473L18.9627 17.9402L18.0304 18.7614C16.8651 19.784 16.8817 19.7839 17.5809 20.76C17.8473 21.1319 18.0637 21.4727 18.0637 21.5347C18.0637 21.5812 17.9305 21.8291 17.7974 22.0925L17.531 22.5573L16.1825 20.7136L14.834 18.8698L15.2002 18.6374C15.7663 18.2811 16.299 17.7543 16.5321 17.2895L16.7485 16.8867L17.1314 17.1655C17.3811 17.274 17.7141 17.4909 17.9139 17.5839ZM22.6753 17.2275C22.925 17.6923 23.5077 18.2656 24.0571 18.6064L24.4233 18.8388L23.1081 20.6361C22.3923 21.6277 21.7763 22.4334 21.7596 22.4488C21.7097 22.4488 21.2102 21.5502 21.2102 21.4727C21.2102 21.4418 21.3767 21.1784 21.5931 20.884C22.1259 20.1403 22.2424 19.9079 22.1758 19.7065C22.1425 19.598 21.743 19.1952 21.2269 18.7459C20.7274 18.3121 20.3279 17.9402 20.3279 17.9092C20.3279 17.8937 20.4444 17.8473 20.5776 17.8163C20.9439 17.7543 21.743 17.367 22.1092 17.0726C22.2757 16.9331 22.4256 16.8247 22.4422 16.8092C22.4589 16.8092 22.5587 17.0106 22.6753 17.2275ZM20.2613 19.4741L20.7441 19.9389L20.3279 20.5586C20.0948 20.8995 19.8784 21.2403 19.8451 21.3333C19.8118 21.4418 19.945 21.7826 20.3612 22.5418L20.9272 23.5954L20.2946 24.4785C19.9616 24.9588 19.662 25.3616 19.6287 25.3616C19.612 25.3616 19.3123 24.9743 18.9794 24.5095L18.3634 23.6573L18.9128 22.5883C19.3456 21.7671 19.4622 21.4727 19.4289 21.3488C19.3956 21.2558 19.1792 20.8995 18.9461 20.5586L18.5299 19.9389L19.0127 19.4741C19.2957 19.2107 19.5621 19.0093 19.6287 19.0093C19.6952 19.0093 19.9949 19.2107 20.2613 19.4741ZM15.1003 21.2558C15.8495 22.2939 16.915 23.7503 17.4644 24.5095L18.4633 25.8884H12.5865H6.67635V24.37C6.67635 23.5024 6.70965 22.7277 6.75959 22.5573C6.97602 21.8601 8.27458 21.1474 11.0715 20.2488C11.9705 19.9699 12.9028 19.66 13.1525 19.567C13.4189 19.4586 13.6353 19.3811 13.6686 19.3811C13.7185 19.3656 14.3512 20.2178 15.1003 21.2558ZM26.0549 19.5515C26.3046 19.6445 27.2702 19.9544 28.1692 20.2488C30.9994 21.1474 32.3146 21.8446 32.5144 22.5573C32.5643 22.7277 32.5976 23.4869 32.5976 24.37V25.8884H26.7041H20.8107L20.9605 25.687C21.0438 25.5785 22.1092 24.1222 23.3246 22.4334C24.5565 20.76 25.5554 19.3811 25.5554 19.3811C25.5721 19.3656 25.7885 19.4586 26.0549 19.5515Z" fill="#005FE5"/>
</svg>
