<svg width="523" height="512" viewBox="0 0 523 512" fill="none" xmlns="http://www.w3.org/2000/svg">
<path d="M41.4736 406.399C44.4936 403.477 49.2409 403.064 52.6343 405.541C58.4255 409.766 57.1892 419.637 48.036 421.669C38.6606 421.197 36.1712 411.528 41.4736 406.399Z" fill="#D7E9FF"/>
<path d="M352.355 3.14064C346.953 4.87518 343.98 10.6605 345.715 16.0626C347.449 21.4646 353.235 24.4377 358.637 22.7032C364.039 20.9686 367.012 15.1833 365.277 9.78124C363.543 4.3792 357.757 1.4061 352.355 3.14064Z" fill="#D7E9FF"/>
<path d="M76.3774 393.61C84.5263 388.189 86.7369 377.187 81.3151 369.038C75.8932 360.89 64.8919 358.679 56.7431 364.101C48.5942 369.523 46.3836 380.524 51.8055 388.673C57.2273 396.822 68.2286 399.032 76.3774 393.61Z" fill="#D7E9FF"/>
<path d="M376.806 15.9602C373.483 17.0272 371.654 20.5862 372.721 23.9094C373.788 27.2326 377.347 29.0616 380.67 27.9946C383.993 26.9275 385.822 23.3685 384.755 20.0453C383.688 16.7221 380.129 14.8931 376.806 15.9602Z" fill="#D7E9FF"/>
<path d="M382.658 76.0104C362.453 45.6546 310.496 32.2309 272.042 54.9166C271.367 55.3147 270.687 55.7227 270.005 56.1386C215.396 89.4408 247.942 147.147 203.926 185.383C159.911 223.619 102.307 216.761 58.2958 275.525C18.7704 328.301 188.16 503.013 342.926 406.005C466.752 328.39 442.941 166.578 382.658 76.0104Z" fill="#E9F3FF"/>
<path d="M444.918 233.516V416.121C444.918 423.139 439.228 428.829 432.21 428.829H122.141C115.124 428.829 109.434 423.139 109.434 416.121V233.516C109.434 226.499 115.123 220.809 122.141 220.809H432.211C439.228 220.809 444.918 226.498 444.918 233.516Z" fill="#00312E"/>
<path d="M430.014 242.976V395.281C430.014 399.762 426.137 403.397 421.353 403.397H133.001C130.444 403.397 128.144 402.359 126.557 400.703C125.174 399.269 124.336 397.364 124.336 395.281V242.976C124.336 238.494 128.216 234.859 133.001 234.859H421.353C422.953 234.859 424.45 235.265 425.735 235.975C428.296 237.385 430.014 239.994 430.014 242.976Z" fill="#B3D5FF"/>
<path d="M476.242 421.594V422.751C476.242 428.508 474.396 433.833 471.26 438.163C466.479 444.777 458.698 449.079 449.913 449.079H104.41C95.6253 449.079 87.8443 444.777 83.0634 438.163C79.9286 433.833 78.082 428.508 78.082 422.751V421.594H476.242Z" fill="#394E50"/>
<path d="M276.302 439.147C278.404 439.147 280.108 437.443 280.108 435.341C280.108 433.239 278.404 431.535 276.302 431.535C274.2 431.535 272.496 433.239 272.496 435.341C272.496 437.443 274.2 439.147 276.302 439.147Z" fill="#00312E"/>
<path d="M262.861 439.147C264.962 439.147 266.666 437.443 266.666 435.341C266.666 433.239 264.962 431.535 262.861 431.535C260.759 431.535 259.055 433.239 259.055 435.341C259.055 437.443 260.759 439.147 262.861 439.147Z" fill="#00312E"/>
<path d="M289.743 439.147C291.845 439.147 293.549 437.443 293.549 435.341C293.549 433.239 291.845 431.535 289.743 431.535C287.641 431.535 285.938 433.239 285.938 435.341C285.938 437.443 287.641 439.147 289.743 439.147Z" fill="#00312E"/>
<path d="M423.208 439.147C425.31 439.147 427.014 437.443 427.014 435.341C427.014 433.239 425.31 431.535 423.208 431.535C421.106 431.535 419.402 433.239 419.402 435.341C419.402 437.443 421.106 439.147 423.208 439.147Z" fill="#F26850"/>
<path d="M436.653 439.147C438.755 439.147 440.459 437.443 440.459 435.341C440.459 433.239 438.755 431.535 436.653 431.535C434.552 431.535 432.848 433.239 432.848 435.341C432.848 437.443 434.552 439.147 436.653 439.147Z" fill="#FDBF68"/>
<path d="M232.531 421.594V421.858C232.531 423.943 233.927 425.633 235.649 425.633H316.931C318.653 425.633 320.049 423.943 320.049 421.858V421.594H232.531Z" fill="#5A7B7C"/>
<path d="M430.01 243.523V253.115H124.332V243.523C124.332 241.677 124.907 239.969 125.894 238.566C127.457 236.325 130.055 234.859 132.996 234.859H421.348C424.29 234.859 426.887 236.325 428.447 238.566C429.435 239.969 430.01 241.677 430.01 243.523Z" fill="white"/>
<path d="M403.101 246.741C404.367 246.741 405.393 245.715 405.393 244.449C405.393 243.183 404.367 242.156 403.101 242.156C401.835 242.156 400.809 243.183 400.809 244.449C400.809 245.715 401.835 246.741 403.101 246.741Z" fill="#008481"/>
<path d="M410.527 246.741C411.793 246.741 412.819 245.715 412.819 244.449C412.819 243.183 411.793 242.156 410.527 242.156C409.261 242.156 408.234 243.183 408.234 244.449C408.234 245.715 409.261 246.741 410.527 246.741Z" fill="#55B2E0"/>
<path d="M417.6 246.739C418.866 246.739 419.892 245.713 419.892 244.448C419.892 243.182 418.866 242.156 417.6 242.156C416.335 242.156 415.309 243.182 415.309 244.448C415.309 245.713 416.335 246.739 417.6 246.739Z" fill="#F15651"/>
<path d="M389.243 246.881H156.409C155.134 246.881 154.09 245.837 154.09 244.562V244.351C154.09 243.075 155.134 242.031 156.409 242.031H389.243C390.518 242.031 391.562 243.075 391.562 244.351V244.562C391.562 245.836 390.518 246.881 389.243 246.881Z" fill="#B2D5FF"/>
<path d="M388.8 385.352H177.183C174.31 385.352 171.98 383.023 171.98 380.15V265.929C171.98 263.056 174.31 260.727 177.183 260.727H388.801C391.674 260.727 394.002 263.056 394.002 265.929V380.15C394.002 383.023 391.673 385.352 388.8 385.352Z" fill="#6EAEFA"/>
<path d="M350.888 348.151C350.868 348.984 351.084 349.765 351.477 350.431C351.667 350.755 351.864 351.073 352.047 351.401L355.157 357.012L357.196 353.336C357.737 352.36 358.325 351.411 358.894 350.452C359.276 349.808 359.496 349.058 359.496 348.257C359.496 345.785 357.408 343.796 354.897 343.963C352.696 344.109 350.94 345.948 350.888 348.151ZM353.375 347.743C353.375 346.738 354.187 345.926 355.191 345.926C356.193 345.926 357.007 346.738 357.007 347.743C357.007 348.747 356.193 349.559 355.191 349.559C354.187 349.559 353.375 348.747 353.375 347.743Z" fill="#F2D0C3"/>
<path d="M333.602 350.603C333.602 354.163 336.498 357.061 340.059 357.061C343.62 357.061 346.517 354.163 346.517 350.603C346.517 347.042 343.62 344.145 340.059 344.145C336.498 344.145 333.602 347.041 333.602 350.603ZM337.225 352.987C337.013 352.285 336.898 351.525 336.88 350.725H339.8V352.987H337.225ZM338.747 356.395C337.108 356.025 335.712 354.985 334.881 353.507H336.848C337.118 354.271 337.496 354.963 337.97 355.565C338.21 355.868 338.47 356.147 338.747 356.395ZM339.8 353.506L339.799 356.534C339.604 356.419 338.985 356.018 338.365 355.226C337.969 354.72 337.645 354.141 337.402 353.506H339.8V353.506ZM337.543 347.422C338.232 345.897 339.245 344.957 339.568 344.684C339.644 344.677 339.722 344.672 339.799 344.67V347.422H337.543ZM335.046 347.422C335.874 346.123 337.178 345.189 338.663 344.829C338.371 345.139 338.096 345.476 337.846 345.836C337.5 346.333 337.208 346.867 336.975 347.422H335.046ZM336.884 350.205C336.914 349.432 337.064 348.671 337.332 347.943H339.8V350.205H336.884ZM334.134 350.205C334.186 349.412 334.394 348.651 334.75 347.943H336.78C336.532 348.676 336.391 349.436 336.363 350.205H334.134ZM336.36 350.725C336.377 351.52 336.486 352.28 336.683 352.987H334.621C334.305 352.271 334.137 351.511 334.122 350.725H336.36ZM343.698 350.725H345.996C345.981 351.511 345.812 352.272 345.497 352.987H343.374C343.571 352.28 343.68 351.52 343.698 350.725ZM340.318 347.422V344.67C340.374 344.672 340.428 344.675 340.483 344.679C340.707 344.867 341.25 345.363 341.794 346.145C342.073 346.547 342.315 346.977 342.516 347.422H340.318ZM342.727 347.943C342.994 348.674 343.144 349.434 343.175 350.205H340.319V347.943H342.727ZM343.082 347.422C342.851 346.867 342.558 346.333 342.212 345.836C341.956 345.469 341.676 345.125 341.377 344.812C342.896 345.158 344.228 346.098 345.071 347.423L343.082 347.422ZM343.178 350.725C343.16 351.527 343.045 352.288 342.834 352.987H340.319V350.725H343.178ZM343.694 350.205C343.666 349.436 343.526 348.676 343.277 347.943H345.367C345.724 348.652 345.932 349.413 345.983 350.205H343.694ZM345.238 353.506C344.402 354.99 342.946 356.059 341.292 356.412C341.575 356.16 341.842 355.876 342.088 355.565C342.562 354.963 342.939 354.271 343.211 353.507L345.238 353.506ZM342.655 353.506C341.938 355.367 340.712 356.253 340.318 356.498V353.506H342.655Z" fill="#F2D0C3"/>
<path d="M370.183 348.346C370.183 347.786 369.642 347.497 368.974 347.497C368.199 347.497 367.477 347.966 367.098 348.724L363.887 347.118C364.807 345.386 366.63 344.195 369.516 344.195C372.349 344.195 374.46 345.386 374.46 347.641C374.46 350.402 371.574 350.889 371.574 352.278H367.857C367.856 350.096 370.183 349.446 370.183 348.346ZM367.332 355.129C367.332 353.92 368.306 353 369.713 353C371.121 353 372.095 353.92 372.095 355.129C372.095 356.32 371.121 357.294 369.713 357.294C368.306 357.294 367.332 356.32 367.332 355.129Z" fill="#F2D0C3"/>
<path d="M406.461 330.673H395.039C394.133 330.673 393.398 329.938 393.398 329.032V286.609C393.398 285.703 394.133 284.969 395.039 284.969H406.461C407.366 284.969 408.101 285.704 408.101 286.609V329.032C408.102 329.938 407.366 330.673 406.461 330.673Z" fill="#6EAEFA"/>
<path d="M402.782 309.858H397.061C396.411 309.858 395.883 309.331 395.883 308.679V304.803C395.883 304.153 396.411 303.625 397.061 303.625H402.782C403.433 303.625 403.96 304.153 403.96 304.803V308.679C403.96 309.331 403.433 309.858 402.782 309.858Z" fill="#00312E"/>
<path d="M406.29 303.625V309.857L403.773 307.738V305.744L406.29 303.625Z" fill="#00312E"/>
<path d="M401.087 326.103C403.952 326.103 406.275 323.78 406.275 320.915C406.275 318.049 403.952 315.727 401.087 315.727C398.221 315.727 395.898 318.049 395.898 320.915C395.898 323.78 398.221 326.103 401.087 326.103Z" fill="#F26850"/>
<path d="M398.635 323.904C398.774 323.904 398.914 323.851 399.02 323.745L403.913 318.852C404.126 318.639 404.126 318.294 403.913 318.081C403.7 317.869 403.355 317.869 403.143 318.081L398.25 322.974C398.037 323.187 398.037 323.532 398.25 323.745C398.356 323.851 398.496 323.904 398.635 323.904Z" fill="#6EAEFA"/>
<path d="M403.528 323.905C403.667 323.905 403.807 323.852 403.913 323.746C404.126 323.532 404.126 323.188 403.913 322.975L399.02 318.082C398.807 317.869 398.462 317.869 398.25 318.082C398.037 318.294 398.037 318.64 398.25 318.852L403.143 323.746C403.25 323.852 403.388 323.905 403.528 323.905Z" fill="#6EAEFA"/>
<path d="M400.947 295.558H401.221C401.931 295.558 402.511 294.978 402.511 294.268V289.408C402.511 288.698 401.931 288.117 401.221 288.117H400.947C400.237 288.117 399.656 288.698 399.656 289.408V294.268C399.656 294.978 400.237 295.558 400.947 295.558Z" fill="#00312E"/>
<path d="M401.057 297.323H401.113C401.258 297.323 401.377 297.205 401.377 297.059V294.096C401.377 293.951 401.258 293.832 401.113 293.832H401.057C400.912 293.832 400.793 293.95 400.793 294.096V297.059C400.793 297.205 400.912 297.323 401.057 297.323Z" fill="#00312E"/>
<path d="M398.777 297.594H403.402C403.707 297.594 403.956 297.344 403.956 297.04V296.922C403.956 296.617 403.706 296.367 403.402 296.367H398.777C398.472 296.367 398.223 296.617 398.223 296.922V297.04C398.222 297.345 398.472 297.594 398.777 297.594Z" fill="#00312E"/>
<path d="M171.98 365.996H394.002V384.198C394.002 384.833 393.485 385.349 392.849 385.349H173.133C172.497 385.349 171.98 384.833 171.98 384.198V365.996Z" fill="#00312E"/>
<path d="M378.082 373.171V371.531H380.134V370.07H377.351C376.948 370.07 376.621 370.397 376.621 370.8V373.171H378.082Z" fill="#6EAEFA"/>
<path d="M378.082 376.094H376.621V378.589C376.621 378.992 376.948 379.319 377.351 379.319H380.134V377.858H378.082V376.094Z" fill="#6EAEFA"/>
<path d="M384.407 373.171H385.867V370.8C385.867 370.397 385.54 370.07 385.137 370.07H382.461V371.531H384.407V373.171H384.407Z" fill="#6EAEFA"/>
<path d="M384.407 376.094V377.859H382.461V379.319H385.137C385.54 379.319 385.867 378.993 385.867 378.589V376.094H384.407Z" fill="#6EAEFA"/>
<path d="M309.67 224.269C309.67 224.269 307.031 230.256 302.139 230.188C298.187 230.131 295.605 225.655 294.756 223.936C294.553 223.525 294.45 223.272 294.45 223.272C294.45 223.272 294.165 223.23 293.754 223.116C292.789 222.853 291.116 222.21 290.749 220.844C290.226 218.897 294.024 218.64 294.024 218.64C294.024 218.64 292.645 216.575 293.395 215.525C294.134 214.494 296.601 214.875 296.601 214.875C296.601 214.875 294.443 212.524 295.69 211.28C297.565 209.41 299.619 212.53 299.798 212.719C299.679 212.481 297.218 208.14 299.217 207.989C300.962 207.858 303.133 210.343 304.407 212.58C304.609 212.933 304.721 213.138 304.721 213.138C304.721 213.138 304.845 213.086 305.06 213.011C306.078 212.655 309.142 211.788 310.472 213.643C312.08 215.885 309.67 224.269 309.67 224.269Z" fill="#F69B8D"/>
<path d="M303.852 226.871C303.724 226.897 303.587 226.856 303.494 226.752C303.356 226.596 303.37 226.358 303.526 226.219C304.365 225.473 304.79 224.6 304.788 223.626C304.785 221.128 302.073 218.7 302.045 218.676C301.889 218.538 301.875 218.3 302.012 218.143C302.15 217.987 302.39 217.972 302.545 218.11C302.668 218.218 305.54 220.791 305.544 223.625C305.545 224.825 305.034 225.888 304.027 226.783C303.975 226.829 303.915 226.859 303.852 226.871Z" fill="#ED7463"/>
<path d="M303.015 217.035C302.902 217.468 302.633 217.766 302.243 217.898C302.161 217.927 302.071 217.944 301.974 217.957C301.768 217.982 301.531 217.971 301.277 217.935C301.425 218.1 301.556 218.268 301.646 218.438C301.74 218.604 301.801 218.773 301.818 218.939C301.838 219.177 301.786 219.521 301.419 219.819C300.63 220.445 299.194 220.414 298.059 220.259C298.727 220.928 299.252 221.737 299.315 222.43C299.354 222.877 299.207 223.251 298.886 223.508C298.664 223.685 298.334 223.807 297.944 223.885C296.974 224.082 295.647 224.018 294.766 223.94C294.563 223.527 294.46 223.275 294.46 223.275C294.46 223.275 294.176 223.233 293.762 223.121C293.827 223.091 293.898 223.082 293.972 223.092C295.366 223.284 297.804 223.407 298.416 222.919C298.496 222.853 298.584 222.747 298.564 222.497C298.493 221.734 297.418 220.471 296.354 219.898C296.184 219.807 296.11 219.606 296.182 219.428C296.255 219.246 296.449 219.151 296.632 219.203C297.532 219.453 300.058 219.941 300.948 219.229C301.076 219.126 301.069 219.05 301.064 219.01C301.049 218.829 300.885 218.603 300.641 218.361C300.143 217.869 299.31 217.319 298.687 216.989C298.613 216.95 298.561 216.894 298.528 216.826C298.472 216.721 298.468 216.592 298.529 216.479C298.628 216.296 298.854 216.224 299.041 216.323C299.16 216.385 299.404 216.518 299.705 216.704C300.3 216.934 300.884 217.121 301.341 217.191C301.615 217.234 301.843 217.234 302.004 217.181C302.101 217.148 302.222 217.079 302.287 216.839C302.369 216.539 302.319 216.101 302.18 215.629C302.135 215.481 302.191 215.322 302.315 215.228C302.318 215.227 302.322 215.224 302.325 215.221C302.533 215.063 302.833 215.161 302.905 215.411C303.078 216.002 303.134 216.579 303.015 217.035Z" fill="#ED7463"/>
<path d="M302.091 209.503C302.621 210.055 303.076 210.559 303.479 211.203C303.871 211.832 304.135 212.166 304.406 212.585C304.372 212.618 304.441 212.55 304.406 212.585L305.075 180.968C305.087 180.484 304.369 180.447 304.33 180.931L302.091 209.503C302.093 209.506 302.088 209.5 302.091 209.503Z" fill="#394E50"/>
<path d="M303.919 227.621C301.077 228.564 300.695 227.224 300.695 227.224L301.269 219.905C301.313 219.876 301.359 219.845 301.402 219.811C301.769 219.513 301.821 219.169 301.801 218.931C301.784 218.764 301.723 218.596 301.629 218.429C301.57 218.32 301.495 218.212 301.41 218.106L301.423 217.946C301.615 217.963 301.798 217.967 301.957 217.947C302.054 217.934 302.144 217.917 302.226 217.888C302.485 217.8 302.691 217.639 302.83 217.414C303.052 217.773 303.376 218.031 303.798 218.188C303.912 218.231 304.028 218.263 304.148 218.291L303.919 227.621Z" fill="#394E50"/>
<path d="M308.855 217.241C308.769 217.285 307.453 217.946 306.04 218.232C305.258 218.391 304.444 218.434 303.794 218.192C303.259 217.992 302.879 217.626 302.666 217.103C301.909 215.248 303.424 213.472 304.397 212.578C304.599 212.932 304.711 213.137 304.711 213.137C304.711 213.137 304.835 213.084 305.05 213.01C304.224 213.74 302.75 215.314 303.364 216.817C303.495 217.141 303.721 217.359 304.058 217.483C305.312 217.951 307.699 216.981 308.511 216.567C308.697 216.472 308.925 216.546 309.02 216.732C309.115 216.918 309.039 217.146 308.855 217.241Z" fill="#ED7463"/>
<path d="M348.333 219.721L348.336 219.707C348.336 219.704 348.34 219.692 348.335 219.704L348.315 219.742L348.274 219.826L348.175 220.029L347.955 220.479C347.88 220.632 347.802 220.789 347.721 220.947C347.641 221.105 347.56 221.263 347.474 221.424C347.145 222.063 346.795 222.713 346.431 223.357C345.694 224.642 344.933 225.93 344.111 227.177C343.287 228.424 342.449 229.66 341.553 230.847C341.1 231.437 340.651 232.028 340.181 232.601C339.727 233.186 339.244 233.744 338.772 234.311C337.802 235.418 336.809 236.499 335.773 237.522C335.522 237.788 335.253 238.03 334.993 238.283C334.728 238.531 334.475 238.793 334.202 239.031C333.663 239.511 333.134 240.005 332.579 240.462C331.493 241.409 330.344 242.257 329.199 243.104C328.03 243.91 326.851 244.699 325.626 245.397C325.321 245.573 325.018 245.755 324.711 245.927L323.777 246.416L323.311 246.663L323.193 246.724L323.254 246.693L323.333 246.654C323.442 246.604 323.553 246.564 323.668 246.527C324.145 246.345 324.697 246.255 325.191 246.248C325.316 246.248 325.421 246.241 325.537 246.25C325.592 246.254 325.649 246.26 325.706 246.267L325.848 246.279C325.941 246.289 326.038 246.309 326.124 246.329C326.198 246.34 326.269 246.355 326.34 246.376C326.372 246.384 326.414 246.402 326.438 246.407C326.463 246.413 326.488 246.42 326.513 246.427C326.56 246.44 326.616 246.466 326.651 246.481C326.681 246.489 326.711 246.501 326.738 246.515L326.776 246.537C326.783 246.538 326.788 246.54 326.793 246.542C326.892 246.604 326.687 246.517 326.407 246.296C326.121 246.079 325.748 245.742 325.353 245.346C324.957 244.947 324.538 244.482 324.114 243.979C323.263 242.975 322.399 241.81 321.548 240.592C320.7 239.365 319.86 238.075 319.038 236.745C318.212 235.42 317.399 234.055 316.61 232.665C315.817 231.278 315.03 229.871 314.266 228.45C313.878 227.742 313.495 227.031 313.121 226.318L312.028 224.254L297.953 230.054L298.193 230.75L298.424 231.397L298.888 232.67C299.207 233.512 299.532 234.346 299.866 235.179C300.541 236.839 301.245 238.49 301.998 240.132C302.759 241.77 303.549 243.407 304.401 245.039C304.83 245.853 305.269 246.668 305.728 247.483C306.189 248.296 306.667 249.11 307.166 249.925C308.171 251.556 309.256 253.185 310.529 254.837C311.168 255.662 311.854 256.492 312.622 257.333C313.39 258.175 314.245 259.021 315.275 259.882C316.31 260.738 317.515 261.623 319.144 262.427L319.447 262.576C319.552 262.624 319.669 262.673 319.78 262.721C320.004 262.817 320.23 262.909 320.455 262.998C320.69 263.088 320.95 263.173 321.198 263.254L321.576 263.373C321.701 263.412 321.849 263.446 321.984 263.482C322.263 263.551 322.54 263.615 322.82 263.674C323.115 263.728 323.424 263.774 323.727 263.813C323.88 263.833 324.03 263.852 324.186 263.867C324.348 263.879 324.511 263.888 324.673 263.896C325.001 263.909 325.32 263.924 325.656 263.913C327.002 263.883 328.393 263.619 329.678 263.167C329.989 263.05 330.295 262.924 330.6 262.792L330.825 262.69L331.032 262.594L331.197 262.509L331.863 262.167L333.191 261.479C333.627 261.241 334.058 260.989 334.491 260.744C336.229 259.77 337.88 258.665 339.503 257.531C341.099 256.366 342.663 255.156 344.131 253.856C345.622 252.577 347.017 251.208 348.371 249.811L349.365 248.746C349.696 248.39 350.008 248.021 350.329 247.659C350.65 247.296 350.97 246.932 351.275 246.558L352.198 245.442C354.617 242.439 356.76 239.257 358.645 235.939C359.58 234.274 360.468 232.585 361.268 230.836C361.668 229.961 362.06 229.08 362.427 228.167C362.518 227.942 362.61 227.711 362.7 227.478C362.79 227.248 362.878 227.014 362.967 226.774C363.056 226.54 363.146 226.292 363.233 226.045L363.533 225.162L348.333 219.721Z" fill="#55B2E0"/>
<path d="M307.152 231.475C307.732 231.475 308.202 231.005 308.202 230.425C308.202 229.845 307.732 229.375 307.152 229.375C306.572 229.375 306.102 229.845 306.102 230.425C306.102 231.005 306.572 231.475 307.152 231.475Z" fill="#1289B2"/>
<path d="M322.755 253.174C322.95 253.224 323.162 253.139 323.261 252.954C324.92 249.901 325.873 245.781 325.913 245.607C325.968 245.365 325.819 245.127 325.575 245.07C325.334 245.015 325.093 245.166 325.038 245.407C325.028 245.448 324.071 249.584 322.472 252.526C322.354 252.743 322.435 253.015 322.654 253.134C322.686 253.152 322.72 253.166 322.755 253.174Z" fill="#1289B2"/>
<path d="M326.351 250.747C326.417 250.763 326.485 250.766 326.556 250.751C326.799 250.699 326.954 250.461 326.901 250.219C326.873 250.085 326.192 246.914 325.745 245.907C325.645 245.68 325.379 245.579 325.153 245.679C324.927 245.78 324.824 246.045 324.926 246.271C325.335 247.193 326.016 250.374 326.023 250.406C326.06 250.578 326.191 250.706 326.351 250.747Z" fill="#1289B2"/>
<path d="M300.828 237.88C300.941 237.91 301.067 237.895 301.174 237.828C305.779 235.016 315.518 231.21 315.617 231.171C315.848 231.081 315.961 230.821 315.871 230.591C315.781 230.36 315.521 230.245 315.292 230.335C315.192 230.374 305.38 234.209 300.707 237.063C300.496 237.192 300.429 237.468 300.558 237.679C300.622 237.783 300.72 237.851 300.828 237.88Z" fill="#1289B2"/>
<path d="M305.167 235.589C305.266 235.615 305.372 235.607 305.471 235.56C305.694 235.454 305.79 235.187 305.685 234.963L302.655 228.561C302.55 228.338 302.281 228.242 302.058 228.348C301.834 228.454 301.738 228.721 301.843 228.945L304.874 235.347C304.933 235.471 305.043 235.556 305.167 235.589Z" fill="#1289B2"/>
<path d="M396.113 323.181C396.015 323.571 395.91 323.953 395.794 324.325C395.789 324.34 395.786 324.356 395.782 324.37C395.624 324.875 395.451 325.359 395.262 325.823C393.576 329.928 380.605 330.506 367.84 329.054C357.939 327.927 348.161 325.577 343.872 322.7C339.843 319.999 348.48 295.172 348.48 295.172L396.903 305.432C396.903 305.432 397.972 315.764 396.113 323.181Z" fill="#00312E"/>
<path d="M362.475 366.645H338.445C339.316 353.352 340.66 338.431 342.302 322.758C342.347 322.339 342.389 321.922 342.436 321.502C342.581 320.11 342.729 318.709 342.883 317.305C342.924 316.931 342.965 316.556 343.005 316.18L347.663 318.336L348.806 318.865L367.104 327.336L366.915 328.946L362.475 366.645Z" fill="#00312E"/>
<path d="M359.61 366.642H358.41L363.327 329.665C363.37 329.339 363.669 329.11 363.994 329.154C364.319 329.197 364.547 329.495 364.505 329.821L359.61 366.642Z" fill="#394E50"/>
<path d="M353.966 308.196C353.909 308.504 352.726 314.573 348.796 318.867C348.004 319.735 347.099 320.53 346.067 321.189C345.261 321.705 344.419 322.113 343.536 322.411C343.131 322.552 342.715 322.668 342.293 322.759C342.338 322.34 342.38 321.923 342.427 321.503C342.626 321.452 342.824 321.395 343.021 321.33C343.863 321.056 344.665 320.677 345.426 320.19C346.251 319.66 346.994 319.03 347.655 318.337C351.575 314.256 352.784 308.049 352.798 307.976C352.859 307.656 353.167 307.442 353.492 307.502C353.815 307.564 354.027 307.874 353.966 308.196Z" fill="#394E50"/>
<path d="M363.727 326.469C363.713 326.731 363.922 326.957 364.194 326.972C364.196 326.972 364.196 326.972 364.198 326.972C364.471 326.986 364.703 326.783 364.716 326.52C364.806 324.728 364.916 322.894 365.035 321.063C365.055 320.74 365.076 320.418 365.098 320.095C365.499 314.109 366.006 308.232 366.387 304.083C366.418 303.747 366.448 303.422 366.477 303.109C366.562 302.199 366.639 301.392 366.705 300.708C366.377 300.656 366.047 300.602 365.723 300.547C365.658 301.231 365.581 302.046 365.495 302.965C365.465 303.277 365.436 303.603 365.405 303.938C365.028 308.052 364.525 313.877 364.123 319.827C364.101 320.155 364.079 320.485 364.055 320.814C363.935 322.713 363.821 324.616 363.727 326.469Z" fill="#394E50"/>
<path d="M362.354 320.144C362.509 320.217 363.202 320.542 364.082 320.81C364.391 320.904 364.722 320.99 365.061 321.058C365.371 321.119 365.685 321.163 365.998 321.182C366.597 321.217 367.177 321.155 367.66 320.925C368.262 320.638 368.654 320.115 368.791 319.414C369.155 317.569 369.925 309.943 370.445 304.549C370.478 304.218 370.509 303.894 370.539 303.58C370.621 302.717 370.694 301.933 370.757 301.265C370.43 301.225 370.1 301.185 369.772 301.141C369.709 301.811 369.636 302.605 369.55 303.48C369.521 303.792 369.489 304.116 369.458 304.449C368.938 309.829 368.17 317.443 367.817 319.232C367.739 319.645 367.547 319.91 367.219 320.067C366.695 320.316 365.907 320.263 365.125 320.09C364.793 320.017 364.461 319.923 364.151 319.823C363.585 319.638 363.091 319.429 362.793 319.288C362.548 319.17 362.251 319.266 362.13 319.502C362.008 319.739 362.109 320.026 362.354 320.144Z" fill="#394E50"/>
<path d="M395.807 324.305C395.806 324.309 395.806 324.315 395.806 324.319C395.806 324.332 395.804 324.347 395.799 324.362C395.762 324.748 395.726 325.142 395.689 325.54C394.614 336.873 392.954 353.91 391.525 366.635H367.777L367.865 321.174C367.865 321.174 374.481 318.032 381.586 315.629C381.97 315.498 382.356 315.372 382.743 315.246C383.477 315.01 384.212 314.781 384.943 314.568C385.333 314.455 385.72 314.346 386.106 314.24C390.483 313.05 394.546 312.464 396.822 313.416C396.822 313.416 396.472 317.269 395.913 323.175C395.879 323.542 395.842 323.917 395.807 324.305Z" fill="#00312E"/>
<path d="M388.105 366.638C389.47 351.123 391.152 327.635 391.174 327.333C391.197 327.007 391.482 326.76 391.809 326.783C392.137 326.806 392.383 327.092 392.359 327.418C392.337 327.719 390.663 351.102 389.298 366.638H388.105Z" fill="#394E50"/>
<path d="M395.782 324.303C395.78 324.307 395.78 324.313 395.78 324.317C395.78 324.33 395.778 324.344 395.774 324.36C395.737 324.746 395.7 325.14 395.664 325.538C393.977 325.818 392.33 325.67 390.73 325.085C387.69 323.977 385.306 321.483 383.577 319C382.757 317.824 382.086 316.649 381.561 315.627C380.673 313.893 380.204 312.594 380.151 312.449C380.042 312.138 380.205 311.8 380.514 311.691C380.826 311.58 381.163 311.744 381.272 312.053C381.286 312.088 381.772 313.442 382.718 315.244C383.218 316.199 383.844 317.278 384.598 318.354C386.214 320.672 388.405 322.977 391.14 323.97C392.632 324.512 394.185 324.625 395.782 324.303Z" fill="#394E50"/>
<path d="M404.139 269.971C404.054 271.235 403.949 272.5 403.818 273.763C403.164 280.101 400.732 301.312 398.546 307.252C390.479 311.161 381.445 312.581 372.831 312.207C371.19 312.135 369.564 311.998 367.962 311.801C366.545 311.626 365.147 311.404 363.776 311.138C354.82 309.406 346.986 305.8 342.125 301.246C344.422 292.344 347.107 276.208 348.11 269.285C348.299 267.994 348.466 266.739 348.616 265.511C348.764 264.315 348.894 263.149 349.01 262.012C349.141 260.715 349.254 259.45 349.347 258.226C349.447 256.911 349.527 255.638 349.588 254.408C349.652 253.093 349.697 251.825 349.722 250.603C350.076 233.939 347.031 225.713 347.836 221.72C349.045 215.71 354.606 215.792 359.667 213.908C359.963 213.799 360.258 213.683 360.55 213.557C360.746 213.471 360.94 213.383 361.132 213.293C362.87 212.467 364.485 211.297 365.767 209.434L380.633 209.463C380.633 209.463 381.849 210.452 383.996 211.552C384.197 211.657 384.406 211.759 384.628 211.863C385.16 212.115 385.746 212.369 386.388 212.614C387.928 213.203 389.793 213.745 391.979 214.096C398.644 215.17 402.466 222.26 403.169 233.755C403.521 239.56 403.899 245.031 404.149 250.304C404.165 250.655 404.182 251.004 404.196 251.352C404.479 257.764 404.554 263.89 404.139 269.971Z" fill="white"/>
<path d="M363.055 278.41L365.599 284.587V284.588L366.741 287.363L369.971 295.205L371.541 292.182L372.099 291.111L373.36 288.689L373.916 287.618L375.179 285.196L375.735 284.125L376.995 281.702V281.7L377.553 280.631L378.738 278.353L378.713 278.107L378.534 276.297L378.123 272.196L377.942 270.384L377.533 266.284L377.351 264.474L376.942 260.373L376.762 258.564L376.352 254.462L376.172 252.652L375.763 248.551L375.581 246.742L375.172 242.641L374.992 240.829L374.582 236.731L374.401 234.919L373.991 230.818L373.811 229.009L373.613 227.034L373.387 224.77L370.254 224.641L370.162 225.345L369.969 226.781L369.911 227.221L369.535 230.034L369.342 231.469L368.905 234.721L368.714 236.157L368.276 239.41L368.086 240.845L367.65 244.098L367.457 245.532L367.021 248.787L366.829 250.221L366.394 253.474L366.202 254.908L365.766 258.161L365.574 259.6L365.139 262.851L364.945 264.287L364.511 267.539L364.318 268.976L363.884 272.228L363.69 273.663L363.255 276.915L363.063 278.352L363.055 278.41Z" fill="#F15651"/>
<path d="M369.91 227.221L371.766 230.521L373.613 227.034L373.387 224.77L370.253 224.641L370.161 225.345L369.968 226.781L369.91 227.221Z" fill="#D7402B"/>
<path d="M404.14 269.975C404.055 271.239 403.949 272.504 403.818 273.766C403.165 280.105 400.733 301.316 398.547 307.256C390.48 311.164 381.445 312.584 372.832 312.211L368.306 305.055L363.776 311.142C354.82 309.41 346.986 305.804 342.125 301.249C342.957 298.024 343.841 293.849 344.677 289.506C344.876 288.465 345.076 287.411 345.27 286.36C346.495 279.708 347.558 273.101 348.111 269.29C348.3 267.998 348.467 266.743 348.616 265.516C348.764 264.319 348.895 263.153 349.011 262.016C349.141 260.719 349.255 259.454 349.348 258.231C349.448 256.915 349.528 255.642 349.589 254.412C349.652 253.098 349.698 251.829 349.723 250.607C350.077 233.944 347.032 225.718 347.836 221.724C349.046 215.714 354.607 215.797 359.668 213.912C359.752 213.952 359.836 213.995 359.921 214.036L370.965 262.918L386.111 212.682C386.111 212.682 386.209 212.657 386.389 212.617C387.93 213.207 389.794 213.749 391.981 214.1C398.645 215.174 402.468 222.263 403.17 233.759C403.523 239.563 403.901 245.034 404.15 250.308C404.166 250.659 404.183 251.007 404.197 251.356C404.48 257.768 404.555 263.894 404.14 269.975Z" fill="#55B2E0"/>
<path d="M394.755 309.598C394.969 309.598 395.171 309.466 395.251 309.254C402.524 289.9 402.408 253.047 402.405 252.677C402.404 252.384 402.167 252.148 401.874 252.148C401.874 252.148 401.872 252.148 401.871 252.148C401.578 252.15 401.341 252.389 401.342 252.683C401.345 253.051 401.46 289.709 394.257 308.88C394.154 309.155 394.293 309.461 394.568 309.565C394.629 309.587 394.692 309.598 394.755 309.598Z" fill="#1289B2"/>
<path d="M357.819 285.564C353.62 287.271 348.269 288.666 344.68 289.503C344.879 288.462 345.079 287.408 345.272 286.357C350.766 285.01 357.137 282.992 357.137 282.992L357.819 285.564Z" fill="#1289B2"/>
<path d="M380.224 285.062C380.224 285.062 391.044 291.562 395.996 293.418L394.489 296.054C394.489 296.054 385.082 291.781 378.961 287.406L380.224 285.062Z" fill="#1289B2"/>
<path d="M359.922 214.027C359.922 214.027 356.068 212.023 353.23 215.89L355.709 231.907L361.31 235.234L357.512 237.501L361.76 256.121L370.964 262.908L359.922 214.027Z" fill="#1289B2"/>
<path d="M383.938 212.616C383.938 212.616 388.022 210.02 390.846 213.899L387.354 231.98L381.74 235.287L385.53 237.568L381.21 256.172L370.965 262.922L383.938 212.616Z" fill="#1289B2"/>
<path d="M368.962 301.118C369.581 301.118 370.083 300.616 370.083 299.997C370.083 299.377 369.581 298.875 368.962 298.875C368.342 298.875 367.84 299.377 367.84 299.997C367.84 300.616 368.342 301.118 368.962 301.118Z" fill="#1289B2"/>
<path d="M369.426 292.814C370.046 292.814 370.548 292.311 370.548 291.692C370.548 291.072 370.046 290.57 369.426 290.57C368.807 290.57 368.305 291.072 368.305 291.692C368.305 292.311 368.807 292.814 369.426 292.814Z" fill="#1289B2"/>
<path d="M369.903 284.501C370.522 284.501 371.025 283.999 371.025 283.38C371.025 282.76 370.522 282.258 369.903 282.258C369.283 282.258 368.781 282.76 368.781 283.38C368.781 283.999 369.283 284.501 369.903 284.501Z" fill="#1289B2"/>
<path d="M370.38 276.197C370.999 276.197 371.501 275.694 371.501 275.075C371.501 274.455 370.999 273.953 370.38 273.953C369.76 273.953 369.258 274.455 369.258 275.075C369.258 275.694 369.76 276.197 370.38 276.197Z" fill="#1289B2"/>
<path d="M370.86 267.884C371.479 267.884 371.982 267.382 371.982 266.762C371.982 266.143 371.479 265.641 370.86 265.641C370.24 265.641 369.738 266.143 369.738 266.762C369.738 267.382 370.24 267.884 370.86 267.884Z" fill="#1289B2"/>
<path d="M350.138 251.204C349.838 251.482 349.349 251.265 349.348 250.855C349.348 247.194 349.214 243.262 348.943 239.122C348.93 238.933 348.921 238.782 348.915 238.672C348.899 238.407 349.099 238.181 349.364 238.165C349.635 238.149 349.855 238.35 349.87 238.614C349.877 238.723 349.886 238.873 349.899 239.059C350.171 243.214 350.305 247.163 350.306 250.844C350.306 250.978 350.248 251.104 350.148 251.195C350.145 251.197 350.142 251.201 350.138 251.204Z" fill="#1289B2"/>
<path d="M382.199 192.219C382.199 192.219 385.599 189.788 386.404 185.967C387.112 182.602 384.278 182.602 384.278 182.602C384.278 182.602 386.597 178.947 385.208 176.214C383.471 172.794 379.996 173.451 379.996 173.451C379.996 173.451 380.93 168.013 372.277 168.455C363.625 168.897 358.475 169.225 357.072 172.965C355.669 176.705 359.2 177.799 359.2 177.799C359.2 177.799 355.706 179.924 357.414 182.132C359.12 184.342 361.256 183.69 361.256 183.69L382.199 192.219Z" fill="#00312E"/>
<path d="M364.717 190.721C364.717 190.721 363.644 186.684 360.363 187.438C357.081 188.192 356.451 198.961 362.631 198.915L364.717 190.721Z" fill="#ED7463"/>
<path d="M380.275 210.611C380.275 210.611 381.045 211.971 375.024 213.636C371.847 214.515 367.999 213.68 366.085 212.552C365.307 212.094 364.861 211.743 364.861 211.743C365.843 207.175 365.051 204.209 364.822 203.501C364.788 203.394 364.766 203.339 364.766 203.339L380.455 195.539L380.275 210.611Z" fill="#F69B8D"/>
<path d="M378.231 201.699C378.231 201.699 374.458 212.062 366.087 212.556C365.309 212.098 364.863 211.748 364.863 211.748C365.845 207.179 365.053 204.214 364.824 203.506L378.231 201.699Z" fill="#FF7E6A"/>
<path d="M372.135 207.102C365.666 208.295 360.55 205.468 359.986 199.927C359.85 198.59 359.798 196.658 359.793 194.644C359.793 194.623 359.793 194.604 359.793 194.582C359.793 194.155 359.794 193.721 359.794 193.291C359.796 192.978 359.799 192.666 359.804 192.356C359.843 188.764 359.979 185.511 359.979 185.511C360.998 176.601 369.863 173.369 376.901 176.827C383.937 180.287 381.107 191.114 381.03 196.415C380.956 201.715 377.682 206.08 372.135 207.102Z" fill="#F69B8D"/>
<path d="M370.859 196.523C370.859 196.523 369.945 199.48 367.526 199.959C364.775 200.506 364.156 197.062 364.156 197.062L370.859 196.523Z" fill="white"/>
<path d="M372.599 187.739C374.428 188.128 374.947 186.171 373.297 185.151C372.543 184.685 371.717 184.287 370.869 184.281C368.457 184.265 368.383 185.964 369.59 186.654C370.168 186.984 371.549 187.516 372.599 187.739Z" fill="#00312E"/>
<path d="M362.208 186.771C360.345 186.934 360.068 184.929 361.83 184.118C362.634 183.748 363.502 183.453 364.345 183.55C366.741 183.826 366.607 185.523 365.325 186.06C364.711 186.317 363.278 186.678 362.208 186.771Z" fill="#00312E"/>
<path d="M360.501 194.741C360.249 194.722 360.002 194.69 359.77 194.648C359.77 194.626 359.77 194.607 359.77 194.586C359.77 194.159 359.771 193.725 359.771 193.294C359.772 192.982 359.775 192.669 359.781 192.36C360.066 192.346 360.369 192.349 360.681 192.373C362.305 192.496 363.58 193.126 363.531 193.78C363.482 194.433 362.125 194.864 360.501 194.741Z" fill="#ED7463"/>
<path d="M357.974 189.504C358.401 187.329 360.518 185.907 362.694 186.333C364.868 186.761 366.29 188.877 365.863 191.053C365.437 193.227 363.319 194.649 361.144 194.223C358.969 193.796 357.546 191.679 357.974 189.504ZM358.553 189.618C358.188 191.474 359.401 193.28 361.258 193.645C363.114 194.009 364.92 192.796 365.284 190.939C365.65 189.083 364.436 187.277 362.58 186.912C360.724 186.547 358.917 187.762 358.553 189.618Z" fill="white"/>
<path d="M365.986 195.296C365.936 195.293 365.887 195.276 365.843 195.246C364.386 194.242 364.108 193.713 364.066 193.617C364.028 193.527 364.037 193.424 364.091 193.343L366.202 190.165C366.209 190.156 366.217 190.147 366.223 190.138C366.676 189.606 366.761 188.502 366.818 187.222C366.827 187.063 366.961 186.939 367.121 186.946C367.284 186.956 367.405 187.088 367.397 187.248C367.335 188.627 367.238 189.825 366.676 190.499L364.679 193.504C364.83 193.694 365.227 194.118 366.172 194.769C366.304 194.86 366.336 195.04 366.246 195.172C366.185 195.259 366.085 195.304 365.986 195.296Z" fill="#00312E"/>
<path d="M374.447 194.506C376.07 194.629 377.426 194.199 377.476 193.545C377.526 192.891 376.25 192.261 374.627 192.138C373.003 192.014 371.647 192.444 371.597 193.098C371.548 193.752 372.823 194.382 374.447 194.506Z" fill="#ED7463"/>
<path d="M367.533 189.785C367.96 187.61 370.077 186.188 372.252 186.615C374.426 187.042 375.849 189.158 375.423 191.334C374.995 193.509 372.878 194.931 370.704 194.504C368.528 194.078 367.105 191.96 367.533 189.785ZM368.111 189.899C367.747 191.755 368.961 193.561 370.817 193.926C372.672 194.29 374.479 193.077 374.843 191.22C375.208 189.365 373.995 187.559 372.139 187.194C370.283 186.829 368.475 188.042 368.111 189.899Z" fill="white"/>
<path d="M365.585 190.604C365.588 190.604 365.591 190.605 365.592 190.606C365.753 190.633 365.905 190.526 365.932 190.365C365.938 190.336 366.078 189.606 366.631 189.633C367.245 189.663 367.478 190.348 367.479 190.354C367.53 190.509 367.697 190.594 367.851 190.543C368.006 190.492 368.091 190.326 368.04 190.171C368.025 190.127 367.677 189.094 366.659 189.045C365.799 189.002 365.428 189.824 365.352 190.265C365.325 190.423 365.429 190.574 365.585 190.604Z" fill="white"/>
<path d="M375.058 190.08C375.181 190.105 375.309 190.049 375.373 189.934C376.965 187.069 379.932 188.478 380.058 188.539C380.204 188.611 380.38 188.551 380.452 188.405C380.525 188.259 380.464 188.082 380.318 188.011C380.282 187.993 376.726 186.288 374.857 189.647C374.779 189.79 374.83 189.97 374.972 190.049C375 190.064 375.029 190.074 375.058 190.08Z" fill="white"/>
<path d="M359.976 186.119C359.779 184.267 359.614 180.831 362.6 177.395C367.064 172.262 376.171 172.548 379.804 177.768C383.436 182.988 381.651 187.528 381.651 187.528C381.651 187.528 380.187 188.059 379.475 190.923L377.537 190.843C377.537 190.843 376.806 188.446 377.574 184.54C378.34 180.635 371.446 176.727 366.765 177.611C362.084 178.495 360.596 182.751 360.596 182.751C360.596 182.751 360.076 184.312 359.976 186.119Z" fill="#00312E"/>
<path d="M375.073 179.876C375.073 179.876 371.814 178.599 370.241 179.22C368.665 179.84 366.384 180.652 364.666 179.413C362.949 178.173 360.977 181.843 360.977 181.843C360.977 181.843 363.16 175.311 368.552 176.67C373.944 178.03 373.922 177.519 375.073 179.876Z" fill="#00312E"/>
<path d="M366.709 201.191C366.588 201.158 366.512 201.128 366.499 201.122C366.351 201.061 366.281 200.892 366.342 200.744C366.403 200.596 366.571 200.525 366.72 200.587C366.763 200.604 367.733 200.984 368.538 200.296C368.66 200.192 368.843 200.206 368.946 200.328C369.05 200.449 369.036 200.632 368.915 200.736C368.081 201.45 367.126 201.305 366.709 201.191Z" fill="#ED7463"/>
<path d="M379.789 189.131C379.789 189.131 381.663 186.167 384.689 187.642C387.715 189.118 385.897 199.752 379.888 198.312L379.789 189.131Z" fill="#F69B8D"/>
<path d="M381.154 194.547C381.135 194.546 381.113 194.542 381.093 194.536C380.94 194.49 380.853 194.329 380.899 194.175C380.939 194.045 381.891 190.975 384.703 190.546C384.86 190.522 385.009 190.631 385.033 190.789C385.057 190.947 384.948 191.095 384.79 191.118C382.336 191.492 381.463 194.312 381.453 194.341C381.414 194.475 381.287 194.558 381.154 194.547Z" fill="#00312E"/>
<path d="M383.721 193.594C383.648 193.589 383.578 193.555 383.526 193.497C383.521 193.491 382.977 192.878 382.329 192.266C382.213 192.156 382.208 191.973 382.317 191.856C382.426 191.74 382.61 191.735 382.726 191.844C383.395 192.476 383.937 193.088 383.959 193.113C384.066 193.233 384.055 193.416 383.935 193.522C383.873 193.575 383.796 193.599 383.721 193.594Z" fill="#00312E"/>
<path d="M371.14 191.661C371.508 191.665 371.812 191.147 371.819 190.504C371.826 189.861 371.534 189.336 371.166 189.332C370.798 189.328 370.494 189.846 370.487 190.489C370.48 191.132 370.772 191.657 371.14 191.661Z" fill="#00312E"/>
<path d="M363.66 191.661C364.028 191.665 364.332 191.147 364.339 190.504C364.346 189.86 364.053 189.335 363.686 189.331C363.318 189.327 363.014 189.846 363.007 190.489C363 191.132 363.292 191.657 363.66 191.661Z" fill="#00312E"/>
<path d="M380.503 206.867C380.503 206.867 382.743 207.546 383.947 212.603C382.387 217.198 377.998 221.058 371.84 222.186L371.858 213.146C371.858 213.146 377.292 211.798 380.503 206.867Z" fill="white"/>
<path d="M365.169 208.148C365.169 208.148 361.467 208.987 359.926 214.03C363.892 218.876 366.013 220.701 371.835 222.191L371.853 213.151C371.853 213.151 368.361 213.092 365.169 208.148Z" fill="white"/>
<path d="M376.012 220.872L371.82 227.076L367.828 220.856L371.843 215.676L376.012 220.872Z" fill="#F15651"/>
<path d="M363.408 227.212C363.306 227.212 363.204 227.18 363.119 227.113C362.908 226.952 362.867 226.653 363.029 226.441L371.472 215.383C371.559 215.269 371.694 215.2 371.838 215.195C371.982 215.193 372.12 215.251 372.214 215.36L380.558 224.943C380.731 225.143 380.71 225.445 380.511 225.619C380.312 225.794 380.009 225.773 379.836 225.573L371.878 216.432L363.79 227.024C363.694 227.147 363.551 227.212 363.408 227.212Z" fill="#F2D0C3"/>
<path d="M371.854 216.155C371.853 216.155 371.851 216.155 371.85 216.155C371.585 216.153 371.372 215.936 371.375 215.672L371.394 213.565C371.396 213.301 371.61 213.089 371.875 213.09C371.875 213.09 371.876 213.09 371.877 213.09C372.142 213.092 372.355 213.309 372.352 213.573L372.333 215.68C372.331 215.943 372.117 216.156 371.854 216.155Z" fill="#F2D0C3"/>
<path d="M396.342 304.845C395.292 304.556 393.754 305.655 392.364 306.022C390.533 306.505 387.934 307.797 386.66 308.91C385.886 309.586 382.035 313.982 380.299 315.896C379.899 316.338 379.899 317.034 380.34 317.433C380.911 317.947 382.106 317.938 384.413 315.809C384.523 315.721 385.23 315.106 385.303 315.047C386.341 314.215 387.352 314.036 387.352 314.036C387.352 314.036 386.067 315.191 383.87 317.281C386.268 321.451 390.168 325.422 395.363 324.383C396.241 323.14 397.162 320.983 397.41 320.534C398.392 318.749 401.439 314.16 402.312 311.645C402.905 309.936 399.665 305.759 396.342 304.845Z" fill="#F69B8D"/>
<path d="M398.506 217.891L398.981 218.273L399.355 218.582L400.057 219.178C400.512 219.571 400.952 219.96 401.385 220.351C402.245 221.136 403.075 221.927 403.887 222.73C405.512 224.332 407.063 225.98 408.565 227.674C411.548 231.075 414.311 234.669 416.809 238.479C419.316 242.28 421.541 246.306 423.452 250.515C424.395 252.626 425.262 254.781 426.025 256.984C426.411 258.083 426.764 259.197 427.1 260.317C427.263 260.879 427.43 261.439 427.579 262.007L427.694 262.431L427.751 262.643L427.864 263.082C428.048 263.834 428.155 264.529 428.213 265.149C428.274 265.777 428.293 266.357 428.287 266.884C428.283 267.422 428.254 267.909 428.213 268.377C428.13 269.305 427.997 270.128 427.844 270.892C427.534 272.413 427.146 273.718 426.734 274.948C426.321 276.175 425.877 277.314 425.417 278.413C424.959 279.513 424.479 280.564 423.987 281.591C423.003 283.644 421.974 285.595 420.916 287.501C419.862 289.406 418.767 291.257 417.655 293.08C415.433 296.726 413.116 300.246 410.737 303.707C409.541 305.434 408.33 307.145 407.104 308.844C406.491 309.693 405.875 310.542 405.249 311.386L404.301 312.65L403.318 313.943L390.517 304.92L391.282 303.695L392.062 302.43L393.625 299.884C394.66 298.181 395.679 296.468 396.68 294.749C398.692 291.318 400.636 287.863 402.467 284.412C403.38 282.685 404.256 280.956 405.093 279.24C405.927 277.523 406.71 275.811 407.402 274.137C408.087 272.468 408.707 270.819 409.114 269.369C409.317 268.65 409.465 267.981 409.531 267.493C409.564 267.253 409.574 267.064 409.57 266.973C409.565 266.931 409.561 266.908 409.554 266.935C409.549 266.951 409.542 267.021 409.549 267.14C409.558 267.253 409.575 267.443 409.635 267.7L409.658 267.797L409.665 267.821C409.667 267.827 409.662 267.812 409.661 267.808L409.648 267.769L409.598 267.612L409.497 267.302C409.368 266.886 409.222 266.474 409.083 266.061C408.792 265.236 408.49 264.415 408.159 263.6C407.51 261.968 406.771 260.362 405.978 258.775C404.393 255.598 402.512 252.529 400.439 249.564C399.4 248.082 398.299 246.635 397.159 245.217C396.02 243.797 394.827 242.414 393.594 241.07C392.369 239.721 391.101 238.409 389.801 237.158C389.152 236.532 388.494 235.922 387.839 235.338C387.513 235.043 387.188 234.756 386.871 234.482L386.404 234.086L386.066 233.808L398.506 217.891Z" fill="#55B2E0"/>
<path d="M409.982 267.787C409.763 267.787 409.565 267.636 409.516 267.414C409.458 267.156 409.619 266.899 409.879 266.841C410.045 266.803 414.013 265.915 417.324 265.778C417.585 265.768 417.812 265.972 417.823 266.236C417.833 266.5 417.628 266.724 417.364 266.735C414.141 266.868 410.129 267.766 410.089 267.775C410.052 267.783 410.016 267.787 409.982 267.787Z" fill="#1289B2"/>
<path d="M410.264 267.733C410.12 267.733 409.978 267.668 409.883 267.545C409.723 267.334 409.764 267.033 409.974 266.874C411.584 265.647 413.844 264.275 413.94 264.217C414.165 264.081 414.46 264.153 414.598 264.38C414.735 264.606 414.663 264.9 414.435 265.038C414.413 265.052 412.124 266.44 410.554 267.636C410.467 267.701 410.365 267.733 410.264 267.733Z" fill="#1289B2"/>
<path d="M404.131 256.689C403.974 256.689 403.821 256.611 403.729 256.469C403.643 256.335 395.113 243.106 389.595 238.341C389.396 238.169 389.373 237.867 389.546 237.666C389.718 237.466 390.021 237.444 390.222 237.617C395.845 242.471 404.183 255.402 404.535 255.951C404.678 256.173 404.613 256.469 404.391 256.612C404.31 256.664 404.22 256.689 404.131 256.689Z" fill="#1289B2"/>
<path d="M392.839 241.387C392.816 241.387 392.792 241.386 392.767 241.382L388.661 240.753C388.399 240.713 388.219 240.469 388.26 240.208C388.3 239.946 388.544 239.766 388.806 239.806L392.913 240.434C393.174 240.475 393.354 240.719 393.314 240.981C393.277 241.217 393.072 241.387 392.839 241.387Z" fill="#1289B2"/>
<path d="M407.596 307.903C407.503 307.903 407.409 307.875 407.326 307.818L394.641 299.077C394.423 298.926 394.368 298.628 394.518 298.41C394.669 298.192 394.967 298.138 395.184 298.288L407.869 307.03C408.087 307.18 408.142 307.478 407.992 307.695C407.899 307.831 407.749 307.903 407.596 307.903Z" fill="#1289B2"/>
<path d="M399.943 311.503C399.851 311.503 399.76 311.477 399.679 311.424C399.458 311.277 399.399 310.979 399.545 310.759L403.462 304.863C403.608 304.642 403.905 304.582 404.126 304.729C404.347 304.875 404.406 305.172 404.259 305.393L400.343 311.29C400.25 311.428 400.097 311.504 399.943 311.503Z" fill="#1289B2"/>
<path d="M398.844 307.187C399.463 307.187 399.965 306.685 399.965 306.066C399.965 305.447 399.463 304.945 398.844 304.945C398.225 304.945 397.723 305.447 397.723 306.066C397.723 306.685 398.225 307.187 398.844 307.187Z" fill="#1289B2"/>
<path d="M302.906 340.513L280.535 377.707L278.237 379.686L257.883 367.441L281.255 328.588L282.998 328.539L302.906 340.513Z" fill="#00B27C"/>
<path opacity="0.5" d="M283.001 328.539L281.258 328.588L301.61 340.832L302.908 340.513L283.001 328.539Z" fill="#00B27C"/>
<path d="M281.212 328.589L257.844 367.441L278.199 379.684L301.567 340.832L281.212 328.589Z" fill="#4DBE9B"/>
<path d="M279.846 334.984L262.852 363.23C264.174 364.793 264.69 366.902 264.237 368.897L273.95 374.742C275.502 373.406 277.605 372.875 279.605 373.309L296.598 345.062C295.277 343.498 294.761 341.391 295.215 339.395L285.501 333.551C283.947 334.887 281.846 335.417 279.846 334.984Z" fill="#CCE6C4"/>
<path d="M279.727 362.275C284.219 362.275 287.861 358.633 287.861 354.141C287.861 349.649 284.219 346.008 279.727 346.008C275.235 346.008 271.594 349.649 271.594 354.141C271.594 358.633 275.235 362.275 279.727 362.275Z" fill="#4DBE9B"/>
<path d="M283.077 356.932C282.539 357.739 281.872 358.428 281.076 358.996L279.187 357.86C279.675 357.554 280.149 357.191 280.609 356.765C281.068 356.34 281.415 355.932 281.65 355.54C281.845 355.219 281.948 354.959 281.959 354.762C281.974 354.566 281.888 354.412 281.708 354.303C281.582 354.227 281.443 354.218 281.291 354.274C281.139 354.33 280.931 354.451 280.67 354.637C280.409 354.823 280.07 355.083 279.659 355.419C279.188 355.794 278.754 356.061 278.357 356.224C277.958 356.385 277.578 356.451 277.223 356.422C276.867 356.391 276.483 356.251 276.075 356.005C275.449 355.629 275.079 355.135 274.97 354.52C274.859 353.906 275.002 353.171 275.405 352.317L274.625 351.848L275.333 350.672L276.1 351.134C276.597 350.405 277.239 349.755 278.027 349.188L279.245 350.84C278.41 351.419 277.802 352.027 277.419 352.662C277.237 352.967 277.145 353.201 277.144 353.369C277.144 353.537 277.217 353.664 277.36 353.75C277.487 353.825 277.615 353.842 277.752 353.804C277.885 353.763 278.07 353.664 278.303 353.505C278.537 353.346 278.835 353.109 279.204 352.799C279.962 352.175 280.624 351.8 281.188 351.67C281.753 351.541 282.32 351.647 282.886 351.985C283.524 352.37 283.918 352.882 284.073 353.525C284.229 354.17 284.122 354.907 283.751 355.737L284.847 356.397L284.139 357.573L283.077 356.932Z" fill="#CCE6C4"/>
<path d="M287.444 337.853L283.855 343.82L284.85 344.419L288.439 338.452L287.444 337.853Z" fill="#4DBE9B"/>
<path d="M289.876 339.275L286.289 345.242L287.285 345.841L290.872 339.873L289.876 339.275Z" fill="#4DBE9B"/>
<path d="M272.401 362.857L268.812 368.824L269.807 369.423L273.396 363.456L272.401 362.857Z" fill="#4DBE9B"/>
<path d="M274.827 364.288L271.238 370.254L272.232 370.852L275.821 364.886L274.827 364.288Z" fill="#4DBE9B"/>
<path opacity="0.3" d="M301.611 340.832L279.702 377.256L261.211 365.412L285.047 330.867L301.611 340.832Z" fill="#5B5A5B"/>
<path d="M310.577 341.678L284.387 376.289L281.892 378.014L262.949 363.679L290.31 327.523L292.049 327.66L310.577 341.678Z" fill="#00B27C"/>
<path opacity="0.5" d="M292.048 327.66L290.309 327.523L309.25 341.857L310.576 341.678L292.048 327.66Z" fill="#00B27C"/>
<path d="M290.284 327.521L262.926 363.676L281.867 378.009L309.225 341.854L290.284 327.521Z" fill="#4DBE9B"/>
<path d="M288.243 333.735L268.352 360.023C269.498 361.717 269.789 363.865 269.124 365.804L278.167 372.645C279.852 371.48 281.999 371.175 283.941 371.82L303.833 345.533C302.687 343.838 302.395 341.69 303.058 339.753L294.017 332.91C292.333 334.076 290.185 334.379 288.243 333.735Z" fill="#CCE6C4"/>
<path d="M286.091 360.912C290.583 360.912 294.224 357.27 294.224 352.778C294.224 348.286 290.583 344.645 286.091 344.645C281.599 344.645 277.957 348.286 277.957 352.778C277.957 357.27 281.599 360.912 286.091 360.912Z" fill="#4DBE9B"/>
<path d="M289.126 355.908C288.505 356.654 287.771 357.269 286.918 357.751L285.16 356.42C285.678 356.168 286.188 355.857 286.691 355.48C287.193 355.108 287.582 354.737 287.856 354.374C288.083 354.075 288.214 353.827 288.246 353.633C288.278 353.439 288.212 353.278 288.042 353.15C287.926 353.061 287.79 353.038 287.631 353.076C287.474 353.116 287.258 353.214 286.975 353.37C286.697 353.528 286.333 353.751 285.887 354.04C285.379 354.363 284.921 354.583 284.508 354.702C284.092 354.822 283.709 354.849 283.358 354.78C283.006 354.711 282.641 354.532 282.261 354.244C281.679 353.804 281.364 353.271 281.32 352.648C281.274 352.027 281.497 351.312 281.986 350.505L281.262 349.955L282.089 348.861L282.804 349.402C283.373 348.73 284.082 348.152 284.928 347.672L285.96 349.443C285.069 349.93 284.401 350.47 283.954 351.062C283.74 351.346 283.624 351.57 283.605 351.735C283.586 351.904 283.645 352.036 283.78 352.138C283.897 352.228 284.024 352.257 284.163 352.233C284.3 352.206 284.492 352.126 284.743 351.993C284.991 351.858 285.315 351.656 285.712 351.387C286.532 350.846 287.23 350.541 287.808 350.473C288.384 350.405 288.934 350.569 289.46 350.968C290.054 351.415 290.392 351.968 290.479 352.626C290.563 353.281 290.379 354.001 289.924 354.787L290.944 355.56L290.117 356.657L289.126 355.908Z" fill="#CCE6C4"/>
<path d="M295.487 337.354L291.285 342.906L292.211 343.607L296.413 338.054L295.487 337.354Z" fill="#4DBE9B"/>
<path d="M297.757 339.053L293.555 344.605L294.48 345.306L298.683 339.753L297.757 339.053Z" fill="#4DBE9B"/>
<path d="M277.893 360.605L273.695 366.156L274.621 366.856L278.819 361.305L277.893 360.605Z" fill="#4DBE9B"/>
<path d="M280.12 362.316L275.918 367.867L276.843 368.567L281.045 363.016L280.12 362.316Z" fill="#4DBE9B"/>
<path d="M319.162 348.416L286.421 376.908L283.624 378.081L268.031 360.162L302.236 330.398L303.912 330.89L319.162 348.416Z" fill="#00B27C"/>
<path opacity="0.5" d="M303.91 330.89L302.234 330.398L317.828 348.318L319.16 348.416L303.91 330.89Z" fill="#00B27C"/>
<path d="M302.233 330.39L268.027 360.152L283.619 378.072L317.825 348.31L302.233 330.39Z" fill="#4DBE9B"/>
<path d="M298.947 336.031L274.078 357.672C274.852 359.565 274.695 361.731 273.648 363.49L281.091 372.044C282.979 371.249 285.143 371.391 286.911 372.422L311.778 350.78C311.004 348.888 311.161 346.726 312.211 344.964L304.765 336.41C302.878 337.206 300.712 337.063 298.947 336.031Z" fill="#CCE6C4"/>
<path d="M299.063 348.892C302.012 352.281 301.656 357.418 298.266 360.367C294.877 363.317 289.739 362.96 286.791 359.572C283.841 356.182 284.2 351.043 287.587 348.096C290.979 345.146 296.115 345.504 299.063 348.892Z" fill="#4DBE9B"/>
<path d="M295.27 357.924C294.508 358.526 293.66 358.975 292.729 359.272L291.283 357.608C291.84 357.47 292.404 357.268 292.973 357.004C293.541 356.742 293.999 356.46 294.342 356.161C294.627 355.913 294.804 355.697 294.875 355.516C294.948 355.333 294.916 355.161 294.775 355C294.68 354.89 294.552 354.837 294.389 354.843C294.226 354.85 293.992 354.901 293.688 354.999C293.382 355.094 292.98 355.237 292.483 355.432C291.922 355.641 291.428 355.762 290.997 355.795C290.566 355.824 290.187 355.771 289.858 355.632C289.529 355.493 289.207 355.244 288.892 354.883C288.415 354.332 288.215 353.748 288.301 353.129C288.385 352.511 288.747 351.856 289.391 351.169L288.794 350.482L289.831 349.579L290.42 350.257C291.116 349.716 291.929 349.297 292.854 349L293.501 350.945C292.53 351.239 291.765 351.63 291.205 352.117C290.936 352.349 290.777 352.546 290.724 352.704C290.672 352.866 290.703 353.006 290.814 353.135C290.909 353.245 291.026 353.301 291.168 353.306C291.31 353.31 291.515 353.271 291.787 353.191C292.055 353.109 292.415 352.978 292.86 352.796C293.774 352.435 294.52 352.282 295.097 352.333C295.676 352.385 296.181 352.658 296.613 353.157C297.103 353.718 297.32 354.327 297.269 354.987C297.219 355.647 296.89 356.314 296.282 356.991L297.123 357.958L296.085 358.857L295.27 357.924Z" fill="#CCE6C4"/>
<path d="M305.279 341.082L300.027 345.652L300.789 346.527L306.04 341.957L305.279 341.082Z" fill="#4DBE9B"/>
<path d="M307.168 343.222L301.914 347.793L302.675 348.667L307.929 344.097L307.168 343.222Z" fill="#4DBE9B"/>
<path d="M283.275 360.262L278.023 364.832L278.785 365.708L284.037 361.138L283.275 360.262Z" fill="#4DBE9B"/>
<path d="M285.136 362.38L279.883 366.949L280.644 367.824L285.897 363.255L285.136 362.38Z" fill="#4DBE9B"/>
<path opacity="0.3" d="M318.155 349.288L283.615 378.085L273.949 359.368L307.566 336.535L318.155 349.288Z" fill="#5B5A5B"/>
<path d="M326.871 356.095L289.268 377.769L286.3 378.384L274.438 357.803L313.723 335.164L315.271 335.967L326.871 356.095Z" fill="#00B27C"/>
<path opacity="0.5" d="M315.271 335.967L313.723 335.164L325.581 355.742L326.871 356.095L315.271 335.967Z" fill="#00B27C"/>
<path d="M313.735 335.15L274.453 357.793L286.316 378.374L325.598 355.731L313.735 335.15Z" fill="#4DBE9B"/>
<path d="M309.412 340.066L280.851 356.527C281.248 358.534 280.678 360.627 279.312 362.153L284.972 371.976C286.98 371.561 289.074 372.114 290.612 373.467L319.175 357.005C318.778 355 319.348 352.907 320.714 351.38L315.052 341.555C313.046 341.971 310.95 341.415 309.412 340.066Z" fill="#CCE6C4"/>
<path d="M300.016 364.9C304.508 364.9 308.15 361.258 308.15 356.766C308.15 352.274 304.508 348.633 300.016 348.633C295.524 348.633 291.883 352.274 291.883 356.766C291.883 361.258 295.524 364.9 300.016 364.9Z" fill="#4DBE9B"/>
<path d="M301.594 360.842C300.732 361.286 299.815 361.564 298.841 361.676L297.742 359.766C298.316 359.736 298.907 359.646 299.517 359.497C300.125 359.349 300.628 359.16 301.021 358.932C301.348 358.745 301.563 358.567 301.67 358.403C301.776 358.237 301.776 358.061 301.67 357.878C301.597 357.75 301.483 357.675 301.32 357.649C301.161 357.625 300.921 357.63 300.603 357.666C300.283 357.701 299.862 357.764 299.339 357.86C298.747 357.958 298.237 357.982 297.808 357.932C297.38 357.878 297.018 357.754 296.72 357.553C296.425 357.354 296.157 357.048 295.917 356.634C295.555 356 295.472 355.39 295.674 354.799C295.876 354.208 296.357 353.635 297.122 353.082L296.668 352.295L297.859 351.609L298.304 352.385C299.091 351.989 299.97 351.733 300.936 351.621L301.197 353.656C300.186 353.755 299.361 353.992 298.717 354.362C298.409 354.539 298.214 354.701 298.134 354.848C298.05 354.994 298.053 355.139 298.137 355.286C298.211 355.412 298.314 355.491 298.452 355.522C298.59 355.553 298.801 355.553 299.082 355.527C299.363 355.5 299.739 355.439 300.21 355.348C301.176 355.17 301.938 355.162 302.495 355.323C303.053 355.483 303.497 355.85 303.826 356.42C304.197 357.063 304.294 357.706 304.117 358.346C303.94 358.983 303.487 359.574 302.762 360.121L303.402 361.231L302.211 361.916L301.594 360.842Z" fill="#CCE6C4"/>
<path d="M314.65 346.238L308.617 349.715L309.198 350.722L315.231 347.245L314.65 346.238Z" fill="#4DBE9B"/>
<path d="M316.063 348.688L310.031 352.164L310.611 353.17L316.642 349.694L316.063 348.688Z" fill="#4DBE9B"/>
<path d="M289.409 360.796L283.379 364.273L283.959 365.28L289.989 361.802L289.409 360.796Z" fill="#4DBE9B"/>
<path d="M290.786 363.258L284.754 366.734L285.333 367.739L291.364 364.263L290.786 363.258Z" fill="#4DBE9B"/>
<path d="M257.427 312.828H167.516V387.248H257.427V312.828Z" fill="#8AA9C5"/>
<path d="M264.001 385.93H160.941V388.511H264.001V385.93Z" fill="#BAD2E3"/>
<path d="M271.982 388.312H152.961V393.168H271.982V388.312Z" fill="#8AA9C5"/>
<path d="M186.493 332.148H179.621V346.279H186.493V332.148Z" fill="#374665"/>
<path d="M186.493 355.422H179.621V369.554H186.493V355.422Z" fill="#374665"/>
<path d="M245.314 332.148H238.441V346.279H245.314V332.148Z" fill="#374665"/>
<path d="M245.314 355.422H238.441V369.554H245.314V355.422Z" fill="#374665"/>
<path d="M215.65 332.148H208.777V346.279H215.65V332.148Z" fill="#374665"/>
<path d="M218.789 361.617H205.859V385.922H218.789V361.617Z" fill="#6B8498"/>
<path d="M211.795 362.781H206.754V380.691H211.795V362.781Z" fill="#374665"/>
<path d="M217.904 362.781H212.863V380.691H217.904V362.781Z" fill="#374665"/>
<path opacity="0.3" d="M236.055 320.531H253.685V385.93H243.381V339.219C243.381 339.219 243.409 320.531 236.055 320.531Z" fill="#8AA9C5"/>
<path opacity="0.3" d="M209.953 320.531H227.582V385.93H217.279V339.219C217.279 339.219 217.307 320.531 209.953 320.531Z" fill="#8AA9C5"/>
<path opacity="0.3" d="M177.672 320.531H195.301V385.93H184.999V339.219C184.999 339.219 185.254 320.531 177.672 320.531Z" fill="#8AA9C5"/>
<path d="M261.406 320.531H247.934V322.915H261.406V320.531Z" fill="#829AB1"/>
<path d="M260.934 327.309H248.422V329.693H260.934V327.309Z" fill="#BAD2E3"/>
<path d="M260.686 322.914H248.656V327.432H260.686V322.914Z" fill="#A5BED2"/>
<path d="M260.686 329.57H248.656V376.644H260.686V329.57Z" fill="#E9EEF8"/>
<path d="M252.087 374.19C252.087 374.573 251.79 374.888 251.424 374.888C251.06 374.888 250.762 374.573 250.762 374.19V332.025C250.762 331.642 251.059 331.328 251.424 331.328C251.789 331.328 252.087 331.642 252.087 332.025V374.19Z" fill="#D0DBE8"/>
<path d="M255.339 374.19C255.339 374.573 255.042 374.888 254.678 374.888C254.315 374.888 254.016 374.573 254.016 374.19V332.025C254.016 331.642 254.314 331.328 254.678 331.328C255.041 331.328 255.339 331.642 255.339 332.025V374.19Z" fill="#D0DBE8"/>
<path d="M258.58 374.19C258.58 374.573 258.281 374.888 257.918 374.888C257.552 374.888 257.254 374.573 257.254 374.19V332.025C257.254 331.642 257.551 331.328 257.918 331.328C258.28 331.328 258.58 331.642 258.58 332.025V374.19Z" fill="#D0DBE8"/>
<path d="M261.892 383.047H247.457V385.932H261.892V383.047Z" fill="#D0DBE8"/>
<path d="M260.934 376.266H248.422V378.65H260.934V376.266Z" fill="#BAD2E3"/>
<path d="M260.686 378.523H248.656V383.044H260.686V378.523Z" fill="#A5BED2"/>
<path d="M235.596 320.531H222.121V322.915H235.596V320.531Z" fill="#829AB1"/>
<path d="M235.117 327.309H222.605V329.693H235.117V327.309Z" fill="#BAD2E3"/>
<path d="M234.874 322.914H222.844V327.432H234.874V322.914Z" fill="#A5BED2"/>
<path d="M234.874 329.57H222.844V376.644H234.874V329.57Z" fill="#E9EEF8"/>
<path d="M226.281 374.19C226.281 374.573 225.983 374.888 225.619 374.888C225.255 374.888 224.957 374.573 224.957 374.19V332.025C224.957 331.642 225.254 331.328 225.619 331.328C225.982 331.328 226.281 331.642 226.281 332.025V374.19Z" fill="#D0DBE8"/>
<path d="M229.535 374.19C229.535 374.573 229.237 374.888 228.874 374.888C228.509 374.888 228.211 374.573 228.211 374.19V332.025C228.211 331.642 228.508 331.328 228.874 331.328C229.236 331.328 229.535 331.642 229.535 332.025V374.19Z" fill="#D0DBE8"/>
<path d="M232.78 374.19C232.78 374.573 232.482 374.888 232.118 374.888C231.755 374.888 231.457 374.573 231.457 374.19V332.025C231.457 331.642 231.755 331.328 232.118 331.328C232.481 331.328 232.78 331.642 232.78 332.025V374.19Z" fill="#D0DBE8"/>
<path d="M236.081 383.047H221.645V385.932H236.081V383.047Z" fill="#D0DBE8"/>
<path d="M235.117 376.266H222.605V378.65H235.117V376.266Z" fill="#BAD2E3"/>
<path d="M234.874 378.523H222.844V383.044H234.874V378.523Z" fill="#A5BED2"/>
<path d="M202.829 320.531H189.355V322.915H202.829V320.531Z" fill="#829AB1"/>
<path d="M202.356 327.309H189.844V329.693H202.356V327.309Z" fill="#BAD2E3"/>
<path d="M202.107 322.914H190.078V327.432H202.107V322.914Z" fill="#A5BED2"/>
<path d="M202.107 329.57H190.078V376.644H202.107V329.57Z" fill="#E9EEF8"/>
<path d="M193.511 374.19C193.511 374.573 193.214 374.888 192.849 374.888C192.486 374.888 192.188 374.573 192.188 374.19V332.025C192.188 331.642 192.485 331.328 192.849 331.328C193.214 331.328 193.511 331.642 193.511 332.025V374.19Z" fill="#D0DBE8"/>
<path d="M196.765 374.19C196.765 374.573 196.467 374.888 196.102 374.888C195.74 374.888 195.441 374.573 195.441 374.19V332.025C195.441 331.642 195.74 331.328 196.102 331.328C196.467 331.328 196.765 331.642 196.765 332.025V374.19Z" fill="#D0DBE8"/>
<path d="M200.011 374.19C200.011 374.573 199.714 374.888 199.349 374.888C198.986 374.888 198.688 374.573 198.688 374.19V332.025C198.688 331.642 198.986 331.328 199.349 331.328C199.713 331.328 200.011 331.642 200.011 332.025V374.19Z" fill="#D0DBE8"/>
<path d="M203.315 383.047H188.879V385.932H203.315V383.047Z" fill="#D0DBE8"/>
<path d="M202.356 376.266H189.844V378.65H202.356V376.266Z" fill="#BAD2E3"/>
<path d="M202.107 378.523H190.078V383.044H202.107V378.523Z" fill="#A5BED2"/>
<path d="M177.016 320.531H163.543V322.915H177.016V320.531Z" fill="#829AB1"/>
<path d="M176.544 327.309H164.031V329.693H176.544V327.309Z" fill="#BAD2E3"/>
<path d="M176.297 322.914H164.266V327.432H176.297V322.914Z" fill="#A5BED2"/>
<path d="M176.297 329.57H164.266V376.644H176.297V329.57Z" fill="#E9EEF8"/>
<path d="M167.703 374.19C167.703 374.573 167.404 374.888 167.041 374.888C166.677 374.888 166.379 374.573 166.379 374.19V332.025C166.379 331.642 166.677 331.328 167.041 331.328C167.404 331.328 167.703 331.642 167.703 332.025V374.19Z" fill="#D0DBE8"/>
<path d="M170.956 374.19C170.956 374.573 170.658 374.888 170.295 374.888C169.93 374.888 169.633 374.573 169.633 374.19V332.025C169.633 331.642 169.93 331.328 170.295 331.328C170.658 331.328 170.956 331.642 170.956 332.025V374.19Z" fill="#D0DBE8"/>
<path d="M174.202 374.19C174.202 374.573 173.904 374.888 173.54 374.888C173.176 374.888 172.879 374.573 172.879 374.19V332.025C172.879 331.642 173.176 331.328 173.54 331.328C173.904 331.328 174.202 331.642 174.202 332.025V374.19Z" fill="#D0DBE8"/>
<path d="M177.502 383.047H163.066V385.932H177.502V383.047Z" fill="#D0DBE8"/>
<path d="M176.544 376.266H164.031V378.65H176.544V376.266Z" fill="#BAD2E3"/>
<path d="M176.297 378.523H164.266V383.044H176.297V378.523Z" fill="#A5BED2"/>
<path d="M261.018 316.949H163.934V320.53H261.018V316.949Z" fill="#BAD2E3"/>
<path opacity="0.3" d="M247.317 320.53C247.317 320.53 246.761 317.476 232.621 316.949H261.019V320.53H247.317Z" fill="#BAD2E3"/>
<path d="M256.534 293.598H168.406V301.295H256.534V293.598Z" fill="#BAD2E3"/>
<path opacity="0.3" d="M256.533 301.294V293.695H247.523C247.523 293.695 253.592 295.129 253.018 301.294H256.533Z" fill="#BAD2E3"/>
<path d="M257.774 290.586H167.176V293.696H257.774V290.586Z" fill="#DFECF9"/>
<path d="M212.471 280.66L169.406 301.293H212.471H255.535L212.471 280.66Z" fill="#F1F5FB"/>
<path d="M260.657 303.789H164.289V313.366H260.657V303.789Z" fill="#A5BED2"/>
<path opacity="0.3" d="M247.635 313.362C247.635 313.362 245.23 306.537 227.945 304.867H260.651V313.362H247.635Z" fill="#A5BED2"/>
<path d="M212.472 283.379L178.719 299.55H212.472H246.224L212.472 283.379Z" fill="#829AB1"/>
<path opacity="0.3" d="M225.201 299.55C225.201 299.55 232.526 294.868 218.789 286.406L246.221 299.55H225.201Z" fill="#829AB1"/>
<path d="M261.709 301.297H163.238V304.877H261.709V301.297Z" fill="#D0DBE8"/>
<path opacity="0.8" d="M261.709 303.797H163.238V304.876H261.709V303.797Z" fill="#D0DBE8"/>
<path d="M261.709 313.367H163.238V316.947H261.709V313.367Z" fill="#D0DBE8"/>
<path opacity="0.8" d="M261.709 315.742H163.238V316.948H261.709V315.742Z" fill="#D0DBE8"/>
<path d="M287.564 305.236C299.164 305.236 308.569 295.832 308.569 284.232C308.569 272.631 299.164 263.227 287.564 263.227C275.963 263.227 266.559 272.631 266.559 284.232C266.559 295.832 275.963 305.236 287.564 305.236Z" fill="#F26942"/>
<path d="M285.599 279.529C285.599 284.029 282.753 286.379 279.643 286.379C276.367 286.379 273.785 283.929 273.785 279.892C273.785 276.054 276.134 273.141 279.807 273.141C283.514 273.142 285.599 275.854 285.599 279.529ZM277.523 279.761C277.523 282.011 278.285 283.633 279.742 283.633C281.164 283.633 281.86 282.177 281.86 279.761C281.86 277.576 281.263 275.889 279.709 275.889C278.219 275.889 277.523 277.608 277.523 279.761ZM279.907 295.381L292.25 273.142H294.963L282.587 295.381H279.907ZM301.086 288.464C301.086 292.965 298.242 295.315 295.13 295.315C291.886 295.315 289.306 292.865 289.272 288.827C289.272 284.989 291.621 282.076 295.296 282.076C299.002 282.077 301.086 284.791 301.086 288.464ZM293.045 288.695C293.013 290.947 293.773 292.567 295.23 292.567C296.652 292.567 297.348 291.112 297.348 288.695C297.348 286.512 296.787 284.824 295.23 284.824C293.706 284.824 293.045 286.545 293.045 288.695Z" fill="white"/>
<path opacity="0.4" d="M299.448 266.914C301.774 270.295 303.138 274.39 303.138 278.804C303.138 290.404 293.733 299.808 282.133 299.808C277.72 299.808 273.625 298.444 270.246 296.118C274.032 301.623 280.375 305.233 287.561 305.233C299.16 305.233 308.564 295.828 308.564 284.229C308.564 277.043 304.953 270.702 299.448 266.914Z" fill="#F15C2C"/>
<path d="M159.48 395.697C159.734 396.744 159.088 397.807 158.042 398.062L120.92 407.109C119.873 407.365 118.809 406.716 118.554 405.671L107.735 361.281C107.481 360.235 108.127 359.17 109.172 358.916L146.296 349.869C147.342 349.612 148.407 350.26 148.66 351.304L159.48 395.697Z" fill="#0273FA"/>
<path d="M146.332 353.858L111.145 362.434L113.579 372.421L148.767 363.845L146.332 353.858Z" fill="#374665"/>
<path d="M123.175 378.723C123.302 379.246 122.978 379.778 122.456 379.906L116.734 381.301C116.213 381.428 115.68 381.104 115.552 380.58L114.739 377.245C114.611 376.724 114.935 376.19 115.459 376.063L121.179 374.669C121.703 374.54 122.235 374.865 122.362 375.387L123.175 378.723Z" fill="#E9EEF8"/>
<path d="M132.35 376.489C132.478 377.011 132.154 377.544 131.631 377.671L125.911 379.064C125.387 379.192 124.855 378.868 124.728 378.346L123.915 375.01C123.787 374.487 124.111 373.957 124.633 373.828L130.355 372.434C130.876 372.307 131.409 372.63 131.537 373.152L132.35 376.489Z" fill="#E9EEF8"/>
<path d="M141.51 374.254C141.637 374.777 141.315 375.308 140.792 375.437L135.07 376.831C134.548 376.958 134.015 376.635 133.888 376.112L133.075 372.776C132.947 372.254 133.271 371.722 133.795 371.594L139.515 370.199C140.039 370.072 140.57 370.397 140.698 370.918L141.51 374.254Z" fill="#E9EEF8"/>
<path d="M150.745 372.003C150.874 372.527 150.549 373.059 150.026 373.188L144.306 374.581C143.783 374.709 143.25 374.384 143.123 373.861L142.309 370.526C142.182 370.005 142.507 369.471 143.029 369.345L148.75 367.949C149.273 367.823 149.805 368.146 149.932 368.669L150.745 372.003Z" fill="#E9EEF8"/>
<path d="M124.975 386.09C125.103 386.614 124.779 387.146 124.255 387.274L118.535 388.667C118.012 388.796 117.48 388.471 117.351 387.948L116.539 384.613C116.412 384.089 116.736 383.558 117.259 383.43L122.979 382.036C123.502 381.908 124.034 382.233 124.162 382.756L124.975 386.09Z" fill="#E9EEF8"/>
<path d="M134.152 383.856C134.279 384.379 133.956 384.911 133.432 385.039L127.712 386.434C127.188 386.561 126.655 386.237 126.528 385.712L125.715 382.378C125.588 381.854 125.912 381.322 126.436 381.194L132.156 379.801C132.68 379.675 133.212 379.997 133.34 380.52L134.152 383.856Z" fill="#E9EEF8"/>
<path d="M143.311 381.622C143.439 382.144 143.116 382.676 142.593 382.805L136.872 384.199C136.348 384.327 135.816 384.003 135.689 383.478L134.875 380.144C134.748 379.621 135.072 379.088 135.595 378.96L141.316 377.567C141.839 377.439 142.37 377.764 142.498 378.285L143.311 381.622Z" fill="#E9EEF8"/>
<path d="M152.545 379.371C152.673 379.896 152.349 380.427 151.826 380.555L146.106 381.949C145.584 382.076 145.05 381.752 144.923 381.229L144.11 377.894C143.982 377.37 144.307 376.839 144.831 376.711L150.55 375.317C151.073 375.189 151.605 375.515 151.733 376.038L152.545 379.371Z" fill="#E9EEF8"/>
<path d="M126.767 393.467C126.896 393.987 126.571 394.521 126.048 394.648L120.328 396.041C119.805 396.171 119.272 395.846 119.145 395.323L118.333 391.987C118.205 391.464 118.529 390.931 119.052 390.804L124.773 389.411C125.294 389.283 125.828 389.606 125.955 390.131L126.767 393.467Z" fill="#E9EEF8"/>
<path d="M135.933 391.23C136.06 391.754 135.737 392.286 135.214 392.415L129.492 393.809C128.969 393.935 128.437 393.612 128.31 393.088L127.497 389.754C127.369 389.23 127.692 388.697 128.215 388.57L133.936 387.177C134.459 387.048 134.992 387.372 135.119 387.894L135.933 391.23Z" fill="#E9EEF8"/>
<path d="M145.104 388.997C145.232 389.52 144.909 390.052 144.385 390.179L138.664 391.573C138.141 391.701 137.609 391.377 137.481 390.855L136.668 387.519C136.541 386.996 136.865 386.465 137.389 386.336L143.109 384.942C143.633 384.814 144.164 385.138 144.292 385.662L145.104 388.997Z" fill="#E9EEF8"/>
<path d="M137.739 398.6C137.866 399.124 137.542 399.656 137.019 399.783L122.129 403.412C121.606 403.541 121.075 403.216 120.946 402.694L120.133 399.358C120.005 398.836 120.329 398.304 120.853 398.176L135.742 394.547C136.265 394.42 136.798 394.742 136.925 395.265L137.739 398.6Z" fill="#F8AC9C"/>
<path d="M146.905 396.364C147.032 396.886 146.709 397.418 146.186 397.545L140.465 398.941C139.941 399.068 139.409 398.744 139.282 398.222L138.469 394.886C138.342 394.364 138.666 393.83 139.189 393.703L144.91 392.31C145.433 392.18 145.964 392.505 146.092 393.028L146.905 396.364Z" fill="#E9EEF8"/>
<path d="M156.131 394.117C156.258 394.638 155.935 395.172 155.411 395.298L149.691 396.692C149.167 396.821 148.635 396.496 148.508 395.974L145.899 385.268C145.771 384.745 146.096 384.214 146.618 384.086L152.339 382.692C152.862 382.564 153.394 382.888 153.521 383.412L156.131 394.117Z" fill="#4DBE9B"/>
<path d="M290.337 408.068C290.028 409.66 288.474 410.712 286.883 410.403L226.795 398.771C225.204 398.463 224.151 396.91 224.46 395.316L231.333 359.811C231.641 358.218 233.196 357.166 234.789 357.476L294.875 369.108C296.468 369.414 297.518 370.97 297.209 372.561L290.337 408.068Z" fill="#4165AF"/>
<path d="M248.255 358.958L240.645 357.484L240.09 360.349L247.701 361.823L248.255 358.958Z" fill="#BAD2E3"/>
<path d="M289.448 366.897L281.84 365.422L281.284 368.287L288.893 369.762L289.448 366.897Z" fill="#BAD2E3"/>
<path d="M294.875 369.108L234.789 357.476C233.196 357.166 231.641 358.218 231.333 359.811L229.082 371.444C229.082 371.444 255.9 392.398 294.956 384.196L297.209 372.562C297.519 370.97 296.469 369.414 294.875 369.108Z" fill="#2151A3"/>
<path d="M268.075 379.437L255.789 377.059L255.164 380.287L267.45 382.666L268.075 379.437Z" fill="#BAD2E3"/>
<path d="M276.382 359.939L273.828 359.445L272.787 364.833L275.34 365.327L276.382 359.939Z" fill="#BAD2E3"/>
<path d="M276.407 359.92L275.484 359.742L274.446 365.131L275.368 365.308L276.407 359.92Z" fill="#BAD2E3"/>
<path d="M257.878 356.357L255.324 355.863L254.283 361.25L256.837 361.744L257.878 356.357Z" fill="#BAD2E3"/>
<path d="M257.709 356.327L256.961 356.184L255.924 361.572L256.672 361.716L257.709 356.327Z" fill="#BAD2E3"/>
<path d="M278.586 360.259C278.495 360.736 278.029 361.052 277.551 360.959L253.882 356.378C253.404 356.285 253.087 355.819 253.18 355.342L253.808 352.099C253.902 351.622 254.368 351.307 254.846 351.399L278.515 355.981C278.992 356.074 279.307 356.538 279.214 357.017L278.586 360.259Z" fill="#2151A3"/>
<path opacity="0.4" d="M278.514 355.983L277.844 355.852L277.297 358.68C277.203 359.158 276.737 359.473 276.259 359.381L253.261 354.93L253.181 355.344C253.086 355.82 253.403 356.286 253.882 356.38L277.551 360.961C278.028 361.055 278.495 360.739 278.587 360.261L279.215 357.019C279.306 356.54 278.991 356.075 278.514 355.983Z" fill="#2151A3"/>
<path opacity="0.4" d="M263.801 405.934L286.888 410.405C288.479 410.713 290.033 409.661 290.342 408.069L294.563 386.254C288.576 410.23 265.903 406.327 263.801 405.934Z" fill="#4165AF"/>
<path d="M218.277 405.767L218.346 409.38C218.368 411.867 210.774 414.107 201.382 413.922C191.988 413.736 184.352 411.193 184.33 408.708L184.301 405.527C184.301 405.527 201.356 401.514 218.277 405.767Z" fill="#FBBA30"/>
<path d="M218.32 406.199C218.34 408.686 210.748 410.927 201.353 410.741C191.959 410.555 184.322 408.014 184.301 405.525C184.27 402.079 191.869 400.154 201.262 400.341C210.655 400.525 218.288 402.487 218.32 406.199Z" fill="#FEE04F"/>
<path d="M214.786 405.734C214.804 407.681 208.717 409.436 201.187 409.293C193.657 409.149 187.536 407.161 187.52 405.214C187.497 402.521 193.586 401.014 201.115 401.158C208.644 401.303 214.761 402.834 214.786 405.734Z" fill="#FBBA30"/>
<path d="M214.794 405.885C214.81 407.747 208.722 409.427 201.191 409.295C193.661 409.16 187.544 407.261 187.527 405.399C187.505 402.823 193.595 401.378 201.124 401.513C208.651 401.646 214.769 403.11 214.794 405.885Z" fill="#FED208"/>
<path d="M206.162 408.032L205.187 407.521C204.224 407.627 203.09 407.646 202.273 407.59L201.3 406.841C202.234 406.903 203.372 406.924 204.328 406.81C205.133 406.714 205.449 406.52 205.023 406.281C204.61 406.049 203.879 405.953 202.462 405.91C200.298 405.848 198.375 405.628 196.964 404.93C195.571 404.252 195.671 403.615 197.384 403.314L195.871 402.516L197.718 402.414L199.057 403.143C200.277 403.092 201.227 403.154 201.983 403.241L202.94 404.113C202.388 404.06 201.323 403.95 200.13 404.043C198.998 404.132 199.028 404.369 199.432 404.577C199.888 404.818 200.765 404.915 202.513 405.014C204.81 405.126 206.088 405.408 207.008 405.957C207.874 406.475 207.775 407.003 206.454 407.308L207.458 407.852L206.162 408.032Z" fill="#FAAF34"/>
<path d="M218.056 401.913C218.07 404.403 210.467 406.619 201.075 406.404C191.682 406.188 184.053 403.622 184.039 401.133C184.02 397.686 191.623 395.785 201.018 396.001C210.408 396.216 218.035 398.204 218.056 401.913Z" fill="#FEE04F"/>
<path d="M218.003 401.476L218.062 405.088C218.077 407.576 210.475 409.794 201.083 409.579C191.689 409.363 184.061 406.795 184.047 404.306L184.027 401.128C184.027 401.128 201.097 397.173 218.003 401.476Z" fill="#FBBA30"/>
<path d="M218.044 401.91C218.058 404.399 210.455 406.615 201.064 406.4C191.67 406.184 184.041 403.618 184.027 401.13C184.008 397.683 191.612 395.781 201.006 395.997C210.396 396.212 218.024 398.2 218.044 401.91Z" fill="#FEE04F"/>
<path d="M214.508 401.438C214.519 403.384 208.425 405.119 200.896 404.953C193.37 404.784 187.253 402.777 187.242 400.83C187.228 398.137 193.322 396.651 200.851 396.817C208.379 396.985 214.491 398.537 214.508 401.438Z" fill="#FBBA30"/>
<path d="M214.508 401.591C214.518 403.451 208.423 405.111 200.895 404.955C193.365 404.796 187.253 402.878 187.242 401.014C187.229 398.438 193.323 397.015 200.851 397.172C208.379 397.331 214.491 398.814 214.508 401.591Z" fill="#FED208"/>
<path d="M205.896 403.706L204.923 403.191C203.96 403.294 202.827 403.308 202.009 403.251L201.037 402.496C201.972 402.564 203.109 402.588 204.066 402.477C204.871 402.384 205.187 402.19 204.761 401.951C204.349 401.718 203.619 401.616 202.203 401.571C200.038 401.502 198.117 401.277 196.71 400.574C195.316 399.891 195.418 399.255 197.132 398.957L195.621 398.153L197.467 398.059L198.806 398.791C200.024 398.745 200.975 398.809 201.731 398.898L202.685 399.773C202.133 399.719 201.069 399.606 199.876 399.696C198.743 399.779 198.773 400.016 199.176 400.227C199.633 400.469 200.506 400.568 202.257 400.673C204.552 400.792 205.829 401.077 206.748 401.63C207.611 402.153 207.512 402.679 206.191 402.98L207.191 403.528L205.896 403.706Z" fill="#FAAF34"/>
<path d="M218.239 396.858L218.368 400.468C218.429 402.955 210.872 405.316 201.478 405.281C192.081 405.243 184.407 402.819 184.344 400.333L184.266 397.152C184.266 397.152 201.256 392.873 218.239 396.858Z" fill="#FBBA30"/>
<path d="M218.292 397.29C218.351 399.779 210.794 402.139 201.399 402.101C192.003 402.065 184.328 399.642 184.266 397.155C184.182 393.71 191.749 391.664 201.143 391.704C210.537 391.738 218.2 393.581 218.292 397.29Z" fill="#FEE04F"/>
<path d="M214.753 396.885C214.8 398.831 208.741 400.682 201.209 400.656C193.681 400.632 187.529 398.74 187.481 396.794C187.416 394.103 193.48 392.501 201.011 392.524C208.541 392.548 214.682 393.986 214.753 396.885Z" fill="#FBBA30"/>
<path d="M214.76 397.037C214.805 398.898 208.745 400.675 201.213 400.658C193.683 400.644 187.536 398.842 187.489 396.979C187.427 394.403 193.493 392.864 201.023 392.879C208.551 392.897 214.692 394.261 214.76 397.037Z" fill="#FED208"/>
<path d="M206.173 399.312L205.19 398.817C204.23 398.937 203.097 398.974 202.279 398.93L201.294 398.194C202.229 398.245 203.366 398.248 204.321 398.117C205.123 398.011 205.436 397.812 205.006 397.578C204.591 397.353 203.858 397.267 202.442 397.248C200.275 397.22 198.351 397.032 196.929 396.354C195.524 395.699 195.615 395.06 197.323 394.731L195.797 393.957L197.641 393.828L198.994 394.534C200.211 394.466 201.164 394.511 201.92 394.587L202.891 395.444C202.338 395.401 201.273 395.308 200.08 395.418C198.949 395.524 198.984 395.761 199.39 395.964C199.85 396.198 200.729 396.279 202.479 396.352C204.778 396.428 206.06 396.688 206.988 397.224C207.862 397.729 207.773 398.257 206.455 398.582L207.467 399.11L206.173 399.312Z" fill="#FAAF34"/>
<path d="M217.929 390.968L218.139 394.575C218.257 397.061 210.754 399.593 201.361 399.769C191.967 399.944 184.238 397.696 184.12 395.212L183.969 392.034C183.969 392.034 200.858 387.37 217.929 390.968Z" fill="#FBBA30"/>
<path d="M217.984 391.398C218.1 393.885 210.598 396.416 201.204 396.59C191.81 396.767 184.08 394.52 183.964 392.034C183.8 388.592 191.319 386.376 200.713 386.2C210.106 386.024 217.808 387.691 217.984 391.398Z" fill="#FEE04F"/>
<path d="M214.431 391.067C214.524 393.011 208.507 394.998 200.98 395.145C193.45 395.291 187.258 393.54 187.166 391.594C187.039 388.905 193.065 387.165 200.595 387.019C208.124 386.874 214.295 388.171 214.431 391.067Z" fill="#FBBA30"/>
<path d="M214.442 391.218C214.531 393.078 208.51 394.99 200.982 395.147C193.453 395.303 187.267 393.638 187.178 391.778C187.056 389.203 193.086 387.527 200.615 387.372C208.143 387.218 214.312 388.444 214.442 391.218Z" fill="#FED208"/>
<path d="M205.914 393.705L204.919 393.232C203.963 393.374 202.832 393.436 202.012 393.411L201.01 392.7C201.947 392.727 203.084 392.703 204.035 392.553C204.834 392.426 205.144 392.222 204.708 392C204.288 391.783 203.553 391.714 202.136 391.726C199.97 391.748 198.041 391.602 196.605 390.958C195.185 390.334 195.26 389.694 196.961 389.328L195.418 388.587L197.258 388.414L198.626 389.091C199.841 388.995 200.795 389.019 201.554 389.076L202.544 389.911C201.991 389.88 200.923 389.811 199.733 389.95C198.605 390.082 198.644 390.316 199.058 390.509C199.523 390.732 200.403 390.795 202.154 390.828C204.452 390.851 205.742 391.084 206.682 391.597C207.566 392.083 207.49 392.614 206.18 392.97L207.204 393.474L205.914 393.705Z" fill="#FAAF34"/>
<path d="M235.576 404.643C234.825 410.463 228.152 415.183 220.556 412.581C213.23 410.495 207.792 403.598 208.711 397.314C209.624 391.084 215.831 385.606 223.548 390.782C230.388 393.226 236.319 398.865 235.576 404.643Z" fill="#FBBA30"/>
<path d="M235.872 403.266C235.119 409.089 229.056 412.286 222.054 410.291C214.727 408.202 209.289 401.307 210.211 395.024C211.121 388.79 217.898 385.937 225.049 388.493C231.886 390.935 236.615 397.489 235.872 403.266Z" fill="#FEE04F"/>
<path d="M233.138 402.251C232.559 406.736 227.889 409.201 222.491 407.663C216.847 406.054 212.658 400.742 213.367 395.899C214.07 391.1 219.29 388.899 224.801 390.868C230.068 392.749 233.713 397.801 233.138 402.251Z" fill="#FBBA30"/>
<path d="M232.836 402.397C232.468 406.762 228.079 409.215 222.731 407.68C216.519 405.889 212.501 400.871 213.265 395.745C213.961 391.059 219.246 389.191 224.605 391.298C229.631 393.276 233.194 398.148 232.836 402.397Z" fill="#FED208"/>
<path d="M220.87 405.833L221.275 404.262C220.181 403.928 219.186 403.352 218.652 402.825L219.648 401.024C220.244 401.58 221.127 402.181 222.203 402.457C223.144 402.701 223.883 402.505 224.052 401.843C224.216 401.215 223.789 400.681 222.675 399.954C221.062 398.903 220.066 397.764 220.482 396.16C220.856 394.706 222.179 393.833 224.036 393.945L224.438 392.375L226.059 392.793L225.684 394.246C226.775 394.581 227.459 395.006 227.938 395.411L226.976 397.154C226.594 396.859 225.933 396.285 224.743 395.977C223.669 395.698 223.201 396.072 223.083 396.534C222.941 397.077 223.43 397.574 224.697 398.466C226.485 399.669 227.041 400.783 226.658 402.269C226.279 403.739 224.912 404.725 222.928 404.564L222.494 406.25L220.87 405.833Z" fill="#FAAF34"/>
<path opacity="0.75" d="M198.167 391.834C205.808 391.125 211.897 389.413 211.767 388.011C211.637 386.608 205.337 386.046 197.695 386.755C190.054 387.464 183.965 389.176 184.095 390.579C184.225 391.981 190.525 392.544 198.167 391.834Z" fill="#D5D5D6"/>
<path d="M213.544 379.765L214.254 383.234C214.716 385.626 207.798 389.135 198.715 390.624C189.63 392.113 181.821 391.02 181.359 388.624L180.766 385.566C180.766 385.566 196.486 378.675 213.544 379.765Z" fill="#FBBA30"/>
<path d="M213.664 380.173C214.126 382.567 207.209 386.075 198.124 387.564C189.041 389.053 181.232 387.959 180.767 385.565C180.127 382.251 187.106 379.048 196.189 377.558C205.273 376.069 212.974 376.605 213.664 380.173Z" fill="#FEE04F"/>
<path d="M210.171 380.352C210.533 382.224 204.977 384.996 197.699 386.195C190.419 387.393 184.169 386.564 183.809 384.694C183.307 382.102 188.907 379.568 196.187 378.37C203.463 377.172 209.632 377.563 210.171 380.352Z" fill="#FBBA30"/>
<path d="M210.194 380.499C210.54 382.29 204.97 384.991 197.694 386.199C190.416 387.405 184.183 386.664 183.837 384.872C183.357 382.392 188.97 379.921 196.247 378.712C203.524 377.507 209.678 377.831 210.194 380.499Z" fill="#FED208"/>
<path d="M202.287 384.1L201.256 383.781C200.348 384.056 199.26 384.273 198.463 384.365L197.393 383.813C198.304 383.71 199.402 383.528 200.303 383.246C201.062 383.013 201.332 382.77 200.878 382.615C200.44 382.466 199.719 382.503 198.347 382.712C196.248 383.037 194.359 383.166 192.875 382.745C191.412 382.341 191.394 381.708 192.991 381.113L191.391 380.612L193.151 380.188L194.573 380.651C195.737 380.388 196.664 380.276 197.41 380.227L198.486 380.894C197.945 380.945 196.9 381.025 195.766 381.327C194.69 381.613 194.763 381.835 195.191 381.965C195.672 382.117 196.533 382.054 198.237 381.837C200.469 381.539 201.751 381.584 202.736 381.95C203.661 382.295 203.66 382.82 202.442 383.35L203.504 383.693L202.287 384.1Z" fill="#FAAF34"/>
<ellipse cx="236.501" cy="454.662" rx="234.907" ry="5.58353" fill="#D9D9D9"/>
</svg>
